/* XPM */
static char *bachgroundd[] = {
/* columns rows colors chars-per-pixel */
"45 45 32 1 ",
"  c #6AC7E7",
". c #6AC6E9",
"X c #67C8E9",
"o c #6CCBED",
"O c #71CEED",
"+ c #6FD0EF",
"@ c #72D0EE",
"# c #79D3EF",
"$ c #6DCDF2",
"% c #71CEF1",
"& c #6ED0F1",
"* c #74D3F4",
"= c #7AD6F5",
"- c #7DD9F6",
"; c #75D5F9",
": c #7AD6FA",
"> c #77D8FA",
", c #7CDBFD",
"< c #7FE1FE",
"1 c #80D6F5",
"2 c #82DBF6",
"3 c #80D6F9",
"4 c #83DCFD",
"5 c #89DFFC",
"6 c #8FEAF7",
"7 c #84E2FE",
"8 c #8CE4FE",
"9 c #8CE8FE",
"0 c #93E6FF",
"q c #99E7FF",
"w c #92EAFF",
"e c #9AE9FF",
/* pixels */
"<<7<7<77444444444,,<*>>><,4,,4:3,:43343343333",
"7777------334334,,,><,<>,,,,4744444:334355454",
"727-3---22222232-<>-<<<,----47477444445445455",
"####888888ww2222###*#=#=>===-334,422544543544",
"23240000w809908w7772722,---,------22233-33--:",
"q0q00000008w66996699998899968877-----23-23227",
"qqeqq000w88666669www90w06996www99999999988990",
"q00000000w886699999968867777999999999999wwww9",
"3333====1122277879892222@@*=----27779989w0878",
"3=31==#=***#==:=422277787-=#@@@@O#-78888-:-==",
"3:=:==**&+@+,<<<9999ewwww97,,-2,***-**#*==:-=",
":3:=:=;;>++++@*&<4,72744=*@o%#**4-3:-->=O*:-*",
":::,>>>,><><XX&oo$&$$%%%%%O$OoOO....O$%OO*-=;",
",,,,,:,,,><<<<<<>,,,,,,,7477443:,::,::::,:::4",
",,,:,,,,<<<>>>>>>>>>>>>,4444444,444,3:4,4,,,,",
":,,,,:,,>,><<><>;;>>;;>;;==*,,,4,,443:::,4444",
">>>>,,<,,,,,><,,,<>>>>,>,,,,-,-,,,,,,,,7;;;;:",
",<,,,,>>>>>>>,,,,,<,<,<,,<,,,,,,;;:=->>->::,:",
",<,<,,;>>>>>,,,,,,,,,,7,,<,7,,,,,,44,,7,,,,,,",
">>=>;>>>>>>>>>,>->,,,,,,,,,,,,>,,>,:,,,:,4,,:",
"<<<<<<<<7<<<,,,,,,,,,<,,4,4,7,7,::4,;;;;,:::,",
"&&&>&*&*>>>;,77,,,4,4,4,4,4,<,;;:::,:,:,,,,:,",
"&&&+&&&&Xo&*=>,,,,,,,,,:,,;:;$$$$$$$:::,;:>;>",
"<>>>>,>>oooo o$%->->,>:>$$$$$.$$$$$$$$$$$$$$$",
"<<<<,<,<,,,,*&%*&$$$*$*%$$&$$$$$$$$$$$$$&;<><",
"<>4,-:>,,-,,,,,,,,,,,>,,,>,,><<>>,>>:>,>>><,<",
">-,:,--:::,:,,,:--33,,,,>>>>,,>>,,7<,477<<<,,",
"-::-44444444-===*=**%*%=,,,,<<<<,,,<4,,,<>,,,",
"1=334545545545233333333:,--,-,:,->->,,42-::-,",
"124588088888542332322453333-,-3:--*-,-,-,,4,4",
"2585ww00w0ww085555555558808888887<<<-<,,44444",
"888888888089ew8605088088878779787796777877444",
"3---***=:3::57877777-<<<>,>*>>>:,,77979799999",
"-:::=*==:::::=*=<<<<-<<<>>;;;;;;;=,7,,,<=>=>=",
":,-,;**;$$.$,---<<<<<77<<,>>;;;*;**;****->---",
",:,-*;*;$$%%&@****&*+@**&$$$$$$$$&**->-*>****",
"474777<7<,,,*>**&&*&&&*&*;**%$+ooooo+@@@@>>,-",
",,44,,,-,,,,7777,<<<<<<<<,,<4,4-==>-=**>-,,74",
",,,:;::-=#--::>,,,<,>>==><,<7<<<,7<,,4,,,<,4:",
":=:-,,,2-<-,,,:,****>--:>***,,,<,,,<2,7,,4444",
"2#-225756227222-3333:3:--#*-=-----3-43433-33=",
"22758808w9w0052233334444--<-,,43,434:=1333333",
"26788080w600060555554457777777777755:33345444",
"768688066578800858888577699788887858875855555",
"767622622254800080887878227,-4477555880808800"
};
