/* XPM */
static char *bigswan[] = {
/* columns rows colors chars-per-pixel */
"50 50 237 2 ",
"   c #34576F",
".  c #5E7088",
"X  c #807E8C",
"o  c #7C828B",
"O  c #7095AD",
"+  c #7A9CB2",
"@  c #7A89AB",
"#  c #72A3B9",
"$  c #6EB0CC",
"%  c #6EB7D7",
"&  c #7EBEDA",
"*  c #7AB7D7",
"=  c #71AAC6",
"-  c #6ABDE5",
";  c #7CBFE3",
":  c #69C1DE",
">  c #7AC1D9",
",  c #59CBEB",
"<  c #6CC3E5",
"1  c #6FCAE6",
"2  c #65C7ED",
"3  c #66C9ED",
"4  c #6CCBED",
"5  c #69C6E9",
"6  c #74C8E7",
"7  c #73C6EA",
"8  c #7BC5EB",
"9  c #73CBEC",
"0  c #7ACAED",
"q  c #7AC6E3",
"w  c #6DD2EE",
"e  c #7BD3ED",
"r  c #76DFED",
"t  c #7CDCEE",
"y  c #79D4E8",
"u  c #6AC7F2",
"i  c #6DCCF2",
"p  c #74C7F6",
"a  c #74CDF3",
"s  c #7CCDF2",
"d  c #75CDFB",
"f  c #7BCFFD",
"g  c #7DC3FB",
"h  c #6CD2F3",
"j  c #6DDBFA",
"k  c #74D4F5",
"l  c #7BD4F5",
"z  c #75D9F6",
"x  c #7CDBF5",
"c  c #75D5FA",
"v  c #7AD5FB",
"b  c #75DAFB",
"n  c #7DDBFD",
"m  c #78E1EE",
"M  c #7DE2F3",
"N  c #7CE1FE",
"B  c #9B8C9A",
"V  c #9B9199",
"C  c #8F98A8",
"Z  c #839FBA",
"A  c #8E8EA6",
"S  c #80A2BF",
"D  c #91A2BA",
"F  c #9BBDBF",
"G  c #ABBFBF",
"H  c #B2AABC",
"J  c #89B7C5",
"K  c #98B6C5",
"L  c #8ABBD4",
"P  c #94BAD7",
"I  c #8DAAC9",
"U  c #B9B1C6",
"Y  c #B2B5CF",
"T  c #A4AEC9",
"R  c #C6BAC9",
"E  c #D3BECE",
"W  c #CEB5D2",
"Q  c #D1B4CC",
"!  c #96C1C8",
"~  c #8CC4DC",
"^  c #85CADB",
"/  c #8BCBDE",
"(  c #87C5D7",
")  c #92CAD6",
"_  c #90C6D9",
"`  c #9BCAD8",
"'  c #8FD4DC",
"]  c #A3C9DA",
"[  c #ACD5DC",
"{  c #A2D2DD",
"}  c #BDCAD2",
"|  c #80C4E3",
" . c #83CCE3",
".. c #8CCCE4",
"X. c #84CDEB",
"o. c #8ACCEA",
"O. c #8AC5E5",
"+. c #92CEE3",
"@. c #93CAEA",
"#. c #99C8E5",
"$. c #8CD1E4",
"%. c #84D3EE",
"&. c #8CD3ED",
"*. c #83D9ED",
"=. c #8BDCEE",
"-. c #83D8E4",
";. c #94D1E7",
":. c #9BD2E5",
">. c #94D3EB",
",. c #9BD4EC",
"<. c #99DCEC",
"1. c #94DBEB",
"2. c #83CDF3",
"3. c #8CC9F4",
"4. c #94C9F6",
"5. c #82D3F5",
"6. c #8CD4F5",
"7. c #83DBF4",
"8. c #8ADBF4",
"9. c #83D5FB",
"0. c #8AD4FB",
"q. c #82DCFE",
"w. c #8ADCFD",
"e. c #97D4F3",
"r. c #92DCF4",
"t. c #95D8FA",
"y. c #A5CAE2",
"u. c #ACDAE5",
"i. c #A5DDED",
"p. c #ACDEED",
"a. c #A8D4EA",
"s. c #B6DAEA",
"d. c #A0CEF7",
"f. c #A4DCF3",
"g. c #A9DBF8",
"h. c #BBCDE7",
"j. c #83E3EF",
"k. c #8CE4F5",
"l. c #83E1FF",
"z. c #8CE4FD",
"x. c #8EEAFF",
"c. c #85EAFA",
"v. c #93E6FE",
"b. c #9CE3FA",
"n. c #93EAFE",
"m. c #99E9FF",
"M. c #9AE4F4",
"N. c #8CF4FF",
"B. c #92F1FF",
"V. c #9AF2FF",
"C. c #AEE0EF",
"Z. c #AAE5F3",
"A. c #A5E5FB",
"S. c #BCEAF5",
"D. c #B2E6F8",
"F. c #BCEBFB",
"G. c #B6E6F8",
"H. c #A1F2FF",
"J. c #BBF3FF",
"K. c #C6C0CD",
"L. c #C6C4CC",
"P. c #CFD3C8",
"I. c #C9C3DC",
"U. c #D6C9D5",
"Y. c #C7DADA",
"T. c #D8D8DC",
"R. c #D7C8CF",
"E. c #E3DFDA",
"W. c #DDE3DC",
"Q. c #E8E4DE",
"!. c #C6DFE3",
"~. c #C0D6EA",
"^. c #DBDAEB",
"/. c #C5DAF5",
"(. c #DED6F3",
"). c #CBC8E3",
"_. c #E5D8E6",
"`. c #ECDDF2",
"'. c #F7DEF9",
"]. c #CCE4EA",
"[. c #C7E4EA",
"{. c #DCE5E5",
"}. c #DCE4EB",
"|. c #DFEEEB",
" X c #D3E6EC",
".X c #DDF2EB",
"XX c #DDF8EF",
"oX c #CCEAF3",
"OX c #C5EBFB",
"+X c #C6E6F8",
"@X c #D6EDFD",
"#X c #D7E7F6",
"$X c #C2F6FF",
"%X c #C9F4FE",
"&X c #CEFBFF",
"*X c #D5F3F6",
"=X c #DBF3F4",
"-X c #D3F4FF",
";X c #DDF5FD",
":X c #D3FBFF",
">X c #DDFDFE",
",X c #E3E3E4",
"<X c #E4E5EA",
"1X c #EBE6EE",
"2X c #E4EAEC",
"3X c #EAEDEC",
"4X c #E8E8E3",
"5X c #F5ECEF",
"6X c #E5F1EB",
"7X c #ECF2ED",
"8X c #E8F6EB",
"9X c #F1F2EE",
"0X c #F8FAED",
"qX c #E5E3F2",
"wX c #E4EBF3",
"eX c #ECEEF2",
"rX c #E7E9FC",
"tX c #F3EEF3",
"yX c #FBECF4",
"uX c #F4EEFC",
"iX c #FFEBFB",
"pX c #F8E5F8",
"aX c #E5F4F3",
"sX c #EDF3F3",
"dX c #E5F9F5",
"fX c #ECF9F4",
"gX c #E5F3FB",
"hX c #EBF4FB",
"jX c #E4FBFD",
"kX c #EBFDFE",
"lX c #F3F3F4",
"zX c #F2FAF3",
"xX c #F3F3FA",
"cX c #FBF3FC",
"vX c #F3FCFC",
"bX c #FCFCFF",
"nX c #FBF1F5",
/* pixels */
"w.q.v f 9.w.z.w.k.B.c.N.N.j.b.t.4.g w.c j j c c c c c b c b c c n q.q.q.n q.q.q.q.x q.n n l.x q.l.n ",
"v 9.w.z.z.z.z.z.V.k.B.j.k.1.4.O.4.4.0.v z z v v b v c l c l v b k l q.l.w.q.n x n n N n q.n l.n c l ",
"7.8.z.n.n.n.v.z.*.m.k.A.' p.P @ T P @.g.*.*.M t 7.7.7.7.7.7.7.7.l c k h h z x n M n x N z z z l e k ",
"n.n.z.k.z.n.n.n.v.k.<.a.s.hXW C Y @Xs.#.M.M.n.n.v.v.b.v.b.v.v.v.N.c.z.z.n z b l k z e z x x x x z.z.",
"k.k.z.z.n.n.n.n.k.A.;.+XrXpX_.E . }.jXs.u.Z.H.m.m.v.m.m.v.v.m.n.z.z.n.n.x.x.n.n.z.z.z.w.v.v.v.v.n.n.",
"n.n.n.n.n.n.n.n.m.b.# ~.(.H pXbXE.!.kXjXu.Z.M.n.v.n.n.n.n.m.m.n.n.x.x.z.n.n.n.z.v.v.v.v.v.v.v.v.v.v.",
"z.z.z.z.l.w.w.w.t.f.  T xXR _.nX1XbXhXkXS.1.k.M l.l.q.n q.b v x x 7.l.z.x.x.x.B.v.v.v.v.v.v.v.n.n.m.",
"9.n v 9.v l v 5.o._ . ^.cXiXR.4X,X2XxXjX>X<.t h h k c c c v b b k r z r z N c.x.x.x.x.x.x.x.x.z.w.w.",
"v v v v v l l 2.y.K X `.cX1X<XrXkX{.lXhXkXp.*.l.l.l.l.l.n n N c h z k j c b b n z.z.z.l.z.w.x x c l ",
"q.q.w.9.a d a q ] H B R.2XdXvXkXaX|.hXhXjXF.M.B.B.B.n.N.x.N l k c b b b c b b c c k l v w a k v k k ",
"l d k k k k l $ Z B B B Y..X*X[.].aXzXvXkX&Xr.z.z.z.c.z.n c i w h c c c b b c b c v c v v n n n n n ",
"n n n n l.w.n % + A C C F ` ` K Y.fXxXvXjX&X .1 4 4 i 4 4 4 5 5 4 4 i i h c b v c v v v f c d p - - ",
"n n n n n v n 7.>.;.,.,.>.o.#.{ !.fXhXxXkX&X .6 9 4 4 i 4 w 9 i u u 4 i 4 5 5 u u u p u d k v v 7 - ",
"9.n n n 9.v n n 7.7.9.w.l w.e.` [.aXhXhXjXF. .n n n n b n n n n n n 9.n v v v v q.n q.n n q.n w.0 X.",
"n n n 9.n n n 7.t t 7.q.q.l +.a.oXfX7XwXkXF.> w.l.l.q.l.l.q.l.l.n q.q.q.q.q.q.q.n n n n l.l.l.l.s l ",
"n v n v v v v x x M N n x 7.@.] =XhXsX<XbXF.> l b v v n b n b n q.w.w.q.q.q.7.q.q.q.n q.n q.q.q.q.w.",
"b l v n b n n n q.n l.7.8.1.:.u.aXlXsXhXjXF.o.s l c c c k d d k x 7.n n v q.j.7.n N n n l.l.w.l.v b ",
"n n b b n n b n n q.q.7.=.1.) oXgXhXhXhX-XL ^ 2.5.v q.w.q.9.9.7.8.8.9.n n 9.x 7.n n n b 9.b b v k j ",
"q.n n n n n b n b n x r -.' u.>XaXhXjXjXs.` <.$.>.>.+.....;.+.../ ..o.6.0.5.t x x n n n v v v v N N ",
"q.l.q.n n v v l v l y y ^ ) :X;XgXfXjX;X] { ) ) { u.OX-X:X:X:X:X$XD.a.O.+.&.5.x x v 9.n n q.l.l.b b ",
"n N q.n n b l c w.0 0 * ` h.jXvXsXaXkX].F ! [ :XkXkXkXvXdXdXjXjX>X>X>X>XC.+.=.e v q.n v 9.v v b 7.n ",
"l.n n N q.n n l.l X.# S ~.rXqXpXcXbX2XG } dXvXdXfXsXfXaXhXfXsXfXkXjXkXkXkXZ.^ z.v n n n n q.q.q.n N ",
"n N N N n q.n q.z.O.= T ).'.iXiXiXcXtXwXdXfXaXsXeX3X3X5X9XlXlXlXzXfX0XvXkXOX^ e 9.n n v v v k k n b ",
"N N n b b c l X.& P /._.Q Q E E R.iXxXlXvXfXzXnXzXtXlXlXeXeXlXlX7X9XnX5XvX-XJ.&.5.n n 9.n n n n N N ",
"h j h h 3 6 X.* # } rXcXrX`.K.^._.tXtXeXsXeXsXeXeXeX3X3XsX3X3X6X7X9X5XlXcXjXjXD.o.v q.w.q.l.n n b b ",
"j u N h k 7.| L ).U U W `._.cXcX<XlXeXlXeXlXeXsXeX3XsXsXhXsXlXfX9X9X9XyXbXbXdX` 8 a d k k 4 i i 3 3 ",
"c N h x 7.e._ y.rX`.T.R Y R bXxXtXeXtXeXsXtX9X3X3X3X7XsXlXfXfX7X9X9XlXyXxXbXjXJ q i 2 2 2 u u u b k ",
"b v l.n 6.O.s./.rXuXuXtXlXeXbXcXeXlXeXtXlX7X7X7XsXlX3X6X3X6X3X3X7X5XtXtXuXvXjXP 0 h 2 2 c v f v q.q.",
"q.n z.7./ ` oXrXxXlXnXnXtXeXtX7XlXeXlXlXtXsXsXhX3XlX2XsXzXfXsX7X7X9XtXnXbXhX].J > 1 x l.n n n n q.q.",
"9.v w.&.+.+X#XxX5XlXlXtXlXtXtXtXtXlXlXlXlXzXxXlXxX3XvXaX{.T.vXsX9X9X5XlXtXvXvX>XZ.' q z.9.q.n n n q.",
"v f 9...p.@X1XyXnX9X5X5X9XlXlX5XlXlXtXsX<X2X<X2XfX2XlXsX} L.zXvXlXlXlXlXxXhXkXjX>XF.C.$.8.7.n n N N ",
"f p &./ OX#XxX5XnX5XzX9X9X9XlXtXtXtXsXtX7X3X2X2X{.3XW.Q.9XzXvXvXlXlXlXcXvXxXjXjX>X>XJ./ 7.q.b b b b ",
"s v.$.i.oXwXtXpXuXtX9X7X7X9XxXxXuXuXxXlXlXlX0X7XaX2X,XQ.Q.2XhXgXlXlXlXlXxXhXhXgX[.$XA.8 q.n v d , , ",
"*.8.;.p.oXgXtXtXuXuXaX8X8XfXxXuXuXuXuXhX,X2X9XlXgXaX2XQ.E.{.2XwXwX2X<X<XeXwXrXkX[.S & 2.f v 9.q.b j ",
"j.=.$.G.oXeXtXtXuXuXaXdXaXfXxXuXuXuXxXxX_.1XtXlXfXgXsXsX7X3X{.{.{.}.{.,X1XxXcXgX>X%X:.>.6.w.w.w.l.N ",
"z.=.$.S.oXrXtXyXtXsXaXdXdXaXhXuXxXuXxXlXvXxXlXsXaXaXaXsXwXaXwXaXhXhXsXxXhXeXeXsXkXjX>XS.g.t.e.t.9.7.",
"m.H.' C.oXwXtXtX5XzXfX.XkXvX7X4X8XfX8X6XbXvXhXlXaX6XaXvXvXzXfX7X2X3XsXeXeXxXxXlX8XW.8XdXjX:X&XA.r.z.",
"k.=.^ F.oXwXeX5X6XdXkXkX*X>XfXfX8XXXXXjX!.!.jXjX.XkXkXjX>XkXvXaX<X3XxXcXxXcXxX<XP.0X0X0XaX>X%X;.r.z.",
"t y ( u.[.}.eXxXkX>XD./ _ L [ :X:X>X>X:X+ O #.@XjX:XC.( # ( S.>XhXsXhXeXxXvXxXwXfX.XfX|.*X&Xf.o.5.l ",
"y t $.L +X#XqXgXOX' & X.o.r.<._ Z.J.D.L = * L O.f...> q % $ _ S.jXjX;X#X;XkXkX;XdX>X=X>X:XJ.X.l k k ",
"k k 0 & #.+X@X/.~ & < 9 9 6 %.o.o.X.o.5.6.t.t.6.e.6.6.0.t.6.X.& @.@.@.@.@.d.F.:X:X>X-XG. .: 4 b k k ",
"k b q.w.; 4.g.d.2.9.v w 5 1 0 s 5.l s s 5.9.9.9.0.0.9.9.0.0.0 8 8 8 8 8 0 s 5.6.A.g.e.8 - - h b k k ",
"m M c.z.7 X.2.0.0.w.q.4 l b w.w.w.v 9 7 7 7 7 7 7 a 0 a s v l s 0 9 7 w a 9 4 < q q | 2.- p c c n q.",
"M M t w - 9.w.w.v.v 7 9 k l 9.q.w.l k < v 5.9.n w.9.q.w.l s l l 9 4 9 w k k k i 9.p p 0.p f f v w.q.",
"j.M c.M w c b c i 4 9 7 9.l 9.l b x c z z x x b n q.q.l.l.N n z b z z z b N N j n n n n 9.9.v 9.w.9.",
"t M M x c.z w z l.q.w.w.0.9.v x z z z k b z n b b b n n N n n N n N N N N N N N n n n n n n v n n q.",
"x b x x 6 x z.x b 7.0.0.9.9.x z z j j z z z z z z z z z b z b n n n N N N N n N n N n n x x t r N x ",
"k c v x x *.e *.l.7.7.0.0.5.l b z z z z z z z k z h k h k k z z k c z b x n n q.n n n b m r r r z c ",
"n q.n w.l 7.z.k.n.v.v.v.z.z.l.x n n N q.x l.n N n n n n n l.n q.x x n n l l l k v b c l c z k z n q.",
"9.9.n w.n w.z.z.v.v.v.v.v.z.z.q.q.q.q.q.q.q.q.q.n q.q.n q.n n q.n q.7.n v v v n v v b b n b n n q.n "
};
