/* XPM */
static char *fish[] = {
/* columns rows colors chars-per-pixel */
"45 45 241 2 ",
"   c #1A0006",
".  c #3B1A2A",
"X  c #411C2B",
"o  c #492A3D",
"O  c #583545",
"+  c #344962",
"@  c #795463",
"#  c #48526A",
"$  c #896473",
"%  c #AE6A95",
"&  c #B66F98",
"*  c #BA719C",
"=  c #9C75AB",
"-  c #B86DA6",
";  c #A97BA8",
":  c #B977A9",
">  c #B37FB5",
",  c #A06FA4",
"<  c #90788D",
"1  c #DE5E99",
"2  c #E35F97",
"3  c #C9668C",
"4  c #D3638E",
"5  c #C96A98",
"6  c #D46696",
"7  c #DB6593",
"8  c #DE6B9C",
"9  c #D7679A",
"0  c #D6739C",
"q  c #CA7495",
"w  c #E5669C",
"e  c #EA669C",
"r  c #E4699C",
"t  c #E8699A",
"y  c #C56AA5",
"u  c #CA6DA7",
"i  c #D46BA4",
"p  c #DA69A6",
"a  c #C272AA",
"s  c #C977AA",
"d  c #D272AA",
"f  c #D874A8",
"g  c #C77CB4",
"h  c #D57AB6",
"j  c #E566A1",
"k  c #EB64A3",
"l  c #E46AA3",
"z  c #E56CA9",
"x  c #EB6AA9",
"c  c #F161A6",
"v  c #E577A7",
"b  c #F072A1",
"n  c #7EBFEE",
"m  c #77CAEB",
"M  c #6ED3ED",
"N  c #75D4EF",
"B  c #7CD8EF",
"V  c #7AD5EE",
"C  c #6DCDF5",
"Z  c #6ACDFA",
"A  c #79CBF4",
"S  c #6FD6F2",
"D  c #6DD9F4",
"F  c #6DD4FF",
"G  c #75D5F5",
"H  c #7BD5F4",
"J  c #75DAF5",
"K  c #7CDAF4",
"L  c #73D6FC",
"P  c #7BD5FC",
"I  c #74DAFB",
"U  c #7DDBFC",
"Y  c #6FC9EF",
"T  c #7EE0FB",
"R  c #A4889B",
"E  c #9E86B7",
"W  c #8F89B6",
"Q  c #A482AD",
"!  c #A48CBC",
"~  c #AA88B7",
"^  c #B689B7",
"/  c #A395BC",
"(  c #B394BE",
")  c #BB98A6",
"_  c #C399AF",
"`  c #C585B7",
"'  c #D786B6",
"]  c #D292B8",
"[  c #E687AF",
"{  c #F28DB9",
"}  c #EB94B9",
"|  c #F29BBE",
" . c #E38ABA",
".. c #989AC7",
"X. c #A599C2",
"o. c #B39ECA",
"O. c #BB95C3",
"+. c #99A2C6",
"@. c #96B6DA",
"#. c #8DA9CC",
"$. c #A7A5C8",
"%. c #B4ADCA",
"&. c #BAA3D2",
"*. c #AAB7DB",
"=. c #B4B8D9",
"-. c #88BAE3",
";. c #94BBEC",
":. c #A7B9E7",
">. c #BBBAE7",
",. c #C28AC3",
"<. c #C598C6",
"1. c #E593C3",
"2. c #FE95C3",
"3. c #F59CC5",
"4. c #FB9CC4",
"5. c #F899CA",
"6. c #F58EC7",
"7. c #DAA8CA",
"8. c #D6B3CA",
"9. c #C8A7D6",
"0. c #C8B5DB",
"q. c #DAB3DA",
"w. c #D7B9D6",
"e. c #EDA5C2",
"r. c #E5ADC5",
"t. c #EBACC5",
"y. c #EDAECB",
"u. c #EBA7C9",
"i. c #F2A4C4",
"p. c #F2ADC7",
"a. c #FCA4CE",
"s. c #F4ACCB",
"d. c #FAAACD",
"f. c #F3A4CD",
"g. c #E6B3CB",
"h. c #EBB2CB",
"j. c #EEBECC",
"k. c #F4B2CD",
"l. c #F9B2CE",
"z. c #ECADD0",
"x. c #E9ABD6",
"c. c #FDA4D2",
"v. c #F5ABD0",
"b. c #FBAAD2",
"n. c #FAAAD7",
"m. c #E7B3D4",
"M. c #F3B7D1",
"N. c #FBBAD7",
"B. c #C5B2E3",
"V. c #D3BEEC",
"C. c #FEB4E1",
"Z. c #92C6DE",
"A. c #81C6DF",
"S. c #B8C5DF",
"D. c #A1C1DD",
"F. c #87C9E9",
"G. c #9CCCEC",
"H. c #95C8E7",
"J. c #83D3ED",
"K. c #8CD3ED",
"L. c #93D2EC",
"P. c #9BD3ED",
"I. c #89CCF3",
"U. c #9ACDF4",
"Y. c #97CAF5",
"T. c #83D4F4",
"R. c #8CD4F4",
"E. c #82DBF5",
"W. c #83D5FB",
"Q. c #8BD4FB",
"!. c #83DBFD",
"~. c #89DCFC",
"^. c #8ED9F5",
"/. c #93D2F3",
"(. c #9DDCF5",
"). c #93D6FB",
"_. c #97D7F7",
"`. c #A5C6EC",
"'. c #A4CCEC",
"]. c #ACCCEB",
"[. c #ABC7E6",
"{. c #BDC3E4",
"}. c #B7C5E9",
"|. c #A5D3EC",
" X c #B8D4EC",
".X c #A8CCF3",
"XX c #B4C5F1",
"oX c #A9D9F5",
"OX c #B4D5F4",
"+X c #B6D9F3",
"@X c #84E2FD",
"#X c #8BE4FD",
"$X c #8DE9FD",
"%X c #84E4FA",
"&X c #91E5FC",
"*X c #9CE4FC",
"=X c #93EAFE",
"-X c #95E1F7",
";X c #A0E5FD",
":X c #E6C3D1",
">X c #EBC6D4",
",X c #EECAD9",
"<X c #EDC8D9",
"1X c #FECED6",
"2X c #F3CDDD",
"3X c #FACEDC",
"4X c #F8C7D9",
"5X c #EFD3DA",
"6X c #F4D1DD",
"7X c #F9D1DB",
"8X c #F1D1D5",
"9X c #C6C7E5",
"0X c #D8C8E5",
"qX c #C9D3ED",
"wX c #DAD7EA",
"eX c #C9D9F4",
"rX c #DDDCF5",
"tX c #D6DCF6",
"yX c #C0CCF3",
"uX c #E9C9E3",
"iX c #F6CFE4",
"pX c #FDCCE3",
"aX c #F5CFE9",
"sX c #FBCDED",
"dX c #FFC7E1",
"fX c #ECD5E2",
"gX c #E7D8EB",
"hX c #F4D2E2",
"jX c #FAD3E4",
"kX c #FCD8E6",
"lX c #F2D3EA",
"zX c #FEDCEB",
"xX c #F8D6EB",
"cX c #F4CFF6",
"vX c #EBD5F3",
"bX c #E4D9F4",
"nX c #F3DEFA",
"mX c #C5E0F7",
"MX c #D6EDFF",
"NX c #F5E2F7",
"BX c #E1E5F6",
/* pixels */
"W.W.W.W.W.~.~.~.~.~.@X~.U U !.@X!.!.P P P H P P U !.!.!.!.!.!.U !.W.!.P !.!.P !.W.!.W.!.!.",
"~.W.~.W.W.W.W.W.!.W.!.U W.U !.~.!.@X@X@X@X!.~.!.!.!.!.!.!.U !.!.!.!.!.!.!.!.!.!.!.!.!.!.!.",
"~.!.~.!.T.W.!.!.!.!.E.T G G G G G H P K G G G N G H P U U !.!.U !.W.!.!.W.!.!.!.!.W.!.!.~.",
"T.T.T.T.T.~.&X=X$X$X$X$X#X@X!.K H H V G N N N N G N K H K K @X!.!.!.!.!.!.!.!.!.!.!.!.!.W.",
"J.E.%X-X=X=X=X=X$X$X$X$X$X%X$X%X%X%XE.E.E.E.B %XK B B K K E.B E.!.E.W.!.E.E.!.@XU P H H H ",
"&X-X=X=X=X=X=X&X$X$X$X$X$X$X$X&X#X-X&X-X&X&X-X$X$X$X$X$X%X#X%X%XH T.H K K H H K E.E.E.~.#X",
"=X=X=X&X&X&X&X&X%X-X%X$X$X$X$X&X*X*X*X;X*X;X;X*X&X=X=X$X$X=X=X$X=X$X=X=X=X$X$X$X$X$X=X=X=X",
"=X=X%X-X%X%X&X$X$X$X$X$X$X&X=X*XoXOXOXOX+XoXoXoX(.-X-X&X#X%X%X$X$X$X$X$X$X=X$X$X=X$X@X#X$X",
"T J J J J J G G G J @X#X#X*X*XoX>.>.~ X.o.>.[.'.[.*..XF.J.V V G U @X$X=X=X$X$X$X$X$X@XK @X",
"D D D T D T I I I I H T./.U.G.[.&., - g - ,.=.X.! ! ..:.H.T.V G J J U ~.$X@X%X%X@XK H H H ",
"D D D D N M M M m m m A.H.].OX9XO.g h h d y a - g g > >.[.H.V D D F L P P L L I I G G L G ",
"I J T B B B B J.A.Z.'.[.yXqX0Xw.x.C.n.c.6.6.v f 5 y - ,.B.:.K.G I L L L L I I L L L G L G ",
"T !.E.E.^.L.L.;XmXmXtXbXnXvXuXM.x.u.f.v.b.b.c.b.1.s y g ,.! *.F.A C C C C Z C C C G G U U ",
"T U W.R.L.|.+XeXBXvXvXlXxXjXpX3Xv.u.u.s.l.d.d.d.l.n. .d - ^ = :.I.P P P P P W.W.W.!.!.!.!.",
"U !.Q./.].yXtXbXlXfXiXfX2X7X6X7X1Xk.t.p.l.p.s.s.t.s.C.5.d a ^ / .XQ.~.!.!.~.~.~.Q.~.~.^.Q.",
"U !./.'.yXwXgXfXiXiXiX6X7X8X8X8X1X:Xt.t.p.p.p.t.M.y.i.n.c.' : ~ .X).).E.)._..X.X`.`.G.U.L.",
"B F.'.tXgXlXlXaX6XjX2X6X6X6X6X6X2XpXt.p.s.d.p.k.g.h.k.d.b.v.7.( XX.XY.H.].*.&.^ ^ ~ o.:.G.",
"K.P. XwXlXjXhXhXhX2XjX2X6X6XhX3XjX3Xk.t.p.d.p.p.g.g.p.s.s.s.h.q.=.XXXX*.E > - d d y : ! ].",
"P.+XmXgXfXiXjXiXkX,XjX2XhX3XjX6XjXdX4Xp.s.p.p.k.h.h.k.s.s.y.y.q.V.0.O.: : d i z z i s ~ }.",
"|.mXBXgXhX3XhXpX2XkX2XjX6XhX6X2XkX3XdXs.p.s.p.p.h.p.p.s.s.s.y.z.m._ * 5 l l w 2 x 1 y ^ 9X",
"9XtXgX5XhXhXiXiX<XhX2XjXkXjX>XjXpXdXpXb.s.p.p.s.u.s.v.s.v.s.s.v.M.] 5 v r e k k z y a ( 9X",
"wXfXfX5X8XhXjXiX2X2X>XjX,X,XkX2X2XdXpXN.e.i.p.l.s.d.s.s.s.d.d.d.N.} 6 w k c k x x i g 9.}.",
"lXfX5X5X8XhXiXaXhX7XkX,X7XkX2X6XiXpXpXN.s.s.l.p.d.d.d.s.s.s.f.a.4.{ l x c c c c j y d 9.*.",
"kXhX5X5X7XhXiXpXhXkX>Xo $ zX2XjX,XiXpX4Xs.i.} } 4.4.c.d.v.s.a.a.a.2.r 1 x c c k x i u ` %.",
"xXpX6X8X6XhXaXaXiXzX)   . >XjXjX2XiXjXe.q 0 7 4 t 6 { a.d.v.s.v.b.4.6 r w k k j j 9 9 d ] ",
"aXaXhX8X6X6XaXaX<XkX:X. @ kX2XjX6X7XjXe.q 4 7 b t w v c.b.v.s.z.d.5.6 w e e j j j r j p s ",
"vXfXfX6X7XhXiXhXzX,X2X:XjXkX6XjX2XdXjXi.3 0 t 7 t w 6 2.c.b.v.b.c.2.7 w e e r w e w t d a ",
"bXgXuXhX7X3XiXiX2X2X6X,X2X6X6XkX3XpX1Xe.3 4 7 b t t 6 4.a.s.a.b.c.2.7 r e e r r e p i a <.",
"S.rXNXfX7X1X7X2XjX8X6X2X6X6X2X2XkXpXdXs.[ 0 7 4 7 8 v c.a.v.b.b.n.{ r t e e r j 9 i - <.B.",
" XeXBX5X2X1X3X7X7XzXzXjXhX2X2X2XpXpXdXk.d.| [ 0 f v 1.f.f.v.v.f.N.' 0 v w e w j 1 d ` q.[.",
"|.mXwX5X7X1X3X1X7X>X8.3X6X2X2XhXiXdX4Xr.t.p.d.| i.3.f.v.z.z.z.z.7._ & 3 8 e 2 k p p ^ 9.'.",
"(.|.qXgX6X1X7X7XzX_ o NXhX6X6XiX2X,X4Xr.h.p.l.s.d.s.v.u.x.q.q.q.wX0.) % i 9 j k k f : X.OX",
"-X(.|.S.gXfX6XzX:X. R NXhXlXhXhXkXN.g.h.k.t.t.p.p.p.f.z.x.V.>..XY.oXXXO.& d f 8 l f ; / |.",
"N V L.G.eX9Xw.R . R vXxXhXxXxXpXdXM.u.h.g.t.t.k.e.d.n.x.9.>.;.Q.Y A Y.XXo.; % s d s Q ..Z.",
"W.A F.-.G.#.+ # $.NXNXuXcXaXsXsX4Xm.r.h.g.h.h.h.b.f.1.,.X.*.Y.A P L G T.Y.:.$.> = = ..@.K.",
"P P W.T._.(.Z.+XMXmXMXrXbXcXcXcXq.8.8.w.w.w.w.7.] ` > ; W @.I.L Z F F L W.Q.Y.;.:.:.-.I.T.",
"P !.!.!.W.W.^.^.L.|.+XOXeXeXeX9XS.S.{.9X=.=.$.$.E ! X...#.-.Y S Z Z F Z Y Y Y -.;.Y.).).~.",
"U P G @XU #XH @XE.K.K.(.U.oXH..X`.`.'.'.'.|.'.`.].[..X.X_.).U I L L P P P P P P Q.).Q.W.Q.",
"G T %XN @XH #XK #X^.J.J.^.J.).F.I.Q.Q.Q.T.R.T.R.R.K./.^.Q.~.!.U U U !.!.Q.Q.~.!.W.W.!.!.!.",
"E.K B T K @XK ~.@XE.!.T.@X#XT.H H P P P P H P G G G H !.H W.P !.U P W.Q.W.W.!.!.P U P U H ",
"E.K K W.~.E.W.~.#X~.#X~.~.E.#X~.T.E.!.W.H E.P H U I K U W.!.W.W.E.W.E.T.E.E.K K J P K J B ",
"E.E.W.!.@X#X#X#X=X=X=X=X=X~.E.E.%X~.~.E.E.~.~.E.!.T @X!.~.E.W.~.W.E.E.E.B B B B B H K B J ",
"E.~.#X&X&X&X=X=X=X=X=X&X=X=X=X~.W.~.E.W.W.E.~.W.@X%X@X@X#X@X~.&X#X#X~.E.E.E.E.E.%XK %XE.T ",
"~.#X#X~.#X=X=X#X#X#X#X#X#X=X=X$X#X$X=X~.=X=X=X@X%X$X#X$X#X=X~.#X@X^.#X@X$X%X#X#X%X#X%X%X%X",
"$X#X~.~.^.E.~.@X%XE.~.~.~.#X#X=X=X=X=X=X@X@X~.!.T T T U E.~.~.~.@X#X~.#X&X#X#X#X#X#X&X$X&X"
};
