/* XPM */
static char *sala[] = {
/* columns rows colors chars-per-pixel */
"45 45 256 2 ",
"   c #743D1A",
".  c #6F3E23",
"X  c #774C1C",
"o  c #7C4C2C",
"O  c #764828",
"+  c #7B522D",
"@  c #7B4D32",
"#  c #7A4B37",
"$  c #7F5135",
"%  c #7E5439",
"&  c #6F4127",
"*  c #776838",
"=  c #78753C",
"-  c #746F33",
";  c #7D694C",
":  c #7B7946",
">  c #7A7658",
",  c #6B7054",
"<  c #777968",
"1  c #69706B",
"2  c #5A6660",
"3  c #844C29",
"4  c #885729",
"5  c #854D37",
"6  c #825433",
"7  c #83543A",
"8  c #855A3C",
"9  c #895B36",
"0  c #945D36",
"q  c #89673A",
"w  c #93623C",
"e  c #9B653C",
"r  c #926B3E",
"t  c #9A6B3B",
"y  c #976936",
"u  c #87753B",
"i  c #99753D",
"p  c #94642A",
"a  c #A46D3A",
"s  c #A5743C",
"d  c #AA773C",
"f  c #A96D35",
"g  c #8B5B43",
"h  c #865642",
"j  c #925C42",
"k  c #864D41",
"l  c #8D6243",
"z  c #896749",
"x  c #926343",
"c  c #936B45",
"v  c #93664B",
"b  c #996A47",
"n  c #897747",
"m  c #9C744A",
"M  c #977547",
"N  c #9C6C53",
"B  c #877658",
"V  c #977A59",
"C  c #866E59",
"Z  c #A26E44",
"A  c #A46A4B",
"S  c #A47243",
"D  c #AA7543",
"F  c #AB7C44",
"G  c #A57249",
"H  c #AC7B4B",
"J  c #A7794A",
"K  c #B37D4C",
"L  c #B67B45",
"P  c #A46C55",
"I  c #AD7B52",
"U  c #A67755",
"Y  c #B57D54",
"T  c #8E7A67",
"R  c #AD7F61",
"E  c #75883E",
"W  c #5A8A5E",
"Q  c #778647",
"!  c #78974D",
"~  c #7A8353",
"^  c #6B9659",
"/  c #789957",
"(  c #69884F",
")  c #79A45D",
"_  c #69A359",
"`  c #589569",
"'  c #6A9663",
"]  c #758574",
"[  c #71916F",
"{  c #54A874",
"}  c #77A46A",
"|  c #5BA45E",
" . c #95803E",
".. c #87884D",
"X. c #978647",
"o. c #86954D",
"O. c #878758",
"+. c #968855",
"@. c #899557",
"#. c #949654",
"$. c #A68348",
"%. c #B5834A",
"&. c #AB8656",
"*. c #B98656",
"=. c #A59253",
"-. c #8A8668",
";. c #998565",
":. c #979667",
">. c #888978",
",. c #958B79",
"<. c #8C9772",
"1. c #A48D78",
"2. c #A79377",
"3. c #AB8C66",
"4. c #8EA762",
"5. c #A5AD7D",
"6. c #C38D5A",
"7. c #C49258",
"8. c #C59667",
"9. c #C5A167",
"0. c #3B9A91",
"q. c #489D86",
"w. c #7B9994",
"e. c #739089",
"r. c #49AA9B",
"t. c #55A999",
"y. c #51AC8E",
"u. c #7CAB96",
"i. c #6BAD92",
"p. c #5599A2",
"a. c #709BAB",
"s. c #57ABA7",
"d. c #58B5A8",
"f. c #57B7B8",
"g. c #50AAB0",
"h. c #66BDAB",
"j. c #63B9B7",
"k. c #78B7B9",
"l. c #78B3AB",
"z. c #5CC6BA",
"x. c #69C8BB",
"c. c #77C4BC",
"v. c #71D0B5",
"b. c #73C29C",
"n. c #5CBCCB",
"m. c #67BBC6",
"M. c #76BBC8",
"N. c #68BCD3",
"B. c #75B6D2",
"V. c #6DAEC5",
"C. c #6CBEE4",
"Z. c #6BC4C4",
"A. c #67C6C7",
"S. c #76C6C9",
"D. c #77D2CC",
"F. c #69C9D8",
"G. c #78C9D8",
"H. c #7AD6DB",
"J. c #6CCCED",
"K. c #67C7E7",
"L. c #75CBE9",
"P. c #6AD3E6",
"I. c #7BDAE4",
"U. c #75D4EB",
"Y. c #7BD5ED",
"T. c #7CDBEC",
"R. c #76D6E6",
"E. c #6ACDF4",
"W. c #6DCDFC",
"Q. c #68C8F5",
"!. c #73CCFB",
"~. c #75C9F4",
"^. c #6CD2F3",
"/. c #6CD9F7",
"(. c #74D4F3",
"). c #7AD5F4",
"_. c #73D9F5",
"`. c #7DDBF5",
"'. c #76D6FC",
"]. c #7AD6FC",
"[. c #75DAFD",
"{. c #7DDBFC",
"}. c #7DE2FE",
"|. c #7AE1F6",
" X c #7FE0E8",
".X c #5BC1C7",
"XX c #889A89",
"oX c #929B88",
"OX c #909891",
"+X c #95A599",
"@X c #8CAE94",
"#X c #A7A996",
"$X c #AEAF95",
"%X c #88A9A8",
"&X c #99ABA1",
"*X c #96B5A9",
"=X c #89B8BC",
"-X c #95B9B7",
";X c #85B6A8",
":X c #A6BBBA",
">X c #A8B6AB",
",X c #949FA4",
"<X c #C3BFAC",
"1X c #8CC2BD",
"2X c #9BC4B8",
"3X c #8ED4B7",
"4X c #A8C7B9",
"5X c #A9D0BE",
"6X c #97BAC2",
"7X c #86B3C4",
"8X c #87C6C5",
"9X c #95C7C7",
"0X c #86C9D7",
"qX c #97CAD8",
"wX c #88D6D9",
"eX c #97D4D8",
"rX c #8BD3CE",
"tX c #A2C5C7",
"yX c #A4D7D3",
"uX c #ACCDCC",
"iX c #88E3DD",
"pX c #99EED7",
"aX c #A7E4D4",
"sX c #89CCE6",
"dX c #84D5E3",
"fX c #8DD4E2",
"gX c #8CDCE3",
"hX c #82D4EC",
"jX c #83DCED",
"kX c #8CDBEC",
"lX c #88D8E7",
"zX c #96D8E7",
"xX c #83D5F4",
"cX c #82DCF4",
"vX c #8BDDF4",
"bX c #82DCFC",
"nX c #8ADDFD",
"mX c #88D4FA",
"MX c #94DAF8",
"NX c #8ECDEA",
"BX c #A6DBE7",
"VX c #AADEE9",
"CX c #83E4EC",
"ZX c #89E4E8",
"AX c #96E4E9",
"SX c #83E2FD",
"DX c #8CE3FE",
"FX c #8AE9FF",
"GX c #86E3F4",
"HX c #9AE5F4",
"JX c #93E6FD",
"KX c #93E9FE",
"LX c #95E5F5",
"PX c #97F1F5",
"IX c #A4E4EA",
"UX c #AFEBF2",
/* pixels */
"!.(.U.L.U.(.!.E.E.^.J.W.W.W.[.{.KXJXJXJXpXz.PXPXFX].~.W.!.!.].].^.U.[.|.P./././.|.bX{.'.).",
"bX{.cXbXSX{.{.].E.[.K.^.Q.Q.J.^.{.bXbXjXiXr.x.I.~.W.Q.~.!.!.!.~././.}.K.P.|.|.}.'.(.~.J.J.",
"].{.].`.GX`.].).[.}..XF.K.E.J.E.E.E.E.P.z.z.f.F.K.Q.~.Q.C.Q.!.'./.P.P.g..XP.F.~.J.J.U.(.'.",
"{.{.bX`.`.`.`.).|.U.n.P.|._.J.K.Q.J.K.F.z.d.s.jXN.C.~.).~.Q.C.C.P.P.z.r.z.P.F.K.J.~.'.{.nX",
"{.{.bXbXT.GXCXCXGXH.r.H.GXDXSXbX[.`.DXG.q.q.s.M.B.V.MXmXNXmXB.mX).R.x.r.x.A.G.).xX{.{.{.bX",
"{.{.bXbXT.GXH.H.H.Z.r.iXjXcXbXxXvXL.NXzX;Xu.%X6X7Xa.7XVXqXqXBXsXDXGXv.y.d.s.G.cXbXbXbX{.{.",
"{.{.bX{.`.H.z.y.v.j.d.wXG.Y.hXMXNXqX7XtX>X&X>X>.6XuXe.6X6X%X-XqXwXAXx.y.y.y.H.`.{.{.bXbX{.",
"cX`.cXT.jXH.d.0.t.h.D.ZXhXhXG.0X9XtX,XOX<.T 1.< 1 ,XXX2 e.,XOXOX%XeXc.t.y.x.wXI.{.bX{.{.bX",
").`.CXH.H.jXwXs.s.j.V.L.DXkX0Xl.-XXX, > V V V ;.C ; -.> -.-.> #XOXXXyXqXgXwXdXY.`.SXGXDXSX",
"{.Y.H.Z.S.zXAXkXzXzXN.V.0XBX9XtX@X>.> B v b v c U C B 3.R T V T < +X:XqXqXG.kXT.I.GX`.`.).",
"{.T.CXZ.j.sXG.zXNXNXV.p.a.4X4X#X$X$X1.v h 3 A e m U m U b q b 8 C ,.>XtX8XwXI.I.m.R.R.L._.",
").`.PXj.g.kXS.fXzXzXBXtX*X] ,.$X1.3.N R N P 5 5 0 b H G I G Z b g ; < &X-X8X0Xj.g.I.T.P.cX",
"{.Y.kXf.f.zXM.wXzXqX6XOX>.B n n U U R U v P P A 0 3 0 0 S a 0 j v V ,.oX[ ;XeXs.f. XI.T.`.",
"bX`.ZXf.m.wXM.S.BXtX4X<X; M M 9 Z b o g h % k j 0 3 3 X 4 0 A 0 U l V ;.oX5X9Xs.A.CXT.CX X",
"bXnXZXx.m.gXH.k.6X:X$X2.3.3.H *.a y M + % # 5 k A A j j x P P A m +.* * -.>X5Xi.D.ZXH.I. X",
"dXZXAXS.G.lXfX=X+X,.z N S %.*.S 0 w 6 q z v v k j P N *.N j 9 w 9 q M = :.$X;X1XiXCXx..X X",
"pXv.h.d.G.lXqXtX-.n $.9.s y 4 o o o 6 l v z $ 7 6 j l l x c 9 q 9 i n : O.<.XXeXAXH.r.A.ZX",
"b.i.q.t.Z.AXeXXX; &.i X 4 4 5 # 6 % % O @ @ @ 7 8 @ 7 N w $ r 4 X r : :.O.-.&X6XgXD.r.D.jX",
"y.{ y.rXj.wXyXe.B V G t O 3 5 k @ 7 7 7 & @ 6 h g g g # v v 6 b i q ..:.+.-.XXtXqXZ.r.D.lX",
"y.z.rXwXF.S.yX&X;.N r m 9 6 k k h 7 8 l l l @ & # % h h l l l 4 p =.:.#.2.: < -XeXM.h.iXAX",
"|.cXxXxXmXV.=X&X,.N q &.N g k h h 8 h g 6 $ @ @ % h # h 7 8 7 6 $. .o.o.o.> XXuXzXG.H.pXgX",
"W.'.!.~.~.mXa.1 2.I m I Y Y 5 5 8 6 @ O $ 7 7 % % # 7 & 7 w X m i  .o.o.Q : oX4XzXN.p.s.wX",
"Q.W.~.~.~.7XtX] n 8.i p 6.6.A   7 O @ 8 8 $ @ 6 % O o O o 9 M &.$.$.E ) ! ( @X9XG.xXj.0.g.",
"W.!.!.~.~.0X-X>.* u $.4 4 f 8.A U 6   7 o O o v @ 5 O o &.I t D d  .o._ @.} %Xl.G.F.F.m.A.",
"!.{.mXmXmXMXqX>X@.u d *.p %.L d F s 4 w e o x 3 . 6 b 8.Y G %.J K M o./ 4.[ e.j.N.F.F.R.R.",
"}.'.].mXmXMXyX2X#X=.i $.6.d f L a F y 4 a I 4 3 P I Y 6.e Y S a H $.:.<.> ] w.M.N.K.~.{.{.",
"}.).).).mXzXeX4X:.&.8.K d f f L 7.%.s L s *.F *.*.I I D Z Z e H r n ~ ~ ; oX%X0XL.L.`.SXSX",
"`.|.jXG.B.B.8X*X:.n i *.L L 6.p d %.d L %.%.7.L Y G I Z 0 y J y q n O.-.B #X=XV.cX{.bX{.{.",
"|.GXA.j.sX0Xk.e.< n c S *.A *.a d *.%.d d d $.d *.6.6.*.0 e Z 9 M +.T B < T =XLXcXbXbX{.bX",
"CXCXj.j.M.M.M.=X~ : z c G Y H *.t D 7.8.*.d %.%.S s Y S S Y y I V v z > < +XBXLXcXbX{.SX{.",
"CXZXr.h.0XqXzXVX@X..B M b x V M 0 Z D K *.*.7.s s K *.*.*.A U 0 N j N T oXuXzXhXGX{.bX{.bX",
"H. Xr.x.wXzXBXtXXX[ : ..V +.u n &.m r G K D a d H H G I 0 x 0 N h v R ,.4XuXwXGXjXcXcXSXbX",
"T.F.n.H.lXlXfXk.` } / Q o...@.E o. .$.$. .d $.%.H H x l v g U N q B oX,XqXwXgXz.D.LXT.`.`.",
"_.T.U.T.kXfXG.rX3Xu.^ @.#.#.o.4.o.#.X.%.d d D F S t c q n +.n * n 1.,X-XfXlXGXf.r.D.I.U.~.",
").cXvXDXvXHXwXS.aX@X_ Q +.X.#.#.o.o.q i 6.K L F J G m : @.! Q Q B ,.,X9XzXY.I.S.0.g./.T.`.",
"|.DXcXvXkXAXMX8Xi.u.} , ~ #.u : o.o.u i f a i q M m q : ) _ 4.O.> OX6X0XL.vXcXI.g.n._._.{.",
"GX).cXhXJXHXHXIXaX;X[ <.~ @.O.= ! o.=.M s y ..n u q M - _ ) / > XX*XeXlXY.).~.xXCX|.}.{.[.",
"cXcXGXJXLXHXHXHXUX1XuX} ^ ^ / 4.! ..i r r u ..! = n X.Q ) ^ , < w.=X0XvXSXnXbXmX`.SX`.SXbX",
"{.FXFXKXLXHXHXHX0XeXaX3X| | | ( ) ..q M n = ! ) ! Q ..Q ' } OXw.yXAXkXxX].[.nX].bXnXnXnXbX",
"SXPXFXJXKXLXLXHXB.k.k.l.{ { | | , ..q c +.: ^ ) / ( = , W ` l.6XAXHXKXJXnXbXnXmXnXmXnXcXcX",
"FXFXFXFXSXGXT.jXvXLXwXS.3Xb.{ W / B V V ;.@./ ^ } ' ~ ( [ i.8XIXHXJXJXJXFXDXDXDXDXnXDXnXJX",
"SX`.SX`.`.`.).`.U.P.jXgXpXrXy.3Xw.oX,.T -.<.' ` ` e.u.;X6XrXwXH.cXnXFXKXJXJXJXKXKXKXJXFXJX",
").).).).`.).].].].U.T.I.ZXS.t.pXaX9X-X*X%Xu.e.i.8XrXfXzXY.cXR.P.).`.SXSXFXFXFXFXFXFXFXSX`.",
"[.{.].{.[.[.[.'.E.[._._.I.G.D.iXdXzXzXeXBXIXc.c.kX`.Y.U.J.^./.[._._._._.}.{.}.}.]._._.^.(.",
"].'.].'.'.'.'.'././.[.}.|.|.I.I.hXvXMXNXNXzXzXsXnXnXbX{._._._.)._._._._._.^./._._._._._.^."
};
