/* XPM */
static const char *fish[] = {
/* columns rows colors chars-per-pixel */
"45 45 233 2 ",
"   c #60222D",
".  c #775E71",
"X  c #B91A2D",
"o  c #B51C32",
"O  c #BC1B33",
"+  c #BF1731",
"@  c #A3162C",
"#  c #91253D",
"$  c #B9212C",
"%  c #A6253C",
"&  c #B1243E",
"*  c #BC213B",
"=  c #BA283A",
"-  c #C31B2D",
";  c #C91A2D",
":  c #C0172C",
">  c #C41C34",
",  c #CB1C33",
"<  c #CB1D39",
"1  c #C61A37",
"2  c #D11C36",
"3  c #C42233",
"4  c #CB2336",
"5  c #C2233B",
"6  c #CD243C",
"7  c #CD2A39",
"8  c #D2253B",
"9  c #9C2B45",
"0  c #97374E",
"q  c #8A3D56",
"w  c #A92B45",
"e  c #B92942",
"r  c #B5374D",
"t  c #CD2B41",
"y  c #C52A42",
"u  c #D22C43",
"i  c #D72B46",
"p  c #CD334B",
"a  c #C83447",
"s  c #D53344",
"d  c #D3334B",
"f  c #DC334D",
"g  c #D3394F",
"h  c #DD3A4C",
"j  c #D93846",
"k  c #CA3752",
"l  c #DD3C52",
"z  c #DA3955",
"x  c #E23B4C",
"c  c #E2364B",
"v  c #E33C53",
"b  c #E83F57",
"n  c #93435C",
"m  c #B74559",
"M  c #975864",
"N  c #9C5370",
"B  c #B7546B",
"V  c #AF536A",
"C  c #976577",
"Z  c #AC6D78",
"A  c #D5414C",
"S  c #CD4254",
"D  c #C7475A",
"F  c #DA4459",
"G  c #E44154",
"H  c #E5405B",
"J  c #EB435C",
"K  c #E84A5C",
"L  c #EE515F",
"P  c #F04E5D",
"I  c #CF4F62",
"U  c #C95363",
"Y  c #C85467",
"T  c #D85669",
"R  c #D5576D",
"E  c #E7566B",
"W  c #F14C65",
"Q  c #CB6675",
"!  c #D86776",
"~  c #E86E7B",
"^  c #977D94",
"/  c #8E748F",
"(  c #B77B93",
")  c #A7788E",
"_  c #CD7C88",
"`  c #D87786",
"'  c #C97D99",
"]  c #D47A97",
"[  c #C66681",
"{  c #E97484",
"}  c #E87889",
"|  c #F57789",
" . c #EB7994",
".. c #E96A85",
"X. c #7AA8CA",
"o. c #5ECAF0",
"O. c #67CBEB",
"+. c #6BCDEA",
"@. c #75D9EC",
"#. c #6DC6F4",
"$. c #65CBF5",
"%. c #6ACBF5",
"&. c #6CC6FB",
"*. c #64CBFB",
"=. c #6BCBFA",
"-. c #67C7F5",
";. c #71CDF3",
":. c #72CDFA",
">. c #78CBF7",
",. c #6DD4F4",
"<. c #6DDAF5",
"1. c #6DD4FC",
"2. c #6ED9FD",
"3. c #74D4F5",
"4. c #7AD5F5",
"5. c #74DAF5",
"6. c #7CDAF5",
"7. c #74D5FB",
"8. c #7BD5FB",
"9. c #74D9FC",
"0. c #7CDBFD",
"q. c #7ACFEE",
"w. c #7CE1FE",
"e. c #7EE0F5",
"r. c #848196",
"t. c #BB8C9E",
"y. c #B88798",
"u. c #AF909F",
"i. c #9F96A7",
"p. c #A88CA4",
"a. c #B88EAB",
"s. c #AF9AAE",
"d. c #B993A9",
"f. c #A89AB4",
"g. c #B39AB0",
"h. c #BC98B2",
"j. c #9DA8BC",
"k. c #AAA3B5",
"l. c #B9A5B9",
"z. c #CC8293",
"x. c #CA8799",
"c. c #D68494",
"v. c #D0848C",
"b. c #FF899C",
"n. c #E58A99",
"m. c #C38DA3",
"M. c #C394AC",
"N. c #DA9AA9",
"B. c #D087A2",
"V. c #FD9EAB",
"C. c #F49AA9",
"Z. c #EA9FB4",
"A. c #E69DB4",
"S. c #F39EB4",
"D. c #ED95A3",
"F. c #DDA9BE",
"G. c #D6A7BC",
"H. c #E9A2AC",
"J. c #FEA2AD",
"K. c #F3A3AF",
"L. c #EDA5B3",
"P. c #EDA9B3",
"I. c #E7A7BA",
"U. c #F4A1B3",
"Y. c #FBA3B2",
"T. c #F7ABB8",
"R. c #8BB7D5",
"E. c #98B9DA",
"W. c #92B3CD",
"Q. c #B7A9C4",
"!. c #AAB5CC",
"~. c #A8BAD4",
"^. c #BDBCD3",
"/. c #B0B7D4",
"(. c #B3B0CB",
"). c #95B9E2",
"_. c #C9AAC5",
"`. c #D7ABC2",
"'. c #C3B6CB",
"]. c #CBB6CB",
"[. c #C6B9D3",
"{. c #D0B4CB",
"}. c #E5AEC3",
"|. c #99C7DD",
" X c #AAC6DA",
".X c #B1C2D5",
"XX c #B4C3DD",
"oX c #BAC4DB",
"OX c #8ACCEB",
"+X c #96CCEB",
"@X c #9CCEEC",
"#X c #97C8E5",
"$X c #81DAED",
"%X c #87D2E9",
"&X c #93D3EC",
"*X c #99D3EE",
"=X c #94D4E6",
"-X c #8DCFF8",
";X c #83D4F4",
":X c #83DAF6",
">X c #8CDAF4",
",X c #84D6FD",
"<X c #81D9FE",
"1X c #85DAFE",
"2X c #81DDFF",
"3X c #85DDFE",
"4X c #83DCFD",
"5X c #8BDCFC",
"6X c #8AD3F5",
"7X c #93D5F3",
"8X c #9BD3F2",
"9X c #9BDAF4",
"0X c #95DBFA",
"qX c #97CAF4",
"wX c #A8CBE5",
"eX c #BBCBE6",
"rX c #A3D1E9",
"tX c #ABD6EB",
"yX c #A8D7F5",
"uX c #BAD3E7",
"iX c #83E2FF",
"pX c #8CE3FE",
"aX c #8EEAFF",
"sX c #88E4F8",
"dX c #93E3F7",
"fX c #93E5FE",
"gX c #92E9FF",
"hX c #94E9FE",
"jX c #9AEAFF",
"kX c #97E6F8",
"lX c #A3E1F6",
"zX c #C3C1D6",
"xX c #C8CDE1",
/* pixels */
"0.8.7.:.%.$.*.*.&.&.*.*.1.w.pXgXgXkXfXfXpXgXkXkXhXgXiX9.7.8.6.3.8.0.0.0.3.3.3.3.3.3.3.3.3.",
";.;.3.7.7.=.=.=.=.=.=.$.$.1.8.3XaXgXjXjXgXaXgXfXgX<X,.$.=.=.3.3.7.0.0.7.7.3.7.7.7.0.0.0.3.",
"9.0.2X3X3X3X0.0.3.,.O.O.%.#.&.#.7.8.<X0.9.9.7.7.:.=.*.*.1.*.=.7.7.9.7.7.7.7.9.0.7.7.=.-.-.",
"0.0.0.<X1X1X<X0.w.9.3.3.3.:.#.-.-.%.=.-.$.$.&.&.#.=.*.*.*.*.&.=.-.$.1.1.2.2.7.7.%.=.7.7.2X",
"2X2X0.0.<X1X1X1XiXiXiX2X<X8.7.3.;.;.:.:.%.:.:.>.q.4.7.1.%.=.:.&.=.*.$.$.-.-.%.%.-.7.0.2X2X",
":X0.0.0.4X4X1X1X0.0.0.2X3X2X0.w.0.0.0.0.<X1X1X5X7X*X7X>X3X0.8.8.7.9.7.7.7.7.7.3.2X2X3X2X<X",
"1X3X3XiX4X4X4X0.9.9.9.7.0.2X0.6.w.w.w.w.5X5X5X7XrX X.X X=X:X<X2XiX0.0.2X2X2X3XiX8.8.,X1X5X",
"2X2X2X:X:X4.3.3.5.9.0.8.3.3.5.5.9.5.<.5.-XqX#X Xk.s.u.i.R.>XpX0.0.:X4X2X2X:X:X:X2X1X1X<X:X",
"w.0.<X4.4.4.0.w.iX0.5X<X8.0.2.<.9.7.,.8.qX~.g.y.v._ z.g.*X4X;X5X1X<X<X<X<X<X2X2X:X:X:X:X:X",
"5.9.4.8.0.0.0.0.<X5X5X4X3X2X4.,X-X8X8XwX(.a.z.` ~ } z.Q.+XiX5X,X<X<X<X<X<X<X0.0.2X2X0.0.0.",
",.3.3.0.0.w.2X<X,X5X,X;X:X>X9XwX(.p.( ( B  .{ | ~ c.y./.OX3.5.iX0.2X2X2X2X2X0.w.0.0.0.9.7.",
"3.9.0.0.0.0.<X<X,X1X<X5X&XrXXX/ q 9 % @ = E S T ~ n.g.wX6X3.,.5.0.0.0.0.0.0.0.0.9.9.7.2.2.",
"0.0.2X2X2X0.0.0.9.9.3.>XrXzXG.0 & 5 3 $ A A F 5 g Q _.yX,X0.0.3.3.3.3.3.3.3.3.7.7.3.3.9.9.",
"2X2X4X2X3X0.9.2.2.9.q.#X^.`.U.I O , - 7 A X t J O w M.eX0X0.iX2X0.0.0.0.8.0.0.0.0.0.0.0.0.",
"2X0.<X<X<X0.2.<.<.:X@XXX{.Z.V.R z 1 + x u < > f h = B a.rX5X6.2X3X2X2X2X2X2X2X2X2X3X3X3X2X",
"0.2X2X<X8.7.<.<.5.%XXX{.I.S.V.D k z s x 2 2 < > l K e 0 f.rX6X2X0.0.0.4X4X:X<X0.4X4X4X4X<X",
"iX0.6.4.7.7.5.@.@.=X'.I.L.C.V.D o v W 6 , 2 2 > d E * w q Q.+X3.7.5.w.6.4XpX0.0.6.:X:X1X0.",
"0.3.4.0.0.9.6.$X%X X`.L.z.K.J.U o v H l 4 ; ; 6 H p H * w N wX>X8.8.%X%X8X7X,Xw.e.e.4X1X0.",
"0.0.0.iXiX2X0.>XtX^.F.N.  z.J.D = b 1 f x 3 - h d O G s O 9 s.tX7X&X.XQ.f.W.;X<.<.5.4.8.8.",
"2XiXiX0.<X2X0.7XoX_.}.A.Z H.J.Y S u > 1 x j 7 h > - 3 G < k N l.uX.Xd.( a./.6X5.5.9.0.<X3X",
"<X2X8.7.7.:.3.+X'.I.I.L.I.P.C.! a 5 6 , > j L 4 , , $ j j l w B }.t._ z.l.tX0X0.3X3X3X<X<X",
"8.;.#.=.-.-.;.#X{.I.A.I.H.P.T.{ = > < 2 : s L s ; , 3 $ K h O e ` ` } z.!.8X;XiX<X<X<X0.0.",
":.%.#.=.=.-.#.R.l.N.T.T.T.D.J.! p > 8 ; 6 l 3 G < < O > J v > * I { } x.E.,X1X8.2X0.0.7.1.",
"%.7.7.1.1.7.;.X.. M M M Z K.J.U g c , > h t > u b < + z f v 6 X g | { x.).#.:.#.%.$.-.%.$.",
"0.0.w.w.w.0.0.@X{.N.N.v.z.H.J.Y o J t u l O > > v i < J < u f o D { } t.).>.&.$.$.$.-.:.7.",
"0.2X0.0.0.0.0.8X[.F.P.P.L.K.V.Y @ 5 F g t 4 4 , > v v u < 6 b o I } ` m.E.:.$.$.o.$.7.0.2X",
",X1X4X4X3X2X0.>XwX].I.U.U.C.Y.Q R S S E > , ; , ; j P 3 4 + l y E | } x.R.O.%.7.3.0.1X1X1X",
"5X1X;X:X1X2Xw.:X*X.XG.Z.S.U.Y.Q ! b.| S d , 4 ; , c K 7 - O r Y { { } ' |.4.0.0.4X4X1X<X8.",
",X,X>X1X1X<X8.3.@.|.'.`.A.S.C.` Q ! b.D g 4 : 3 8 x 7 x , & q N.c.`  .] /.8X4X2X:X:X0.0.0.",
"0.2X5X5X8.8.8.4.e.%XwX[.`.I.Y.V.` ` b.! a G 3 3 b 6 - G y # ^ xXl.m.] ' g.wX6X3X:X:X0.0.0.",
"w.w.8.8.7.7.1X5X2X:X&X X'.F.D.c.n.` T.R o b 6 t z 1 < y m C  X8XyX~.d.y.t.[.7X0.,X,X<X0.0.",
"<.<.7.8.0.2X1X,X2XiX$X=XXX[.M.Z U.Y.C.r O > J G 5 e & w ) oX9X6.:X*X/.k.p.j.7X2X,X5X3X2X0.",
"<.3.9.0.2X3X1X,X0.<X:X>X8XrX~.r.C c.m % * > v K o % n ^ wX%X4.iX:X5X9X*X#XOX;X2X<X0.9.3.8.",
"5.0.0.2X:X4X1X5XpXpX2X:X;X7X9X|.k.) M N 0 r F g a B M.eXOX+.0.3.6.6.:X1X1X1X<X<X3.3.3.3.3.",
"0.0.2X3X:X5XfXhXfXgXpXpX>X;X0X7XyXyXrX X(.y.[ ..| } M.eX7X3X2X:.0.3.3.4.4.8.4.3.3.3.9.9.0.",
"0.0.:X4X5XfXhXhXhXhXfXhXfX>X>X5X,X,X4X>XyXXXh.B.] x.p.~.7X1X8.pX0.0.0.8.8.8.8.8.8.0.0.0.0.",
"2X:X:X5XpXfXkXdXhXhXfXfXhXfX5X4X2X2X5X>XOX&XwX!.k.k.j.|.0XiX1X,X0.0.2X2X2X2X2X2X0.2X2X0.0.",
"4X5XpXfXgXgXhXhXfXhXhXfXhXfX5X6.0.6.,X5X5X5XdX9XtXtXyXlXhXpXfXpX5X3X:X4X2X2X4X:X3X3X2X<X<X",
"5XfXhXgXgXaXaXaXpXgXgXfXfXhXhXgXsX$XsXpX5X5XfXfXhXhXfXdXhXhXhXfXhXfXpX5X4X:X:X:X:X:X:X:X4X",
"fXhXhXaXpXiXw.w.iXpXgXfXfXhXfXfXgXhXgXsXfXjX5XpXiX5.6.4X;X:XpXpXfXfXhXhXfXpXpXpX5X5X5XpXfX",
"5X5X:X6.5.5.,.5.3.8.<XpXhXhXgXgXpXgXhXhX5X4X4.3.7.5.3.3.3.3.5.9.3XpXhXhXfXfXhXhXhXhXhXfXfX",
"8.0.3.3.3.3.3.9.3.3.4.8.4XpXpXaXpXpX1X;X4.4.3.9.9.9.7.3.7.5.2.9.0.:X5XpXpXhXhXhXhXfXpX2X8.",
"9.7.9.9.9.5.9.0.9.8.8.4.4.4.4.6.7.7.0.0.0.0.0.0.8.8.8.7.3.9.2.2.1.3.3.4.:XpXpX4X:X0.3.3.3.",
"2.9.9.9.9.7.7.7.3.3.8.0.0.2X2X0.0.0.0.2X4X4X4X2X0.0.0.0.3.7.2.2.9.9.3.4.;XpX5X4.3.7.9.9.9.",
"2.2.9.9.7.=.%.%.%.$.$.%.7.0.2X2X3X2X4X:X:X:X4X0.0.0.0.0.4.3.7.9.2.9.9.4.;XpXpX0.3.9.9.2.2."
};
