/* XPM */
static const char *fishh[] = {
/* columns rows colors chars-per-pixel */
"45 45 156 2 ",
"   c #7D4A6A",
".  c #6C5078",
"X  c #BE2F3A",
"o  c #B7323F",
"O  c #BA313D",
"+  c #E71E1E",
"@  c #ED1D1C",
"#  c #F31914",
"$  c #F21B18",
"%  c #E7201E",
"&  c #EF201C",
"*  c #E51E21",
"=  c #CF262E",
"-  c #D2262B",
";  c #DA2329",
":  c #CC2732",
">  c #C22D36",
",  c #CB2932",
"<  c #C12D39",
"1  c #DB2E31",
"2  c #C9313B",
"3  c #DA3439",
"4  c #E52425",
"5  c #E8272A",
"6  c #E22A2C",
"7  c #EE2C29",
"8  c #EB403F",
"9  c #9B3D54",
"0  c #AE3546",
"q  c #A7374A",
"w  c #AD3649",
"e  c #AC3B4A",
"r  c #B23444",
"t  c #B93140",
"y  c #B13A4B",
"u  c #AB3F51",
"i  c #C43C46",
"p  c #DA3C40",
"a  c #9B495F",
"s  c #BE434E",
"d  c #BD4355",
"f  c #BE4F5A",
"g  c #864E6C",
"h  c #9A596E",
"j  c #AB586D",
"k  c #BE5662",
"l  c #B85E72",
"z  c #AF6B7B",
"x  c #B76778",
"c  c #B9787D",
"v  c #BA7F7E",
"b  c #C14E5C",
"n  c #D04B53",
"m  c #C9565F",
"M  c #E94543",
"N  c #E94E4E",
"B  c #E55353",
"V  c #C66773",
"C  c #D87579",
"Z  c #9C807E",
"A  c #516695",
"S  c #5077A4",
"D  c #816784",
"F  c #9D6C83",
"G  c #9F7F9C",
"H  c #A5758B",
"J  c #B3798A",
"K  c #A07990",
"L  c #5A85AF",
"P  c #5283B1",
"I  c #5E87B1",
"U  c #578FBD",
"Y  c #5991B9",
"T  c #7A8CB2",
"R  c #5F9DC4",
"E  c #64ACD2",
"W  c #74B7DC",
"Q  c #6FC9ED",
"!  c #7AC7ED",
"~  c #75C8EC",
"^  c #7DCCEF",
"/  c #6BC9F7",
"(  c #66CBFD",
")  c #6ACDFC",
"_  c #73CEF1",
"`  c #70CEF9",
"'  c #6ED1FB",
"]  c #73D1F4",
"[  c #7DD5F6",
"{  c #7DD8F7",
"}  c #72D6FC",
"|  c #7BD6FA",
" . c #75D8FC",
".. c #7ED9FB",
"X. c #7CDAFB",
"o. c #7FDDFB",
"O. c #79DAFC",
"+. c #A18584",
"@. c #AC8496",
"#. c #A6849A",
"$. c #AC8498",
"%. c #A1899F",
"&. c #AD8C9F",
"*. c #B58292",
"=. c #9B84A2",
"-. c #8896B6",
";. c #989FB6",
":. c #A893A9",
">. c #A59EB4",
",. c #9FA1B6",
"<. c #9AA5BC",
"1. c #A2A4BC",
"2. c #89A3C0",
"3. c #8BABC9",
"4. c #99ADC7",
"5. c #8EB1CD",
"6. c #9AB8CF",
"7. c #88B8D4",
"8. c #84BCDC",
"9. c #8BBFDD",
"0. c #95BFDA",
"q. c #8CC7DD",
"w. c #99CBDE",
"e. c #A3CDDB",
"r. c #83C7E4",
"t. c #80C7EA",
"y. c #87CDEB",
"u. c #8CCDE9",
"i. c #91C8E3",
"p. c #82CFF0",
"a. c #84D4F4",
"s. c #89D4F4",
"d. c #8CDEF7",
"f. c #82D7F9",
"g. c #80DBFB",
"h. c #82DDFB",
"j. c #80DBFC",
"k. c #82DBFC",
"l. c #83DDFC",
"z. c #85DDFC",
"x. c #89DEFB",
"c. c #96D9F3",
"v. c #87E0FB",
"b. c #87E0FC",
"n. c #89E0FB",
"m. c #8DE2FB",
"M. c #8CE2FC",
"N. c #8EE3FC",
"B. c #8FE4FC",
"V. c #91E4FD",
"C. c #92E5FC",
"Z. c #93E6FC",
"A. c #95E6FC",
"S. c #94E6FD",
"D. c #9AE7FB",
"F. c #98E6FC",
/* pixels */
"i.d.V.V.S.S.S.S.S.D.S.S.S.V.V.S.V.V.D.S.S.V.S.S.V.S.S.S.S.S.S.V.S.S.S.S.S.S.S.V.S.S.S.V.S.",
"c.V.V.S.S.V.V.V.V.S.S.V.S.S.S.V.V.V.S.S.S.S.S.V.V.V.V.V.V.V.V.S.S.S.V.V.S.V.V.V.V.S.S.V.S.",
"V.m.m.n.l.o.X.O.X.z.N.V.S.S.F.V.S.F.S.V.V.n.z.l.O.O. . .O.O.l.b.B.V.S.S.S.V.S.S.V.V.S.S.S.",
"O. .O.} } }  .} } }  .X.v.N.V.V.B.m.v.h.O. . .} } } } } } } }  . .h.N.V.S.V.S.S.S.S.N.N.h.",
"}  .} } } }  . .} } }  .O.O.O.X.X.X.o.z.n.n.n.N.h.O.} } } } } } } }  .l.n.B.V.N.b.o. .} } ",
"}  .} } } } ' } ) ) ) } g.N.B.N.V.V.V.S.S.S.S.S.S.V.N.O.} } } } } } } } }  . . .} } } } } ",
"} } } } ' ) ) ( ( ( ( ( ) } X.n.V.S.S.S.S.V.V.V.V.z.| } ) } } }  .} } } } } } } }  .O.} } ",
"| X.j.j.j.j.X.| } ' ) ( ) ( ( ) } } | | | | } } ) ( ( ) ) ( ) ) ' } } } } } } } } } ) ' } ",
"j.j.j.j.j.j.j.j.z.j.X.| } } ) ) ) ) ) ( ( ( ) ) ) ) ) ) ) ( ( ( ( ( ( ) ) ) ) ) ( ) | X.j.",
"j.j.j.j.j.j.z.j.h.g.j.h.h.h.g.g.X.X.| | | X.X.X.g.g.g.X.X.| | } } } } } } } } } X.j.j.j.j.",
"j.z.z.j.g.X.O. . . . . . .O.O.X.o.X.X.X.X.X.j.g.j.j.j.j.j.j.j.j.j.j.j.j.j.j.j.j.j.j.j.j.j.",
"h.l.h.O. .}  .X.g.g.g.X.O. .} } } } } } } } }  . .O.X.j.j.j.j.j.j.j.j.j.j.j.j.j.j.j.j.j.j.",
" . .}  . .X.l.h.j.z.j.j.j.g.X. .} } } } } } } } } } }  .O.X.j.j.j.j.j.h.j.j.j.j.j.l.j.X.O.",
"} } O.X.j.j.j.j.g.h.j.j.j.j.j.j.O. .} } } } }  . . . . . .} } O.X.X.g.g.g.j.g.X.O. .} } } ",
"X.g.j.j.j.g.g.O. . . .X.j.j.j.j.j.j.X.X.X.X.X.j.g.g.g.X.X.X.O. .} } }  .}  . .} } } }  .O.",
"j.j.j.j.j.X. .} }  .} }  .g.h.j.j.j.j.j.j.j.j.j.j.j.l.j.j.j.j.g.g.X.O.O.O.O.X.X.X.h.h.l.j.",
"j.j.j.X.O.} } } }  . .} }  .O.j.j.j.z.z.j.j.j.j.j.X.X.O.O.O.X.X.j.h.h.l.j.j.j.j.j.z.j.j.j.",
"g.X. .} } }  .}  .} } } } }  . .X.X.h.l.X.X.O.O.] ] ] Q } O. . . . .O.X.h.j.l.j.j.j.j.j.j.",
" .O.X.h.h.h.h.X.O.O.O. .} }  .} }  .O. .} _ E R Y L I S W z.l.l.o. .} } }  . .O.O.O.O.O.O.",
"h.h.z.z.g.g.g.l.l.l.h.h.h.X.O.O.O.O.X.y.-.D g   9 9 9 q h J &.1.0.s.o.O. . .} } }  .O.X.h.",
"X.| } } ' ' } 5.@.<.a.l.l.l.z.u.6.;.c k 2 ; > 0 , X t : r * @ B C V >.s.l.j.j.j.g.l.l.l.j.",
"` ( ( ( ) ( ( -.6 4 H ! 9.<.J n i e - O < : 0 < 0 X t r > + 7 v Z M 4 x t.O.X.j.g.X.| } } ",
"} } } } } } ) / =.3 6 j d y < : r > w X O r > w < r r < r + 7 v +.M # @ G ( ) ) ) ) ) r.q.",
"g.j.j.j.j.j.j.X.[ #.1 0 0 > r r X 0 X r O O w > 0 O O r > % $ 8 N & # # l ( ( ( ( ( ` w.e.",
"j.j.j.j.j.j.j.s.*.6 6 x f u > = 0 > 0 O r r > w X r r < w * $ @ > r , ; =.( ) ) } | g.f.g.",
"j.j.j.j.j.l.o.,.4 6 $.a.u.5.@.m s u : O > = 0 > 0 X o r , + $ $ : . A T ^ | X.j.j.j.j.X.X.",
"j.j.z.j.X. . .7.:.5.[  . . .O.[ 9.3.#.z b 3 2 e - X X - 0 4 @ 5 p H W X.j.j.j.j.j.j.j.X.X.",
"X.X.X. .}  .X.l.l.l.l.j.X. .} } }  . .} ^ 8.3.2.%.K a q F &.:.4.i.a.l.j.j.j.j.j.j.j.j.j.j.",
"} } }  .X.j.j.j.j.j.j.j.j.h.X.} } } }  .}  . . . .} U P ~ o.o.l.l.j.j.z.j.j.j.j.h.g.X.X. .",
" .O.X.g.j.j.j.z.x.x.z.j.j.j.j.h.X.O. . .} }  . .O. .] ]  .} }  .O.X.X.X.X.X.X.O. .} } } } ",
"o.l.j.j.j.x.V.V.V.V.V.N.z.j.j.j.j.j.g.l.j.j.g.h.g.g.l.l.g.X.X.O. .} } } }  .} } } }  .O.X.",
"j.j.j.z.N.V.S.V.S.S.S.S.V.x.j.j.j.j.z.j.j.j.X.X.j.z.z.z.z.l.l.j.j.X.X.X.X.X.X.X.X.h.l.j.j.",
"z.z.N.V.S.V.S.S.S.S.S.V.S.V.N.z.j.j.z.g.l.l.z.n.N.V.V.V.V.V.V.N.x.z.z.j.j.j.j.j.j.z.j.j.j.",
"V.V.S.S.V.B.B.N.N.V.S.S.S.S.S.V.V.m.m.N.N.V.V.V.N.N.n.n.n.N.V.V.S.V.V.V.n.x.z.l.l.j.l.z.x.",
"N.n.z.X.O. . . . .O.z.N.V.S.S.S.S.F.S.V.n.l.O. . .} } } }  . .o.n.V.V.S.S.S.V.V.V.V.V.V.V.",
"} }  .} } } O.} } } }  .X.z.n.n.n.z.o.O. . . .} } } } } } } }  .}  .l.n.N.V.V.V.N.N.l.X.O.",
"}  .} } }  .} | } } } O.O.O.O.O.X.X.X.j.j.j.j.h.j.O. . .} } } } } } } }  . .O. . .} } } } ",
"} } } } ' ) ) ) ) ( ( ) } X.h.h.j.j.j.j.j.j.j.j.j.l.g.| } } } } } } } } } } } } } }  .} } ",
"} } } | } } } ) ) ( ( ( ) ) ' } X.g.X.g.g.j.X.X.| } ) ) ) ) ' } } }  . .} } }  . .} | } ' ",
"X.j.j.j.j.j.g.j.X.} } ) ) ( ( ( ) ) ) ) ) ) ) ) ( ( ( ( ) ( ( ) ) ) ' ' } } } } ' ) ) } | ",
"j.j.j.j.j.j.j.j.z.g.g.g.X.| } } ' } ) ) ) ' } } } } } } ' ) ) ) ( ( ( ( ( ( ( ) ` | g.j.j.",
"j.j.j.j.j.h.g.X.X.O.O.X.X.h.l.h.g.j.g.g.g.g.j.j.j.j.j.j.g.g.z.g.| } } ' ' } | X.g.g.g.l.l.",
"j.j.z.h.X. . . . .O.O.O. . . .O.O.O.O.O.O.O.O.X.X.h.j.g.z.z.z.z.h.g.X.| | { X.X.o.o.h.z.z.",
"j.h.h.O.} }  .h.h.j.g.z.o.} } ' } } } } }  .} } }  .o.a.s.s.z.z.z.g.X.| { { X.g.g.z.d.d.d.",
"j.h.h. .} }  .h.h.j.g.z.h.} } } } } } } }  .} } } } X.p.y.s.g.z.z.g.X.{ { { f.f.f.d.d.d.d."
};
