/* XPM */
static char *hhome[] = {
/* columns rows colors chars-per-pixel */
"40 40 223 2 ",
"   c #754B37",
".  c #754B38",
"X  c #7B4E3A",
"o  c #7E513A",
"O  c #787849",
"+  c #84553B",
"@  c #86593B",
"#  c #8C5A3D",
"$  c #89573D",
"%  c #915E3E",
"&  c #8E613C",
"*  c #94633D",
"=  c #99653F",
"-  c #9C6A3F",
";  c #98743F",
":  c #A16E3F",
">  c #A3713E",
",  c #8C5D41",
"<  c #935E40",
"1  c #8D6546",
"2  c #8E6B46",
"3  c #8B6449",
"4  c #8E6E48",
"5  c #946444",
"6  c #9B6541",
"7  c #946B46",
"8  c #9C6C45",
"9  c #926648",
"0  c #946A4A",
"q  c #9A6D4A",
"w  c #8C7749",
"e  c #877949",
"r  c #957347",
"t  c #9C7246",
"y  c #9E744B",
"u  c #967C49",
"i  c #99794B",
"p  c #9F7553",
"a  c #9A7B5A",
"s  c #997659",
"d  c #8D7057",
"f  c #A26D44",
"g  c #A36C47",
"h  c #A47243",
"j  c #AB7444",
"k  c #A67A46",
"l  c #AC7A44",
"z  c #A4724A",
"x  c #A47949",
"c  c #AC7A48",
"v  c #AB764B",
"b  c #B27643",
"n  c #B37C44",
"m  c #BA7E45",
"M  c #B27B4D",
"N  c #A47D53",
"B  c #AB7A56",
"V  c #897463",
"C  c #A07F62",
"Z  c #3FB551",
"A  c #599E4D",
"S  c #6C8449",
"D  c #7B884B",
"F  c #629C4B",
"G  c #67964C",
"H  c #78984C",
"J  c #679D54",
"K  c #779751",
"L  c #57A54D",
"P  c #5AAB55",
"I  c #43B652",
"U  c #4AB658",
"Y  c #4EB152",
"T  c #63A74C",
"R  c #64A452",
"E  c #64AB56",
"W  c #7AA653",
"Q  c #4DB963",
"!  c #4DBA6B",
"~  c #46B96E",
"^  c #56B966",
"/  c #4CBB76",
"(  c #53BC75",
")  c #54BD7A",
"_  c #5ABD7A",
"`  c #56B774",
"'  c #5DAD61",
"]  c #64B67C",
"[  c #69A876",
"{  c #86884B",
"}  c #8A934D",
"|  c #849349",
" . c #94934C",
".. c #978F48",
"X. c #A78448",
"o. c #B58145",
"O. c #BB8345",
"+. c #B98649",
"@. c #AD8A5C",
"#. c #A5835D",
"$. c #AE9153",
"%. c #9D836A",
"&. c #899364",
"*. c #8B877C",
"=. c #988B75",
"-. c #A2896C",
";. c #A78D66",
":. c #B19264",
">. c #A58D74",
",. c #A6997C",
"<. c #B2926C",
"1. c #82A060",
"2. c #AEA27B",
"3. c #C38946",
"4. c #C59B59",
"5. c #7D969A",
"6. c #56BD87",
"7. c #5ABD99",
"8. c #60BF8F",
"9. c #71B58C",
"0. c #67BA95",
"q. c #7DB592",
"w. c #7395A2",
"e. c #7FA4AE",
"r. c #77ABBA",
"t. c #7BBCB6",
"y. c #6FB4AB",
"u. c #5DC187",
"i. c #5CC297",
"p. c #63C28C",
"a. c #65C49A",
"s. c #58C3A1",
"d. c #63C5A3",
"f. c #69C9AE",
"g. c #69C9B8",
"h. c #72CABD",
"j. c #79D1BA",
"k. c #71CAA8",
"l. c #6DABC8",
"z. c #7DB6CA",
"x. c #7DB3C3",
"c. c #6BB5D8",
"v. c #7BBCD4",
"b. c #61BCC0",
"n. c #69BBE4",
"m. c #5FC6D9",
"M. c #6BCCC6",
"N. c #6DCECB",
"B. c #65C9CA",
"V. c #73CDC2",
"C. c #77CBC7",
"Z. c #77D2CB",
"A. c #6CCEDA",
"S. c #69CAD4",
"D. c #7BC4DB",
"F. c #77C9D6",
"G. c #6CD1DA",
"H. c #76D2D6",
"J. c #68C8EA",
"K. c #79CAE8",
"L. c #6ED3E8",
"P. c #7CD4E4",
"I. c #74D2EE",
"U. c #7CD6EC",
"Y. c #75D4E6",
"T. c #6ACBF7",
"R. c #66CBFD",
"E. c #6BCDFB",
"W. c #67C6F3",
"Q. c #6ED0FA",
"!. c #6FD5F5",
"~. c #74D5F5",
"^. c #7BD4F4",
"/. c #7ED9F5",
"(. c #72D6FD",
"). c #7AD6FA",
"_. c #75D8FC",
"`. c #7CDAFB",
"'. c #969C8D",
"]. c #99988B",
"[. c #869999",
"{. c #959D94",
"}. c #8D9B84",
"|. c #A29481",
" X c #9CA59A",
".X c #9BAB9C",
"XX c #9FA594",
"oX c #A7A68E",
"OX c #B1AE8A",
"+X c #A4AF9C",
"@X c #95AAA8",
"#X c #8FB3AF",
"$X c #8AACB1",
"%X c #82ADB9",
"&X c #88B3BD",
"*X c #93B3B7",
"=X c #A1B9A9",
"-X c #8BBDC5",
";X c #86B9C5",
":X c #8DC2CD",
">X c #8CC8C4",
",X c #95C6C5",
"<X c #8BC3D3",
"1X c #89CBDE",
"2X c #82C3D7",
"3X c #93CAD6",
"4X c #82D8D9",
"5X c #84CBE3",
"6X c #86CDE5",
"7X c #83D2EC",
"8X c #87D8E9",
"9X c #91D7E8",
"0X c #83D4F2",
"qX c #82DAF4",
"wX c #82DBFC",
"eX c #89DEFD",
"rX c #92DEF3",
"tX c #91E2EF",
"yX c #8DE2FC",
"uX c #86E0FD",
"iX c #92E2F5",
"pX c #94E5FD",
"aX c #8EE0EC",
/* pixels */
"(._.)._.(.R.E.E.R.R.Q.eXpXpXpXpXpXpX>Xj.pXpXpXpX`._._.(.(.(.(.~.~.Q.(.(.(.(.~.(.",
"~.Q.T.T.E.E.R.R.R.J.R.E.).yXpXpXpXpX4Xu.rXpXpX`.Q.T.Q.).(.(.(.B.B.(.(.(.(.`._._.",
"(.).wX`.wX`.(.E.T.s.J.E.R.E._.wXyXyX4X( F.K.T.R.E.E.R.Q.!._.~.6.g.(._._._._.Q.E.",
"wXwXwXwXwXwXwXwXN.( J.R.R.R.R.R.R.B.( Q b.n.l.n.R.R.W.n.R.T.J./ M.^.~.T.R.E.!.`.",
"wXwX`.wXwXwX0XeXf.) /.`.).Q.Q.Q.Q.S.~ ` r.r.w.c.Q.W.n.R.R.R.S.~ 7.6.J.R.Q.).wX`.",
"wXwXwXwX`.V.0.C.a.a.wXwXwXwXwX6X<X7X;X#X{.$X%X5.;X;X&X2X~.(.S.Q I / Y.`.wXwXwXwX",
"wXwXeXwX`.g.I U _ S._.).0X3X1X:X].|.#.%.C d [.}.V =.>.|.@X2XF.` ~ h.0XwXwXwXwXwX",
"wXwXuXU._.~.i.~ 0.x.).(.K.XX{.}.0 8 v j z 0 0 z d V p C ].|.;X^.^.<X0XwXwX`.wX`.",
"wX`.qXd.L.^.qXU.7Xe.e.^.~.;X X-.q 5 , 6 f t f z v s q p a =.;X5X1X<XwXU.U.`.wXeX",
"_._.I.) H.:X8XwX7X;X5.[.*X X{.oXB 6 @ # = = j j h g 1 1 1 z ].:X:X:X6Xf.Z.wX`.).",
"(._.Y.! N.:X6XwXuX1XoX@.a @.+.X.p h > : + # $ : : n h t 1 3 q >.].*X5X/ M._.(.(.",
"_.`.H.! F.*X-X`.8X=X;.t 7 1 7 h - - % * = * + + + % # @ 5 z N <.>.P.G.! G.(.(.(.",
"wXwXP.6.P.7X&XU.>X=X2.o.k > j & @ o o X $ % % $ + = 8 - x t 1 2 @.,XB.u.~.`.U.`.",
"wXwXU.M.`.(.D..X:.x h l o.o.= = = @ # @ % 6 : b h = # % # * y 3 =.+Xt.h.eXH.f.wX",
"wXh.p.t._.(.D.;.8 k n h - + + X + % 6 # + + % % : % % # # 1 7 r i ,.@X0XwXa.d.eX",
"h.^ Q y.I.(.{.f l > * + o X X X X X .   + $ $ $ % % $ % + # 5 H { -.@X0X`.) f.wX",
"_ Z s.F.z./.<.x x f # X X o o o o o   . X + + + $ 6 % % < : ; T } v {.qXU.( Z.`.",
"6.d.8XeXx.5XOXo.8 7 = $ + + $ + @ < , +     X + $ $ < $ $ j $.Y ..: =._.I.d.~.).",
"wXwXwXwX7Xr.'.O.j 8 > : , o $ # $ X . X + + + X X , + + > > ..P i h ,.I.I.y.Z./.",
"wXqX`.(.(.v.V l m h j O.: . X   . X + + X X .   . X + = > > ..P { k OX1Xv.7.U a.",
"(.E.R.R.R.K.;.1 n x = n 3.- * + . +     X +     . * h > o.o.| I Y $.+X;X0XK.6.7.",
"Q.R.R.R.R.R.XXj 5 n : : > m > - X # + + #     @ j 3.> j > l F P J &.[.2X7X^.E.W.",
"Q.Q.).).).Q.>X4.3.b n n > 3.> j - % : : + * > O.3.: n h l x L H x s [.c.l.n.R.R.",
"wXwXwX7X0X0X,X:.o.+.l > > > 3.O.j j > m > O.m b j g h h 8 t L K p C z.n.W.R.E.).",
"wXwXH.t.z.z.#X+.7 t o.l +.h j O.b m O.m O.n b l 8 3 7 y 3 8 H S g ].l.c.T.).wXwX",
"wXwXa.V.5Xe.}.7 8 9 n n n k t o.3.m b b b o.O.+.k 9 q 5 8 x u w 6 }.n.wXwXwXwX).",
"wXU.` y.;XK.;X-.8 9 7 t v j 7 7 O.3.+.O.m j h O.l n z z g 8 3 7 N *XwXwXwXwXwXwX",
"wXF.! H.).(.(.q.H w t t 8 8 j z 7 h n l j j n O.O.8 5 7 1 3 8 B @XwXwXwXwXwXwXwX",
"eXN.i.~.(.).N.U Y J x h X.S  .l k l l k k l j 8 6 1 2 8 9 9 M >.6X`.P.H./.wXwXwX",
"_.G.A.~.).-XC.p.^ E k X.A I R } c n f x k k y 3 1 2 i 8 1 v @.@X5X0XF.! f.wXuX`.",
"(.(.).wXwX6X*X<X0.L y X.E E K P r j m n n n g 0 4 G L S g ;.].-X0XwXqX/ ! P._.(.",
"(.`.wXwXwXwX*X X] R 2 v ..w H E 7 g j q q 8 z 8 e U U P 8 =.-XwXwX`.`.B.6.L.(.(.",
"wXuXwXwXwXyXiXrXp.1.j X...; A W n t t y e 7 1 9 O Y J e p '.v.(.Q.(.(.(.~.Q._.`.",
"wX`.wXwXyXpXpXpXj.,X#.A Y H T { z 7 7 e L G 4 x u Y K y %.;XK.(._._._._.`.`.uXwX",
"wX`.eXyXpXpXrX;X>X9X9.Z U F D i 9 7 8 O U I D 8 z F P =.$XwXuXuXwXuX`.uXwXwX`.wX",
"wXeXpXpXpXpXpX9X-X$X9.9.^ F 8 8 9 k b D U P J 8 6 { ' >XrXuXuX`.wX`.wX`.eXwXwX`.",
"yXpXpXpXpXpXpXpX9X9X9XaX_ [ ;.O.x h m | Y | H #.=.XX>XpXpXpXpXpXyXeXwXwX`.wXwXeX",
"pXpXyXuX`.`._.`.7XyXpXaX( Z.3X=X2.<.<.&.P }.$XK.^.).`.wXyXpXpXpXpXpXpXyXyXyXpXpX",
"`.)._.(.(._.(.(.(._.uXaXk.iXpXpXiX9X^.F.i.~.(.(.(.Q.(.(._.`.pXpXpXpXpXpXpXpXyXyX",
"(.(._.(.(._.(.(.(.(.Q.`.U.eXeXwX_.(.).).G.~.(.(.(.(.(._.(.(._.uXyXpXpXyXyXwX_.(."
};
