/* XPM */
static char *house[] = {
/* columns rows colors chars-per-pixel */
"40 40 212 2 ",
"   c #754B37",
".  c #754B38",
"X  c #7B4E3A",
"o  c #7E513A",
"O  c #787849",
"+  c #84553B",
"@  c #89573D",
"#  c #86593B",
"$  c #8C5A3D",
"%  c #915E3E",
"&  c #8E613C",
"*  c #94633D",
"=  c #99653F",
"-  c #9D6A3F",
";  c #98743F",
":  c #A16E3F",
">  c #A3713E",
",  c #8C5D41",
"<  c #935E40",
"1  c #8C6546",
"2  c #8E6B46",
"3  c #8C6449",
"4  c #8E6E48",
"5  c #946544",
"6  c #9A6541",
"7  c #956C46",
"8  c #9C6C45",
"9  c #93664A",
"0  c #946A4A",
"q  c #9B6C49",
"w  c #867749",
"e  c #8C7749",
"r  c #887C49",
"t  c #957347",
"y  c #9C7246",
"u  c #9E7449",
"i  c #967C49",
"p  c #9A794A",
"a  c #9A7356",
"s  c #946B59",
"d  c #A26D44",
"f  c #A46C47",
"g  c #A47244",
"h  c #AB7444",
"j  c #A67A46",
"k  c #AC7A44",
"l  c #A4734B",
"z  c #AB7549",
"x  c #A47948",
"c  c #AC7A4A",
"v  c #B27643",
"b  c #B37C44",
"n  c #B97E45",
"m  c #B37A4C",
"M  c #A47453",
"N  c #AA7C54",
"B  c #AD795D",
"V  c #B17B55",
"C  c #AE7A61",
"Z  c #AB7B6A",
"A  c #A1796B",
"S  c #B27D63",
"D  c #B87F63",
"F  c #AD7F7C",
"G  c #3EB651",
"H  c #599E4D",
"J  c #6C8449",
"K  c #7E8A4B",
"L  c #78884B",
"P  c #629C4C",
"I  c #67964C",
"U  c #78984C",
"Y  c #679D54",
"T  c #779751",
"R  c #49AD4D",
"E  c #57A54D",
"W  c #4BAC51",
"Q  c #5CA352",
"!  c #55AF53",
"~  c #5BAC55",
"^  c #55A753",
"/  c #43B653",
"(  c #4CB455",
")  c #4CB559",
"_  c #49BA59",
"`  c #53B65E",
"'  c #58B55A",
"]  c #62A74D",
"[  c #64A552",
"{  c #62AA54",
"}  c #65AB5A",
"|  c #7AA653",
" . c #7D9B67",
".. c #5BB463",
"X. c #56B462",
"o. c #68AC67",
"O. c #65B269",
"+. c #6AB36B",
"@. c #63B465",
"#. c #71B16E",
"$. c #7AAE74",
"%. c #75AE74",
"&. c #73B271",
"*. c #7BB376",
"=. c #7EB278",
"-. c #78A76A",
";. c #86874B",
":. c #839349",
">. c #8A924E",
",. c #89984F",
"<. c #94934C",
"1. c #968E5C",
"2. c #919552",
"3. c #AF8347",
"4. c #A38449",
"5. c #A38547",
"6. c #B58146",
"7. c #BB8345",
"8. c #B7844C",
"9. c #BB8649",
"0. c #BE8B46",
"q. c #AD8056",
"w. c #B68457",
"e. c #BD8B5C",
"r. c #B6875B",
"t. c #A8934D",
"y. c #8B9E75",
"u. c #BB8364",
"i. c #B68569",
"p. c #AC807A",
"a. c #BB8776",
"s. c #BD8C7A",
"d. c #B98679",
"f. c #AD8367",
"g. c #86AE7D",
"h. c #89AE7E",
"j. c #89A77B",
"k. c #92A679",
"l. c #85B37C",
"z. c #AAA379",
"x. c #C28745",
"c. c #C68D48",
"v. c #CA9556",
"b. c #C08565",
"n. c #C38B68",
"m. c #C6926A",
"M. c #C99269",
"N. c #C38771",
"B. c #C28A76",
"V. c #C38C7C",
"C. c #C88F7F",
"Z. c #CB947D",
"A. c #CA9878",
"S. c #D49C75",
"D. c #BB8889",
"F. c #B48484",
"G. c #B7998E",
"H. c #A99387",
"J. c #8FAD81",
"K. c #9AAE87",
"L. c #92AE83",
"P. c #8FB180",
"I. c #92B082",
"U. c #A9A28A",
"Y. c #A3AE8B",
"T. c #BCA28E",
"R. c #ADAD92",
"E. c #B4AC95",
"W. c #BCAB99",
"Q. c #B7A494",
"!. c #C28D88",
"~. c #CA9285",
"^. c #CD928D",
"/. c #C4988C",
"(. c #D39A80",
"). c #D2948E",
"_. c #D09287",
"`. c #C48E91",
"'. c #CA9196",
"]. c #CC949A",
"[. c #C79996",
"{. c #D39593",
"}. c #D2969D",
"|. c #D59A99",
" X c #DC9B9D",
".X c #D99897",
"XX c #DAA389",
"oX c #C4A497",
"OX c #C3A99D",
"+X c #C8A99F",
"@X c #D0A098",
"#X c #E3A398",
"$X c #D79AA3",
"%X c #DD9CA4",
"&X c #DE9DA9",
"*X c #D797A0",
"=X c #E29EA4",
"-X c #E39FAB",
";X c #CCA7A2",
":X c #CCA9A2",
">X c #D3A9A7",
",X c #DCA7AB",
"<X c #D7A8A9",
"1X c #DDA8AB",
"2X c #D8A5A6",
"3X c #E3A1A4",
"4X c #E4A3AD",
"5X c #EAA4AE",
"6X c #E1A8AE",
"7X c #E6A7B0",
"8X c #EEA6B4",
"9X c #F0A6B5",
/* pixels */
"9X9X9X9X9X9X9X9X9X9X9X8X9X9X9X9X9X9XW.R.8X9X8X9X9X9X9X9X9X9X9X7X7X9X9X9X9X9X8X9X",
"9X9X9X9X9X9X9X9X9X1X8X9X9X9X9X9X8X9X:X*.7X9X9X8X9X9X9X9X9X9X9XW.W.9X9X9X9X9X9X9X",
"9X9X9X9X9X9X9X9X4XI.6X9X9X8X9X8X9X9X:X+.;X-X5X9X8X8X9X8X9X9X8X%.R.9X9X8X9X9X9X9X",
"8X9X9X9X9X9X9X8XOX+.6X9X9X9X9X9X9XW.+.` Q.&X'.8X9X9X-X&X8X9X,X..W.8X8X9X9X9X9X9X",
"9X9X9X9X8X9X8X9XK.+.7X9X9X9X8X8X9X:X@.o.G.`.F $X9X-X$X8X9X9X;X..l.=.<X9X9X9X9X9X",
"9X9X9X9X9XE.l.W.J.P.9X9X8X9X9X3X$X7X[./.s.^.`.F %X{.{.=X8X9X:XX.G O.6X8X9X9X8X9X",
"9X9X9X9X9XR.G ` &.;X9X9X7X3X3X XB.a.q.S B 9 !.Z s S u.N.~.=X;Xo.X.Q.5X9X9X8X9X9X",
"9X8X9X1X8X7Xh...k.`.9X9X5XZ.A.a.0 f g g l 9 5 f 9 s M B B.Z ].1X6X X5X9X9X9X9X9X",
"9X9X8XK.2X5X8X6X-XD.D.8X8X|.Z.f.q 5 $ d d y d z m a 7 N M C  X=X=X=X9X6X,X9X8X9X",
"9X9X6X+.+X X5X9X-X'.F p.^.Z.s.A.V 6 + $ * = h h h 8 1 1 1 f N. X X X4XK.W.9X9X9X",
"9X9X<X..W. X=X9X9X3XS.w.a w.w.3.l g > : + $ @ > : b g y 5 1 q D N.).,XO.W.9X9X9X",
"9X9X>X..OX{..X9X5XXXw.t t 1 - - - 8 % * = * X + X * $ $ 5 l N u.b.3X;X..>X9X9X9X",
"9X9X<X#.,X5X{.5X#XXXM.3.k > k & # o X X @ % = % o = d 6 j y 1 2 w.#XoX&.7X7X7X9X",
"9X9X6XE.8X9X=X(.e.j g k 6.6.= = = # $ # % % f > h = $ % $ & u 1 i.(.T.E.9X:XY.9X",
"8XE.l.Q.9X9X=Xe.y j 6.> - + o X + % 6 $ + + % % : < % $ $ 1 7 e 4.i.!.8X9XJ.I.9X",
"E.` ` H.-X9XB.f k g & + + X X o X   X   + $ + $ < % @ % + $ 6 U ;.B C.8X7X+.Y.9X",
"+.G J.$X].5Xn.l z d $ . o X o o o +     X @ @ @ @ < $ % < = ; ] >.z a.8X6XO.:X9X",
"$.L.6X9X^.=XS.6.y 7 = @ + @ @ + $ , @ +     . + $ $ < < $ h t.! <.d u.8X6XK.7X9X",
"8X8X9X9X-X`.a.7.g d k : , o $ @ + X X X o + + X X , X o > > <.~ i g m.8X3XU.W.7X",
"9X9X9X9X9X$Xa 3.n f > 7.-   X   . X + + X X X     X @ = > > <.~ ;.g S.3X*Xj.) L.",
"9X9X9X8X9X5Xw.2 b z = > x.- * + . +     X +     X * g > 7.6.:./ ~ t.Z.'.-X<X$.g.",
"9X9X9X9X9X8XS.j 7 k > > > n > - X $ + + $     # h x.> k > k P E ] 1.d.*X-X9X7X8X",
"9X8X9X9X9X8X#Xv.7.b 7.b > x.> h 6 % : : + * > 7.7.: b g k j E ,.j M F ].'.5X9X9X",
"8X9X8X4X5X9X#Xv.m 0.k > > > c.7.h h > 7.> 7.n v v f g d 8 y E Y z D  X%X8X9X9X8X",
"9X9X;XG.'.].~.8.7 g 6.k 8.g h 7.v n x.n 7.b v k 8 3 2 u 3 8 I L f B.].$X8X9X9X9X",
"9X8Xg.E.&X!.A q 7 1 b b b j y 6.7.n v v v b 9.0.x 1 8 9 q z i e f Z &X9X9X8X9X8X",
"9X,X..U.].&X&Xr.t 5 8 y z h 7 7 9.c.9.7.n g g 7.v b l g q q 1 0 M {.9X8X8X9X9X9X",
"9X;X..>X9X9X8Xz.K e p y y 8 z g 7 g b b g h b 7.7.y 5 0 5 , d N _.8X8X8X9X9X9X9X",
"9XOXl.8X8X9XW.) / Y x y 4.J <.k z k k j j k z 8 5 1 7 8 0 5 m b.-X8X,X:X7X9X8X9X",
"9X>X;X9X8X.XoX=.@.{ j 3.H / { >.k b g g j j y 1 1 2 p 7 3 z b.!.&X8X;XX.Y.9X9X9X",
"9X8X9X9X9X3X).$Xk.^ x 4.{ } U Q t z m b b b 8 7 4 I E J g V a.|.7X8X7XO.X.1X9X9X",
"9X9X9X9X9X9X).V.-.{ 4 j i i U { 7 g z 8 q 8 g 8 w ` _ ~ t S |.8X9X9X9XW.*.>X9X8X",
"9X8X9X9X9X9X8X5X$.2.z 5.5.p H | 3.y 8 u w 7 1 7 O W [ ;.l a.%X9X9X8X9X9X7X9X9X9X",
"9X9X9X9X8X9X9X8XR.@Xq.P R U ] K l 7 7 w ^ I 2 l i W T f B '.&X9X9X9X8X9X9X9X9X9X",
"9X9X9X9X9X9X8X'.].&Xk.G _ Y ;.i 3 8 8 O / / ;.q d H } f.^.9X9X9X8X9X9X9X9X8X9X8X",
"9X9X9X9X8X8X8X2X].D.y.%.' H y 7 9 j v L ) ' P 8 6 ;.o.[.5X9X9X9X9X9X9X9X9X9X9X9X",
"9X9X9X9X9X8X9X8X=X$X-X6X+. .V m g g n :.! ,.T N D V.oX8X9X8X8X9X9X9X9X9X9X9X9X9X",
"9X8X9X9X9X9X9X8X8X9X9X,X+.OX*X(.M.e.n.1.~ i.).=X5X9X9X9X9X9X9X9X9X9X9X9X9X9X9X9X",
"9X9X9X9X9X9X8X9X8X8X9X6XK.7X9X9X8X5X8X2XJ.7X9X9X9X9X8X9X9X9X8X9X9X9X9X9X9X9X9X9X",
"9X9X9X9X9X9X9X9X9X8X9X8X7X9X9X9X9X8X8X7X>X7X9X9X9X9X9X9X9X9X9X9X9X9X9X9X9X9X9X9X"
};
