/* XPM */
static char *players[] = {
/* columns rows colors chars-per-pixel */
"45 45 233 2 ",
"   c #495470",
".  c #5A738D",
"X  c #7D7D8D",
"o  c #749DAB",
"O  c #6D9CBE",
"+  c #7A9CBA",
"@  c #7DB9BE",
"#  c #6EAAC1",
"$  c #74B0C7",
"%  c #7AAFD1",
"&  c #66B9DC",
"*  c #7AB9D7",
"=  c #79A0C7",
"-  c #67BEE3",
";  c #74BBE2",
":  c #7FC2CB",
">  c #7CC7D9",
",  c #6CC5EB",
"<  c #6ECBED",
"1  c #69C8E4",
"2  c #75C5E4",
"3  c #7AC3E4",
"4  c #7BCCE4",
"5  c #75C5ED",
"6  c #7CC6E9",
"7  c #73CDED",
"8  c #7BCCEC",
"9  c #6DD2ED",
"0  c #69DAEF",
"q  c #75D3ED",
"w  c #7AD3EE",
"e  c #7BD3E6",
"r  c #6CC8F0",
"t  c #72CCF2",
"y  c #7BCDF4",
"u  c #74CFF9",
"i  c #77CBF9",
"p  c #6CDDF2",
"a  c #75D3F5",
"s  c #7BD5F4",
"d  c #75DAF5",
"f  c #7BD9F6",
"g  c #75D4F9",
"h  c #7BD5FB",
"j  c #76DBFB",
"k  c #7DDCFB",
"l  c #75E2FC",
"z  c #7BE2FC",
"x  c #76E1F7",
"c  c #8A879B",
"v  c #8B96AB",
"b  c #93A1AC",
"n  c #88A8B8",
"m  c #89B3BC",
"M  c #95BBBE",
"N  c #96ADCB",
"B  c #96BDC9",
"V  c #81A8D1",
"C  c #82BEDB",
"Z  c #86BBD7",
"A  c #98BBD8",
"S  c #88B3C9",
"D  c #A3ABC1",
"F  c #B2AFC2",
"G  c #A9B4CA",
"H  c #BFBCD8",
"J  c #B0BACF",
"K  c #82BAE0",
"L  c #93BFE4",
"P  c #D4B8CB",
"I  c #D5BED1",
"U  c #C6B4C4",
"Y  c #8EC2D3",
"T  c #85C5DA",
"R  c #84CBDD",
"E  c #88C7DA",
"W  c #98C2D4",
"Q  c #94CBDC",
"!  c #9DCCDC",
"~  c #99C3D7",
"^  c #99D4DA",
"/  c #93CDD4",
"(  c #A4CCDC",
")  c #A7C9D9",
"_  c #A4D1DE",
"`  c #A5D8DE",
"'  c #B3D9DE",
"]  c #B0C5D2",
"[  c #83C6E7",
"{  c #83CBE3",
"}  c #8ACCE4",
"|  c #83CDED",
" . c #8CCBEB",
".. c #86C2E7",
"X. c #9AC3E6",
"o. c #93CCE4",
"O. c #93CDEB",
"+. c #9ECCE9",
"@. c #99C8E0",
"#. c #83D3ED",
"$. c #8BD4EA",
"%. c #8BDAEC",
"&. c #87D5E6",
"*. c #93D2E4",
"=. c #9CD3E3",
"-. c #94D3EB",
";. c #9DD5EB",
":. c #94DCEF",
">. c #9BD9EE",
",. c #99DCE2",
"<. c #86CEF3",
"1. c #8BCFF2",
"2. c #83C9FD",
"3. c #99CDF5",
"4. c #84D4F3",
"5. c #8CD4F3",
"6. c #82DBF5",
"7. c #8CDAF3",
"8. c #83D5FC",
"9. c #8BD5FC",
"0. c #82DDFD",
"q. c #8BDCFC",
"w. c #9ED6F3",
"e. c #93D3FC",
"r. c #99D4FC",
"t. c #94D9F5",
"y. c #A1CCE5",
"u. c #A9CDE8",
"i. c #B3CBE3",
"p. c #A3D3E2",
"a. c #ADD4E5",
"s. c #A7D7EC",
"d. c #A7DBE7",
"f. c #B6DEED",
"g. c #BFDCEB",
"h. c #BDDFE3",
"j. c #A4DBF4",
"k. c #AADDF3",
"l. c #B5D7F1",
"z. c #9CE2EA",
"x. c #9BE1E5",
"c. c #85E1FD",
"v. c #8BE4FF",
"b. c #8EEAFF",
"n. c #86E0F3",
"m. c #92E3F4",
"M. c #9BE3F4",
"N. c #94E3FD",
"B. c #9CE5FC",
"V. c #92EAFF",
"C. c #9DEBFA",
"Z. c #AAE2EE",
"A. c #A3E1EB",
"S. c #BDE3EB",
"D. c #B0E1E3",
"F. c #A3E3F2",
"G. c #AAE5F9",
"H. c #B1E8FB",
"J. c #BDECFD",
"K. c #B9E3F8",
"L. c #B7F2FD",
"P. c #C7C8C9",
"I. c #C4C8D9",
"U. c #D6D9DB",
"Y. c #D4E0DE",
"T. c #DECAE5",
"R. c #D4D6E3",
"E. c #D1DAE7",
"W. c #C3D5F1",
"Q. c #D0DFF7",
"!. c #C5D2E7",
"~. c #E4D5E8",
"^. c #F3D2E3",
"/. c #FFDCF5",
"(. c #C4E3EB",
"). c #C5E3E7",
"_. c #DEE4E3",
"`. c #DCEEED",
"'. c #DEF3EE",
"]. c #C3E6F3",
"[. c #CCE7F6",
"{. c #C6E7FB",
"}. c #CAE2FB",
"|. c #C6EBFF",
" X c #CCEBFB",
".X c #D4EBF3",
"XX c #DBECF4",
"oX c #D1E6FB",
"OX c #D3ECFF",
"+X c #DDECF9",
"@X c #C4F2FD",
"#X c #CCF4FF",
"$X c #CCFAFF",
"%X c #CAF8FB",
"&X c #DEF4F5",
"*X c #D3F4FF",
"=X c #DBF5FB",
"-X c #D2FDFF",
";X c #DCFCFE",
":X c #D9F4F4",
">X c #E3E7E7",
",X c #E2E9E7",
"<X c #E4ECEA",
"1X c #EAEEEC",
"2X c #EAE2E9",
"3X c #F2E5EC",
"4X c #F1EBEC",
"5X c #E4F4EC",
"6X c #EBF2ED",
"7X c #ECF0E7",
"8X c #F3F3EE",
"9X c #E3EEF4",
"0X c #EDECF2",
"qX c #E4ECFF",
"wX c #ECEDFB",
"eX c #F0EFF3",
"rX c #F3EDFB",
"tX c #FFE1FD",
"yX c #E4F4F5",
"uX c #EDF4F2",
"iX c #E6FAF7",
"pX c #EDF9F5",
"aX c #E3F5FD",
"sX c #ECF5FD",
"dX c #E4FCFD",
"fX c #EBFCFD",
"gX c #F2F3F3",
"hX c #F9F4F4",
"jX c #F2F9F5",
"kX c #F4F5FD",
"lX c #FFF3FF",
"zX c #F3FCFC",
"xX c #FCFCFC",
/* pixels */
"6.s w w w 6.v.V.C.V.M.z.x.^ &.> w 5 k g p g a a a h a a 0.k 0.0.v.c.c.c.n.c.c.6.c.0.6.f 6.",
"4 w s s V.V.V.V.V.N.>.Z.A.$ Y > > q.7 z d d h f h s f d h d h a 6.6.4.6.q.c.c.v.6.7.6.6.w ",
"c.v.b.V.V.v.v.N.q.G.=.( S.n n ! ;.5.q.v.c.v.v.v.v.c.c.v.c.c.0.6.4.w #.s w w w w w w w #.s ",
"V.b.v.v.v.v.v.q.G.s.y.dX'.G v (.$Xj.:.C.b.b.V.V.b.b.b.b.b.b.b.b.c.6.c.c.6.6.6.6.c.v.v.b.b.",
"V.v.V.V.V.v.b.N.j.y.oXE.I.rXF ] dX@X^ C.m.C.V.b.b.b.b.b.b.b.b.b.V.v.v.V.v.v.v.v.b.V.V.V.V.",
"v.v.v.v.v.v.v.t.k.. I.R.U lXlXqXaX;X` ^ C.m.m.V.n.n.z c.c.c.c.c.V.v.V.V.v.b.v.b.v.v.v.V.V.",
"f 6.6.f 6.4.6.5.A   R.lXU.U.sXkXiX&X%X^ / > e #.a d s h s s d f 6.v.v.b.b.v.v.v.V.V.v.c.v.",
"d s s s s w y  .N c qXxX>XU.fXyXpX'.;XD.x.m.m.n.h h h g g a s d f s f 6.v.v.v.v.v.c.f s s ",
"0 p q s 4.| 4.u.D c R.xXiXaXdXaXpX'.dXS.A.N.N.v.V.c.0.k g a a k f g j j a g a g a a h a g ",
"p p d s 8 6 * O v X b [.-X(.).&XpXiXfXS.F.m.v.v.v.c.s t t a h a g g g g j j k g h h h h g ",
"x x x 6.q.q.<.% n n n W ( B u.=XdXiXfX].E 4 8 h , , < t a t t 7 t t t t g g h h t y i 5 - ",
"z z z c.q.4.9.r.3.+.j.=.;.! f.=XdX&XfX].R 4 y h a a a a a t < , r , r r t t 7 r h 8.8.5 - ",
"c.z 0.0.6.8.q.q.e.1.5.:.E =.a.=XdXaXsX|.} 9.8.0.0.c.0.0.k 0.0.0.0.0.h 0.0.0.0.0.8.8.8.8.y ",
"0.0.0.6.6.h 8.8.8.9.4.%.o.Y ].fXaXaXsXK. .9.8.8.0.0.0.0.k k k k k k 0.k 0.k k 0.8.q.q.0.8.",
"f h 6.f f 0.6.6.8.q.6.$.A.W .XyXaXaXdXl.} 8.h h g u t a k h k h k k k k k k z k k k 0.0.k ",
"f 6.f h k k f k h v.7.M./ ' pXsXqXaXaXu.K | 2.8.8.5.4.s 4.<.s s 0.k l l j j j k h f h h a ",
"f f f f z z d d k y 8 -.! (.yX<XkXfX}.) j.*.$.T -.=.o.o. .}  .$.q.8 q k l l l j j k j k k ",
"z n.z z s d 9 7 5 <.5.@.a.-XpX<XsXaXi.( ( _ _ J. XOX*X*X#XJ.Z.;.*.-.V.q z l l z k k f j j ",
"x z z f f d 7 s 2.[ Z A [.fXsXiXdXS.G ) W.;X;XaXkXfXdXdXdXdX;X;XJ.>.%.c.z z z z k k k k k ",
"x z z c.c.6.8.9. .O S oXfXsX1XfX:X] ).:XdX&XaX9XyXyXiXiXdXiXiX=X;XJ.T 7.f d j j k k k g f ",
"d x c.v.q.4.q. .X.+ G H ~.rX3XuX&X;XdXiXyXuXuXuX6XuX6X5X6X7X6XuXzX;Xd.E 6.h u u g a f f d ",
"z x s w 4.<. .Z A Q.wXT.U P I _.pX5X5XpXuXgX8X8X8X6X6X8XgXhXhXjXkXfX-XF.7.0.h h k k k k k ",
"9 9 1 2 2 K ; Z A I T././.^.3X1XpX6X7X8X8X8X8X6X5X5X5X6X1X1X4X4XhXkXdXZ.{ y h h h f f f 9 ",
"a f f 6.3.3.L Q.!.H I P ^.lX3XhX7X8X6X7X7X4X8X7X5X5X5X6X8XgXhXhXhXzXdXB * 2 t i t 7 9 9 q ",
"j k f 7.} y.W.qXsXeX2X~.3X3XeXgX6X6X6X6X5X6X6XuX5X5X<X6XuXgXgXgXhX8XfX) E 3 , , q s f z d ",
"k k k 7.E l.qXrXkXhXhXgXuXgXgXgXjXgXuXuXgXgXuXuX5X6X6X5XuXuXpX6X8XjX&Xn Y } 8.h h f k f d ",
"k 0.4.-.y.OXrXrXgXgXhXgXgXgXgXgXgXuXgXgXuXuXjXjXjX_._.pXpXuXuX8X8X1XfX;Xs.-.| f 6.k k k z ",
"k h 5.=.|.aXkXrX0X4XgXgXgXgXuXuX6X1X<X1X1X5X<X6XjXP.P.jX6XuXpX6XxX6XfXaX#XH.t.7.6.f k k j ",
"q #.} s.*XqXwXlX0XeXgXeXgXgXgXgX1XzX1X>X_.,X,X,X,XpXzXgXjXjX6X6X6XuX9X.X-X$XF.{ q.h q < 0 ",
"w #.;.K.OXsXkXgXgXgX8XgXgXgXgXgX1XzXgXjXuX<X,X,X<X_.,X6X6XuXjXjXhXgXiX&Xh._ ` ^ 7.f s a 1 ",
"n.&.;.{.+XkXkX0X8XgXgXgXjXgXgXgXuX1XU.Y.1XuXuXuX6X,X,X<XY.,X<X<X>X>X`.'..XM m Y #.k c.k d ",
"e &.=.W.aXrXgXgXgXgXuX8XpXgXgXgXuX6X_.gX5XuXuXpXjXzXgX<X6X6X<X,X5X6XsXfXpX;X).` *.%.7.x z ",
"%.F.p.[.9XuXeXgXzXgXyX5XzX5XuXzX6XfXjXzX5XuXpX5XyXfX9XuXpX5X1XpXpX5XpXiX5XiXiX;X$XL.z.%.n.",
"M.Q p.].XXyXuXuX9XsXfXfX;XiXiXyX&XaX:X&X&XiXiXaXzXzXzXsX9X:X`.5X`.jXpXU.Y.sXzX&X;X-Xz.%.n.",
"%.E Q K. X.XaX=XdX{.( Y ( #X;X*X;X-Xm o S.$X-X;Xu.N u.OX;XaXdXaXfXzXzXuXyXjXzXaX-XL.{ 4 c.",
"4 %.E s. X X#X-Xs.T C >.:.-.k.@XG.Z # $ * ,.;.O.L V = X.@X-X-X#X.X:XdXfXfXaXaXdX%Xt.8 8.k ",
"e #.{ * k.$XH.} * 3 8 2 8 <.4. .9.#.5.N.4.#.4.5.r.r.3.L ; 3.w.o.S ^ L.-X-X-X@XZ.K ; y k g ",
"e f 7.$. .O.-.3 6 y 7 , k 7 5 <.s s a 7 8.8.f 8.2.2.2.9.2.6 6 { R R } } M.,.E * & 5 t j g ",
"x c.n.#.3 6 N.q.q.8.h j k v.0.h a - - < 7 7 a t 8.i i h y y 8 2 2 4 8 8 2 2 3 8 8 h a g c.",
"x z f w 2 q.6.h t , < g j g 8.q.g a a 0.z k k c.0.0.0.u v.t 7 s k f a h c.h h 0.0.h c.k j ",
"z z z n.s w w s s s s s s s h 6.k k 6.0.k z k k k k k k f h f h c.c.c.0.c.0.0.0.0.k k k k ",
"w s s d d s s f 0.0.c.0.f f f h s f s a h f s j f g k g k j k f j h j f k 0.z z k k k k k ",
"d f f f 6.f k f 6.f 6.k 0.6.6.k f f f f d f j f f j f k f k k k k k z 0.z 0.k k k k k k k ",
"z n.f z c.n.c.z 0.v.v.0.c.0.0.0.0.k k 0.0.k k 0.k k k k k g f s s a a a k k k f k k k h k ",
"6.z 6.z 0.c.v.b.b.b.b.b.v.c.0.0.k 0.k k k c.0.z k 0.k k k k k k k k k k k j k h k f j k k "
};
