/* XPM */
static char *rokes[] = {
/* columns rows colors chars-per-pixel */
"40 40 101 2 ",
"   c #080E20",
".  c #181E30",
"X  c #1C2334",
"o  c #252B3D",
"O  c #292F42",
"+  c #2D3345",
"@  c #2F3548",
"#  c #303347",
"$  c #303649",
"%  c #353B4C",
"&  c #383F51",
"*  c #3C4354",
"=  c #3F4658",
"-  c #3D4859",
";  c #424759",
":  c #444B5D",
">  c #494F5F",
",  c #494F61",
"<  c #465161",
"1  c #4C5365",
"2  c #505666",
"3  c #515669",
"4  c #555B6D",
"5  c #585E6E",
"6  c #565F70",
"7  c #595E71",
"8  c #5D6375",
"9  c #61677A",
"0  c #646B7C",
"q  c #686F7F",
"w  c #676D80",
"e  c #686E81",
"r  c #6C7284",
"t  c #6F7588",
"y  c #707787",
"u  c #737987",
"i  c #707689",
"p  c #747B8C",
"a  c #797F8F",
"s  c #777D90",
"d  c #797F91",
"f  c #7C8294",
"g  c #7E8698",
"h  c #7E8899",
"j  c #818797",
"k  c #818895",
"l  c #818799",
"z  c #848A9C",
"x  c #898E9F",
"c  c #868FA0",
"v  c #898EA1",
"b  c #8790A1",
"n  c #8C92A4",
"m  c #8E97A8",
"M  c #9097A6",
"N  c #9196A9",
"B  c #959BAD",
"V  c #989DAE",
"C  c #969FB0",
"Z  c #989EB1",
"A  c #99A0AE",
"S  c #9CA3B4",
"D  c #9FA7B9",
"F  c #A1A6B7",
"G  c #A1A7BA",
"H  c #A4ABBC",
"J  c #A8ADBF",
"K  c #ABB1BF",
"L  c #A7ADC0",
"P  c #A8AEC1",
"I  c #ACB2C4",
"U  c #AFB6C8",
"Y  c #AEB9CA",
"T  c #B0B6C7",
"R  c #B2B8C6",
"E  c #B0B7C9",
"W  c #B4BBCC",
"Q  c #B9BFCF",
"!  c #B7BED0",
"~  c #B9BFD1",
"^  c #B7C1D2",
"/  c #BCC2D4",
"(  c #BEC6D8",
")  c #BFC8D9",
"_  c #C0C6D6",
"`  c #C2C9D6",
"'  c #C1C7D9",
"]  c #C4CADC",
"[  c #C9CFDF",
"{  c #C9D0DD",
"}  c #C6CFE0",
"|  c #C9CEE0",
" . c #C7D0E1",
".. c #CCD2E4",
"X. c #CFD8EA",
"o. c #D0D6E6",
"O. c #D2D9E7",
"+. c #D1D7E9",
"@. c #D4DAEC",
"#. c #D8DFEF",
"$. c #DAE0F3",
/* pixels */
"H | I ' T ~ ~ T Y ^ h P ( } ^ Y e Y ( ! ~ ( | L i L W ~ ~ | P s H / K / A K ` n ",
"J N ' ~ T ~ ~ E ] L 6 h D ^ ^ m i ( ! ^ ! ( ' U t U ..~ ' ' ' z W R / B n x A k ",
"V l T I P ~ ~ I L h < L D L ) L w X.^ ( E ~ ~ ~ s B ! W W N T d J K K x A n M q ",
"l J v S G I I G ! h - h C Y ^ i 6 X.} X.~ | ( +.v P | G F N ] 0 S ` k M M z n q ",
"7 N V N N N d n w - O w v v d = % C n Z U P Z Z 9 e 9 2 2 5 M 0 o q 5 q q 5 2 ; ",
"# i l s 3 # e 9 w s h C G G Z v i s @ 1 t d n Z f , $ + ; ; 9 q 0 f k > q M A f ",
"N | +...I l / / (  ...! ] ] / | ) S 8 Y ..} ~ ! +.T B 2 M V M M ` K ` x M O.^ q ",
"G ~ W / ] W Z ] ( L ( } U ( U E  .B 6 ! Y Y W E N G R 9 J n A W ` ^ R ` F R A 2 ",
"U U | | $.L m ( Y ! I Y E P N I W W 9 P L ! U ] G Z H d S H R ~ W @./ W K / F 2 ",
"N U | ~ L L h ] ^ ! D m F n v P T ] 9 Z U ! W W ~ H Z e / ~ Q Q { / [ F A ` K 5 ",
"d W ' G L C 8 h w t w w w = ; e d n 9 Z W W W Z I W S e I R R W Q W #.q k { ` 0 ",
"w Z W ~ L f t G L Y Y ! N 9 w l d w i L ~ W W v N U l o 5 q z B A / R % f / K q ",
"w G C ) ! h C X.( ) | +.| l f ~ ' W P P E H Z d j m a 0 z B x 1 5 n k 0 M M q 2 ",
"i Z C ! Y s Y ^ ] ~ E I ~ s 3 v D ] P l | H v Z N v d S / ] ` n M Q ` O.O.{ / f ",
", h Z P m 6 ( ~ ! ! Y U | N ; v B ] P 8 B p 7 r r 8 4 J W / / M K ` ` K K K { A ",
"& 6 i h i < Y ..] ~ W U | G ; B W ( W ; 3 8 f f s 7 o f K K I M K { ` ^ ` R Q J ",
"G ( ( E G e P | | | ] ~ ( G w Z | E G N ~ ~ ~ ( | E d n L Z ' d H o.{ { ] ^ ` K ",
"P ( P G n , G P ! ~ ] ] | Z , G | ( l v @.W I U ! ~ N Z U L L w F o.` / @.` ` ^ ",
"^ ! P S w . t w w 7 i e w , , ! ~ ( d v | E +.$.| | Z Z ~ ! G 7 4 q 5 q k f 0 5 ",
"} P ( P i 3 Z P U : w Z G z w # % 7 4 4 v t l e e w & 7 v n t # X . > M V H A 0 ",
"U ( ^ W s i | ' ( s G +.| ] ~ d L L E I } U E B , l v Z P B n w q 5 a ] R ^ ` H ",
"s } ~ ( s w +.~ ~ v U ! +.' ] N ~ E | W ~ P ~ W t ' ..+.| } ~ L o.K f R Q H I K ",
"d ..U W d w ~ ~ P n ! U | ( ] l d d d t 7 w v v t ~ U N P ~ ! W / A 4 H _ K H V ",
"w i w s e w , w 1 3 P ] ..W ' t 9 Z Z P ~ E B 4 d W B d c G G P [ A 4 R S x A z ",
"O Z | U ] ~ / ] @.s Z ( ~ ! ~ i U / ] / | | ~ i , v t , $ % * & 1 2 * n k M z q ",
"e U / L U ~ ~ E | d d L ( ~ E l / ] / U ~ ~ ! s s W I U U t X 1 9 q 2 f a q q # ",
"Z ! U U E / ( E @.v d N U ( U s / ] / U ! ! ' v P @.| +.@.G t | ] ..` ` o./ { k ",
"B G P ( W I I E G w v G Z ( G e U ( ] / W ' | N v | ! ! N Z N ] R W / K Q Q ..M ",
"d Z F G Z P P Z z : d Z G / n w | ] ] | ] U ( n 7 G P ] ~ v G ~ K / W R Q W / n ",
"% , , 9 e s s e w % 1 d n s ; # ] W ! ] +.' ' d w G G ! U n U U R W R / I Q ~ Z ",
"d n N G U ! W U U W P Z w o . O w 3 7 w t w i , % d l N z d I I / R W ^ Q ` ( Z ",
"B ~ ~ ~ ' ~ ~ ' ( ] ] P e d Z v z G G l e w G U G G G U 3 w U I _ Q / W / W W l ",
"3 Q W ~ ^ Q Q T F K K / u R ( / | ! U } P Z ] ( ~ ~ ~ ~ G t m Z G L ~ P L D L 9 ",
"9 _ _ Q / / H H S M H ` x S I ^ L Z Z T v d ! ! ~ W U U L s Z N Z Z U E L n v 9 ",
"q J H B k k q u f n F H Z S Q S n v f v 9 3 v v Z N N Z v % e G N v z d d e 9 , ",
"* 0 u r q f a 4 2 8 8 f 5 @ 1 ; 3 9 7 7 , ; 9 w w i t 9 3 & @ ; 8 e w 7 t 7 ;   ",
"o T ....W Q o.{ O.A 2 n L S g , i U P G W ~ ' | | | ' ' ~ | i 4 ~ ] ' ~ ..| ! l ",
"; [ R J ] Q K W ` ` z W ^ ..| E e ~ ' U ] / / / I L P W W ..s e ' W I P E P ~ P ",
"u [ K H / / R ^ Q Q x [ ] / / o.r G P Z B v l l d p d l Z ~ N e ~ P ! ( ~ I ! Z ",
"M F R Q R / / R W ^ x I / [ / ~ 7 i d d s g a q ; O @ 7 p 7 w 1 W L ~ ( ~ ~ | B "
};
