/* XPM */
static char *sswan[] = {
/* columns rows colors chars-per-pixel */
"40 40 233 2 ",
"   c #4A666C",
".  c #728A9B",
"X  c #7C9FA7",
"o  c #6E9CB6",
"O  c #7295BE",
"+  c #778BAB",
"@  c #69A7BE",
"#  c #78AEC7",
"$  c #7BBCCF",
"%  c #7DB4D2",
"&  c #78B9D3",
"*  c #6FB1D8",
"=  c #6FBFE2",
"-  c #7BC2DD",
";  c #7DC8DA",
":  c #65C6DA",
">  c #60C4E2",
",  c #6EC5EC",
"<  c #6CCBED",
"1  c #6CC5E4",
"2  c #76C5E1",
"3  c #7AC3E7",
"4  c #7DCCE3",
"5  c #75C7E9",
"6  c #7DC7EA",
"7  c #75CCED",
"8  c #7BCDEC",
"9  c #77CCE6",
"0  c #6CD2EC",
"q  c #72D3E6",
"w  c #7BD3E6",
"e  c #75D1EC",
"r  c #7AD2EC",
"t  c #7CDBEB",
"y  c #78DAEB",
"u  c #6DCBF2",
"i  c #6ACBFB",
"p  c #69C7FA",
"a  c #72CCF2",
"s  c #7CCDF2",
"d  c #6DD5F2",
"f  c #6ED1FF",
"g  c #74D3F4",
"h  c #7BD4F4",
"j  c #74DBF6",
"k  c #7BDAF5",
"l  c #75D3FB",
"z  c #7AD6FB",
"x  c #75DCF9",
"c  c #7CDBFC",
"v  c #6CE1F7",
"b  c #73E2FA",
"n  c #7DE2FD",
"m  c #8099A3",
"M  c #82A0B6",
"N  c #9AADB9",
"B  c #A4AFBE",
"V  c #9DADC9",
"C  c #89B7C5",
"Z  c #8BBDCE",
"A  c #96BBCD",
"S  c #85AAD1",
"D  c #89BAD0",
"F  c #93B6D3",
"G  c #9FBADA",
"H  c #B8B8C6",
"J  c #A4BDD9",
"K  c #B9BCD4",
"L  c #83B5E0",
"P  c #CCBDD2",
"I  c #D5BFD4",
"U  c #8DC3D5",
"Y  c #81C6DF",
"T  c #8CC6DC",
"R  c #8DCCDF",
"E  c #84C6D7",
"W  c #93C5D4",
"Q  c #96CAD9",
"!  c #A0C8CF",
"~  c #A5CBDC",
"^  c #B9C6D7",
"/  c #A5D5DD",
"(  c #ADD7DF",
")  c #B5D6DB",
"_  c #8DCCE3",
"`  c #83C6E9",
"'  c #83CDEC",
"]  c #8BCDEB",
"[  c #89C6E6",
"{  c #94C6E4",
"}  c #92CEE3",
"|  c #9BCDE2",
" . c #90CDEA",
".. c #9AC6E8",
"X. c #84D2ED",
"o. c #8CD2EB",
"O. c #84DCEE",
"+. c #8ADCED",
"@. c #91D3E5",
"#. c #9CD1E6",
"$. c #9ED9E7",
"%. c #93D4EC",
"&. c #9BD3ED",
"*. c #97D9EE",
"=. c #9BDAEC",
"-. c #82CEF1",
";. c #8ACCF2",
":. c #89C7F0",
">. c #96CEF4",
",. c #82D4F4",
"<. c #8BD4F4",
"1. c #83DAF6",
"2. c #8BDBF4",
"3. c #83D6FA",
"4. c #8BD5F9",
"5. c #83DCFC",
"6. c #8ADBFB",
"7. c #93D3F2",
"8. c #9ED5F2",
"9. c #96DAF3",
"0. c #99D6FF",
"q. c #93DCFD",
"w. c #9BDDFD",
"e. c #97D7F5",
"r. c #A5CBE4",
"t. c #A9D4E4",
"y. c #ADD9E3",
"u. c #A7D6E8",
"i. c #B1DBE4",
"p. c #B9DBEB",
"a. c #BAD6E6",
"s. c #A3DCF2",
"d. c #A9DDF9",
"f. c #B7DEF7",
"g. c #82E2F3",
"h. c #83E3FD",
"j. c #8CE4FE",
"k. c #84E9FC",
"l. c #8AEAFD",
"z. c #9CE2F6",
"x. c #92E5FF",
"c. c #9AE5FD",
"v. c #94EAFF",
"b. c #9BECFF",
"n. c #91E3F0",
"m. c #BBE3ED",
"M. c #B9E1E6",
"N. c #ACE3F5",
"B. c #A4E8FF",
"V. c #A3E2FA",
"C. c #B3E4F3",
"Z. c #B2E3FC",
"A. c #B5EBFF",
"S. c #BBEAFE",
"D. c #BAF5FF",
"F. c #BCFBFF",
"G. c #B4F0FC",
"H. c #C5CCCE",
"J. c #DAC7D5",
"K. c #D7DBDC",
"L. c #D9DBDD",
"P. c #CAD5D6",
"I. c #D6EADF",
"U. c #E6E2DF",
"Y. c #D6CCE2",
"T. c #DFD0E8",
"R. c #E5CEE2",
"E. c #EBDDEC",
"W. c #E1DBEA",
"Q. c #F1DDE8",
"!. c #CCE2ED",
"~. c #CCEAEB",
"^. c #DAE9E7",
"/. c #D4EBEB",
"(. c #DBE3E7",
"). c #DEF2E7",
"_. c #C3E3F6",
"`. c #C4EAF6",
"'. c #C8EBFD",
"]. c #C1EBFF",
"[. c #D4E2F3",
"{. c #D2EFF5",
"}. c #D4EAFF",
"|. c #DEEAFA",
" X c #C2F2FF",
".X c #C9F5FF",
"XX c #CCFBFD",
"oX c #C3FAFF",
"OX c #D7F7F6",
"+X c #DBF3F3",
"@X c #DBF4FE",
"#X c #D3FEFF",
"$X c #DBFBFE",
"%X c #D6F4F7",
"&X c #E7E7E7",
"*X c #E4E5E9",
"=X c #E4EBEC",
"-X c #EBECEC",
";X c #E9E7E9",
":X c #F4E6EB",
">X c #F3EEEC",
",X c #FBEEEB",
"<X c #FBE2EF",
"1X c #EAF4E7",
"2X c #EDF4ED",
"3X c #E7F9EC",
"4X c #E7F4E9",
"5X c #F2F2EC",
"6X c #FAF1EF",
"7X c #E2EDF5",
"8X c #EBEDF2",
"9X c #E4ECFB",
"0X c #EDEFFE",
"qX c #F3EDF4",
"wX c #FEEBF2",
"eX c #F1EEFC",
"rX c #FDEDFD",
"tX c #FFE5F4",
"yX c #E5F2F4",
"uX c #ECF3F3",
"iX c #E1FCF5",
"pX c #ECF9F5",
"aX c #E3F3FC",
"sX c #ECF4FB",
"dX c #E4FDFF",
"fX c #EBFDFE",
"gX c #F3F2F3",
"hX c #FBF2F5",
"jX c #F2F8F4",
"kX c #F3F3FB",
"lX c #FCF3FE",
"zX c #F3FCFD",
"xX c #FEFEFF",
/* pixels */
"2.1.4 9 1.6.x.j.6.c.B.0.0.:.<.z j x c s ,.s l j c c c c n c 5.5.5.6.4.6.6.6.<.1.",
"8 r j.x.x.x.x.x.n.B.s...S [ o.2.y 0 7 1.3.z z x x k z k c c c c 5.5.h.6.5.1.h h ",
"v.x.j.j.x.v.v.c.N.t.'.~ M r.t.V.b.j.j.b.x.j.j.k.h.h.g.g.t t k k h y h h k k 5.k.",
"b.v.v.v.x.x.v.c.i.a.aX[.B N dXt.9.x.x.6.j.j.l.l.k.k.l.k.k.l.k.k.j.k.j.j.k.j.j.j.",
"j.x.x.j.j.x.x.*.X (.H (.xXH.zXdXN.w.c.v.v.l.l.g.k.l.l.l.l.l.l.v.j.x.x.x.x.x.x.6.",
"6.j.6.2.,.1.2._   K.;XJ.:XqX8XfXS.8.*.+.O.t w t t y k k h.k.l.l.v.v.x.x.x.x.c.x.",
",.X.r ,.8 ,.r E X -XeXJ.E.lX8XfX$Xu.7.2.O.t t w e g j g j c h.k.j.x.j.j.h.6.c 1.",
"r r e r 8 ' 6 % . |.kXlX0X*XzXsXfXC.8.b.v.l.l.j.z z l l g g l z h c k k g k k g ",
"r h e h 6.' * O + V }.}.P.@X8X-XzX_.s.b.h.c s a f f l f l g l g l x l l x c c g ",
"6.6.1.6.4.' S S S F G r.F !.yXzXaXa.T 8 h a , , p i i i u u 0 < d d g g d a < > ",
"4.<.1.h ,.4.q.w.w.o.7.[ t.@XsXzXfXC.] h c l k l l l l l l d g d h h h h z c r , ",
"q.q.q.6.1.h h e 1.r +.@.~ {.yXyX$Xs.o.5.c n n 5.5.5.3.5.5.5.n c 5.5.1.1.1.5.1.h ",
"4.4.4.5.1.z x v b n O.R / $XsXaX#X%.' X.h h y q <.4.,.,.z c z c c 1.1.k 5.6.5.6.",
"3.4.4.3.1.x x v v y n.Q M.iXfXfX X%.;.,.3.3.1.X.o.7.<.2.3.c x x c 5.5.5.k h k z ",
"c c 1.1.z z j v b y @./ %XdXaXdXZ.] 7.4.4.;.4 ; @. ._ X.,.k c x x z z z z z z c ",
"b n 5.1.3.k x j k +.U p.aXsX7X$Xt.{ r.>.d.Z.D.oX.X].N.s.o.O.k c c c n c c c c c ",
"b b b k k g l s - D f.@X7XsXjX!.! ( `.#XdXdXdXdXfXfXfXdX.X$.4 j.5.5.c c c 5.c c ",
"n h.b b c g 4.;.o V [.9X0XeX9X^ $X$XdXfXfXsXsX0XeXeXqXuXdX#XE X.l z z z c c c c ",
"c k b j g r ;...J K P Y.E.qXxX-XzXsXsXyXsXkXkXqXrXrXrXgXzXfXS._ z z z z c c c c ",
"s 7 0 0 : X.# G |.kXR.I J.Q.xX-XkXgXgX8XqXqXqXqX<X:X:X:XgXdXdXA.4.5.5.c c c c c ",
"s s 7 q w $ r.^ H P R.rXwXwXhX5X5XgX>X>X>X-XjXgX,X,X,X,XqXxXdX| 7 a a a u u u i ",
"3.3.1.,.Y i.@X9XT.R.J.tXwX,X5X5X>X,X>X>X;X1X2XjXjX5X,X,X-XyXfXQ 3 , , u u g l z ",
"5.4.2.9.U _.aX0XlXrX<XrX,X5X1X1X5X>X>X5X1X1X3X3X2X2X5X5XjXzXfXA ' l l l l z c 5.",
"5.3.7.#._.dXaX8XlXlXwXrXgX5X2X2X5X>XU.1XzX2X).I.uX2X2X2X5XpXsX#X&.6.5.5.5.c c c ",
"c 4._ i.}.aXaXsXkXqXgXgXgXgXgXuX8X*X8X=X8XjXP.H.uX2XjX5XuXuXpXfX$XG.o.x.k n n n ",
"3.<.| M.OXyXyXsXgXqXqXgXkXkXgXuXeXxX8X=X9X(.8XsXuXuX2XuXuXuXuXsX$X$X=.w h.x 0 > ",
"o.*./ ~.2X-XgXgX5X5X5X5X5X5XgXgXxX&XgXgX-X&XL.&X-X-X-X-X-XqXgXsX) W _ X.h j d d ",
"o.=.( /.2X5XgXgXgX5X5XgXgXgX5XgXK.&XuXjXuX=XxX&X&X&X-X;X-X8XgXuX#Xi.U @.9.h.c c ",
"z.R M./.2XgXU.-X2XyXuXjXzXyX).uXpXyXsXyXyX+XyXyXzXsXyX-X-XuXgXuXyXdX%Xm.C.z.4 1.",
"n._ ( ~.).gXgXzXfXdXdXfX@X%X@XfXdX$XdX$XdXfXfXfXfXpXuX3XjXsXuX^.^.+XdXOX#XD.z.2.",
"5.o.#.`./.yXzXaX$Xy.~ m..X#X#X#XC C #X#X#XS.W ( OXiX+X+XiXiXiX/./.sXiXfX#X$.' 1.",
"z 1.] S.'.}.$Xp.Z E } } =.F.D.R @ $ _ V.s.$ $ # / XX#X#XXX#X#X#X$X#XdX#XA._ s h ",
"u 7 '  . XS.[ - 2 2 2 2 9 ,.<.' x.q.,.,.<.4.4.<.& ` [ _ [ o.B.F.XXXXA. .* h 5.c ",
"j n 4.:.>.q.;.5.1.7 7 s h a 7 h s 8 s s h 3.3.-.3.3.5 1 9 s s -.e.] [ 3 * < l f ",
"d 5.3.= :.;.3.5.7 7 c j.j.3.5 , a a h h z 3.z h s s 9 5 5 7 8 8 ' ` 6 ,.s z c c ",
"k.h.3.;.:.4.4.1.1 k 1.g 5.5.5.k 3.5.5.5.3.5.3.5.5.5.h 7 c 1.5.6.;.;.4.6.1.5.c 5.",
"b n 1.1.s s ,.3.1.5.1.c h h h z k h h z z z k h 5.c n 5.h.5.5.5.5.4.5.4.h.5.h.n ",
"d j k k h 3.3.5.5.5.5.h.z c k z z k k g g g g g x z c c c c n c 5.5.5.c 5.n O.n ",
"x n k.n 5.5.j.j.j.j.l.j.5.c c c c c c z c z x x k x c z c x z c c c c z g e q q ",
"j n b g h.k.x.x.j.l.l.l.c 1.n 5.c h.c h.n c h.n n c n n j x x z z l c c c g.n g."
};
