/* XPM */
static char *swan_nr[] = {
/* columns rows colors chars-per-pixel */
"40 40 100 2 ",
"   c #CB737F",
".  c #D27781",
"X  c #D37A82",
"o  c #A5868B",
"O  c #BF868A",
"+  c #A78890",
"@  c #CE9398",
"#  c #CF999E",
"$  c #E88F98",
"%  c #DF96A6",
"&  c #D59CA7",
"*  c #D396B4",
"=  c #DD9CB6",
"-  c #E49AA7",
";  c #E69CAB",
":  c #EA9CA9",
">  c #D9ABB5",
",  c #EEA6B5",
"<  c #EDA8B6",
"1  c #E2A4B9",
"2  c #ECA6B8",
"3  c #E7ADBD",
"4  c #ECACBB",
"5  c #F0A6B5",
"6  c #F0A6B8",
"7  c #ECB1BE",
"8  c #D5A6C2",
"9  c #DDADC8",
"0  c #DCB1C7",
"q  c #DBB9C1",
"w  c #DFB2CA",
"e  c #DABECC",
"r  c #E3ACC1",
"t  c #E5B5C3",
"y  c #EBB4C2",
"u  c #E6BCC7",
"i  c #EDB9C5",
"p  c #E2B7CA",
"a  c #E4BBCB",
"s  c #EBBECB",
"d  c #F1BECB",
"f  c #E2BED1",
"g  c #C7CCD0",
"h  c #DFCFD7",
"j  c #C8D2D5",
"k  c #D3D2D5",
"l  c #DAD0D5",
"z  c #D7D5DA",
"x  c #DEDDDD",
"c  c #E3C2C6",
"v  c #EDC0C7",
"b  c #E5C2C9",
"n  c #ECC2CC",
"m  c #E5C9CE",
"M  c #F1C3CE",
"N  c #E0C4D6",
"B  c #EEC7D0",
"V  c #E3CCD3",
"C  c #ECCCD4",
"Z  c #E2CCDA",
"A  c #F1C7D0",
"S  c #F0CBD4",
"D  c #E4D1D6",
"F  c #ECD0D5",
"G  c #E5D3DB",
"H  c #EDD3DC",
"J  c #E3DADC",
"K  c #EED8DD",
"L  c #F2D0D7",
"P  c #F1D4DB",
"I  c #F2D8DE",
"U  c #E6E1DD",
"Y  c #DEDFE0",
"T  c #E7D5E0",
"R  c #ECD4E2",
"E  c #E2DEE1",
"W  c #EEDCE2",
"Q  c #EFDEE8",
"!  c #F3DCE2",
"~  c #DEE6E4",
"^  c #DFE8E5",
"/  c #E4E4E5",
"(  c #EAE3E5",
")  c #E0E8E7",
"_  c #E2E4E8",
"`  c #EEE4EA",
"'  c #E4EAE9",
"]  c #ECEDED",
"[  c #F3E1E5",
"{  c #F3E5EA",
"}  c #F2ECEE",
"|  c #EEF0EF",
" . c #F0F1EF",
".. c #EDEFF0",
"X. c #F3EDF1",
"o. c #EFF1F1",
"O. c #F1F1F2",
"+. c #F8F2F4",
"@. c #F9F7F9",
"#. c #FAF9FA",
/* pixels */
"5 5 6 5 5 5 5 5 5 5 5 5 , , 5 5 , , 5 5 5 5 5 , 5 5 , 6 5 5 5 5 5 5 5 , 5 5 5 5 ",
"5 5 5 5 5 5 5 < 5 5 5 5 , > 2 , , , 5 5 5 5 5 5 5 5 5 5 5 5 5 5 5 5 5 5 5 5 , , ",
"5 , 5 5 5 5 5 5 < 5 4 C e @ 3 s , 5 5 , , 5 5 5 5 5 6 5 5 5 5 5 5 5 5 5 , , , , ",
"5 5 6 6 5 < 5 5 5 < F ] h @ > O.i 5 5 5 5 5 5 5 5 6 6 5 5 < 5 6 5 5 5 5 , , , 2 ",
"5 5 5 5 5 , 5 5 , > x g E G z O.{ 7 5 5 5 5 5 5 < 5 5 5 5 5 5 5 5 5 5 , , , < , ",
"5 6 , 5 5 5 5 5 , o k g J O.| | O.S 5 5 5 5 5 5 5 5 5 5 5 5 5 5 5 , 5 , , 1 < < ",
"5 5 5 5 5 5 5 5 , o J ] C (  . .+.[ 4 5 5 5 5 5 5 < 5 5 6 5 5 5 5 5 , , , ; ; 4 ",
"5 5 5 5 5 5 5 5 : O U  .! } ]  .O.O.i 5 5 5 5 5 5 5 5 5 5 5 5 < , , , , , , < < ",
"5 6 5 < 5 , , , $   c  .| ] (  .O.O.d 5 5 5 , 5 5 5 5 5 5 5 5 5 5 5 5 , , : < < ",
"5 5 5 5 , 5 , -     & F J l (  .O.O.M 5 5 5 5 5 5 5 5 5 5 5 5 5 5 5 5 , < < < < ",
"5 5 5 5 5 5 < , - : < , 4 7 (  .O.@.A 5 5 5 5 5 5 5 < 5 5 5 5 5 5 5 5 5 , , , < ",
"5 5 5 5 5 , , 5 , 5 5 < < 7 (  . .+.v , 5 , 5 5 5 5 5 5 5 5 5 4 , 5 5 , , , < < ",
"5 5 5 5 5 5 5 5 5 5 5 5 , u ` |  .O.d 5 5 5 5 5 5 5 5 5 5 5 5 5 5 5 5 , < , 5 5 ",
"< 5 5 5 < 5 5 < 5 5 5 5 6 m ] ] O.O.i 5 5 5 5 5 5 5 5 5 5 5 < 5 5 5 , 5 5 , 5 5 ",
"5 5 5 5 5 5 5 5 , 5 5 5 7 J ] | o.` t 2 5 < , , 5 5 5 < 5 5 5 5 5 , 5 5 5 , 5 5 ",
"5 6 5 5 5 5 5 5 , 5 5 , u (  .} O.S , 5 5 , , , , < 5 5 5 5 5 5 5 5 , 5 5 , 5 5 ",
", 5 5 5 5 5 5 5 , 5 5 4 D ] ..o.X.i , , 4 i A L L L S i 4 5 5 5 , 5 5 , 5 5 5 5 ",
"5 5 5 5 5 5 , , 5 5 , c ( ....X.! 4 y S { @.#.#.#.#.@.@.{ M 6 5 , 5 5 , 5 , 5 , ",
"5 5 5 5 , 5 5 5 , = 9 G ]  .X...C S } @.+.O.O.O.O.O.O.O.@.+.n 5 5 5 5 5 , 5 , , ",
"5 5 5 5 , 5 5 5 , * 8 Z { } X...` +.O.O.| O.O.O.O. .O.X.O.#.[ 7 5 5 5 5 5 5 5 5 ",
"5 5 5 5 5 5 , , r Z Z 0 9 f W @.O.O.O.o.O.o.O.] | |  .o.O.@.@.[ 7 5 5 5 5 5 5 5 ",
"5 5 , , , 5 5 1 8 Z ` Q R W ` O.o.X.] ] ] ] ' ] ] ] ] | } O.@.O.i 5 5 5 5 5 5 5 ",
"5 5 5 5 , 5 6 V N 9 p f X.O.O.] ..' ] ] ] ....o.o.o.| | o.O.#.{ 4 5 5 5 , , 5 5 ",
"5 5 5 , 5 4 n E ..Q R T } O.} ] ] ] ] ] ] ' ] ' ] ] | o.o.O.+.[ 4 5 , 5 , 5 5 5 ",
"5 , 5 5 5 u J | O.O.O.X. .| ] O.O.] ] ....o.o.o.| ] ] ] ..O.#.! 4 5 5 5 5 5 , 5 ",
"5 , 5 5 4 D ] | o.o.O. .o.O.O. .| ] o...O.o.o.o...o.o.O.O.O.@.O.P y 6 5 , 5 5 5 ",
"5 , 5 , c / ] O.|  .X.O.O.O.| ] ' / ~ ) ' ..o.] ' o.O.o.O.O.X.O.O.! 3 , 5 5 5 5 ",
"5 , 5 4 D ' o.O.O.o. . .|  .| | | ] ] ' ~ ~ ' o.o...X.o.}  .O.O.X.} b 4 5 5 , , ",
", 5 , t J ( o.O.o.O.o.O. .o.o.O.o.o.O.o.| ^ ~ ^ ^ ' | | | | ' o.( C i , 5 5 , 5 ",
"5 5 , b x ] O.o.O.O.O.|  .O.O. .] ~ O.o.o.| ' ' ^ ~ ~ ^ ^ ^ ' ] } L 7 , , < 5 5 ",
"5 5 , b x ] O.o.o.O.} O.o.O.O.o.o.....O.O.O.O.o.| ' ' ] ' ] o.O. . .! B i 7 , 2 ",
"5 5 , b x ] | O.O.O.o.O.O.O.o.o.O.O.+.O.o.O.O.O.O.O.o.o.o.X.O.o.] | |  .{ K t 3 ",
"5 , , u x / ] O.O.O.} { +.O.O.O.+.! { @.O.+.+.{ +.O. .] O.O.O.o.Y ....O.o.` y 3 ",
"5 , , 7 x Y ] X.} L i 7 d { @.+.! 4 y ! } [ M 7 M } O.+.O.O.O.O...o.X.o.O.H 4 < ",
"5 5 , 4 m ~ / [ n , 5 5 , 7 S S 7 5 , 4 7 4 5 5 , n [ { H H { O.O...o...P y 5 5 ",
", 5 , , 7 Z V y 5 5 5 , , , , 5 5 5 5 3 y i i 7 4 4 4 4 , , y L } } W n 4 5 5 5 ",
", 5 5 , , a 7 , 5 , 3 y s s t y 3 3 t a s s s s N s y 2 5 5 5 4 y y 4 , y r 5 5 ",
", 5 5 5 3 t 5 5 5 3 p y y 7 t p p t 3 4 , , , , 4 3 p t , 5 5 , , , , 5 6 4 5 5 ",
"5 5 5 , 5 6 5 5 5 3 2 , 5 5 5 5 , 5 , , , , 5 5 , , , 4 , , , 6 5 5 5 , 5 5 5 5 ",
", 5 5 , 5 6 5 5 , 4 , , 5 5 5 5 5 5 , , 5 , , , 5 , 5 5 , , 5 5 5 5 5 5 5 5 5 5 "
};
