/* XPM */
static char *hit[] = {
/* columns rows colors chars-per-pixel */
"45 45 215 2 ",
"   c #3B1609",
".  c #451C0C",
"X  c #4A1E0D",
"o  c #4D210E",
"O  c #52220F",
"+  c #4E2211",
"@  c #4E2B19",
"#  c #542411",
"$  c #5A2713",
"%  c #542915",
"&  c #5C2914",
"*  c #542D1A",
"=  c #5B2E19",
"-  c #5D321D",
";  c #632C16",
":  c #692F16",
">  c #652E19",
",  c #6A2F19",
"<  c #6A3017",
"1  c #62341C",
"2  c #6D3119",
"3  c #6C391E",
"4  c #673017",
"5  c #73341B",
"6  c #7A371C",
"7  c #7C381D",
"8  c #5B3522",
"9  c #583724",
"0  c #643B23",
"q  c #6B3D24",
"w  c #683F29",
"e  c #5C422E",
"r  c #5D4633",
"t  c #6A442A",
"y  c #654A33",
"u  c #6B4B34",
"i  c #6B4E3A",
"p  c #664632",
"a  c #754F35",
"s  c #6B5039",
"d  c #7B5435",
"f  c #735339",
"g  c #79553B",
"h  c #7C5A3B",
"j  c #755136",
"k  c #59564F",
"l  c #6B5C4C",
"z  c #775A42",
"x  c #645D52",
"c  c #7B6148",
"v  c #796C5B",
"b  c #646259",
"n  c #596A6B",
"m  c #7A776A",
"M  c #6C7673",
"N  c #747C75",
"B  c #6A706A",
"V  c #823A1E",
"C  c #883D1E",
"Z  c #843B20",
"A  c #835C3A",
"S  c #82512F",
"D  c #87623D",
"F  c #956A3F",
"G  c #835F42",
"H  c #836244",
"J  c #8C6443",
"K  c #83694F",
"L  c #896A49",
"P  c #936E4C",
"I  c #966C47",
"U  c #9C734C",
"Y  c #9A7349",
"T  c #866C52",
"R  c #906E50",
"E  c #8C7358",
"W  c #9B7653",
"Q  c #997857",
"!  c #8E714F",
"~  c #A2764C",
"^  c #A3794C",
"/  c #AA7E51",
"(  c #A37D54",
")  c #8D7C64",
"_  c #9F7F60",
"`  c #78827C",
"'  c #B0804E",
"]  c #AA8154",
"[  c #A7845D",
"{  c #B28353",
"}  c #BD8D52",
"|  c #B48B5B",
" . c #B78A59",
".. c #BB955D",
"X. c #AF814E",
"o. c #9C8969",
"O. c #878576",
"+. c #908C79",
"@. c #AD8D69",
"#. c #A88866",
"$. c #AA956C",
"%. c #BA9263",
"&. c #BB956C",
"*. c #B59766",
"=. c #AC9976",
"-. c #BC9974",
";. c #B38E66",
":. c #C5924F",
">. c #C99653",
",. c #C89859",
"<. c #D49D54",
"1. c #C28E4F",
"2. c #D7A157",
"3. c #C49A6C",
"4. c #CB9E6A",
"5. c #C39766",
"6. c #C39D72",
"7. c #C99E70",
"8. c #CDA26B",
"9. c #CBA264",
"0. c #D3A66A",
"q. c #D8AA6A",
"w. c #CBA473",
"e. c #CBA679",
"r. c #CCAA7B",
"t. c #D2A571",
"y. c #DCAE73",
"u. c #D3AC79",
"i. c #DFB27B",
"p. c #E3B57B",
"a. c #E5B97E",
"s. c #E2B475",
"d. c #5E7D86",
"f. c #6C7F81",
"g. c #59818F",
"h. c #6E8385",
"j. c #748B8B",
"k. c #6E939B",
"l. c #739298",
"z. c #6998A7",
"x. c #729AA3",
"c. c #789EA7",
"v. c #68A2B8",
"b. c #76A8B7",
"n. c #7FB2BC",
"m. c #76A0A9",
"M. c #5FA5C5",
"N. c #68ACC8",
"B. c #74B2C5",
"V. c #7AB3C3",
"C. c #76B6CC",
"Z. c #69B6D5",
"A. c #74BAD3",
"S. c #7ABED4",
"D. c #70B1C8",
"F. c #5FB7E3",
"G. c #64BCE7",
"H. c #70BFE0",
"J. c #7BC3DC",
"K. c #74C3DD",
"L. c #65C1EF",
"P. c #6CC6ED",
"I. c #6CC6EA",
"U. c #7AC6E1",
"Y. c #71CBEC",
"T. c #7CCDEA",
"R. c #76C8E3",
"E. c #66CCFD",
"W. c #6ACDFC",
"Q. c #69C8F3",
"!. c #74CFF2",
"~. c #6ED2FD",
"^. c #72D2F5",
"/. c #7DD6F6",
"(. c #72D4FC",
"). c #74D9FE",
"_. c #7CDBFC",
"`. c #79D6FA",
"'. c #7ED0EB",
"]. c #979888",
"[. c #869B97",
"{. c #949F95",
"}. c #8C9084",
"|. c #A69E85",
" X c #9DA291",
".X c #9EAA9A",
"XX c #9FA18D",
"oX c #A3A392",
"OX c #ADA992",
"+X c #839EA1",
"@X c #8AA9AA",
"#X c #94AEAB",
"$X c #86B2B9",
"%X c #89B0B6",
"&X c #A4B9AF",
"*X c #C8A881",
"=X c #CDB187",
"-X c #D8B686",
";X c #D2AD80",
":X c #E5BB83",
">X c #E9BC82",
",X c #E2BA85",
"<X c #F2C385",
"1X c #81BACB",
"2X c #94CDD8",
"3X c #8ACCDD",
"4X c #8AD8EE",
"5X c #82DDFD",
"6X c #8CD9F0",
"7X c #91D1E1",
"8X c #8AE2FD",
"9X c #87E0FB",
"0X c #93E6FD",
"qX c #98E7FC",
"wX c #93E8FF",
/* pixels */
"0X&Xa.=X3X_._._.5X8X0XqXqXqXqX0X0XqXqX0X0X0X9X5X_._.).).)._._.9X8XqXwXqXqXwX0X2X=X-X-X2X0X",
"_.@X<X=XK.).).).(.(._.5X8X0X0XqX0X0X0X5X5X).).(.~.).~.).).).).).).9X8XqX0X0XwX3Xe.<X-X7X0X",
"v.O.w.@.x.'.^.Q.H.H.!.(.).5X3XK.T.`.^.Y.K.A.R.^.^.Q.Q.Z.Z.Y.Q.Y.Q.I.C.J.4X6X4X+XQ w.=.C.I.",
"e.@.@.Q E OX.X X].m  X#X%X@X}.v }.[.{.XX|.) +.]. X XoX=.v }.oX X X|.o.m XX].|.$.z z z ) +.",
"6.#.H W ! a.a.u.;.K 3.3.3.3.3.E 8.i.>Xa.p.( %.:X<X>Xy.9.c [ y.a.s.0. .H 0.y.8. .h p G 3.8.",
"P G f G f ( ^ ^ R i I J G I P f | / I Y ] U ] { U U U X.d ] F D d h h a D d u d G J H K ! ",
"c.B h u * 8 - 0 0 * * & = = 8 @ 9 - % % * 8 8 * * * % * @ = = % # % % * # & # % u } ) M.v.",
"5XB.&.I % & & & & & = ; , , ; = ; ; 4 4 : & & ; < < 4 ; ; 4 5 5 5 5 ; & ; ; ; $ 0 <.$.!._.",
"5X1X-X%.& ; & & ; & < 5 7 6 6 6 6 7 6 V V 2 6 V V 7 7 7 6 V 7 6 7 6 6 5 5 2 4 ; 0 } #.T._.",
"5X1Xu.5.= ; 2 5 5 5 6 6 6 6 7 7 Z 6 Z Z V V V V C V V V 7 6 5 6 5 5 2 5 5 , 4 ; u #.o.J.5X",
"5X$Xw.%.1 5 5 5 5 6 6 2 2 2 , 2 , 2 2 5 2 6 6 V V V V V V 6 6 5 5 , , 2 : : ; ; 9 f r D.5X",
"_.z.K K q 5 5 5 5 5 6 6 6 7 7 7 6 6 5 5 5 5 6 6 5 6 5 5 2 2 2 2 5 2 2 4 , 2 5 2 9 h i D.9X",
"~.n p p % : 4 > ; ; ; > 4 2 2 , , ; & $ ; $ $ $ # # # # O O O o O o o o o O $ $ t X.Q S.).",
"(.j.J J + X X X . o X X X o X # o o o o X X . . X X X X o X X X X X o o o o X X t >.*.A.).",
"_.[.^ J = 4 4 4 4 4 > > ; ; ; & $ $ ; ; : : , 5 2 5 5 5 5 5 5 5 5 5 5 5 2 5 5 2 t >.*.K._.",
"5X#Xt.U 2 5 5 5 5 5 5 5 6 7 7 7 Z Z Z Z C C C Z Z Z V Z Z 7 Z 7 5 5 5 2 2 4 ; & 4 >.*.T.5X",
"5X%Xs.( # & ; & ; ; , , 5 6 7 V Z 6 6 V V 6 V Z Z Z Z V V V V 6 7 7 6 6 6 5 5 5 3 :.$.T.5X",
"5X$Xp.X.4 2 2 5 5 6 7 7 6 7 V 7 5 5 6 6 6 5 , , Z Z V V V V 6 V 7 7 7 6 6 6 6 5 2 :.$.T.5X",
").n.s.^ & 2 5 5 5 6 6 6 7 7 7 6 6 V , , 6 6 5 , 6 Z V V 6 6 5 5 5 2 2 2 , , , > - :.$.T._.",
"_.n.y.^ 4 5 5 6 5 6 6 7 7 7 7 7 V V 5 , , $ $ , V Z V 6 5 6 6 5 5 5 5 2 4 : ; ; - } $.Y.).",
"9Xn.y./ & 4 4 4 : : 2 5 6 7 7 V V V V 5 , , , , 6 Z Z Z V V V 6 7 7 5 5 5 5 5 < t ,.[ K._.",
"(.b.q.] + O # $ & ; : 6 6 6 V 7 V V V Z V V Z Z Z Z Z 6 , , , ; & ; & & & $ # O @ f k A.5X",
"W.m.q.| 1 5 5 5 2 , , 5 2 5 5 5 , 5 5 5 5 6 5 6 6 6 6 5 , , > $ & & & & $ = & % e y l R.(.",
"^.c.e.#.= & $ # # O # X o o o o O O + # + # # # # + # # + + X . . . .   . . . o d } o.Q.E.",
"/.M f p + o X X X X X . . X . X . .     . . . . . . . X + X + # $ $ ; ; ; & & # S <.=.P.).",
"`.O.~ D = 2 2 5 5 6 5 5 5 5 6 5 6 , O $ 2 2 ; 5 6 6 6 6 6 V 6 Z 7 6 6 5 6 5 5 5 S 2.=.T.5X",
"5X[.0.~ ; 5 2 5 < < < 5 6 7 7 6 7 7 6 V Z Z Z 6 , , , , 2 6 6 6 6 6 5 5 < ; $ # t 2.=.4X5X",
"_.$Xq.' + # + # O $ & ; 5 7 6 7 7 6 6 6 5 , , , > , , 5 5 6 6 2 < < ; ; ; & $ # 3 <.*.T.5X",
"9XV.q.{ = > 4 2 5 5 5 6 6 6 6 6 6 6 5 5 5 5 5 , 6 , $ > 6 6 2 5 5 5 5 5 < < 4 ; - >.*.U.5X",
").B.0. .% 4 4 4 < < < < 2 6 6 6 7 7 7 6 6 6 2 , 5 2 > , 2 & $ $ < 5 6 < < 4 4 4 3 >.*.J.5X",
").D.9.,.* $ ; > ; : : 2 5 6 6 6 7 6 7 6 6 5 2 > & & ; , & = , 2 5 5 5 5 5 < 2 2 3 >.9.K.).",
"_.C.9.,.* # & ; 5 5 6 6 5 6 6 6 7 7 6 6 6 6 V 6 6 , $ $ ; 2 6 6 2 : ; ; & & $ # - :...C.(.",
"_.V.9.,.0 3 2 2 5 5 6 5 6 6 6 6 7 7 6 6 6 6 6 7 7 7 5 5 5 5 6 5 5 5 5 2 2 3 < : t ,.;.n.).",
"9Xn.9.,.- 4 < < < < < < < 2 < < 2 2 , 5 2 2 < ; 4 ; ; & & & $ # $ # O O O o o o @ L i v.9X",
"_.c.| } * O o o o o o o X X X X o X X o X X X X . o o o X X X O O $ # $ # $ $ & * e e b._.",
"wXl.r 9 % 2 < 4 < < 4 4 < : < < , , , , 2 2 2 5 2 5 5 2 5 5 5 5 2 2 2 4 4 & # # + D L b.9X",
"wXc.e y - ; 2 5 5 2 5 5 5 6 5 5 5 5 2 , , , , ; ; & $ # # # O o o o X X X + + # # F } %XwX",
"_.B.] ] - 4 2 2 < 5 2 5 2 2 : & $ $ & $ $ O O # # # $ # # # $ & % & % % $ & % # @ D } [.9X",
").Z...} 0 - = = 1 - - & # % = * p 0 & ; = p p u t t 0 0 f u a a j j G i j - * 9 y h J b v.",
"l.` ] d ! *.E [ $.c @.R ! #.w.E e.7.#.#.6.6.E &.&.r.;X;Xw.E r.,X,X-Xr.Q e.r.e.u.@.y d H $.",
"u.| Y ^ P w.4.w.%.G 7.>Xp.t.3.H 5.0.7.3.5. .a W W o.[ #.%.H { / U ^ { L ] 4.w.,.U y h h I ",
" .{ h Y U P T E T y | ( ) m N x v M f.h.f.M b x.D.Z.M.z.f.k f.k.x.l.N x O.j.j.` l j d e x ",
"l c H a ! x.A.J.B.f.z.N.G.G.G.F.F.G.E.E.W.Q.G.E.E.E.E.E.E.G.E.E.E.W.L.Z.I.^.(.^.g.c X.v N.",
"A.b.! } v T.5X5X5X5X_._.`.).(.~.~.W.W.Q.W.W.~.~.~.~.(.~.W.W.W.W.E.E.E.E.E.E.E.W.N.| >.E K.",
"5XU.Q ,.o.T.5X_.5X5X5X5X5X5X5X5X`.5X5X5X`.4X5X5X5X5X5X5X_._.`.`.`.`.^.~.~.(.(.).n.| U c J."
};
