/* XPM */
static char *water[] = {
/* columns rows colors chars-per-pixel */
"40 40 28 1 ",
"  c #6CCAEE",
". c #72CDED",
"X c #74D1EE",
"o c #78D4EC",
"O c #6AC6F3",
"+ c #6DCCF4",
"@ c #6FCCF8",
"# c #71CDF5",
"$ c #72CEF9",
"% c #6FD0F1",
"& c #75D3F5",
"* c #7AD5F5",
"= c #7CD9F6",
"- c #75D4FA",
"; c #79D6FB",
": c #77D8FB",
"> c #7DDBFD",
", c #7FE0FE",
"< c #81D7F4",
"1 c #83DBF5",
"2 c #88DAF7",
"3 c #82DCFB",
"4 c #89DEFB",
"5 c #84E2FE",
"6 c #8BE4FE",
"7 c #8CEAFF",
"8 c #91E6FF",
"9 c #92EAFF",
/* pixels */
"1123231422111111o==o>=>>>>>>3>>3333>;33;",
"313<<<<<<<1111111155>,5333,5>33;>3333333",
"1233221412111111151===,,3:3>333333333<23",
"2322988899991117o=o=oooo****3;333333<33;",
"88866888779966555115557555,&<=**=o=&<*==",
"9999999977766666797777777777445567666676",
"8668666766666675977766166577676779769677",
"<3333<331,5156777551ooooooo==26677777766",
"&&*#**#oX*35,,1=55516521X:;;;;;;53533>*&",
"****&X...X&X555577976753:------$;->;;;;;",
">3<;:**&&&XXXXX&=****X..$#$$$$$$$&$---;:",
"3333>5,,5,&&&&&&&&&#**&#######$$#----:=>",
"333>3>>>>>,,,,,,>>>>335333333>>>>:>:>>>>",
":::;:>:>,::::%-%&&-&:;-::;::3>>>>>3>>>>>",
";:::>>>>:,::>>,>---%:::::*=*:=:>:>>>>:;:",
"353>>>>>,:,,>>:,:,>>,>,>5335>>:>*:;;>>;>",
">>>>::::&-%-,>>>,,:,>>,>::::3>,,3,533>>3",
">>>::>>:--:::::::::>,>>,,>3>>>>::>::>333",
"5,3>>5,,>,,>;:;;::>>>55>>3>>;;>;:>::>>>>",
"&&+  +  :;::3>>>>>>>>>>>;;;;;-;;>333;;;;",
"&&%%+++ +   ;:-:,>3>:>=:OOOO@@@@$@$@####",
",,,,,3,5:;;-#$#&++ +    $$$$@@@@##$#-;;;",
",>::3>>>>>>>>>>3>>>3>>5>>:::;:**:;::335>",
"55>>;;>>>>>>>>>>:>::>>>>5555>>>>>>>3>3,,",
"**<1234212112<<*=&oo:o=&;:::3>>>>>:>>:>>",
"<222448488644313,,,,::::;;::::>:>:>:>>==",
"244488886661<<<=====5,,,5555=,>>,==>>=,=",
"4444888899996676757556,76555555655,,,,,,",
"44323333337697765555,=Xo,,:,775777777777",
"><;<**&*.**=5,>>,==,,::XX:=:,::,35,5>>>>",
"--&&#&#&.#-::>>>,,,,77,,:&::&&X::&::&&-&",
"33*;*;-*   ++@-:&:XXX%% %%++::::--::-%-$",
"333>>33>3;;3$$$$-&--@%#@%@@@@OO+-----;>-",
"3;<;<>>3;3333>33>>;:>>>>>,,,>>>>::;;>>>>",
"33<<<3<3333;&*$-*&==:;::>:>>3>3>>33>3>33",
"3<<<<*3=<<<3<;3<====&&*&:*&*;;>3>>3>3;;;",
"<2<23476667743*<11=13<11====3**<<<1<3;<<",
"133488996667665212515666655231<133122231",
"4446689999999666266666968997868646444866",
"668621111111667666681211<111446646668886"
};
