/* XPM */
static char *_b61f797f67247de9e85f00d5fe8dd60[] = {
/* columns rows colors chars-per-pixel */
"32 32 227 2 ",
"   c None",
".  c #041D2A",
"X  c #0B1D2C",
"o  c #0B1B2A",
"O  c #101C2A",
"+  c #0A1C34",
"@  c #071C37",
"#  c #131F39",
"$  c #052128",
"%  c #0A2229",
"&  c #10202F",
"*  c #052536",
"=  c #0B2533",
"-  c #052B34",
";  c #052239",
":  c #0C243C",
">  c #072D3D",
",  c #0C2A3A",
"<  c #102332",
"1  c #16343E",
"2  c #052644",
"3  c #042A44",
"4  c #0C2C43",
"5  c #032A4C",
"6  c #0F2B4A",
"7  c #102D42",
"8  c #0A3245",
"9  c #06324B",
"0  c #0B324E",
"q  c #033747",
"w  c #022E52",
"e  c #0B2D52",
"r  c #043453",
"t  c #0B3455",
"y  c #03335C",
"u  c #0E375C",
"i  c #113651",
"p  c #133558",
"a  c #0D3C64",
"s  c #0B3B6B",
"d  c #0D455E",
"f  c #044C65",
"g  c #0D4D66",
"h  c #04456C",
"j  c #0C446C",
"k  c #054C6D",
"l  c #0B4B6C",
"z  c #14446A",
"x  c #114B6E",
"c  c #19496D",
"v  c #174368",
"b  c #05516A",
"n  c #074572",
"m  c #0D4674",
"M  c #034F75",
"N  c #0D4C74",
"B  c #094679",
"V  c #0C4B7B",
"C  c #054C78",
"Z  c #124671",
"A  c #134A75",
"S  c #14467B",
"D  c #134C7B",
"F  c #1D4D7B",
"G  c #0C5374",
"H  c #055179",
"J  c #0D547B",
"K  c #0D5C7A",
"L  c #0C5977",
"P  c #135473",
"I  c #13547C",
"U  c #1D547E",
"Y  c #125C7E",
"T  c #1A5B7C",
"R  c #165772",
"E  c #224A76",
"W  c #0E647D",
"Q  c #0D4C83",
"!  c #064787",
"~  c #124B82",
"^  c #0B5683",
"/  c #0C5B83",
"(  c #0D568A",
")  c #0E5A8B",
"_  c #065283",
"`  c #155583",
"'  c #145B84",
"]  c #1A5B83",
"[  c #14568A",
"{  c #1B558B",
"}  c #145B8B",
"|  c #1B5C8C",
" . c #1B5583",
".. c #155C91",
"X. c #1B5B93",
"o. c #1D5592",
"O. c #205E8D",
"+. c #215C86",
"@. c #225E94",
"#. c #0F6284",
"$. c #126384",
"%. c #13628B",
"&. c #1A638D",
"*. c #136292",
"=. c #1C6395",
"-. c #1D649B",
";. c #1D6D92",
":. c #21648E",
">. c #29688D",
",. c #216494",
"<. c #266B95",
"1. c #2C6C92",
"2. c #246E9D",
"3. c #2D6E9B",
"4. c #27679C",
"5. c #306393",
"6. c #366B9A",
"7. c #25729D",
"8. c #2B729A",
"9. c #2A769A",
"0. c #3B7399",
"q. c #357498",
"w. c #1E6BA4",
"e. c #1A61A5",
"r. c #2366A2",
"t. c #226BA3",
"y. c #246DAB",
"u. c #286DA8",
"i. c #316FA0",
"p. c #2475A4",
"a. c #2A74A5",
"s. c #2C7BA3",
"d. c #2B73AE",
"f. c #2C7BAD",
"g. c #2773AF",
"h. c #327BA5",
"j. c #3476AC",
"k. c #337DAA",
"l. c #3A77A9",
"z. c #2B72B5",
"x. c #2D7AB4",
"c. c #2B7AB7",
"v. c #337CB6",
"b. c #327CBC",
"n. c #397BB5",
"m. c #457DB8",
"M. c #3A8F94",
"N. c #3D9293",
"B. c #3F84AC",
"V. c #3F89A8",
"C. c #3888AA",
"Z. c #3D90A1",
"A. c #3582B5",
"S. c #3B84B4",
"D. c #3C8CB4",
"F. c #3C84BB",
"G. c #3A8BBE",
"H. c #3585B8",
"J. c #3E91B0",
"K. c #469787",
"L. c #4C8E9E",
"P. c #479598",
"I. c #4BA092",
"U. c #4489A9",
"Y. c #4594A4",
"T. c #4C99AA",
"R. c #4895A7",
"E. c #539BAC",
"W. c #4486B5",
"Q. c #4B8DB7",
"!. c #4385BC",
"~. c #418CBC",
"^. c #4D80B9",
"/. c #4693B4",
"(. c #4C97B4",
"). c #4C99B5",
"_. c #4594BB",
"`. c #4A95BB",
"'. c #4D99BB",
"]. c #4699B1",
"[. c #569BB8",
"{. c #53A1B2",
"}. c #56A2BA",
"|. c #5AA4B7",
" X c #63ABA3",
".X c #61ABBB",
"XX c #68A8BF",
"oX c #2F84C4",
"OX c #3B8CC5",
"+X c #3D8BCA",
"@X c #368AC7",
"#X c #3190CE",
"$X c #3A94C8",
"%X c #428CC4",
"&X c #448BCD",
"*X c #4187C3",
"=X c #4491C3",
"-X c #4B93C2",
";X c #4395CC",
":X c #4C93CB",
">X c #4398CA",
",X c #4898CD",
"<X c #539CC4",
"1X c #539ECB",
"2X c #5495C7",
"3X c #4F9DD2",
"4X c #4895D4",
"5X c #549DD4",
"6X c #5A9ED4",
"7X c #5A9DDC",
"8X c #609FC8",
"9X c #54A4C5",
"0X c #55A2CC",
"qX c #58A1CA",
"wX c #5CAACB",
"eX c #58A9C5",
"rX c #54A4D5",
"tX c #5AA5D5",
"yX c #5CAAD3",
"uX c #54A3D9",
"iX c #57ACD9",
"pX c #63ACC4",
"aX c #62ACCB",
"sX c #61A6C5",
"dX c #62ADD4",
"fX c #63A7D7",
"gX c #60A8E2",
/* pixels */
"                    L.8X6X5XrX1XqXqXuXrX9XP.                    ",
"                   XXXQ.n.F.S.A.k.S.H.G._.|.                    ",
"                T.E.U.3.| ' } &.:.' *.f.s.h.U.[.                ",
"              (.aXq.| O.I N J I N J ^ ) ^ } u.!.<X              ",
"          (.<XQ.U.>.` I N P P h n J M M ) ) =.a.A.1X|.          ",
"        U.:X6XW.I ] ] N j j j D D i.<.M _ ( } ^ 2.%X5XsX        ",
"        0X-Xj.,.` Y R P P A U 5.l.m.!.F.a.%.%.#.$.;.A.:X2X      ",
"    Z.;XuX~.{ { ' J b f A 5.6.F S S O.S.S.A.p./ W K d.&X7XpX    ",
"    Z.>XtX-XX.X.[ ^ k h m s a w w r q g ,.~.H.*.%./ y.4X6X.X    ",
"    Y.=X=XS.{ @.-.[ V N A y w 3 3 q q d ] j.OXOX7.%.y.F.-X{.    ",
"    eX-X=.| I 3.%Xr.V N Z r 9 8 8 4 9 z B ! e.+Xx...} %.s./.}..X",
"P.Y.aX-X| &.<.8.j...B j z 0 > - * 3 0 v S Q e.&Xd.[ ' / s.~.0XfX",
"_._.0X-X| 2.~.7.k k A s u 4 = $ . 7 7 0 r m [ r.4.} | ..A.OX1XqX",
"oX;XtX<X} -.=X7.f g Z y 5 : = & . = = 4 r x { 2.:.] } ( c.OXtXdX",
"#X>XyX<XX.y.%X7.N l c t 4 : + o < . . 7 t j I :.] ] } ..c.+X5XtX",
"#X$X9X`...y.OXp.C j c i 4 + + # X X X , e Z D h P T ' ..c.+XrXtX",
"#X>XwX).} w.@Xg.) V z i , . = + O O $ - t Z m m P T ] ( b.OX0XwX",
"@X>X0X).*.w.OXOXF.,.Z u 4 . + o X & $ - r j m m x R ] ..b.&X0X0X",
"OX;XrX-X=.=.f.S.D.7.V y 5 ; : + @ : * > r j ` =.&.T ` { z.&XrXiX",
"G.>XtX-X| } =.&.9.8.,.{ E p 7 : @ 6 4 i a m X.F.7.' ' | n.&XuXrX",
"D.`.dX`.} ` ' J H / 2.!.^.E * $ ; 4 t v j B -.=Xf.) } ' h.~.rXrX",
"M.T.wX-X,.@.] I J M H | @.s 4 1 4 3 0 z m Q -.G.f.) } } h./.9XeX",
"  K.'.:XF.j.] ] I L b f N y 3 2 6 3 9 R { t.a.a.&./ w.v.=XeXP.K.",
"    V.4XgX-X] T T P f f N y 5 e e 5 d >.h.~.h./ Y %.g.4X3XpX    ",
"    Y.;XyX/.Y T T N G N n A c t w z m ` Y Y Y Y ' ^ z.&X7X.X    ",
"    K.].9X_.8.] ] +. .n V 6.0.c z U  .D J J Y Y | -.v.:X[. X    ",
"        J.,X1XW.] ` { { A l U >.q.0.1.m Q [ &.) t.*X:X          ",
"        N.`.0X-Xj.4.o.~ N l N N k l I n Q ..=.t.v.1X[.          ",
"              `.fXl.{ [ ] P k L L k I | { [ -.%X<X              ",
"                T.).B.<.] ' ' $.$.' } 2.8.h.B.                  ",
"                  I.E.V.h.k.k.s.f.A.A.~.'.{.                    ",
"                      }.tX5X3XrXuXuX3X3X9X                      "
};
