/* XPM */
static char *heart1714232087[] = {
/* columns rows colors chars-per-pixel */
"30 25 204 2 ",
"   c None",
".  c #52032B",
"X  c #54032B",
"o  c #56032B",
"O  c #55032C",
"+  c #56032C",
"@  c #57032C",
"#  c #54042D",
"$  c #59042C",
"%  c #5D042C",
"&  c #5E042C",
"*  c #5F042D",
"=  c #560530",
"-  c #580531",
";  c #5B1036",
":  c #63042D",
">  c #64042D",
",  c #66042D",
"<  c #6B052E",
"1  c #6F052F",
"2  c #73052F",
"3  c #71062F",
"4  c #7B0630",
"5  c #780733",
"6  c #7F0631",
"7  c #790A32",
"8  c #660C41",
"9  c #7E0F49",
"0  c #840631",
"q  c #860631",
"w  c #860732",
"e  c #8B0732",
"r  c #8F0732",
"t  c #800B34",
"y  c #830C34",
"u  c #860C35",
"i  c #8E0B35",
"p  c #8A0D36",
"a  c #8B0D36",
"s  c #8C0F3E",
"d  c #910733",
"f  c #930733",
"g  c #910833",
"h  c #930A36",
"j  c #950834",
"k  c #900D37",
"l  c #960C37",
"z  c #9A0935",
"x  c #9C0935",
"c  c #9C0A35",
"v  c #960939",
"b  c #970F38",
"n  c #970C3A",
"m  c #9A1039",
"M  c #9F113A",
"N  c #A20B37",
"B  c #A30C37",
"V  c #A50C37",
"C  c #AA0D39",
"Z  c #AE0F3A",
"A  c #AF0F3A",
"S  c #AF113B",
"D  c #AB133C",
"F  c #B3123C",
"G  c #B9123D",
"H  c #9B0C40",
"J  c #B61243",
"K  c #B11348",
"L  c #A71455",
"P  c #AB175D",
"I  c #BE1A57",
"U  c #901C6B",
"Y  c #941F72",
"T  c #B41B60",
"R  c #B41D6D",
"E  c #9D227A",
"W  c #9D247F",
"Q  c #BA2176",
"!  c #BA2F78",
"~  c #C11441",
"^  c #C91641",
"/  c #DC1B45",
"(  c #DE1C46",
")  c #DF1C46",
"_  c #E01E4C",
"`  c #E01E4D",
"'  c #E11F4F",
"]  c #E0224B",
"[  c #E22054",
"{  c #E22155",
"}  c #E12D54",
"|  c #E22E55",
" . c #E3225B",
".. c #C32C7F",
"X. c #89546F",
"o. c #AD4465",
"O. c #AF4869",
"+. c #B14264",
"@. c #B04969",
"#. c #B14B6B",
"$. c #A8516F",
"%. c #BA4079",
"&. c #B35170",
"*. c #B55473",
"=. c #BA607C",
"-. c #BB627E",
";. c #E44265",
":. c #E45F7C",
">. c #E9607D",
",. c #A42787",
"<. c #A52788",
"1. c #A8288C",
"2. c #B62685",
"3. c #C02581",
"4. c #C22683",
"5. c #C22684",
"6. c #CA2887",
"7. c #C52889",
"8. c #C03382",
"9. c #C92B90",
"0. c #CC2D96",
"q. c #C93991",
"w. c #E8308D",
"e. c #EB3396",
"r. c #EC3499",
"t. c #EF3599",
"y. c #C330A0",
"u. c #DF39B5",
"i. c #F139A5",
"p. c #F33CB0",
"a. c #976880",
"s. c #A87594",
"d. c #DB5889",
"f. c #C95C95",
"g. c #E64B8B",
"h. c #EA5786",
"j. c #C2728B",
"k. c #C2738B",
"l. c #C3748D",
"z. c #C97991",
"x. c #CD7B9E",
"c. c #E67A92",
"v. c #F140A5",
"b. c #F053A0",
"n. c #F640BF",
"m. c #F549BB",
"M. c #F450B8",
"N. c #E277A1",
"B. c #E662BB",
"V. c #F344D0",
"C. c #F447DA",
"Z. c #E76EC8",
"A. c #F96ED2",
"S. c #FF4EED",
"D. c #FF4FED",
"F. c #FF5BEE",
"G. c #FF60EF",
"H. c #FF6CF0",
"J. c #FF70F0",
"K. c #AD879A",
"L. c #BC9DAD",
"P. c #CF96A9",
"I. c #D583B8",
"U. c #EF8EA3",
"Y. c #F194AE",
"T. c #F19DAF",
"R. c #CFA6BA",
"E. c #DCAFBE",
"W. c #F3A9B9",
"Q. c #F3ACBB",
"!. c #F3ACBC",
"~. c #F5AFC5",
"^. c #E2BCC8",
"/. c #FB80EE",
"(. c #FF83F2",
"). c #FD88F1",
"_. c #FF9AF5",
"`. c #FF9BF5",
"'. c #FFACF7",
"]. c #FFB3F7",
"[. c #FFB8F8",
"{. c #FFBBF8",
"}. c #FFBEF8",
"|. c #D7C4CD",
" X c #DDC7D5",
".X c #E9CDD6",
"XX c #E2D5DC",
"oX c #E3D5DC",
"OX c #EDD6DD",
"+X c #F9D2DA",
"@X c #F9D6DE",
"#X c #F4CDE7",
"$X c #FACFE3",
"%X c #FFCAFA",
"&X c #FFCDFA",
"*X c #FFCFFA",
"=X c #FFD2FA",
"-X c #FFD3FB",
";X c #FFD6FB",
":X c #FFD7FB",
">X c #FFDDFC",
",X c #FDE8F0",
"<X c #FFE3FC",
"1X c white",
/* pixels */
"                                                            ",
"                                                            ",
"                                                            ",
"                                                            ",
"            o.%.Q Q Q K             ! -.s.*.#.              ",
"            k.&XJ.S.S.i.6.J     k.x.].1X1X>Xf.              ",
"          #.^.1X&XJ.S.S.`.Y.l n '.1X1X1X;XZ.9.R             ",
"          -.1X1X1X-X[.[.s.a.h ~ ..U.1X@Xh.L 0.2.            ",
"        O..X1X1X{.-XK.X.; . d ) ^ ;.<XB.c f I c.*.          ",
"        &.1X1XW.M.}.$.& 4 o d ) } +X:Xu.f f G T.-.          ",
"        &.1XQ.| { ~.&.e > 0 d ] $X/. XE 0.S c.z.            ",
"          ..v._ ) Q.:.B d & @ ,XF.H.|.# s ) U.k.            ",
"            5.r._ W.:.V d j + S.G.oX. < 4 W 1.              ",
"            3.r._ p.%X+.n V.v S.G.oXX > t E <.              ",
"              q.b.m.%Xh.V.{ j S.G.OX0 1 A m                 ",
"              j.#X_.;XA.[ ) w S./.R.L C S .                 ",
"                2.I.E.g.' ) < ).L.8 y.T n                   ",
"                . i c 7.w.' j P.. + 9 <.                    ",
"                  p S c 3.e.5 2 $ k 2                       ",
"                    u F z C.- + M p                         ",
"                      t g U # D t                           ",
"                        : X t 7                             ",
"                          . &                               ",
"                                                            ",
"                                                            "
};
