/* XPM */
static const char *d2FsbF9QdXJwbGU_[] = {
/* columns rows colors chars-per-pixel */
"32 32 7 1 ",
"  c black",
". c #A293C4",
"X c #7B6AA5",
"o c #53427F",
"O c #3C2C68",
"+ c #431E66",
"@ c #3F1F3C",
/* pixels */
"                                ",
" ...X...X....X.  ...X...X....X. ",
" .ooOoooOooooO+  +ooOoooOooooO. ",
" XOOOOOOOOOOOO@  @OOOOOOOOOOOOX ",
" .OooooOooooOo+  +OooooOooooOo. ",
" .OooooOooooOo+  +OooooOooooOo. ",
" XOOOOOOOOOOOO@  @OOOOOOOOOOOOX ",
" .ooOoooOooooO+  +ooOoooOooooO. ",
" .ooOoooOooooO+  +ooOoooOooooO. ",
" XOOOOOOOOOOOO@  @OOOOOOOOOOOOX ",
" .OooooOooooOo+  +OooooOooooOo. ",
" .OooooOooooOo+  +OooooOooooOo. ",
" XOOOOOOOOOOOO@  @OOOOOOOOOOOOX ",
" .oOooooOooooO+  +oOooooOooooO. ",
" .+@++++@++++@.  .+@++++@++++@. ",
"                                ",
"                                ",
" .++@+++@++++@.  .++@+++@++++@. ",
" .ooOoooOooooO+  +ooOoooOooooO. ",
" XOOOOOOOOOOOO@  @OOOOOOOOOOOOX ",
" .OooooOooooOo+  +OooooOooooOo. ",
" .OooooOooooOo+  +OooooOooooOo. ",
" XOOOOOOOOOOOO@  @OOOOOOOOOOOOX ",
" .ooOoooOooooO+  +ooOoooOooooO. ",
" .ooOoooOooooO+  +ooOoooOooooO. ",
" XOOOOOOOOOOOO@  @OOOOOOOOOOOOX ",
" .OooooOooooOo+  +OooooOooooOo. ",
" .OooooOooooOo+  +OooooOooooOo. ",
" XOOOOOOOOOOOO@  @OOOOOOOOOOOOX ",
" .oOooooOooooO+  +oOooooOooooO. ",
" ..X....X....X.  ..X....X....X. ",
"                                "
};
