/* XPM */
static const char *black_wall[] = {
/* columns rows colors chars-per-pixel */
"50 50 112 2 ",
"   c #030301",
".  c #080705",
"X  c #0A0906",
"o  c #0D0C0A",
"O  c #100F0D",
"+  c #11110E",
"@  c #151412",
"#  c #181715",
"$  c #171813",
"%  c #1A1917",
"&  c #1D1C1A",
"*  c #201F1D",
"=  c #1F201B",
"-  c #22211E",
";  c #252422",
":  c #282725",
">  c #292926",
",  c #2D2C2A",
"<  c #302F2D",
"1  c #32312E",
"2  c #353432",
"3  c #383735",
"4  c #393936",
"5  c #3D3C3A",
"6  c #403F3D",
"7  c #42413E",
"8  c #454442",
"9  c #484745",
"0  c #474843",
"q  c #4A4946",
"w  c #4D4C4A",
"e  c #504F4D",
"r  c #4F504B",
"t  c #52514E",
"y  c #555452",
"u  c #585755",
"i  c #5A5956",
"p  c #5D5C5A",
"a  c #605F5D",
"s  c #62615E",
"d  c #656462",
"f  c #686764",
"g  c #696866",
"h  c #6A6967",
"j  c #6A6B66",
"k  c #6A6965",
"l  c #6C6B67",
"z  c #6A6966",
"x  c #6B6A68",
"c  c #6C6B69",
"v  c #6D6C68",
"b  c #6E6D69",
"n  c #6D6C6A",
"m  c #6F6E6A",
"M  c #6D6C6A",
"N  c #706F6D",
"B  c #71706C",
"V  c #72716D",
"C  c #71706E",
"Z  c #72716F",
"A  c #73726E",
"S  c #71706E",
"D  c #737270",
"F  c #747371",
"G  c #757470",
"H  c #767571",
"J  c #757671",
"K  c #757472",
"L  c #767573",
"P  c #777674",
"I  c #747372",
"U  c #787775",
"Y  c #787775",
"T  c #787974",
"R  c #7A7975",
"E  c #797876",
"W  c #7A7977",
"Q  c #797977",
"!  c #7C7B79",
"~  c #7E7D79",
"^  c #7D7C7A",
"/  c #7E7D7B",
"(  c #7C7C7A",
")  c #807F7B",
"_  c #807F7D",
"`  c #807F7D",
"'  c #81807E",
"]  c #82817F",
"[  c #83827E",
"{  c #81807E",
"}  c #838280",
"|  c #848381",
" . c #868581",
".. c #858482",
"X. c #878684",
"o. c #848482",
"O. c #888785",
"+. c #898886",
"@. c #8C8B89",
"#. c #8D8C88",
"$. c #8E8D89",
"%. c #8D8C8A",
"&. c #8F8E8C",
"*. c #8B8A88",
"=. c #908F8D",
"-. c #92918F",
";. c #939290",
":. c #949391",
">. c #959492",
",. c #949391",
"<. c #989795",
"1. c #9A9A98",
/* pixels */
"X     o , ; , & @ ; < @ @ w w - o 6 4 + 3 y d e - @ # : , @ 3 3 9 5 , p s p x - % , e q 5 4 2 y L g ",
"8 8 * o 5 4 , 1 : < < , 2 8 y d < # 7 f p e e 3 * 9 * X     t q @ , 7 7 y s y @ @ 3 6 5 5 1 1 5 y r ",
"& % 4 7 q w 5 & X # X X , q d X.L , 5 y 2 1 *   & w i : ; 8 p p & O -   o O   . @ ; @ > t i u 4 % $ ",
"8 , 2 9 P @.f 8 % & % X : q 7 5 5 < 3 5 5 8 o o 1 8 U 5 o & ; 9 8 - 8 y 8 >   > 2 3 4 q w y p 7 , - ",
"> # , w y L %.@.-.f p @   % X o   X & , 5 2 . 4 w 2 < ,     o   .   6 / d d 8 9 & o 4 w 3 w g c t 7 ",
": i 4 q W p 2 u F P =.7 o , %   @ & 4 w e 6 @ & & & 7 5     X o O X , g i / X.' ' ; @ : 8 g y , > $ ",
"@ q 7 u 9 > , 2 4 s d 1 ; y i 4 4 3 2 & * > : @ w 8 i 5 & 4 : 5 , # 5 d L | &.<.&./ a 7 2 2 7 a = o ",
"; 5 , t 1 , q - , 8 % & 5 q w 1 @ 4 7 > > @ % # - 4 o @ % % @ % o   4 7 P ! W ' ;.<.9 - 3 2 8 s i 0 ",
"8 u 8 4 - @ : X ; 2 ; 9 u w > . 3 , & ; - 4 D P 2 ; 1 w 5 4 6 g t 1 ; w 7 w p 2 > >   o X X # + 2 s ",
"1 y >   @ X   # # ; 8 3 7 1   + ; 3 1 7 g D g s 7 5 g p > e L s W x 2 * > , X X - d s 7 n w & X - 2 ",
"o X % & @ X X > : 2 2 > 2 X & t d ! / g g c d D 2 9 p :   1 C L i & X     o X & 1 8 g 8 4 i N i & o ",
"2 2 %   o X X ; 5 , % 1 1   & t d g >.%.g d s a & + ; o o & 4 4 & # # 2 e u , , 1 , @ # % 7 w p > @ ",
"9 7 % . o : 4 X     ; y q 5 ; 8 _ d W } ' O.C p > @ 9 4 X   &   - 3 2 w d  .p o ; ; % 5 &   o   4 7 ",
"< & 3 s 2 , y   o : e N y q : # w y y i c p 2 , . > y 1 o , y w 9 1 ; 2 % q N ,   % ; 3 6 @ - o - 4 ",
"2 8 i D t % + + @ e e p y 2 , &   - @ X @ @ + @ & w w , 2 y 5 < & #   X @ % ; q ,   @ , 1 y X.5 > = ",
"@ * t p 5 3 : X , t g y c 5 o ; @ : 2 q y p t . - 4 y e < 5 1 < &   . > 7 i w f P p 3 @   w / :.W 4 ",
"2 : 5 w s w 4 & o > < 4 d t - 1 4 & & , , ; & O X o & - + X @ % O 1 w t A ) f d t p W 5 o 1  .W i 5 ",
"c i q , # X + +   & % . : 5 1 7 3 , & . X , 2 +       . ; 6 3 @ , n u q d %.i s 0 C 5 w . , 2 3 t d ",
"y 5 - +   o - , @ ; ; X . X   % o & , 3 q d i 2 + # @ # 4 p 8 @ @ t e w t u 1 p t 7 q 0 - d f A i s ",
"5 - X & - 6 e s s 2 & & % o   # d N f 8 , 1 5 5 , 2 < & @ # & : . y v 7 d f y g s s L & - 1 5 y 0 1 ",
"+     2 5 8 8 y d t w 4 - @ o * t L C 5 # + o   3 7 w y 2 . & i y & q t 0 g %.w f A W l - o 7 +     ",
"> o + 5 t t q q 8 g D 7 - > ; % o # @ # 2 q 5 > # @ ; 6 2 X # p / q > 9 n s 7 s t L C ' a 2 1 , + , ",
"q & X o ; , 2 1 w q 2 + , i q : o X   # 8 p u t 5 > o . o   @ q t s 7 ; 5 7 & > t q i e 4 :   @ 2 7 ",
"@ o # @ & # * @ ; +   . > 3 * & @ 5 4 + o 2 u C g d 4 + X     + 5 8 q X + o +   + 8 & ; 1 8 * t u i ",
"@ 2 8 , 7 q : >       : 5 @   o 4 q 5 * o X ; w q p q . . ; 5 2 4 & & + & + o   X 1 7 6 8 4 1 p / g ",
"  % w a y p u 8 * : % @ O o & * i 9 7 & 2 y , > @ X o % w n _ L g s u ; . 4 1 5   ; s 8 - -   > i p ",
"o o - , @ & 8 4 p , # 4 e e q > % + ; ; 7 i 6 q , % 1 w a i f f w i n 5 ; s y i e   O &   @ X , O @ ",
"  @ + ; : > w p 4   + y y 5 5 , o @ X @ % % ; & 7 & , q a p f i q 3 w 1 4 8 7 6 5 * ; 4   - 7 > 2 4 ",
"- , & & + o 3 q + . - 5 ; & 3 > 4 p 9 ; # , u 8 3 X o : 4 4 8 2 5 & & : 3 - : - ; < y d ; 3 q   % : ",
"5 8 p y % o ; @ & + % 1 < , , @ 5 q q %   > 9 e w ; ; , 2 * ; ; . .   ; - ; 1 1 + & n d - > 8 w ; & ",
"5 8 i 7 ; 7 s d y 5 2 i d 3 ; : - O @ @ & 5 y p , % # # < 1 1 ; O + X - - 1 7 8 O @ 7 ; , q f s y 5 ",
"2 y y 2 w D n / *.t & 3 e -   O 2 u t y 4 1 s y q x n 3 : ; > & @ + 5 q p t 9 5 + .     &   9 g g i ",
"3 w 2 o % , 2 4 i x y > ; 2 : . ; < 5 2 ; % ; 4 U +._ *.t & & 2 , X 6 q n c f d p 3 , 4 q 4 q d t i ",
"> > @   X @ % ; % y g 2 & d W 4 % @ # % @ o % < / ! U / ' D 6 & >   - > t y y 8 y d p 7 p n n p @ @ ",
"- o   X @ # & , 8 ; ; , & + : 7 - ; 1 2 %     % 2 7 a t y w : & X   @ X @ # 7 t q C i ; 8 d n m q ; ",
"4 - o . X ; 8 u i D i 8 u 9 @   & .   X @ @ # & % o & @ %     .   o - & & O > , & 1 ; & y w 8 p 5 X ",
"2 3 , @ o 1 w w q p i p W p ; + O @ @ O .   X @ % X o - , # < 2 7 2 ; - 2 , &   ; & + : x p q p 4   ",
"% 5 7 % # 4 9 4 4 5 q 8 4 8 q 3   . @ , 8 e 8 2 % ; 4 u w 8 n d d t < # & & @ + 8 8 2 % 3 8 u s 8 ; ",
"- 8 2 X . : 4 5 , ; 1 3 ; : 2 ; o - 3 8 9 e s C q 1 8 p 8 u f 8 5 7 8 ; o X o 2 5 9 w - O % 2 > : 2 ",
"+ 2 , @ @ % @ % & - % % , 3 ; O 4 8 y p y q e p t % 1 q > y d u 4 1 2 @ X # # q i 9 w 4 ; ; 2 # X , ",
"+ # @ & & 7 5 > o q y ; X . @ > y 8 8 y p p d g 9 & q 6 1 y 8 4 5 9 , 2 5 2 +   * : : 5 & 8 i d D n ",
"; @     q y 2 ; y 1.q @ %   @ ; w q w y d C p 4 o . - @ * 4 - ; 2 , 7 } P m 4 :   o % ; ; 3 - 5 w 9 ",
"u -   X 5 %   o # > ; : 2 - o @ w w 2 , 7 3 : 2     & ; : 2 2 4 , * w :.C | w ; , % & X % 3 & : 4 3 ",
"9 %   2 q 5 % o ; # , , > ; + > ; 9 8 ; ; 9 y 8 2 o ; 4 O o , ; > o 6 L p C q 2 e o @ O     o   @ o ",
"o 9 2 3 2 q w ; ; 8 @ . % X & 8 3 2 q 4 % 4 y > > X @ < > q / n s O @ : ; & & t 1   % w w % 2 2 +   ",
"& p 4 # t w 4 . @ % > 8 y 5 3 i U L D L a > @ 2 , 1 @ X , d U x y 1 q i i ;   % . @ X < x y p t ; X ",
"  , 4 2 d 8 & , 2 & d C p w % ; 2 C _ W / 9 o % 5 q >   - 8 9 9 , 3 u d u 1 @   ; 5 @ X t c d 8 3 ; ",
"> & : ; - 2 o 4 : x W i w 8 &   & @ 5 s e 7 ,   2 , , @   o & > 8 8 w g 7 ; % O & ; - ; 8 p p t 2 ; ",
"% 5 9 f p > o . 5 g w 4 y : X o : % & & % 3 5 + % q , > > X # o 5 p w 5 1 1 + o @ o   + , 2 5 u 2 X ",
"# u W X.D 4 : % , q , , y & X # ; * 2 2 * < 5 ; & 4 # 2 a u e : X : % o # & X . 2 > + X @ o o - , . "
};
