/* XPM */
static const char *burroww1[] = {
/* columns rows colors chars-per-pixel */
"50 50 256 2 ",
"   c #1C0600",
".  c #140B00",
"X  c #1B0B00",
"o  c #150500",
"O  c #1B1303",
"+  c #151202",
"@  c #0D0B00",
"#  c #230500",
"$  c #230D01",
"%  c #2B0D01",
"&  c #2C0600",
"*  c #360E00",
"=  c #241203",
"-  c #2C1402",
";  c #241C01",
":  c #2B1A02",
">  c #2B1609",
",  c #2B1B0B",
"<  c #25170A",
"1  c #321401",
"2  c #3B1403",
"3  c #331B05",
"4  c #3D1B04",
"5  c #34140A",
"6  c #341C0B",
"7  c #3B1C0B",
"8  c #3B160B",
"9  c #3C1E13",
"0  c #351D11",
"q  c #291C13",
"w  c #242401",
"e  c #2B2704",
"r  c #34220B",
"t  c #392605",
"y  c #383502",
"u  c #3C2213",
"i  c #382715",
"p  c #353916",
"a  c #27390F",
"s  c #441403",
"d  c #4B1502",
"f  c #431A02",
"g  c #4C1B03",
"h  c #4C1D0B",
"j  c #45180A",
"k  c #541B03",
"l  c #5B1D03",
"z  c #531C0A",
"x  c #5B1E0A",
"c  c #491F11",
"v  c #511D13",
"b  c #480F04",
"n  c #482707",
"m  c #5C2305",
"M  c #55230C",
"N  c #5D240B",
"B  c #542B0C",
"V  c #5C2B0D",
"C  c #542705",
"Z  c #483603",
"A  c #563908",
"S  c #442414",
"D  c #4C2C14",
"F  c #432519",
"G  c #492817",
"H  c #542413",
"J  c #5A2612",
"K  c #5C2A13",
"L  c #542D1B",
"P  c #572B16",
"I  c #463719",
"U  c #5D3514",
"Y  c #583A17",
"T  c #63250C",
"R  c #622A0D",
"E  c #6A2B0C",
"W  c #652407",
"Q  c #65330B",
"!  c #632612",
"~  c #632B13",
"^  c #6A2D13",
"/  c #672C19",
"(  c #6B3213",
")  c #6B321B",
"_  c #6C3B1D",
"`  c #653616",
"'  c #723314",
"]  c #74351C",
"[  c #743A1D",
"{  c #7B3C1D",
"}  c #7B3519",
"|  c #712C16",
" . c #573626",
".. c #4A3125",
"X. c #683721",
"o. c #753423",
"O. c #733C23",
"+. c #7B3C22",
"@. c #773C29",
"#. c #682E22",
"$. c #1E5A0D",
"%. c #255D1B",
"&. c #2D5D1D",
"*. c #3B581A",
"=. c #2D4416",
"-. c #1E641B",
";. c #1E691B",
":. c #1C650F",
">. c #29650B",
",. c #246A14",
"<. c #24651D",
"1. c #29651D",
"2. c #246A1D",
"3. c #2A6B1E",
"4. c #286615",
"5. c #356E19",
"6. c #2C731A",
"7. c #357516",
"8. c #37720F",
"9. c #385B26",
"0. c #2A5822",
"q. c #1F6723",
"w. c #246523",
"e. c #2B6622",
"r. c #256A23",
"t. c #2A6B24",
"y. c #256629",
"u. c #266A2A",
"i. c #2B6C2A",
"p. c #2B6529",
"a. c #336423",
"s. c #326C25",
"d. c #326C2A",
"f. c #3B6527",
"g. c #2C7124",
"h. c #2C712B",
"j. c #277122",
"k. c #357628",
"l. c #2A6B31",
"z. c #2D7134",
"x. c #337132",
"c. c #3A6436",
"v. c #464704",
"b. c #53440C",
"n. c #4A5503",
"m. c #4A4718",
"M. c #564C19",
"N. c #4C531D",
"B. c #455619",
"V. c #57551B",
"C. c #53590B",
"Z. c #68471B",
"A. c #7A431D",
"S. c #77471D",
"D. c #6E501A",
"F. c #59681B",
"G. c #457F1E",
"H. c #577919",
"J. c #516C0D",
"K. c #677E1B",
"L. c #494A23",
"P. c #5B4D25",
"I. c #435C23",
"U. c #4B5B24",
"Y. c #485726",
"T. c #585623",
"R. c #4A5B34",
"E. c #6A4827",
"W. c #754322",
"Q. c #7C4323",
"!. c #784827",
"~. c #655527",
"^. c #684634",
"/. c #774B38",
"(. c #79553C",
"). c #715429",
"_. c #426125",
"`. c #486228",
"'. c #587925",
"]. c #507031",
"[. c #686F27",
"{. c #6B6342",
"}. c #7C564B",
"|. c #813918",
" X c #823D25",
".X c #81411E",
"XX c #874928",
"oX c #944E2A",
"OX c #865629",
"+X c #885A33",
"@X c #9D5B34",
"#X c #975935",
"$X c #8B4D2F",
"%X c #A25A31",
"&X c #A35B39",
"*X c #94643C",
"=X c #89623D",
"-X c #A4603A",
";X c #835747",
":X c #8D6548",
">X c #3B8119",
",X c #3D8324",
"<X c #4B890D",
"1X c #438708",
"2X c #4C8C14",
"3X c #4B8B1B",
"4X c #468617",
"5X c #558A19",
"6X c #4A921A",
"7X c #539413",
"8X c #589718",
"9X c #52920E",
"0X c #64851D",
"qX c #639C1B",
"wX c #748819",
"eX c #5CA21E",
"rX c #7AB419",
"tX c #64A91C",
"yX c #458724",
"uX c #578726",
"iX c #5C9B27",
"pX c #538F2B",
"aX c #6A9828",
"sX c #6D882A",
"dX c #68A526",
"fX c #76AE29",
"gX c #7AB628",
"hX c #76AE36",
"jX c #79B636",
"kX c #6BAE2B",
"lX c #7BB746",
"zX c #83B51C",
"xX c #83B926",
"cX c #83B933",
"vX c #89AD38",
"bX c #809D2F",
"nX c #89C42A",
"mX c #89C738",
"MX c #95C936",
"NX c #99D133",
"BX c #94CA2B",
"VX c #A6D53B",
"CX c #83BC45",
"ZX c #97BD46",
"AX c #88C34A",
"SX c #94CE4E",
"DX c #A9DC46",
"FX c #ACD851",
"GX c #A9E547",
"HX c #B6EA4D",
"JX c #B5EA55",
"KX c #B9F15A",
"LX c #ABE85C",
"PX c #B9EF63",
"IX c #B6F167",
"UX c #C0F34E",
/* pixels */
"z.z.w.<.2.g.t.i.t.w.<.<.w.w.y.y.w.t.t.g.,.3.3.s.4.4.4X3X7.k.r.y.i.t.3.<.t.i.y.y.r.g.t.1.%.%.1.e.t.r.",
"u.u.r.<.3.2.r.<.t.w.w.i.t.w.r.i.t.t.;.r.2.3.4.>.3XlXAXjXiXyXk.3.t.2.2.2.i.d.p.w.<.2.2.3.p.p.e.d.<.w.",
"u.u.i.r.t.t.h.h.u.w.w.h.t.<.<.t.<.t.2.r.r.1.8.hXJXJXxXgXjXdX2X3X5.3.t.d.s.e.i.g.r.r.r.r.i.t.w.r.r.t.",
"i.i.i.i.r.r.w.i.i.y.u.i.t.2.2.g.t.t.2.r.2.k.AXPXHXUXBXgXjXhXqX1X4Xk.3.i.t.4.1.2.r.i.r.r.r.r.w.-.t.t.",
"w.t.r.i.r.r.-.w.r.y.r.t.r.r.t.t.t.i.h.:.>XSXPXHXNXGXnXkXiX2X<X2X3XyX3.1.t.3.3.3.<.r.r.q.r.r.r.r.t.t.",
"r.r.t.r.h.r.u.i.w.w.r.r.r.r.r.<.w.d.,.4XSXPXHXBXrXGXtX7X6X4X7X2X2XpXyX6.2.2.2.<.r.w.y.u.t.r.r.t.w.<.",
"g.t.t.<.r.w.r.i.r.r.t.t.t.i.l.y.x.>.3XmXJXHXMXrXrXmX9X<X5X5XdXfX1X1X2X>X6.r.r.r.i.i.u.i.i.2.e.t.h.h.",
"2.t.r.t.r.r.r.h.r.2.2.r.w.i.i.i.4.4XSXKXDXzXgXgXcXdX<X2X4X<XdXcXkX7X8XiX,Xg.3.<.p.i.y.y.t.t.e.t.r.r.",
"i.r.t.r.r.r.r.r.<.2.<.i.w.t.1.>.pXSXKXVXxXgXdXdXjX7X<X3X4X3XdXjXjXjXfXCX3XyX6.2.t.d.y.<.t.t.t.t.<.<.",
"<.t.t.i.u.r.g.j.g.t.h.t.<.4.>.iXLXKXDXzXgX8X6X2XiX1X2X4X3X3XiXhXaX0XbXvXAX6X4X7.1.e.w.w.t.t.t.h.t.t.",
"<.i.u.z.y.w.g.t.<.i.p.x.4.>.kXLXJXKXxXgXqX<X3X3X2X2X<X7X3X4X4X8XJ.n.n.K.MXmX7X4X5.%.<.2.r.r.h.h.t.t.",
"t.i.y.i.y.y.t.r.t.t.t.4.8.CXIXJXHXxXgXkX5X5X'.'.'.5XH.J.J.uXuXH.C.Z Z v.bXKXgX7XG.4.<.;.r.r.h.r.r.r.",
"i.w.w.y.u.u.i.t.t.s.>.8.AXIXGXHXnXgXgXqXH.B.w y [.m.[.y t Z C.[.A Z._ n wXJXGXrXaX8.,.r.h.r.h.r.w.r.",
"t.-.r.r.i.i.i.t.1.4.8.CXIXJXHXBXgXcXaXJ.y t t 1 t - Y B C n n A C W.) C C.vXJXNXSX5X,.2.h.r.i.r.r.r.",
"t.<.2.g.g.r.i.i.k.>.dXIXKXNXMXxXfXaXK.y Z U U n g _ _ ( m R R m R / ! C v.aXDXGXJXdX5.1.e.t.t.w.i.t.",
"r.r.;.k.3.<.i.h.>.7.SXJXMXxXgXcXaX5Xv.Z W.O.V s O.XX[ T R R W E ! N / ~ y F.vXJXDXgXyX3.1.e.i.r.t.t.",
"h.r.w.t.s.1.<.k.,.iXSXmXgXgXtXqX5XH.b.S.A.[ d K O.O.( W R ^ E R R N E R 4 V.sXFXGXcXuX5.e.p.r.r.r.t.",
"r.q.r.i.t.e.2.,.7.jXcXgXkXeX9X5X'.v.A A.{ E N K / ~ N W ' { ' T R ^ W E ` b.n.ZXMXnX5X5.e.i.r.;.r.p.",
"r.r.d.d.w.t.g.,.3XCXgXcX5X5XH.H.F.y Z.A.' l ~ N ! T T } { [ ^ N T ! W A.!.C y vXgXkX2XG.1.y.w.r.i.i.",
"h.r.i.e.w.h.j.,.kXjXcXaX0XF.n.[.M.A S.( l l R R W W | $X{ ^ N ~ / N ( XX+.V Z sXdXtX7X4X4.i.t.r.r.w.",
"h.<.1.1.i.h.;.6.lXhXaXK.F.Z b.M.U m R l k R R W E E } $X] ! N ~ K ~ [ [ ( m 4 T.aXiX1X6X6.t.e.t.t.r.",
"h.r.1.<.h.r.:.yXlX5X0XC.t U B B ~ k l N R R R m ' }  X X^ ! J J J ~ ] ^ T N 2 Z C.aX4X6X,X,.<.t.t.r.",
"u.u.d.t.r.2.>.pXiXH.V.Z C U B V R ! T ^ ~ m V R ' { { ] E ~ K ~ / N T ! N ~ M t e F.uX4X>X6.i.<.t.t.",
"y.q.t.e.h.3.>.uXsXn.t B V R N ! ! Q.^ N M V V ~ [ ] ' ^ ^ N N K N ^ ! ! N V / B - e '.pXyX6.<.<.r.r.",
"z.y.w.x.d.1.7.uXC.Z U K m R ] ! +.] T N x d g B V V R W W k k d N ^ N x k k M M f 1 w B.uXG.1.t.<.<.",
"t.r.x.i.y.$.].'.A ` K M ( XXo.T ^ ^ N T ) X.K n n V ! W ^ +.W.m d d k ~ ! k d M H 2 1 ; *.].%.<.w.t.",
"g.<.y.p.i.f.U.Z ` ^ R R XXW.] ! ^ m m @.$X@./ P P n N ^ +.XXQ.) g M _ [ / x d M K s s S X B.].<.e.t.",
"4.1.i.p.%.9.m.U +.| x [ Q.( ! ! R N ~ @.o./ H H S f g ! / ) O.) h X.!._ ~ x k z / z b v 1 ; `.d.e.t.",
"3.1.u.%.9.N.Z.W.) ) x ( { ( ! ~ ~ V M P h s j 2 7 4 2 s s g M h S L ~ V N k z z K J b b v % w f.%.e.",
"1.e.i.d.*.M.!.] / M k ( { T ~ J M z f 2 * & & & % $ # * * * 2 7 7 S h N N g z z M K d x j 4 = p f.d.",
"t.i.w.f.v.D.W.~ P h k +.^ T N M g H u $ - 1 7 % 6 6 = - 1 % # # % 8 j h g g g h z J g g H j 2 : 9.d.",
"w.<.d.&.M.).Y B f ~ / ! ! ~ K n h 2 % X 6 : 6 - r 6 - u F 6 = - # # & 2 s g s h h g g g 2 2 s 1 a 9.",
"i.i.9.*.m.M.=.y C  X| N J M j 4 % $ > > > > r : t 1 - 7 S 3 : : = = X   % 8 8 j v z d g f 2 2 - w I.",
"i.a.I.L.L.L.=.a X.o.x ! h 4 % $ = 6 0 > > > r : 3 1 1 7 S 3 - : , : : = o   % 5 s h h E.Y I e ; ; L.",
"a._.m.m.Y.9.p.0.P.X.P j j 1 1 7 - S u % 6 > r : 3 1 - 9 F 3 - : - = > , . @     & 4 D L.=.=.=.a ; I ",
"_.T.Y D R.9.c.9.L.L L j # 3 G u 1 S 6 $ 0 = r : 3 - % 9 F 5 - 3 - - > < + + O $   - I p R.9.c.9.r I ",
"U.T.Y Y {.{.R.a i G S % $ r u u - u 6 X > X , : 3 $ $ 9 u > - 3 - , = = . . X = $ = i Y.R.R.9.p p I ",
"U.T.~.Y D S I i F S c % - > F u $ i i X X o , > > X X i i > = - - = X X X = $ - 3 3 i I I I i w e m.",
"&.*.P.E.X.X. .G ^./.L 2 5 - $ i   < q . . . < O O X X , i = X = 6 = . + = .. .S L D J J ) X. .i e L.",
"e.f.P.E.+.) M H (.:X^.2 6 $ $ $ X X X . . . O . X . . < , X X X $ X X > u }.;XH X.X.o.+.@.W.~.Y.I.`.",
"i.`.~.E._ ) [ R X.+X/.7 O @ X = $ $ = = = $ $ X X o X X . . . O     5 G H #.o.o.O.) XX[ W.P.*.a.a.&.",
"%.&.T.~.E.Z.{ } R R B D e O = 0 7 3 7 3 7 8 9 5 % > X = X . O . X -  ./.#.o.o.{ C g { $XS.T.*.1.t.r.",
"i.%.f.I.I.V.Z.|.|.' [ U t , ..F D P J M M P ^. .9 i > > $ o X = 0  .(.;X!.Q.+.+XA 1 Q @XA.Z.V.*.e.r.",
"i.<.e.&.*.V.!.XXoX&X#X+Xn S G L _ ] ] ] [ /.:X^.u u F 9 5 % > 0 F L ^.E.N ( Q.*X).Q XX@XoX+X~.B.e.u.",
"w.t.t.a.N.Z.#X&X@X@X#X:XU 1 * h ] .XoX@X$XW.E.D i i D P h h j c H D n n R .X{ XXXX@X&X@X-X+XV._.e.i.",
"r.i.i.f.T.Z.+X+X*X+X*X=X(.n D D ` A.oX-X#XQ B t - 1 f !.O.) K P P B U ` A.oX%X%X%X%X@X+X+XZ.B.f.w.w.",
"r.;.<.1.a.B.T.V.~.~.~.T.T.U.I.U.~.Z.( XX@X$X!.E.4 f m @X#XQ._ _ ` W._ A.#X-X%X%X@XoXOX).N.I.f.1.w.<.",
"h.;.t.e.t.a.*.`.B.B.B.U._.a.s.f.I.T.Z.).*X*X=X:X:X).+X+X!.Z.~.P.~.E.Z.!.+XOXOXS.Z.Z.M.N._.d.t.h.h.t.",
"r.h.r.w.r.e.e.s.a.s.a.e.s.d.<.i.e.9.N.T.~.~.~.~.~.~.P.M.T.U._.9.U.T.P.M.P.V.N.N.I.I.f.a.d.r.r.t.t.t.",
"r.h.r.r.t.r.t.t.r.h.t.r.t.h.<.t.r.e.*.U.V.M.M.M.N.N.N.U.U.f.t.t.9.I.T.M.T.U.`._.a.e.t.r.t.r.r.t.t.t."
};
