/* XPM */
static const char *burrow2[] = {
/* columns rows colors chars-per-pixel */
"50 50 247 2 ",
"   c #0D0900",
".  c #130600",
"X  c #1B0500",
"o  c #150B01",
"O  c #1B0C01",
"+  c #161201",
"@  c #1C1203",
"#  c #1F1805",
"$  c #240600",
"%  c #2A0700",
"&  c #220D01",
"*  c #2B0D00",
"=  c #330B00",
"-  c #3D0E00",
";  c #241203",
":  c #2C1402",
">  c #251A01",
",  c #2B1A02",
"<  c #2B150A",
"1  c #2E1B0B",
"2  c #24150B",
"3  c #321402",
"4  c #3D1302",
"5  c #321C04",
"6  c #3C1A04",
"7  c #321509",
"8  c #331B0B",
"9  c #3A1B0B",
"0  c #3A140A",
"q  c #2D1C16",
"w  c #341A12",
"e  c #1C2803",
"r  c #2B2401",
"t  c #262805",
"y  c #322105",
"u  c #3C2302",
"i  c #3B220B",
"p  c #362809",
"a  c #28340B",
"s  c #33330C",
"d  c #343B0B",
"f  c #2D2412",
"g  c #342214",
"h  c #3C2214",
"j  c #3E2A14",
"k  c #3C2418",
"l  c #2D3917",
"z  c #3B3A16",
"x  c #431401",
"c  c #4B1502",
"v  c #441A04",
"b  c #4C1A03",
"n  c #43160B",
"m  c #441C0B",
"M  c #4C1C0A",
"N  c #4A160B",
"B  c #531603",
"V  c #531C04",
"C  c #591E05",
"Z  c #531B0A",
"A  c #571C0B",
"S  c #46160A",
"D  c #432105",
"F  c #41220B",
"G  c #4D220B",
"H  c #492909",
"J  c #522104",
"K  c #5C2106",
"L  c #53230C",
"P  c #5C240B",
"I  c #542A0C",
"U  c #5C2A0D",
"Y  c #49340E",
"T  c #42340C",
"R  c #56320E",
"E  c #432614",
"W  c #4C2311",
"Q  c #422815",
"!  c #44241A",
"~  c #482B18",
"^  c #532412",
"/  c #5B2411",
"(  c #542C12",
")  c #5C2B13",
"_  c #532C1A",
"`  c #5B2C1A",
"'  c #50241B",
"]  c #4D3C15",
"[  c #493619",
"{  c #5C3212",
"}  c #573918",
"|  c #612207",
" . c #63250C",
".. c #632A0E",
"X. c #6A250C",
"o. c #632612",
"O. c #632A13",
"+. c #6A2C13",
"@. c #642D19",
"#. c #6A2B17",
"$. c #643215",
"%. c #6C3216",
"&. c #66331C",
"*. c #6C341A",
"=. c #663B1C",
"-. c #6C3B1C",
";. c #72341A",
":. c #73391D",
">. c #79391E",
",. c #723616",
"<. c #712810",
"1. c #5B3927",
"2. c #4B3324",
"3. c #6D3421",
"4. c #6B3B23",
"5. c #653A25",
"6. c #723521",
"7. c #753C22",
"8. c #7A3C22",
"9. c #753D2A",
"0. c #7B3A26",
"q. c #602C21",
"w. c #1C5F1A",
"e. c #2B4A15",
"r. c #3D4D1B",
"t. c #374719",
"y. c #2C5E1D",
"u. c #235D1B",
"i. c #3C541C",
"p. c #38591C",
"a. c #29460E",
"s. c #1E641D",
"d. c #1F681F",
"f. c #24651E",
"g. c #2B631E",
"h. c #21681F",
"j. c #2B5E22",
"k. c #3D5422",
"l. c #355C24",
"z. c #3B5C24",
"x. c #3A5D2C",
"c. c #3C5328",
"v. c #3C4F2F",
"b. c #1D6A21",
"n. c #1F6621",
"m. c #256621",
"M. c #2A6522",
"N. c #256A23",
"B. c #2A6B25",
"V. c #266D29",
"C. c #2B6D2A",
"Z. c #2B652A",
"A. c #346424",
"S. c #3A6324",
"D. c #316A26",
"F. c #34652A",
"G. c #3C642A",
"H. c #326C2A",
"J. c #3B6A2B",
"K. c #386927",
"L. c #26722A",
"P. c #2C712A",
"I. c #297027",
"U. c #32722C",
"Y. c #317026",
"T. c #396B32",
"R. c #327331",
"E. c #434214",
"W. c #4B451A",
"Q. c #444D1C",
"!. c #494819",
"~. c #52441C",
"^. c #554E1A",
"/. c #5A4E1C",
"(. c #5A441C",
"). c #45561C",
"_. c #53521E",
"`. c #535116",
"'. c #64451D",
"]. c #6A441C",
"[. c #634B1C",
"{. c #6C4C1E",
"}. c #6B4117",
"|. c #7A411E",
" X c #464C22",
".X c #4E4F2D",
"XX c #5C4D22",
"oX c #554526",
"OX c #445524",
"+X c #4C5522",
"@X c #435D25",
"#X c #4A5B25",
"$X c #475A2A",
"%X c #535623",
"&X c #5B5422",
"*X c #515923",
"=X c #5A5B2A",
"-X c #545A29",
";X c #465932",
":X c #6C4323",
">X c #634C22",
",X c #694A25",
"<X c #734324",
"1X c #7B4325",
"2X c #7C432B",
"3X c #7A4A29",
"4X c #635226",
"5X c #675428",
"6X c #77562B",
"7X c #684639",
"8X c #7C4531",
"9X c #724B37",
"0X c #765535",
"qX c #44632C",
"wX c #446428",
"eX c #436835",
"rX c #516037",
"tX c #785942",
"yX c #5F6041",
"uX c #7C6D4E",
"iX c #82381F",
"pX c #813E27",
"aX c #874D1F",
"sX c #824323",
"dX c #834B24",
"fX c #83442B",
"gX c #884B2B",
"hX c #93492A",
"jX c #88552B",
"kX c #93522C",
"lX c #95572D",
"zX c #8C4D32",
"xX c #854D32",
"cX c #895B36",
"vX c #9B5A33",
"bX c #9C5C3A",
"nX c #975834",
"mX c #964F31",
"MX c #A45C36",
"NX c #A3592C",
"BX c #8E6237",
"VX c #95613B",
"CX c #9B633E",
"ZX c #A7623C",
"AX c #815747",
"SX c #866452",
"DX c #8D6645",
/* pixels */
"P.I.f.M.M.B.N.N.N.m.f.g.f.N.N.N.N.B.M.B.N.N.n.B.S.#X=X-XqXT.C.m.Y.Y.m.f.C.V.n.n.N.B.N.f.s.s.m.M.B.N.",
"N.m.N.f.B.m.m.m.B.m.M.B.B.M.N.N.N.N.m.B.m.N.M.K.t.s p p d t.l.K.g.f.N.B.C.P.L.n.h.m.M.B.m.h.M.C.f.N.",
"m.N.B.N.B.B.H.H.B.f.m.P.B.f.f.N.B.f.m.N.b.H.z.d u G G G v u E.k.J.B.B.C.C.B.m.V.N.B.B.B.N.m.N.N.N.B.",
"N.I.N.N.f.N.M.B.B.m.m.I.B.M.B.P.B.B.N.m.V.G.!.D $.*.#.O.C c u r i.K.H.B.C.m.m.U.N.B.N.f.m.N.N.w.V.B.",
"f.N.m.N.m.N.f.m.N.m.N.B.N.N.B.B.M.U.N.M.qX!.I 7.zX0.o.o.P b G u r t.Z.V.m.V.B.m.f.f.f.f.N.N.N.m.V.N.",
"M.M.N.m.I.N.V.V.n.m.N.N.N.N.N.f.M.D.H.S.!.R #.pX . .o.O.L b b v 5 r e.H.Z.Z.V.s.B.M.M.B.B.m.N.I.m.m.",
"U.B.B.m.N.s.m.N.N.B.B.B.B.V.N.m.C.g.G.Q.Y U ;.X.O.#.O.L v G Z c v 5 p r.F.V.V.N.U.B.B.B.B.m.N.V.V.P.",
"N.N.f.B.N.N.d.I.M.M.M.N.m.N.N.N.H.S.Q.Y ( P o. .o.P ) I b Z B Z b G 6 r c.T.m.m.B.N.M.f.N.P.C.N.N.N.",
"L.N.B.N.N.N.B.B.D.y.m.N.n.s.m.M.@XQ.] { U ) O.O.o.O./ Z Z B B Z c - M v , t.eXV.B.B.f.g.B.N.N.V.m.f.",
"b.N.N.B.N.N.P.H.y.H.P.N.V.B.A.@XE.Y <X$.) U I P / o.P P o.O.o.P / c x x v , a G.Z.B.f.N.N.f.V.P.B.B.",
"f.P.N.U.m.f.B.B.B.M.I.I.N.J.-X] I -.7.P O.O.I { ) O.O.O.O./ @.3.7.6.Z - 4 3 , a z.Z.s.m.B.N.P.I.N.B.",
"M.C.N.B.f.f.B.N.C.N.m.M.F.OX] I O.0.O.U #.P b I ) / P O.O.P @.9.fX0.O.b 4 4 x 3 t.z.m.n.P.B.I.N.N.N.",
"M.f.M.m.N.m.N.N.m.B.B.A.Q.] ( O.#.#.P $.V x x x J c c J ..O.O.#.0.8.&.( v 4 x 4 5 OXF.n.L.n.N.B.m.N.",
"M.u.M.M.I.N.N.N.N.B.J.OXT I O.P  . .O.J b L K c x J U P P O. . .+.8.$.I M N M x 3 [ F.n.L.N.B.B.N.N.",
"B.m.m.I.P.N.N.N.N.J.OXY U O.P b V #.O.P *.7.O.B P :.<X*.O.O.O.O...+.P O.) N Z ^ 3 a l.N.V.N.D.g.B.B.",
"N.N.s.P.B.f.B.U.M.p.W.I P +.) c O.O.V 7.7.6. .c fX1X*.....O. ... ... .#.I - c N 6 r l.C.N.m.H.M.B.N.",
"P.s.m.B.P.f.m.H.J.#XH V 8.+.P P %. .+.xX:.*.c ..:.7.+. . .%.O...O. .O.P Z b 4 - v , t.Z.H.m.N.N.N.B.",
"N.m.I.N.N.N.M.A.@X!.H :.8.%.P +.,.K *.:.1XP P P $...K ..,.8.#. .O. . .O.6.7.) 4 x 3 l l.Z.m.N.m.N.N.",
"N.N.P.N.N.N.B.S.#XT I xX7.O. .*.+.+.8.:.*.V O. ... . .>.8.;.+.O.O.P O.2X2X$.) v x 6 r c.j.N.N.N.U.U.",
"B.f.B.N.V.N.B.J.+XH $.2X;. .%.,.| ,.:.,.C P O.O. . .;.gX8.+. .O.....,.fX7.@.) M x W 5  XF.N.m.B.f.f.",
"C.f.m.m.V.m.N.G.~.{ :.,.+.+.:.%... .O.V V P @. .X.+.>.fX;... .O.U  .>.8.+./ L M x ` v [ T.N.f.B.C.B.",
"C.N.B.m.N.N.M.z.] *.;.+.+.%.%.....C C V O.@.o.O.;.,.8.1X+...O.....P ;.;. .Z x v x ` M T eXV.f.B.N.N.",
"B.B.C.m.B.B.M.i.} $.<.<. .+.P P U +.P #.O.O.P O.7.7.8.:.....O.O.U ..X.|  .#./ x 4 M Z 6 z.C.N.m.B.B.",
"m.m.C.B.V.B.y.r.'...X.X.X. .K ....7.#.) O.P #.#.7.:.%.%. ...O.U U +. . . ./ ) ^ - 4 M 3 t.F.N.s.N.N.",
"C.m.m.P.P.u.wX!.} +.+.X.| O.:.P 1X-.O.P L c B P O.+. . .P B c b U .. .| B C / L x 4 x 3 z eXM.m.f.f.",
"P.m.B.N.m.y.+X} =.:...C ;.fX%...$.O.P P #.*./ Z V  ... .+.7.:.b V c C o.P B Z / M 4 x 6 r OXM.s.N.B.",
"N.N.B.N.f.S.~.{ <XO.$.P zX8.$...+.K P 2X8X9.@.O.O.V P *.7.2X8X#.x P 6.0.#.B c Z ) x 6 F : z x.m.m.N.",
"f.N.N.m.M.i.} :.7.U I -.fX>... . .P o.9.3.@.^ / L c V O.@.3.9.&.L 4.8X3.O.V V L @.x v F 3 y k.F.M.B.",
"f.h.f.g.p.E.'.8.*.$.J -.8.*. .O.O.P / ` G m x v 4 v v v v M ^ M W ` @./ / Z b L O.L v v v 3 s c.u.N.",
"N.h.B.K.Q.(.3X:.+.P V *.:. .#.P P V b 4 = % % % * * % = 4 4 4 m 9 W / / ) L c b P ) v G M 4 , t.F.P.",
"b.m.P.wX(.3X3X{ L V V 0.O.O.O.Z b G m % * : 8 & 8 8 & * : * % % 3 m Z Z b b c V Z P b M M N 3 s G.B.",
"d.m.g.i.(.0X} R b ..+. .O.O.) M G 4 * $ 8 1 1 , g , : h Q 8 ; & X % = n m v x b Z Z Z c x x 4 , e.M.",
"L.B.A.i.W.XXE.p J pXO.P / L M m : & : : < 1 y , y : : i Q 8 , > ; ; X X * 9 0 N Z Z N b - 4 4 , a G.",
"N.H.OXQ.+Xr.a.d =.:.P ( G 6 3 $ ; 1 8 ; < , y , y : : h E 5 , > , , ; O O X * 0 n N ^ 5.} T r > e OX",
"H.qXoXW.$Xj.j.a.(.=.I D 6 7 7 8 : E 9 : 1 , y , 5 : : h h 7 : , : : w q o   O X % m } ~.d a.l e e  X",
"@X-X} ] ;XF.T.x.oX} _ m % 3 Q h 3 E 7 & 8 ; 5 , 5 : : h h 7 : 5 : : < 2 +   # O O : j  Xk.l.x.c.t z ",
"&X&X} >XuXyXv.l Q _ W = * 9 i i : ! 1 O 1 ; 1 1 5 * * w h : : 5 : , ; O o o ; ; X : j .XrXrXv.l a E.",
"`.^.'.} } ~ 2.f Q ! n = = 8 Q g & g g o @ O 1 : 1 & & g k : : : : > @ O O & & : 7 3 j oXoXz l t a  X",
"p.i.5X:X) 1.oXj 1.7X' = 0 * < g O < q o o o 2 @ 2 O O g g ; & : 7 & o O & 2.E F ^ ^ I L O.=.1.y a OX",
"N.S.XX<X2X&.G ( tXSX1.4 8 O O ; O O 2 o o . # O O . o 1 f O X & : X X < ! SX9XW 5.&.6.8.sX<X5X Xk.qX",
"B.G.XX<X7.O.*.) ,XtX,Xi > + o 2 O & ; O & O O O . . O 2 O   + O O X < ! ' 5.9.4.4.4.<X|.{._.p.D.M.M.",
"m.A.-X>X,X].7.%.{ =.} i > + ; 1 8 8 9 9 8 7 w < ; & O O o o + + O : 1.7Xq.3.6.6.G I 1X1X].=XS.m.N.N.",
"N.g.wXi.).4X<XiX,...*.) E , Q E G I L L L _ 1.! h q < < O . o @ 8 [ tXAX8X0.8.xXH = :.nX:.'.*XqXM.N.",
"B.s.B.y.i./.|.hXhXmXzX3Xv F _ ` $.%.%.%.*.8XSX7Xk g h 8 : $ < 8 E ~ 9X9XO.,.dXnX<XU fXbXkXjX4Xi.M.B.",
"V.m.V.A._.{.jXMXNXMXbXVXH 3 4 / :.sXhXmXzX3X0X[ f j ~ _ m n m n W W ~ F U :.|.jXgXbXvXvXZXcX/.i.M.N.",
"V.V.V.K.%X,XcXlXvXkXVXBX5Xy i _ $.|.vXZXkX..H 5 5 y D <X@.@.^ ` ) I _ { |.kXvXkXlXMXbXnXjX[.).S.f.s.",
"M.M.N.M.p.).4X{.6XcX6X6X=X#X$X+X5X].,.dXnXfX:X1.3 = J bXzX8.$.-.{ ].<X1XvXlXNXMXMXkXjX6X`.).K.u.m.f.",
"B.f.f.N.D.S.#X*X!.!.^.*X@Xl.J.G.#X&X{.3XCXVXBXDX0X:X3XnXdX}.>X>X,X,X-.dXVXlXlXaX1X].[._.wXJ.B.R.C.C.",
"B.P.N.m.M.B.g.K.y.A.A.g.D.B.M.D.K.@X_.5X6X6X6X6X6X6X5X4X/.=X@Xz.+X&X[.].,X[.[.^.+X).S.K.B.N.B.V.B.C.",
"N.P.N.N.N.B.m.B.N.B.I.N.B.B.N.B.B.A.).&X[.'.'.[.[./.^.%X*XwXK.D.@X*XXX>X5X&X%X+XS.M.M.N.N.N.B.B.N.B."
};
