/* XPM */
static const char *carrot1[] = {
/* columns rows colors chars-per-pixel */
"50 50 225 2 ",
"   c #0F4F03",
".  c #1A5B04",
"X  c #1E5C0B",
"o  c #1C5D16",
"O  c #1D5E18",
"+  c #175913",
"@  c #215C09",
"#  c #3D5A01",
"$  c #3E5A0C",
"%  c #235B15",
"&  c #225B14",
"*  c #395D14",
"=  c #3B5B18",
"-  c #1E611C",
";  c #1D6017",
":  c #2B630D",
">  c #2E6B0D",
",  c #336A0D",
"<  c #246314",
"1  c #2C6C16",
"2  c #22641D",
"3  c #2B641D",
"4  c #25681F",
"5  c #2D6A1D",
"6  c #2A6116",
"7  c #376414",
"8  c #326C11",
"9  c #34651C",
"0  c #3C621C",
"q  c #336C1D",
"w  c #3C6514",
"e  c #39741A",
"r  c #3E5F20",
"t  c #246621",
"y  c #2A6722",
"u  c #266923",
"i  c #296B25",
"p  c #2E6729",
"a  c #2B6D29",
"s  c #276D2A",
"d  c #336622",
"f  c #3A6421",
"g  c #336C26",
"h  c #3A6A25",
"j  c #306D28",
"k  c #2C7026",
"l  c #2E712A",
"z  c #347425",
"x  c #32732C",
"c  c #3A7829",
"v  c #357730",
"b  c #3A7A30",
"n  c #444F09",
"m  c #4C5C0E",
"M  c #42550C",
"N  c #595B0B",
"B  c #415E1C",
"V  c #455912",
"C  c #595316",
"Z  c #535D1A",
"A  c #5D5A1A",
"S  c #565916",
"D  c #625B16",
"F  c #685A1A",
"G  c #78581C",
"H  c #6B4B14",
"J  c #47680D",
"K  c #5C730E",
"L  c #436516",
"P  c #42621B",
"I  c #4D621A",
"U  c #55621E",
"Y  c #477510",
"T  c #676F0F",
"R  c #726D0F",
"E  c #727A0E",
"W  c #68691B",
"Q  c #796D1F",
"!  c #64721E",
"~  c #74721E",
"^  c #6B750E",
"/  c #755C22",
"(  c #4F6223",
")  c #5A6B25",
"_  c #407725",
"`  c #7A6222",
"'  c #63752F",
"]  c #656423",
"[  c #854D17",
"{  c #9E4414",
"}  c #9C4A15",
"|  c #934D17",
" . c #935216",
".. c #935B1E",
"X. c #9C531C",
"o. c #A44719",
"O. c #AB4A16",
"+. c #BE4B1C",
"@. c #B44B14",
"#. c #B9581C",
"$. c #816B1E",
"%. c #8E5D25",
"&. c #865F26",
"*. c #9F5D23",
"=. c #B04F20",
"-. c #A65F2A",
";. c #BB5223",
":. c #B45C21",
">. c #846C21",
",. c #826626",
"<. c #96672B",
"1. c #827929",
"2. c #8D6D33",
"3. c #9D7E36",
"4. c #947B2A",
"5. c #AA682E",
"6. c #BE6C28",
"7. c #B8762A",
"8. c #A66330",
"9. c #AA7E37",
"0. c #B97C31",
"q. c #A57B2E",
"w. c #C34C1C",
"e. c #CB551C",
"r. c #CB591D",
"t. c #C45718",
"y. c #D0561A",
"u. c #D55D1B",
"i. c #D75D17",
"p. c #DA650F",
"a. c #CF700E",
"s. c #CC6B14",
"d. c #CC621A",
"f. c #CF6217",
"g. c #DD6216",
"h. c #D36C16",
"j. c #DD6B17",
"k. c #D3631A",
"l. c #DA641A",
"z. c #D56A1B",
"x. c #DD6B1B",
"c. c #D26012",
"v. c #CF7417",
"b. c #D37215",
"n. c #DB7315",
"m. c #DC741A",
"M. c #DD7A1B",
"N. c #D4741E",
"B. c #E3691A",
"V. c #E07315",
"C. c #E17916",
"Z. c #E3741C",
"A. c #E37A1D",
"S. c #C74D20",
"D. c #C55B21",
"F. c #CC5021",
"G. c #D85F26",
"H. c #C76D26",
"J. c #CE6520",
"K. c #D46726",
"L. c #C1752C",
"P. c #C97729",
"I. c #DF7324",
"U. c #D47B24",
"Y. c #DA7A24",
"T. c #D87A2D",
"R. c #C57D35",
"E. c #E37C2B",
"W. c #E17824",
"Q. c #3F8239",
"!. c #64801A",
"~. c #43832C",
"^. c #498127",
"/. c #5B8925",
"(. c #59902E",
"). c #498737",
"_. c #548C37",
"`. c #5B963A",
"'. c #5A9638",
"]. c #7E8D23",
"[. c #699229",
"{. c #679431",
"}. c #4A8B42",
"|. c #539443",
" X c #5B9744",
".X c #599A4D",
"XX c #639B40",
"oX c #69A14F",
"OX c #69A453",
"+X c #888C20",
"@X c #9E8329",
"#X c #9D8938",
"$X c #908D2F",
"%X c #BA8E23",
"&X c #A98C3B",
"*X c #B7863A",
"=X c #BC9036",
"-X c #A79D33",
";X c #B9A03B",
":X c #CC822B",
">X c #D3842F",
",X c #DB822A",
"<X c #CB992C",
"1X c #C28634",
"2X c #C98435",
"3X c #DA8638",
"4X c #C1943B",
"5X c #D89334",
"6X c #D3992D",
"7X c #E4872A",
"8X c #E7932C",
"9X c #E2982B",
"0X c #E68737",
"qX c #ED9337",
"wX c #EE9C35",
"eX c #F39B37",
"rX c #C5A238",
"tX c #E2A33B",
"yX c #C3994E",
"uX c #CF9F4B",
"iX c #D89B40",
"pX c #E39344",
"aX c #EB9742",
"sX c #DEA447",
"dX c #F3A947",
/* pixels */
"i i i i i i i i i u u u u u i i i i i i i i i a l a i t x O O x 2 2 2 2 2 i i 2 x i 2 4 2 a 2 2 t u ",
"i i i i i i i i i u u u u u i i i i i i i i i a l a i t t i i t 4 4 4 4 2 4 4 2 4 i k i t x i i i i ",
"i i i i i i i i i u u u u u i i i i i i i i i a l a i t 2 l l 2 u u u u i a a i 2 i a i y x i i a a ",
"i i i i i i i i i u u u u u i i u i i i i i i a l a i t t i i u 4 4 4 4 2 i i 4 i 2 4 i i x a a a a ",
"i i i i i i i i i u u u u u u u u 2 2 l a i i a a + i x i 2 x i - k k - 2 k k 2 u 4 4 i 2 a t t i i ",
"i i i i i i i i i u u u u u u u i l x 2 i i i i t t x x o O i i 2 i i - 2 x v x u 4 4 i t a y t i i ",
"i i i i i i i i i u i i u u u u x x }.x 2 t t t i Q.v 2 t i u a u u 4 2 O 2 i i u 4 4 i t a t t u a ",
"i i i i i i i i i u i i u u u u x 2 |.|.i < 2 2 b .Xz   Q.).i i a 4 2 4 2 2 2 2 4 4 u i 2 a t t u i ",
"i i i i i i i i i i i i 2 2 x ).5 1 z |.).q q q  X_.. ~.|.< z k 5 5 5 2 i i i i 2 i u l l l i x a a ",
"u u u u u u i i i i i i t 2 i b  X~.@ e oX_ : e `.> e '.1 < < z 5 2 2 2 i i i i a 2 i l i i x u t t ",
"u u u u u u i i i i i i v y & < z _.).z  X^.: `._.8 `.~.X 5 O x i 2 2 y i i u u a u i u u u l t i i ",
"u u u u u u i i i u u a 2 O 2 z < z OX_._.XXe '.(.^.`.1 5 a a a j 2 % i i i u u t v i - u u - i t 2 ",
"u u u u u u u u a t 4 a i i i u 5 . ~.`./.{.Y [.[./.Y , X 4 l s i i a j i u u i l u i i s t a u i i ",
"u u u u u u u i i u u i i i u 4 1 > , /.!.].E +X+X].K # 7 6 4 l t i a i i i u i l 2 i i s u s u i i ",
"u u u u u u u t u i i u i i i 5 , J # ^ -XrX<X<X%X%X@XR ! L 9 g y i y y i i i i i u a t u s u s i i ",
"u u u u u u u i 2 l l 2 i i i 9 # T #X;XrX6X9X8X8X5X5X4X&X$X) 0 9 3 2 y i u u u a u i u u a t s i i ",
"i i x t i l 4 i x ; k u o O % $ #XuXsXiXsXtXwXeXqX0X,XU.R.5.2.Z 0 2 j i y i u u i u l i t u t u i i ",
"u i u x i l 4 i 2 a i i a g % ) yXpXpXaXdXdXwX7XE.W.z.k.d.:.<.F r y j a i i u u i t l i t t t t t t ",
"x l 2 i i l 4 i 2 x 4 i x z & ' yX3X0X0XqX7XM.n.Z.x.c.t.e.;.8./ = g i a a u u u i t l i t u u u i i ",
"i i x i i l 4 i a i 2 i 2 3 & ) *X3X0XE.7X7XA.A.Z.B.g.y.w.;.8./ B g 3 a a u u u u t l u t t t t t t ",
"t i i t 2 a 4 4 a 2 i l a 3 9 I &X7.T.I.W.A.Z.V.p.p.i.y.F.;.-./ B i i a i i i t u t t u - u u - t t ",
"t i i t i 2 4 i 2 2 l x x i 3 V #X1X3XE.W.A.m.V.n.j.l.G.S.;.*.G B i i i i i i t t t t t u a a u t t ",
"t i i t i 2 4 i x i a 2 2 i g L 1.=X>XE.M.M.M.n.n.n.z.K.+.=...F P i i i i i i i t t u i i u u a a a ",
"t i i t 2 a 4 4 i i l 2 i j g * W &XL.N.M.M.M.b.a.s.d.D.+.O...D 0 i u u i i i i t t t u u - - u t t ",
"x u 2 i i i i i a t 4 k i i i 9 $ 1.2Xs.M.C.m.n.a.s.d.r.+.o.%.D 9 u 4 4 2 i l u u t u u u s s a - - ",
"i i u i i i i i i u u i i i i i = ] *XN.M.C.V.n.b.s.d.r.w.o.%.A 9 u i i i 2 2 i u u t u u s a u t t ",
"t i i i i i i i u i i u i i i i f m q.>XM.C.m.n.b.h.k.r.w.o.%.A 9 u u u i 2 2 i u u u t t u s s i i ",
"2 i l i i i i i t a k 4 i i i i h V >.1XU.M.m.n.h.z.k.r.w.o.%.A 9 u u u t i i 2 i u u t - t u u a a ",
"x t i i a l l o a i t 2 t i i 3 g P N *X:XY.m.m.j.l.i.r.+.} &.Z d i i i 2 i l i u u l - a l - t u u ",
"t - i i i t a i i i u t t i i t y 0 m 4.2XY.M.m.j.l.i.y.+.} ,.Z d i i i i l i - o a u i l t a - t t ",
"2 2 i t t 2 l a t u i i t a i t 2 f M Q 1XT.M.m.j.g.i.y.+.} ,.Z d i i i - i l i u l 2 - l t a - u u ",
"i i x 2 2 i x 2 2 u i a t a i t 2 d * W *XT.Y.m.B.g.i.e.@.} ` I 9 i i i i i i 2 2 t l t a l - t a a ",
"i i i v i l t a i u i i t i i t y i 9 m q.L.U.I.B.g.f.t.@. .W L 9 i i i i a i u u t t i i u u i a a ",
"i i - i O 2 t a i i i i 2 i i u p p 5 L $.0.P.E.B.g.k.#.O. .D L 5 i i i i i i u i v v i t a a t i i ",
"i i - i - 2 i i i i i i - u i i p d 5 w N @XR.T.x.l.i.e.@.| S w y i i i i i i i i 2 2 i a t t a - - ",
"i i i v a t l i i i i i o t a a p d 5 7 $ ~ *XP.K.k.u.e.O.[ S 9 i i i i i i i i i a a i u i i u i i ",
"i 2 - 2 2 t i i i i i i i i i i a a i 5 8 J 3.R.H.J.r.w.{ [ U 9 i i i i i a a 2 i a a i u i u u t t ",
"l i u u 2 t i i i i i i i i i i i i i 5 5 w F 9.L.H.D.#.| H V g i i i i t i a a i 2 2 i i i i i u u ",
"i a i t 2 t i i i i i i i i i i i u i 5 5 7 M 1.7.6.:.X.G C = j i i i i t t i a i x x i i i i i i i ",
"2 i t O 2 t i i i i i i i i i i i i u i 3 9 P n >.<.<./ C ( h i i i i i x t t i i t t i i i i i a a ",
"2 2 a i u t u u t 2 2 i l u u i i u u i i i i 9 0 P B P f d a i i u t 2 i i i i i i i i i i y y u u ",
"i t l i u t u u i u i l t 2 2 t u u u u i i i i i i i i i i i i a a i i i i i i i i i i i i y y u u ",
"x i l i u u u u t i l a 2 t t t u i i i i i i i i i i i i i i i a a i i i i i i i i i i i i 3 3 u u ",
"v a x i i u u u O u i t u l l i i i i i i i i i i i i i i i i i i u t 2 i i i i i i i i i i 3 2 t t ",
"a a a a i l u a 2 2 t u x i i a i i i i i a a i i i i i i i i i a t t a i i i i i i i i a i u 2 t t ",
"u u u u u a t i a i i t 2 2 2 t u i i i i i i i i i i i i i i i i t t a i i i i i i i i i i i i t t ",
"u u u u t i 2 i a i i t u i i i i i i i u u i i i i i i i i i i a t t a i i i i i i i 5 5 i i i i i ",
"a a a a 2 i 2 u 2 2 u u u l l i u i i t t 2 t t u i i i i i i i i t t i i i i i 3 i i 5 2 2 i x i i ",
"i i x t i t t i l l i i u u u u t i i l i i i i t i i u 2 i t i i t t i i i i i t i i 4 2 t i i i l ",
"i i x t i t t i l l i i u u u u t i i l i i i i t i i u 2 i t i i t t i u u u u t i i 2 2 t i i u l "
};
