/* XPM */
static const char *enemy1[] = {
/* columns rows colors chars-per-pixel */
"50 50 242 2 ",
"   c #3F3F16",
".  c #583918",
"X  c #4C3A16",
"o  c #61381B",
"O  c #6B3D21",
"+  c #1A5712",
"@  c #2E4B16",
"#  c #364516",
"$  c #245A15",
"%  c #2D5518",
"&  c #245B19",
"*  c #2B5C1B",
"=  c #295616",
"-  c #3A551D",
";  c #335D1E",
":  c #3A5A1E",
">  c #33551A",
",  c #21500E",
"<  c #1E621B",
"1  c #186419",
"2  c #23651E",
"3  c #2B621E",
"4  c #25681F",
"5  c #2A681E",
"6  c #33611F",
"7  c #2B5D23",
"8  c #2C5723",
"9  c #3C5324",
"0  c #335D22",
"q  c #3C5C22",
"w  c #365728",
"e  c #3A4E28",
"r  c #1C6E23",
"t  c #256621",
"y  c #2C6523",
"u  c #266A23",
"i  c #296A24",
"p  c #2C672A",
"a  c #266B29",
"s  c #2B6C29",
"d  c #276529",
"f  c #336423",
"g  c #3C6224",
"h  c #326A26",
"j  c #34652C",
"k  c #3B642B",
"l  c #336A2A",
"z  c #3B6B2C",
"x  c #396825",
"c  c #2D7027",
"v  c #2D722B",
"b  c #23772B",
"n  c #33722B",
"m  c #3B702D",
"M  c #336432",
"N  c #336C33",
"B  c #3A6835",
"V  c #3A733C",
"C  c #397534",
"Z  c #2F6732",
"A  c #4B4C1C",
"S  c #494619",
"D  c #544C1E",
"F  c #58441A",
"G  c #48561E",
"H  c #61481D",
"J  c #454C22",
"K  c #5C4D23",
"L  c #564D25",
"P  c #4C5322",
"I  c #425D23",
"U  c #4A5C24",
"Y  c #4A592A",
"T  c #545925",
"R  c #595928",
"E  c #585E32",
"W  c #435838",
"Q  c #694323",
"!  c #644A24",
"~  c #724A2C",
"^  c #774A29",
"/  c #6A572B",
"(  c #75532B",
")  c #7B512C",
"_  c #725C2F",
"`  c #754C32",
"'  c #6C5D30",
"]  c #795835",
"[  c #436225",
"{  c #43662A",
"}  c #4C632B",
"|  c #44682B",
" . c #486A2C",
".. c #55622C",
"X. c #48712F",
"o. c #456D33",
"O. c #4B6D32",
"+. c #476638",
"@. c #586A36",
"#. c #467439",
"$. c #54743B",
"%. c #5C793E",
"&. c #577439",
"*. c #656B39",
"=. c #766236",
"-. c #64723D",
";. c #3E7440",
":. c #745D42",
">. c #496C44",
",. c #447241",
"<. c #4C7A49",
"1. c #5B7C46",
"2. c #536347",
"3. c #7C6A41",
"4. c #687946",
"5. c #787649",
"6. c #677959",
"7. c #797F54",
"8. c #6C7B66",
"9. c #814E2F",
"0. c #865736",
"q. c #8C5436",
"w. c #85633E",
"e. c #855E42",
"r. c #816B43",
"t. c #896C47",
"y. c #9D6B4A",
"u. c #946C48",
"i. c #8C734C",
"p. c #87754A",
"a. c #98724C",
"s. c #9D7D53",
"d. c #987852",
"f. c #857153",
"g. c #A47452",
"h. c #A47A54",
"j. c #A47C5A",
"k. c #AB7C5A",
"l. c #AA7554",
"z. c #B17B5B",
"x. c #A36C4D",
"c. c #987F65",
"v. c #A07E60",
"b. c #4C824B",
"n. c #5B8245",
"m. c #648649",
"M. c #688853",
"N. c #77875B",
"B. c #78965B",
"V. c #728750",
"C. c #728364",
"Z. c #888A5A",
"A. c #97845C",
"S. c #A5845C",
"D. c #838B60",
"F. c #9B8A6C",
"G. c #978964",
"H. c #899966",
"J. c #96946C",
"K. c #999669",
"L. c #8B9877",
"P. c #9C9771",
"I. c #8B8B74",
"U. c #A58966",
"Y. c #B28A68",
"T. c #A4966C",
"R. c #A49A74",
"E. c #AD9C7B",
"W. c #A79877",
"Q. c #B3987B",
"!. c #AA8F75",
"~. c #93A16D",
"^. c #9AA576",
"/. c #8CAB72",
"(. c #A7A276",
"). c #B2A27C",
"_. c #BFAE7F",
"`. c #A7B37D",
"'. c #C5A57E",
"]. c #9A9A85",
"[. c #A59C88",
"{. c #B59C81",
"}. c #B19F91",
"|. c #A79892",
" X c #9CA488",
".X c #9DAE8C",
"XX c #A8A986",
"oX c #B4A382",
"OX c #BBAC8C",
"+X c #B5A887",
"@X c #ACB486",
"#X c #B7B48B",
"$X c #A8A693",
"%X c #BCAE91",
"&X c #B7AA9A",
"*X c #BCB392",
"=X c #BAB795",
"-X c #ADB59E",
";X c #BAACA4",
":X c #B8B6A7",
">X c #BFB4B1",
",X c #C29E85",
"<X c #C7A98A",
"1X c #C5B68B",
"2X c #C3AF96",
"3X c #C3B494",
"4X c #C8B998",
"5X c #D6B391",
"6X c #D9BBA4",
"7X c #C6BCB7",
"8X c #C6B4A6",
"9X c #E1BEA8",
"0X c #ADC289",
"qX c #B7CC96",
"wX c #BBD29A",
"eX c #B8CEAD",
"rX c #CAC799",
"tX c #D2CD9C",
"yX c #D7C7A5",
"uX c #D8D8A9",
"iX c #C9C6BB",
"pX c #D7D8B8",
"aX c #D0CFAA",
"sX c #E4C6AC",
"dX c #E6D7AC",
"fX c #EFD2BB",
"gX c #EBD9B2",
"hX c #EFD3B6",
"jX c #D9E9B4",
"kX c #DAE9B5",
"lX c #E8E8B8",
"zX c #F4E8BA",
"xX c #F2F2BE",
"cX c #E6F1BD",
"vX c #D6D3C9",
"bX c #D0CAC5",
"nX c #F5D8C3",
"mX c #F1EDC3",
"MX c #F8F9CB",
"NX c #FFFFD6",
"BX c #EEFBC7",
"VX c #DAE4CE",
/* pixels */
"s s s s c c c i i a a a u u y 6 : - I [ I I I g y i n h h n i u i i i i p t 2 i i i a a a v v u 2 2 ",
"t t u i i i i i i i i y 3 6 g [ @.@.*.-.........[ g g f $ 2 i c i i i i y t t t t t t t a s s a i i ",
"t t t t u u i i y f f g I ..*.5.p.t.r.r.r.r.r.r.! F S - 0 y y i i i i y t y a t s s s s a t t a s s ",
"s s s s t t u u y f g U 4.3.3.w.0.] ` ~ Q Q Q O O o X # @ * l C y i i y t i i t a a a a a < < a i i ",
"s s i i t u u u 2 & I *.p.] ] ! ~ ` ~ ~ ] e.` ` ` . . X   # | l p s s t t p a t a a u a a a a a a a ",
"s i u t u i i u u l Y P K ] 3.U.v.,XQ.<X,X<X5XQ.{.,X{.f.R 9 o.j d s p t t t t t a a a u a a a i i i ",
"i u t t i u i i m f 0 q 4.#XoX<X<XsXsXnXfX6X6XsX9XQ.E.XX@.8 j l p N l i t t t t a u a 2 a a a u u u ",
"u t t t i t u i 3 z z * @.^.4XhX6XyXsXfXfXfXyXhXnX6X+XN.w 0 l p p N N p p y y y p p p t p p p p a a ",
"t t t u i t t i v a y 0 6.aX2XnX4X:.OXsXfX4Xf.c.fXnX+XrXN.w j 7 d p M M N M M M M B M M M N Z d s i ",
"t t u i i t t i a u t 7 1.L.[.sX8X+X2XsXyX2X4X{.nXyX$XXX+.w #.d N V o.M ,.N B <.,.>.,.,.<.,.;.;.v c ",
"t u i i i t t i r t u p 8 w L.:X&X}.8X}.}.&X}.;X;X;X].2.>.<.b.V N #.<.1.,.;.V N ,.,.,.,.<.,.V V s i ",
"i i i i i t t i < t a s N B eXvX:X&X;X|.|.7X;X|.vXvX$X6.>.<.;.V <.#.>.M.,.V V b.j j M M p N s t t t ",
"i 2 s i i u u i s n p 7 B w L.VXiX;X>XiX>X>X7X7XvX:X8.e +.+.,.B B o.1.M.z l p t j j j l d y s v a u ",
"t c t i i u u i C 7 0 8 +.+.C.-XiXvXvXvXbXbXbXbX:X X6.W w 8 8 B f 0 $.n.z t t s l l l l s s a t a a ",
"t c t i i i i i + n..XXXP.*XXX$X$X>X>XiXvXiX:X$X X X.X XN.^.M.- ; % O.n.3 s v u i i i i s i a t a u ",
"a t v t i i y f /.jXMXyXE.OX%X&XXXI.].;X$X[.].].=X=X@XJ.@XNXlX@XO.: &.1.3 4 u c u y u u 4 u i c a a ",
"b 1 b r t & O.qXNXuXyX3XE.3X3X4X%X[.W.oXF.W.+X*X%X3X+XP.#XyXtXNXjX4.} m.6 n h + u u u u u u u i i i ",
"b r b a y M.cXNXMXlXyXoXR.*X*X4X3XOXW.F.F.W.OX4X*XOX*XP.T.OXzXzXxXxX^.&.* n n u u u u u u u u u i i ",
"n v 2 & M.kXaXuXmXuX=XG.P.#XOX*X3XOXE.F.E.oXOXOX=X#X=XJ.J.#XuXdXzXzXrXV.g h i < u u u 4 u u u u i i ",
"< h 6 X.aXjX4X*XrXH.7.E J.+X+XOXOXOX{.T.E.oX%X3X#X=XXXP.E @.K.1X_.1X1XK.H.= u i 5 u 4 4 u u u u i i ",
"3 f : 0XMXmXgX1XD.O.@ 9 D.(.=X#X*XOXE.F.F.oXOX%X4X=XE.J.} q @ -.1XgX<XR.kX| $ c u 5 u u u u 5 u t t ",
"y * %.BXmXdXyX3X$.0 { I V.^.XX=X3X2XE.F.T.oX3X3X*X#XR.D.{ f z } (.5X5XU.MX/., y u u u 4 u u 5 5 t t ",
"i f /.cXuX4X3XP.o.y f q 4.^.@X*X*XOXE.F.T.oX2X*X@XXXJ.N.k C f I T.dX<XY.zXuX{ $ y u u u u u 5 5 t t ",
"i $ qXuXrXgXrXZ.% m 0 $.N.N.XX#XoX).T.A.G.W.oX+XXXXXG.7.#.7 z : K.tX'.u.1XtXB.; y u u u 4 u 5 5 t t ",
"y * ~.uXdX1XK...- { { 1.H.H.K.).).R.K.G.R.E.).oX).G.G.J.4.q q q 4.uX1X1XtX#X .= y u u u i u 4 2 t t ",
"i % ~.MXgXgX(.G - | q -.Z.Z.T.oX+X).T.A.R.E.).oX!.Q.E.R.7.} 0 ; { wXlXdXuXwXg m u u u u 4 4 i c t t ",
"f $.lXlXzXyXuXV.g % } Z.5.d.U.Y.U.A.d.i.A.G.U.U.U.Y.U.i.5.@.0 l f  .#XrX`.M.6 4 u u u u 4 4 i c t t ",
"z o.wXjXlX@X@XH.% k H.(.i.u.u.u.t.p.i.p.=.3.r.t.s.j.g.d.A.4.> y f * 4.@.[ = y i u u u u i i 4 2 t t ",
"y * f #.B.H.M.| ;  .`.A.j.z.g.0.] ' R T P *.3.i.j.k.l.a.s.p.} % 3 f 1.X.; y u i 4 i i 2 u 2 u n i i ",
"#.z 3 * * y f f q H.K.s.g.q.x.0./ R I : q U R / a.h.l.g.s.i.*.: x z m.#.f 2 c u i 4 4 i < i c u i i ",
"f x z z z l f g O.(.i.y.l.l.k.( R q ; 3 * * - T =.g.k.h.s.s.p.T 6 x n.X.* n 2 i i 4 4 i < i c u t t ",
"* z m y y h f : ~.G.S.Y.z.g.] D I f y u n h f G / u.j.a.h.s.a.=.G g n.X.f 5 i u 4 i i 4 u 2 u n 2 2 ",
"i i i i y f x &.Z.S.k.y.y.w.R U x y i u u u 5 6 P ' S.S.l.h.h.=.I : %.{ f y y u u u u 4 u t u u i i ",
"a a a i l h 6 } A.s.l.k.t.' U g y u u u u u 4 3 G R p.h.l.g.g._ U : %.{ x y y u u u u u s s i i i i ",
"a a a i 2 f f &.A.k.y.0.] L G h u u u u u u u u ; U ' u.k.z.k.=.U g %.{ x y 5 i u u u u 4 2 4 4 i i ",
"i i u i i h f O.r.w.0.^ / D g h u i i u u u u y 3 [ D 0.y.y.u.! U q %.{ x y y u u u u u i i i i i i ",
"l i u 2 l l y [ ! ) ) ) H G g y i u u u v v v n z I D ~ 9.q.) ! U q %.{ x y y u u u u u i i i i s s ",
"h i y t i i y q R ( ) ( F T { 5 i u u u 4 4 4 4 h q L ( q.9.! D U [ %.| f u u u u u u u 2 2 2 2 i i ",
"y y i i i i u ; R / ( ( H A : h u u u u 2 2 2 2 3 q K ] q.^ F P I g %.{ f y u u u u u u i i i i i i ",
"* y i s i i y ; R / ( ( F T [ 3 u u u u u 4 u u * : K 0.0.Q S U I q %.{ f u u u u u u u t t t t t t ",
"y & n t a s y g T / ^ 0.H G g y u u u u u u a i n : D 0.9.. T I g { %.{ f i i u i i a u u u u u i i ",
"i 2 c 2 u l y g P K 0.0.H G g y u u u u u u a i y : K 0.Q . P q g  .1.{ h i u u i i a a u u u u i i ",
"i u i t y l y g I L ( ) ! P q y u a a a u u u i 3 q L / F S I g 0 O.1.g h i u u i i a a u u u u u u ",
"a i 2 3 y l y f { E ! Q K P q y u a a a u u u y h I S X F S I  .: O.m.g h i u u i i u a u u u u u u ",
"a t 2 y f f y f q Y K ! S # z & y u u u a a u u y q A D K D A # g g $.g h i a u i i a t u i i i i i ",
"u t t i y y y f } Y L S   9 f l t u u u a a a t y 0 I J A A P - @ > $.g y i a a 2 t i s i i i i i i ",
"y 2 t i i y f q Y L J # @ j y p t a u a a a a i y f k q - q q 0 = > $.g y u a a 2 t i s i i i i u u ",
"3 t a i a i f q 9 J 9 9 j N p t t a u a a i a i p p l j z j & f f f $.f y u a a i i u t i i u i t t ",
"2 i i i i i y y f f f f p p p p t a s a i s s t i i i i y y t y l y y y t a u a u u u u i 4 u i t t ",
"2 i i i i i u u y y i i i i p a t a s a i s s t i i i i i t t i p i t t t a u t u u u u i 4 u i t t "
};
