/* XPM */
static const char *flore1[] = {
/* columns rows colors chars-per-pixel */
"50 50 194 2 ",
"   c #010000",
".  c #0B0101",
"X  c #050905",
"o  c #0A0905",
"O  c #0C0608",
"+  c #060D08",
"@  c #0C0B08",
"#  c #130101",
"$  c #190303",
"%  c #110A06",
"&  c #130709",
"*  c #1D0608",
"=  c #130B0B",
"-  c #13110E",
";  c #151412",
":  c #230506",
">  c #210B0D",
",  c #29110F",
"<  c #220B11",
"1  c #231314",
"2  c #2B1B1A",
"3  c #291818",
"4  c #301816",
"5  c #321A1E",
"6  c #381E1B",
"7  c #351312",
"8  c #2C211F",
"9  c #391F20",
"0  c #342424",
"q  c #3D292B",
"w  c #422D2E",
"e  c #442427",
"r  c #51282C",
"t  c #44312D",
"y  c #433134",
"u  c #4E3334",
"i  c #4B3B3A",
"p  c #513539",
"a  c #543B3A",
"s  c #692830",
"d  c #60373B",
"f  c #703139",
"g  c #5E3F44",
"h  c #4E4040",
"j  c #564143",
"k  c #5E4E4E",
"l  c #604E4A",
"z  c #6A4B4E",
"x  c #614245",
"c  c #7B4A4D",
"v  c #744548",
"b  c #664B50",
"n  c #7C4C50",
"m  c #695958",
"M  c #76585A",
"N  c #71645E",
"B  c #7A6465",
"V  c #7B6569",
"C  c #7F7171",
"Z  c #87565A",
"A  c #93565D",
"S  c #925D61",
"D  c #995A62",
"F  c #836164",
"G  c #8B6366",
"H  c #816967",
"J  c #8D6A6D",
"K  c #9E666C",
"L  c #926A6C",
"P  c #986469",
"I  c #9D6C70",
"U  c #857878",
"Y  c #8C7778",
"T  c #947274",
"R  c #9D7476",
"E  c #977876",
"W  c #9C777A",
"Q  c #967A7D",
"!  c #997A7E",
"~  c #96757C",
"^  c #A6676D",
"/  c #A26B6F",
"(  c #AA6C6F",
")  c #A56B71",
"_  c #AA6C74",
"`  c #B06D76",
"'  c #A37779",
"]  c #AC747A",
"[  c #AA787A",
"{  c #A4797A",
"}  c #B3757C",
"|  c #B8777F",
" . c #9E827F",
".. c #A3817F",
"X. c #9C7F81",
"o. c #A57F82",
"O. c #AE7A85",
"+. c #B47C83",
"@. c #BA7C83",
"#. c #9C8385",
"$. c #9C8E8F",
"%. c #A48284",
"&. c #AC8186",
"*. c #A58B8D",
"=. c #AB8C8D",
"-. c #A78788",
";. c #B48286",
":. c #BC8286",
">. c #BD838A",
",. c #B3898C",
"<. c #B98B8E",
"1. c #B78489",
"2. c #A28D92",
"3. c #B58D92",
"4. c #BB8A92",
"5. c #AB9394",
"6. c #AC959A",
"7. c #AA9A9D",
"8. c #B19293",
"9. c #BC9395",
"0. c #BB949B",
"q. c #B49C9B",
"w. c #BA999A",
"e. c #BC9CA2",
"r. c #BFAAAC",
"t. c #BDA5A5",
"y. c #C2878F",
"u. c #C38A8D",
"i. c #C38087",
"p. c #C38D92",
"a. c #C98B93",
"s. c #D18E97",
"d. c #C59496",
"f. c #C3949B",
"g. c #CC939A",
"h. c #C49B9D",
"j. c #C89A9B",
"k. c #C99295",
"l. c #D0959C",
"z. c #D09A9D",
"x. c #C49CA4",
"c. c #CB9DA3",
"v. c #D39CA3",
"b. c #D99CA4",
"n. c #C4A2A5",
"m. c #CBA1A3",
"M. c #CDA6AB",
"N. c #C7A8AE",
"B. c #CCAAAC",
"V. c #C5A7A9",
"C. c #D8A1A7",
"Z. c #D5A4A9",
"A. c #DDA3AB",
"S. c #DDABAD",
"D. c #D4A5A7",
"F. c #CDABB1",
"G. c #D4ADB2",
"H. c #DCACB3",
"J. c #CAB0B3",
"K. c #D4B2B3",
"L. c #DDB2B5",
"P. c #DAB6BC",
"I. c #E1A2AA",
"U. c #E1AAAF",
"Y. c #E2ADB2",
"T. c #EAABB3",
"R. c #E6B3B7",
"E. c #E4B3BA",
"W. c #EBB2B9",
"Q. c #E4BCBE",
"!. c #EBB9BF",
"~. c #DDBEC2",
"^. c #DABCC1",
"/. c #D5BFC2",
"(. c #E5BEC3",
"). c #F1BAC0",
"_. c #DEC0C5",
"`. c #DBC0C5",
"'. c #EFC4C6",
"]. c #E4C3C9",
"[. c #EDC9CE",
"{. c #E6C6CB",
"}. c #F5C7CC",
"|. c #EDCAD0",
" X c #F3CFD5",
".X c #FFC8D1",
"XX c #ECD1D5",
"oX c #EDD9DB",
"OX c #FED3D5",
"+X c #FFDDDD",
"@X c #F3D4D7",
"#X c #F6DDE1",
"$X c #FADDE3",
"%X c #FFE5E6",
/* pixels */
"                                                                                                    ",
"                                                                                                    ",
"                                                                                                    ",
"                                                                                                    ",
"                                                                                                    ",
"                                                                                                    ",
"                                                                                                    ",
"                                                                                                    ",
"                                        o         X       @                                         ",
"                                  o       X       X           X                                     ",
"                                o     X   o               X X                                       ",
"                                    X @       - o o X       X                                       ",
"                                  O .   1 q 3 . . .                                                 ",
"                                X     0 $.r.q.B 0 $ .   ;     X                                     ",
"                                    = Y /.t.V.B.8.Y w .                                             ",
"                                    . 7.#X_.^.P.x.(.*.1 . . X                                       ",
"                        X     +     O $.oXXX_.].K.w.~.p * . . . 6 u a 3   o                         ",
"                          X           U oX#X_.F.w.F.M.J $ # a -.&.{ E H i o                         ",
"                    @ =       =   . . k {.XX|.P.H.&.M.W $ T B.T I P G T B #   X                     ",
"                          . . . . . # w ~.[.[.H.M.c.x.G L n.W o.g.l.j.9.X.0 O                       ",
"                X     . . . * 3 3 $ # # T }.}.L.Z.d.<.<.<.R ,.j.b.I.A.9.! j &                       ",
"                  X   . $ 5 b #.*.#.M e d !.!.S.v.>.;.;.[ <.c.v.T.T.Y.f.X.j .                       ",
"                  -   . i 5.N.n.-.8.%.L v p.W.A.g._ :.+.[ j.9.Y.I.b.v.3.=.i O @                     ",
"                      h r.].P.].(.n.9.;.Z Z T.C.>.@.} ] >.d.R.D.U.S.m.=.5.8                         ",
"                      U XX^.[. X[.Q.L.Z.;.S } I.` | ^ @.p.z.z.S.D.h.w.t.m                           ",
"                  X o U oX$X$X X+X+X'.E.!.k.) a.@.) @.@.u.z.u.[ ,.w.q.N %   +                       ",
"                      3 B 6.`.@XXX X+XOXOX}.v.y.^ s D _ :.p.k.d...-.l         +                     ",
"                  X     . 0 j B #.=.n.h.f.H.).C._ f A _ ) / +.d.9.# #   o                           ",
"                    @     .   . . , $ : r v ) >.a.>.@.>.) K P S m.K.6 #     X                       ",
"                          X   o . . # u M R j.A.W.v.@.l.>.+./ S c R B.4 .   X                       ",
"                      X         . . l Q %.M.H.Z..X} ) g.g.:.] ] K c ' w.. .   -                     ",
"                            +   . t q.=.3.(.j.H.H.n I 1.>.p.y.] ) A c ,.z # =                       ",
"                                $ %.0.<.c.R.p.'.{ 7 ..J j.p.>.s.i.( S n T # . .                     ",
"                                9 Q.<.k.A.C.4.%Xx # H  .L ;.b.` } } ) Z G > &                       ",
"                                M G.&.c.E.>.H.M.: . 3 5.%.&.+.b.@.:.1.' F * .                       ",
"                                m n.x.G.c.4.(.z # # . 1 *.o.O.O.] ' L F u .   o                     ",
"                                2 J.e.n.0.G.~ $ . %     y ! 0.0.h.,.F p # .                         ",
"                                & #.e.F.x.! 5 . .   @   . . q x g e * . . o X                       ",
"                                . y 2.6.H < . =   X   X   & . # > . . . . X                         ",
"                                  . 1 1 . . .           X   = . . . O                               ",
"                                                                                                    ",
"                                                                                                    ",
"                                                                                                    ",
"                                                                                                    ",
"                                                                                                    ",
"                                                                                                    ",
"                                                                                                    ",
"                                                                                                    ",
"                                                                                                    ",
"                                                                                                    "
};
