/* XPM */
static const char *flore2[] = {
/* columns rows colors chars-per-pixel */
"50 50 183 2 ",
"   c #010000",
".  c #0A0101",
"X  c #090907",
"o  c #0A0909",
"O  c #130202",
"+  c #180305",
"@  c #170805",
"#  c #170B09",
"$  c #1B0D0B",
"%  c #220D0B",
"&  c #26130F",
"*  c #380F13",
"=  c #241313",
"-  c #2F1619",
";  c #2C1819",
":  c #311917",
">  c #30171A",
",  c #311D1C",
"<  c #3B1D1D",
"1  c #321F21",
"2  c #332322",
"3  c #392727",
"4  c #3B2728",
"5  c #3B2D2C",
"6  c #46282A",
"7  c #4C282A",
"8  c #472426",
"9  c #45312E",
"0  c #433333",
"q  c #4D3B3A",
"w  c #493335",
"e  c #523B3A",
"r  c #5A3D3F",
"t  c #64252D",
"y  c #79363F",
"u  c #5B3E41",
"i  c #703F45",
"p  c #5C4345",
"a  c #594747",
"s  c #5F514F",
"d  c #65484A",
"f  c #684B4D",
"g  c #714749",
"h  c #794249",
"j  c #76484B",
"k  c #674D50",
"l  c #684F52",
"z  c #7C4E51",
"x  c #6A5656",
"c  c #6D5958",
"v  c #705453",
"b  c #7C605F",
"n  c #795F62",
"m  c #756766",
"M  c #7D6C6C",
"N  c #7D6366",
"B  c #8D5057",
"V  c #875459",
"C  c #8B5A5E",
"Z  c #865F64",
"A  c #925D62",
"S  c #9D5A62",
"D  c #A05D66",
"F  c #A05E68",
"G  c #8B6767",
"H  c #866867",
"J  c #876A6B",
"K  c #986B6E",
"L  c #93686A",
"P  c #93716F",
"I  c #976D71",
"U  c #9B6E72",
"Y  c #8E7475",
"T  c #9A7273",
"R  c #9F767A",
"E  c #937A7A",
"W  c #9D7D7D",
"Q  c #907272",
"!  c #A5646C",
"~  c #A36E74",
"^  c #AB6A72",
"/  c #B16D75",
"(  c #B26F78",
")  c #A27275",
"_  c #AD7077",
"`  c #A37479",
"'  c #A6797C",
"]  c #AA797D",
"[  c #B4747B",
"{  c #B8757D",
"}  c #B3797E",
"|  c #9B827E",
" . c #A3807E",
".. c #987F82",
"X. c #AF7780",
"o. c #A57D81",
"O. c #A87D81",
"+. c #B47D83",
"@. c #BA7C83",
"#. c #8F8181",
"$. c #9C8384",
"%. c #968484",
"&. c #AD8384",
"*. c #A48887",
"=. c #AB8589",
"-. c #A68A8B",
";. c #A38588",
":. c #B38185",
">. c #BC8184",
",. c #BD858B",
"<. c #B4898C",
"1. c #BD8A8E",
"2. c #A7928F",
"3. c #AC8D92",
"4. c #BD8E91",
"5. c #AB9294",
"6. c #AD9897",
"7. c #AF999B",
"8. c #B49394",
"9. c #BA9394",
"0. c #B29B9A",
"q. c #BF9C9E",
"w. c #B8959A",
"e. c #B99CA0",
"r. c #BCA4A3",
"t. c #C18285",
"y. c #C5848B",
"u. c #C3898E",
"i. c #C38C92",
"p. c #CC8D95",
"a. c #C49296",
"s. c #C59399",
"d. c #CA949A",
"f. c #C49A9D",
"g. c #CD9A9E",
"h. c #D0999F",
"j. c #D0939A",
"k. c #C29EA0",
"l. c #CC9DA1",
"z. c #D19DA2",
"x. c #D89EA5",
"c. c #C3A3A5",
"v. c #C3AFAE",
"b. c #C9AAAD",
"n. c #CBA2A5",
"m. c #D2A3A7",
"M. c #D4A4A9",
"N. c #DBA3AA",
"B. c #D5A9AC",
"V. c #DCAAAD",
"C. c #DEADB1",
"Z. c #CCB3B4",
"A. c #C7B5B3",
"S. c #D2B1B3",
"D. c #DAB3B6",
"F. c #D7B7B8",
"G. c #DFB7B8",
"H. c #DCB9BD",
"J. c #E2A7AD",
"K. c #E4A9AF",
"L. c #E4ACB3",
"P. c #E5B2B6",
"I. c #E2BABD",
"U. c #ECBABF",
"Y. c #EAB6BA",
"T. c #D9BFC0",
"R. c #EBBDC0",
"E. c #D9C4C3",
"W. c #E4C2C3",
"Q. c #EBC3C5",
"!. c #E3C9C9",
"~. c #E9CBCB",
"^. c #E5C5C8",
"/. c #F2CBCC",
"(. c #F3C5C7",
"). c #FACDD0",
"_. c #E9D1D1",
"`. c #F3D5D7",
"'. c #F3D2D4",
"]. c #FAD5D5",
"[. c #F5DADA",
"{. c #FADCDB",
"}. c #F9E7E7",
/* pixels */
"                                                                                                    ",
"                                                                                                    ",
"                                                                                                    ",
"                                                                                                    ",
"                                                                                                    ",
"                                                                                                    ",
"                                                                                                    ",
"                                                                                                    ",
"                                  .                                                                 ",
"                                      X               X                                             ",
"                                .                                                                   ",
"                                                . . .   .                                           ",
"                                              . . O . , 5 $                                         ",
"                                              . O - N 5.7.6., .                                     ",
"                                  X           2 Y w.b.b.c.!.E .                                     ",
"                                  .         $ 0.S.c.H.H.H.{.0..                                     ",
"                  X       . & e u > .       p F.l.B.H.^.~.{.5..                                     ",
"                        . 9 P P ` =.$.q . . J B.g.m.I.W.`.[.M .         X                           ",
"                X     . O H T U K I R c.Y O G l.s.m.D.W.`._.s . . .                                 ",
"                      . w W 1.d.d.s.+.U f.R L a.l.B.D.^.`.Z.2   . . .   .                           ",
"                      . u U i.K.L.h.z.u.` :.s.+.a.M.D.W.{.W . . % , % . . .                         ",
"                    . . p =.,.J.L.L.x.d.i.] +.+.i.d.B./.D.7 < b E *.*.J 2 .                         ",
"                  o   . p =.s.z.N.L.J.h.i.:.+.@.} a.B.I.<.j ` ' <.8.f.8.6.q .                       ",
"                        1 5.<.l.V.M.V.N.a.i._ @.+.>.B.B.C C X.s.V.I.W.W.Z.A.0                       ",
"                          c c.w.f.m.z.M.g.,.[ { [ } V.` A ,.g.P.Q././.~.T.E.#.                      ",
"                          . c r.8.&.1.1.a.d.y.^ D } 1.) l.N.R./.].].].[.{.}.M .                     ",
"                  X         . e |  .,.j.p.{ [ S y ! +.V.U.).{.{.[.[.!.E.r.m @                       ",
"                            O . % f.x.[ ! ! / S t ^ L.P.M.n.r.0.2.%.M p =                           ",
"                            . : S.a.B S ( [ @.} u.i.,.A V 8 % $ # . .   . .                         ",
"                        . . % F.O.h ! / ^ ,.u.,.g.Y.V.z.~ C 6 . .                                   ",
"                X         O e.R h F ! [ u.4.f.T ' (.l.U.z.] <.f       X                             ",
"                        . l =.i S ^ [ >.1.a.&.K g I.D.f.C.d.] q.0                                   ",
"                        . Q z A ! >.t.y.i.,.` O.* o.'.8.B.m.<.9.-..                                 ",
"                      . % H C ~ @.t.>.u.i.~ O.Z O r [.r.k.B.a.4.b.9 .                               ",
"                X       @ v ' +.} } u.1.' O.;.& . + v.Z.9.B.N.1.S.x . .                             ",
"                    X   . e T K ~ :.:.O.o.-.3 . o . s E.8.l.N.d.b.s . .                             ",
"                          . 6 G =.9.9.8...2         . %.b.f.N.s.b.5                                 ",
"                X         . . + 8 d l 4 .     X   o   = ;.w.M.n.$.$                                 ",
"                            . . . . . . .               = n w.3.w                                   ",
"                                .                       . . & $ .         X                         ",
"                                                                                                    ",
"                                                                                                    ",
"                                                                                                    ",
"                                                                                                    ",
"                                                                                                    ",
"                                                                                                    ",
"                                                                                                    ",
"                                                                                                    ",
"                                                                                                    ",
"                                                                                                    "
};
