/* XPM */
static const char *mushroom1[] = {
/* columns rows colors chars-per-pixel */
"50 50 256 2 ",
"   c #000001",
".  c #0B0205",
"X  c #02010B",
"o  c #0B030B",
"O  c #0D080F",
"+  c #12040C",
"@  c #19040A",
"#  c #010113",
"$  c #0A0A14",
"%  c #03031B",
"&  c #0A0B1B",
"*  c #0A0717",
"=  c #1A0717",
"-  c #091018",
";  c #28040A",
":  c #210513",
">  c #270A18",
",  c #360A1B",
"<  c #23121D",
"1  c #020523",
"2  c #010529",
"3  c #0B0B2B",
"4  c #090826",
"5  c #130B23",
"6  c #150C2B",
"7  c #1B0C27",
"8  c #18142C",
"9  c #080C33",
"0  c #160E36",
"q  c #0B1A39",
"w  c #1C123C",
"e  c #151439",
"r  c #0C152D",
"t  c #250925",
"y  c #390C28",
"u  c #2A132A",
"i  c #32162A",
"p  c #360C39",
"a  c #29153A",
"s  c #381839",
"d  c #250A34",
"f  c #0C2238",
"g  c #430B29",
"h  c #461228",
"j  c #59152B",
"k  c #481737",
"l  c #591736",
"z  c #4F0D34",
"x  c #7D1B27",
"c  c #6D1732",
"v  c #792230",
"b  c #520D1C",
"n  c #0C1744",
"m  c #191643",
"M  c #0D1D58",
"N  c #100D44",
"B  c #281747",
"V  c #381947",
"C  c #381B54",
"Z  c #2C1D53",
"A  c #0F2949",
"S  c #082451",
"D  c #162759",
"F  c #12335C",
"G  c #132E51",
"H  c #392257",
"J  c #353253",
"K  c #26264F",
"L  c #132E69",
"P  c #183368",
"I  c #163A77",
"U  c #0D2C63",
"Y  c #372864",
"T  c #2B3876",
"R  c #481A46",
"E  c #551747",
"W  c #481A56",
"Q  c #561A5C",
"!  c #7C0F48",
"~  c #7A1546",
"^  c #75195A",
"/  c #6C1451",
"(  c #432248",
")  c #5A2548",
"_  c #472458",
"`  c #5A2658",
"'  c #6A265B",
"]  c #77245D",
"[  c #77264F",
"{  c #541C62",
"}  c #7A1B68",
"|  c #671868",
" . c #462666",
".. c #572769",
"X. c #582A72",
"o. c #573578",
"O. c #4D3070",
"+. c #682766",
"@. c #772769",
"#. c #652975",
"$. c #792977",
"%. c #713773",
"&. c #184976",
"*. c #2F5270",
"=. c #6D4D7F",
"-. c #8E0E1E",
";. c #AF1B1B",
":. c #861725",
">. c #891938",
",. c #971D39",
"<. c #B01A2A",
"1. c #88282A",
"2. c #962829",
"3. c #872336",
"4. c #962638",
"5. c #9A3636",
"6. c #A7262C",
"7. c #B82829",
"8. c #A72C39",
"9. c #A63839",
"0. c #B83035",
"q. c #B6201F",
"w. c #C6191B",
"e. c #DA1B1B",
"r. c #CA272A",
"t. c #CA2D35",
"y. c #C73439",
"u. c #D53539",
"i. c #D22632",
"p. c #FF222D",
"a. c #E52B34",
"s. c #F92733",
"d. c #EA3338",
"f. c #E7141B",
"g. c #83154C",
"h. c #99154A",
"j. c #8B1B58",
"k. c #991356",
"l. c #A9175A",
"z. c #B4195E",
"x. c #95265C",
"c. c #932853",
"v. c #A62749",
"b. c #B72A59",
"n. c #AF324C",
"m. c #991B64",
"M. c #8D1C6D",
"N. c #A91B68",
"B. c #B7186A",
"V. c #AF1C73",
"C. c #86266A",
"Z. c #992767",
"A. c #8B2776",
"S. c #952874",
"D. c #8A3475",
"F. c #963677",
"G. c #933B6F",
"H. c #BB266B",
"J. c #A5396A",
"K. c #A72777",
"L. c #B52579",
"P. c #AF3174",
"I. c #C93B45",
"U. c #D83C45",
"Y. c #D52C57",
"T. c #E53A48",
"R. c #E93859",
"E. c #E82B52",
"W. c #C7176C",
"Q. c #D81B76",
"!. c #C91C73",
"~. c #C4216D",
"^. c #C73768",
"/. c #D82977",
"(. c #C53778",
"). c #D52E70",
"_. c #E8316A",
"`. c #965C53",
"'. c #BA4448",
"]. c #AC4F51",
"[. c #BE5569",
"{. c #A55F6A",
"}. c #C9444C",
"|. c #D54249",
" X c #CA4652",
".X c #DA4557",
"XX c #CC5257",
"oX c #E6475A",
"OX c #E7424A",
"+X c #D94B63",
"@X c #CA5467",
"#X c #D55566",
"$X c #CD4E74",
"%X c #E34669",
"&X c #E0546E",
"*X c #C86173",
"=X c #183F8A",
"-X c #493D85",
";X c #7B3585",
":X c #71368B",
">X c #1B458B",
",X c #195588",
"<X c #185898",
"1X c #124F92",
"2X c #384287",
"3X c #205896",
"4X c #324D96",
"5X c #1A6691",
"6X c #1A5BA5",
"7X c #1967A8",
"8X c #1A76AD",
"9X c #1B7BB8",
"0X c #2777B9",
"qX c #2873A8",
"wX c #2A639C",
"eX c #484A96",
"rX c #564E96",
"tX c #634793",
"yX c #754A8E",
"uX c #5156A7",
"iX c #7352AD",
"pX c #546EA9",
"aX c #2D70C4",
"sX c #7576D3",
"dX c #6C73CD",
"fX c #4D77CD",
"gX c #972288",
"hX c #873886",
"jX c #8F3390",
"kX c #AB2C8B",
"lX c #AA1D90",
"zX c #D23691",
"xX c #D01E8E",
"cX c #86448A",
"vX c #854695",
"bX c #9A4098",
"nX c #B54790",
"mX c #8E53AC",
"MX c #CF4D8D",
"NX c #CA6983",
"BX c #D16D8C",
"VX c #EF52A1",
"CX c #8866C6",
"ZX c #2386B8",
"AX c #3787AA",
"SX c #1980AD",
"DX c #1B90CD",
"FX c #2692CF",
"GX c #1AA5DC",
"HX c #22AADD",
"JX c #2FB6EA",
"KX c #5187D9",
"LX c #5193E4",
"PX c #4EA7E7",
"IX c #30D4FC",
"UX c #8882CC",
/* pixels */
"                                                  X X X                                             ",
"                                      X % 3 0 B Q | Q V a 0 4 % X X                                 ",
"                                X # 4 B C W @.xXk.! B.L.s V C C B 1 # X                             ",
"                              X 1 B ..V &   y k.! ! ! g = g y t V ..C 1 # X                         ",
"                          X # 0  .gXlX= > g +   o = o   , B.B., + V.xXX.0 % X                       ",
"                        X # m X.| gX/ : / N.g : c ! g.! > @ > .   g m.E ..m % X                     ",
"                      X # B #.lXM.^ kXy       ~ l.; : h.j.          = } S.;Xw % X                   ",
"                    X # B  .d } } ^ E : .     : ~ ~ ~ ~ , : >   > > t lX^ gXX.0 % X                 ",
"                  X % B  .Q R o o > ~ ~ g.l       + @     g.x.. > >   p ^ R d  .0 # X               ",
"                X 1 C C 7 A.|     z !.c k.j.  @ >         . +               = V ..m % X             ",
"            X 1 B X.$.| p     h :   , z y .   . +       . y       + j.m.=   y kXgX#.C 4 # X         ",
"        X % w _ W kXlXS.y h k +                 : .     . > .   o o y g .   . k A.p V #.B 1 # X     ",
"      # 3 H C 6 d W 7     / ~ ; ; ; , j @ + ~ l . . . . : + . z V.z +   .         X 5 gXjX .9 % X   ",
"  X # w  .V d + C.C.; , j c 1.5.5.2.2.1.1.1.4.3.v :.:.x v v x ,.v.v.4.3.v c j j j j j z k W ;Xm % X ",
"  # w X.p gXH.>.3.4.8.9.6.0.7.t.u.u.u.u.e.|.}.y.r.|.r.u.u.t.}. X}.y.r.0.;.6.7.<.6.v.n.4.v.h.xXhX3 # ",
"X 4 O.+.j.b.n.8.;.r.y.u.u.d.T.OXOXoXoX#XXX}.*X#Xy.XXy.'.'.XXNXNX*X X XI.I.U.U.T.T.U.u.t.8.v.v.Z.V # ",
"X w Y Q x.3.8.y.|.|.|.|.}.}.I.y.7.7.7.6.9.'.].{.{.`.`.`.].'.I.}.'.[.@X*X*X@X+X.X+X%X%X%XY.b.~ Z.V # ",
"X 6  .%.[ b.T.T.T.|. XI.y.t.t.t.t.7.q.q.;.9.2.q.w.w.r.r.6.9.7.w.r.i.U.#X*XNXNXBXBXMX&X%XY.z.M.#.1 # ",
"X % Z %.+.x.Y.E.R.R.oX&X#X#X@X}.n.n.}.y.0.].w.p.p.p.p.s.f.5.6.7.y.}. X@X@X@X.X.XR.R.R.E.W.K.;X0 # X ",
"  X % B O.o.$.A.Z.H.$X$X+X.XU..X#XNX@X*X].].w.s.a.a.a.d.e.9.0.XX#X+X+X.XoXR.R.E.E._.Q.L.A. .3 #     ",
"      X 4 w Z  .X.;XhXjXP.b.^.^.$X_.%X+Xi..X.X1.x 2.2.6.XX.XR..X%X_.R._.E.Y.~.K.A.| W B 4 # X       ",
"          X # % 1 3 0 Z O.;X;XhX$.@.A.F.K.P.$Xx -.<.:.-.+X_./.).H.K.Z.C.} { B 9 1 # X               ",
"                      X # % 6 6 4 1 1 9 m N +.,.>.,.:.:.J.{ C B m 9 2 1 1 % X X                     ",
"                                        X % ` v.h.h.>.>.G.9 # X X     X X X X                       ",
"                                        X % ' b.z.h.k.l.J.0 X         # 8 R V a # X                 ",
"                                        X % ] !.W.l.l.B.P.9 X       % V ` k k ) V % X               ",
"                      X 6 s s 6 # X     X 1 C.Q.W.B.N.W.F.2 # X % 6 _ s k i k u ' w X               ",
"                    X 6 ` E ) ' R 4 # X X 2 S.Q.W.B.B.~.D.2 % 1 ( s s i = < < i ) ( % X             ",
"                  X % ` R 7 < < h ) a % % w L.Q.W.B.B.!.D.2 % ` MXx.l , @ = . < s ( B #             ",
"                  % s E h h j >.J.(.F.3 % C /.Q.W.B.V.!.C.2 % B nXVXVX$X0.4.v j l l @.6 X           ",
"                  6 @.J.^.MXR.E.nXD.a % 1 @./.Q.B.N.N.H.C.2 # X % w _ ^.a.T.MXnXMXMX%.& X           ",
"                  % V ` ` _ v.b.B # % 6 3 K./.!.B.m.Z.V.D.2 # 5 & X 3 J.<.n.a 3 6 5 # X             ",
"                      X X % x.(.R % %.:XB P.!.B.N.j.C.Z.F.9 % Z B X s ^.b.J.6 X                     ",
"                        o X ] zX+.% V B _ kXV.N.N.^ j.j.F.e % w w X ` (.H.F.%                       ",
"                        X # R (.kX0 3 P yXL.N.N.N.^ ] ] F.B % m G 3 D.kXL.@.% X                     ",
"                      * H  .0 F.zX..n >XcXL.m.N.m.^ ' ' F._ 9 P P D bXjXkX..2 7 u 7 =               ",
"                    X 4 tX-Xn o.zXjXD m D.K.M.m.C.' +.` C.#.M I L 4XCXiXmX-XS B cX%.7               ",
"                    X % F >X=X0XUXCXrXP hXS.} C.+.+.....+.cXT >X6XfXPXLXsX4XI S T D X               ",
"                  5 5 % F <XaXDXPXdXiX2XhXC.' @.Q ..o.O.o.cXrXDXDXdXLXLXsX4XU n P S X               ",
"                X a H % 9 L 3X6XiXjXjXtXhXD.` +. .o.tXeXeXtXmXFX0XmXjXiXmXP M n 4 * & & X           ",
"              X % 9 P P q n n S o.kXhXcX%.D.Q #.Y -XuXuX4XeXyX-XY kX$.hXvX1XHXFXI 9 O.o.* X         ",
"              # 3 2XJX<X<XFXD S rXvXhXvX%.G.W ..O.T eXuXeX2X-XyXyXhX:XmXiX<XFXHX<XD K 4 X           ",
"              X % m P P &.8X1X0XFXaXvXyX .G.R V ` H Y O.o.Y  .%.yX:XKXIXJX7X>XM n e n tXX.s X       ",
"                X X X 3 D 8X9XwX>XuXdXPXqXG.( u s s 7 V V _ s ` yX4X7XFXJXJXDX7XL m w  .X.a X       ",
"                  7 5 # F DX8XI 7X3XDXIXGX=.) u J J = i u k t ) yX9X0X6X1X<X9XHX,Xq r X             ",
"                  a a & 8 5X,XA &.m n ,XDXwX) wXJXZXqXJ K AX*.z K 8XDX&.e 4 q F q 5 F &             ",
"                        $   o $ o r 9Xq G ZXG G 7X<XZXG ,XHXSX5XF SX&.&.5X* X X 5 $                 ",
"                        8 a & $ . X r # $ f $ * 5X<XA   r & q 5Xf 8 o r f $ & - O X                 ",
"                        $ X                               .     O - 4 K 6                           ",
"                                                                    X & &                           "
};
