/* XPM */
static const char *nrabbit3[] = {
/* columns rows colors chars-per-pixel */
"50 50 221 2 ",
"   c #3B3C2A",
".  c #1F4D1C",
"X  c #1E531D",
"o  c #1D5C1C",
"O  c #175E18",
"+  c #254D1C",
"@  c #2A461E",
"#  c #23531C",
"$  c #245F1E",
"%  c #285C1D",
"&  c #275A1A",
"*  c #1E641C",
"=  c #1D6A1E",
"-  c #1A6414",
";  c #23651E",
":  c #29641F",
">  c #246A1E",
",  c #296A1E",
"<  c #2A4E26",
"1  c #244923",
"2  c #324E2C",
"3  c #255423",
"4  c #2A5324",
"5  c #245D24",
"6  c #2A5C25",
"7  c #2E552B",
"8  c #2C5B2A",
"9  c #265A28",
"0  c #325A2C",
"q  c #34522B",
"w  c #345D32",
"e  c #3C5E33",
"r  c #395431",
"t  c #1F6420",
"y  c #1E6A21",
"u  c #246622",
"i  c #2A6523",
"p  c #256A23",
"a  c #2A6B25",
"s  c #266629",
"d  c #2C642A",
"f  c #266B29",
"g  c #2C6C2A",
"h  c #316B26",
"j  c #32642D",
"k  c #326A2C",
"l  c #3A622D",
"z  c #257025",
"x  c #2A7126",
"c  c #267129",
"v  c #2C712B",
"b  c #2F7829",
"n  c #32722C",
"m  c #327224",
"M  c #2D6C31",
"N  c #3B6334",
"B  c #326B31",
"V  c #396B33",
"C  c #3B6539",
"Z  c #2D7231",
"A  c #347132",
"S  c #39713A",
"D  c #445A3C",
"F  c #475A39",
"G  c #45673B",
"H  c #465944",
"J  c #466343",
"K  c #4D6F43",
"L  c #476E44",
"P  c #556848",
"I  c #4B7143",
"U  c #4E774F",
"Y  c #51744C",
"T  c #5C7C55",
"R  c #577754",
"E  c #666054",
"W  c #617456",
"Q  c #647C5C",
"!  c #6B7F66",
"~  c #767E73",
"^  c #747D68",
"/  c #9C6D63",
"(  c #887A68",
")  c #99776A",
"_  c #987E77",
"`  c #A37F6F",
"'  c #A77B70",
"]  c #598153",
"[  c #5E895C",
"{  c #69835D",
"}  c #66845E",
"|  c #68905E",
" . c #6B8964",
".. c #718A63",
"X. c #6F9367",
"o. c #74946C",
"O. c #7D946F",
"+. c #799372",
"@. c #7E9977",
"#. c #7B9877",
"$. c #7C8B74",
"%. c #818F78",
"&. c #998478",
"*. c #829E77",
"=. c #839B7A",
"-. c #91957F",
";. c #A48879",
":. c #83A57A",
">. c #96A27E",
",. c #7C9580",
"<. c #988A84",
"1. c #999185",
"2. c #949586",
"3. c #9D9D91",
"4. c #AB9386",
"5. c #A89587",
"6. c #BB958D",
"7. c #A39C94",
"8. c #B49B94",
"9. c #AF8988",
"0. c #8CA484",
"q. c #8CAF86",
"w. c #88A984",
"e. c #97A888",
"r. c #99A892",
"t. c #9EB99A",
"y. c #95B792",
"u. c #96B78C",
"i. c #B2A28B",
"p. c #ABA39C",
"a. c #A6A799",
"s. c #B1A29D",
"d. c #B6A79A",
"f. c #A2BC95",
"g. c #A8B799",
"h. c #B3B69B",
"j. c #AAACA1",
"k. c #B9AAA4",
"l. c #AEBAA6",
"z. c #A9B8A4",
"x. c #BEB2A3",
"c. c #B8B4AB",
"v. c #BFBCB7",
"b. c #C59797",
"n. c #D19E93",
"m. c #C2AB9F",
"M. c #CEA999",
"N. c #D8ACA8",
"B. c #C3B3A7",
"V. c #CEB9A6",
"C. c #D2B1A8",
"Z. c #CABDB3",
"A. c #C2BCB4",
"S. c #DBBAB5",
"D. c #EBBEB8",
"F. c #E7B3A8",
"G. c #AACBA4",
"H. c #ADC7AA",
"J. c #B6C8AC",
"K. c #B4D2AE",
"L. c #BDCDB3",
"P. c #BDD4B7",
"I. c #BAD6B5",
"U. c #C3C2AD",
"Y. c #C1C4B3",
"T. c #D1C8BB",
"R. c #CAD8BE",
"E. c #C8D4B7",
"W. c #D4D0B5",
"Q. c #E5C9B9",
"!. c #CBE0BF",
"~. c #D7CDC5",
"^. c #CCDBC1",
"/. c #C6D8C2",
"(. c #D6D4C5",
"). c #DADCCD",
"_. c #D8D8C8",
"`. c #D0D2C9",
"'. c #E3CBC5",
"]. c #EFCDCB",
"[. c #E3D1CB",
"{. c #E2DDCA",
"}. c #FCCED0",
"|. c #E2DFDA",
" X c #CDE8C9",
".X c #CAE4C1",
"XX c #D2E4CA",
"oX c #D7E8C8",
"OX c #D8F2CF",
"+X c #D6EBD1",
"@X c #DDEED5",
"#X c #DDF5D3",
"$X c #E1E4D4",
"%X c #ECE4D6",
"&X c #EAEBDD",
"*X c #EAEAD7",
"=X c #F8E9D3",
"-X c #E6F2DE",
";X c #E6F8D9",
":X c #E7E5CC",
">X c #ECECE4",
",X c #F2EAE4",
"<X c #EBF3E3",
"1X c #EEFCE4",
"2X c #EEFEEB",
"3X c #EAF7E8",
"4X c #F4F4E6",
"5X c #F8F3E6",
"6X c #F4FDE5",
"7X c #FAF9E5",
"8X c #F5F5EB",
"9X c #FCF5EC",
"0X c #F6FEEE",
"qX c #F5FCEB",
"wX c #F9FEED",
"eX c #FBFBED",
"rX c #FCF6F1",
"tX c #F6FEF0",
"yX c #FDFCF3",
"uX c #FFFDF9",
"iX c #F7FFF8",
/* pixels */
"g ; h i k 8 J ! ^ F F l i a i u g ; > z - x p v c f f g g : > , , p u s s 5 v p z x g $ : u x = p p ",
"; g a g i I  X2XqX-XO.4 k k 6 k d n p - > x > p p p p p a a a , > a u g s s p * * > g g g a x > p p ",
"v ; ; a d L +XtX4XyXeXO.+ j 4 4 4 d A g > > p p a a p ; ; a a , , a u p u g g x ; ; i k g u a a a p ",
"* p x i # q.0X<X8X4XwXqX.XK.K.y.o.G 4 B g g ; g a g a p p a g a , , a a u f p > a a i d i u a a p u ",
"p x ; g 8 R l.j.|.9XyXqX0XwX0X0XqX#X@.w 6 B u g : : a p p p a g > > a p p p a , , , ; g i a a u a a ",
"b > p B 7 D z.4XuXuX9XeXwXqX0XqX3XwXwXE.Y 3 S $ : ; > p p y s p p > u u s p n m , a ; p p a a ; a a ",
"x p g i G /.yXuXrXuX9XrXrX5XyXuX0XqX4XeX1X=.8 d g g a a p p f f z p i d s s a p a a = f u a a ; ; ; ",
"> ; A 8 G.wX8XrXuXuXuX9XrXuX9XyXtX4XyX9X&X-X=.8 k a ; ; > p f f v g # 0 4 3 s a p p = c p a p p a a ",
"a i s [ 2X0XuXrXrXrXrXrXrXrXrX9X9X9X%Xk.p.c.l.J d B u p p p p p f 9 0.oXOXu.8 i x p y y a a a p a a ",
"; g X y.tX8X9XrXrX9XeXeXeXeXrX9X9X5X7.Z.uX[.~.J.< d s u g > ; g 3 q.7Xx.U.6X| 5 x p f f g i p a p p ",
"n k 0 H.tX9XrXrXeXwX9XeXeXeX9X9XeX$X2.uXc.k.d.T.L.1 M Z p a a i L -X8.S.s.E.:.# g p p a g : ; > a a ",
"i B 4 H.uXrX9XrXeXeXeXwXeX9XeXeXeX*X3.8Xs.'.]._ {.e.3 d v p , % o.(.9.}.8.W.{ # g a a u d i i > p p ",
"g j 2 $.uXrXuXeXeXeXeXeX9X9X9X9XyXeXa.(.~.8.D.N.4.*XK 8 s ; g # e.Z.b.N.5._.G i g g p i d h g p a a ",
"; 6 P.r._.rXrX9XeXeXeX9X9X9X9XeX9X9X).2.eX4.N.D.6.V.E.4 s f i & g.m.b.b.B.h.+ k k i ; p i g p p ; u ",
"g d OX).7.uXrXeXeXeX9X9XyXyXrXrXuXuXyXd.d.=X' F.n.` =X..6 s A # g.4.b.) (...6 g a a u p s a p f p a ",
"a i } qXp.~.uX9XeXeXeXeXrXuXrXrXuXrXeXeX5.Q.Q./ n.;.i.oX0 V k 0 h.;.6.;.R.0 d f p a p p u f p p p i ",
"p g 3 0.tXv.uXrX9XuXrX9XuXA.8XeXyXyX8XyX4X1.'.C.) M.) W.>.@ w 2 ( ( _ x.0.9 M * p p p i g p u a u u ",
"> m d 7 /.tX4XrXrX,X9XuX8X3.<XeX4XeXuX8XuX9X1.[.m.&.;.( :X-.P./.T.B.&.-.J 8 M * p p g g g u ; i ; ; ",
"v a B 8 T 2XqX4XyXyX0X0XXX%.wXeXeXeXeXtXtXtX9X7.~.x.x.%X7XyXuXyXyXyXyX(.W < d f p a g v g u p u u u ",
"g g g d 0 f.wXY.h.^. XI.Y 2 R.eX4XeX4XwX8XqXuXrX~.uXyXuXrXrXrXrXeX4X9XwXwX{ 3 g i p f f s u a u p u ",
": n u g X ] qXwXoXQ N d j C r @X6X6XyXqXyXyX9X9XuX5X5X9XuX8XuXuX9XtXqX9XeX;XG # d u p p u u p p p p ",
"n ; x p d 6 q.f.*.I j g k d 1 @.0X<X8XeX5X9XrXeX9XyXyXuX8XuXuXyXyXqXtXqX4XeXf.+ d p p p u a p p a a ",
"p a a ; a k 3 j # j i a n g B w +XtXeXeXeXrX9XeXqXuX8XtX9X9X4XwX8XqXuXyXyXwXoXN i p p p s a p p p p ",
"p ; p ; a i d k k a a p p p B # r.uX9X9X9XeX9X9XwXqXyX4XeXyX7XeXeXyXyXyX8XwX;XG o p p u s u u p p p ",
"p p g i g u i a ; p p p a g p # Q yX9X9XeX9XyX9XwXqXyXeX9XeXeXeXeXeXuXrXyXtX;XG s f f u u a a a u ; ",
"> p g g g i p p > p p p s p p d J -XuXeX9XuX&X8XuXqX9XrXrXeX5XeXeXeX9XuX>X<XP.0 g f f u i g a a a p ",
"g g f f f a p a a p p f f f p g 7 P.qX9XrXuX).~ 2XtX9X9X9X9XuXA.1.yXrXyX`.l.w.4 g a p u i g p a g a ",
"n g s f f p ; a g p u f v f p g 9 y.0XqXuXyX8XH #.2XwXyX9XrXuX>X*XeXrXrXuX$XJ 8 d p p p a g i a g a ",
"g g p f f f ; i g a p p p p a h 6 T 0X6XyXyXiX,.1  .K.;XwXyXuXuXeX7X9X,X,X&XH N d g z p a g a g a a ",
"i i p p p x a g d i p p p a g g d 8 !.wXyXyXtXz.w 8 3 I ..f.L.<XqXeXA.s.k.a.D 0 j g x z p a a g u u ",
"i g p * p a g k d i p a v v g u v 5 *.eX9X9XyXXXN V h : i # w U ..^.1.s.<.E J.I i a x = y z a g u u ",
"g g x > p p f i s i a a a ; i a p 5 w XXyX9X9XwXX.% : m m g s 9 . e P   3.$XwXf.6 d g u = z a g a g ",
"v p g p x ; a a u g g p a a a p x g 6  .0XuX8XyXH.3 i > > p s d s i 6 8 w.1X6XeX=.q 0 s f * p a a a ",
"; ; p ; a ; p ; p p * * p v a ; x a A 8 t.yXyXuX@XI d v a ; g g a p v s X o.qX6X;XW 0 S f v x * ; ; ",
"v a ; ; u p a a ; a a ; * ; p g , a u s C XXrXrXyX+.# g u ; g g a a x f S 8 T #X6X;XC o A x ; ; p p ",
"a g a a p a p p p v g p ; ; p a a v f M 3 #.yX4XyXL.0 B a p u i a g p o s B 4 K G.:.d f f n ; a g a ",
"; p ; a u a p p p a a p a a a a g s p p s 4 J.eXeX&XT 4 g f n i & i p x u g B j 6 d o v p ; h h ; : ",
"p p ; p ; a a a ; a g a a p a f f f * x n 6 K 1XwXyXH.< B f * h h : a x x * u i g ; t t x a : i a a ",
"a a p a a a p p g a p p a a p p f f a ; a g + @.qX0X1X#.d f v g a a a x p O p p v ; v p * a g i i p ",
"v p ; ; p p p a v a ; ; p p p u f p ; > > a k 3 t.+X:.] i a a g a g ; p p p * p ; a * p p ; i i a a ",
"; p g p ; p p g ; a p a a a u x p p a a , a f d 8 w 8 6 g p p a m g u p p p u ; a p p p p p g g a p ",
"u p g a p p u p p a p a p p ; g p ; ; , > > f f s B d a a ; u g f g f p p a a a a a a p p p p a p p ",
"g v a a a a a a p p u p ; u ; a g , ; > , p p f f f p p x p i g p v f p p a a a : i u p f a s p a a ",
"a a ; u p ; a u a p u a a g a p i a > > x p p f g p = > x a g k p p p u a g a i : a u u g f p p p p ",
"a a p a a ; u * p p ; a p a p p u i p > x x a p u f z p p a g f p p u p g g a p a g a u g a p p p p ",
"p a a a a p a p p p u p ; ; ; p s d a p p a a p u f a a a a f u p p p a g a p a a f a u a a a p a a ",
"p u p p ; u p a a a u p p a p g B M f p > a a u f f i g h g f y ; p a a a p p p p p p u p a a p a a ",
"p p v a u ; ; a p p o ; a n p f f s p a p > p ; f f i d : : p f p a a p p a p p p p a p p p p ; a a ",
"p p a p p ; a a a a p p p p u a s f u v v x g a p a a ; i a p p p ; p a a g a p p ; a a p ; a p g a ",
"a a g a a ; a g a a p p a p u p p a ; v a a a u p a p ; p a p a u ; u u a f p u a u a p p ; a u a a "
};
