/* XPM */
static const char *nrabbit4[] = {
/* columns rows colors chars-per-pixel */
"50 50 219 2 ",
"   c #1A4B1B",
".  c #1A5C16",
"X  c #1D5D1C",
"o  c #1E551A",
"O  c #224E1C",
"+  c #2A4E1E",
"@  c #24521D",
"#  c #235E1B",
"$  c #1C6217",
"%  c #1E641C",
"&  c #1E691E",
"*  c #156713",
"=  c #23641D",
"-  c #2B651D",
";  c #236A1E",
":  c #2A6A1E",
">  c #26711F",
",  c #1D5122",
"<  c #1F5428",
"1  c #2C4D26",
"2  c #334D2C",
"3  c #3A4A2F",
"4  c #245424",
"5  c #2A5526",
"6  c #255C23",
"7  c #2B5B25",
"8  c #265228",
"9  c #295429",
"0  c #2D5C2B",
"q  c #255928",
"w  c #33552C",
"e  c #325C2B",
"r  c #345D32",
"t  c #3A5E34",
"y  c #3A5435",
"u  c #1E6321",
"i  c #1F6A23",
"p  c #246522",
"a  c #2A6524",
"s  c #256A23",
"d  c #2A6C25",
"f  c #25642A",
"g  c #2B6429",
"h  c #266B29",
"j  c #2C6C2A",
"k  c #316C23",
"l  c #32642C",
"z  c #316C2B",
"x  c #306426",
"c  c #257125",
"v  c #2B7125",
"b  c #267129",
"n  c #2D712A",
"m  c #32712C",
"M  c #39722E",
"N  c #2D6B32",
"B  c #2E6730",
"V  c #346533",
"C  c #3B6334",
"Z  c #336B33",
"A  c #3B673A",
"S  c #2D7231",
"D  c #347335",
"F  c #3A7233",
"G  c #3B7539",
"H  c #405C35",
"J  c #455A3B",
"K  c #4A5D3F",
"L  c #50563A",
"P  c #426C3D",
"I  c #4A603C",
"U  c #3A7441",
"Y  c #456C44",
"T  c #4B6C44",
"R  c #486A48",
"E  c #526E48",
"W  c #4B7347",
"Q  c #53744B",
"!  c #537A4D",
"~  c #597C4C",
"^  c #59724A",
"/  c #596D52",
"(  c #577852",
")  c #637B58",
"_  c #6A7862",
"`  c #727B68",
"'  c #846C62",
"]  c #95766C",
"[  c #807E72",
"{  c #A0736E",
"}  c #A37C77",
"|  c #52814D",
" . c #65845B",
".. c #6A8A5F",
"X. c #638659",
"o. c #6B8B62",
"O. c #6B8969",
"+. c #668666",
"@. c #768A68",
"#. c #7D9C79",
"$. c #799876",
"%. c #72906C",
"&. c #7CA678",
"*. c #8B8B79",
"=. c #9F8876",
"-. c #86997D",
";. c #B58778",
":. c #8BA17B",
">. c #988D86",
",. c #819E80",
"<. c #9C9C8C",
"1. c #979784",
"2. c #A58B85",
"3. c #B88F8D",
"4. c #A09C8D",
"5. c #AA9787",
"6. c #BA988E",
"7. c #A29A93",
"8. c #BF9795",
"9. c #86A783",
"0. c #8EAC84",
"q. c #8CA383",
"w. c #93A88C",
"e. c #96B28F",
"r. c #9DAA90",
"t. c #94B592",
"y. c #9CB795",
"u. c #9BB797",
"i. c #A1A48F",
"p. c #ABA49A",
"a. c #A5A999",
"s. c #B2A498",
"d. c #A1BE94",
"f. c #AABB9B",
"g. c #A3B89A",
"h. c #AEACA2",
"j. c #B6ACA2",
"k. c #B9A9A4",
"l. c #A4BDA1",
"z. c #ABBBA4",
"x. c #B9B7AB",
"c. c #C09585",
"v. c #C99691",
"b. c #CAAB97",
"n. c #D8A9A1",
"m. c #C9BBAC",
"M. c #D8BCB2",
"N. c #E6BEBE",
"B. c #EDB9AB",
"V. c #9DC296",
"C. c #ABC2A1",
"Z. c #A7C0A3",
"A. c #B5C9AC",
"S. c #BAC5AE",
"D. c #AED0AB",
"F. c #B9D5AF",
"G. c #BCCBB2",
"H. c #BCD6B8",
"J. c #C1CBB3",
"K. c #C3CFBC",
"L. c #CBC6B8",
"P. c #D2C8B8",
"I. c #C3D1B4",
"U. c #C5D9BE",
"Y. c #CCD3BB",
"T. c #D1D4B7",
"R. c #F5C0BA",
"E. c #D1BEC2",
"W. c #CECCC2",
"Q. c #D9CEC5",
"!. c #CADDC2",
"~. c #CED2C1",
"^. c #D4D3C5",
"/. c #D5DAC6",
"(. c #DBD6CB",
"). c #D5DACB",
"_. c #DDDACF",
"`. c #D6D6CA",
"'. c #E8DBCA",
"]. c #E7D0D0",
"[. c #C7E3C3",
"{. c #CAE6C5",
"}. c #D9ECCF",
"|. c #D6E7C9",
" X c #DEE7D1",
".X c #D4EBD2",
"XX c #DCECD3",
"oX c #D7E6D3",
"OX c #DFF3DC",
"+X c #DBF9D7",
"@X c #ECE5DD",
"#X c #E5EBDC",
"$X c #EBECDE",
"%X c #E3E3D5",
"&X c #F4EADE",
"*X c #E3F3D4",
"=X c #E4F3D9",
"-X c #E9F1DC",
";X c #E6FADD",
":X c #EDFFDF",
">X c #F8F1DE",
",X c #EEECE0",
"<X c #EBE3E0",
"1X c #F7EDE8",
"2X c #E7FDE3",
"3X c #EEFAE5",
"4X c #EEF4E7",
"5X c #F2F4E5",
"6X c #FBF4E5",
"7X c #F3FDE5",
"8X c #F5F6EA",
"9X c #FBF6EC",
"0X c #F5FDEC",
"qX c #FBFBED",
"wX c #FAFFE6",
"eX c #FEF6F2",
"rX c #F5FFF1",
"tX c #FDFCF2",
"yX c #FFFDF9",
/* pixels */
"v ; j j j p = = j j p h j = d s h f j = ; d s d s n b h d a a j z z s c s s s j z z = = p s c & % % ",
"; v X s f f j p = d h h s s j d j u = d ; ; = p p X p m z 7 G l 7 j p i s & d = d j a p s p c s p p ",
"* c s s j s s s d s h j d = = = = k k - - = s h f Z @ @ @ o.7XG.C 7 j h b i p n d d = p j d d d j d ",
"v ; n a 6 a g z p d j j j j s = = d - - d s h i f 7 ~ d.) g.8XtXC.@ l j s s s d d p = p j j d d s s ",
"a a l e  ...! e l g 7 7 7 g j j ; ; = d p p n b 6 P *XwX8Xh.7.qXwX( 5 f D p % s s s d d s p p j n n ",
"z 7 T |.wXwX:X0.1 T  . .! A 0 o d n h u j n % . x ~ 7X4.7.].k.j.wXC.w A g % d s d d d s s s s j d d ",
"l C |.wXtX8X5XS.S.=X0X0X3X}.y.Q , f N h b s s M 7 ../.k.].2.'.<./.3XQ 0 f j s d d d d p s n s d p s ",
"V Y A.tXeXeXeX8X0XtXqXqXeXtXtX2Xt.A 4 N u s m a 7 w Y.p.N.n.5.'.1.-Xy.w Z p d s s s d s s n d j = s ",
"U   l.tX1XeXyXtXtXqXeX9XeXqXqX0XrXoXO.4 7 # F d g 0 q.P.6.R.c.b.P.i.;XW 6 a d s d s d d n m d z d s ",
"f V {.0XyXeXeXtXtXqXeXeXeXeXqXqX8XtX0XC.w 7 a j j 6 t Y.6.n.B.;.M.s.J.f.5 Z d = p s s % s X = m p s ",
"j o D.0XW.<XtX9XqXqXqXqXeXqX0XwXqX6XqX0XI.T 7 s n j 7 ) |.=.n.v.{ M.1.I.o.0 g g f h S h % d s z s d ",
"p g X.A.a.tXqXqXqXqXqXqXqXqXqXqX>XqX6X8XqX!.P N D u g @ %.T.] v.v.} m.4.@.w T V 4 6 N u h s = $ d d ",
"; n e w K.tX9XqXqXqXqXqXqX9X9X9XqXqXqX5X5X0X{.Y 0 j = s 6 %.P.] 3.8.' m./.=X.X[.t.Y , N j s c n s p ",
"> s 0 ( 0XtX9X9XqXqXqXqX9X9X9X9XqX8XqXqXqX8X0XH.w 7 p ; d @ ) P.2.] s.&XtX8XtXtX0X3X#.0 j j b & s d ",
"d z 0 O.0X8XeXtXqXqX0X0XtXeXeXeXeXyXeXqXtXtXqXqXf.+ z n s Z e J a.Q.qXtXqXeXeX9X9XqX0Xo.e j = n % = ",
"= z 9 $.rXtXeX9XqXqX0XrXtXtXeXeXtXeXeXyX9X9XeX6XwX:.@ z Z l C T J.tX0X8XtX9XeXeXeX1XqX|.r g j n n d ",
"& z 4 $.tX0XqXqXqXqXtXtXeXtXqXqXeX9X9XeXeXqXqXqXwX3X-.w 1 w y U.0X0XqXqX9XeXtXtXeXtX8X0Xo.6 n s s d ",
"& p q O.0X8X0X0XqXqXeXeXeXeXqXqX8XqXtX8XqX8XqXqX8XtXtXK.@._ u.0X0X0XqXqXqXeXeXeXyX8XtXwXd.O G p d j ",
"s X 0 E ;X0XqXqXqXqXeXeXeXeXqXqXqXtX8X8XeXqXqXqXtX5XtX0XrXrX0XwX9X9XqXqXqXqXqXqX9XtX`.wX}.w C a d s ",
"s p Z w G.tX8X9XqXeXeXeXeXqXqXqXtXqXtXtX9X9XtXqX0X0X0X5X8X3X0X0X9X9XqXqX0X0XqXqXqXtX[ /.wX-.2 e g d ",
"p s Z 4 %.0XqXeXeXeXeXqXqXqXqXqXtX%X(.eX9XtX8XqXqXqX0XtX0XtXtXqXqXqXqXwXwXwXwXqXtXqX8X8XtX^.5.@.l d ",
"s p a g t XXtXeXeXeXeXqXqXqXeXeX8XqXa.W.tX6XqXqX8XtXqX8XtXqX8XtXeXtXqX8XwXwXwXqXqX8XtXtX9XQ.2.*.7 s ",
"n p p j 5 e.rXtXtXeXqXqXqXqXeXeXqXtX,X<.@XqX6XtXtXqXeX9XeXeX9X6XtXeXqXqXqXqXqXqXtXrX4XrXtX8Xj.L e s ",
"j s d d a W OXrXeXeXqXqXqXqXeXeXeXqXtXx.L.eXqX9XqXtXeXeX9XtX9X9XeXeXeXqXqXqXqXqXeXtXyX#X).tX XH l d ",
"d . d n j 4 9.rX8XtX9XqXqXqXtX9XtXtXtX%Xp.tX9X9XqXqXeXeXeXeX9XtXeXeXeXeXqXtXtXtXeXeXeXeXz.U.9.O a s ",
"F a s n p f r F.0X5X8XqX8XqX9XeXqXtXqX,Xp.1XeXeXqXtXtX9XeXeXeX9X9XeXeXqXtX8XtX9XeXeXeXqXwXe.  j j d ",
"a = d $ p f q Y XXwX8XqXtX8XtXtXqXqXtX$X<.8XtXqXqX8XqXqXtXqXeX8XqX8XqX0X8X0XtXeXeXeX6XqX=XQ 6 p s s ",
"a a p s $ u D 0 Q ;XwX8XqXqXqXqXtXqXqX_.p.tXqX8XtXtX0XtX5XqXtXtXtXtX0XtXwX0X8X8X8XtXwX*X .7 j % d d ",
"j d s s = n d G 7 ( 0X0X8XtXqXqX5XqXtXh.L.qXqXtX8X0X8X8XtXtX5X%X). X|.=XwX7X7X7X;X{.t.P 7 g s n s d ",
"s p n . n m s p G 0 ,.rX0XtX8XqXqXqX^.7.@XtXqXqXtX8XtX0X^.<.1.<._ 3 K I ^  .X.X.! C   Z N j = d s s ",
"c s s d a = ; n a q Y .XrX8XtX6XtX(.>._.tXtXqX8X0XtXK.` *.G.~.#X!.Q A e 7 l a p 6 z j X f n = a j n ",
"c p % j s = $ s p f 9 l.rX9X9XtX(.*.^.qXqX5X0X0X*X-.y 2 / XXtX3X0Xq.9 V D j d d n $ p s % % a p = s ",
"s % n j j j p s j j 7 #.0XqXeX1X>.Q.tX0XtX0X;Xy.C @ Z V 8 O.wX8X0X=XR 9 N p n ; d d p n j f a p s n ",
"= = s p p h j j j j l Q ;X0XyXE.k.tXqXrXOXu.! O g m u s N 8 l.0X5XtXZ.9 V Z % ; $ d v d p p g g s n ",
"= d s p f h j u = j g C [.0XtX@X>.^.0Xz.R 9 0 j s d ; p j f P .XtX5XtXw.r 7 z d d = = j d s p j p s ",
"= s s p f j j % p . g @ 0.0X4XtX).<.<.J 2 r Z h n v ; v = z 6 O.7X8X-XXX#.0 z j s = s = = d p s % s ",
"s % s = p j j j s m a g T +XrX3X0X0X$X Xw.w e g d b : ; # a Z 0 -.#X Xz.{.&.o j j a s = a j p i s j ",
"j = d p f j s d s d j z 7 ! H.2XrXrX0X7Xr.J e z p % d = a z a V 1 O.A.F.V.| Z z D a - d j d p s p s ",
"j d j j d d p = s = n f 6 0 r W +.u.!.=Xf.I V Z p c ; v d j p g V 5 C ! l o h X % j z a p p h s p p ",
"p s d s p s d s % d = d z g Z 0 4 8 T Q t e g s p & d ; = s n p 6 F o p m p j j j j d j j d j j j j ",
"d n d p d j d v d b d d d j 6 g Z g g z a j p ; b ; ; d v n s s s d p & n s j = j n p d j p d d j j ",
"n j d d n j d v % = ; s n n p f a p p d s s p ; ; % = ; d d s s % ; $ c s p p s a d p s j s s s p p ",
"n p = p s s s d s s s p s s p s z s s = s s s k k d d d s s d j = d p s p s p a a s s d ; ; : - j d ",
"d = = d d s p = n s d % s s d j s d j s j s = a a s d d s a j z a j j = d d d = d s d c ; ; d d j d ",
"d p s s = p d s n s d s n n d s = p n p d p = a d h s s s s j z j a a f j a s z s s d d d d v v s = ",
"j d s % $ p n n d s j d s p ; ; s s s % % = p j j j h h h s d p p d d d = a = n s p d s s d s s s = ",
"p j d d d n j s p p j d = = s n d s d d p s p = p d s s s b d ; % d m d = s = c s p s p s j f s s s ",
"s d p = s s s d j p p a = d s = m s ; ; & n s p s d d d v v v ; & = n d j ; ; n i p p = j n j j j n ",
"s d = s = s d s d j p p d p = s p s s s s d d s s n n d n s p s p s d s d d s p d s d s p d d d d d ",
"s s p s = s d s s d p p d s p s = s s s s s s s s d d p j s = s s d d d d s = = s s j d s d d ; p s "
};
