/* XPM */
static const char *rose28[] = {
/* columns rows colors chars-per-pixel */
"50 50 234 2 ",
"   c #010101",
".  c #090405",
"X  c #050905",
"o  c #0A0A06",
"O  c #04040A",
"+  c #0A050B",
"@  c #030A0C",
"#  c #0C0B0C",
"$  c #120B0D",
"%  c #13020A",
"&  c #0E100D",
"*  c #010412",
"=  c #0A0613",
"-  c #020B13",
";  c #0D0B13",
":  c #010618",
">  c #030B1B",
",  c #0B0C1C",
"<  c #120D13",
"1  c #150D17",
"2  c #0C1114",
"3  c #0A131A",
"4  c #141314",
"5  c #14131C",
"6  c #19151B",
"7  c #15181A",
"8  c #1C1A1C",
"9  c #1B1516",
"0  c #231519",
"q  c #241B1D",
"w  c #2B181C",
"e  c #24211C",
"r  c #080E22",
"t  c #031322",
"y  c #0A1728",
"u  c #191522",
"i  c #141B23",
"p  c #1B1A24",
"a  c #141C2D",
"s  c #1E192A",
"d  c #141426",
"f  c #061A36",
"g  c #171A34",
"h  c #241C23",
"j  c #211D2C",
"k  c #2C1E2B",
"l  c #331E23",
"z  c #18232A",
"x  c #0F2235",
"c  c #0A2139",
"v  c #162438",
"b  c #252323",
"n  c #2B2324",
"m  c #2C232B",
"M  c #2D282D",
"N  c #292527",
"B  c #37272B",
"V  c #252232",
"C  c #2A2732",
"Z  c #2C293D",
"A  c #2B2937",
"S  c #342D35",
"D  c #293237",
"F  c #3B343C",
"G  c #393637",
"H  c #422C2E",
"J  c #422E38",
"K  c #42353A",
"L  c #473638",
"P  c #513D3F",
"I  c #4C433E",
"U  c #072546",
"Y  c #1A2C4B",
"T  c #192A44",
"R  c #1C3654",
"E  c #162F56",
"W  c #242B44",
"Q  c #293749",
"!  c #3E3B44",
"~  c #353848",
"^  c #2B3A54",
"/  c #393C53",
"(  c #2B2F4B",
")  c #1F3B62",
"_  c #253B62",
"`  c #433D4B",
"'  c #473944",
"]  c #4B384E",
"[  c #314149",
"{  c #2A435C",
"}  c #274359",
"|  c #394858",
" . c #1F4167",
".. c #1D4276",
"X. c #2B4567",
"o. c #374B6A",
"O. c #2B4B76",
"+. c #3A5577",
"@. c #3D627F",
"#. c #49454A",
"$. c #554749",
"%. c #59514C",
"&. c #484657",
"*. c #524A56",
"=. c #58545A",
"-. c #555256",
";. c #4E5356",
":. c #624D53",
">. c #684D54",
",. c #645957",
"<. c #6A5556",
"1. c #64615C",
"2. c #464F68",
"3. c #465668",
"4. c #5A5A69",
"5. c #5C5E7B",
"6. c #48536F",
"7. c #755D64",
"8. c #685C72",
"9. c #645369",
"0. c #5A617C",
"q. c #516370",
"w. c #6C676C",
"e. c #78676A",
"r. c #686475",
"t. c #796977",
"y. c #797A7C",
"u. c #805D64",
"i. c #86696E",
"p. c #887879",
"a. c #91757A",
"s. c #8E6E79",
"d. c #365A8B",
"f. c #3E6495",
"g. c #536989",
"h. c #5B7697",
"j. c #4D6A90",
"k. c #647489",
"l. c #777586",
"z. c #747E99",
"x. c #686D88",
"c. c #587BA6",
"v. c #84798A",
"b. c #91798C",
"n. c #A07F8A",
"m. c #728498",
"M. c #718AB0",
"N. c #7EA3C9",
"B. c #958489",
"V. c #868497",
"C. c #988999",
"Z. c #89959C",
"A. c #96929A",
"S. c #96928F",
"D. c #A2898A",
"F. c #A88C94",
"G. c #A79899",
"H. c #B09397",
"J. c #988AA4",
"K. c #9994A9",
"L. c #8697BA",
"P. c #9799B3",
"I. c #8E96A3",
"U. c #A98EA5",
"Y. c #AA97AA",
"T. c #AC9EB5",
"R. c #A699B4",
"E. c #B29AB8",
"W. c #B398A9",
"Q. c #99A6BE",
"!. c #B8A8A8",
"~. c #ABA6BE",
"^. c #A8A4B8",
"/. c #B6A7B6",
"(. c #BEB4BC",
"). c #BCB2A9",
"_. c #C9AAAF",
"`. c #C9B7B7",
"'. c #D5B6BA",
"]. c #C5AFBB",
"[. c #839CC4",
"{. c #88A7CB",
"}. c #95A6C5",
"|. c #99B8DE",
" X c #93AED0",
".X c #A9ACC5",
"XX c #B5A5C0",
"oX c #B8A9C5",
"OX c #A7B2C9",
"+X c #BBB3CF",
"@X c #BABBD3",
"#X c #A3B3D6",
"$X c #C6B9C9",
"%X c #D6BEC3",
"&X c #C4B6D1",
"*X c #C2BBD4",
"=X c #E4BDC4",
"-X c #BAC4DC",
";X c #AEC4ED",
":X c #B2CFF3",
">X c #BDE1FF",
",X c #DAC9C6",
"<X c #DFD2CB",
"1X c #CEC4D4",
"2X c #EEC6CB",
"3X c #E8C8CB",
"4X c #F3C8CD",
"5X c #E8D4CF",
"6X c #E9CCD2",
"7X c #F4CED3",
"8X c #EBD4D4",
"9X c #E9D9D6",
"0X c #F2D2D4",
"qX c #FCDADB",
"wX c #F8D7D9",
"eX c #F2D0CF",
"rX c #F1E2DC",
"tX c #F8E5DE",
"yX c #EFE6DF",
"uX c #D7CBE5",
"iX c #D9D3E9",
"pX c #D1DCF9",
"aX c #E2D6EE",
"sX c #E1DBF5",
"dX c #C6E8FF",
"fX c #FDE5E3",
"gX c #FDEBE4",
"hX c #F7E8E6",
"jX c #FFF3EC",
"kX c #E8E4FC",
"lX c #F9EEFF",
"zX c #FDFCFD",
"xX c #F6F2FF",
"cX c #EAE2ED",
/* pixels */
"                                  O   O     &       .     . .                                       ",
"                                  <     4               .     .                                     ",
"                                    6 .   q b 4 X           .                                       ",
"                              . 1 % 0 q n n b 4 . o # 7 o   #           .                           ",
"                            . . 0 B 0 e.`.%.n e N & o 8 4 o o   .                                   ",
"                        . . $ $ w l p.,XzX!.I G e N G b e G #.#.8 < .                               ",
"                    . # $ 4 9 q B H 8XhX5X,XB.,.%.$.,.1.S.`.p.-.N 0 $                               ",
"                O + $ < 9 q n B L 7.`.9X<X,XjX).e.p.,XhX9XG.n 0 9 $ . . . . .                       ",
"          O   #   < $ 1 m B B ' H `.hX,X5X5X,XjXG.).rX<X%XG.p.F.t.K . . .                           ",
".   .         8 -.*.w.,.' 7.p.p.,.`.yX9XrXrX<X5XD.9XtX5X,X'.%X6XhXhX!.8 + $                         ",
"            O N -.C.(.%X].%XfX,X!.<XhXrXhXgXtX9X`.`.'.,XD.i.>.L S G y.w.  < $                       ",
"    X     O   5 # h Y.9X'.3X0X8XrXhXgXgXtXjXjXgXwX'.5X_.:.H B <.h   # b                             ",
".         O   ; m m B B.wX3X=X0XfXwXtXgXgXgXfXeX3XfX8Xe.P H ' G.G . $ N -.o #                       ",
"          @   5 = F C.].3X7X=X7XqX8XeXqXfXfX0X'.0X8XF.P L n m M . 4 # 6 =.    4                     ",
"X   X X     # F w./.].!.'.'.=X4X2X4X2X4XqXqX2X3XqX_.e.$.G M G b # # . . . 4 8                       ",
"X         # ! A.cX$X/.W.F.a.u.i._.2X4X4XqXeX3XqX`.a.:.G m G ; 8 4 # o   b     o                     ",
"          6 F $X(.t.' S h n K K $.p.G.F.F.'.=X`.H.i.:.J S m h $ < ; O     .                         ",
"    O # . . *.A.#.6 . < h N m M F F #.$.>.s.n.D.7.7.:.K ' m k K #.h O   .     o                     ",
"    .     < w.G + # 6 5 h S N M j S ` J ] b.F.n.e.F.b.] F *.t.v.C u = + +                           ",
"          < =.      .   6 b # 6 j Z ` ' 9.U.W.b.U.U.T.v.t.J.T.8.u p V A C 8 #                       ",
"      .     6   .   O   #   + &.l.2.] *.t.U.U.C.Y.C.T.^.R.K.J.8.4.v.A.V.K.K.4.;                     ",
"              .   #     # N =.C.@X~.R.J.J.Y.E.E.R.~.XXT.oXR.K.K.V.J.l.! s S ` ! O   O     O O       ",
"  .     . #     O ;   5 -.l.A.V.V.P.+XoXR.E.XXoXXX&X&X&XkXiX+XT.1Xr.s s p O 1 ! O                   ",
"        o   . .     O *.w.F C p ~ / l.~.&X&X&XuXXXoXsXxXkX*X@X*XK.r.` A u   O p O                   ",
"                      + O + 5 i z ~ K.iXlXaXuXlXuXR.sXkXiX.X~.V.V ` Z u 1 O   8 # .                 ",
"                      + O + 5 5 i | zXzXiXiXaX&X~.@X@X.X-XI.0.Z ~ = #.5   O   w.# .                 ",
"                            + @ i Z.^.=.*.*.r.v.^..X@XQ.x.^ W W = C r.6   # .   .                   ",
"                .           + + i y.~ C j j Z ~ &.z.P.k.^ ^ ^ 2.r.s = p h   #                       ",
"                          o 7 7 7 D 2 p u ` / / / z.}.}.6.g.}..X.X~ V 5 u     .                     ",
"                          o 4 4 & ;.p O u s s g 0.}.6.M.:X}.#X#XP.~ s O 5 5 O                       ",
"                            o     D O O , r 5.5.Y M.g.{.dX;X;XL.x.K.P.l.*.V 5 O O                   ",
"                          . .   # O   5 O * g 2.R +.j. X:X|.[.L..X.Xv.4.r.4.A 1 O                   ",
"                                @   @   O V ( W Y g.{.dX>X>X|. XQ..X&.* p + < .                     ",
"                                @         5 A | Y +.{.:X{.N.@.} W 4.I.5 ; O                         ",
"                                @       O * a 2.T o.h.O. .U U U y > ~ i @ O                         ",
"                                O       + O r o.Y h.X.U X.f f c x t 3 -                             ",
"                                        + * : W k.L.f f R { f x t * z O 2     X                     ",
"                                        O , : r 2.g.g.R Y Y t t Q [ i - 7                           ",
"                                        O 5 , : | k.OX^ x > z v | Z.[ z     &                       ",
"                                .       O p i > m.-XQ.Q > 3 i i D D z @ 2                           ",
"                                    o     7 5 - | m.v x * z p 2 @ - - @                             ",
"                                        #   3 O 3.| > : [ D O @ @ @ @ @                             ",
"                                      X @ 3 q.> q.{ t Q 3.-       @ @                               ",
"                                      @   z k.x { } f m.y y - 2                                     ",
"                                  O   O 3 t T } g.R h.{ f a >                                       ",
"                                O * = > y y c o.+.+.+.U f | a 5 O                                   ",
"                                O O d , > v X.+.j.c. .U Y f y * + .                                 ",
"                                = O , : v v +.M.N.c.O.O._ T g d + .                                 ",
"                  .       O 2 z ~ a d , a ^ o.c.M.c.f.d.X.T y r ;     ; S F 7                       ",
"                            @ 5 i * > > r a f ) j.d...E U f r = +       4 p @                   o o "
};
