/* XPM */
static const char *rose_light_final[] = {
/* columns rows colors chars-per-pixel */
"50 50 256 2 ",
"   c #0D171E",
".  c #0D1626",
"X  c #0D1A24",
"o  c #0D152A",
"O  c #0C192C",
"+  c #06162D",
"@  c #111525",
"#  c #11162A",
"$  c #11192C",
"%  c #161828",
"&  c #031433",
"*  c #0B1533",
"=  c #0D1B33",
"-  c #0D1B3C",
";  c #071739",
":  c #121633",
">  c #121A34",
",  c #1C163B",
"<  c #131C3B",
"1  c #1A1C3B",
"2  c #181637",
"3  c #050C2D",
"4  c #23133A",
"5  c #0E223C",
"6  c #11223D",
"7  c #1B2138",
"8  c #0C1C42",
"9  c #0C1C4B",
"0  c #051B47",
"q  c #141C43",
"w  c #1B1B44",
"e  c #131C4C",
"r  c #191B48",
"t  c #01075B",
"y  c #091D54",
"u  c #141B56",
"i  c #0B0A4C",
"p  c #0C2344",
"a  c #03224C",
"s  c #0C244C",
"d  c #0C2B4A",
"f  c #132244",
"g  c #192144",
"h  c #13234C",
"j  c #1A244C",
"k  c #152B49",
"l  c #012955",
"z  c #0B2A54",
"x  c #042B5B",
"c  c #0D2C5C",
"v  c #092357",
"b  c #142454",
"n  c #1B2454",
"m  c #152B55",
"M  c #13255B",
"N  c #142C5C",
"B  c #1B2A5B",
"V  c #1B2856",
"C  c #0B355B",
"Z  c #183458",
"A  c #11364C",
"S  c #222348",
"D  c #222D55",
"F  c #232A57",
"G  c #23355D",
"H  c #0B146C",
"J  c #072965",
"K  c #1C2C63",
"L  c #1A266B",
"P  c #172966",
"I  c #0A3264",
"U  c #073769",
"Y  c #133A6B",
"T  c #183668",
"R  c #062B7B",
"E  c #172A74",
"W  c #0A3875",
"Q  c #183875",
"!  c #232A65",
"~  c #223362",
"^  c #26396A",
"/  c #263876",
"(  c #2B297C",
")  c #251F5D",
"_  c #074867",
"`  c #1B426B",
"'  c #084578",
"]  c #174678",
"[  c #07577A",
"{  c #12587A",
"}  c #274479",
"|  c #304A76",
" . c #13405D",
".. c #171C98",
"X. c #271695",
"o. c #1B268A",
"O. c #183888",
"+. c #193898",
"@. c #112A96",
"#. c #2A2988",
"$. c #223D84",
"%. c #24379B",
"&. c #343195",
"*. c #1234B2",
"=. c #2835A6",
"-. c #3334AB",
";. c #2F19A2",
":. c #483997",
">. c #493DA4",
",. c #4120A5",
"<. c #094583",
"1. c #144383",
"2. c #194788",
"3. c #095782",
"4. c #165587",
"5. c #184898",
"6. c #085897",
"7. c #165895",
"8. c #074D9A",
"9. c #274886",
"0. c #265787",
"q. c #274997",
"w. c #295996",
"e. c #36518F",
"r. c #136796",
"t. c #25659B",
"y. c #2E668D",
"u. c #194AA7",
"i. c #1958A9",
"p. c #1452B6",
"a. c #2749A8",
"s. c #2657A8",
"d. c #375BA8",
"f. c #2A47B5",
"g. c #364BB9",
"h. c #2959B8",
"j. c #3656B1",
"k. c #3A45A8",
"l. c #0966A6",
"z. c #1868AB",
"x. c #1776AC",
"c. c #1865B9",
"v. c #1577B9",
"b. c #0B6FB5",
"n. c #2667A8",
"m. c #3A67A8",
"M. c #2778A8",
"N. c #2869B4",
"B. c #3767B9",
"V. c #2875B9",
"C. c #387AB7",
"Z. c #3778A9",
"A. c #435798",
"S. c #50439B",
"D. c #476B9C",
"F. c #464BA9",
"G. c #5250B0",
"H. c #6B4AB2",
"J. c #4879A7",
"K. c #486FB4",
"L. c #6F66BB",
"P. c #4B3DC4",
"I. c #1C59C1",
"U. c #2756C4",
"Y. c #3659D0",
"T. c #186DC7",
"R. c #1E7BC8",
"E. c #1A75D0",
"W. c #266AC9",
"Q. c #3869C4",
"!. c #2A76C5",
"~. c #3577C8",
"^. c #336BD2",
"/. c #2B77D6",
"(. c #3764E3",
"). c #4C52CA",
"_. c #4567C6",
"`. c #497AC8",
"'. c #5877CA",
"]. c #4F71D5",
"[. c #7270D0",
"{. c #487BE5",
"}. c #4A7BEF",
"|. c #8C69BD",
" X c #927AD4",
".X c #1A86BD",
"XX c #3988BA",
"oX c #2C89AF",
"OX c #35A3BE",
"+X c #4883B3",
"@X c #5283B9",
"#X c #4897BB",
"$X c #1A84C9",
"%X c #1F8DDA",
"&X c #2789C7",
"*X c #3784CA",
"=X c #3694CB",
"-X c #3889DA",
";X c #3898D5",
":X c #2C8FD8",
">X c #36A3DA",
",X c #2BA0CC",
"<X c #3688E6",
"1X c #3999E8",
"2X c #3B99F0",
"3X c #38A8E5",
"4X c #35B5EA",
"5X c #38B6F1",
"6X c #38A7F2",
"7X c #5594C9",
"8X c #4687D7",
"9X c #5887D9",
"0X c #4697D7",
"qX c #4E8FCD",
"wX c #6C93D0",
"eX c #48A9DC",
"rX c #44A3CF",
"tX c #6EA3D6",
"yX c #4486E7",
"uX c #548FEB",
"iX c #4998E7",
"pX c #5193F6",
"aX c #6799E4",
"sX c #7295F2",
"dX c #58A8EA",
"fX c #47A6F8",
"gX c #57A6FD",
"hX c #59BCFC",
"jX c #46B3F3",
"kX c #69B6FA",
"lX c #7BB8FE",
"zX c #6EA9ED",
"xX c #47C7FF",
"cX c #54C8FF",
"vX c #43D8FF",
"bX c #56D8FF",
"nX c #6CD3FC",
"mX c #53E9FF",
"MX c #65E8FF",
"NX c #6BF5FF",
"BX c #72EBFF",
"VX c #8C87BD",
"CX c #B196D3",
"ZX c #85A4CD",
"AX c #A9A9D3",
"SX c #8B92EC",
"DX c #87ABE8",
"FX c #83B6FF",
"GX c #8DABEA",
"HX c #ACB2F2",
"JX c #9794DF",
"KX c #C9AAEE",
"LX c #C4AAD9",
"PX c #8EC9FF",
"IX c #ACD1F7",
"UX c #DEDFF5",
/* pixels */
"O O O O O O 2 > < < < - q f f h ) i v l l l a b e g g f - - 5 6 g g 1 = > 7 7 # % % % $ : = = O O $ ",
"O O O O = : < 1 < < q f f h s e ! P Y U U ' ] Y P N v s s k k f f q r g 1 2 1 1 2 2 2 2 2 < = = = $ ",
"o o : 2 < < 1 g q g n V V b m N v U 3.r.x.;XdX~.5.5.1.Q I N b n B u e n n r r w w w , w q q q - = = ",
": : 2 2 2 1 w g q h n V M M K T Q 7.x.;X5XbXBXfXR.c.i.5.2.1.Q Q / P M M M b e j r r w w q q q < = = ",
"2 2 2 2 < q q e n K ^ / / Q Q Q q.s.v.jXcXbXMXxXjX:Xv.b.c.c.u.+.O.} Q I z z m m j f q q < < < < > : ",
"2 1 1 q q e h b T / e.e.9.$.$.O.+.+.i.:X5X5XxXbXcXjX3X:X/.W.W.Q.w.0.] I Y ] T z m d p p 5 5 5 > > > ",
"2 < g j V N P I Y Q 9.q.q.O.O.O.%.a.N.!.$X$X%XjX6X2X6XfXfX1X<X8Xn.2.W W ] 9.` x C z d p p 6 6 < = < ",
"- q V G ^ T Q Q 1.2.5.5.5.5.5.a.O.j.~.c.c.T.T.fX2X<X<XfXhXgX*Xi.5.5.5.5.1.W W 1.U U c z s h q q - - ",
"q 8 Z N e.DX+XZ.t.n.7.N.Q.i.i.s.u.uXyXT.p.W.^.pX}.W.^.<XyXiX~.i.u.u.h._.Q.u.s.s.5.B.w.W P M u n q < ",
"f p a z y.wX7X7XqX0X~.8XuX{.Q.h.U.pXpXyXU.^.{.sX].U.^.uXuX~.8XW.p.{.yXsXlXpX^.N.~.!.n.5.1.Q P y h f ",
"8 h z ` J.+XC.XXN.*XV.!.h.Q.Q.{.(.(.}.pXU.f.).].Y._.pXyXyX<X<Xp.T.iXgXgXgX:X/.<Xv.l.l.6.' W W I z p ",
"- s s C J.+XC.V.N.~.z.i.5.a.h._.(.*.*.Y.=.....-.-.g.}.{.gXgX/.E.1X$X1XhXfX1X5X3X4X4X4X,XoXM.t.0._  .",
"q f Z z D.7XC.n.N.N.i.u.+.+.+.=.g.=.@.=.-.X.X.;.P.].^.^.iXfXR.:X3X3XnXnXjX5XcXxXvXvXvXmXBXnX#XoXy.y.",
"< g ^ T D.tX7XC.n.s.s.+.+.o.o.&.&.F.k.#.-.;.;.,.).SXg.h.!.-X-X0XeXnXnXhXhXcX5X4XvXmXmXNXBXOX[ [ _ _ ",
", w j B } J.tXaXaX`._.%.k.-.&.#.#.F.F.&.:.:.H.H. X[.F.'.].`.aXFX*XkXnXdXiXiX:X5X5XbXNXMXeXx.[ ] C C ",
", S r ^ c W m.`.`.9XsXj.k.#.&.&.#.( &.S.G.S.|.CXKX XJXSX9XsXsXsXIXzX8Xn.i.!.R.$XxXMXMX>Xr.4.4.Y m h ",
"2 D G P Q 1.5.B.h._._.G.F.F.G.G.S.:.:.>.H. XKXLXLXCXVXVXIXDXPXFXPXkX9X9X`.W.1XcXMXNX4Xx.r.4.] T h f ",
"k m c Y w.B.~.^.u.f.f.G.[.[.L.G.L.L.G.G.[.HXAXAXUXKXAXwXGXzXlX0X*XdXlXFXkXgXhXcXxXjX.X6.4.] T Z f f ",
"C U 4.n.V.~.W.p.I.u.+.@.&.>.>.>.[.SXSX[.sXGXGXAXUXUXIXGXzXV.;X0XkXlXzX8X*X-X-X&X3X=Xl.3.' Y T h q < ",
"[ r.XX0X&XR.R.T.I.U.U.f.=.#.o.#.( K.'._._.'.wXZXZXIXGX@XB.V.iXiXN.n.7.z.*XdXdXdX8XM.7.4.Y C m 8 q < ",
"r.M.rXeX;X&X&X$XT.W.W.Q.Q.f.%.O.H E o.+.%.j.7XwXJ.7XtXaXFXlX].5.s.n.*X0XdXdXqXqXm.9.} ] c m j q < < ",
"_ [ M.rXeXeXeX;XiX8X`.Q._._.j.j.d.d.K.]._.j.q.W w.w.m.'._.+.@.a.q.s.N.r.6.7.2.Q / K ^ T s h f 1 < < ",
"z C Y | J.@XwXtXzXDXDXsXwXwXwX9XaXaX8XQ.h.5.R H t t H H &.g.f.f.s.q.7.W U ' T P ! n G j 8 f - < < < ",
"j Z Z Z T Z C } ` } } } e.A.A.9.6.z.z.z.~.B.R t t H #.o.%.g.U.Q.B.d.d.1.U T v n j r D < - g = = > > ",
"f p d d A A A A Z Z Z ^ / / / 2.x.>X=XV.C.N.R t R 5.B.5.@.u.h.h.s.K.K.Q P K n e j q 1 < < < 5 = = = ",
"< 6 6 6 5 k k k k j D ~ K P / 9.0XeX=XM.C.C.i.8.6.z.!.N.6.8.i.B.`.w.e.L ! u e n h f 1 < < > = = = = ",
"4 , , , 1 1 1 1 : q r u ! / / J 2.m.C.XXXXXX.X$X$Xb.v.XX=X*XV.N.n.] E u ! ! ~ ~ s p < < < > = O O $ ",
"4 4 4 4 , , 1 1 w S F M v J J R E E Y 4.Z.qX=X>X;XjXnXeXM.r.<.' W J P y K K ^ Z s s f 1 < > = O O $ ",
"4 , , 2 1 < 1 6 8 8 ^ D.J.w.<.' W T N z a x 1.N.7.=XkX#X3.' ' ] U x I J c y c c z s f q < > = O O $ ",
"% $ $ $ > > > < j 8 y T D.@XK.t.Q c a h G / e.d.7.4.7.{ _ _ I x l x I l U ' 0.Y c b j q 1 < > O O $ ",
"X X X X X O $ : 3 q j h P } 9.Q Q T Z Z k N 9.d.2.W I C d m m V y Y ] _ 3.M.+XY M b r q < > : $ $ $ ",
"X X X X X X $ $ S : : j n 0 y K v s Z G | | A.A.9.Q ` Z s m n M } 0.M.M.oXM.M.J c b q ; * = : $ $ $ ",
"X X X X $ $ : : * : 2 g g f 6 - f q f j V ~ | D.T T N 0 T v P 9.N.z.x.v.l.x.C.' c s < > : $ O O . . ",
"X X @ $ $ $ : : : : 2 < < < = = 1 2 < q e h B ^ | z c c x v 9.m.z.v.v.v.l.z.N.' x s 6 $ $ $ O O o . ",
"X . . . $ $ $ : : > > > > = = = : : : - q h s s | z l a I ] w.2.z.l.6.l.z.N.t.U z p = $ $ $ : O o . ",
". . . . $ $ $ $ : : > > < < - - o $ > - f h z a z ` y.} ] U W <.7.7.6.7.n.t.] l a 5 = $ $ $ $ O . . ",
". . . . $ $ $ $ . : > < < - - ; * > < - 8 a s 0 x C D.@Xw.U W <.4.w.t.4.] U l a p = : $ $ $ o O . . ",
"o . o . $ $ $ $ . $ > < < 8 8 8 q r e e 9 v M c x ] I W wX`.1.2.] ] ] I l a ; p - = $ $ $ $ . . . . ",
"O O . . $ $ @ @ $ $ > < q r e e n B P P L L Q Q Q J Q 9.d.'.9XO.T a a ; 0 p & * = . . . $ $ . . . . ",
"O O o . . . @ @ @ $ : 1 r n B ! ! L L L L L L L P Q } Q $.q.q.E N ; 8 ; & = 3 * $ $ . . $ $ . . . . ",
"* o o . . . @ @ $ $ > g D D ^ | ! L P L / / / P M B M v P E E / e * * : o o $ $ $ $ $ . . . . . . . ",
"* o o . . . @ @ $ . o < < q n G ^ ^ K K K K b 9 8 8 - - 9 u u ! j < : : $ # @ @ @ $ . . . . . . . . ",
"O O . . . . @ @ . . o * * & ; 8 b b b h q - ; = o . o o * * q F D 1 : $ @ @ % @ @ . . . . $ . . . . ",
"o o . . . . $ $ . . o * * 3 & ; 3 & ; ; O o o X X X X $ : * < D D q o o @ @ % @ @ O O o o . @ @ . . ",
"o o . . . $ $ $ $ . o = O o O = o o o o . . X         O = ; q G G f * o @ @ % @ . O O O O . @ @ . . ",
"o o . . . . $ $ . . . O . . O . O . . . X @ X     X . + - 8 m ^ ~ h ; : @ @ @   O O + * o . @ @ . . ",
". . . . . o $ $ o . . o O . . . . @ @ @ $ $ . X X O + & 0 c Q 9.T s - = . @ @ X O O + + O . @ @ . . ",
". . . . . o . o o . . . O O X X @ # # $ $ . $ $ . = * & 9 P Q 9.c 0 ; = . X @ . o O * * O . @ @ . . ",
". . . . . . . . . . . . . o o o . . . . . . . . . . O * - 8 ~ V 8 - = O . . . . . . O O o . . . . . ",
". . . . . . . . . . . . . . . . o . o o . . . . . . . o = ; D h - - = O . . . . . . o o . . o . . . "
};
