/* XPM */
static const char *rose_100[] = {
/* columns rows colors chars-per-pixel */
"50 50 206 2 ",
"   c #000000",
".  c #06070A",
"X  c #04080A",
"o  c #0A0A0A",
"O  c #060807",
"+  c #0D0E10",
"@  c #0C1112",
"#  c #111214",
"$  c #14191C",
"%  c #1C1D1D",
"&  c #131C22",
"*  c #1A1E23",
"=  c #1D2427",
"-  c #1D2A32",
";  c #212223",
":  c #23262A",
">  c #222A2C",
",  c #28282A",
"<  c #292F35",
"1  c #2A333B",
"2  c #2E3A45",
"3  c #343C43",
"4  c #35424A",
"5  c #3A444B",
"6  c #3E494D",
"7  c #384A55",
"8  c #3B5566",
"9  c #414F58",
"0  c #43535E",
"q  c #4A555D",
"w  c #445A69",
"e  c #475966",
"r  c #52636D",
"t  c #5C656C",
"y  c #4F6272",
"u  c #456477",
"i  c #5A6A76",
"p  c #5E707C",
"a  c #696D76",
"s  c #556E82",
"d  c #59778A",
"f  c #577B95",
"g  c #64798B",
"h  c #6B7D8A",
"j  c #617180",
"k  c #5D8094",
"l  c #718798",
"z  c #7B9095",
"x  c #68849A",
"c  c #5086AA",
"v  c #5A89A8",
"b  c #5D8FB2",
"n  c #5A97BD",
"m  c #5994B9",
"M  c #638AA4",
"N  c #628AAD",
"B  c #7D9AAD",
"V  c #6492B4",
"C  c #6095BB",
"Z  c #6B9ABC",
"A  c #7A9EBA",
"S  c #769AB3",
"D  c #75A2BF",
"F  c #7CA4BD",
"G  c #5A99C3",
"H  c #5E9DC8",
"J  c #639DC3",
"K  c #679DC5",
"L  c #5DA2CC",
"P  c #5FA6D2",
"I  c #64A4CC",
"U  c #65A2C9",
"Y  c #75A4C4",
"T  c #7EAACC",
"R  c #7CA4C8",
"E  c #66A6D2",
"W  c #6BA6D2",
"Q  c #66A9D4",
"!  c #6CACD6",
"~  c #65AED9",
"^  c #6BADDA",
"/  c #71ACD3",
"(  c #79ADD5",
")  c #6CB2DE",
"_  c #73B3DB",
"`  c #7CB8DE",
"'  c #7CB4D8",
"]  c #59AEE5",
"[  c #69AFE0",
"{  c #62B5E7",
"}  c #6CB3E2",
"|  c #6DBBEB",
" . c #6BB6E8",
".. c #73B5E5",
"X. c #74BAE6",
"o. c #7CBBE5",
"O. c #73B5E8",
"+. c #74BCEC",
"@. c #7BBEEB",
"#. c #7AB5E1",
"$. c #6EBFF3",
"%. c #74BEF1",
"&. c #7ABEF0",
"*. c #77C1EE",
"=. c #7DC2ED",
"-. c #6DC3F7",
";. c #73C1F2",
":. c #7CC3F2",
">. c #76C3F9",
",. c #7CC5FA",
"<. c #7DC9FA",
"1. c #808193",
"2. c #A29A98",
"3. c #9A9EAA",
"4. c #93A3BA",
"5. c #84A4BB",
"6. c #A8AAB5",
"7. c #8DAAC4",
"8. c #89A8C8",
"9. c #90ABC8",
"0. c #8DB5CE",
"q. c #97B4CA",
"w. c #82B3D5",
"e. c #84B3DA",
"r. c #83BADE",
"t. c #8ABAD8",
"y. c #9BBAD6",
"u. c #96B5D3",
"i. c #A3B8CD",
"p. c #BABBC6",
"a. c #84BCE3",
"s. c #8BBCE3",
"d. c #83BEE9",
"f. c #88BFE8",
"g. c #92C0DB",
"h. c #AFC3D5",
"j. c #BCC6D4",
"k. c #82C0E5",
"l. c #84C3ED",
"z. c #8AC5ED",
"x. c #86C9EE",
"c. c #8CC9EE",
"v. c #88C2E7",
"b. c #92C4E4",
"n. c #9AC5E3",
"m. c #93CBED",
"M. c #9BCCEC",
"N. c #97C8E7",
"B. c #97D0EE",
"V. c #84C5F2",
"C. c #89C7F1",
"Z. c #85C9F2",
"A. c #8CCAF3",
"S. c #81C7F9",
"D. c #83CCFC",
"F. c #8BCDFB",
"G. c #93CDF3",
"H. c #9ACFF5",
"J. c #8ED3FD",
"K. c #89D2F9",
"L. c #95D1F4",
"P. c #9CD1F4",
"I. c #94D4FD",
"U. c #99D6FE",
"Y. c #9DDAFD",
"T. c #91D9FF",
"R. c #A8CBE6",
"E. c #B0CEE6",
"W. c #ADD3ED",
"Q. c #A4D0ED",
"!. c #BDD3E2",
"~. c #B3D3EC",
"^. c #B9DAED",
"/. c #A3D4F5",
"(. c #AAD6F5",
"). c #ACD8F4",
"_. c #A4D4F9",
"`. c #ABD6F8",
"'. c #A4D9FB",
"]. c #ABDAFB",
"[. c #B1D5F1",
"{. c #B3DAF5",
"}. c #BBDCF5",
"|. c #B4DCFA",
" X c #BBDEF9",
".X c #BCE2FB",
"XX c #BDE6FA",
"oX c #C3CED9",
"OX c #C3CCD3",
"+X c #C6D4DD",
"@X c #D0DCE2",
"#X c #C2DEF6",
"$X c #C1D6E9",
"%X c #C1E1F6",
"&X c #C3E3FA",
"*X c #CAE5FA",
"=X c #C0ECFF",
"-X c #CEE9FD",
";X c #D3E9F7",
":X c #D0E7F9",
">X c #D5EBFB",
",X c #DAECFC",
"<X c #DDEAF5",
"1X c #E6EBF2",
"2X c #E9F3FB",
"3X c #F3FAFF",
/* pixels */
"                                                                                                    ",
"                                                                                                    ",
"                                                                                                    ",
"                                                                                                    ",
"                                                                                                    ",
"                                                                                                    ",
"                                                                                                    ",
"                                      O     > 3 1 w - & $                                           ",
"                                          1 k.A.A.D.+. .X.u                                         ",
"                                    o i f e.>.+.$.| $.$.-.=.*                                       ",
"                                    t XXD.>.| :.$.;.;.:.+.U.s                                       ",
"                                  9 g.A.x.:.;.:.;.;.C.P.P.'.t.#       ; q p e @                     ",
"                                $ M.I.c.V.:.:.;.C.V.P.}.h.E._.5   # g ~..X.X=Xl                     ",
"                    O 3 q r i < 1 L.A.G.A.:.A.:.A.H. Xj.3.2.OXt O q.&X}.[.[.).c.8                   ",
"                    j Y.].].'.m.0.z.;.;.A.C.:.G.G..XoXp.y.4.p.h l =X(.(.(._.G.,.G.,                 ",
"                o i J.| | x.M.H.U.G.X.{ | V.A.L.{.*X@X6.8.e.6.OX*X{.`.H.G.A.A.*.F.f                 ",
"              < h.G.C.c.=.=.x./.).].P.} #.V.x.B.{.;X1Xp.1.9.6.1X>X}._.G.G.G.G.V.*.D.9               ",
"              B ].x.@.*.G.(.G.c.]. X*X.Xr.b.G.c./.;X2Xj.4.7.oX3X,X&X`./.G.G.A.:.| | ` =             ",
"            + g.A.V.G.A.G.`.}.).m.`.%X-X%X( Q.P.m.}.2Xi.i.!.+X2X,X%X X_./.A.S.:.$.@.U.v             ",
"            2 G.c.G./.`._.P./. X%X(._.}.>X~.w.M.L./.*X7.W.~.@X<X*X&X{.].G.G.G.V.%. .U.S             ",
"            q ].z.G.G.G./.`./.P.(. X&X(.{.-X.Xn.f._.R.y.'.M.<X,X*X%X{.{.{.].A.<.;.{ $.m             ",
"            = b.=.A.P.(.]. X X X)./.)..X(.|.*X*XW.'.u.R.P./.,X>X&X}.#X XP.l.A.G.V.:.>.L X           ",
"            e /.c.A.G./._./.H.P./.)./.G.P./. X*X:X{.0.}.L.z.:X-X{. X(.G.P.{./.G.C.@.;.! o           ",
"            Y D.=.x.A.H.P./.).{.(./.m.C.=.V.H.&X,X^.8.*Xm.v.-X.X/.G.G.).`.G.c.A.z.X.-.8             ",
"            y U.l.V.=.x.G.L.L.M.m.k.o.o.#.#.d.P.,X$Xq.-Xs.z..XP.l.z.v.l.c.G.G.z.G.J.Y X             ",
"            O A F.l.=.V.V.V.x.l.^ V V v N R ~.Q.|.$Xu..Xs.A.z.! ! _ k.M././.|././ M >               ",
"              1 L.F.:.+.+.=.l.k.C n C V Z K ( R.n.u.7.M.T K n G Q ) } k.G.).!.a @                   ",
"                7 D A.D.F.J.G.w.I ! ` k.W U K W ( b z 5.Z U ^ *.V.*.{ ] { w.:                       ",
"                  O 5 d k B n.O.o.d.z.E ^ ! I I n c M Z K I I ~ ) } | +.:.@.Z w                     ",
"                          : z.A.l.G./ ` o.~ E E n c C K n H ) } +.+.:.:.V.:.D.Y.w                   ",
"                      O   g J.f.G.#._ G.#.#.Q ~ E c J _ I I ~ O.+.+.+.%.:.l.X.:.t.#                 ",
"                        ; n.@.G.d.! G.a.@.) ^ ..} m J l.o._ } @.=.*.:.:.V.A.A.@.L.r                 ",
"                        e I.A.v.! l.C.} =.~ } +.:.! J l.V.X.x.+.V.V.:.A.G.G.L.x.D.T .               ",
"                        x U.` I @.z.) X.X.} +.&.,.A.) @.C.=.l.G.@.A.A.C.G.G.G.A.V.#.$               ",
"                      o 0.d.U d.x.#.~ @.[  .:.,.V.S.c.l.=.A.=.A.A.=.A.A.V.A.A.A.G.v.&               ",
"                      % b.E v.A.o.! ..&.} +.:.:.:.F.q.g.,.x.V.:.G.V.A.G.A.V.G.z.c.F .               ",
"                      O D _ m.k.E ^ O.O.} :.:.,.:.I.0 r J.@.V.*.A.A.A.G.G.A.A.G.A.u                 ",
"                        0 o.v.I P } ....=.:.:.:.V.V.> O Y S.C.=.V.A.A.G.G.C.C.z.D.b                 ",
"                        > a.^ G )  ...&.V.V.:.:.D.M     3 A.V.=.:.V.A.A.C.l.l.c.w.7                 ",
"                        o S o.! =.} ..:.,.,.:.:.@.-   O   s J.=.+.:.V.=. .o.n.I.5                   ",
"                          % B k.@.^ } :.&.%.S.T.g         O f J.;.+.:.A.I.z.6 7 @                   ",
"                              M J...O.:.J.Y v d #             y r.V.o.' A 5                         ",
"                              - 8 ` <.C.h $                     * 1 & +                             ",
"                                  2 f 4                                                             ",
"                                                                                                    ",
"                                                                                                    ",
"                                                                                                    ",
"                                                                                                    ",
"                                                                                                    ",
"                                                                                                    "
};
