/* XPM */
static const char *rosr_withe[] = {
/* columns rows colors chars-per-pixel */
"50 50 196 2 ",
"   c #000000",
".  c #0C0C0C",
"X  c #060608",
"o  c #130F06",
"O  c #10100E",
"+  c #141414",
"@  c #1B1B1B",
"#  c #161719",
"$  c #2D2A19",
"%  c #383516",
"&  c #1F2120",
"*  c #222423",
"=  c #2C2C2B",
"-  c #242827",
";  c #343433",
":  c #3C3C3B",
">  c #430D0D",
",  c #581D17",
"<  c #630408",
"1  c #79040A",
"2  c #672529",
"3  c #42413F",
"4  c #444443",
"5  c #494947",
"6  c #4D4D4B",
"7  c #474948",
"8  c #504F4C",
"9  c #5C5C5A",
"0  c #545453",
"q  c #61615F",
"w  c #646361",
"e  c #696663",
"r  c #696966",
"t  c #6D6D6B",
"y  c #706F6C",
"u  c #72726F",
"i  c #757472",
"p  c #7B7974",
"a  c #A60004",
"s  c #B5090A",
"d  c #85270D",
"f  c #9B1C23",
"g  c #9E202B",
"h  c #803B36",
"j  c #BF2422",
"k  c #AF3236",
"l  c #CA1E10",
"z  c #CC2916",
"x  c #C5392B",
"c  c #C93831",
"v  c #C72824",
"b  c #9E5A37",
"n  c #D6421C",
"m  c #C04823",
"M  c #D96027",
"N  c #AA3D42",
"B  c #BE394E",
"V  c #9C4A4C",
"C  c #8A5549",
"Z  c #AA5552",
"A  c #B75457",
"S  c #837F7A",
"D  c #BE6867",
"F  c #BA7B76",
"G  c #D0574F",
"H  c #D66B4D",
"J  c #D97342",
"K  c #D57B56",
"L  c #C25D67",
"P  c #D26F69",
"I  c #C07369",
"U  c #C67877",
"Y  c #D27472",
"T  c #86837E",
"R  c #D68369",
"E  c #DB966D",
"W  c #C6887D",
"Q  c #D89279",
"!  c #DFA07F",
"~  c #858481",
"^  c #8B8683",
"/  c #8C8984",
"(  c #8D8C8A",
")  c #918E8B",
"_  c #94928D",
"`  c #98958E",
"'  c #949492",
"]  c #9B9996",
"[  c #A19E9A",
"{  c #A5A39D",
"}  c #A5A5A1",
"|  c #ABAAA6",
" . c #ABA8A5",
".. c #B1AEAA",
"X. c #B2AFA6",
"o. c #B4B1AA",
"O. c #BBB4AC",
"+. c #B8B8AE",
"@. c #B5B4B3",
"#. c #BDBBB4",
"$. c #BDBCB9",
"%. c #BAB4B3",
"&. c #CC8986",
"*. c #D68E8E",
"=. c #C4938C",
"-. c #CD948D",
";. c #DB9483",
":. c #D39185",
">. c #CD9592",
",. c #C59A93",
"<. c #DA9E9E",
"1. c #DBA08E",
"2. c #C8A399",
"3. c #D1A49C",
"4. c #D0A89E",
"5. c #D8B294",
"6. c #D59DAA",
"7. c #CCABA4",
"8. c #D3ADA3",
"9. c #DAADA9",
"0. c #CCB4A9",
"q. c #C3BBAC",
"w. c #CBBAAD",
"e. c #CEB0A6",
"r. c #D4B1A4",
"t. c #D4B4AC",
"y. c #D3B9AB",
"u. c #D9BEA3",
"i. c #C5BDB1",
"p. c #CDBDB3",
"a. c #C4BCB9",
"s. c #CEB5B0",
"d. c #D3BDB3",
"f. c #DABEB3",
"g. c #DDBDBD",
"h. c #DCB2B3",
"j. c #C6C1B3",
"k. c #CBC4B6",
"l. c #CFC8B6",
"z. c #CDC5BB",
"x. c #CEC8BB",
"c. c #C4C1BC",
"v. c #D4C4B6",
"b. c #DAC4B5",
"n. c #D2C4BB",
"m. c #DCC5BC",
"M. c #D2CBBD",
"N. c #DBCBBD",
"B. c #DFC9B4",
"V. c #E4CDBF",
"C. c #CEC5C2",
"Z. c #CDCAC4",
"A. c #D1C7C2",
"S. c #D4CBC3",
"D. c #DACDC4",
"F. c #D4CEC9",
"G. c #DACBC5",
"H. c #CFD0CB",
"J. c #D7D0C6",
"K. c #D9D1C6",
"L. c #D5D2CC",
"P. c #DCD4CB",
"I. c #DED9CC",
"U. c #D6D5D1",
"Y. c #DBD5D1",
"T. c #D6D8D3",
"R. c #DCDAD4",
"E. c #DEDDDA",
"W. c #E0C7C3",
"Q. c #E1CDC4",
"!. c #E3CECB",
"~. c #E1D1C5",
"^. c #E2D5CC",
"/. c #E1D9CE",
"(. c #E1D9CD",
"). c #E1D8C7",
"_. c #E3D6D4",
"`. c #E0D9D1",
"'. c #E2DBD4",
"]. c #EADFD3",
"[. c #E3DDDA",
"{. c #EBDDDA",
"}. c #F0DFD7",
"|. c #E5E1D6",
" X c #EBE2D6",
".X c #E5E2DD",
"XX c #EBE4DC",
"oX c #EDE8DD",
"OX c #F0E8DB",
"+X c #E5E4E1",
"@X c #EAE6E1",
"#X c #E9EAE5",
"$X c #EDEEEA",
"%X c #E7E8E3",
"&X c #F3F1ED",
"*X c #F5F6F1",
/* pixels */
"                                                                                                    ",
"                                                                                                    ",
"                                                                                                    ",
"                                                                                                    ",
"                                          . = 6 8 8 0 6 ; @ X                                       ",
"                                    X : ^ +.M.K.P.I.I.R.I.F.+.i #   X                               ",
"                                    _ I.K.z.j.l.z.l.z.j.k.M.M.R.L.r                                 ",
"                                  = M.q.j.z.z.M.M.M.M.l.M.A.z.l.l.|.' .                             ",
"                                  w K.l.M.M.S.M.M.P.S.M.P.S.S.D.M.k.R.| .                           ",
"                                  T |.S.K.P.P.K.P.I.J.P.(.J.P.P.K.A.j.Z.&                           ",
"                              X   ^ OXP.(./.P.^.I.I.(./.(.P././.P.K.M.k.+                           ",
"                    r | t ;       w  XJ.(./.I.^./././.I././.(././.J.I.O.                            ",
"                # t L.Z.R.[...;   # M.).P.I./.^./.I.`.`.P./.P.P.I.K.oX_   X                         ",
"            O ( U.P.i.q.j.A. XU.=   ) ].P.I.I.^.I.I././././.P.P.P.P.XX3     . w ' | $.9             ",
"          - a.P.j.j.z.k.z.M.S. X#.  5  XP./././.I./././././.P.P.P. X_     6 L.&X%X+X.X$Xq           ",
"          ..P.q.l.M.l.M.M.M.J.P.oX/ # L.(./.(././.^./.I././.I.P.^.n.@   0 *X#XU.U.R.R.E.Z..         ",
"        5 `.j.l.l.M.M.M.S.S.P.`.Y.XX~ |  X/./././.^.^././.^./.P.}.e   r #X%XR.E.E.E.R.U.'.;         ",
"        { K.q.z.M.M.S.S.S.K.I.`.`.I./.'././././.(./.^.^./.(.P.(.O.; | &X@X.X[.E.R.R.T.U.%X4         ",
"      * J.l.M.S.S.S.S.D.J.I.I.I.`.`.I.P.N././.^.(./.^.P.(.(.(._.#.L.&X.X.X.X.XR.Y.T.R.R.#X6         ",
"      w (.k.K.P.P.P.P.K.K.P.I./.[.`././.b.N.^.^.^.^.D.Q.(._./.P.#X@X.X@X.X+X[.R.R.E.E.T.#X9         ",
"      i M.j.S.P.(.Y.P.K.S.P././.`./.^./.~.b.b.D.Q.Q.m.Q.(.~.D.'..X.X.X.XXX@X%X.XE.E.E.T.@Xw         ",
"  X   p M.k.S.I.I.I.I.I.K.K.I.`.`.I.K.^.^./.y.8.m.m.g.m.~.Q.(.@X[.[..X.XXXXX%X[.[.E.E.U.#Xi         ",
"    X X.M.z.S.D.J.I./.I.K.P.R.`./.^.~.^.D.G.b.&.3.h.9.f.Q.Q.{.[._.[..X.X.X.X.X.XE.E.U.L.@X~         ",
"    . j.l.x.A.A.L.P.P.P.P.I.'.`./.K.Q.^.W.8.8.W U &.>.8.t.!._.[.[._.[.[.[..X.X[.Y.U.P.L..X/   X     ",
"      { M.z.j.i.z.J.K.J.P.P.`.[./.P.D.G.f.3.W I A L U -.h.W._._.Y.Y._.[.[..X[.R.U.U.P.L.[.'         ",
"      p ^.q.j.i.j.n.J.K.K.P././.P.K.N.d.r.2.D N f g k L 6.g.! V.[._.[.[.[.[._.Y.U.U.U.L.E.}         ",
"      ; P.n.q.i.p.k.n.S.D.J.K.S.M.n.n.n.n.d.8.A < > 1 B *.;.H J E +X`.[._._.Y.Y.U.U.U.L.R...        ",
"        ; ] S.l.q.w.w.n.I./.P.P.P.S.S.n.v.t.7.&.2 o , h C x v z M E J.P.I.Y.U.U.L.F.L.L.P.%.X       ",
"            4 ] n.v.M.'.R.J.S.J.D.S.G.n.d.y.7.=.V , $ % d a s c H K b.N.S.S.S.S.F.F.L.S.P.^         ",
"                + | [.L.F.A.S.J.K.D.S.n.p.p.w.2.F Z C b m l s j P <.9.B.XX X/.D.S.F.Z.[.{ .         ",
"            X   @ Z.U.L.F.S.L.P.S.S.S.S.d.w.w.0.,.=.>.4.Q n c c G r.f.~.@.o.L.XXoXoX#X| #           ",
"                ~ #XL.L.F.J.P.L.L.S.S.S.n.w.p.d.7.e.y.p.:.R 1.H Y R G.J.} ; X : S u 4 .             ",
"                ' %XU.U.U.L.L.L.J.S.A.A.n.p.n.n.s.0.m.n.5.b.K.5.*.;.u.F.Y.U.~ #                     ",
"            X   u $XU.L.P.U.L.P.P.S.S.A.A.n.n.n.p.n.G.D.S.D.D.U.m.5.P.S.A.S._._.y                   ",
"            X   q $XU.L.F.F.L.U.Y.I.F.A.S.S.n.n.n.P.D.P.J.J.P.J.P.P.D.D.S.S.C.A.[.)                 ",
"                6 #XL.F.Z.A.F.P.Y.Y.P.x.A.S.A.M.A.} F.Y.Y.J.D.J.P.D.S.A.M.S.S.S.a.U.r               ",
"                * R.L.L.F.F.L.U.Y.Y.P.A.A.S.S.n.S.[ Z._.I.K.S.S.M.S.A.S.S.S.S.A.S.a.Z.:             ",
"                  } [.F.F.L.F.L.Y.F.F.F.S.S.S.M.P.] %.@XY.J.S.M.x.M.A.S.S.A.M.Z.A.Z.Z.Z.=           ",
"                  ; U.F.L.S.A.L.L.F.F.F.F.S.A.n._.i i &XU.P.S.A.A.S.A.A.M.x.x.Z.x.C.c.J.9           ",
"                    w |.S.L.F.F.F.L.P.F.S.A.n.x.].9 4 &XU.L.F.S.S.S.M.x.M.S.A.A.S.C.k./.:           ",
"                      ' |.F.L.L.F.L.U.L.F.A.x.C. X6 * &XE.L.F.S.A.n.M.x.A.M.S.A.x.P.S.e             ",
"                      . @..XL.F.F.L.U.L.F.S.x.P.F.@   ..&XL.L.F.A.M.A.Z.A.A.x.S.`.^ *               ",
"                        + ] |.E.R.U.L.Z.Z.S.`.U.4     # Z.#XL.A.A.A.x.C.Z.J.[.o.;                   ",
"                            4 ( | $.L.U.U.Z._ =         @ ] [.F.L.P.I.`.P.j.y .                     ",
"                                  X * 7 5 #                 9 $.#.[ S e 3 .                         ",
"                                                              . X                                   ",
"                                                                        X                           ",
"                                                                                                    ",
"                                                                                                    ",
"                                                                                                    "
};
