/* XPM */
static const char *shine_wall2[] = {
/* columns rows colors chars-per-pixel */
"50 50 227 2 ",
"   c #020305",
".  c #060B06",
"X  c #04050B",
"o  c #060A0D",
"O  c #090B0D",
"+  c #071005",
"@  c #091207",
"#  c #0A130C",
"$  c #0B1A0D",
"%  c #10170F",
"&  c #101A0B",
"*  c #181E0C",
"=  c #020612",
"-  c #050A13",
";  c #0A0C14",
":  c #040D1A",
">  c #0B0E1B",
",  c #100F14",
"<  c #051412",
"1  c #0D1314",
"2  c #061A16",
"3  c #0D1A14",
"4  c #04111D",
"5  c #0C111C",
"6  c #06181C",
"7  c #0C1A1B",
"8  c #121316",
"9  c #141B15",
"0  c #12131C",
"q  c #19171B",
"w  c #131A1C",
"e  c #1A1A1D",
"r  c #142218",
"t  c #24261F",
"y  c #030F20",
"u  c #090F20",
"i  c #041324",
"p  c #0D1423",
"a  c #051925",
"s  c #0C1A24",
"d  c #04162A",
"f  c #0C1629",
"g  c #041A2D",
"h  c #0C1A2C",
"j  c #121523",
"k  c #181721",
"l  c #161925",
"z  c #1A1B24",
"x  c #121729",
"c  c #141A2B",
"v  c #1B1D2B",
"b  c #021730",
"n  c #041C34",
"m  c #0B1D33",
"M  c #031E39",
"N  c #141D32",
"B  c #1A1E32",
"V  c #141F39",
"C  c #201E26",
"Z  c #201F2A",
"A  c #082625",
"S  c #0B222C",
"D  c #102325",
"F  c #1D2224",
"G  c #15202C",
"H  c #1E212E",
"J  c #062135",
"K  c #0B2234",
"L  c #0A2933",
"P  c #05223C",
"I  c #09243B",
"U  c #072C3F",
"Y  c #0A2B3F",
"T  c #132136",
"R  c #1D2134",
"E  c #142A36",
"W  c #14233B",
"Q  c #1C243B",
"!  c #1F293D",
"~  c #252629",
"^  c #22222C",
"/  c #28262B",
"(  c #222434",
")  c #292733",
"_  c #252835",
"`  c #2A2933",
"'  c #22253B",
"]  c #24293D",
"[  c #2C2C3C",
"{  c #302F38",
"}  c #27303E",
"|  c #052442",
" . c #042244",
".. c #092541",
"X. c #0B2542",
"o. c #052944",
"O. c #0A2B44",
"+. c #042649",
"@. c #092548",
"#. c #062B4C",
"$. c #0B2C4B",
"%. c #152541",
"&. c #1B2642",
"*. c #122B44",
"=. c #1B2A43",
"-. c #142D4B",
";. c #1B2E4D",
":. c #083446",
">. c #0C324B",
",. c #1D3045",
"<. c #13344C",
"1. c #1A314D",
"2. c #052C53",
"3. c #0A2F51",
"4. c #092D52",
"5. c #062F5A",
"6. c #122F52",
"7. c #063154",
"8. c #0A3354",
"9. c #0B3856",
"0. c #06335C",
"q. c #0A355C",
"w. c #0C395C",
"e. c #133354",
"r. c #1B3253",
"t. c #173854",
"y. c #12355B",
"u. c #1B3559",
"i. c #113B5C",
"p. c #1B3A5B",
"a. c #212742",
"s. c #242A43",
"d. c #2A2D43",
"f. c #242E4B",
"g. c #2A2F4A",
"h. c #302F44",
"j. c #2A3247",
"k. c #26314C",
"l. c #2C314C",
"z. c #333345",
"x. c #33354C",
"c. c #383749",
"v. c #3B394D",
"b. c #243454",
"n. c #2C3453",
"m. c #2B3559",
"M. c #21385A",
"N. c #293A58",
"B. c #333653",
"V. c #353A53",
"C. c #3D3D55",
"Z. c #343B5A",
"A. c #3B3E5B",
"S. c #073662",
"D. c #093661",
"F. c #073A65",
"G. c #0A3C63",
"H. c #063A6B",
"J. c #0A3D6A",
"K. c #123D63",
"L. c #1A3C64",
"P. c #073E76",
"I. c #0C415C",
"U. c #1C425D",
"Y. c #0E476A",
"T. c #0C446D",
"R. c #1B4767",
"E. c #13436B",
"W. c #14496C",
"Q. c #0B4472",
"!. c #0D4A76",
"~. c #06447B",
"^. c #0A4478",
"/. c #0C4B7C",
"(. c #124671",
"). c #124B71",
"_. c #134C7B",
"`. c #1A4B79",
"'. c #165379",
"]. c #214665",
"[. c #25496D",
"{. c #354466",
"}. c #384361",
"|. c #284E75",
" X c #355275",
".X c #474557",
"XX c #44435B",
"oX c #444966",
"OX c #074484",
"+X c #0C4E83",
"@X c #0D4F89",
"#X c #104F80",
"$X c #0D5284",
"%X c #0D558C",
"&X c #0D598C",
"*X c #105284",
"=X c #155D83",
"-X c #1C5D84",
";X c #10558B",
":X c #145A8C",
">X c #1B5D8C",
",X c #0C5493",
"<X c #0E5D93",
"1X c #0E599D",
"2X c #125B92",
"3X c #2B5A80",
"4X c #235C90",
"5X c #16618E",
"6X c #0F629B",
"7X c #126496",
"8X c #12649B",
"9X c #14689B",
"0X c #1B6B9C",
"qX c #1162A1",
"wX c #146BA2",
"eX c #106DAC",
"rX c #1A76AD",
"tX c #116BB1",
"yX c #0E75BA",
"uX c #1574B4",
"iX c #1D7EB4",
"pX c #1A7CBA",
"aX c #1D80B8",
"sX c #2A83B1",
"dX c #1380C2",
"fX c #1A8BC7",
"gX c #1C95D2",
/* pixels */
"X i 4.J.i.n i d n *.N c T c ; w v j 0 ; 5 j ; - ; > > - o w j 5 > - X o n /.Q.d - X - a 2.1XF.- X o ",
"X d 0.P.g K 8.X.W T N N X.n - v Q x j x x x > o ; > p > - 0 5 5 5 i 4 4 a m a - X o 0 f M H.S.:   X ",
"= p M 5.y d X.h m | +.#.5.n X J J.4.N c 5 : p 5 5 > p > X O X ; f n  .P d p - X   o p d P  .g -   4 ",
"- 5 f n f m p - - : i i d -   d OXOX+.p - = p c c p p ; O - X 5 a n P P 4 i -     - d n  . .4.n i n ",
"> ; O - v x p > ; - X - s P +.F.+X2.i X   = f p j > ; X X 5 f 4 n n  .M d +.M = X ; P 0. .n $.n g : ",
"j > X O c x p p p > o 5 Y P.tXgXQ.: X X   k ] 5 8 w 1 ; i J n i M M P n i | #.i : | H.%XJ.g g P n i ",
"B - X X - p p p p f J J | OXtX$Xd j H w @ w H > w ^ R I 0.~.,X^.2.P P n 5 p d : g n M P  .d P P p 5 ",
"f u X     X - > l I J.4.i 0.q.h ( ] ] H w l T a X o : 4 b /.pX1X2.y i : - : 4 g P n m g f i n m x j ",
"> u X     X ; w c $.Q.| o 7 1 ^ _ d.g.g.f.e.q.#.g d K m P +.#.P :   o x X.$.+.4.4.#.+.m : X i f l l ",
"X     . . o 7 l R $.@.j z 9 . w s.Q Q a.;.q.#. .n n -.6.q.D.0.D.#.4 l k.a.Q Q N T m P g o   O 0 0 w ",
"o X O . + . o 5 x f G _ v > X v R Q Q &.-.4.+. .g g -.f.;.6.@.@.m B ' ] ' ( ' R v # 3 : ; 5 > ; O . ",
"    . . . . o X 4 P O.W c > o v B B Q W @.#.+.n - X p c x p 5 - o v T T T T T Q R ; o > x c B c 1 . ",
"    > S L a o - i d i f x > o l B B W X.+. .g a d h R B l j v ( ' g.<.P d n P P g ; j l f p p 5 - . ",
". o a T.+X+.- - : - - I %.c l R B x f g i y y >.&X$XK.1.k.' R g.f.f.s.m 8.$X7XQ.#.#.7.I g g d 5 - o ",
"o < 6 J w.$.$.P 4 ; : o.P h N B N > - ; j T 8.J.T.%X/.G.-.c 5 Q R c l p.2XrXwX/.q.D.S.+.: : 4 p g f ",
"# # 2 < - $.T.I j 0 5 g X.N N N N 5 o - v g.L.+XeX8X0.n : 0 l l v v [ }.b.=.=.e.7.+.n n X.g i p I J ",
"# + . o o 6 7 3 $ # 8 5 5 x x x ( ' c c j ( m.E.$X$Xq.x d.A.A.Z.l.( [ B.s.' Q X.| d = I 8.P m p p a ",
"z w O .     . + @ + @ 1 O k v 5 N.4X`.u.;.Q Q T./.J.a [ Z.m.g.m.u.e.-.k.' B m n i : 4 f d i 5 , ; - ",
"v ) z w ; o X @ + . . . 8 ! e.8.+.Q.uXuX,Xy.p 4 I i o d.l.g.g.b.y.q.I p j p n +.#.#.$.Q v 0 ; ; ; k ",
"z.z.' R c x p 1 @ . . . o p X.0.0.#.q.D.Q.T.<._ ^ l 0 j ( a.s.a.=.X.4   K G.Q.Q.J.8.=.Q ' B > O ; k ",
") ' Q N x f f p ; O # o X X : X.5.5.d i <XfX8X[.V.' c p l c j x c x 5 5 O.T.Q.q.7.I x j > o X O ; k ",
"l ; p c x f f f 5 1 # # . .   : g d X J %XdXgXwXr.p I ).K.W x ^ [ W P n g d g i : i d K l j w 0 > > ",
"> ; - - p p 5 : ; 3 . @ # ; o ; p S Y >.9./.fXpX+.4 E._.$.N R z.d.W 8.q.I X.9.g A o.J.8.W R R B v l ",
"> > - X X > j c j 1 k ^ z j > j j.R.`.G.P m w.-Xn X a m h > j ] s.k.M.E./.Y.T.w.L >.J.8.Q R ' ' R B ",
"> > - X - B ( ' ' ( l v v c 0 ( x.f.-.@.| g 5 Q ! H ( ( v j 1 w R d.l.p.T.7.Y :.A S L c v R ' ' R B ",
"; ; 0 0 j v v v z 0 ; k s.s.Q x.n.f.%.m X.M a t.p.M.n.l.B.l.' l 0 c f.&.K g ; s 7 9 & . O % w l c c ",
"; 0 v B Q B B c.XXd.l v c x v s.s.Q c m | M g g J O.*.a.s.g.l.d.( l 5 l =.J a U O.r & @ & $ # # O o ",
"0 0 0 x p i *. XoXB.c p 5 H ' ( c p 4 d 2.sX:Xi I <.! ' R R ' s.s.B - 5 p Y =X!.X.s # $ 2 a g s w > ",
"z.h.[ H 5   9.5XN.Z.k.B x j ( ( l 5 g | 0.W.P i Y.3X}.] x p x x j w w > 5 *.'.'.a 3 D I.).0.$.m c 5 ",
"Z.Z.Z.l.R o I i.W.0X>Xe.N > > l ,.w.q.#.P g - d W.<.p - X X o q ` d.( j - o ; o O F p.iXuXH.4.T x ; ",
"m.m.b.b.N ; T p W >.O.J : - - ' }.-.$.X.m d - 5 E 3 O X . / ` / ^ c 0 > o ; e C z w S 8.#.7.$.N 5 w ",
"s.s.&.c - o ; 8 l o k v > o - j s.f.&.&.N > > ^ { ) z 9 e .X.Xc.[ ^ 8 o w ] z.C.C._ ;   X J K x - l ",
"W N x x j 9 @ 1 o - ] V.d.j o v ) ( Q N c ) v.XXC.l.F # # H C.XXz.) ^ 8 0 v B ] d.B - q ^ z 5 o o 0 ",
":X_.y.-.m 5 5 ;   > ] Z.Z.B ; ( B l j ; ) v.A.A.d.B 5 O 8 ; v c.C.[ F r 3 5 c ( ( j l R.-Xi.n a X.%.",
"I n i : i O.K.M.R > ( d.R 0 w v H ( H j l _ R B x p - k [ ) 0 ^ c.z.F 3 O X x R v w <.9XeX/.$.n +.J ",
"W N > ; =.M.M.L.`.$.5 w v h.x.h.d.s.' R j ' ' c c f j d.x.A.' > v ( l ; - ; 5 5 k ] =XwX/.#.a d I h ",
"q.K.-.N Q n.r.;XaXQ.a j V.V.B.l.l.g.' x 5 R d.' c > k [ ] R p - Q Q N V W W N k [ ].9XH.n - X > p 5 ",
"+XwX*X(.W ;.6.Q./.q.n x Z.A.B.l.n.s.N > ' _ ; - ^ c.c.c.c._ 0 5 Q &.W N N c w ; l c -.W c R ( R j O ",
"7.J.J.G.d T &.$.4.q.I 5 x.V.l.s.' x - 0 ] [ 8 8 z.A.x.Z.{.|.|.m > p I 8.U.V.x._ 5 l s.1.=.Q Q B j w ",
"p - : i : 5 R Q m f p o j R R c p X - Z ` t * 9 H ] f.p.#XrX0X8.n I 9XyX6X[.Z.d.j l t.4.+.X.N p w ^ ",
"x 5   X 8 l ( ] ] ' x - w ( ( H v C ^ ` [ ~ & 7 5 m $.7.$.).%XQ.^./.*X%X$XR.Q 5 - 0 v W I I g ; w v ",
"k 0 8 , ; ; ; - ; j 5 x R R B c k ~ / [ x.' w 5 - 4 X.%.Q b.[.e.K.Q.G.n O.O.J J G v 0 0 p 5 5 0 v ( ",
"z Z Z Z z > X ; , 0 0 5 0 0 5 - 0 [ z.g.R p y : X c f.f.' d.C.B.k.r.$.4 X I T.J.$.W p ; s W Q Q ] ' ",
"l l v v Z j O O ^ ] ( v Z Z v , X l v 5 o - i m p B Q Q N R R R B v p : i T.Q.8.$.I d P wXrXF.O.Q v ",
"c v l v c j > w [ d.d.d.l.d.( ; O 0 z z G K d m l p p ; - N $.4.=.g.N.e.8.5X(.W f a g J.$X^.0.o.>.R.",
"v v c j - - ; v ' B B R R v ^ / ] [ [ ' =.>.J - I O.I s 4 d 7.0.@.=.g.&.c c R c j 5 : J $.@.@.#.F.7X",
"v v j o - ; ; c B x j > > ) } ] ] ] =.=.<.O.n $.!.#.J I 5.q.g #.5.+.m p > 0 0 5 ; - X O 5 5 f I | | ",
"j 0 o o -   o j l z k l s <.G.w.K.G.w.w.q.P i J./.#.+.H.qXQ.- : i g 4 - - O O O O X X 8 8 o O > o ; ",
"- - - - -     8 v Z v J g n 7.Q.:X%X@X^.+.i : g +.5.H.,X;XM X 4 d J g o ; 8 e e 0 > X O 0 ; X X   8 ",
"O 0 w k >     0 0 0 0 5 4 o - a P q._.D.n d f - 5 h I #.S.| : | I T w 8 C ^ _ l 0 - X o , ; O X   o "
};
