/* XPM */
static const char *shine_rose1[] = {
/* columns rows colors chars-per-pixel */
"50 50 217 2 ",
"   c #010001",
".  c #0A0505",
"X  c #060806",
"o  c #0B0905",
"O  c #04050A",
"+  c #09070B",
"@  c #05090C",
"#  c #0A0A0D",
"$  c #10070A",
"%  c #11110D",
"&  c #050B14",
"*  c #0B0C13",
"=  c #0C0E1A",
"-  c #040919",
";  c #110E14",
":  c #100E1C",
">  c #0B1016",
",  c #07121B",
"<  c #0B121C",
"1  c #0E181E",
"2  c #051016",
"3  c #131215",
"4  c #12131B",
"5  c #14191C",
"6  c #1A1B1B",
"7  c #1B1714",
"8  c #070F22",
"9  c #061222",
"0  c #0C1423",
"q  c #0E1824",
"w  c #0C162A",
"e  c #0D192B",
"r  c #06152A",
"t  c #111624",
"y  c #131926",
"u  c #12162B",
"i  c #111C2C",
"p  c #1A1B25",
"a  c #0D1C32",
"s  c #0F1F38",
"d  c #091A37",
"f  c #121C31",
"g  c #101E38",
"h  c #1A212B",
"j  c #0D2139",
"k  c #0F2233",
"l  c #152235",
"z  c #1A2232",
"x  c #14243B",
"c  c #1A253B",
"v  c #1A2A3C",
"b  c #252429",
"n  c #29292B",
"m  c #272424",
"M  c #282838",
"N  c #323235",
"B  c #363539",
"V  c #3B3B3D",
"C  c #363835",
"Z  c #403C3B",
"A  c #0F254A",
"S  c #142440",
"D  c #1B2541",
"F  c #1B2B43",
"G  c #1C2C4A",
"H  c #132949",
"J  c #1D314C",
"K  c #172E52",
"L  c #1E2F52",
"P  c #1B3351",
"I  c #232C49",
"U  c #242C42",
"Y  c #24334E",
"T  c #253348",
"R  c #3E3D42",
"E  c #243453",
"W  c #2B3552",
"Q  c #2A3B55",
"!  c #293A5B",
"~  c #323D5D",
"^  c #2E3D61",
"/  c #343C60",
"(  c #403F44",
")  c #2D425D",
"_  c #34435E",
"`  c #2E4565",
"'  c #3B4465",
"]  c #3A4C6D",
"[  c #374665",
"{  c #3C4D73",
"}  c #3D547A",
"|  c #345077",
" . c #4C4A4C",
".. c #444444",
"X. c #4A4855",
"o. c #494F68",
"O. c #42516C",
"+. c #47526A",
"@. c #55596A",
"#. c #444D71",
"$. c #4A5272",
"%. c #4B567D",
"&. c #4D5C7D",
"*. c #445376",
"=. c #535C79",
"-. c #516173",
";. c #606B7F",
":. c #4D5E89",
">. c #455985",
",. c #4A6387",
"<. c #556483",
"1. c #54638C",
"2. c #5C6B89",
"3. c #4F6690",
"4. c #526692",
"5. c #556A93",
"6. c #5B6B93",
"7. c #5A6C9C",
"8. c #5C739C",
"9. c #5E7295",
"0. c #636A89",
"q. c #68728A",
"w. c #616C92",
"e. c #6C6C9A",
"r. c #666794",
"t. c #67779A",
"y. c #677597",
"u. c #767995",
"i. c #6A7AA4",
"p. c #6976A2",
"a. c #7C7FA7",
"s. c #727DAA",
"d. c #6D7DB0",
"f. c #867FA8",
"g. c #887CA5",
"h. c #7D8296",
"j. c #7080A3",
"k. c #7885AA",
"l. c #6D85B1",
"z. c #7985B2",
"x. c #7988B5",
"c. c #7A8AB9",
"v. c #7485B3",
"b. c #87879F",
"n. c #8389AD",
"m. c #8884AB",
"M. c #8B94A5",
"N. c #9C91AF",
"B. c #8E87B1",
"V. c #858DB2",
"C. c #8B8AB4",
"Z. c #808BB9",
"A. c #958CB5",
"S. c #968FB8",
"D. c #9A8EB9",
"F. c #9889B0",
"G. c #8592BD",
"H. c #8A94BA",
"J. c #9294B5",
"K. c #9393BE",
"L. c #9C95BE",
"P. c #959DBD",
"I. c #9583AB",
"U. c #A187AC",
"Y. c #A595BC",
"T. c #AA9AB8",
"R. c #B49AB9",
"E. c #B3A1BB",
"W. c #A6A7BB",
"Q. c #8B9AC6",
"!. c #8C97C4",
"~. c #949AC3",
"^. c #949DCC",
"/. c #9C9AC5",
"(. c #A39AC5",
"). c #AD9DC3",
"_. c #A895C2",
"`. c #B59CC6",
"'. c #8DA1C6",
"]. c #96A2CC",
"[. c #9DA4CA",
"{. c #9BAACB",
"}. c #93A4D3",
"|. c #9DA5D1",
" X c #A2A7C3",
".X c #A1A3CD",
"XX c #A8A3CA",
"oX c #B6A6C8",
"OX c #B3B1CA",
"+X c #B8BACC",
"@X c #ABADD5",
"#X c #A5ADDA",
"$X c #ADAEDA",
"%X c #A7A8D3",
"&X c #B8ACD6",
"*X c #A5B3DE",
"=X c #ABB3DE",
"-X c #ABB1D3",
";X c #B3B4DC",
":X c #B8B6D7",
">X c #A6B0E1",
",X c #BABBE4",
"<X c #C3A6CC",
"1X c #C8ADC6",
"2X c #D1B9CF",
"3X c #C6B6D3",
"4X c #D9BEDF",
"5X c #CAB4C9",
"6X c #C5C3D3",
"7X c #DBC7DB",
"8X c #DBC9E8",
"9X c #DCD2E6",
"0X c #E8CEE7",
"qX c #E3D3E5",
"wX c #EADDEE",
"eX c #E3E1EF",
"rX c #F1E1FA",
/* pixels */
"                  .     X @ @ X X o + # * * * # O # # X + * * + ; . . $ . X .             X         ",
"                  . O   X O O * @ @ * 4 4 = = y > < 4 4 < < 1 t + * * # * # . # .                   ",
"                O O   + > > & , 1 < 0 0 e w 0 9 i 0 , q i i r 0 w f t , t = O * # O X               ",
"                O * & & < q 0 e r k x j S G Y F x v F v x j S F S l a w e e 0 < * * # X .           ",
"          O O +   < t 9 8 r a c j H P K A A K ! ] ) J J [ &.{ L P d H P j s x 0 < < > # o .         ",
"        O + # * = 0 0 e D Y G G t.,.} 5.8.4.,.5.9.k.V.j.t.k.G.G.3.| >.3.` G F a e q < * # o .       ",
"      O @ * * < i w a E *.*.{ } '.i.5.v.}.}.Q.G.k.H.~.V.k.V.~.^.}.l.8.p.9.] L G F z w < ; ; .       ",
"      O # * < 0 0 f W &.6.>.4.c.|.].Q.G.^.#X|.K././.P.J.C.A././.>Xc.>.1.x.6.^ [ W U i 0 4 4 * +     ",
"    O O # > 1 y i c G j.:.5.>.c..X@X/.C.K./.L.L.XXY.N.T.).I._.(.,Xe.r.p.~.V.k.[.V.+.u.h.z - t O O   ",
"    O @ # > q i f Q O.t.1.7.7.s..XXX(.D.D.L.Y.Y.oXE.R.R.R.U.`.`.&Xr.e.C.$X~.V.%XV.J. Xo.u M = & O O ",
"    O + * < q e T 2.P.{.Q.v.d.i.B.F.Y.).).).T.T.oX5X2X1X1XR.<X<Xg.A.%XS.C.K.~..X[.-X$.c f - u O O O ",
"    O + * < q e v [ k.{.*XQ.c.s.g.u.m.Y.Y.oX3X3X7X7XqX7X0X8X4XoX).F.D.S.(.@X$X,X,X=.D f i 0 - < O O ",
"    O + # > 1 q l x W y.].*X*X#XK.f.f.B.S.oX8X9X9XqXwX9XrXrX8X&XoXXX&X,X;X@X~.~.y.D U c 0 y & * O O ",
"    . O + * , q l c D ] <.G.].#X=X@X$X;X;X:X:XOXW.6XeX6X+XOX:X:X(.L.m.a.a.n.y.&.I c l t < * +   O   ",
"      O O & 2 , 9 l c G G ' %.w.p.z.Z.z.s.w.&.+.;.M.+XM.q.0.u.n.n.K.[.,XH.%.H S Y r z & * 6   % .   ",
"        O @ & , q 0 i x I W ' $.<.6.:.` ^ ^ [ O.O.-.u.-.+.' _ ~ / #.#.w.w.2._ g a 0 & 5 #   %       ",
"        X O + & = < 0 t M @.m. X{.2.E E ! ! E Q Q Q 0._ Q Y Q Y T F c c l l i q < < * # + O .       ",
"          O O + * = : : p M X.o.+.Y s c G G F G G F -.Y F c F c l l i i i y q < * * # + O           ",
"              O O + * * = : 4 0 w r r f f e e f f 0 =.c r e e w q 0 , < < < & & & + O O             ",
"                  O + + * * * * & 0 y t 0 < < q q - @.z , 0 < < < , & & & & + O O                   ",
"                O       O + + + + * * * * ; 4 * 4 + X.n * * * * * & & + @ O O                       ",
"                                . O . . + # # . #   V N . + + + O O O O                             ",
"                                        . .     .   m Z                                             ",
"                                                    7 ..                                            ",
"                                                  X    .%                                           ",
"                                                      C m                                           ",
"                                                    O 6 V                                           ",
"                                                    X X ..#   X                                     ",
"                                                        V h   X                                     ",
"                                                        n N                                         ",
"                                                        3 V X                                       ",
"                                                    O   # V ;                                       ",
"                                                O   #   # ..*                                       ",
"                                                    O   3 R +                                       ",
"                                                        b B                                         ",
"                                                        B b   O                                     ",
"                                                    + O ( ;                                         ",
"                                                    * 5 B                                           ",
"                                                    + N p                                           ",
"                                                    O  .+                                           ",
"                                                    B b   O                                         ",
"                                                  O R 4   O                                         ",
"                                                  6 R       O                                       ",
"                                                  n N     O                                         ",
"                                                  B p     O                                         ",
"                                                  V ; O       O                                     ",
"                                                  V *                                               ",
"                                                  V 3       #                                       ",
"                                                + 6 3     O O                                       ",
"                                                  + O                                               "
};
