/* XPM */
static const char *shine1_rose[] = {
/* columns rows colors chars-per-pixel */
"50 50 219 2 ",
"   c #010001",
".  c #0B0205",
"X  c #060208",
"o  c #0C030A",
"O  c #13050C",
"+  c #19060E",
"@  c #15080B",
"#  c #1A090F",
"$  c #150511",
"%  c #1C0513",
"&  c #160911",
"*  c #1C0913",
"=  c #230514",
"-  c #220A16",
";  c #26061A",
":  c #2B0719",
">  c #250A1A",
",  c #2C0C1C",
"<  c #290715",
"1  c #320B1E",
"2  c #2E0E21",
"3  c #340D22",
"4  c #3B0D24",
"5  c #3B0F28",
"6  c #2F1022",
"7  c #351023",
"8  c #3B1126",
"9  c #3E1229",
"0  c #730003",
"q  c #430D27",
"w  c #430E2A",
"e  c #4A0E2B",
"r  c #510B2F",
"t  c #43132C",
"y  c #4A122D",
"u  c #421127",
"i  c #4C1532",
"p  c #4E1832",
"a  c #541534",
"s  c #591536",
"d  c #5B1436",
"f  c #531935",
"g  c #571739",
"h  c #5D1639",
"j  c #561A39",
"k  c #5C1A3B",
"l  c #63153C",
"z  c #631A3D",
"x  c #69183F",
"c  c #68163E",
"v  c #5F1E40",
"b  c #651C41",
"n  c #6C1C43",
"m  c #6B1641",
"M  c #721D46",
"N  c #751E49",
"B  c #7B1D49",
"V  c #781945",
"C  c #7E1D50",
"Z  c #6C2045",
"A  c #752149",
"S  c #7C214C",
"D  c #752047",
"F  c #7D2451",
"G  c #85010E",
"H  c #910514",
"J  c #9B121A",
"K  c #840926",
"L  c #941530",
"P  c #A91A35",
"I  c #C12D3D",
"U  c #831D4D",
"Y  c #811E51",
"T  c #8C1D57",
"R  c #9D1D56",
"E  c #82204F",
"W  c #82224E",
"Q  c #8A214F",
"!  c #832452",
"~  c #8C2554",
"^  c #8D2659",
"/  c #8E2A5B",
"(  c #832A54",
")  c #932556",
"_  c #932659",
"`  c #99275D",
"'  c #932B5C",
"]  c #9A2B5D",
"[  c #9E2457",
"{  c #A0285C",
"}  c #B12E56",
"|  c #942E62",
" . c #9D2C61",
".. c #9A3668",
"X. c #A32D61",
"o. c #AD2B65",
"O. c #A23364",
"+. c #AC336B",
"@. c #AA366B",
"#. c #B5356D",
"$. c #AD3D74",
"%. c #B53A72",
"&. c #BA3972",
"*. c #B22B66",
"=. c #CD3949",
"-. c #D3384A",
";. c #C83952",
":. c #DA3B5A",
">. c #C23B79",
",. c #E23B66",
"<. c #9D426E",
"1. c #A94878",
"2. c #B14074",
"3. c #B94276",
"4. c #B8447B",
"5. c #BA487A",
"6. c #D7415E",
"7. c #D2474C",
"8. c #E5525C",
"9. c #D94A69",
"0. c #C1477B",
"q. c #CB437C",
"w. c #C3497F",
"e. c #D64B71",
"r. c #DD527B",
"t. c #CE4767",
"y. c #E44F6F",
"u. c #F25968",
"i. c #E74A73",
"p. c #E75A77",
"a. c #EA5267",
"s. c #F76879",
"d. c #BC4B83",
"f. c #BF4784",
"g. c #BF5889",
"h. c #BD608D",
"j. c #CF4B83",
"k. c #CD4784",
"l. c #D64D8B",
"z. c #D94C86",
"x. c #C95589",
"c. c #D5518B",
"v. c #D75484",
"b. c #CE5D95",
"n. c #DB5F94",
"m. c #D65C98",
"M. c #F14A8B",
"N. c #F54E86",
"B. c #E55687",
"V. c #EF4E99",
"C. c #E15D94",
"Z. c #EA5B94",
"A. c #EB5B9B",
"S. c #E85496",
"D. c #F65896",
"F. c #EB448A",
"G. c #CF6D9C",
"H. c #DC639A",
"J. c #DA659A",
"K. c #E5618B",
"L. c #F36C8A",
"P. c #FF6089",
"I. c #E4629B",
"U. c #E6689E",
"Y. c #EE6B9B",
"T. c #EE6A94",
"R. c #F2619A",
"E. c #FF6D9C",
"W. c #F96598",
"Q. c #ED769E",
"!. c #F8749A",
"~. c #E45FA0",
"^. c #F55EA1",
"/. c #D96AA2",
"(. c #DD77A9",
"). c #E467A1",
"_. c #EC6BA3",
"`. c #EA6AA6",
"'. c #F36DA5",
"]. c #FB6CA5",
"[. c #FA64AA",
"{. c #F36DA9",
"}. c #FB6CAB",
"|. c #FA66A6",
" X c #EE71A3",
".X c #EC72AB",
"XX c #E570A5",
"oX c #FB74A1",
"OX c #F473AD",
"+X c #FC73AC",
"@X c #F577AA",
"#X c #F76DB2",
"$X c #EC7AB3",
"%X c #E975B4",
"&X c #F575B2",
"*X c #FE74B3",
"=X c #F47BB4",
"-X c #FC7CB5",
";X c #FF74BD",
":X c #FD7CBB",
">X c #F37CBA",
",X c #FF7FC9",
"<X c #ED82B5",
"1X c #F583B9",
"2X c #FE82BC",
"3X c #FE8BBD",
"4X c #F687BA",
"5X c #F782C4",
"6X c #FF84C2",
"7X c #FF8BC3",
"8X c #FF8DC9",
"9X c #FF82C9",
"0X c #FF95CC",
"qX c #FF99CE",
"wX c #FC92C4",
"eX c #FF8ED0",
"rX c #FF92D3",
"tX c #FF9BD2",
"yX c #FF97DA",
/* pixels */
"                                                                                                    ",
"                                                                                                    ",
"                                                                                                    ",
"                                                                                                    ",
"                                                                                                    ",
"                                                                                                    ",
"                                                                                                    ",
"                                                                                                    ",
"                    X X . . X X     X   . . . . . . . . o . .   X X X X . .     X                   ",
"                    . . X X X o o o o O O + % + % + % + * + + O o o X X X X .   .                   ",
"                . X o o O $ $ $ * * - > > , , , 1 , , , , , > > * % % $ + O o X X .                 ",
"            . . o O $ % % * > > , 2 3 7 9 9 t t t t t t t 9 4 3 3 , , > - % % + O o .               ",
"          . o o O % = ; : , 3 3 4 w t i a a a s h s s a a a i y t w 4 3 1 : < = + + . . .           ",
"      . . O + + % = : 1 3 4 9 t i a k z b n n n M n n n n b l h s a y e q 4 1 : - * + O . X .       ",
"    . . O + * = : 1 3 9 t i f j z n n A S S E E ! E E E S S N M n z z s a y q 4 1 , - # @ O . X     ",
". . . O + * - : 3 5 t i g k b Z A A F ( ^ ^ _ ) _ ) ) ) ) ~ ~ ! S S M n z s a y 4 1 , - * @ O .     ",
"  . o + % - , 4 t i a h m N F ! F ( ' ^ ` f.m.c.I.w.0.+.[ o.X.` ^ ^ ( S n n b a i t 3 , > * % o o . ",
". o O * - : 3 w e r l M C Y T ^ ..' | $.m.>X&XC.{.'.+Xc.o.o.*.+.@.| / Y B N n d g i 9 3 2 > % $ o . ",
"X O * - , 3 t i v z n ! ^ _  .@.T d.%XeXrX5X&X#X|.}.*XA.l.~.`./.$X<X<X/.1...( n b k i t 7 6 > * O o ",
"o $ * , 7 9 i f n n B ! )  .+.#.m.>XrXyXrX5X&X:X*X|.D.S.^.:X6X%X8X8X0XtXtXwXG.<.M b f i 9 7 , - * O ",
"O % > 2 8 t f z n S ~ _ X.%.&.>.6XrXeX7XrX0X-X].W.D.N.M.Z._..X$X>X$X1X7X0XqX<Xg.S M z a t 9 3 > * + ",
"$ % , 3 t i k n S ~ ` X.#.q.z.l.S.+X2X7XwX3X!.B.i.i.,.i.B.Z. X=X1X7X7X=X.X.X.XJ.~ E M z f t 8 , - * ",
"% ; 3 5 i j n D Q Q { &.q.q.z.S.B.z.v.K.T.!.L.p.a.u.-.:.y.p.T. X-X=X=X&X:X8X2XU.` ~ S n k i 9 7 - * ",
"= ; 3 9 i k Z S ~ ) 3._.+XZ.z.B.B.e.e.e.t.9.s.s.8.u.-.I ;.9.L.!.OX2X8X8X6X:XC.#.{ ) S n k i 9 7 > * ",
"= ; 3 t i k n S Q ] j.'.'.Z.R.+XK.B.r.e.9.6.=.I =.7.J H L ;.E.T.'.OXOXI.l.>.*.#.{ ) E M z f t 7 > % ",
"% ; 3 t i k n S ~ $.0.&.q.A.].R.oXoXoXE.E.P.:.P H G 0 0 P e.W.R._.n.c.k.j.l.&.R ] _ E M z f t 7 > * ",
"$ ; 2 9 i k n D U ] 3.x.I.+X:X:X7X3X2X*X*X+XW.i.P K K K } W.].:X:X`.).`.{.&Xn.+.` ~ S n k p t 7 - * ",
"$ * 2 8 t f b M E Q %.$XtXtX8X0X8X2X|.S.F.M.D.W.B.v.Q.Q.@X6X}.;X6X&X=X:X.X).m.$.~ ! M z f t 4 , - * ",
"+ * > 7 u i k n S B ) 4.XX2X&XH.OX_.A.A.V.V.^.*X8X3X3X1X&X*X;X,X:X>X=X=X.X$X<Xx.! D b k i t 3 : * + ",
"o & - , 7 t a l n B B U ] 2.4.%.j.j.z.A.[.[.[.*X*X-XOX2X6X:X9X:X=X7X=X=X4XqX4X1.D Z k a t 8 3 : * O ",
"o O * > 1 5 y a x M ! / ^ ^ ..4.C.R.W.'.}.}.*X+X2X-X_. X-X2X8X7X6XtX7X4X4X(.h.S n z a y 9 3 : < $ o ",
"X o & - , 3 u y d d c V ( / | ] j.Y.@XY.I._.OX{.'.'.'.U.U.H.b.x.d.b.d.g.1.B N b k f i t 4 1 ; % + o ",
"X X O # - , 1 4 y a d x M S ! ~ ) O.5.n._..XU.C._._.I.x.%.X. .O.' ' ~ ! S M b k a y 9 3 , : = % . . ",
"    X O # - , 1 8 t a d z n D S B ~ O.5.b.J.H.H.w.0.3.@. .` _ ' ~ ! F N n z k a t 8 3 , > % % +     ",
"      . O # - < 1 1 q y a d z n N B E ~ ' ] ] ] ] _ ~ ~ ~ ~ ! E S A n z h a y t 4 1 : - % + O .     ",
"        . + + = < : 1 4 q e a a z z c m M B B B B B V M S S N n b k g a y w 4 1 : - % + O o .       ",
"        . . O + % = : : 3 4 5 w y a a h z n n n x z z z z z s a i t t 9 4 1 , > * # O o X X         ",
"          . . O O + % = < : , 3 4 5 t y i y e e a a f a i y t t 8 7 3 , : - % % + O X X X           ",
"            . . . o O + + % % - = : , 3 7 8 u u 4 8 8 8 8 7 3 , > - - % % + O O . .                 ",
"                  . X X o o O $ % % % % % = > > > > - > > > % % * + + O O . . . .                   ",
"                        X X . . X o o o O O $ $ O O O O O O O O . . . . . . .                       ",
"                        X X X X X X X . . X X X . . . . . . .   . . .                               ",
"                                                                                                    ",
"                                                X X                                                 ",
"                                                                                                    ",
"                                                                                                    ",
"                                                                                                    ",
"                                                                                                    ",
"                                                                                                    ",
"                                                                                                    "
};
