/* XPM */
static const char *shuneeee[] = {
/* columns rows colors chars-per-pixel */
"50 50 130 2 ",
"   c #020204",
".  c #090606",
"X  c #0E0A07",
"o  c #070709",
"O  c #090708",
"+  c #0B0A0C",
"@  c #110E0E",
"#  c #14100F",
"$  c #0E0E10",
"%  c #131213",
"&  c #191514",
"*  c #1C1817",
"=  c #171719",
"-  c #1C1B1C",
";  c #231F1E",
":  c #24201F",
">  c #1E1E20",
",  c #242323",
"<  c #292524",
"1  c #2C2827",
"2  c #272729",
"3  c #292728",
"4  c #2C2B2C",
"5  c #312D2D",
"6  c #33302E",
"7  c #2E2E30",
"8  c #333334",
"9  c #393634",
"0  c #3C3837",
"q  c #363638",
"w  c #3D3C3C",
"e  c #433F3C",
"r  c #3F3F41",
"t  c #434244",
"y  c #4A4746",
"u  c #4E4946",
"i  c #474749",
"p  c #494748",
"a  c #4C4B4C",
"s  c #534E4B",
"d  c #54504D",
"f  c #4F4F51",
"g  c #555454",
"h  c #595553",
"j  c #5E5A57",
"k  c #575759",
"l  c #5B5B5B",
"z  c #625D5B",
"x  c #656363",
"c  c #696562",
"v  c #6B6B6B",
"b  c #736F6C",
"n  c #737374",
"m  c #7A7673",
"M  c #7E7A77",
"N  c #7D7D7D",
"B  c #827E7C",
"V  c #84807D",
"C  c #7E7E80",
"Z  c #848484",
"A  c #8B8683",
"S  c #8D8D8E",
"D  c #97928F",
"F  c #949393",
"G  c #9B9793",
"H  c #9D9895",
"J  c #9D9C9B",
"K  c #A6A19E",
"L  c #9F9FA1",
"P  c #A3A3A3",
"I  c #AAA6A3",
"U  c #AEA9A6",
"Y  c #ACACAC",
"T  c #B1ACA9",
"R  c #B5B1AE",
"E  c #B7B2AF",
"W  c #B6B2AF",
"Q  c #B2B2B4",
"!  c #B4B4B4",
"~  c #B3B3B3",
"^  c #BEB9B6",
"/  c #B6B6B8",
"(  c #B9B7B8",
")  c #BFBBB8",
"_  c #BABABC",
"`  c #BCBCBC",
"'  c #C1BDBA",
"]  c #C6C4C5",
"[  c #C3C3C4",
"{  c #C7C7C9",
"}  c #CCCCCC",
"|  c #D2CDCA",
" . c #D3CECB",
".. c #D4CFCC",
"X. c #D6D1CE",
"o. c #D5D4D4",
"O. c #DED9D6",
"+. c #DAD9D7",
"@. c #DBDADB",
"#. c #E3DEDB",
"$. c #E1DDDA",
"%. c #E5E0DD",
"&. c #E6E1DE",
"*. c #E5E1DE",
"=. c #DFDFE1",
"-. c #E3E2E2",
";. c #EBE6E3",
":. c #E9E5E2",
">. c #EDE8E5",
",. c #EDE9E6",
"<. c #E7E7E9",
"1. c #EBEBEC",
"2. c #F2EDEA",
"3. c #F3EEEB",
"4. c #F1EDEB",
"5. c #F7F2EF",
"6. c #EFEFF1",
"7. c #F6F3F3",
"8. c #F8F3F0",
"9. c #FBF6F3",
"0. c #FCF7F4",
"q. c #FAF6F5",
"w. c #FDF8F5",
"e. c #FEF9F6",
"r. c #FFFAF7",
"t. c #FCF8F7",
"y. c #F6F6F8",
"u. c #FFFCF9",
"i. c #FFFEFB",
"p. c #FDFCFB",
/* pixels */
"      o                                                                                             ",
"            + - 4 $     +                                                                           ",
"            + % > +     o     +                                                                     ",
"                                                                                                    ",
"                          o                                                                         ",
"              o +           % 2                                                                     ",
"o                     o     = 7                                                                     ",
"        o o       o o                                                                               ",
"          +                           + o     o                                                     ",
"        o $ +                     +         +                                                       ",
"          + +                   +               , = +   o + o                                       ",
"                                  $ $ + + $ $   - % o                                               ",
"                                + - 4 t w 2 > = o                                                   ",
"                                - > k Q Y f > 2               o                                     ",
"                                o % 2 t r > % $ o                                                   ",
"                                  +   $ +       +       + + o                                       ",
"                            o         + O 8 4     =   .                       +                     ",
"                      o o     o         - p w   + +   @     - -                                     ",
"                o       o         O +         . +   3 x 9 + O   +           % +                     ",
"                  +       o     +       @ + 2 p . + 4 g 5 @     +   + % +                           ",
"                              o + + % -   + % + . = + + + 3 3 5 2 w 3 = %     +                     ",
"                +     +             , w + . + + % +   O - 8 3 w J ! N 4 - %                         ",
"                $         + %   @   . # . . & , ; @ * , & * % 9 g v a - % +                         ",
"                    +     8 t +   + %   * ; 5 1 @ < g t . * < 6 y w 2 %       +                     ",
"  o o                 o $ + % %   #   @ - , @ - , g B x w 1 z F [ n 3 +     o                       ",
"                +   o     + , + 1 @   : * - 5 a c v I I c 6 y g c 4 = % +                           ",
"                o   + = + % - + 5 & X , 9 h z j F I ) I M 9 w x a = +       %                       ",
"                  2 3 8 t w 2 + : y e 6 a b V G H ' R B m g d b a ,       % -                       ",
"                  - 8 P _ f , - , u c B K U ^ *.X...| T H B z < 2 %   % + +                         ",
"                  % + 8 q 2 w - 0 s D  .8.e.u.9.u.e.e.,.#.R A z p 3 + + +     +                     ",
"+               +         = 8 w h G :.2.2.9.u.0.5.e.0.2.u.*.O.,.( J g   +     +                     ",
"- +                 +   - , = g u R e.2.i.u.7.:.q.#.3.2.-.*.r.3.7.i.[ % =   +                       ",
"                          = - 4 B I [ } o.-.-.o.@.@.@.+.o.@.-.1.1.<.1.<.=.t                         ",
"                      + 7 F ( [ -.[ ~ ` { } o.@.-.@.} o.@.@.@.o.@.-.6.y.o.y.n                       ",
"                  o     3 S ( { ( ` { o.@.@.o.o.[ ` ` [ o.@.o.} =.o.[ / 1.P =                       ",
"                      + , t g v Z Y [ ( Y Q ( ` Y ! [ } o.} { { [ Q ~ ~ p                           ",
"                o o     % 4 x L Z F P P K J Y ! ~ [ o.o.[ ! Y Y ` [ Z > o   % +                     ",
"                            - 4 t x Z F F J J S Y ! ` ` ~ P F S C S Z q   o                         ",
"                  o         2 3 w v Z m n Z Z m Z Z Z Z Z N m v N l n =     $ o                     ",
"                            w i g g g g g g l x l l l l g g a p g l r i $                           ",
"                o     + $ o   + 3 8 w w 8 4 8 w p a a a k l a w o     + +     +                     ",
"                    o       - 7 2 6 w w 3 - + + - 8 f l l z x v t 2                             o o ",
"                % o     , i t 3 - , , - %       + 4 a g p p g l x i 2 $       $                     ",
"                      o - 8 4 % # +           + + , 8 w w w w w i 3 +     o                       % ",
"                    o                                   + = +   %                               = 2 ",
"                +         o                     % +                 + +       +                     ",
"                      o                                         +         +                         ",
"                o o                             +                   o         o                     ",
"  + +         o                                                                                     ",
"  % +         o                                                                                     "
};
