/* XPM */
static const char *shuroom[] = {
/* columns rows colors chars-per-pixel */
"50 50 247 2 ",
"   c #0C0B06",
".  c #0D0E09",
"X  c #0E110B",
"o  c #12130D",
"O  c #151511",
"+  c #181712",
"@  c #151812",
"#  c #191813",
"$  c #1D1D18",
"%  c #10120E",
"&  c #211E19",
"*  c #1E231D",
"=  c #24231D",
"-  c #2A241C",
";  c #1F2120",
":  c #2B2A24",
">  c #292723",
",  c #322D25",
"<  c #362F28",
"1  c #35332B",
"2  c #3B3328",
"3  c #3C3B34",
"4  c #373531",
"5  c #571609",
"6  c #5D0400",
"7  c #67170A",
"8  c #681E12",
"9  c #7C1209",
"0  c #692615",
"q  c #71361A",
"w  c #6F3312",
"e  c #46372B",
"r  c #473F32",
"t  c #553A2F",
"y  c #733725",
"u  c #78481B",
"i  c #7C511C",
"p  c #484439",
"a  c #574836",
"s  c #4F5237",
"d  c #784C28",
"f  c #7D5728",
"g  c #795B38",
"h  c #6C4D35",
"j  c #79643B",
"k  c #4B4B43",
"l  c #524942",
"z  c #5D5B55",
"x  c #595747",
"c  c #675B46",
"v  c #775147",
"b  c #6F514B",
"n  c #696353",
"m  c #766B59",
"M  c #726648",
"N  c #766D67",
"B  c #777269",
"V  c #8C170B",
"C  c #A61B02",
"Z  c #B21D03",
"A  c #A80E06",
"S  c #962817",
"D  c #A4240A",
"F  c #B82506",
"G  c #B7340E",
"H  c #BA3317",
"J  c #AB3114",
"K  c #8C3428",
"L  c #AA3425",
"P  c #B93625",
"I  c #C01E07",
"U  c #C32A09",
"Y  c #C72503",
"T  c #C83309",
"R  c #D63B0C",
"E  c #C92818",
"W  c #C93A17",
"Q  c #D62F15",
"!  c #E5371D",
"~  c #C83724",
"^  c #D93929",
"/  c #D83830",
"(  c #E42E21",
")  c #E83B25",
"_  c #E73C34",
"`  c #874E18",
"'  c #8D551A",
"]  c #925D1D",
"[  c #95561A",
"{  c #B74519",
"}  c #A7541D",
"|  c #B6541C",
" . c #875B26",
".. c #8E542E",
"X. c #BA4633",
"o. c #B15434",
"O. c #88622A",
"+. c #956526",
"@. c #8B6835",
"#. c #956B32",
"$. c #957335",
"%. c #A7692B",
"&. c #A1773A",
"*. c #B26E32",
"=. c #C94818",
"-. c #D94717",
";. c #C95018",
":. c #C84628",
">. c #D64A27",
",. c #D9532B",
"<. c #D6473A",
"1. c #CC583D",
"2. c #CB5530",
"3. c #E64529",
"4. c #F34C2A",
"5. c #E6542D",
"6. c #E75937",
"7. c #EE4D36",
"8. c #E96738",
"9. c #EF6931",
"0. c #C2682A",
"q. c #E33E44",
"w. c #935548",
"e. c #B65748",
"r. c #A75E55",
"t. c #976544",
"y. c #9A7A58",
"u. c #936B4C",
"i. c #A96758",
"p. c #AA764B",
"a. c #866B65",
"s. c #95796D",
"d. c #93746E",
"f. c #B86D67",
"g. c #AF7972",
"h. c #D84948",
"j. c #C85744",
"k. c #DF5747",
"l. c #D95856",
"z. c #C85047",
"x. c #E54A4A",
"c. c #E75747",
"v. c #E35857",
"b. c #E8524C",
"n. c #D8684C",
"m. c #C86356",
"M. c #D8765A",
"N. c #CD674C",
"B. c #E96746",
"V. c #E66857",
"C. c #F3665B",
"Z. c #E87959",
"A. c #F47758",
"S. c #F26D4C",
"D. c #E15F67",
"F. c #D96967",
"G. c #DA7866",
"H. c #D97979",
"J. c #C97969",
"K. c #E7786C",
"L. c #E5797A",
"P. c #F47A77",
"I. c #EF736B",
"U. c #9A8357",
"Y. c #908045",
"T. c #AB8B57",
"R. c #AC8B52",
"E. c #8A816C",
"W. c #938C6D",
"Q. c #A89466",
"!. c #B79967",
"~. c #AF9079",
"^. c #BAA06B",
"/. c #BDA679",
"(. c #ADA179",
"). c #EA885B",
"_. c #D98378",
"`. c #CD8574",
"'. c #EB856B",
"]. c #E78976",
"[. c #F88878",
"{. c #E8947A",
"}. c #F38C6E",
"|. c #C3AC78",
" X c #DC855A",
".X c #D97E82",
"XX c #9A8E87",
"oX c #B1968B",
"OX c #B8A988",
"+X c #BAB49C",
"@X c #BFB592",
"#X c #B2A990",
"$X c #BAB5A5",
"%X c #DB8886",
"&X c #DC9A95",
"*X c #CD978B",
"=X c #E78786",
"-X c #F58D86",
";X c #E7958B",
":X c #F69887",
">X c #E99997",
",X c #F69996",
"<X c #EA8994",
"1X c #C8A29C",
"2X c #D2BD98",
"3X c #CDB090",
"4X c #E7A69A",
"5X c #F1A997",
"6X c #F1AB94",
"7X c #C79EA4",
"8X c #EA9DA3",
"9X c #C7BCA7",
"0X c #CFB2AB",
"qX c #E9A7A7",
"wX c #F3AAA8",
"eX c #E8B3AB",
"rX c #EABBB5",
"tX c #F2B6B4",
"yX c #CFC197",
"uX c #C9C3A6",
"iX c #D5C6AA",
"pX c #C7C3B6",
"aX c #D5CDBD",
"sX c #DBD1BC",
"dX c #EEC7BB",
"fX c #E7D8BD",
"gX c #F2C9B7",
"hX c #DCD5C7",
"jX c #D6D2CB",
"kX c #E5D8C7",
"lX c #E5DED2",
"zX c #E3DED9",
"xX c #F3D0C5",
"cX c #EBE3D4",
"vX c #EBE5DB",
"bX c #EEEADD",
"nX c #E5E0D9",
"mX c #F2EBDC",
"MX c #FAEFDD",
"NX c #E8E1CF",
"BX c #ECE8E3",
"VX c #F4EEE4",
"CX c #F2EFEA",
"ZX c #F5F2EC",
"AX c #F9F3E9",
"SX c #FFFDF4",
"DX c #F9F7F2",
/* pixels */
"# # # # # # # # # # # # # # # # # # # # # # # # # + o   # = X = + o o O O O # + # # # # # # # # # # ",
"# # # # # # # # # # # # # # # # # # # # + + # O o * , z s.g.v oXN b N - = $ o # # # # # # # # # # # ",
"# # # # # # # # # # # # # # # # # # + # # o X > b r.m.qXl.h.H.4XeXH._.1XoXs.p o . # # # # # # # # # ",
"# # # # # # # # # # # # # # # # # # # # . p v g.>Xh.h.h.h.F.L.F.F.L..X>X%X.X&Xs.l o o # # # # # # # ",
"# # # # # # # # # # # # # # # # # # # . e `.I.;X4XL.=XF.b.v.l.x.v.D.>X;XL.<XqXeX8XXX3 . o # # # # # ",
"# + # # # # + # # o O . O # # # # # O N %X;X>X=X<X<XP.L.-Xx.x.4Xx.q.G.=Xb.=X&XH.<XtX1XN : o # # # # ",
"# # # # # # + o # > = k > X o # # # s.wX>XxXdX8XgXtXI.-X;X_ V.gX6.b.=X/ _ L._.h.F.H.%XqX7X1 X # # # ",
"# # # # # O @ , v 1Xf.4X~.a.p . . b C.I.,X5XqX,X-XK.P.C.c.7.7.^ ) ) _ ! ( ( ^ / K.dXF.%X%Xg.> o # # ",
"# # # # o = d.1X%X;XV.F.;XL.*Xl x &XwXI.-X,X,XwX:X[.[.-XC.7.4.4.4.) ) Z.K.3.) ) 3.n.<._.qX%X#X$ O # ",
"# # # o - g.<XwX<Xl.b.<.<.F.&X&XrX'.6XP.:XtXgXxX:X[.,XxX{.S.'.V.7.4.6.gXAX'.! c.6.! ^ ^ &XJ.%Xd.o # ",
"# # . : f.=XtXwXL.K.x.h. XB.h.&X{.S.S.[.[.{.{.{.[.[.[.K.A.}.MXgXB.c.5.M.*X8.4.c.cX].^ <.~ :.z.*Xr o ",
"# o : oX>XeXtX>X;X4X/ ].n.V.l.'.6.A.6X[.A.'.}.A.:X:XA.A.A.'._.M.S.S.S.B.,.5.6.5._.n.B.;X>./ 1.eXa.X ",
"# @ w.P.>X>X>X=Xc.<.7.Q E l.F.) ].{.Z.B.8.6X).9.}. X9.8.9.8.6.8.B.V.B.8.Z.:XB.6.,.,.n.1.n.4X~ 1.e.: ",
"o 1 j.v.wXwXqX4XV.c.<._ h.E %XB.-.-.6.R R 1.:.R T T -.R -.-.R -.{.6X,.R n.&X,.>.>.>.-.W :.o.W H j.c ",
"% v 5X>XrXqX>X=XL.=X;Xv.F.~ _.>.Y Y Y Y R =.=.W -.-.T U U F F U H H F Y F Z U T U U T U W T G j.j.u.",
"= X.V.=X>XqXqX;X{.eX&Xl.h.<.E I =.;.;.0.*.%.%.*.*.*.*.| | | 0.;.{ G G G F F F F Z Z F Z F G F N.N.w.",
"a Q 3.L.=X=X=X{.).<._.>Xh.~ E | *.%.+.O.f i u u u w w w ` ] ] ] +.] [ } } } } { { G J D C C C C D w.",
"d.4Xk.dX=X=XrXG.{.G.~ z.z.m.A %.+. .O. . . .` ` d d h d ` ' ' ' `  .g d f f f  . . .] +.} { J J S t ",
"#X&X<.G.G.K.4Xm.&X`.H.m.P 0XL S ] O.O. . .g t < > = ; g [ ' ' ' ` @.1 & 1 4 , 2 e 2 2 2 r a a c t = ",
"w.j.>X>.Z.].W W W Z m.`.C o.S 9 0 u f  .O.a o O O o =  .] ] ] ] ' O.= o O o O O o O O O o o O o O O ",
"*XG.&XxXn.:._.M.1.G.P J L V V w.8 5 5 w h $ + # # o , @.+.+.+.+. .@., O # # # # # # # # # # # # # # ",
"a.2.X.X.F 1.*XJ.e.e.o.L i.V i.y.8 0 q 0 e O # + # o a p.&.&.#.+.+.@.1 o # # # # # # # # # # # # # # ",
"t `.f.X.`.D S S L S f.f.V 9 K y q 7 7 0 2 O # O # O j T.T.R.p.&.+.O., O # # # # # # # # # # # # # # ",
"1 a.r.oX~.w.i.t.K i.w...K 7 y 7 0 0 5 0 2 o # # O = y.!.!.T.T.R.$.#.1 o # # # # # + # # # # # # # # ",
"O o 3 3 - 1 c f t.U.@.t...8 y.y 6 y q y = O # # o r !./.^.!.!.T.&.#.2 o # # # # # # # # # # # # # # ",
"# # o o @ o # < a M @.$.@. .q 8 8 8 q t o # # # X l 3X3X|././.^.R.$.2 o # # # # # # # # # # # # # # ",
"# # # # # # + O . n Q.U.U.u.f u u y a = O # # # X l iX2X3X3X3XOXT.p.r o # # # # # # # # # # # # # # ",
"# # O # # # # # X n 9XOX~.U.j j g a @ O # # # # o 3 iXiX2X2X3X3XQ.R.p o # # # # # # # # # # # # # # ",
"# # # # # # # # . z hX9X+X~.m > , o # # # # # # O > #X3X|.yXyX2X!.U.p o # # # # # # # # # # # # # # ",
"# # # # # # # #   N vXjXpX@Xm o O # # # # # # # # o #XiX/./.T.T.E.3 O # # # # # # # # # # # # # # # ",
"# # # # # # # #   N VXzXhX9XE.# # # # # # # # # # $ pXmXsX3X/.m . O + # # + # # # # # # # # # # # # ",
"# # # # # # # #   z ZXBXlXaXW.o # # # # # # # # o > hXbXlXaXiXm . $ # # # # # + # # # # # # # # # # ",
"# # # # # # # # o 1 zXZXnXhXXX# # # + # # # # # . k VXbXNXsXuXp o # # # # + # # # # # # # # # # # # ",
"# # # # # # # # o , zXDXvXhXoX# + # # # # # # #   B SXmXcXhX$X> O # # # # # # # # # # # # # # # # # ",
"# # # # # # # # o 3 BXDXbXlX#X# + # # # # # # #   XXSXbXcXkXoX# # # # # # # # # # # # # # # # # # # ",
"# # # # # # # # o 3 CXZXVXlX$X= O # # # # # # O = lXSXVXcXuXE.o # # # # # # # # # # # # # # # # # # ",
"# # # # # # # # . k DXZXvXcX9X= O # # # # # # . k DXAXVXcXuXm o # # # # # # # # # # # # # # # # # # ",
"# # # # # # # # X p zXDXBXvX9X= O # # # # # #   z SXAXAXcXuXx . # # # # # # # # # # # # # # # # # # ",
"# # # # # # # # o 3 nXDXBXlXpX: o # # # # # #   z SXAXVXcXuXp o # # # # # # # # # # # # # # # # # # ",
"# # # # # # # # o 4 BXDXvXlXaX1 o # # # # # #   XXSXAXmXcX+X: O # # # # # # # # # # # # # # # # # # ",
"# # # # # # # # o : BXAXvXhXaXp o # # # # # # o pXSXAXVXMX9X= o # # # # # # # # # # # # # # # # # # ",
"# # # # # # # # # o jXDXbXNXhXp o # # # # # # + pXSXAXcXfX@X- o # # # # # # # # # # # # # # # # # # ",
"# # # # # # # # o = $XhXbXvX+Xp o # # # # # # + +XSXZXsX9XW.$ # # # # # # # # # # # # # # # # # # # ",
"# # # # # # # # O : XXOXfXyXW.3 o # # # # # o , hXSXAXcXkXB . $ # # # # # # # # # # # # # # # # # # ",
"# # # # # # # # # O > n n s p + # # # # # # . k bXAXmXlXkXB . # # # # # # # # # # # # # # # # # # # ",
"# # # # # # # # # # O o X o o # # # # # # # . p vXhXmXlX9Xp o # # # # # # # # # # # # # # # # # # # ",
"# # # # # # # # # # # # # # # + # # # # # # . k fXuXmXsXs.< o # # # # # # # # # # # # # # # # # # # ",
"# # # # # # # # # # # # # # # # # # # # # # o 3 (.Q.@XW.M : o # # # # # # # # # # # # # # # # # # # ",
"# # # # # # # # # # # # # # # # # # # + # + + # m ^.Y.a p # # # # # # # # # # # # # # # # # # # # # ",
"# # # # # # # # # # # # # # # # # # # # # # # O = c M 4 # O # # # # # # # # # # # # # # # # # # # # "
};
