/* XPM */
static const char *spider1[] = {
/* columns rows colors chars-per-pixel */
"50 50 228 2 ",
"   c #050303",
".  c #0B0403",
"X  c #040905",
"o  c #0B0905",
"O  c #06050A",
"+  c #0B060A",
"@  c #050B0B",
"#  c #0B0A0C",
"$  c #130403",
"%  c #1B0402",
"&  c #130A04",
"*  c #1B0A04",
"=  c #12050B",
"-  c #1B050B",
";  c #130B0B",
":  c #1A0C0C",
">  c #06100E",
",  c #0D110D",
"<  c #141104",
"1  c #1B1205",
"2  c #13120C",
"3  c #1C130C",
"4  c #1D1B0B",
"5  c #050511",
"6  c #0C0412",
"7  c #060A12",
"8  c #0C0B12",
"9  c #0E0D1D",
"0  c #120513",
"q  c #190610",
"w  c #120C12",
"e  c #1A0C13",
"r  c #130C1B",
"t  c #180B1C",
"y  c #071110",
"u  c #0D1112",
"i  c #131213",
"p  c #1B1312",
"a  c #1C1C14",
"s  c #1B151C",
"d  c #161A1C",
"f  c #1E1B1B",
"g  c #141519",
"h  c #230301",
"j  c #230B02",
"k  c #230209",
"l  c #220D0C",
"z  c #2B0A0A",
"x  c #2B0605",
"c  c #2C1600",
"v  c #23120C",
"b  c #28140B",
"n  c #231A0D",
"m  c #271908",
"M  c #2C0216",
"N  c #250D11",
"B  c #290E16",
"V  c #3F0D16",
"C  c #231412",
"Z  c #241A14",
"A  c #2A1B14",
"S  c #20161B",
"D  c #2B141A",
"F  c #241B1B",
"G  c #2B1C1C",
"H  c #2B1615",
"J  c #391216",
"K  c #341618",
"L  c #361408",
"P  c #1C2118",
"I  c #2D220D",
"U  c #362808",
"Y  c #3A3100",
"T  c #2D2115",
"R  c #2C211A",
"E  c #242216",
"W  c #33251B",
"Q  c #342B1E",
"!  c #362919",
"~  c #39301F",
"^  c #2C3218",
"/  c #1C1A23",
"(  c #1C1826",
")  c #241C22",
"_  c #2B1D22",
"`  c #281727",
"'  c #321E29",
"]  c #381B25",
"[  c #2D2323",
"{  c #2B2A2E",
"}  c #2F2229",
"|  c #342524",
" . c #382325",
".. c #342A25",
"X. c #3B2D25",
"o. c #34242B",
"O. c #37292B",
"+. c #3A3224",
"@. c #32322C",
"#. c #3C312A",
"$. c #2B2133",
"%. c #272634",
"&. c #3A2F32",
"*. c #372138",
"=. c #373334",
"-. c #441409",
";. c #451F12",
":. c #4E2301",
">. c #473707",
",. c #47371E",
"<. c #683314",
"1. c #773B1F",
"2. c #591A25",
"3. c #422224",
"4. c #432E2E",
"5. c #462627",
"6. c #532B2D",
"7. c #423522",
"8. c #45332B",
"9. c #4D3E2D",
"0. c #473527",
"q. c #482F32",
"w. c #562F32",
"e. c #46313B",
"r. c #4D3D3B",
"t. c #493736",
"y. c #593034",
"u. c #523C3B",
"i. c #563738",
"p. c #53372C",
"a. c #732F3C",
"s. c #682F29",
"d. c #3D431D",
"f. c #634E12",
"g. c #4D442D",
"h. c #544525",
"j. c #5E5B2E",
"k. c #48473C",
"l. c #544937",
"z. c #574538",
"x. c #5D5038",
"c. c #624C2A",
"v. c #635D2A",
"b. c #745724",
"n. c #604E3E",
"m. c #6A4738",
"M. c #625237",
"N. c #705A3C",
"B. c #724339",
"V. c #796828",
"C. c #736C2A",
"Z. c #4B3E41",
"A. c #543B48",
"S. c #623B40",
"D. c #494848",
"F. c #554445",
"G. c #594842",
"H. c #5C5446",
"J. c #5A534C",
"K. c #575046",
"L. c #544F55",
"P. c #5E5254",
"I. c #684946",
"U. c #625747",
"Y. c #6B5B4D",
"T. c #685847",
"R. c #6F4F5A",
"E. c #635155",
"W. c #6B5557",
"Q. c #6D5951",
"!. c #655D56",
"~. c #775756",
"^. c #726145",
"/. c #7A7D4E",
"(. c #6A635A",
"). c #6C685F",
"_. c #786A57",
"`. c #6D6160",
"'. c #7A6561",
"]. c #7A6D64",
"[. c #7E7364",
"{. c #7F6B74",
"}. c #86701D",
"|. c #816814",
" X c #8E532F",
".X c #A44D3A",
"XX c #8B7B32",
"oX c #947131",
"OX c #8E7432",
"+X c #AE7234",
"@X c #855B5C",
"#X c #9D654E",
"$X c #927D48",
"%X c #836459",
"&X c #856F50",
"*X c #AB6647",
"=X c #B06641",
"-X c #B37748",
";X c #A96653",
":X c #895F60",
">X c #926E60",
",X c #887A68",
"<X c #826E70",
"1X c #8C7470",
"2X c #886966",
"3X c #A17A7B",
"4X c #B6913D",
"5X c #9A8558",
"6X c #A0824C",
"7X c #BC9B48",
"8X c #B19E5A",
"9X c #97837C",
"0X c #9D927C",
"qX c #908373",
"wX c #B18D7F",
"eX c #AC886F",
"rX c #C88345",
"tX c #CB9648",
"yX c #C9A050",
"uX c #E0B05B",
"iX c #C78C60",
"pX c #D18F6C",
"aX c #C09C62",
"sX c #D8956B",
"dX c #EAA16A",
"fX c #A39088",
"gX c #AEA18E",
"hX c #EBA281",
/* pixels */
"8 + O O # # # # O O   O # ; #   + # + . . X o o o   + + . - ] N & & . X     $ . $ $ $ $ + O @ # . . ",
"O O + w w # O O # # # #     . # O O . . . o 2 2 2 o O ; . $ D K $ $ o o X . & = $ $ $ $ + O # @ O . ",
"# O O # # O . ;     . # #     # O . . . . $ ; 3 2 # O ; = . l 4.% $ & & . . o + $ $ $ $ + + # # o + ",
"8 # O   O # = + . . . + # o .   # O o . $ $ & : ; # # # ; . % 8.b % $ & . o + . . + . . + . o o . . ",
"X @ # # p F e . = : = .   X o     o o & & * * : = i i . & = . W 0.% % $ . ; # # + + + + + . . . . . ",
"X @ o . p [ G : . $ % . . . X X X o ; < 1 3 v C : p f . ; & . b %XL % * $ & . # + + + O . . . . . . ",
"> @     + : G  .N % $ & & .   X o o o & * v C A : p F o & <   m wX;.j * $ + O i + + + O . . . . . . ",
"X X o ; . . l O.W. .$ $ & .   o @ o o $ $ * v C : = F ; o < . ! wX-.% % $ = w { 6 + + O . . . . . . ",
"@ @ # # = & % $ u.W.C . & . 2   o   3 F.W $ * C & . F f 2 & . ! >Xh % $ * . # i 8 # + . . X .   o o ",
"@ @ # # = & % $ . 4.E.C . p   2 o o   3 $ $ * . = + p ; . $ . 9.%Xx j % : . # # # # # O . . X . o . ",
"# # o # = = = $ % $ F.F.% . & + . ; . & . * : & + # w . . 1 $ Y.I.h z % 3 o # O O # ; # . . . o . . ",
"# # # o # = = = = % . | r.C . :   # o ; & . . i # # O . & 3 $ _.5.% l & : # #   . + # # # .   o   . ",
"# O O O # # # # # = . . O.t.- . e # . . = o . i 8 8 # = & $ j 1XC $ ; = # # o   + + + + # # O   # o ",
"+ O O O # # # # w # e p . D Z.N .   : . o ; i i O 8 8 w & . 5.9X: + 0 # # o o . + . . . + # O O # o ",
"+ + O O # # # #   s   . e $ e.E.e   : + o   # 8 @ 7 # ; : % I.2X= 8 7 8 # o o . $ $ . + + + @ @ # o ",
"+ O O O # # # @ ,   ;   e e . t.~.: & ; p $ % * p 8 O . e % Y.8.  7 O 8 o . o . $ = = = O O 7 8 # o ",
"O 7 @     # i o o o o . = ; w % m.m.v $ 4 . <.;X6.' p . 8 ) J.E o o o o o o . . . + & : # # + 7 + + ",
"7 O O i g #     . . . . = ; = $ % m.z.1 X >.sX.X2.] } f O { D.2 X o 2 2 2 ; = ; = + . . + # # O + O ",
"  O # X     & p $ ; : & . $ ; l h J F.+.  &XhX.X2.M ) =.  { =.5 s #       . + = & 3 p p ; o 2 i + + ",
"+ # O   . & .     . . . . $ . . N % o.k.< 5XpX.Xa.M = @.4 J.%.5     [ (.`.&.[ t.[ O.#...s #     + + ",
"# . + 2 & . $ R R A A ..u.u.X.N $ B O k.h.V.iX*Xs.V 1 ^ U U.( 9 & H.,XU.T 3 & . . . 0 s $.$.( r + + ",
". + + .   : #.K...X.#.8.u.z.u.u.o.) + E v.f.-X-X X-.& d.v.v.# ( ].9.* . $ & $ $ : = = 0 t r 6 O + + ",
"; :     p #...$ . $ $ . . . j H | _ @.  Y }.4X+X=X1.M./.C.>.n L.G v * % % % % & . = & = . . # ; + + ",
"O # # # ; i ; . & $ $ $ % : % $ & : [ 9.Y |.7XtXdX Xc.j.6XV.g.F $ $ . $ $ $ $ : & = + = = ; = . + + ",
"+ # # # # # # # # . = & $ * % % & $ : . f.OX4XuXrX-Xc & XX8Xx.U.h.^.M.T.n.7.| . e q 0 0 0 6 6 0 + O ",
"7 7 7 # 7 # # # i   p & = % v l . C q.I.c.b.7XyXrX*Xp.9.$X$XT.m U c ,.x.9.Y.].F.. q t 0 6 r t 6 + + ",
"7 7 7 7 7 7 7 #   /   = C . l 4.`.F.I.J h h.OXoXsX#XR.{.>XN.9.8.% j . . * . G Z.E.} . . ; = . . + + ",
"7 7 7 7 7 7 7 # i w   = . u.'.W.o.- x % i.z.c.b.<.B.A.*.A n.A '.Q.* v * $ H $ . ; &.Z._ $ . : & . O ",
"# # # # 7 # # # O   p : u.fXz.l = - % s.<Xe ,.N.h z + ` P.qX. $ l.,X7.. & & $ e w   = o.e.' q + .   ",
"# # # # # # # # ; F . $ 1Xp.% $ s l :.eXr.  Q _.8.D 0 $.D.R . 1 $ h.qXT.1 . . ; ; q 0 + q ' ' q ; O ",
"= = = # # # # # + . * Q.~.% z j 0 .  XaX1 #   $ 2 s 6 O , X 4 o * . 7.,XX.  ... = + ; e : = N | S ; ",
"# # = = # # & % * % u.T.% b % l F . b.6Xo X 2 o # 8 + # , P   3 1 * . t.J.p . : : p e = . $ = : [ i ",
"u   # p   o C % h 6.'.&   2 = - S C I _.< o 2   i 8 7 8 8 2 o o # P 2 o ).K.. 3 3 Z 3 & + O O + # # ",
"@ @ # +   3 . % 5.:X% p > > = q : p #.!.. . o i i 8 7 + # # o , g 7 u , 4 (.~ . 1 1 . Z o O 8 O # + ",
"O 8 #     C . 3.@X6.. o > > w w . & t.!.& & + i w w r 8 # # o , u y # 2 . +.[.I m l.W Q     8   # + ",
"+ # # # o $ b 2X~.% H   , @ # w = . X.].v $ & + + w s s i # o o @ d # a Z . _.,XI x.Q 1 . .   # # + ",
"0 O O , ; . i.3Xz l . ; 2 # # w 3 . A 9XT . 3 . O w s ( w # # o @ u , P 4 1 m 0X_.7.! 1 3 X X , # o ",
"0 O @ X ; $ I.~.% l   a   # d O = $ T fXz.. 3 $ ; 0 w 8 + O # > # # o X < 1 . 7.gX7.l.Q & . 2   o # ",
"= + @ X o % w.y.% . 3 ;   8 d   . $ A [.].1 & & ; = + O O # @ # @ 8 #   2 . 1 . Y.T +.n     2   o # ",
"$ + @ @ . $ J y.% & o X ; # O u : . $ Q ].v . 3 & + + + 8 8 @ X 8 # 8 ;   3 . 3 Q 1 . . 3 .   2 o # ",
"q = @ @ ; $ k S.. Z   o # ; @ @ = & $ $ n W Z . ; ; 0 7 # # @ # 7 5 O O + = = = R & . = . . . . O . ",
"= + @ X # $ k y.H . o o # O # # + & & $ 3 T G 3 + + + + 8 u # @ 7 7 6 6 8 0 = = _ = . = + O . O O O ",
"= + @ X # % k 3.q.. ; # #   8 # + = & o $ 3 A [ p ; + + i i u @ 7 7 6 6 6 6 + + ) ;   # O O O O O O ",
"+ # # X # = % B u.$ = i @ X 8 # 8 # # o . $ 3 F } S 0 + 8 i u @ 7 7 7 6 7 6 + + ) # + # O O O O O O ",
"+ # 8 O @ = $ - 4.] . # @ @ + + 8 7 # o o . = : _ S w # # # # y 8 8 8 8 8 8 7 + s + O # O O O O O O ",
"O O # # @ # . - B q.; # @ > + = 7 7 7 8 o o . + = # 6 8 # # # # # @ # # # # # # g + O # O   #   O . ",
"@   # # @ # + - k 5._ # > y + 0 5 7 7 @ # o o .     + + O # @ @ X X X X @ # # # i # O #     #   O O ",
"#   # ; @ # . = $ D &.# @ > + w O 7 7 O   o # . # + O O O # o X X X X X X # # # i O # #     o   . . ",
"# # O # # # # + = ; ; 8 # # 8 w # @ O # O # O . + O O O O O # o X X X X O O O O 8 8 8 # #           ",
"O O O # # # # # # # # # + + 7 8 # O O O O # O   O O O O O O # #   X     O O + + 8 8 8 # #           "
};
