/* XPM */
static const char *spider_ag1[] = {
/* columns rows colors chars-per-pixel */
"50 50 169 2 ",
"   c #010104",
".  c #05050B",
"X  c #08070D",
"o  c #06090E",
"O  c #09090E",
"+  c #100E0F",
"@  c #0E100F",
"#  c #050610",
"$  c #060A12",
"%  c #0A0C12",
"&  c #070E18",
"*  c #0B0F18",
"=  c #100F14",
"-  c #0E1115",
";  c #0E1219",
":  c #121216",
">  c #181816",
",  c #13151A",
"<  c #18171C",
"1  c #16181D",
"2  c #1A1A1E",
"3  c #211B1D",
"4  c #1E201F",
"5  c #0F1925",
"6  c #141720",
"7  c #161921",
"8  c #1B1D22",
"9  c #211F22",
"0  c #1E2125",
"q  c #222225",
"w  c #24252A",
"e  c #28272D",
"r  c #27292E",
"t  c #2A2B2D",
"y  c #262C33",
"u  c #2C2D32",
"i  c #2E3133",
"p  c #2B3139",
"a  c #333335",
"s  c #34353A",
"d  c #363A3D",
"f  c #3B3B3C",
"g  c #403E3F",
"h  c #41403E",
"j  c #343C43",
"k  c #3B3D42",
"l  c #413F42",
"z  c #3D4045",
"x  c #3D444A",
"c  c #3E4852",
"v  c #3D4D5A",
"b  c #424245",
"n  c #4B4A47",
"m  c #46474A",
"M  c #44464A",
"N  c #46484B",
"B  c #4B4C4D",
"V  c #524E4B",
"C  c #58534F",
"Z  c #54514A",
"A  c #454A52",
"S  c #4B4E52",
"D  c #454F5B",
"F  c #4D5155",
"G  c #4D5459",
"H  c #515256",
"J  c #535555",
"K  c #535454",
"L  c #595856",
"P  c #54565A",
"I  c #55595D",
"U  c #5A5A5A",
"Y  c #5A5B5B",
"T  c #605F5B",
"R  c #605C53",
"E  c #61605E",
"W  c #4D5A66",
"Q  c #555D64",
"!  c #5B5E63",
"~  c #5D6165",
"^  c #5F646E",
"/  c #5A6A77",
"(  c #5D6E78",
")  c #636364",
"_  c #676864",
"`  c #6E6A66",
"'  c #64666A",
"]  c #64696C",
"[  c #6A6B6B",
"{  c #726E6B",
"}  c #6F706B",
"|  c #73726F",
" . c #7B706A",
".. c #666C73",
"X. c #6E6D72",
"o. c #6D7276",
"O. c #63727A",
"+. c #6C747B",
"@. c #747474",
"#. c #7A7770",
"$. c #7C7B75",
"%. c #747579",
"&. c #767A7C",
"*. c #7C7C7B",
"=. c #807F7A",
"-. c #82827E",
";. c #6F7E83",
":. c #747C84",
">. c #7C7E81",
",. c #7C8385",
"<. c #7F8289",
"1. c #72808B",
"2. c #798591",
"3. c #848583",
"4. c #898684",
"5. c #8B8A85",
"6. c #868B8C",
"7. c #8D8D8B",
"8. c #94938E",
"9. c #8B8E92",
"0. c #848B93",
"q. c #8F9094",
"w. c #839099",
"e. c #8B949B",
"r. c #939593",
"t. c #979893",
"y. c #9A9A95",
"u. c #939599",
"i. c #9B9C9B",
"p. c #969A99",
"a. c #9FA19E",
"s. c #A1A29C",
"d. c #A8A39F",
"f. c #939CA3",
"g. c #9DA2A5",
"h. c #9EA6AC",
"j. c #92A0AB",
"k. c #A5A6A2",
"l. c #AAA7A3",
"z. c #A9AAA4",
"x. c #A5AAAB",
"c. c #ACADA9",
"v. c #B3ACA4",
"b. c #B1B2AD",
"n. c #BAB8AC",
"m. c #A6ADB7",
"M. c #ADB4BA",
"N. c #AFB8BF",
"B. c #B2B4B4",
"V. c #BDBDBA",
"C. c #B9B8B3",
"Z. c #C1BAB0",
"A. c #BEC0BD",
"S. c #C2C2BC",
"D. c #C1BFC0",
"F. c #B8C3C8",
"G. c #CBCAC5",
"H. c #C6CBCC",
"J. c #D9D5CB",
"K. c #CED2D1",
"L. c #D3D4D3",
"P. c #D8DEDE",
"I. c #DCDCD4",
"U. c #E3E1D4",
"Y. c #EBE9E2",
"T. c #E3E7EA",
"R. c #F0EDE4",
"E. c #FFFFF5",
"W. c #FFFEFD",
/* pixels */
"X . 2 % % , % % , : a % X . . X % O . , X X X . . X . . . X X X . . % , : - : 2 : 8 : q % . . . X X ",
". . % w % 2 w : , - < O X X X X O . q 1 . . X X . . . O % O X . . . . X : 8 8 8 8 , 8 8 . . . . X X ",
"X . . 2 , t m : - . % X X X X O   w u   . X X X . . X X X , 2   X . X X . : , 2 2 q % . . . . X X X ",
"X . o 2 a t b 8 : : % . X X %   , s   . X X X X . % % . . O b : . . X X . - . , q t % . . . . X X X ",
"X % : % 0 q , 8 , % : . . X . : b % X X X O O % : X : O .   s f   . . . - u t t q - , X . X X X X X ",
"O . . 7 2 1 % X X % , O O . O B , . % X - , X X . . , < . o % U : % # O < , , 8 % - 8 : X X . X X X ",
"X % % w 8 % X . X . - 8 2   K 9   % . - % X X X o X % m . #   f _ : O % . X X . : 2 q X O . . X O O ",
". % % % % . . X X . O q ` y.h   % . o - X X . X X O   $.t . ,   7.| 9 : . X X . O 8 q % . X . X O O ",
"O X . % % X . X X X O 2 S.Y.q . O . , : X X . X X X   n ) X , . ) R.v.2 X X X o % - : , % . . X O O ",
"X X % : X X . X . O   w J.#.< . O . u = . % o X . % . % [ , 2 = C E.Y.f X . O X O X O : O o o o O O ",
"X . % , X X O X X . . _ *.O : % . : b . O , . . . : %   H a = # 2 n.Z.2 O X O O o O o O - . o o o O ",
"X . % % X o X X O % % f m . % % . t H   : q . O . 1 8 . ~ P % % . U K % O X O O O O O . % % O O o o ",
". % % o O 2 , O % %   u N . O O X b p   w t   O . 8 z % @.s., O   F k   % O X O O O O o & : . # o o ",
"X % % # O % , : X O   a m . O . 8 i.I   i q   o . , K   | y.X O . S B   % O O O O O O o X : : o . O ",
"% : X O O . . % : O   B _   % X 1 G.)   B t . % X < 7.. 3.) X % . z G   % o % O X X X o . : , % . o ",
", % X # O o O o % :   k )   % % . s.b   %.q . % o : 9.% -.B O 2   M ! . 2 X o % : % % X X . , : o o ",
"= O O O O O o o o O O w k . O %   *.5.  i.t . # . 1 u.: =.f . :   d 9.a % X O % 2 - X X O O % % % X ",
". O O O O O O O o O . E 3.% X %   t k.  c._   % # 1 x.w -.a . % O P b.J - . O o # % % o O O % O % , ",
"O O O O O O O o X O   Y J.t   % # . 5.k ' M 2 % ; 0 Q 1 t.k     H c.7.q . o O O O # O % O . % % o - ",
"X O O O O O O O X % . q J ' d = o   _ z.k Y B a w o.c a ) O   U L.t.% . # o % O O % # o - - % , % % ",
"X O O O % O O O % O o 3.s.q.A.%.1   8 -.K u.) i.r.u.c _ t X ) 6.o.s % % O O . o O O O O % = . $ , - ",
"O O O O O O O %   k p.C.l.5.[ <.^ 3.2 . z F >...g.+.A N S 3.x % . % t % . o o o O O O O o O o % : # ",
"O O O O O O O . t a.6.K 0 O o : 7 ^ e.%.b [ :.5 ,.h.! X.u.! . # # . % . 8 % . O O o O O % % % % % : ",
"O O O o O O O   t.t.% o % # % . O . p h.o.*.F.O.m.B.) Y u       : - , _ q   % . . . o O O O O # , 2 ",
"O O O O O . . m 3.q . % # % . . . .   u c W 1.j.N.>.n f _ m Y @.i.x.| l.' 2   : % . O O O O % , - % ",
"O O O % . % f P - . % O . % f r u u K _ ) ' w.2.f.&.S $.S.@.%.9.<.&.) _ o.6.U K . o O O O # % 2 # % ",
"O . %   % I b X . % t % t t.s.b.l.| 3.,.m P P +.M./ l w 8 t % X % o   t B { J.V.. o % . % % % % $ # ",
"% %   t i.B : % % X B T t.c.} f t : - , $...:.T.W.x.m ) B ,   X O % % o 2 O g l.3.  . w 1 . # % # & ",
"% . t V.Y   % % % t 4.Y.k.w %   . X ; H i ,.P.K.H.u.) l ! B.' e X % % % % %   a 8.[ B n . # % % O % ",
"o 2 $.s   % O O % + d.W.L   % % %   *.b.B ;.0.W ( F ) x.J N B.D.f . % % # : : X 4 _ s.% # % % % % # ",
". q -   % O O %   _ I.@.t , . %   N _ z.S.+.D v j b x ] V.s : 3.%.2 X % o 2 , % O Y 9.s . % % % % % ",
"% X O O O O %   f i.U 2 : , % O _ @.K 5.b M.O.y . [ :.  N @.a 9 i.P O % % # # & . , k :.r . % # - % ",
"O % % O o % . u ) 1 % % O :   i L.~ r.7.. c F.7.3 v.d   7 J 3.f t @.! J o # % o % # . j f.: . % 1 % ",
"O O O O % . 8 H : X % o % % w 4.@.8 _ x O X ..H. ._   %   m y.n   > S.G.: # O $ % % % . A O.o o : , ",
"O o O % . 2 K , X % O % %   5.S.8 a ,.. % % O $.U   O & $ , F ~ . w -.G.b   % # % % % &   x Q X % - ",
"O O % . : ' 2 . % O o % X 1 s.@.  $.]   o - %   . O % o %   k :.- :   S g.t . % # % % % %   j F . # ",
"o O # # N 8   % O % O $ . @.J o : k.p   % o o % % % O # - % % 6.s   % X G <.O # % # % % $ %   u s ; ",
"O % # r 7 . % % % % %   ) 8.  . V g.; . % % O O O O O # % % . G '   % % . A N   % # $ # $ # # o w 1 ",
"# # % - o % % % o % O , $.s .   =.r.  % # O % O O o O # O O   F *.O # % % # s 7 o # $ $ # # % < % o ",
"$ # % # % # % % % % . B f   % . K S . % o % # # O % O O O %   K B.2 . % & % # , # % o $ $ % 1 - & % ",
": # % # O O o % % . d 3.. % % . Y d . % O % % % % % % o O % % % &.f . % % % % % % # # $ $ % % # % % ",
"% % # O O O o O % . &.u . % % q i.@.O % O % % % % % % , % . ; % d o.  % % % % % % o $ $ 2 : $ % % % ",
"- 1 # % O O % % . d F   : % % R E.4.. % % % % % % % % 2 O = 2 o % ..1 o % % $ % 1 % % 8 : % % % % % ",
"% , 2 % % # O % % I % % , % % Z U.` $ % % % % % % % % % % , % % . d s . % $ % $ 0 8 ; ; % # % # % % ",
"% # 0 w , : % . j r . , % & # w #.q : # % % % % % % % # , - $ % o 6 j o % % % % , 8 1 1 ; # % % % % ",
"% % ; 1 % : # 1 s . & % # % # 8 m . % & & % % % % % % - 1 # % % % # u ; # % # $ 2 1 7 1 % % $ ; % % ",
"% % $ % : , $ r ; # : % $ % o w s . % % % % % % % & : 2 % % % % % & 1 < % ; ; 8 i u 0 ; ; % # 8 7 % ",
"% % % % : 1 % & # ; - $ % % # 0 q # % % % % % % % % 8 - # % % % % & ; 8 1 % - u y 8 0 u 8 % $ & & % ",
"- % ; * 1 8 6 ; 1 6 % % % % # 8 1 $ % - % % % % % * % % % $ * % % % & % % % , % 7 * 1 0 8 1 % % $ % ",
"% % % : 8 7 7 0 1 ; % # % % % - % % % % - & % % % - % % & % % % $ % & ; 1 7 7 7 7 & ; 1 y ; $ % $ % "
};
