/* XPM */
static const char *wall_[] = {
/* columns rows colors chars-per-pixel */
"50 50 241 2 ",
"   c #030201",
".  c #0A0402",
"X  c #040905",
"o  c #0A0905",
"O  c #050609",
"+  c #090709",
"@  c #060A0A",
"#  c #0B0B0A",
"$  c #130402",
"%  c #130B05",
"&  c #130D0A",
"*  c #1A0A04",
"=  c #0D100D",
"-  c #0B1107",
";  c #14110C",
":  c #1A140C",
">  c #191408",
",  c #0F0E10",
"<  c #141411",
"1  c #1A1613",
"2  c #1C1A15",
"3  c #1D1D1A",
"4  c #1A1817",
"5  c #111012",
"6  c #260907",
"7  c #34090A",
"8  c #24130C",
"9  c #2A0E10",
"0  c #2B1413",
"q  c #221C14",
"w  c #2D1A16",
"e  c #231E1A",
"r  c #2B1C19",
"t  c #201712",
"y  c #3A1C1C",
"u  c #361817",
"i  c #23221D",
"p  c #2B241C",
"a  c #282417",
"s  c #32291D",
"d  c #35251C",
"f  c #3E1E21",
"g  c #262522",
"h  c #2A2523",
"j  c #2D2924",
"k  c #2D2B29",
"l  c #322C24",
"z  c #382A27",
"x  c #34332B",
"c  c #3B332C",
"v  c #393529",
"b  c #3B3633",
"n  c #3C3A33",
"m  c #3B3A37",
"M  c #431518",
"N  c #4D221E",
"B  c #521D22",
"V  c #4B2C2B",
"C  c #452826",
"Z  c #54282A",
"A  c #42322D",
"S  c #4A322C",
"D  c #5A2F31",
"F  c #433D34",
"G  c #443D3A",
"H  c #4A3B3B",
"J  c #483533",
"K  c #513331",
"L  c #5C3232",
"P  c #593A38",
"I  c #672B33",
"U  c #68363A",
"Y  c #79383C",
"T  c #65252A",
"R  c #3F4237",
"E  c #4B4336",
"W  c #44423D",
"Q  c #4C433D",
"!  c #494638",
"~  c #56483D",
"^  c #68403E",
"/  c #773D42",
"(  c #633F43",
")  c #444342",
"_  c #4C4542",
"`  c #4C4A46",
"'  c #4E4D49",
"]  c #464843",
"[  c #534441",
"{  c #534B44",
"}  c #524D4A",
"|  c #5C4845",
" . c #54514C",
".. c #5A534C",
"X. c #5D5A4A",
"o. c #585344",
"O. c #5B5553",
"+. c #5B5A56",
"@. c #674846",
"#. c #7A4344",
"$. c #754B4C",
"%. c #774748",
"&. c #67584D",
"*. c #73544D",
"=. c #6C5353",
"-. c #625B55",
";. c #625D5A",
":. c #695A58",
">. c #775958",
",. c #7E4450",
"<. c #5F645E",
"1. c #65625D",
"2. c #69625C",
"3. c #696456",
"4. c #74655B",
"5. c #78715F",
"6. c #656461",
"7. c #6B6562",
"8. c #6E6B65",
"9. c #6C6B69",
"0. c #666867",
"q. c #7D6463",
"w. c #726B64",
"e. c #7B6B64",
"r. c #746D6A",
"t. c #776967",
"y. c #75716C",
"u. c #7A746D",
"i. c #7B7668",
"p. c #7B7672",
"a. c #7D7975",
"s. c #7D7C7A",
"d. c #767572",
"f. c #6E716A",
"g. c #82303B",
"h. c #863D47",
"j. c #913945",
"k. c #854648",
"l. c #98424D",
"z. c #984B54",
"x. c #825B5B",
"c. c #855356",
"v. c #975658",
"b. c #884C54",
"n. c #A6515B",
"m. c #86625C",
"M. c #985B62",
"N. c #8A5D60",
"B. c #AB5B62",
"V. c #A05B60",
"C. c #B35C68",
"Z. c #8C6C6B",
"A. c #856764",
"S. c #9B6469",
"D. c #976869",
"F. c #86766B",
"G. c #837C76",
"H. c #837D79",
"J. c #887A77",
"K. c #937A76",
"L. c #977877",
"P. c #916E72",
"I. c #A8686A",
"U. c #B5646B",
"Y. c #A66D73",
"T. c #BB6B72",
"R. c #B66B76",
"E. c #AB7475",
"W. c #AD7B7A",
"Q. c #A57878",
"!. c #B6777B",
"~. c #C7747A",
"^. c #CD707B",
"/. c #84817C",
"(. c #8B847D",
"). c #888677",
"_. c #95877C",
"`. c #AA817D",
"'. c #A6807D",
"]. c #B87A81",
"[. c #D57B85",
"{. c #C47B84",
"}. c #8A8681",
"|. c #8D8984",
" X c #888686",
".X c #9A8582",
"XX c #938B84",
"oX c #938C89",
"OX c #988A86",
"+X c #95918B",
"@X c #9A948B",
"#X c #999587",
"$X c #9A9692",
"%X c #9D9C99",
"&X c #9B9793",
"*X c #918F90",
"=X c #A88886",
"-X c #B58686",
";X c #A2948C",
":X c #A8978C",
">X c #B7968E",
",X c #A29593",
"<X c #A29B94",
"1X c #AB9E9A",
"2X c #A79A97",
"3X c #B79795",
"4X c #B08D93",
"5X c #9FA09B",
"6X c #A5A39C",
"7X c #ACA19D",
"8X c #A8A699",
"9X c #B5A29D",
"0X c #A7A28F",
"qX c #ADABA2",
"wX c #ABA7A5",
"eX c #B2ABA4",
"rX c #B2AEAB",
"tX c #BDADAC",
"yX c #B7A8A4",
"uX c #B6B2AC",
"iX c #BDB9AC",
"pX c #BCB7B6",
"aX c #C58387",
"sX c #C78789",
"dX c #D48288",
"fX c #D48B93",
"gX c #C79695",
"hX c #CE9494",
"jX c #C1A69D",
"kX c #C69CA0",
"lX c #C5A9A6",
"zX c #C7B9AA",
"xX c #C4B3B2",
"cX c #C9BCB5",
"vX c #D5B8B7",
"bX c #D1B4AE",
"nX c #CBC5BA",
"mX c #D0C2BA",
"MX c #C3C0AD",
"NX c #CBC7C1",
"BX c #D9CCC5",
/* pixels */
"  +.;.  # @ # O + O #   0.)   X O       O   O   o   O O     O     @ O s.3   O   .   # O   < #X% o # ",
"  6.+.  # X 4 6.+ # @   a.)   @ O   k o   #       O @ O   k   O @   .  X1 o O   ! ..  <   1 #X>   # ",
"  p.p.  4   b |..   # O |.}   o   o H.1       .   O   O < a.O   X X # wXh   #    .+X  X X i 8X>   # ",
". (.H.  o   ' /.+ o     oX-.        |.e       x )   @   & }.<   X X 2 |.x   o   X.8X  +   n iXa   O ",
"2 r.r.q #   9.oX&     g r.O.o     # &Xi   O   } y.  O   1 %X;     X b r.1.      3.MX: o   o.).!   O ",
"F <X@Xj   i p.} h o   W oXoX;     h uXh O #   ` |.    X b 6X3       2.cXG.  o   i.0X3.  . i.F.4.  # ",
"..uX<XG   ' a.;.m   X ] |.oXe     b H.Q   #   ;.wX& O   _ w.W   o   G.1X(.>   s ).e.OX. . i.:X3.  # ",
": /.(.e   ' p.r.' O X < ;.-.&     O.w.7.O   . 2.p.`     7.|.6.  o   _ OX[ .   { ;X#X-.% $ E 4.v . # ",
"  1.1.  o h 7.r.b # X    .k       8.$X7.#   i a.7.|.  O u.+X9.  X X   p.i     v 5.&.c $ . * 3.* . O ",
"  8.-.  & % ,X|.b   # X +.k   O   b G.G O   ' &X2XH.#   { u.b   X     H.2   o   o.E . .   : e.> . O ",
"X f.;.. . $ =XK.9Xy.#   1.b   # O   y.e     x oX}.'   o . w.+   O X + s.p       X.!   #   2 F.> . O ",
"X 9...A A.| P Z.3XvXwX  8.G     O   H.3   O   w. .o O   1 r.;         s.k   o   3.E   # O 1 ).>   O ",
"  y.:.C bX-Xc.D.A.Z.BX,XOXG   # O # H.e   O   y.}       & y.o     W -.w.eX-.    5.F   # X 2 #X>   O ",
"  -.K.P >XQ.E.!.gX`.3XBXxXb   O   O |.e   O   a.}   #   1 a.&   . ,XxXJ.xXA   . (.~   # X 2 8X>   O ",
"  -.lXL.W.S.I.sXsX-XZ.Z..XJ   + O   %Xi   #   H.}   O   q a.h ; [ lX4XP.=.0 H z ;XE   &   i 8X>   O ",
"  O.3X-XQ.Y.~.~.R.E.A.K F.H   +   # +X3   O   /.`       e (.XXtXZ.P.4Xc.Z N.4X9X:Xz . .   p :X> . o ",
"  ` tX4XQ.sXU.[.U.#.x.w r.' . .   # +Xi   @   a.G   o   [ 1XlXvXL.^ -XS.v.E.'.lXjXS   o   a :X$     ",
"*X|.|.A y D.n.^.[.v.L K (.'   +   1 +X1 @ O   a.b     i tX>XbX=X`.gXgXE.!.I.`.>X3X>.d 2 2 ! :Xd p i ",
"rX%X1XtX.Xx.B.B.T.I.U @.OXW   +   # |.2     . G.G     +.mXe._.`.W.hXhX-X!.v.W.Q.D.L.lXcXmXcX;XzXzXzX",
"0.1.7.J.e.L Y U.B.].!.-X1XoX/.6.) b +X<       p.k     m e.A.A.m.aXR.sXsX!.v.Y.E.Y.`.3X9X7X#X).i._._.",
"  W +.. c K T U.v.aX!.D.4.8.$XwXpXrXwX%X Xs.w.6Xa.p. X%X_.K.4.x.aXT.^.^.dXI.Y.W.D.>Xq.| l ! ).2 : q ",
"  { ;.; [ P #.z.Y V.!.I >...& h g ) a.;.0.d.}.XX$X$X%X|.F.A.@.A.k.l.^.^.~.~.hXE.Q.vXq..   x #X.     ",
". H G.9XZ.%.Z Y Y h.!.S.kX|       ; |.;       a.i o # < A | V $.k.z.dX[.n.B.aXI D.=XtX:   n :X* o o ",
". b w.1X>.N.6 $.b.I S.I Z.|   #   e oX1   + o G.1   X   l K K D v.aXdX~.B.z.W.u L.0 o     n OX$ . O ",
"  W <.W z y 6 V @.L V V 7.+.  +   3 +X:     . H.2   X   J *.D I B.~.T.B.T.v.Q.4.J.q   - X R XX% + + ",
"  ) +.  9 6 0 y u >.=.c 8.+.  X   3 |.;     o H.e   O   =.L.c.!.T.U.z.v.v.k.K.9X2X&     X n @X. + + ",
"  ' 1.$ y Z 9 w y Z.:.. :.-.O +   g |.;     & (.<   #   | lXW.hX!.dXv.sXc.7 :.eXOX%   #   n OX% . O ",
"  b 7.$ Z %.u 8 f A.-.  :.t.  O   i |.%     # /.<     h 3XQ.!.{.aXI.k.I.%.M @.nXOX%   o X F +X. . + ",
"  _ 2.* >.K 9 V V A l   1.;.  &   3 }.% X   o /.;   ) tXgXU v.{.!.h.g.R.%.V | K.:.%   X X n OX% . + ",
"  G ..[ e.P >.Z.K . .   8.y.G.O.  3 }.;   X # a.o 7.cX.X$.v.z.T./ Y j.z./ @.U ( A uXW     b +X. . # ",
"` p.XXXX,X.X=XZ._.(.&X8XqXrXnXQ   3 G.%     3 |.|.rXd.r $.I.C.fXY T l.g.7 C N.Y.A.NXp.    c +X% o + ",
"8X+X<X;Xr.e.~ @.yXcXiXeX|.u.oXe   i p.;   X m 6X6XO.; r L.#.z.R.#.I C.h.7 C ].U =.<X1.    b <Xo X + ",
" .u.y.OXu.[ C *..XJ.t...e.&.< O   e G.o . 9.uX8.W   +   0 *.P %.L B R.T 0 w x.L Q H.b     x +Xo o X ",
"  } 2.G O.:.K =Xq.r .   4.3.  O   4 w.c $XuXa.8.=       p &.0 K $.B ,.M 0 $ 9 w r b   +   j XXo   o ",
"   .1.  e 7X&.J H . .   G.3.  X   < eXxX&X1.b G.2   +   : e.C q.Q.7 y y 0 6 8 $ | J   .   c XX> + < ",
"  +.+.. & H.r z c . #   u.{   X   s.eX1X1.o ; (.3   @   r .XJ q.x.u z l 6 6 C 6 ~ e.t & . r OX$     ",
"  7.1.  # & ..w.x   X   (...X   3 6XG.-..   . &Xb   O   p ;XH e.:XK w 6 0 C ^ M *.zXxXtX+X@X9X~ x ; ",
"  6. .  #   c (.k   @   /.{   O O d.u.%     % @Xb   +   l +X: 7X:XC u 0 8 C #.B m.A.K.1XuXnX0XnXBX@X",
"  p.O.  #   2 $Xi   #   XX{   +   < u.2     . @X{   #   e +X; XX[ P V y 8 y U %.=X&.% c  .1.i.#XqXXX",
"  p.;.  =   p 6Xi   O   @XQ   @   ; u.a     . OX}   X   h <X;   $ A C P A d S *.&.o.  X   3 _.a l x ",
"  G.;.  #   l 6X3   @   @X[   O X o y.q       XX+.  #   e <X1   o . S K.4.J.c X.5.~   X X i #Xq     ",
"  p.+.  ,   x 6X4   @   @XQ   O   # y.e       (.;.  #   e 6X2       =.L..X2X@X8X#XX.  o   3 &Xa   # ",
"  p. .  ,   x &X<   O   <XQ   O   o y.i       (.7.  O   2 6X3   # . U / q.t.yX@X0X3.  #   4 <Xp   # ",
". p.}   #   x +X#   O   <XE   O   o u.p       G.r.  O   2 qXi   # * b./ C :.J.OX_.4.  % O 4 2Xa   o ",
"  p.}   #   b XX# O O   ,XF   O   O p.h       G.p.  O   1 eXg   H P.V.h.P | OX7Xi.p.  + O 1 :Xp   o ",
"  p.`   #   b (.o O O   @XA     O . p.j   X   u.H.  O   ; rXk   [ A.E.W.V H tX2X-.).  O O 5 ;Xs   + ",
"  d.]   #   b H.O O O   XXv     O   u.j   +   8.(.  +   & rXk     q F.L.| t.cX;.~ ).  # @ 5 @Xs   # ",
"  y.W   #   n H.O O O   _.l         y.h   X   2.}.  +   % eXh     x ! s d J.eX; ! (.  #   = <Xs   # ",
"  7.O.  #   F G.O   #   (.F         -.j   O   } u.      & |.g     < ..p * Q <X  F i.  #   3 /.q   # ",
"  7.O.  #   F G.  O #   J.Q         -.p       _ 8.      o /.i   #   _ _ h & h   v w.  #   4 p.>   + "
};
