/* XPM */
static const char *wall_revin[] = {
/* columns rows colors chars-per-pixel */
"50 50 232 2 ",
"   c #030404",
".  c #080606",
"X  c #050905",
"o  c #090A06",
"O  c #050409",
"+  c #09060C",
"@  c #070909",
"#  c #0A0A0A",
"$  c #100F0E",
"%  c #0D110C",
"&  c #071204",
"*  c #11120D",
"=  c #131C0D",
"-  c #191D0F",
";  c #0C0511",
":  c #0D0C11",
">  c #150C17",
",  c #121213",
"<  c #151219",
"1  c #191519",
"2  c #1B1C1D",
"3  c #161916",
"4  c #0E1213",
"5  c #201E1F",
"6  c #1C2416",
"7  c #16220E",
"8  c #23291A",
"9  c #263416",
"0  c #1C1620",
"q  c #1E1B21",
"w  c #221D25",
"e  c #281E2C",
"r  c #1F2222",
"t  c #232325",
"y  c #292E23",
"u  c #26242A",
"i  c #2A252D",
"p  c #2A2B2C",
"a  c #2C342A",
"s  c #2D3623",
"d  c #353B2B",
"f  c #2E2731",
"g  c #2E2B31",
"h  c #322D34",
"j  c #342C3A",
"k  c #392838",
"l  c #2F3032",
"z  c #333335",
"x  c #353438",
"c  c #3A353C",
"v  c #3C3A3C",
"b  c #3A3A34",
"n  c #332F2E",
"m  c #41363F",
"M  c #324A1C",
"N  c #38541B",
"B  c #374628",
"V  c #3D5229",
"C  c #3F4334",
"Z  c #3B443A",
"A  c #445C29",
"S  c #424C34",
"D  c #41423C",
"F  c #414738",
"G  c #4B553D",
"H  c #4B5B3B",
"J  c #475935",
"K  c #466229",
"L  c #4A642D",
"P  c #4C682E",
"I  c #4C6333",
"U  c #4F6839",
"Y  c #526C34",
"T  c #546D3B",
"R  c #52653A",
"E  c #557234",
"W  c #5A743C",
"Q  c #59753B",
"!  c #50692F",
"~  c #3D3542",
"^  c #3E3C42",
"/  c #423B44",
"(  c #423649",
")  c #443C49",
"_  c #483B4C",
"`  c #4C3F53",
"'  c #523A5A",
"]  c #593F62",
"[  c #434244",
"{  c #464249",
"}  c #4A444D",
"|  c #4C4C4B",
" . c #474C45",
".. c #4C5342",
"X. c #4D5B42",
"o. c #485546",
"O. c #53564B",
"+. c #535A4A",
"@. c #555C45",
"#. c #4E4A51",
"$. c #4D4453",
"%. c #514454",
"&. c #524B54",
"*. c #54445B",
"=. c #554B5A",
"-. c #594C5C",
";. c #59465C",
":. c #535154",
">. c #5A5B55",
",. c #55525A",
"<. c #5A525C",
"1. c #575A55",
"2. c #546444",
"3. c #5A6B46",
"4. c #59634C",
"5. c #576847",
"6. c #5C7243",
"7. c #5E744D",
"8. c #5F7942",
"9. c #5D6454",
"0. c #5E6A53",
"q. c #586457",
"w. c #4C6044",
"e. c #637C45",
"r. c #62724D",
"t. c #637B4B",
"y. c #6A7F4C",
"u. c #626959",
"i. c #637354",
"p. c #6B7D54",
"a. c #6B735E",
"s. c #6C7C5C",
"d. c #667058",
"f. c #717D5D",
"g. c #5B4963",
"h. c #5E5463",
"j. c #5E5865",
"k. c #64496A",
"l. c #615464",
"z. c #625B63",
"x. c #64556B",
"c. c #6A536D",
"v. c #665D6B",
"b. c #695C6D",
"n. c #6C5E74",
"m. c #6B5374",
"M. c #735C7D",
"N. c #785C7F",
"B. c #725675",
"V. c #6A4B74",
"C. c #636264",
"Z. c #646863",
"A. c #66646A",
"S. c #69636C",
"D. c #6C6C6C",
"F. c #696763",
"G. c #71666E",
"H. c #6C7865",
"J. c #717D64",
"K. c #75796C",
"L. c #6D6472",
"P. c #6F6972",
"I. c #726576",
"U. c #726C75",
"Y. c #74627B",
"T. c #766B7B",
"R. c #7A6A7D",
"E. c #78667E",
"W. c #747373",
"Q. c #7A747E",
"!. c #79787A",
"~. c #6F7A72",
"^. c #807C7E",
"/. c #6B834D",
"(. c #6E894C",
"). c #668147",
"_. c #72874E",
"`. c #6B8453",
"'. c #6C825B",
"]. c #6B8852",
"[. c #738B54",
"{. c #72825C",
"}. c #738B5B",
"|. c #758856",
" X c #7C945D",
".X c #7A955A",
"XX c #71904A",
"oX c #748265",
"OX c #7A8E62",
"+X c #7B836C",
"@X c #798769",
"#X c #7C9465",
"$X c #7D8577",
"%X c #7E9171",
"&X c #81936B",
"*X c #859C6B",
"=X c #869B69",
"-X c #858E73",
";X c #85887D",
":X c #8A9A75",
">X c #808F66",
",X c #88A369",
"<X c #8DA272",
"1X c #94A878",
"2X c #9CB37C",
"3X c #7D5D86",
"4X c #7A6682",
"5X c #7C6B84",
"6X c #7D6D89",
"7X c #766787",
"8X c #7C7483",
"9X c #7D7A82",
"0X c #836D8A",
"qX c #826B83",
"wX c #827486",
"eX c #84748B",
"rX c #857C8A",
"tX c #8A7D8D",
"yX c #827C84",
"uX c #8A7794",
"iX c #917B98",
"pX c #848482",
"aX c #878588",
"sX c #8D8693",
"dX c #938896",
"fX c #979494",
"gX c #97A484",
"hX c #8DA082",
"jX c #A6B98C",
"kX c #9988A3",
"lX c #9E93A4",
"zX c #A18CA7",
/* pixels */
"+ + # # # o # # X . :   + . . X   o   X # .   . . X X X X X + . . + O O     X X   +   X # . + : + # ",
": + # # # # # # # #   .     X   #   .   X X # X X   X     X   #   X . # # X     .   : X   $ + : # # ",
"+ + # # # o X X * a     X   X       % v   X         @   X %   . @   .         . O O . X o o . + # # ",
"# # # # # # # o * 8 X 6 4.9 7 7 = X & F y 6   X X Z d & H.o.X   X & = ..9 S 6     + @ X X X # # # # ",
"# # # + # # o X K.G oX:XgXi.oXs.i.H 9 r.1XOXI t.J :XOX7.'.3.B 9 S s.R &X<X=X&XoXa     .   o o # # # ",
"# o # , # . # - G f.p.p.|.OX:X'.p.6.`..X[._.2X1X X).2X}.#X}.t.}.,X,Xe.8.(.[.y.:X0.a @ X @ X . o # # ",
"# # # # # , y F +X:X>X X/..XT *Xt.W Y  X.XE e.).,XQ T U [.[.].e.(.XXE Q (.(.W A 5.oXZ @   X # o o X ",
"o # # # < u d d @.{.y.e.[.[.Q Q ].e.K K [.! Q L e.8.`.A A /.[./..XE [.}.M *X/.A r.%Xo.4 + + X o o X ",
"o o # # +   % C @X|.|./.,XQ Y E }.`.`.8.I /.].I T 7.'.5.V H {.jX].T r.w.B J.7.H &XJ.+.a p : o o o X ",
"o # $ # , # % C -X{.|._.).E Y Q I t.}.A =X}.6.e.}.6.'.%X5.H f.oXB 2.s o.q.q.+.0.s.G - X # # . o + X ",
"o # $ . + , X   J.gXR L W (.).e.U V 6.#X6.=X=X.X*Xt.&X{.H @.+...G 0.4.+.o.~.$Xu.4.B   X . # O + + + ",
"# o # # ,   # C a.-X2.R OXt.Y #XM L T /.U W t.`.*Xp.{.i.@...>.D.O.0.u.H.Z H.aXq.1.C   o   # + : + + ",
"# @ # # # , * o 9.$X4.s.{.t.A I V .X[.`.3.5.V H &XoXgXJ.H.b <.^.K.O.s ..C $XD.:.1.d   X   # + ; + X ",
"X % # X # # X   D K.K.d.X.5.M }.P P y.I J 2.X.i.2.2.-XK.D } T.8Xz.D d s b $XD.[ | 8 X X o + + . + X ",
"@   # * o o # # # W.$X9.+X2.2.OXN N T V %XhXJ oXH i.4.O.>.j 6X6Xh.:.>.p | D.aXA.[ 3   X X X X # + X ",
"@ # # # o o #   p !.>.O.u.0.J.5.Y K <XR 0.oXH i.r.@X+XfXO.f 7X7Xj.,.fX>.v j.8XQ.[ %   . + # X # X X ",
". # # # # # #   z ^.W.:.F.;XK.J /.N J 5.5.J.X.J.3.f.a.$X0.b eXx.#.| !.| Z C.R.eXx   X X X + # . . X ",
". # # # # # #   m sX^.fX^.pXpXX.6.W r.:X@.+Xq.$Xp.3...9.u.= T.g.| 1.D.1. .D.dXeX}   X . # + + # . X ",
"# # # # # # #   i lXaXW.D.pX>...{.OXS +X9.>.q.X.B +XK.9.0.y L.l.| | C.|  .C.c.Y.#.    . + + . + X X ",
"# # # # # + # O h rXS.z.Q.fX| 6 H.0...Z.>.| Z.H.+XS Z.W.9.a T.x.} C.A.{  .A.eXuX)   X X . + # + # X ",
"# # + # + + #   h rXT.h.S.dX#.5 pX>.A.S.h n F.pXu.F.yXz.1.b l.x.l.z.L.&.v #.eXY.~   . X X + + # @ X ",
"# # + # + + +   j Q.-.b.L.tXj { sXv.v.h.> c C.pXW.D.8XP.D 8 G.R.b.;.&.) c f eXeX)   X X . # # @ # X ",
"# + # # # + +   0 L.} 8XY.sX~ ( 6X6XdXg.k w U.!.aXv.n.T.[ # U.R.c.;.l./ / ~ 4XeX)   X X @ # @ @ + X ",
"# # # # # # +   h v.%.L.=.tXe ( uX0XkXk.> k &.S.sXI.n.lXv # z.R.c.k.-.} / e 0X6Xc   @ X   # # X + X ",
"# # # # # # # . w v.~ T.wXI.O ( M.iXzXqXk m / } wXY.uX5X  , Q.B.B.c.) / ) j wXeX~   X   @ . # # + + ",
"# # # # # o o X   x / =.tXL.O _ M.iXiX0XwXG.h ) 8XE.6XY.O : l.Y.B.g.=.h l.T.n.E.i   @ X . . # # + # ",
"# # # # o o o . # [ j h.rXQ.O ( E.N.uXqXtX-.v c R.x.5X6X  1 b.B.B.m.%.g b.I.h.<.q   @ X . . # # + X ",
"# # # # # o o . X i i / yXS.O ~ 0XM.iXI.x.&.1 i L.n.Y.*.+ + h.5XN.V.=.x h.b.<.j.q   .   @ # # @ + X ",
"# # # # o o . . # z < } T.=.+ j M.N.iXl.l.) 1 x 8Xb.*.`   + } ;.3Xg.^ p } -./ ^ q O     # # @ # + X ",
"+ + # # # o X . # # < h Q.,.O j 4Xk.5Xg.-.z.u v z.eXE.l.  . h %.k.' + 3 ) _ ^ u : O X X @ X X # # + ",
"+ + + # @ @ X . X   O < 9X#.O i Y.m.uXg.h.) g w <.dXzX%.  : c *.V.] . 3 / } p 2 O   X X . X X # o o ",
"+ + + # @ @ X . . +   + Q.#.  f Y.x.uX*.` j g   &.tXdX&.  u h _ m.' + 6 ~ { q #   O     X # . . # o ",
". @ # # # # # @ @ X O : W.#.O e 4X5XuXx.<.g     &.wXlX%.O c 1 %.Y.*.; 0 c } v r             . @ @ # ",
"X . # # # # # @ . X O : U.q   e 5XM.wXI.z.c     _ rXsX%.O ;   =.I.l.; O w &.i t           X @ @ # # ",
"X . @ # # # # @ . .   # A..   0 eXY.5X%.&.g   O c L.8Xj O O   <.I.I.> O w {   X         . . @ @ # # ",
"X X @ # # # # @ #   X # ,.:   0 wXh.T.) / t     ~ rXrX} O     v l.I.;   q ^             . . @ @ # # ",
"X X + # # # # @ +   . , [ #   w eX*.I.h.c t     } U.sXj O O   [ L.L.;   > h           X . @ # # # # ",
"X X X # # # @ @ . . . . x     < eXx.L.#.c t     ^ Q.W.f   : . #.U.=.O O : g   .       X . @ # # # # ",
"X X X + # # @ @ . +     z . X   h.-.v./ v t   X . &.9Xq       [ ,.&.O   : p           X X @ # # # # ",
"X X X + # # @ . .   X @ x #   . } ~ <.:.p 2       } W.u     # c x {     u w   X       X X # # # # # ",
"  X X X @ @ # # X #     q 2 X   / h w { g 2     X | !.&.  # # , i ^   .   X           X X # # # # # ",
"  X X X @ # # #   .     . X   X } h . p z 2 X   X [ z.2         [ g       X           X X # # # # # ",
"    X X # # @ # @   X X     X   c v 2 x p 2   . X [ [ X . X # . l 4           X       X X @ # # # # ",
"    X X # # @ @ @     @ X X X   v t .   r p @   X x [ :     . . @   .                 X X @ # # # # ",
"    X X # # # # X X X         X # X   X @ r   .   p :., + #   #   X     X X             X @ @ @ # # ",
"    X X + # # # . # @         .     @       @ X   z v + X # . . @ #   X X             X X X @ @ # @ ",
"    X . + # # # X X     X       X     X     X   5 c b ,   # + .   .   . X     .         O . @ @ # @ ",
"    X . + # # # @ X X X     X     X #     @     t # [ 3 . # . + # X o X   X X           O @ @ @ # # ",
"    X X + # # # X X X X X X X X X X X X X X X X X X + # # # # # # # # X X X     X X X X X X @ @ # + ",
"    X . + # # # X X X X X X X X X X X X X X X X X @ # # # # # # # # # X X X     X X X X X X @ @ # + "
};
