/* XPM */
static const char *wall_vunes[] = {
/* columns rows colors chars-per-pixel */
"50 50 254 2 ",
"   c #030404",
".  c #050906",
"X  c #080907",
"o  c #050508",
"O  c #070908",
"+  c #0A0B0A",
"@  c #080707",
"#  c #0D130B",
"$  c #0A1A08",
"%  c #13160D",
"&  c #0D0E11",
"*  c #0F1112",
"=  c #121511",
"-  c #141B14",
";  c #191D15",
":  c #1A1D1A",
">  c #171719",
",  c #211D1C",
"<  c #0C240C",
"1  c #152214",
"2  c #1B2415",
"3  c #1C231B",
"4  c #1E2B1C",
"5  c #162A15",
"6  c #1A3518",
"7  c #12290F",
"8  c #212B1B",
"9  c #23271A",
"0  c #26371E",
"q  c #323B1C",
"w  c #211F20",
"e  c #222422",
"r  c #232C21",
"t  c #2A2D25",
"y  c #2C2D2B",
"u  c #253423",
"i  c #2A3524",
"p  c #2B3B22",
"a  c #2D3C2B",
"s  c #2A3428",
"d  c #323C2D",
"f  c #333929",
"g  c #3B3939",
"h  c #322C31",
"j  c #1A1823",
"k  c #33441E",
"l  c #284817",
"z  c #2C4527",
"x  c #33442C",
"c  c #344B2C",
"v  c #394829",
"b  c #39562D",
"n  c #354432",
"m  c #3A4534",
"M  c #344C33",
"N  c #3B4C34",
"B  c #3D443A",
"V  c #3D4B3A",
"C  c #3B5335",
"Z  c #3C523A",
"A  c #395835",
"S  c #2E5428",
"D  c #2D5523",
"F  c #45552E",
"G  c #424E3D",
"H  c #47493B",
"J  c #42543D",
"K  c #435C3C",
"L  c #495938",
"P  c #4F5234",
"I  c #486537",
"U  c #556737",
"Y  c #557033",
"T  c #51652D",
"R  c #3B3241",
"E  c #463A47",
"W  c #4D3352",
"Q  c #623C6D",
"!  c #434C42",
"~  c #4A4947",
"^  c #524A4B",
"/  c #4C5444",
"(  c #455D40",
")  c #495746",
"_  c #545B44",
"`  c #565849",
"'  c #594757",
"]  c #595755",
"[  c #635A55",
"{  c #4D6545",
"}  c #5C624C",
"|  c #576749",
" . c #567645",
".. c #5D6353",
"X. c #5A6556",
"o. c #67694A",
"O. c #667A44",
"+. c #626B55",
"@. c #626C5A",
"#. c #666859",
"$. c #6A725D",
"%. c #697559",
"&. c #75795A",
"*. c #7F6E5C",
"=. c #5D4865",
"-. c #634A67",
";. c #675866",
":. c #715C66",
">. c #684A75",
",. c #6A5574",
"<. c #74587A",
"1. c #744E7D",
"2. c #5D6160",
"3. c #696765",
"4. c #746769",
"5. c #6D7664",
"6. c #757A68",
"7. c #6D6473",
"8. c #796976",
"9. c #797775",
"0. c #837A79",
"q. c #816F7F",
"w. c #698749",
"e. c #768659",
"r. c #71924F",
"t. c #7A8568",
"y. c #7C8377",
"u. c #7F9767",
"i. c #5C8042",
"p. c #868856",
"a. c #82A455",
"s. c #868B69",
"d. c #838C74",
"f. c #868879",
"g. c #8E947C",
"h. c #889375",
"j. c #969C78",
"k. c #8F926C",
"l. c #A8A57B",
"z. c #A0A170",
"x. c #775786",
"c. c #744F8B",
"v. c #7B6685",
"b. c #865B99",
"n. c #84678A",
"m. c #847583",
"M. c #897A87",
"N. c #997887",
"B. c #89669A",
"V. c #8C7894",
"C. c #987C98",
"Z. c #916394",
"A. c #9658A5",
"S. c #9B74A8",
"D. c #946DA8",
"F. c #AA6AB9",
"G. c #A577B8",
"H. c #B077B3",
"J. c #A56AA5",
"K. c #B77BC8",
"L. c #B47CCB",
"P. c #8A8685",
"I. c #96888B",
"U. c #8D9684",
"Y. c #94958A",
"T. c #8D8392",
"R. c #938395",
"E. c #9A8997",
"W. c #9A9593",
"Q. c #9B9698",
"!. c #A38C9A",
"~. c #A69899",
"^. c #AC998E",
"/. c #9EA199",
"(. c #9FA48D",
"). c #A4A58C",
"_. c #A5A698",
"`. c #B5B696",
"'. c #9F89AA",
"]. c #A487A8",
"[. c #A698A6",
"{. c #B798A7",
"}. c #AA89B7",
"|. c #AC96B2",
" X c #B79AB6",
".X c #B586AB",
"XX c #AAA5A7",
"oX c #B7A8AB",
"OX c #B6B7A7",
"+X c #BDABBC",
"@X c #B8A7B6",
"#X c #BAB2B7",
"$X c #ADA0B2",
"%X c #C399AA",
"&X c #C1B9AB",
"*X c #C5A9B8",
"=X c #C4BDB8",
"-X c #D6B0BD",
";X c #CDC98E",
":X c #C9C7B9",
">X c #DBD6B8",
",X c #D3CAB3",
"<X c #E7E2BC",
"1X c #BB87CB",
"2X c #BB98C8",
"3X c #B284C8",
"4X c #BCAEC2",
"5X c #C29ACD",
"6X c #C389D4",
"7X c #C697D6",
"8X c #D291C7",
"9X c #C7A9C5",
"0X c #D7ACC5",
"qX c #CBB8C8",
"wX c #D8B7C9",
"eX c #CCA4D9",
"rX c #D7AAD6",
"tX c #D8B9D3",
"yX c #E3ADCA",
"uX c #E3B8CC",
"iX c #E6BBD5",
"pX c #E6A3D6",
"aX c #D5A5E5",
"sX c #DAA8E9",
"dX c #CCC6C6",
"fX c #D3CCCB",
"gX c #D5C8C7",
"hX c #DBD5CB",
"jX c #DBC9D7",
"kX c #DBD5D3",
"lX c #DCD6D5",
"zX c #CFC2D6",
"xX c #E2D9CC",
"cX c #E3CADC",
"vX c #E9C6D9",
"bX c #E4D9D8",
"nX c #F0C9DE",
"mX c #E9E4DC",
"MX c #E9E6D9",
"NX c #F3EDD7",
"BX c #FAF6D9",
"VX c #F1ECCC",
"CX c #E9CDE3",
"ZX c #F2CBE3",
"AX c #EBD8E6",
"SX c #F6D7EB",
"DX c #FAD6F3",
"FX c #EBE4E4",
"GX c #F3EBE9",
"HX c #FEFDE4",
"JX c #F9F7E8",
"KX c #FDF7F9",
"LX c #FCE7F6",
"PX c #DFD9DA",
/* pixels */
"+ + + + + + + + .       + 9                                     o                         F v   + + ",
"+ + + + + + +   = ; =   p U   X   +                                         #             U 0   X + ",
"+ + + + + @ 3 + 9 q s 4 U w.& r # r +                         +       O     d +       X   L %   X + ",
"+ + + + +   x s 8 q x Z Y r.n a s v X         o         @ + - u     > u   + ! #   X a ;   L m : @ + ",
"+ + + + +   x Z 8 v K c L  .A m C  .a       +       o     ; z 4     x s + a Z -    .u.3 e { | >   + ",
"+ + + + +   n K 0 b ( @.! A I I C  .n     O 3       @   ~ #.z -   + J 8 a K A = # ).vXI.d { M 3.]   ",
"+ + + + +   x ( G S 9.cXXXZ I I J { i   r 1 u   p - o > tXjXc     * N 3 c M N O ! cXZXcXy Z d =XGX] ",
"+ + + + +   ; d C M *XZXwXG b K a A -   z A x   z A $ m.SXAX!     ~ U.r c - f | $.jXZXnX~ + - =XGXXX",
"+ + + + + + @ 3 C 5.vXuXvXX.b A 2 ` XXE 5 b K a 8 b 1 qXSXSXy.  * fXKXW.p - ; Y Y.DXwXvX#X+X[.dXlXdX",
"+ + + + + + @ r c 3.nX*XiX) z z ) #XKX*X$ S b S M 6 3.AXvXZXP.  g FXbXGXy.$ d T.|.iXuXiXAXAXKXfXkX#X",
"+   > = + + = a A B vX*X*X) 0 N Y.vXiXvXg < { b b Z XXAXuXtX3.X 3.mXkXlXzXy.x B.5XSXZXcXqXzXzXlXJX9.",
"  w y.K + = G 1 x : ~.I.9.Z 6 X.kXwX0XiXR.& _ X.A f.CX9XuX*XB.E 9.fXdXfXqXlX7.B.G.9XnXCXqX@XXX~.Y.= ",
"  oXmXt.i g lX3.> d | J G ] ! [.zXnXwXwX].-.8.!.( W.CX[.qX].b.;.XXlXdXkXPXqXS.G.S.S.0X+X4X4X9.s +   ",
"g mXhX:X#.9.FXFX6.! ] / R.eX9XqX$XtX0X0Xn.-.;.{.%.P.P.M.] >.S.C.$XjXbXY.y./.8.B.n.S.M.R. XP.B N n O ",
"XXmXkX:Xd.oXmXNX&XM.G.}.eX7X5XrX@X+X*XN.>.V.9.%Xo.6 V XXE B.eX%X^.XX/.v C c V ^ :.c.*.~.T.) 9.6.a + ",
"OXGXfXU.%.`.HXHXgX].G.5X1X1X5X2X[.[.8.Q x. X8.N.B < ) Q.e m.+X{.&.} } U N c s f ] -.N.I.X.) #X/.#   ",
"t =X_.$.t.&XHXJXhX].D.5XK.F.sX}.M.|.M.;.,.I.C.u 8 < X.3.3.Y.0.~.[ L L | p z r q f  X8X X) y.NX:Xy   ",
"  } g.+.+.>XBXBXxX4.b.6XF.F.7X}.M.$XP...3.j.gXm . < V +X#Xs.d.P.:.K L L x M s 2 E H.8XqXJ (.NXBX[.@ ",
"= 6.H ` o.>XBXHX_.d 8.6XA.F.7X}.7.P.6./ | s.JXOXR g ` 9XW.$.d.0.^ x b c | / 3 $ n.8XiXT.! :XNXBXfXj ",
"+ t ` 6.@.OXVXNX).v ` 7XF.A.6X].g.t.+./ ` U.HXxX>.x.] !.P.5.t.H ] s I | { 7.R   h .Xm.3.] `.NXNXfXy ",
"  9 g.t.P s.BXBXOXL 3.2XK.F.K.].j.h...} $.g.BXmX' B.7.[.W.%.} P 9.n l.`.g '.n.-.}.n.M.[.9.6.>XNXqXh ",
"  y g._ z.p.OXMX~.R.+X9XK.K.1X].t.t./ $.5.t.MXJX;.B.;.^ Y.h.t.+.H H ;X,XW x.}.2XaX2Xm.#X6._ g.`.oXR ",
"+ - +.o.<X,XP / 0. X{.q.5X7X2XE.$.$._ ..t.t.hXJX<.c.v.! P.s.5.6...@.l.oXQ >.}.3X3X5Xm.T.#._ } 6.0.9.",
"+ = I | >X;XF p [ *X*X0.^ v.W W y.6.d.` y.t.MXlX=.b.,.X.W.e.$.5.+.+.3.>.1.B.2XK.6X7X].M.3.5.t.y.5.+.",
"@ 9 b C k.p._ v [ M.|.P.. E x.W 3.&.d.#.[ Y.KXoX-.b.<.X.W.h.t.5.+.5.] 1.c.B.}.K.F.1X2X+X9.6.d.d.@.} ",
"@ 9 I c ` p.U f M.+X[.7.. g S.-.d.j.$.~ 9 m.*X!.<.c.B.V Y.U.$.@.+.+.h.@XD.,.'.F.K.1XeX4Xy.5.+.$.B ..",
"  t U q _ &.v z Q.+XC.[.4 5 n.x.W.j.$.] h q.9XwXC.c.}.9.fX9._ e._ V j.>X9X^ |.L.L.6X2Xy.J 5.t.} H ] ",
"o J T 0 6.%.k k I.[.{.I.$ 5 -.Z.<.0.f.N.8X9XqXqXV.x.].$XdXW.$.o._ 5.j.VXxXs.2XL.6X7X2X#.c / h.%.` +.",
"g ~.o.p ..%.F k P.~.P.! . m .XC.-. X{.^.pXrX X|.3.3 I.tXE.8.3.d a 6.NXBX,Xm T.aXL.eX2Xm.J Z t.o.$.X.",
"!.{.} L e.H 4.6.P.0.^ ^ ! _ :.0Xq. X:.oX9XDXM.9.dXm 8.jXE.W h 2 4 g.BXBXhXG ! sXaXaX XR.#.K #._ %.f ",
"I.{._ t.).B ;.$.P.0.dXkX#Xf.4..X^ M.W ' I.M.9 XXbXP.XXqX|.n.' 3 $ (.HXHXxXd 6 M.5XE.'.[.m.X.N.0.s.i ",
"{.%X` 0.).f ^ ..H #XhXkX~.W.0XN.` M.1.=.,.g _ dX:XAX#XqX9XB.,.3 $ t.BXHXhX% 7 6.R.W R.$XqXW. X~.s.H ",
"wX^ > qX9X` 1 [.{.=XfXdX~.oXcX*X!.E.n.x.1.] 9.FXkXkXE.[.E.D.,.< < I NXHXdX3 2.FXqXx.V.$XqXQ.@X).T   ",
"I.+   [.SX3.$ E.+XdXbXfX_.XXjX^.-XwXtXS.].r ` GXMXkX+XjX X3X-.$ 6 D :XbX3.< XX@X#X|.R.@X+X!.jX] % O ",
",   * +XjX{.9.R.*XbXhXxXdX#XGX&X-XtXnXrXn.$ g GXMXmXAXQ.V.}.]./ 0 p t.@X9.6 OXqXlXdX3.oXjX+XI.t   + ",
"+ X : cXcXwXwX*XtXbXhXbX#X0.bXcXvXcXuXtXR.  e mXJXLXoX$ y  XcXwXH = 0 ! $.l OXfXGX_.u Y.Y.#.] oX~ . ",
"+ +   oXSX0XuX*XqXAXFXbX~   oXCXuXvXZXoXd   = ^ OXQ.@.5 O  XnXZX4.- : 6 6 l _.hXbX_.s n p e {.yX*X4 ",
"+ +   8.SXwXuX0XcXdXAX(.#   ~ 9.gXLXSXs.F + -   2 l 0 6 = qXCXZX0.n y 2 V z g.GXMX5.u n z 9.yXyX%X3 ",
"+ +   ` SXvXuXwX[.| _.| 8 3 m m P.jXqXf k > = @ # l l 6 m nXtXvXW.n B r J n m XXOXx M c z ;.yX0X-XH ",
"+ + @ x gXDXuXI.} l O.I c p x x ) ] / X u ; +     1 p z r jX0XuXs.x m > n N v ) f t L w.b g vXiX,XO.",
"+ + + # g vX!.  2 c F I N p z b J V 3 r { : : +     2 b X I.DXgXO.x a > t w.L B * * F r.I   *XvX$.- ",
"+ + + +   w 9 8 8 C z I x   c Y J G = V C 3 | e     p b   / wX] Y 8 ; r { a.F * X n w.r.u   ~ f.#   ",
"  + + + +   X d s b b I i   c i.m ! = J c 3 %.a     0 8 ; 0 b X F +   n  .r.x     N  .9     + N >   ",
"  + + + + + O O & s v i -   0 w.t f : Z C i X.s       - z F 4 # +     n  .3       x I         = + X ",
"@ + + + O O O @   9 >   X   9 r.- > N x 4 ( | r       1 l Y X         3 (         3 { O           O ",
"    + + O O X X @ @ >         -   8  .r.m { { =       - 0 U #           +         @ 3         O X O ",
"    + + O O O X @   @             i  .a. .{ s         # 5 F #                                   O O ",
"    + O + + O X o                 u K O.w.{ +         + - 9 +                                   O + ",
"    + + + + + O @                 4 x 9 O.n             +                                       O O ",
"    + + + + + X @                 = 8   : 3                                                     O O "
};
