/* XPM */
static const char *wall_v_lght[] = {
/* columns rows colors chars-per-pixel */
"50 50 227 2 ",
"   c #010400",
".  c #090702",
"X  c #030B01",
"o  c #0A0C03",
"O  c #040509",
"+  c #09060A",
"@  c #060A0B",
"#  c #0B0C0B",
"$  c #100F0B",
"%  c #100F00",
"&  c #051200",
"*  c #0C1302",
"=  c #0D1A01",
"-  c #0D130A",
";  c #0E180A",
":  c #121404",
">  c #131B03",
",  c #191D07",
"<  c #13150B",
"1  c #18150E",
"2  c #141A0C",
"3  c #1A1C0D",
"4  c #0B0D11",
"5  c #080611",
"6  c #0E1211",
"7  c #141513",
"8  c #151A13",
"9  c #1B1C14",
"0  c #1B1D1B",
"q  c #17171B",
"w  c #201C1D",
"e  c #152203",
"r  c #1A2404",
"t  c #1D2B04",
"y  c #16220B",
"u  c #1B240B",
"i  c #1C2A0A",
"p  c #1C3106",
"a  c #1C2214",
"s  c #1D2915",
"d  c #1D231B",
"f  c #1A2715",
"g  c #212A03",
"h  c #21240E",
"j  c #232C0C",
"k  c #202403",
"l  c #243402",
"z  c #23320B",
"x  c #2D390C",
"c  c #2A3904",
"v  c #323A0F",
"b  c #222513",
"n  c #232B15",
"m  c #2A2D14",
"M  c #23241C",
"N  c #242B1B",
"B  c #292C1C",
"V  c #332E1B",
"C  c #253214",
"Z  c #2B3214",
"A  c #2B3A15",
"S  c #26311B",
"D  c #2A341C",
"F  c #2D3B1B",
"G  c #303A14",
"H  c #323C1C",
"J  c #383F1D",
"K  c #1F2322",
"L  c #242521",
"P  c #262A23",
"I  c #2A2B23",
"U  c #2D2E2A",
"Y  c #302E28",
"T  c #2D3323",
"R  c #2E3B24",
"E  c #2C3429",
"W  c #243022",
"Q  c #313525",
"!  c #323B23",
"~  c #3C3E23",
"^  c #32352B",
"/  c #343C2A",
"(  c #3A3B2B",
")  c #333433",
"_  c #3B3D33",
"`  c #363833",
"'  c #324003",
"]  c #2F4014",
"[  c #364214",
"{  c #3A4416",
"}  c #34431C",
"|  c #3A431E",
" . c #3A491B",
".. c #374A17",
"X. c #344324",
"o. c #3B4324",
"O. c #354824",
"+. c #3B4B22",
"@. c #35422A",
"#. c #3B432B",
"$. c #3D4A2D",
"%. c #3C4333",
"&. c #394635",
"*. c #42551A",
"=. c #444D24",
"-. c #424C2C",
";. c #47492C",
":. c #435423",
">. c #45522C",
",. c #49542E",
"<. c #4B592A",
"1. c #4D5526",
"2. c #424535",
"3. c #434C34",
"4. c #42443D",
"5. c #444A3B",
"6. c #494B39",
"7. c #455334",
"8. c #4B5334",
"9. c #4C5935",
"0. c #4A543B",
"q. c #4C5B3C",
"w. c #45533C",
"e. c #535D34",
"r. c #51543E",
"t. c #535C3B",
"y. c #4E6026",
"u. c #54672B",
"i. c #4E6036",
"p. c #546534",
"a. c #5B6A35",
"s. c #54623A",
"d. c #5A643B",
"f. c #55693D",
"g. c #5C6A3F",
"h. c #576832",
"j. c #5E703A",
"k. c #616C3E",
"l. c #65753B",
"z. c #484C44",
"x. c #4B5241",
"c. c #4C5941",
"v. c #535343",
"b. c #535C45",
"n. c #5A5D45",
"m. c #56574D",
"M. c #555D4B",
"N. c #595C4A",
"B. c #585745",
"V. c #585951",
"C. c #546244",
"Z. c #5A6543",
"A. c #5D6A43",
"S. c #5C644B",
"D. c #5D6A4D",
"F. c #556248",
"G. c #5E6454",
"H. c #5D6A59",
"J. c #596058",
"K. c #646E44",
"L. c #62644C",
"P. c #616C4B",
"I. c #686B4E",
"U. c #6A7440",
"Y. c #6F7D42",
"T. c #64724E",
"R. c #69714A",
"E. c #6D794F",
"W. c #647745",
"Q. c #616452",
"!. c #626B54",
"~. c #686C57",
"^. c #627153",
"/. c #6B7454",
"(. c #6C7B55",
"). c #6D755A",
"_. c #6C7A5C",
"`. c #727E52",
"'. c #767959",
"]. c #6A7261",
"[. c #6F7B65",
"{. c #737C63",
"}. c #797E65",
"|. c #747C6A",
" X c #737F75",
".X c #70814D",
"XX c #758356",
"oX c #75825D",
"OX c #7A835B",
"+X c #7C8C5B",
"@X c #7D8956",
"#X c #7D8C62",
"$X c #7C856B",
"%X c #7E8B6B",
"&X c #788364",
"*X c #7D8972",
"=X c #83935C",
"-X c #88975E",
";X c #818463",
":X c #848E65",
">X c #888E6C",
",X c #849266",
"<X c #8B9A63",
"1X c #83936C",
"2X c #89926A",
"3X c #8C9A6A",
"4X c #889668",
"5X c #848C75",
"6X c #859372",
"7X c #8C9576",
"8X c #8B9973",
"9X c #8D997B",
"0X c #8C957C",
"qX c #929C7C",
"wX c #939E74",
"eX c #91A36E",
"rX c #95A369",
"tX c #94A17C",
"yX c #9BA47B",
"uX c #99A878",
"iX c #8B8F80",
"pX c #969A82",
"aX c #9FA28C",
"sX c #9AA583",
"dX c #9DA894",
"fX c #ABB985",
"gX c #A8B395",
/* pixels */
":.XXZ u X 9.d.= X   # Y 7 . > >.i X   < 9 h S.> X X .   h 6.B   X     T m.  & 9.9Xo.  r.L.o o . = b.",
"+.(.* T n ).9Xy   @ o 8 _ 2   D.Z.= . < o Q.iXa * b.5.. B.aX5.X e R   T z.2 c.i * *   pXn..       X ",
"X X - 0 - - 4   X X b pXv.b   ^ dXw.. o 1 # @ .   /.;X  o.$Xb @.+X3X> 2 + d dXH.  X o v.k 9.#.* # . ",
"D   - 0   < 4 6 X X : r.B.<   * @.D 2 < < o 7 # X * j * Z *   & <.=Xj * <   ; ; T 2 * * > >X$XX + O ",
"Y.x 2 U   #.}.D X * .   M 3 : D.} = o B '.m   # X a > , N.. ;   & z X 8.a . X 7.tXr X T : B n X o + ",
"fXXX  8 o Q {.u   . # . M ( * t.s.1X6.D ;X;.9     J.|.b 2.  X X y ).Z n.T   e T.(.X T m.  o X X . 7 ",
"e S   M < 1 @ X #   .   > #.* X F ^._   ~ L.o @ @ @ ^ * * . K. .H 0XN.o * Z 8X>.X X 0 L   : * X # q ",
"X   . 0 L o 8 8 ; %.S.* : : N |.@.  .   r.m   X @     . B > :X`.* X o : ! , =.= D.T 8 M o 3.b.> .   ",
"= r X a 4.M.gXt i 1XwXr 9 < -  XH.&   2 6.* Y.U.&       2.* y X   X   M N.  l i.D.2   z.* Q.c.X = z ",
"A.(.> : a ! j.X X j `.j : 7     X c.9 * I . l.l.& * * . I < E a     @ - # N wX,XD   . ^ o o > X z %X",
"i q.a 3 * e l.*.& X g o 9 - X   f.sXd . 9 o > & r tXP.o #   T n = e   0 O @ 0.-.S X   9 * D $.u * 0.",
"R c.2 b 3 r =Xj.  T qX-.< 8 X $.p.i.  d `       = `.#.  9 .     H %XM . +     X     # 9   ).5X#.X   ",
"a G.Q B ( * r =   d !.6.o 2 C 8XO.& X I 4.  , = X   X 9 I o X i Z F.9 . # @   & *.e . L   N %.s u } ",
"@ - o 1 M o D N o       o N X z e &X/ . 9 . t.oX& .     P . X T.q.  * M +     = +Xp.* 7 .   .   @.8X",
". # + w 1   ).5X8 @ .   < b * +.W.}     8 : #.D   ; #.u - # * D.8X} > d   X g.p t u . 7 o .   & X O.",
"> * # 0 8 3 m n         I < * qX1XF   . G..   u X 8 pXq.; _   3 oXr   8 @ N eXW.= X M 9 * > ; X y X.",
"=XE.X L I o   . X n ! * 9 #   a d ;   o B * [ k.e   N X d P       X   M d   z 3XD.  ` 2 >.#Xu   = q.",
"u.h.* K 1 o . X   T 9XD . @ .     X   X >   s.:X7.X   X * ^ `   X     d - X 7.A.n . 7 * z ,.: o   & ",
"c & * I   N.N.X   X R * * o   . * D.H X 9   o 2 * S ^.C = M.) . A.k.> ; X X 3.D X   2 a X X o . o X ",
"uXoXa ^ o v.}.= i / ; 8 5..   * & T.t.* 0   @     a %XX.X *     (..Xo . @   X       b Q X     $     ",
"A.C.* d 7   2 * -.gX%.2 2.  > OX .& > . <     X @   D X.X X .   > > o B 2     / A.r 2 X ; ! D . # O ",
"X * = ; 8 # n X * #.*   * * g `.@Xx   8 - M ^ *   d 0.u * X * .   X . a o   X d qXJ X * y *XQ.  # O ",
"' <X,.D 3 < 7Xb.    @   0 d   u @XW.  0 O _ 5X>     @.! u D %.  = q.D * & S W X o o b a X N M . . + ",
"r XXo.D 3 * t.-.X * 2 X 6 8 . G.e.=   6 0 - Q X   2 j & e / 9   i %X0.X & !.&.  u o I T     . o # O ",
"  2 o * 3 * X X X OX2X* < X   P 2   X * I         Z.eXl > X @   X o   M 9 & & X k.k.* - & S   @ @ O ",
"#   I %.n . u u X 9.d.* X -     X *   . 2 *   X X A y.e > & #         7 < 5.E X =.[ X 8 s $XN   # O ",
"5 # u )./ X A.tX> .   o E - X   ! 6XQ o o o t.=.  X X & z ,.Z | a. .  L & M.%.X     1 4.a %.< . @ @ ",
"# #   @.T X t o.    : * x.;   X = D.E . * , E.e.  S.*Xe ,.+Xr d.<X..  P X   @       < b , >   +   8 ",
". o . ; d X *   o > `.:.  * #.3.      2 8   X X X x.{.C n D : u ,.> : 0 O O     o D 3.X ] (.3   # N ",
"o . * 3 L @       u K.G > > 9.C   E N 2 8     X   & & y S           # U   @   X . 8.sX> = @.* -   o ",
"+   g g.* * T.G o .     I T X & X !.[.X . 8 #.X X X   u 0XX   X +.,.* 8 . y / X   : n.*   X @ . # # ",
"O . e.,Xy a 8Xg.X * 6   a 2 C.$.X * n X - N $Xj   #._.* S.&   X A.'.X 9 * $.^.*     b *     . # @ @ ",
"O . , > d 0 s = p.XXt.  3 X R R X     X d * u     D.4Xt n X   X = X . 7 9 . * X X   t.1.U.v X @ O # ",
"  # o   P 8 / X :.+XF X b *   X       8 - s ! X X X x XXb.  X X X *   + 0 o Z =   @ &X@XrXU.X @ + . ",
"  b 0.. 3 ^ [.= = C . - U     X   * =.oX@ d ).r     , 7X5.  X X & /.-.>   2.`.x     1 . Z : X X X 2 ",
"  a r.> 3 2 S & X X   # d @ &     X x `.7 O > X @   . u X 2 (.[ e 1XD.* o %.P.X.;   ) M   .   * X / ",
"X   X # V.  X X X S.~.2 7 # S F.y   X !.d   X         N d o M.C X * X o d   X   O   7 I I 2 # @ @ < ",
"2 %.o 8 Q o   X X z.N.  8 7 n 0.X . X D > N >   X @   5.3     y 0.3.  # 9 .       O # 7 ( .   @   + ",
"n x.7   < m j X @       7 9 X X o   X e.v OX:X>   . : o.= g * y 6Xs.2 U 7   r j * .   $ o h o @ # # ",
"X X . # : ~ /.* @ @ .   8 > r $.8   . R.=.d.8.  o .   R.<X,Xb   t = o L . * Z.oX* X < o b }.* X @ . ",
"X     # o b N X @ # .   3 X :.#X%.<   < <     @ @   Z yXOX/.: * A 7.* + 9 # T #.& 4XOX> * a X X X X ",
"F %.#   3 :   . X   . . o > t +.n +   0 q O 4 O # o ( o.X X   n _._.X # L o X X X a.=.u   d M.* f s ",
"} {.0 . o.| ! &   3 >   < P   X     X o a 4.6 @ X   X ! { x H * * * . 9 I : e a.x   j Q   B 6X} @.s ",
"X * . . I.2X/.  S ].N.: 7 0       X X * a N   . X Q a D <.3Xo.& & *   9 +   | fX9.X S.%.  ; i = *   ",
"& , * 3 h r.#.X 2 ].V.8 Q 3 X X.-.*   * * X 0.* X 7X{.e > | e > R >   : > . < I *   Q ^   #   = S X ",
"> G.T . Q 2 X X X * * o B 3 * t.&X* H H X m (.& > 8.0.m #.S.#.i /.S 3 I % . #   * D > x.  & y c.{.F ",
"X 9 7   9 * X & = F.I.> o w o 9 a & rX-Xy X * e X X   8 s M.s X e > o ~.b   4   -.uX-.e X 9.E.f.D.! ",
"    # # 0 T 7.X.S q.t.o : I 1 o 2 * c l m * e '.u Q E @ 7 .   > A.8.3 _ (   @ X } k.Z o , t  .& i X ",
"  . + + U N ^.O.  o .   I M o / oX<.X | _   > /.! Q 8 I I . + < 7.7.  U Y o X.& X   ;.'.X & X X X C ",
"    O   < * z i o 7 +   M 9   ! eX..  0._   X * X X   9 M   . o X *   L I B (.A .   V '.8.q.a   e 9."
};
