/* XPM */
static const char *back1[] = {
/* columns rows colors chars-per-pixel */
"50 50 48 1 ",
"  c #1F621B",
". c #20631C",
"X c #21631C",
"o c #21641D",
"O c #22651E",
"+ c #23651E",
"@ c #23671E",
"# c #23661F",
"$ c #24661F",
"% c #24681F",
"& c #236420",
"* c #246521",
"= c #246720",
"- c #256720",
"; c #256622",
": c #266723",
"> c #286623",
", c #296724",
"< c #296726",
"1 c #256920",
"2 c #256821",
"3 c #266821",
"4 c #256823",
"5 c #266922",
"6 c #276922",
"7 c #276B22",
"8 c #276A23",
"9 c #276824",
"0 c #286A23",
"q c #286C23",
"w c #2A6825",
"e c #286B24",
"r c #296B24",
"t c #2B6926",
"y c #2A6B27",
"u c #296C25",
"i c #2A6C25",
"p c #296C27",
"a c #2A6D26",
"s c #2B6D26",
"d c #2B6E27",
"f c #2C6E27",
"g c #2C6F28",
"h c #2D6F28",
"j c #2D7029",
"k c #2E7029",
"l c #2E712A",
"z c #2F712A",
/* pixels */
"lgde55edgd55glgdd=#5555dde555555.#5dde5=e5555ddddd",
"55===55ee5=5edd5d55dd55ede55ee55=5555555de555eeedd",
"555555ed55555555e5edd5=5deeddde5de5555edgd55555555",
"gdde55555ede55edeeddd55555eddd55dd5555eddd555555==",
"dde55555dddd55dd5e555edd555edd5=eeeeee55d5555edddd",
"55eeedddde555555555#=edd5555ee5555edde5555=55ddddd",
"eeddddddd5=5555==55==5e55555ede5=55eee5555=55dddee",
"555555##d5==ed5##5e5555.d555dddd==555555e5555ddddd",
"d55dd5555==ee55d=55ede5555=#55eeeedddddddddddddddd",
"d55ee55de55ee55e555555555555555555555555dddedddd55",
"d55555egd55ee55555=##55e555ede5#55555555eeeeeeee##",
"d55555ege55ee55e5555555e5555e55#eeeeeeee5555555555",
"555dd55d5=5ee55d55eddee5d55=5555dddddddd5555555555",
"555dd55e5#=ee5ed55dddde5d5=#=555eeeee555555555555e",
"d55de55d555ee55d555eeeee55555555ee5555555555555555",
"ge55555dd55ee555e55555ed==55de55ddee5555eeeeeeee5e",
"55edd5eleeeeee05###5555e#5dgd555de5#5dd55##=5ddg55",
"550de50g0005555555555ddd5edd5555dd5=5dde5=#=5ddddd",
"5=5e055d05555550dde55ddddde5555ded555ddd55=55dddee",
"055ee55de05==50d55555555de5555ed555#=ed555555ee555",
"d55dd00de05550dd=55ee5=#5555dddd=55==5e55555ee55dd",
"f05dde0de0050edd=5edd55==55dddd55dd555e55555ed55ee",
"f55ede0055500eed555555ee555edd5=5dd555555555dde555",
"d5=0d055$=550000d55==5dddd55ee5#=ed5##=#==55dde5ee",
"l05gle$5e055550e=##55eee55e5##5d5555e55#dd=.#e5 #=",
"5=5e0==5e055550ee55555555555555d555edd555e5==55#55",
".505#=0de005500ede55ee5555=555e5e555ee55#edd555555",
"$dd$#egde000000e5555dddd5=##5e55e5555e555dddddde=5",
"dfe#=gg0000eeee05555ddde55=5ede5de55eddege55ddd555",
"fd5#5de=0eeddee0dd55555=ddddddd5ddddddddl5.#555=5d",
"d5=555500edddde0de5555=#edddd555deedddd5d5=5e5#5ed",
"e55d0#=g0edddde0555555555edd5##=5555e55#dedld5=55e",
"555#5ee5ddeeddde5eddddde55##=555d555ddd5#=555555dd",
"555#5dd5==5555=#ddddd555de555edee555ede5=5555555==",
"555#5dd5==5dde5#eee55555dde5edde55ee55ede5=55e5555",
"555=5dd5555ddd5555555edde5555555=5de555dd5#=5d55ed",
"555=5dd555=55e555555eddd55=5555==5ee555dd5#=5de5##",
"5e555dd5e555eddddddee5555555ee555555555ed555ede555",
"dde55dd5555dddddeedde55=555eddde55555555555eeeeedd",
"dde55de=##=5de5##55ee55=##55ddde55#=5d55=5eddeed=5",
"===5555#5555555555555eeedde555eede5eddd555555ddddd",
"5=#=55eede55eee555555555de555edd55555555eeeedddg55",
"55##5edgde55eee555555555e5555ddl55ee5=5edeeeeddd55",
"e5555ddd555555555555eeee555eeddd=edd5=5de5555555ee",
"de5edd55555555555555eddd55dddd555ddd555de5555555dd",
"deedde5=de55eee5555555ee5edgdd5=5ddd55eddde555ee5e",
"de555e55de55eee5ee5555555eedddeeeeeeeeeeee5555ee=5",
"d5=#55dd55555555ggdde555e5550dgge5555e5555555555#=",
"5=le5d=df=#dld50#%%5dddd====,ee==55=5e5#55ed5##5dd",
"5=le5d=df=#dld50%%%0ddde=9,>,e,&=55=5e5#55ed5##555"
};
