/* XPM */
static const char *black[] = {
/* columns rows colors chars-per-pixel */
"50 50 23 1 ",
"  c #010302",
". c #020202",
"X c gray1",
"o c #020403",
"O c #030504",
"+ c #040404",
"@ c gray2",
"# c #040605",
"$ c #050706",
"% c #060606",
"& c #070707",
"* c #060807",
"= c #070908",
"- c gray3",
"; c #090909",
": c #080A09",
"> c #090B0A",
", c gray4",
"< c #0B0B0B",
"1 c #0A0C0B",
"2 c #0B0D0C",
"3 c #0C0C0C",
"4 c #0C0E0D",
/* pixels */
"..++++++++++++------------------++++++++-+++++++++",
"..++++++------------------------++++++----++---+++",
"..++--------------------------------------------++",
"..++----------------------------------------------",
"+++---33------------------------------------------",
"++---333------------------------------------------",
"----------------------------++++++----++-++-------",
"-------3-+++++------++++++++++++++++++++++++------",
"----3------++++-+++++++++++++++++++++++++++-------",
"---333----+++++++++++++++++++++++++++++++++-------",
"---3-----++++++++++++++++++++++++++++++++++-------",
"3-33----+-+++++++++++++++++++++++++++++++++-------",
"3333---+++++++++++++++++++++++++++++++++++++----++",
"-3333----++++++++++++++++++++++++++++++++++-----++",
"--3333--++++++++++++++++++++++++++++++++++++----++",
"----33--++++++++++++++++..............+.++++----++",
"=-1221-=*+++OOOO++OOOOOOOOOOOOOOooooOOOOO++*=----+",
"=-1221-=*+++OOOO++OOOOOOOOOOOOOOooooOOOOO++*=----+",
"=-1221-=*+++OOOOOOOOOOOOOOOOOOOOooooOOOOO++*=----+",
"=-1221-=**++OOOOOOOOOOOOOOOOOOOOooooOOOOO++*=----+",
"=-1221-==**+OOOOooooooooooooooooooooOOOOO++*=----+",
"=-1221-==**+OOOOooooooooooooooooooooOOOOO++*=----+",
"=-1221-=*+*+OOOOooooooooooooooooooooOOOOO+**=----+",
"=-1221-=*+++OOOOooooooooooooooooooooOOOOO++*=----+",
"-12321-**+OO++oooooooooooooooooooooooooo++**=--1++",
"--2221-**+OO++o.ooooooooooooooooooooooooO+**=----+",
"--122--**+OO++o.ooooooooooooooooooooooooO++*=----+",
"=-122--**+OO++o.ooooooooooooooooooooooooOO+**=----",
"*=-11--=*+OO++o.ooooooooooooooooooooooooOO++*=----",
"+=-11--=*+OO++o.oooooooooooooooooooooooooOO+*==---",
"+*-111-=*+OO++o.ooooooooooooooooooooooooooO++*=---",
"+*-111-=*+OO++o.ooooooooooooooooooooooooooO++*==--",
"O+*-1111=*OO++Oo....ooooooO+++OOoooooOOOOO++*=----",
"O+*-1-1-=*OO++Oo...oooooooOO++OOooooOOOOOO++*=----",
"O+*--1--=+OO++Oo..ooooOOooOO++OOOOOOOOOOOO++*=----",
"o+*=----=+OO++OooooooOOOooO++++OOOOOOOOOOO++*=----",
"oO+=----=+OO++OooooOOOOOOO++++*+++++OOOoOO+**=----",
"oO+=---==+OO++OoooOOOO++++**=***++++OOOoOO+**=----",
".O+*=-===*OO++OoOOOOO+++*==----=*++++OOoOO+**=----",
"oo+*=====+OO++OoOOOO++++==----1-**+++OOoOO++*=----",
".O+=-1--++**+++++++++***=---1111**+++OOoOO++*=----",
".O+=-11-++***++++++++***---12211==**++OOOO++*=----",
"oO*=-1--***+++++++++***=--1222221--=*+++++++*=----",
"oO*=11--=*****++**++*===-11233331---=***+++**==---",
"o+*--11-====****=****==--112333311-1-==*++**===---",
"O+*--111---========*==---1123332111--==****=====--",
"O+*-1111-----===-====-----11231111---=**========--",
"O+*-111111----==--===---=-11111111--==**========--",
".+++++++-------+++++++-------+++++**++++++++++++++",
"o+++*+++++------++++++------++++****++++++++++++++"
};
