/* XPM */
static const char *butterfly2_r[] = {
/* columns rows colors chars-per-pixel */
"50 50 256 2 ",
"   c #01000E",
".  c #000115",
"X  c #01011B",
"o  c #090B1E",
"O  c #010123",
"+  c #0A0625",
"@  c #02012B",
"#  c #0B052B",
"$  c #10072B",
"%  c #020133",
"&  c #090633",
"*  c #02023B",
"=  c #0B083B",
"-  c #190A3A",
";  c #030243",
":  c #0B0645",
">  c #02014B",
",  c #0B054D",
"<  c #160849",
"1  c #030153",
"2  c #0C0452",
"3  c #03025C",
"4  c #0B0659",
"5  c #170856",
"6  c #1A1352",
"7  c #300D4F",
"8  c #220959",
"9  c #020163",
"0  c #080568",
"q  c #1A0767",
"w  c #1C126D",
"e  c #020273",
"r  c #06047B",
"t  c #150879",
"y  c #250965",
"u  c #350D68",
"i  c #2B0374",
"p  c #320F71",
"a  c #3E1876",
"s  c #2F267E",
"d  c #4E1350",
"f  c #4B2548",
"g  c #461174",
"h  c #4E1072",
"j  c #68066F",
"k  c #59207E",
"l  c #050588",
"z  c #180986",
"x  c #060497",
"c  c #180897",
"v  c #151792",
"b  c #280886",
"n  c #3A0485",
"m  c #361989",
"M  c #280799",
"N  c #330598",
"B  c #291391",
"V  c #2D2894",
"C  c #0706A9",
"Z  c #140BA9",
"A  c #1812AF",
"S  c #0605B7",
"D  c #170AB8",
"F  c #3608A6",
"G  c #2812A9",
"H  c #260EB4",
"J  c #2A16B3",
"K  c #3817B5",
"L  c #182BB3",
"P  c #2E2DAE",
"I  c #450388",
"U  c #4E0F93",
"Y  c #6F1390",
"T  c #512593",
"R  c #6D369C",
"E  c #5413AD",
"W  c #7010AF",
"Q  c #7919A8",
"!  c #4831AB",
"~  c #5B2ABC",
"^  c #6F2CAF",
"/  c #0603C5",
"(  c #1906C8",
")  c #1814C5",
"_  c #0E0DD1",
"`  c #1714D7",
"'  c #2807C6",
"]  c #2809D3",
"[  c #370CD5",
"{  c #3314D3",
"}  c #1B34CB",
"|  c #302DCF",
" . c #3B27DB",
".. c #3535D5",
"X. c #0508E8",
"o. c #130EEF",
"O. c #1819E8",
"+. c #090AF4",
"@. c #0C1AF6",
"#. c #1A11F5",
"$. c #2515EA",
"%. c #3712EA",
"&. c #2818F5",
"*. c #1C24EA",
"=. c #1334EF",
"-. c #092CF7",
";. c #1825F4",
":. c #0733F7",
">. c #2A25EA",
",. c #332BEC",
"<. c #2936F5",
"1. c #373BF5",
"2. c #4618C6",
"3. c #4A0DDB",
"4. c #4D11D0",
"5. c #5919D5",
"6. c #6A1BCE",
"7. c #7716DB",
"8. c #462BCC",
"9. c #4928D8",
"0. c #5230D2",
"q. c #6A25D7",
"w. c #7430D1",
"e. c #4717E5",
"r. c #4F13EC",
"t. c #6819EA",
"y. c #7312EE",
"u. c #4927E9",
"i. c #5132EE",
"p. c #6B25EC",
"a. c #6A36EA",
"s. c #7A3BEC",
"d. c #1E49DE",
"f. c #354BD2",
"g. c #124EF0",
"h. c #174AF5",
"j. c #1758F6",
"k. c #2A51EF",
"l. c #3648F4",
"z. c #3856F3",
"x. c #1965F4",
"c. c #1977F7",
"v. c #2766ED",
"b. c #3173EE",
"n. c #2578F2",
"m. c #454BDA",
"M. c #7147DA",
"N. c #6A51D7",
"B. c #416BDD",
"V. c #746CD8",
"C. c #4C4FEC",
"Z. c #5656EC",
"A. c #454CF8",
"S. c #6C4EEA",
"D. c #764BE9",
"F. c #5865EA",
"G. c #506CF1",
"H. c #4375F3",
"J. c #567AF3",
"K. c #6E74EE",
"L. c #89158C",
"P. c #922499",
"I. c #8B15B0",
"U. c #A01BB6",
"Y. c #9231B5",
"T. c #A933B8",
"R. c #8547B1",
"E. c #A349BA",
"W. c #9115D1",
"Q. c #AF0ED5",
"!. c #8A34D8",
"~. c #B22FD3",
"^. c #9311EA",
"/. c #A917E6",
"(. c #972AE7",
"). c #883BE5",
"_. c #8D33EC",
"`. c #AF35EC",
"'. c #D616D2",
"]. c #CB31D2",
"[. c #ED30DB",
"{. c #C73CE9",
"}. c #974CCF",
"|. c #B24FCB",
" X c #8566DE",
".X c #8748E8",
"XX c #894FEF",
"oX c #B24DEC",
"OX c #926CE8",
"+X c #B36DE7",
"@X c #D156D4",
"#X c #D566D9",
"$X c #CB58E8",
"%X c #D050F0",
"&X c #EB5FE1",
"*X c #C970E9",
"=X c #E77AEA",
"-X c #ED77F1",
";X c #1E8CFA",
":X c #2A86F6",
">X c #3393F4",
",X c #28A7F7",
"<X c #36AFF2",
"1X c #4A8DF2",
"2X c #7290F2",
"3X c #4CB8F3",
"4X c #70A9F4",
"5X c #36C6F7",
"6X c #38D6FB",
"7X c #49D6F7",
"8X c #70C4F5",
"9X c #4BE7F9",
"0X c #7CEDF5",
"qX c #A1A2DF",
"wX c #8D95ED",
"eX c #AB9AED",
"rX c #B591E9",
"tX c #89B2F3",
"yX c #AEB4F0",
"uX c #D290DB",
"iX c #F681D5",
"pX c #CF8EED",
"aX c #EF90EF",
"sX c #EC97F3",
"dX c #CDAFEF",
"fX c #F2AAEC",
"gX c #ECB3EE",
"hX c #F5BAF6",
"jX c #8ED6F5",
"kX c #AFD2F4",
"lX c #86EBF7",
"zX c #99E7F3",
"xX c #A9EDF4",
"cX c #B7E9F5",
"vX c #B5F7F9",
"bX c #D6CEDD",
"nX c #CBC8F5",
"mX c #D0CEF3",
"MX c #C7D5F5",
"NX c #D8D6F5",
"BX c #F1C3EB",
"VX c #EBC8F3",
"CX c #F5CAF3",
"ZX c #E9D9F5",
"AX c #F7D8F7",
"SX c #CAEAF8",
"DX c #D9E6F7",
"FX c #C4F7FB",
"GX c #D4F3F6",
"HX c #F0ECEA",
"JX c #E8E9F7",
"KX c #F7E8F8",
"LX c #EAF8FB",
"PX c #FBF4FA",
"IX c #F5F9FA",
"UX c #FCFBFC",
/* pixels */
"X O O @ * ; > 1 3 9 9 9 1 > * * O X X . . . . . . . . . . . . . . . . . . . . . X X X . . . . . . . ",
"O @ % ; > 3 e l l l l l l e e 3 % @ X X . . . . . . . . . . . . . . . . . . . X X X X X . . . . . . ",
"@ % ; 1 9 B w.w.0.8.| ) S S S r 1 ; @ O X . . . . . . X # X . . . . . . . . . X O O O X X . . . . . ",
"@ * > 3 z }.%X%XoXq.s. XS.C.*.S l 9 ; % O X . . . . . X 6 + . . . . . . . . X O @ % @ O X X . . . . ",
"% * 1 0 z }.$X$X(.6.4.!.*XpXOX .S l 9 ; % O X . . . . . . . . . . . . . . X O 4 0 ; % @ O X . . . . ",
"% * 2 q t E $X%X7.4.4.5._.(.oXOXN.J l 9 ; @ O X .     . . . . . . . . X X O t O.>.v ; % O X . . . . ",
"@ * > 4 q M }.$X(.y.5.3.t.t.q.q.M.N.f.v 9 ; O X .           . .     + g + : ` o.$. .0 % O X . . . . ",
"@ % ; 1 0 c }.oX(.y.3.3.3.3.3.5.5.2.8.f.L e ; @ X .                 X - = B &.#.$.>.V % @ X . . . . ",
"O % * > 3 r H 5..Xp.[ ( D H ' [ 4.2.K { f.L l > @ X . .           . . : J &.&.#.#.;.P % O X . . . . ",
"@ 1 0 1 3 e C 8.S.u.{ _ / S D D ( ( ' ' 8.m.f.v 9 ; @ X .       . X O A &.#.#.#.$.*.| : O X . . . . ",
"> K 0.r 3 e x 9.u.{ c Z A D ( ( ( O.O.;.<.C.f.d.L e 1 * O X . . X O ; ` #.o.+.@.@.*...< O X X X . . ",
"* B K 0 > r x 8.a.u.H l z l l Z _ #.&.<.1.G.F.b.b.L l 9 > % O O O : D o.+.+.@.@.-.=...5 X O X X . . ",
"X O % @ * 0 l J a.i.%.( D Z l l x D $.1.C.C.F.J.1Xb.| Z e 3 2 % ; C X.X.o.;.;.=.h.k.9.q X X . . . . ",
". . X X @ * 9 K p.r.[ ] ] ( ` ` ` ) D } l.A.C.K.K.J.B.| Z c m e C / O.>.<.<.<.=.h.v.i.y X X . . . . ",
". . . X X @ > z ).s.[ ' ( ( D ) ` o.O.g.j.x.v.z.G.G.C...2.Z C / / ` u.l.l.<.1.k.g.j.i.y O X . . . . ",
". . . . X O ; t D.XX[ ' ' ( / S _ _ ` =.g.j.n.:X:X>XJ.F.8.2.O./ ` i.i.l.l.z.C.h.x.v.9.8 O X . . . . ",
". . . . X O ; t N.S.%.e.r.o.X.X.X.X.X.O.g.j.x.x.c.>X2X2XwXM.u.*.i.i.i.A.l.z.l.h.n.b.5.8 O X . . . . ",
". . . . X O * z .Xs.{ ] ] $.+.+.@.-.-.h.x.v.c.c.:X1X4XtXyXdXs.S.G.A.A.A.A.z.h.j.v.z.6.5 @ X X . . . ",
". . . . X O ; z ).s.{ ] ` ` ` ` O.-.h.x.:X:Xn.;X;X>X4XtXnXJXrX.X2XJ.G.1X1XH.1XH.H.C.6.2 % O # # . . ",
". . . . X O ; e 0.K.i.u.O.-.:.:.=.g.v.v.n.>X>X>X,X,X<XjXJXKXAX+XOX4X1X5X<X>X4XtXyXD.~ 1 * @ u u X . ",
". . . . X @ , z D  XXXp.>.@.-.-.:.:.h.n.:X:X>X>X,X5X5XlXFXJXZXNX+XeX7X7X3X8XMXAXdX.X! 9 ; @ # # X X ",
". . . X X O ; 0 x M.oX_.C.1.=.:.:.h.z.j.>X>X,X,X,X<X0XvXvXFXDXMXyX*XjX9XjXSXKXZXdXOXP 0 ; @ O - 7 O ",
". . . X X O * 1 e J +X%XoXXXl.k.z.G.G.H.b.<X,X5X6X7XzXxXFXFXvXjXjXdXpXxXLXIXLXNXpX XV 0 ; % % d d O ",
". . X X O O % 2 w F w.+XpXeX2XwXqXJ.H.1X>X<X<X5X6X9XlX0XzXvXjXjXcXMXpXCXIXLXGXkXeXV.M b w * 7 7 O X ",
". . X X O @ % 5 R w.5.2.2.0.OXwXrXOX2X4X3X3X<X5X9X0XvXlXlXzXzXcXSXDXgXaXPXLXSXkXeXN.N b w u 7 % O X ",
". . X X O % * y ~ ~ M c c J k.k.0.w.w.K.MXGXcXzXzXzXcXcXSXGXcXSXDXJXAXaXAXUXGXkXeX^ U n p u : % O X ",
". X X O @ % * a 0.{ G Z Z K  .| 0.Z.K.2XwXbXDXcXzXzXkXMXmXJXLXGXSXJXKXhXBXUXLXNXpXW.Q Y U y > * @ O ",
"X O @ % * * 5 ~ 5.' D D ) | >.,.C.Z.F.K.K.K.wXtX4X8XjXkXdXVXZXJXJXDXKXCXfXKXKXVX=X].].~.E t 3 ; % O ",
"O @ > r v 0 q 5.[ ' ' ( ) 9.C.Z.K.K.2X2X4X4XtXjXyXdXnXMXnXgXVXVXZXZXVXfXfXAXAXCXaXaXaX%XW U t 4 : % ",
"O * l d.2X} 0 m e.%.$.*.O.9.Z.K.rXdXdXyXMXNXNXnXnXnXZXAXKXKXKXKXKXCXaX-XsXgXpXpXsXCX-X~.W N t 0 ; & ",
"O * l d.2X} 0 8 q.t.r.%.$.9.F. XuXuXgXNXKXPXPXUXPXKXKXAXPXUXUXUXKXgXoX`.oXXX.Xa.$X&X{.W.U z 0 > % O ",
"O @ ; r v e > < w.y.t.r.%.e.q.|.=XiXgXAXKXPXPXUXUXUXPXPXPXKXVXdXOXD.u.e.e.0.i.D.+X~.I.U b 0 > % O X ",
"X O @ % ; ; 0 > y 7.y.y.y.^.Q.$X*X=XaXfXCXAXKXKXKXKXKXKXhXpXs.a.e. . .m.Z.S.a.).!.W U n q 1 * @ X X ",
". X X O @ % * = * y E (.^./.Q.~.@XpXsXsXhXCXCXAXKXPXCXaX+XD.e.3.e.C.M.N.V.w.6.6.^ I i q 1 ; % O X . ",
". . . X X O O O @ * , T _.(./.Q.].+XaXaXsXfXhXAXUXVX*XoXoX`.oX*X+X}.W E E I I n T y 2 > * % O X X . ",
". . . . X X X X O & * 5 ^ `./.'.'.'.[.=XdXhXAXPXPXhXsXsXaX=X=X@XY.U i m i y 5 5 5 , ; % @ O X X . . ",
". . . . . . . . X O @ ; w ^ #X&X&X[.[.[.sXKXPXPXHXBXhXpX(.I.U.Q n y 5 q 2 : ; ; * * % % < @ X . . . ",
". . . . . X f f X X @ % 4 q T Q ~.=XfXfXhXhXfXfX*X!.OX).N i i q 4 2 * * * % % @ @ O O % p = . . . . ",
". . . . . X f f X X O @ * ; 2 q I |.uX@XfX=XT.P.Q U 0.K t t 0 > > * % @ @ O O O X - 7 . X X . . . . ",
". . . . . . X . X & O O % % , y 8 Y L.L.@XT.L.Y h i P B t K B ; * % @ O O O % O . + + . . . . . . . ",
". . . . X . . X < R a @ @ % * : 5 7 j j P.P.j h I b P G r 9 3 > * % % @ X @ s = . . . . . . . . . . ",
". . . . X X . X < T u @ @ % * ; : 7 7 d L.Y I n N H | ..x z W Q q * % @ O O % X X . . . . . . . . . ",
". . . . . . . . X O O X @ % % * ; < 7 h P.Q U E 4.3.C.,.] 2.G F t 3 , * @ O + X X X . . . . . . . . ",
". . . . . X O O + # # # # & * ; 5 8 h I.~.~.Q././.oXwXv.>.%.( S C c T 4 * < < @ # & # + + + O X . . ",
"+ # & & = 5 8 y p g h k k g g a T Y U.].aX-X&X-X-XgXDXkX4X2XF.m.f.....P V V V V V s w , = * & O . . ",
"& = < < < 6 8 u h I.U.Y.Y.T.E.E.|.|.#X=XaXsXsXfXCXKXCXBXgXdX*X$XoXoX!.w.~ ! T m m b w = # # + O X . ",
". . . X X + & = 5 y b B K 2.5.6.7.7.(.`.{.%X%X%X=XaX%X`.(.p.p.t.q.q.5.2.K G w 6 8 6 6 : = = & & + . ",
". . X # - - - + O # % % & * * : , 2 5 a ^ Y.Y.^ R.}.R T T T I a a g g g u 7 7 - - $ + X . . . . . . ",
". . . . . . . . . . . . X # < u g U W I.W././.W.E E b q 4 : & O X X X X X X X . . . . . . . . . . . ",
". . . . . . . . X . . X % < q i i n n U U U F F F F c l e 3 ; % X X X X X X . . . . . . . . o . . . "
};
