/* XPM */
static const char *buterfly1[] = {
/* columns rows colors chars-per-pixel */
"50 50 256 2 ",
"   c #000106",
".  c #00000A",
"X  c #010114",
"o  c #01011B",
"O  c #0A0917",
"+  c #100E1C",
"@  c #020124",
"#  c #03012B",
"$  c #0B0828",
"%  c #020133",
"&  c #090533",
"*  c #02023B",
"=  c #0A0839",
"-  c #140A37",
";  c #191736",
":  c #13102F",
">  c #251235",
",  c #030243",
"<  c #02014B",
"1  c #0B0949",
"2  c #130C42",
"3  c #180848",
"4  c #141448",
"5  c #020153",
"6  c #02025D",
"7  c #0A0757",
"8  c #170958",
"9  c #191757",
"0  c #0E1650",
"q  c #260B4C",
"w  c #271454",
"e  c #232659",
"r  c #2F2D4F",
"t  c #070566",
"y  c #160968",
"u  c #1A1765",
"i  c #050476",
"p  c #16097A",
"a  c #191675",
"s  c #0C1570",
"d  c #271A68",
"f  c #241678",
"g  c #310F71",
"h  c #1B2474",
"j  c #1D2564",
"k  c #342969",
"l  c #282776",
"z  c #312C75",
"x  c #1C2254",
"c  c #4A1074",
"v  c #4A326D",
"b  c #4E255C",
"n  c #2B467D",
"m  c #9B6976",
"M  c #080583",
"N  c #150485",
"B  c #0A0392",
"V  c #190998",
"C  c #161893",
"Z  c #251985",
"A  c #39069A",
"S  c #23199B",
"D  c #2F0D90",
"F  c #172E8E",
"G  c #2E2791",
"H  c #1607A6",
"J  c #1B18A6",
"K  c #1B04B9",
"L  c #0F10B4",
"P  c #2607A3",
"I  c #3312B0",
"U  c #1C29AA",
"Y  c #152CB6",
"T  c #2938A9",
"R  c #322FB2",
"E  c #4F1391",
"W  c #681393",
"Q  c #492894",
"!  c #682D8A",
"~  c #5111B3",
"^  c #7413AE",
"/  c #4625A5",
"(  c #5131B1",
")  c #6638B8",
"_  c #762BAE",
"`  c #164899",
"'  c #2B4A97",
"]  c #2F47B2",
"[  c #2B73AE",
"{  c #1556BA",
"}  c #4949B3",
"|  c #734EA7",
" . c #7467B9",
".. c #5853A2",
"X. c #0806CB",
"o. c #0A16CB",
"O. c #1915C5",
"+. c #0506D6",
"@. c #0B1AD4",
"#. c #1709D5",
"$. c #290ED8",
"%. c #2E13D5",
"&. c #1538D7",
"*. c #1030D0",
"=. c #2838C6",
"-. c #2539DA",
";. c #322BCD",
":. c #190DE9",
">. c #1714EB",
",. c #0A13EC",
"<. c #3618E6",
"1. c #320BE9",
"2. c #062BE7",
"3. c #0838E8",
"4. c #1735E8",
"5. c #1033EF",
"6. c #3627E8",
"7. c #3B37EA",
"8. c #2635EC",
"9. c #5010CF",
"0. c #690DD9",
"q. c #4C27C8",
"w. c #5233D5",
"e. c #6B32D3",
"r. c #5812EB",
"t. c #6A18EF",
"y. c #4B32F0",
"u. c #7928F5",
"i. c #782EE9",
"p. c #1847CF",
"a. c #1348D7",
"s. c #0D50D4",
"d. c #2F4FCE",
"f. c #0A69DE",
"g. c #1865D0",
"h. c #2B64CC",
"j. c #316FD4",
"k. c #0946E7",
"l. c #1345E7",
"z. c #1555E5",
"x. c #0645F5",
"c. c #1152F2",
"v. c #2553EA",
"b. c #384FEA",
"n. c #0D6BE8",
"m. c #0A78E8",
"M. c #1D74F1",
"N. c #0F74F2",
"B. c #2F70EB",
"V. c #524FCF",
"C. c #724FD0",
"Z. c #506ECF",
"A. c #776FCF",
"S. c #5345F8",
"D. c #6D4EEA",
"F. c #4F71EF",
"G. c #6B71F0",
"H. c #912C8F",
"J. c #8C10B6",
"K. c #912CB6",
"L. c #A33CA2",
"P. c #DA3ABE",
"I. c #944AB2",
"U. c #AB4BB0",
"Y. c #B367AF",
"T. c #A76C8D",
"R. c #F871AC",
"E. c #C7679C",
"W. c #8A32D4",
"Q. c #863AF8",
"!. c #8B2FE7",
"~. c #AB36E6",
"^. c #9D22D2",
"/. c #CB3DE0",
"(. c #9148D2",
"). c #B453D1",
"_. c #9276D5",
"`. c #AC68D8",
"'. c #9649E8",
"]. c #8E50ED",
"[. c #AE4CEA",
"{. c #887AEE",
"}. c #AB70EC",
"|. c #DA4FCE",
" X c #ED4ECA",
".X c #D469D1",
"XX c #E96DCF",
"oX c #CA4CEC",
"OX c #D465E5",
"+X c #2A8CD8",
"@X c #2B95D3",
"#X c #1593E9",
"$X c #0A96F4",
"%X c #118DEC",
"&X c #2897E6",
"*X c #3594E3",
"=X c #328DE9",
"-X c #11ABF0",
";X c #25A6EB",
":X c #37B1EC",
">X c #3AA3DA",
",X c #4D86CB",
"<X c #4E90D6",
"1X c #6493D1",
"2X c #66A9D7",
"3X c #489AE7",
"4X c #508AEA",
"5X c #698FE8",
"6X c #56B3E9",
"7X c #6EB3E8",
"8X c #52A4D4",
"9X c #35C8F0",
"0X c #33F9F9",
"qX c #10D7F6",
"wX c #4DC1E7",
"eX c #54CFEC",
"rX c #75D3E8",
"tX c #4CE9F3",
"yX c #6CFCFA",
"uX c #78F9F9",
"iX c #6AE7F2",
"pX c #56CBDD",
"aX c #F39CB7",
"sX c #EA9CB1",
"dX c #FFC7B0",
"fX c #8D89D2",
"gX c #AD8FDB",
"hX c #8FA0D5",
"jX c #8F8FEE",
"kX c #B292EF",
"lX c #8BB0EB",
"zX c #B1B0EA",
"xX c #B8ACDE",
"cX c #D096DF",
"vX c #EF90D6",
"bX c #F0B0D9",
"nX c #CF92ED",
"mX c #D2AFF1",
"MX c #E4B6EA",
"NX c #EFB3EB",
"BX c #EA90EA",
"VX c #8ED0EB",
"CX c #B1DAE7",
"ZX c #8CFBFA",
"AX c #96F9F7",
"SX c #8EEAF0",
"DX c #B0F2F4",
"FX c #A2C2DB",
"GX c #C3CCF3",
"HX c #F4CDEB",
"JX c #F6D6EA",
"KX c #EBCCF0",
"LX c #D5F9F8",
"PX c #C8ECF3",
"IX c #EBF5F4",
"UX c #F5D6CD",
/* pixels */
"            . . . . . . . . . . . . . . . .                 . .   O b w l k +                       ",
"            . . . . . . . . . . . . . . . .         .   . . .   $ Z ( G S Z w         .             ",
"            . . . . . . . . . . . . . . . .           . . . o u ( ) Z t t y , o           .         ",
"            . . . . . . . . . . . . . . . . . . . . . . X = f e.) S / Q c c u -   . .     .         ",
"          . . . . . . . . . . . . . . . . . . . . . . o 9 G e.i.q.).vXXX XL.s d   .   ; +   .       ",
"          . . . . . . . . . . . . . . . .   .   . . o l ' ( i.'.OXXX|.P.XXR.c q   .   r :   .   . . ",
"        .   . . . . . . . X X . X X X . . . . . . . j [ R ].'.[.oX~.).|.|.K.A >   . .   . . .     . ",
"    . .   . X X X X X X X X X X o o X X X . . X @ e [ F e.5X].Q.u.u.!.!.(.C.|   . . . . . . .   . . ",
". .   $ ' : o o o : $ o @ o o $ : o @ o o X o X - ,X` Y v.y.Q.'.].Q.u.t.'.].( . . . . . . . . . .   ",
". .   8 `.E.& @ @ v - @ # # @ @ @ @ @ @ $ o o X n g.C M.d.i.Q.].].i.u.t.t.y.} O . O . . O X     .   ",
". .   3 |.R.m & - % % % % * % % % = % # @ @ o ; B.U &.7.q.y.S.D.Q.u.r.r.t.8.B.k . X X . . . .       ",
". . . X K. XdXm 1 1 1 , , , , , * b - % % # o ' p.Y 8.q.y.S.y.u.t.<.4.-.4.5.5.V.+ X X . . . . .     ",
". . . . w oX.XdXT.c g 8 7 5 5 7 ! UXT.3 * # 4 h.Y =.( y.y.y.y.t.6.z.k.3.3.4.k.1X- o O X . . . . .   ",
". . . . X _ oX XaXsXH.c g y 7 t ! bXm 3 , * [ p.J R ;.$.6.6.<.8.4.5.2.2.2.x.&X7Xv o O o . . . . .   ",
". . . . . q ~.}.XXvXUXU.W g y y 6 c 3 , * 0 #X=.=.,.+.X.:.O.4.3.2.3.3.3.3.l.v.M.h.- o o X . . . . . ",
".   . . . X W '.}.BXbXUXY.^ A N y t 7 < u [ m.3.,.:.#.K H L c.x.x.x.x.3.2.3.c.b.w.2 o $ X X . . . . ",
"  . . . . X 2 _ [.kXnXHXIXKX^ A N N t 6 t @Xg.x.5.:.#.K H *.c.x.3.2.@.@.&.z.D.[.H.% # ; o X . . . . ",
"  . . . . X o d W.}.kXmXNXJX.X^ ~ P M t s @XN.c.7.$.#.K K l.3.2.@.,.,.:.<.e.oXNXL.3 4 $ o X X . . . ",
"    . .   . . - Q D.kXkXmXNXbXvX^ ~ V i F ;XM.b.7.<.$.K O.v.v.l.5.,.:.1.r.W..XvXH., # o $ X X . . . ",
"    . . . . . X 9 / G.jXkXnXMXJXOX^.I M ` ;X4XG.S.y.$.K -.v.v.6.r.1.r.0.!.[.!._ q % r - o X X X . . ",
"    . . . . . . & e ( G.jXkXmXmXHXHX^.H { :XjXG.D.y.%.%.-.6.<.1.1.%.%.$.1.:.I z * & _.v X o X : : . ",
"  .   . .   . . X = e V.F.{.kXkXmXKX).K s.7XzXjXG.S.6.>.,.:.>.>.#.+.X.X.+.;.d * & # - - @ o X r r . ",
".   . . . . . . X X 4 d Z.B.{.kXGXPXMXe.p.VXIXjXG.G.b.8.8.l.5.5.+.X.4.b.d.d % # @ e e o # @ o @ o X ",
"  . . . . . . . . X @ 9 l j.B.jXGXPXLXD.Z.CXPXVXlXfXF.4XB.M.c.8.6.w.;.R d f l d - 4 x @ @ o o X X . ",
". . . . . .   . . X o & a F F.V.zXCXSX5XZ.SXAXuXSX6X=X4XB.B.b.6.;.R J C p Z V V W q o # @ : @ X X X ",
". . . . . . $ O . X o & h d ` &Xj.CXSXVXZ.VXZXyXiX6X6X7X5X5Xb.d.=.L L J H H J / q.Z.z % & z & o o X ",
". . . . .   $ o . X o 9 1 7 d g.%X1XDXDXfXrXZXyXiXtXrXVXVX5XZ.p.*.&.*.@.o.O.-.z.m.M.5Xv * @ @ @ o X ",
". . . . . .     . X o % * 1 7 l *X$X2XDXFX7XZXuXtXiXAXSXlXZ.a.3.3.2.@.o.o.;.k.c.n.B.{.Y.8 2 & o o X ",
". . . . . . . . X X @ # % 1 1 5 G ;X#XpXPX8XAXAXSXSXiX3Xj.f.c.k.k.3.3.&.=.a.k.l.z.l.].Y.8 u w o o o ",
". . . . . .   . > & o @ @ & 1 9 < Z @X@XVX2XAXAXeX9X+X#X-X-X%X%Xm.m.B.+Xf.s.s.s.p.&.].! * u w @ o X ",
". . . . . . . . $ ! k = & # & 4 u t C @X>X2XrXpX@X&XeX0X0XqX-X$X;XwX9X-X$Xm.f.f.s.&.].l , k & @ o X ",
". . . . . . . . . - 4 4 9 9 4 4 u C C d.1X1Xh.+XpXSXZXAXZXyXiXwX:X;X$X#X#X#X#X+X*X4XF.h 9 9 & @ o o ",
". . . . . . . . . . . X o o : - 1 0 t T j.] L R 2XCXPXLXLXDXZXyXtX9X-X$X$X$Xm.n.m.B.M.F & % @ @ $ o ",
". . . . . . . . . . . X @ 2 $ # # % , a ] U d.=.] 3XrXDXLXLXZXyXuXuXyXtX;X$X$X#Xn.v.D.d % = # @ @ o ",
". . . . . . . . . . o o @ z 0 # & = , < u h R R } A.=X:XrXPXLXZXtXtXiXuXiX:X;X#X3XjXY.q 1 % % # @ o ",
". . . . . . . . . X X o o 4 z 9 2 & % % 9 7 Z s F Z V.<Xj.f.3XrXrX:X;X:X6XeXeX6XzX| 8 7 u 2 % # @ @ ",
". X . . . . X X X X X o @ @ @ # # % & & * d 9 1 h y a R A.A.*.&.h.j.d.s.p.] ] R =.p * * * * % # = # ",
"X X X X X X X X X o o o @ @ # # # % % % * 9 * * 5 f 3 t Y V.A.=.*.z.z.p.] T O.L J Z 1 1 * l 7 % = @ ",
"X X X X X X o o @ @ @ @ @ @ # # % % % * * , * 4 9 N d , t i G hXZ.@.z.N.n.z.Y J Z p  .| * 0 , # @ @ ",
"X X o o o o @ @ @ @ @ @ # # % % % 1 * * , < , d l N f 6 t t i G fXA.O.+X*Xa.J i A.| u u * , = # # @ ",
"o o o o @ @ @ @ # # # % % % * * , , , < < 5 6 6 i I A i M M N V ( mXC.Z.CX*.B ) ).g * 4 e 2 % # # @ ",
"o @ @ @ @ # # # % % % * * , , < < < 5 7 6 t t i B ~ ^ P P P P I C.(.cXzX_.K ) ).E t 8 9 1 % % % # # ",
"@ @ @ @ # # % * * * , , , < 5 6 t f p p i M B P I W.(.9.~ ~ e.9.0.`.MX.XJ.)..XK.^ E 8 , * * % % # # ",
"@ @ # # % % * * , 5 c 8 7 6 D W I.~ P P I I K %.e.gXnX!.W.i.!.'.nXHXbXvXNXNX.XK.E 7 < < , , * % % # ",
"@ # % % % * < y D _ sXW A A K._ (.w.V.=.V.V.5XjXzXIXJXMXmXmXKXJXNXvXbXBX).J.E D D y 5 < , , * % % % ",
"% = , , 7 a ] U q.e.(.C.e.gXxXzXlX7X7X6X7X3X7X7XVXLXIXCXxXcXnXOX|.|.XXXXP.U._ )  ./ G Z a f u 8 3 , ",
"% , 7 7 s ' Z.T S S U T U } Z.Z.j.j.j.4X*X=X=X=Xj.lXPXVXzXMXMXMXMXcXcX`.w.;.;.;.V.C.A._._._ f u 8 = ",
"# # % % % , s a Z Q / Q Q / I R ( ( q.w.e.'.}._.C.fXhXA.gXcXgXkXjXjXxXgX5X3X3X3X5XgX`.`.I.3 * * % % ",
"% % % % % % * , 5 t S R I I / ( ( T ] T ] V.Z.<X6XVXVX2X8X1X,X,X,X,X1X<Xj.j.h.] T G f y 7 * * % % % ",
"% % % % % % % * * * < t 6 < < < 5 5 y 6 t M C Y -.lXfXR G Z p N p i i i t t y < , * % % % * % % % % "
};
