/* XPM */
static const char *butterfly2[] = {
/* columns rows colors chars-per-pixel */
"50 50 256 2 ",
"   c #01010D",
".  c #010115",
"X  c #01021B",
"o  c #08051E",
"O  c #020223",
"+  c #03022B",
"@  c #0B0726",
"#  c #020234",
"$  c #02023B",
"%  c #0B083B",
"&  c #0A0736",
"*  c #180937",
"=  c #110827",
"-  c #030243",
";  c #02024B",
":  c #0C0848",
">  c #150A48",
",  c #030254",
"<  c #03025C",
"1  c #0C0654",
"2  c #170856",
"3  c #1A1356",
"4  c #240B47",
"5  c #250958",
"6  c #360655",
"7  c #301853",
"8  c #020264",
"9  c #00016B",
"0  c #0B0767",
"q  c #160768",
"w  c #020273",
"e  c #09057A",
"r  c #16087A",
"t  c #1E126D",
"y  c #240668",
"u  c #270577",
"i  c #37047A",
"p  c #3C1776",
"a  c #33116D",
"s  c #4A0C55",
"d  c #52254E",
"f  c #662E5A",
"g  c #461577",
"h  c #4B1172",
"j  c #62077B",
"k  c #4C2375",
"l  c #68065B",
"z  c #01018B",
"x  c #080684",
"c  c #1A0489",
"v  c #050398",
"b  c #160F92",
"n  c #250788",
"m  c #380388",
"M  c #251684",
"N  c #24099B",
"B  c #331496",
"V  c #302D97",
"C  c #0806A7",
"Z  c #160AA9",
"A  c #1713A8",
"S  c #0603B5",
"D  c #190ABA",
"F  c #1A14B7",
"G  c #0A13AF",
"H  c #2A14A6",
"J  c #2709BB",
"K  c #2814BA",
"L  c #350CAF",
"P  c #2D2FB0",
"I  c #142BB5",
"U  c #470387",
"Y  c #460399",
"T  c #55138F",
"R  c #7A0681",
"E  c #6B1398",
"W  c #57278A",
"Q  c #4A2391",
"!  c #6E329C",
"~  c #5012AD",
"^  c #7110AE",
"/  c #5426AF",
"(  c #712EAE",
")  c #5F44AD",
"_  c #0503C5",
"`  c #1707CB",
"'  c #0101D6",
"]  c #1916D6",
"[  c #1410CF",
"{  c #2609C8",
"}  c #2905D3",
"|  c #3806D7",
" . c #3313D1",
".. c #1A36D2",
"X. c #2C2BCD",
"o. c #332CD0",
"O. c #0509E9",
"+. c #1619E7",
"@. c #0708F5",
"#. c #160DF6",
"$. c #0C18F8",
"%. c #1711F3",
"&. c #0D14EA",
"*. c #3706E4",
"=. c #2618E5",
"-. c #2416FB",
";. c #3216F0",
":. c #082BFA",
">. c #1625F7",
",. c #0935F9",
"<. c #1532EE",
"1. c #2626F6",
"2. c #2937F6",
"3. c #382EED",
"4. c #431AC5",
"5. c #5418CA",
"6. c #490AD8",
"7. c #4819D9",
"8. c #4B08C6",
"9. c #6D18D2",
"0. c #4A28D5",
"q. c #4E30CE",
"w. c #732DD3",
"e. c #5B16E4",
"r. c #4E10EB",
"t. c #6619E8",
"y. c #7515EA",
"u. c #6E15F5",
"i. c #512EED",
"p. c #702EED",
"a. c #3150D6",
"s. c #1C4CEB",
"d. c #1449F5",
"f. c #1557F6",
"g. c #0E54F3",
"h. c #3749F4",
"j. c #3857F3",
"k. c #2D52ED",
"l. c #1867F6",
"z. c #156EF7",
"x. c #2966E9",
"c. c #2778F4",
"v. c #2F6FF4",
"b. c #3C7EDF",
"n. c #4650D9",
"m. c #7652D9",
"M. c #524AEB",
"N. c #5757EA",
"B. c #4846F8",
"V. c #4D4BF3",
"C. c #7655E8",
"Z. c #6E49ED",
"A. c #5469F5",
"S. c #4D6CF0",
"D. c #6877F3",
"F. c #6E6FED",
"G. c #7963DF",
"H. c #85198D",
"J. c #96269C",
"K. c #8A0EAC",
"L. c #AC18BC",
"P. c #9427BB",
"I. c #AA2DB7",
"U. c #B352BD",
"Y. c #8F47B6",
"T. c #8A11C9",
"R. c #AA0FD9",
"E. c #872FD5",
"W. c #B634CD",
"Q. c #8C16EB",
"!. c #B818EC",
"~. c #A314E7",
"^. c #9B28E9",
"/. c #8832EF",
"(. c #B134F4",
"). c #CD0DCE",
"_. c #CF2AD2",
"`. c #CF36F0",
"'. c #E61FD9",
"]. c #9D4DD9",
"[. c #AA4FD6",
"{. c #8168DB",
"}. c #904AEE",
"|. c #B448F3",
" X c #AD4FE9",
".X c #926BEB",
"XX c #AC6FE8",
"oX c #BB61C3",
"OX c #CA4DCE",
"+X c #F577D9",
"@X c #D052EF",
"#X c #ED5BF6",
"$X c #D668E5",
"%X c #C76DEB",
"&X c #EC74EE",
"*X c #DF5AD4",
"=X c #1D8FF9",
"-X c #2C90EC",
";X c #2A89F5",
":X c #3692F6",
">X c #31ACF3",
",X c #1BA1FA",
"<X c #4D89F4",
"1X c #6F92F2",
"2X c #4FAEED",
"3X c #75A9F5",
"4X c #6EB1F2",
"5X c #7081DD",
"6X c #39C9F8",
"7X c #32D3F9",
"8X c #3DE9FB",
"9X c #4CD2F7",
"0X c #78D4F6",
"qX c #77ECF4",
"wX c #8B90F1",
"eX c #B492EE",
"rX c #8EA3F5",
"tX c #B1B0F0",
"yX c #B2B1D9",
"uX c #CE8CDC",
"iX c #C79AED",
"pX c #D38AEF",
"aX c #E884EA",
"sX c #EB9AEC",
"dX c #F989F5",
"fX c #F395F1",
"gX c #CFB1EF",
"hX c #F3AAEA",
"jX c #F2BBEC",
"kX c #F9A8F5",
"lX c #F7B9F4",
"zX c #EAB1EE",
"xX c #8DD3F5",
"cX c #B0D0F4",
"vX c #8EECF5",
"bX c #A7E3F2",
"nX c #B8EAF5",
"mX c #B1FAFA",
"MX c #CBC6F6",
"NX c #D8D9F6",
"BX c #CBD2F3",
"VX c #F9C5F4",
"CX c #E9D9F4",
"ZX c #F9D8F7",
"AX c #EDC9EF",
"SX c #C8EBF5",
"DX c #D9E8FB",
"FX c #C7F9FB",
"GX c #D7F4F7",
"HX c #F9E8F8",
"JX c #E9F7F8",
"KX c #FBF3FA",
"LX c #FDFDFD",
"PX c #F7F8F8",
"IX c #F1ECF1",
"UX c #E4D6D6",
/* pixels */
". . . . . . . . X . . . . . . . . . . . . X . . . . . . . . . . X O $ # ; , < < 8 < , ; - $ # + O X ",
". . . . . . X X X X . . . . . . . . . . . . . . . . . . . . X O + # 8 w 9 x z z z z w 9 < ; - # + O ",
". . . . . X X O O + X . . . . X . . . . X @ . . . . . . . X + + $ , e G S _ [ X.q.q.E.w.c 8 ; - # + ",
". . . . X X O + # + X X . . . . . . . . @ 3 . . . . . . X + # - 8 z S +.h.F..XE.p.@X#X#X].e < ; $ + ",
". . . . X O + $ $ 2 1 X X . . . . . . . . . . . . . . X O # - 9 z S 3.eXhXpXE.8.9.].|.$X[.c q , $ + ",
". . . . X + # $ b 1.-.r . X .   . . . . . . . . . . . O + - 9 z I G.XX[.Q.y.5.8.8.e.@X$X~ r q 1 $ # ",
". . . . X + + 0 3.=.%.=.# O k @   . . .           . . + - 8 b n.G.m.9.9.t.t.6.e.y.^.&X].N q , ; $ + ",
". . . X X # + V 3.+.%.-.H + 4 .       .         . X O - w I n.q.8.5.t.e.6.7.7.6.Q.Q.|.].c 0 , - $ + ",
". . . . X + + P >.%.#.;.-.K # . .   .         . X + ; e ..n.L L ~ 6.| { K D D  .p.}.i.D e < - # + + ",
". X . . X O % o.>.=.#.-.%.-.F X X .       . X + $ < b a.n.4.{ { ` ` D S S _ ` =.3.C.o.v w < - < ; O ",
". . X X X X > 3.<.$.$.@.#.#.=.+ X X . . . + $ , w A x.a.M.2.>.%.+.` ` ` ` K A b } r.0.v 9 , x p.0.- ",
". . X . O X 2 3.<.:.>.$.@.@.#.D % O O X + - 8 z F -Xb.N.A.2.1.1.%.[ Z x r x z Z i.Z.q.v x - 8 4.H # ",
". . . . X . 2 V.x.d.>.>.1.@.' @.D # + 1 < w C X.-X2XD.A.M.N.i.=.C x e z Z F ` *.i.Z.A z e # + + X . ",
". . . . O . 5 M.x.d.<.2.1.2.2.[ ' D 8 Q N Z 0.S.<XD.D.V.V.h...G [ ] +.] ` } } | r.u./ < # + O . . . ",
". . . . X X 5 i.f.f.s.2.2.h.B.i.[ _ _ C Z 0.X.n.A.S.j.v.l.f.f.+.$.] ` D ` D J  ./.}.r - + X . . . . ",
". . . . X O 5 i.c.l.d.A.j.h.h.i.p.] ' &.7.o.S.<X:X;X;Xc.f.g...] _ [ S _ ` { { | }.C.r - O . . . . . ",
". . . . X O 4 t.v.c.s.h.j.h.B.B.i.i.+.i.w.wX3X1X:Xz.l.l.g.d.&.O.O.O.O.@.#.e.r.*.Z.m.e - + X . . . . ",
". . . . X + > y.j.x.f.d.j.B.B.B.B.A.C.t.MXtX3X1X<X;Xz.c.x.l.f.:.:.$.@.@.=.} } { p.}.M $ + X . . . . ",
"X . @ @ X # ; 9.M.v.S.<XS.<X<XA.S.wX/.eXPXMXrX3X:X=X=Xc.;X;Xl.d.<.+.] ] ] ] [ ] /. Xr - O X . . . . ",
"X . h h O $ ; / Z.tXtX4X:X>X6X<X3X.XXXKXHXPXxX>X,X>X-X:X:Xc.x.x.s.<.,.,.,.+.e.B.D.q.w - + X . . . . ",
"X . + + + - < P }.gXHXBX9X>X9X9XeX XCXZXCXFXvX7X9X>X;X-Xc.;X;Xd.,.,.:.:.&.=.p.}..XS M 1 + X . . . . ",
"o d * O + - w P .XiXCXKXGX0X8XvX$XcXBXDXFXmXFXvX>X=X>X,X,X:Xd.j.k.,.,.,.2.V.p.@Xm.v q : O X . . . . ",
"X d f + # - 8 H wXiXDXJXLXJXmXaXiXqXvXmXFXFXnXbX9X8X6X>X>Xv.S.A.A.j.<.2.}.|.@X%XF w ; $ O X X . . . ",
"X X 7 7 # t B n 5XeXcXGXJXPXZX$XSXnXxXxXmXvXqXqX8X7X6X6X>X;X:Xv.D.yXrX1XtXiX%Xw.N q 1 # + X X X . . ",
"X O + s 7 q n m m.tXcXSXJXLXaXzXDXDXnXxXvXqXvXFXvX8X7X>X>X2X4XwXXXeXrXwX5. .4.5.w.! 1 # + O X X X . ",
"X + # - k a i Y ( tXcXSXLXZXaXHXIXNXSXnXGXGXnXnXbXvXbXSXJXGXG.w.w.4.f.s.H c b N / w.2 $ & + X X . . ",
"X + $ ; q T E ^ K.uXCXJXLXjXjXHXCXSXGXLXJXNXMXcXvXmXmXIXUXrX1XD.A.0.o.0.L A A H  .i.k # # + + X X . ",
"O + - < r Y W._.'.&XAXHXHXhXZXPXDXJXIXCXgXgXcXvX0X3X4X1XF.D.F.N.M.V.3.=.X.[ F Z ` t.w.2 # # + + + X ",
"# : 2 u ~ T.@XfXdXsXZXZXIXsXhXCXCXCXAXlXgXMXBXMXgXtXxX4X4X4X1X1X1XF.N.M.0.[ J J J | t.3 8 G w - + O ",
"% - q r B ^ !.dXZXfXiXpXjXhX&XdXZXKXZXHXHXHXZXCXMXMXMXNXNXBXtXgXgXiXF.A.0.+.1.=.=.3.V < ..3Xs.v # O ",
"X # ; 0 c Y T.`.#X$X7.}.]. X(.@XAXLXLXLXLXKXZXHXKXLXLXLXKXKXNXAXuXuX{.A.q.=.;.r.u.p.3 0 ..3Xs.x # O ",
"X + # ; 0 n Y K.`.XXC.i.0.*.*.7.C..XiXZXKXLXKXLXLXLXLXKXKXHXZXjX+X+X[.9.;.;.r.u.u.E.> $ 9 G w - + O ",
". X + $ , q m Y ^ E.}.p.Z.S.n.3. .6.p.p.pXVXHXKXHXIXHXHXZXVXkXdX&XpX$X).~.y.u.u.Q.3 ; x $ - + + O . ",
". X O # - , q u U ( 9.9.E.{.C.Z.N. .| *.Z.%XaXZXLXHXZXVXZXlXdXfXpX*XR.R.~.Q.~.^ 5 $ % $ # + O O X . ",
". . X O $ - ; 1 y Q i g U ~ ^ ^ ].eX%X|.(.|.|.@XAXLXZXkXsXpXdXsXXX_.R.~.^.}./ $ $ + + O O X X . . . ",
". . X O O + # - 1 2 2 2 2 y B i Y P.*XfXdXdXfXsXjXKXKXZXVXgXpX`.).'.'.!.(.( 1 % % O X X . . . . . . ",
". . . . + 2 + # $ $ - ; - 1 q 1 q i ^ L.K.^.sXVXAXIXPXPXHXfX'.'.'.+X*X+X( 0 - + X X .   . . . . . . ",
". . . . & B + X O + + # # # # $ 1 1 q u y n /.XXw.%XlXzXVXVXlXVXaXW.^ Q 0 2 # + O . d f . . . . . . ",
". . . . . .   7 4 X O O + + # # $ - ; 0 M 0 K q.U E K.I.&XVXOXzX[.i 1 ; - $ # O X . d f . . . . . . ",
". . . . . . . = @ . O + O O + + $ - - N 4.0 M V i j R R I.OXR H.R 5 u 1 # # O O + . . . . X . . . . ",
". . . . . . . . .   : V + X + # # $ - ; < e H P c U j j J.J.l l 6 5 - $ # + + g Y.> X . . X . . . . ",
". . . . . X . . X X X + O O + # # 2 P.( x v n.X.Z N m h E H.s 6 4 : $ $ # + O a ! : X . X X . . . . ",
". . . . . . . . X . X O O + $ 1 , r L H / } 3.M.6.8.~ Y ^ J.s 6 > - $ # # + X . X . . . . . X X . . ",
". . X O O + + + + + X 4 4 + ; E v v S ` *.#.f.wX(.!.!.R.W.W.K.j 2 2 $ # # O + O @ O X X X .   . . . ",
". . + # % : : t M V V V V V P o.a.a.j.S.1X4XbXGXAX&X#X#X&XsX_.I.E Q p k g k W T g p a y 3 > & & & @ ",
". X O O O @ % M M M B Q / ( w.]. X@X$X$XjXlXVXZXKXCXhXkXkXfXdX$XoXoXU.U.W.I.I.L.K.h a 5 5 2 > > > & ",
". + & % : : > 3 3 3 3 t H K  .7.t.e.t.u.u.Q.(.`.fX&X@X@X`.`.(.^.Q.y.t.e.7.K N M t : % & o   .       ",
". . .       . @ = * * 4 6 a g h h p p g Q W W ! oXY.( Y.! ! a ; $ $ # # # # + # @ O o * 4 * & o . . ",
". . . . X X X . . . X . . . . X . . X + : 1 q u ~ ~ T.!.R.R.T.^ E T a 4 @ . . . . . . . . . . . . . ",
". . . @ . . . . X . . . X X X X X O # - 8 e x b L L L N L Y Y m m m u y 2 # X . . X . . . . . . . . "
};
