/* XPM */
static const char *butterfly3[] = {
/* columns rows colors chars-per-pixel */
"50 50 256 2 ",
"   c #000001",
".  c #02020B",
"X  c #0A040B",
"o  c #08090C",
"O  c #020213",
"+  c #0B0514",
"@  c #0B0917",
"#  c #03031B",
"$  c #0B061C",
"%  c #130A17",
"&  c #10141D",
"*  c #030323",
"=  c #0C0A22",
"-  c #03032B",
";  c #0B0828",
":  c #130923",
">  c #130D2C",
",  c #0C1527",
"<  c #16132E",
"1  c #030234",
"2  c #0A0837",
"3  c #03033C",
"4  c #160C37",
"5  c #161436",
"6  c #271431",
"7  c #0F2630",
"8  c #030343",
"9  c #0B0846",
"0  c #01014B",
"q  c #150A48",
"w  c #0D144A",
"e  c #171546",
"r  c #040353",
"t  c #0A0856",
"y  c #03025C",
"u  c #170A58",
"i  c #0D155C",
"p  c #181856",
"a  c #2D164C",
"s  c #272351",
"d  c #0A0867",
"f  c #04046B",
"g  c #160A67",
"h  c #1B1766",
"j  c #080577",
"k  c #150775",
"l  c #0D1071",
"z  c #181477",
"x  c #2D0F71",
"c  c #142662",
"v  c #2C297B",
"b  c #482953",
"n  c #591077",
"m  c #482D6F",
"M  c #552064",
"N  c #1B4C70",
"B  c #070687",
"V  c #190986",
"C  c #151489",
"Z  c #070696",
"A  c #190B92",
"S  c #0E1792",
"D  c #161695",
"F  c #210A8A",
"G  c #3A0886",
"H  c #281789",
"J  c #351688",
"K  c #24069A",
"L  c #291597",
"P  c #351B96",
"I  c #1F2584",
"U  c #2F2B89",
"Y  c #0A07AB",
"T  c #1607A9",
"R  c #191AA6",
"E  c #0D07B7",
"W  c #1819B6",
"Q  c #2B1AA7",
"!  c #3012AA",
"~  c #2809B6",
"^  c #2518B7",
"/  c #1C29B4",
"(  c #2A26A7",
")  c #2F29B6",
"_  c #4F1595",
"`  c #6B1391",
"'  c #512E96",
"]  c #632A8D",
"[  c #4F18AE",
"{  c #6E13B1",
"}  c #4F2BAF",
"|  c #6528B4",
" . c #6537BD",
".. c #554ABA",
"X. c #130CCB",
"o. c #2806C8",
"O. c #2517CA",
"+. c #3316C9",
"@. c #2B12D8",
"#. c #192ACE",
"$. c #2B30CE",
"%. c #2A24D8",
"&. c #1113EC",
"*. c #360FE9",
"=. c #2C1DF4",
"-. c #172FEE",
";. c #352FEF",
":. c #2837E9",
">. c #2537F5",
",. c #5312CD",
"<. c #750ED1",
"1. c #512CCF",
"2. c #6D35D3",
"3. c #5112ED",
"4. c #6B0DEE",
"5. c #492AEA",
"6. c #522DEF",
"7. c #7633EF",
"8. c #2F4BCC",
"9. c #1A47F4",
"0. c #1751F6",
"q. c #2A47E7",
"w. c #334DF1",
"e. c #2657F4",
"r. c #3856F5",
"t. c #1976F7",
"y. c #3270F2",
"u. c #4B4ED1",
"i. c #6F4DD1",
"p. c #5560DD",
"a. c #726BD7",
"s. c #4547ED",
"d. c #5255EC",
"f. c #4859F2",
"g. c #6C47E9",
"h. c #6B51ED",
"j. c #4D6BEC",
"k. c #4C70EE",
"l. c #5865F6",
"z. c #6B66E6",
"x. c #6D75EF",
"c. c #832991",
"v. c #9310BC",
"b. c #8428B7",
"n. c #8652B8",
"m. c #C158BF",
"M. c #9101D6",
"N. c #BA17CF",
"B. c #8634C7",
"V. c #A428D0",
"C. c #9216E9",
"Z. c #B90AF5",
"A. c #8D33EC",
"S. c #AC38EC",
"D. c #D822DE",
"F. c #CE1DEB",
"G. c #CA35F1",
"H. c #EC2AEB",
"J. c #914BCD",
"K. c #A454DC",
"L. c #8D69D8",
"P. c #944AE8",
"I. c #904EEF",
"U. c #B054EA",
"Y. c #8E73ED",
"T. c #BD68E4",
"R. c #AF71EF",
"E. c #D473CF",
"W. c #E164CE",
"Q. c #C853ED",
"!. c #EE53EE",
"~. c #F24BF2",
"^. c #D06FEC",
"/. c #C876F4",
"(. c #F07BF5",
"). c #338EF3",
"_. c #36AEF4",
"`. c #5988EC",
"'. c #5B99ED",
"]. c #4989F3",
"[. c #4D97F4",
"{. c #5698F5",
"}. c #6488E9",
"|. c #7784EC",
" X c #6D94EF",
".X c #4CAEEF",
"XX c #5CACF6",
"oX c #6FB0EC",
"OX c #66A6F7",
"+X c #7CA4F6",
"@X c #77B7F4",
"#X c #32CAF6",
"$X c #52D0F6",
"%X c #76C7F5",
"&X c #60D8F6",
"*X c #75D8F5",
"=X c #70E9F7",
"-X c #A28BDD",
";X c #898AEA",
":X c #9094EB",
">X c #AB99EA",
",X c #B089F0",
"<X c #A997F1",
"1X c #8EAFEF",
"2X c #98B7F7",
"3X c #ADAFF0",
"4X c #B4B8F4",
"5X c #DB9BD2",
"6X c #CC91F1",
"7X c #D999F6",
"8X c #EF92EA",
"9X c #F488F3",
"0X c #E798F6",
"qX c #F396F2",
"wX c #CCB7EF",
"eX c #C6A9F4",
"rX c #DAA9F2",
"tX c #D6B9F4",
"yX c #EFACEB",
"uX c #EBAAF6",
"iX c #E5B8F6",
"pX c #F4B8F7",
"aX c #92C8F3",
"sX c #87DAF6",
"dX c #98D6F4",
"fX c #A4C6ED",
"gX c #B6C3F5",
"hX c #B1CBF0",
"jX c #A7D6F5",
"kX c #B5D9F5",
"lX c #8AE8F9",
"zX c #97E8F5",
"xX c #A6EBF8",
"cX c #B5E7F4",
"vX c #A9F5F8",
"bX c #B8F5F8",
"nX c #D1CDEC",
"mX c #C7C8F4",
"MX c #DAC3F5",
"NX c #C4D4F6",
"BX c #E7C6EC",
"VX c #F0CDEE",
"CX c #F3D5EE",
"ZX c #E7CAF6",
"AX c #F5C9F5",
"SX c #EAD9F5",
"DX c #F6D9F4",
"FX c #C8E8F8",
"GX c #D9E8F7",
"HX c #C4F7F8",
"JX c #DAFAFA",
"KX c #F3E1E6",
"LX c #E8E7F5",
"PX c #F6E6F6",
"IX c #E9F7F9",
"UX c #F8F7F9",
/* pixels */
"                                                                                                    ",
"                                                                        . . . O . . .               ",
"                                                                    . O 1 3 8 0 r 8 * O .           ",
"                                                                  O - r F K T Y W D r - O + .       ",
"                                                              . * 0 k | R.R.I.Y.|.$.j 8 * = .       ",
"                              . # * > . o               . . # 3 k [ R.ZXUXUXJXhXj.&.Z 0 * .         ",
"                            # r A D D i N * O . $ + O # * 1 y L J.tXUXIXJXHXvXzX'.:.Z 0 * .         ",
"                          # g  .>XY.O.S H ` u 1 1 1 3 8 r j } ,XBXIXHXbXvXxXzXdXaX8.B 0 # .         ",
"                        . u L.BXLXNXx.) K B.P f y f f j A i.>XwXGXcXdXdXjXfX2X4X;X/ C d O .         ",
"                        2 n.tXGXmXmXx.u.L A H j j Z E ^ i.L.3XmX4XdXsXsX@X}.l.h.) C W U * .         ",
"                      O ' >XcXfXjXcX;Xz.i.[ K K ~ o.*.2.i.:X1X1XaXlXlXlXdXx.z.1.j y t h p .   %     ",
"                      e L.2XaXaXkXNXNXLXSXS.4.4.4.4.P.L.|. X`.OX%XvXvXzXsXx.6.,.V r - - < .         ",
"                    . U z.1XfX4XgXmXGXUXAXQ.Q.F.Z.G.L.z.s.r.k.{.%XFXcX&X$X1X6X^.| 0 a c.b           ",
"                  . - i.x.@X+X1X4XmXGXIXPXAXpX~.H.^.i.@.=.>.k.`.].XXXX[.}.Y.U.S.B.0 4 b.b           ",
"                . * h a.oXOXOX1XmXNXFXFXJXUXDX(.^.J.,.*.=.5.g.d.9.y.].k.f.;.6.I. .0 O + o . X       ",
"                . 9 H z.%X{.'.1X2XfXkXNXLXUXDX0XS.| ! O.5.3.3.;.>.r.].k.w.w.Y.,X} 0 .               ",
"        o       O 3 P z.].f.j.l.+X2X4XMXSXUXPXT._ D W 5.3.3.*.=.>.w.k.f.d.x.>XA.+.t .               ",
"                O 8 P d.w.;.3.3.:X3XeXiXAXPXeX[ C #.%.,.o.+.@.&.>.e.y.y.>.r.:Xh.~ u +     X X       ",
"                O 8 Q 6.=.5.4.4.R.6X0XpXAXMX2.S $.%.o.~ O.%.&.&.e.)._.).>.=.x.3X} C 9               ",
"  . $ .   o     O 0 ) 6.=.6.4.C.U.0X0XuXAXY.X./ q.&.&.&.$.:.-.-.e.y.e.:.:.r.:X5X5Xi.d .             ",
"  . + o . o . . * 0 ( p.;.5.4.A.U.^.7XuXeX5.&.y.9.-.-.q.k.e.9.9.e.y.w.:.W u.gXW.m.) f .   o         ",
"    .   . O * - 3 y ( i.u.s.6.I././.7XMX;Xw.y.[.t.0.e.).t.e.y.e.q.:.&.T K 2.nXE.[ B g .             ",
"      . # * 1 0 f j R 2.u.d.g.I.R./.iXmX'.[.XX.Xt.t..X$X_.).e.-.=.=.1.A ! i.>X2.B d u .   X .       ",
"    @ $ * 8 0 y j Z o.g.g.:XY.I.R.7XSX4X].[.*X$X#X#X.X).).y.w.;.5.,.L P u. Xu.Y f r 1 .             ",
"    % = * t h k F ~ ,.I.Y.3X,XR.6XZXSX<X[.XX*X$X$X#X_._._.y.r.;.) ( ..a.;X:Xp.$.Y B d - $           ",
"    . * 2 1 ' [ [ ,.<.A.,XeXeXrXuXPXZX<XoX%X*X*X=X&X&X$X.X].p.u.u.a.a... .} i.P.P.z.u.H m +         ",
"    % : 2 - u ' { { M.Z.^.iXpXpXAXPXtX3XzXzXxXbXxXlX=X=X*XOX}.`.j.} C H k d V [ V.^.K.2.z O         ",
"    6 b a q d u J { N.H.~.uXAXDXDXPXtXNXHXbXHXFXbXvXvXcXjXoX}.f.d.a.5.*.*.1.L A [ T.A.+.C w         ",
"        . X ; 9 g _ V.H.~.yXDXPXUXDXyXGXIXIXFXHXHXGXSXnX1X'.j.f.h.d.;.;.6.6.5.+.1.U.U.+.S c . O     ",
"            . # 3 h _ N.!.9XCXUXUXPX8XLXUXLXIXIXGXnXkXlX$X).}.j.f.f.l.l.l.l.h.7.3.A.7.Y f 1 . .   . ",
"            . . * 3 x v.F.!.yXKXUXUXVXDXPXCXUXLXLXbX=X$XXX1X1X+X+X:X|.x.;XY.g.I.7.T.g.E j 3 * . .   ",
"      o & o . . ; 2 h v.F.G.rXVXPXUXDXVXCXPXUXPXLXkXjXxXxXhXhX4XgXtXR.R./././.U.3.I.,XO.B 9 5 . + . ",
"      o b s 5 e p p h _ <.A.,X>XeXAXyXyXCXUXDXCXSXGXHXvXcXmXeXwXtX0X(.(.9X(.(.^.I.R.x.:.D l ;   @ . ",
"      .     X O # - 9 j T *.7.;X3X6X^.wXSXPXDXIXIXGXFXkXgXeXqX9X0XqXqXqXrXtXMXZXwXY.>.&.#.B 1 . O . ",
"    . o         . $ h V j E &.5.+XoX@XoX1XvXJXHXbXcXlX*XXX+X7X9X9XqX6X7XAXDXUXIXkX X9.-.#.Z 3 O O   ",
"                + # * 3 r B X.-. XXX'..XoXsXzXvX*XsXjX@XOX X<XuXpXAXtX<XeXiXgX2X1X$X_.y.9./ 9 - -   ",
"                > ; * - f Y Z X.w.q.:.f.q.k.}.1XdX@XmXtXuX8X(.8XAXPXPXpX^.R.:X}.k.k.k.|.r.8.i # : 6 ",
"      .         . O # * 9 d f Z / X.%.%.%.%.$.i.-X:X6XDXpX9X8X8XyXAXSXyXG.S.Y.;Xd.s.6.h.y.q.( p : + ",
"                  . # # - 1 8 y C j Q Z A Q Q } | 1.4.R.0X8XVXAXqXyX/.Y.P.A.g.}.:.O.) Q Q ^ W S i - ",
"                  & + . O # * 9 c 8 t d y x x f P L ~ 3.M.D.W.T.Q.U.2.O.~ ~ ~ ) / D d F C f C D i O ",
"        .       o b 6     % = # # O ; 2 1 9 r r x J k V G n ` b.1.1.O.W B f f f V ( d d l f B R w   ",
"        .         @     . < m @ . . < = # w h r v v 8 3 1 2 x b.2.T S R B y r d ' B.x u v l E X.p   ",
"        . .               o 6 . . O X X . 5 p 3 v h * O O > n E.^.[ k d d y y J J.{ x h U R T l #   ",
"            .               .     . . o . . + O # O + X   . : M ] u 8 8 g J _ 2.B.{ J z U 9 3 - .   ",
"                .                 .   . . . + <               > > * 4 x n.K.B. .} ' L W 8.p # O .   ",
"          . . . .   X .     . X + = + * 2 2 2 5 5 = : $ # $ : a 6 < a ] 2.1.~ d 8 9 u D q.8.;       ",
"          . X . . . . 2 i h v I z z z l z g 9 = , p e 5 > < : = 5 p h 2 r f y * O * 2 R W S 2       ",
"            X       w W -.#./ R d y y r q > : $ : e $ + > e = = , , p ; . . . $ 4 z C k t 2 .       ",
"                  . t C D R D C V L J q $                 .   . ; * q q ; $ : 4 4 4 ; O , ,         ",
"                    # * # O - 8 9 g u q O . .                 : u t 2 + .       . $     & 7         "
};
