/* XPM */
static const char *butterfly3_right[] = {
/* columns rows colors chars-per-pixel */
"50 50 256 2 ",
"   c #000000",
".  c #02020B",
"X  c #0B0B0C",
"o  c #090609",
"O  c #020213",
"+  c #01011C",
"@  c #0A0917",
"#  c #191718",
"$  c #1B0F1D",
"%  c #020223",
"&  c #03022C",
"*  c #0B0928",
"=  c #030234",
"-  c #02023B",
";  c #0A0637",
":  c #181238",
">  c #131029",
",  c #29242E",
"<  c #251B2C",
"1  c #030243",
"2  c #03034B",
"3  c #0B0647",
"4  c #160549",
"5  c #020253",
"6  c #0A0353",
"7  c #01025A",
"8  c #09065B",
"9  c #160458",
"0  c #18134E",
"q  c #251754",
"w  c #2B0D54",
"e  c #040363",
"r  c #01036A",
"t  c #060A6A",
"y  c #180765",
"u  c #18156C",
"i  c #020C7C",
"p  c #040776",
"a  c #190679",
"s  c #091376",
"d  c #021166",
"f  c #250877",
"g  c #2F1370",
"h  c #19296E",
"j  c #32286F",
"k  c #2F2650",
"l  c #452C4D",
"z  c #460E7A",
"x  c #542571",
"c  c #6C426A",
"v  c #071587",
"b  c #0F0F91",
"n  c #38198B",
"m  c #2C128C",
"M  c #17248F",
"N  c #2A2A8C",
"B  c #3B269A",
"V  c #2B298E",
"C  c #0818A7",
"Z  c #0A1AB4",
"A  c #1811AE",
"S  c #2D15B3",
"D  c #0F28AE",
"F  c #3031B0",
"G  c #44108E",
"H  c #452583",
"J  c #55259D",
"K  c #523392",
"L  c #672C97",
"P  c #4D15AB",
"I  c #4F30AE",
"U  c #6935B2",
"Y  c #631D99",
"T  c #304CB3",
"R  c #2A63B1",
"E  c #164DB4",
"W  c #4F4D99",
"Q  c #654494",
"!  c #5350B6",
"~  c #6E44B0",
"^  c #4A69B9",
"/  c #102CD2",
"(  c #3231CC",
")  c #0A39EE",
"_  c #3938EC",
"`  c #2E3CF3",
"'  c #0D1AC8",
"]  c #502ACD",
"[  c #722ECF",
"{  c #5839E7",
"}  c #4C3AEE",
"|  c #6E39E3",
" . c #164DD6",
".. c #2F57D1",
"X. c #306FCD",
"o. c #1753EC",
"O. c #2847EC",
"+. c #384BE7",
"@. c #3756EA",
"#. c #2647F7",
"$. c #3A45F3",
"%. c #2858F9",
"&. c #3755F7",
"*. c #2B52EF",
"=. c #196AF9",
"-. c #2963F8",
";. c #3866F9",
":. c #2A79FA",
">. c #3978FA",
",. c #3365E8",
"<. c #1A65C2",
"1. c #4D4FCB",
"2. c #7B44C7",
"3. c #715CDA",
"4. c #7048D4",
"5. c #436CD6",
"6. c #6B6BCD",
"7. c #4B52E6",
"8. c #4946F5",
"9. c #5848F8",
"0. c #4656F7",
"q. c #5756F8",
"w. c #4F48EA",
"e. c #6949E7",
"r. c #7A4BE9",
"t. c #7559EB",
"y. c #7648F3",
"u. c #6654F4",
"i. c #7758F6",
"p. c #6954EE",
"a. c #4668EA",
"s. c #556AE8",
"d. c #567DE9",
"f. c #4867F8",
"g. c #5669F7",
"h. c #4578F8",
"j. c #517AF3",
"k. c #6767F7",
"l. c #7679F5",
"z. c #7272EA",
"x. c #8953B5",
"c. c #8665AD",
"v. c #9F36D9",
"b. c #8A4ECE",
"n. c #B556D8",
"m. c #9366CF",
"M. c #B06BD5",
"N. c #8758F7",
"B. c #8751F1",
"V. c #BD52E6",
"C. c #9563EC",
"Z. c #8866F5",
"A. c #9579F5",
"S. c #9273F1",
"D. c #B875EB",
"F. c #AF73F1",
"G. c #C354EA",
"H. c #CC78EB",
"J. c #CE73F3",
"K. c #C37DDD",
"L. c #298ABF",
"P. c #3C95ED",
"I. c #2788FB",
"U. c #3787F9",
"Y. c #2F98F7",
"T. c #3C96F6",
"R. c #3587ED",
"E. c #32ABFA",
"W. c #1D98E6",
"Q. c #4C8CCE",
"!. c #6A90D3",
"~. c #4894EC",
"^. c #4689F9",
"/. c #4797F7",
"(. c #5495F8",
"). c #5588F2",
"_. c #7B85E7",
"`. c #638CF7",
"'. c #7697F6",
"]. c #6C92EF",
"[. c #47A8F9",
"{. c #58A8F9",
"}. c #47B7F9",
"|. c #57B6F6",
" X c #55BAEE",
".X c #69A7EC",
"XX c #66AAFA",
"oX c #77A8F6",
"OX c #66BAF9",
"+X c #77B5F7",
"@X c #6CB7EB",
"#X c #50A7DC",
"$X c #3BC9F6",
"%X c #3AF0F4",
"&X c #49C7F8",
"*X c #55C8F9",
"=X c #4BD6F9",
"-X c #5CD6F9",
";X c #4FCBEE",
":X c #67C7F9",
">X c #77C5F8",
",X c #68D6F6",
"<X c #7AD1F2",
"1X c #57E9F7",
"2X c #59F8FB",
"3X c #4DEBF3",
"4X c #67E4F5",
"5X c #77E8FA",
"6X c #78F5FA",
"7X c #6BF2F3",
"8X c #898FC4",
"9X c #9896F3",
"0X c #9090F1",
"qX c #A385F7",
"wX c #B686F2",
"eX c #A797F2",
"rX c #B08EED",
"tX c #88A6F5",
"yX c #87B5F7",
"uX c #9BB7F3",
"iX c #8FB6EC",
"pX c #A8B8F4",
"aX c #BCB6F6",
"sX c #ABAEF3",
"dX c #CC91EE",
"fX c #E399F3",
"gX c #C7A8F4",
"hX c #D4B0F1",
"jX c #F0B3F6",
"kX c #C591DC",
"lX c #96C1E9",
"zX c #89CAF8",
"xX c #96DAF5",
"cX c #8CD0F2",
"vX c #A7D8F5",
"bX c #B0CAF2",
"nX c #86E8F6",
"mX c #93EBF8",
"MX c #87F6F9",
"NX c #95F9FA",
"BX c #8EE9EC",
"VX c #B7E7F4",
"CX c #A6F8F7",
"ZX c #B2F1F6",
"AX c #C9D9F3",
"SX c #DDD9F4",
"DX c #D3C7F1",
"FX c #EACBF1",
"GX c #E6D7F4",
"HX c #F7CBF6",
"JX c #C8F9F7",
"KX c #D0EFF6",
"LX c #F8E4F7",
"PX c #E9FAF9",
"IX c #F9F9FB",
"UX c #E7E2F8",
/* pixels */
"                                                              O & 2 r N ! !.!...C r q $             ",
"                                                        . O % 1 e N 8XlXcXBXBXvX/ C K l o           ",
"                                                . * % % & - 7 N 8XbXiXcXvX1X1X@X/ C t %             ",
"                                                l c.y 2 5 a c.DXuX.XxXJX2X%X;X .C i 2 +             ",
"                                              O 4 j e s ~ kXaXoX>XNXCXNX1X;X..Z v e - O             ",
"                                            . & 1 e n M.fXsXoX,X2X2XNXJXnX.X/ M p 2 % .             ",
"                                          O & - 6 ~ D.D.9X+X1X7X6X2X6X4X,X@.C i 7 - + .             ",
"                                        O : 3 y b.H.S.A.yX1X2X7X7X3X3X3X|./ v r 2 & + .             ",
"                                    . + = 2 H n.J.qXA.0X,X-X4X=X$X=X=XnX.X .s r 2 & + O   @ X       ",
"                                  . + = 6 K J.J.C.Z.S.+X,X,X;X&X<XxXvXDXpX..i e 5 1 - = & : ; & + . ",
"                                . O & 2 Q fXD.N.N.Z.'.+X|.}.}.xXAXPXFXjXhXF v r 7 7 7 r p M b p e - ",
"                                O % - K dXD.B.N.N.l.'.~.T.[.OXzXlXSXgXlX!.b s s M E R Q.#XiXQ.,.' v ",
"                            @ O + & H F.C.y.N.B.i.d.>.:.^./.{.+XvXlX}.;XT F ..,.R.[.-X6XNXPXCXZXyX/ ",
"                          . > % & j F.Z.y.y.y.N.q.%.%.-.>.>.XXyX|.E.+XbXs.f.>.^.{.|.*X&X$X>X|.&X3X .",
"                        O + & & g C.Z.u.y.y.y.p.@.#.%.%.-.h.~.I.:.+XKXbXj.).(.(.^.^.~.P.I.{.P.E.W.Z ",
"                      O % & - 0 r.i.p.9.9.{ e.8.$.#.#.%.,.=.=.>.cXNXNXAX].j.h.h.h.h.>.U.I.[.E.W.C i ",
"                    o + & - 3 2.i.p.9.} } { 8.$.` $.+. .) -.XX5X2X1XMXPXtXg.f.;.;.h.^.&X*X$X<.v p 7 ",
"                    O % ; 6 U N.p.u.9.} } w.$.8.w.+.) #.^.*X1X=X*X5XmXKX9X0.&.@.;.;./.*X4XE i d 7 - ",
"                  O % ; 6 J C.t.p.q.9.w._ _ 8.u.w._ g.{.&X-X:X:XnXCXCXPX0X0.@.*.%.>./.:XR i d 5 - % ",
"              X O % ; 9 n C.z.s.q.q.q.7.` 9.i.{ w.]./.[.:XlX:X,XMXmXMXpXg.0.@.O.%.R.[.Q.i 7 2 - % . ",
"              . + = 9 f b.0Xs.a.f.g.g.0.9.B.| 7.[.I.^.|.OXOX*X*X*X:XbXk.0.0.+.O.-.I.X.s t 2 = % .   ",
"              . & 3 f J rXz.d.h.f.s.d.k.r.4.@.E.U.>././.|.*X:X|.OXOXaXl.q.0.@.#.=.<.8 8 2 & +       ",
"              O - y n m.0Xd.`.j.;.a.u.y.7.=.Y.>.>./././.|.|.OX>XzXyXDXFXl.f.;.-.Y.h 6 2 & + .       ",
"          X @ % 1 g U S.]..X`.g.;.i.B.a.=.U.>.>.[.T.>.^.(.XX>XzXbXGXHXrXk.f.;.:.Y.L.5 - % @         ",
"            o & 6 K b.].@X+X`.;.t.C.~.=.U.>.:.U.:.:.^.(.{.XX>XvXUXLXrXu.f.;.-.%.T.R u = O           ",
"              = 9 ~ t.<X<XXX).q.0X|.T.T.U.-.,.=.:.U./.XX+X+XuXgXhXwXt.q.&.&.%.>.^ 7 1 % .           ",
"              ; y 2.oXBX:X{.s._.:X{.[.^.;.,.%.-.>.h.).oXsXsXwXJ.J.A.q.0.&.#.o.P.N 5 1 % O           ",
"  #         . ; g 3.vXBX&X].].,X{.{.(.;.,.;.;.;.;.h.'.sXgXhXHXLXHXqXq.$.` ` :.~.M 5 1 % O     #     ",
"  c l       O 3 n l.VX:XoXiX,XOXXX(.h.a.;.;.>.>.^.XXyXpXaXjXHXLXIXeX_ ` O.R.X.M r 5 - % O           ",
"    , , X   + 9 K tXVX'.aXnX:X+XXX`.d.h.U.^.(.|.:X>XyXtXgXjXjXFXgX9.$.O.P.R r s W u 3 % O           ",
"      @ , , = f ! vXpXsXCX5XcXuXyXoX{.{.{.|.*X:XOXXX'.0XdXdXwXF.t._ +.~.L.p r M W t 1 % .           ",
"    . + ; q j m b.AXpXKXCX5XxXVXcXOXOX:X:X,X:XOX+X'.l.A.F.C.B.C.p.a.).5.D Z Z i 5 8 0 + .           ",
"      % 4 y H I C.UXAXPXCXmXNXmX<X:XnX5X6X6XnXpXeXS.A.eXaXDXeXl._.j.s...,./ v 2 1 - & + .           ",
"      % 4 g J 2.F.IXPXJXJXZXCXNXmXMXMXNXmXxXuXtXoX>XnXNXJXJXKXl.g.z.1.T M t 1 - = q ; .             ",
"      % 9 n U m.dXIXIXPXPXJXJXJXKXVXvXxX<X-X1X1X3X6XZX4X-XcX_.g.1.m b a e 1 = % % l :               ",
"      + 9 J m.kXFXIXIXIXPXIXPXKXVXxX<X,X-X*X&X}.E.[..X X@Xg.&.F b b b e 6 = % + O .                 ",
"      . 3 J b.M.jXHXIXIXGXDXbXuXtXtX].).).h.,.,.o...+._ $.O.( S S S B g 1 % + @ . .                 ",
"        % 9 z G x.J.fXLXLXGXSXAXpXtXtXl.+./ ' Z A A A A ( { y.r.e.4.~ j - % O O   .                 ",
"        . & 4 w z b.V.J.jXhXrXgXSXGXAXPXPXuX].+.( S S P ] | [ U P G f 6 - & + O . . .   % +         ",
"          . % ; w g L Y v.G.K.U 3.qXqXrXhXsXbX9Xk.9.{ | 4.[ [ 2.m.b.n y 6 ; % O O . . : K ;         ",
"            . + * ; j g w v.G.M.H n e.k.p.e.3._.eXqXF.D.H.hXFXSXbXVX6.a y 1 & % + & h 0 k O         ",
"                . O : q ; j L V.D.j 9 B 1.3.e.] ] 4.3.3.Z.A.qXwXS.z.I f y 2 3 = & & ; O X           ",
"                  . O + & ; * x n.H.Q 3 1 h ! 6.r.b.[ P m B ! ! F m f u 8 2 3 3 ; ; + @ o           ",
"                      . O * * % q x M.j % @ O , W 4.] 4.L 9 9 y f m y 8 8 y y y f f 4 +             ",
"                              @ 0 ; O > @ o       q V F I U G m m 1.! F ! ! I 1._.eXB =             ",
"                            X   @ @       , # .     : u A ] qX{ S b v M T F F T X.^ m &             ",
"                                          o           X u m c.! 1.1.N = & & = - & % O               ",
"                                                            $ * N T h .     * h q                   ",
"                                                      X ; ; 0 s C v >                               ",
"        #                                 $ o o     o @ % 3 K 5 =     O ; ; + @ o                   "
};
