/* XPM */
static const char *butterfly1_r[] = {
/* columns rows colors chars-per-pixel */
"50 50 255 2 ",
"   c #000006",
".  c #00000A",
"X  c #010014",
"o  c #01011C",
"O  c #0A0818",
"+  c #030124",
"@  c #0B0727",
"#  c #03012B",
"$  c #130C28",
"%  c #19122E",
"&  c #020133",
"*  c #0C0B37",
"=  c #02013B",
"-  c #09043B",
";  c #150B37",
":  c #130F3B",
">  c #211739",
",  c #020143",
"<  c #0A0645",
"1  c #03024C",
"2  c #0B0A4B",
"3  c #140948",
"4  c #0F1142",
"5  c #141749",
"6  c #030254",
"7  c #090658",
"8  c #150957",
"9  c #171356",
"0  c #240A49",
"q  c #290C56",
"w  c #241857",
"e  c #1C2352",
"r  c #2E2952",
"t  c #020264",
"y  c #08076A",
"u  c #170868",
"i  c #181665",
"p  c #090779",
"a  c #160678",
"s  c #0C1471",
"d  c #191776",
"f  c #261B67",
"g  c #2D0A70",
"h  c #251976",
"j  c #36117A",
"k  c #16246F",
"l  c #292869",
"z  c #272778",
"x  c #362E73",
"c  c #540B76",
"v  c #471A75",
"b  c #4E2971",
"n  c #69327E",
"m  c #25427A",
"M  c #926074",
"N  c #0B0683",
"B  c #191485",
"V  c #0F0390",
"C  c #160594",
"Z  c #17179A",
"A  c #291B87",
"S  c #24059C",
"D  c #3C0898",
"F  c #341090",
"G  c #182D8D",
"H  c #2E2D93",
"J  c #1410AF",
"K  c #1904B9",
"L  c #2808A3",
"P  c #291AAB",
"I  c #3512B2",
"U  c #162CAC",
"Y  c #1A27BB",
"T  c #292AA6",
"R  c #3C27A5",
"E  c #2938A6",
"W  c #2B3BBA",
"Q  c #3731B1",
"!  c #551A91",
"~  c #6B189A",
"^  c #46299C",
"/  c #4B3291",
"(  c #6D2F95",
")  c #4E10B1",
"_  c #6D19AB",
"`  c #5131B0",
"'  c #7030AE",
"]  c #215194",
"[  c #1C58AA",
"{  c #1A4AB4",
"}  c #304DB6",
"|  c #306EAA",
" . c #674E99",
".. c #4948B8",
"X. c #5554B1",
"o. c #7157B2",
"O. c #4F64BD",
"+. c #0D17CB",
"@. c #0B0AD4",
"#. c #1210D2",
"$. c #2C12D0",
"%. c #2A15DA",
"&. c #192BD4",
"*. c #1230D0",
"=. c #1737D4",
"-. c #2F30CF",
";. c #1012E9",
":. c #1916EA",
">. c #360AE3",
",. c #2B12EB",
"<. c #351BE4",
"1. c #062BE4",
"2. c #0736EB",
"3. c #1834E7",
"4. c #1033EF",
"5. c #2F2EE9",
"6. c #3627E8",
"7. c #2636EA",
"8. c #550ED1",
"9. c #6A17DB",
"0. c #4537C8",
"q. c #5436D1",
"w. c #6C32CF",
"e. c #5919EB",
"r. c #6D1CEE",
"t. c #4D31F0",
"y. c #742EF0",
"u. c #1A47C9",
"i. c #0C45D9",
"p. c #154CD7",
"a. c #0A55D8",
"s. c #1855D1",
"d. c #2E4ECE",
"f. c #146CDB",
"g. c #306ACB",
"h. c #3B6AD9",
"j. c #297AD9",
"k. c #0946E7",
"l. c #1749E5",
"z. c #1554EA",
"x. c #0746F3",
"c. c #2749E5",
"v. c #2456E8",
"b. c #3A52EA",
"n. c #106FEB",
"m. c #0B79E6",
"M. c #326FED",
"N. c #2679E4",
"B. c #544CCF",
"V. c #7150D3",
"C. c #4F73D0",
"Z. c #7371D4",
"A. c #5046EF",
"S. c #6B4BEC",
"D. c #4F6CEC",
"F. c #6A6EEC",
"G. c #96358D",
"H. c #831CBA",
"J. c #9430B3",
"K. c #A86391",
"L. c #9353AE",
"P. c #A55BAA",
"I. c #D24EB7",
"U. c #E352BC",
"Y. c #DA6FAD",
"T. c #8E30D1",
"R. c #943BDA",
"E. c #8A32E7",
"W. c #8337F6",
"Q. c #BD3EF2",
"!. c #904FD0",
"~. c #B054CF",
"^. c #8C70D3",
"/. c #A56AD8",
"(. c #864FE6",
"). c #9646E5",
"_. c #8B44F5",
"`. c #B04EE8",
"'. c #857CF5",
"]. c #A770F0",
"[. c #D14DCE",
"{. c #E858C8",
"}. c #D66ED5",
"|. c #E571CC",
" X c #D064E5",
".X c #1F8ED3",
"XX c #2B88D6",
"oX c #33A1DA",
"OX c #168AE5",
"+X c #189AE7",
"@X c #0A8EF2",
"#X c #3491E5",
"$X c #12A9F2",
"%X c #27A4E8",
"&X c #33B0EC",
"*X c #598ACC",
"=X c #4E8BD6",
"-X c #688DD2",
";X c #41A0D8",
":X c #63A6D8",
">X c #66B8DD",
",X c #4C8AE9",
"<X c #4995E4",
"1X c #7093E6",
"2X c #55AAE7",
"3X c #4DB9E9",
"4X c #68A9E6",
"5X c #6FAFE6",
"6X c #2ADBF6",
"7X c #55C3DD",
"8X c #4ECDEC",
"9X c #76C8E4",
"0X c #6BD4EB",
"qX c #50EBF3",
"wX c #56EAF4",
"eX c #71E9F1",
"rX c #6BF8F9",
"tX c #77F8F9",
"yX c #D792B6",
"uX c #F38FB8",
"iX c #EAA9B0",
"pX c #9190D6",
"aX c #AB92DD",
"sX c #B595DC",
"dX c #98A4D9",
"fX c #9090EC",
"gX c #B593EF",
"hX c #8AB1E8",
"jX c #AFAFE8",
"kX c #D38DD9",
"lX c #E98ED5",
"zX c #D9AFCF",
"xX c #EFADDD",
"cX c #CE90E7",
"vX c #E292E5",
"bX c #D8B3ED",
"nX c #D3AAF0",
"mX c #ECAEEB",
"MX c #E7B9EB",
"NX c #A1C5DE",
"BX c #89CBE8",
"VX c #8ECFED",
"CX c #97DBEB",
"ZX c #B2D6EC",
"AX c #88E9EE",
"SX c #89F8F7",
"DX c #96F7F6",
"FX c #B0EDF2",
"GX c #F4D3CD",
"HX c #C8C7F2",
"JX c #D9DEF2",
"KX c #EEC9EB",
"LX c #CAE9F4",
"PX c #CCF9F8",
"IX c #EDEFEF",
/* pixels */
"                      $ l z f r $                                         .                         ",
"                    . 5 h A F ^ A : X                                   . .                         ",
"                    o < u u a A ` ` f @ .                               . . . . . .                 ",
"                    : 9 v v / ^ R ` q.h * o                               . . . . . .               ",
"          O %       w d J.U.U.|.~.w.w.w.A 9 @                                                       ",
"          $ >       0 v I.{.[.[. X X).y.` H z @ .           . . . . . .                             ",
"                    % D J.[.[.`.`.Q.`.).(.` [ k X . .     . . X X X X X . . . . . . . .             ",
"                    O ( V.!.R.E.W.W.W.(.F.q.E | e @ X X X X X o o o o X X X X X X X X X X X .       ",
"          .     .   O ` (.).r.y.W._._.W.A.v.u.] | 5 o o X o o o o @ @ o o o o @ $ o o o > / *       ",
"        . O   . X . $ ..q.r.r.r.y._._.W.y.d.v.U { m o o o @ + + + + + + + + # ; r + + > K.~.w .     ",
"            . X X X x h.7.e.e.e.y.y.y.y.t.q.5.=.U g.5 + + + # & - & & & & = & & & - : M Y.I.0 .     ",
"            . X X % ..3.4.7.7.7.6.r.y.t.t.t.q.7.Y u.] # # # & 0 b < , = = , 1 < 3 0 M iX{.J.@ .     ",
"          . X X o > *Xl.3.4.2.k.l.6.e.t.t.t.t.-.*.Y } 5 & = 3 G.zXn 8 1 7 8 8 g c K.iX|.[.q X       ",
"          X o o + x -XOXx.2.1.2.2.3.5.<.<.6.%.$.Y P u.] < , 3 M yX( u 7 u g c G.yXuX|.`.~ + .       ",
"        . X o o : } M.v.k.2.2.2.2.2.2.3.#.%.@.@.#.&.u.j.k , , 8 v u u a j ~ P.iXlX|.`.T.q X .       ",
"        . X @ + 3 q.b.c.2.1.2.x.x.x.x.x.Y K K @.;.1.k.f.| i 1 6 y a N D _ Y.GXxXvX].).! + .         ",
"      . X o ; # < ( `.S.c.=.+.+.1.2.x.x.*.J K #.:.4.x.f..Xs 6 t a C D _ zXIXKXnXgX`.' 0 X           ",
"    . X X o @ : 0 G.vX`.w.<.:.;.;.1.1.2.3.K K #.%.5.z.n..Xk y N S ) H.}.KXKXnXgX].T.j @ X           ",
"    . X X @ + & 3 G.lX XT.e.,.;.;.4.l.v.v.$.K $.<.5.b.N.+XG p C ) H.kXxXmXnXgXfXV./ : X             ",
". X X X X o : r - q ' E.R.E.9.8.>.>.6.c.c.=.$.$.t.A.D.,X#X{ V ) T. XKXMXnXgXfXF.^ w o .             ",
"X $ $ o o + b o.: - x I %.>.%.$.$.>.>.<.5.7.%.%.t.S.F.fX#X{ K T.MXMXbXnXgX'.F.Q w @ X               ",
"X r r o o + : 5 & & < h $.#.#.@.@.@.:.:.:.:.:.5.A.F.fXjX4Xs.K `.KXbXgXgX'.D...f * X .               ",
"X o + o + + + e e # & - h W c.&.@.@.4.4.3.7.7.b.F.F.fXJXVXg.q.bXJXHXgX'.M.d.l 4 o .     .           ",
". X X o o + + 5 5 3 f h h h T -.6.6.7.z.v.M.D.D.1XhXVXFXCXC.F.LXLXZXfXD.g.z 9 + X .     .           ",
". X o @ * # # # q ! S B A B Z P -.-.5.b.M.M.,X<X2XeXSXDXCXC.1XCXZXhXD.h.G d - o X . .               ",
"X o o @ l - - x O.0.Q J J Z J J Y -.d.b.,X1X4X2X8XeXrXSXVXC.BXCXZX=XXX{ f k * o X . O @             ",
"X o o + # - b C.N.n.z.&.+.+.+.*.*.*.u.C.1XhXBX0XqXwXrXSX9XpXCXZX:XOX[ h 8 7 9 @ X . o O             ",
"X o o @ 3 8 L.Z.M.n.z.k.&.+.+.*.1.2.i.p.C.5XAXAXeXqXtXSX>XNXFX:X+XXXz 8 2 = & o X .       .         ",
"X o + 5 i u P.(.l.z.l.i.=.=.=.i.k.k.k.z.f.j.;XwXeXSXDXDX>XZX0X%X.XG 7 2 , & # + o X                 ",
"X o + 0 9 1 ( V.=.i.p.a.a.f.j.N.m.m.m.@X$X$X+XoX8X0XSXDX:X9XoXXXG 7 8 2 - # + + * > X   . .         ",
"X o + * f 2 z V.p.a.a.f.m.@X$X&X&X%X$X$X6X6XqX8XoXoX7X9X:X;XXXG y i 2 - # & * r b $ .   . . . .     ",
"o o + * 9 9 k C.,X#X.XOX@X@X+X+X%X&X8XwXeXSXDXSXAX7XXXg.*X*X} Z B i 5 5 5 5 4 : * X     . .   .     ",
"o @ + # - < G M.M.n.f.m.@X@X$X$X6XwXrXSXFXPXPXFXCX:XW Y } g.E y 2 2 * * @ o X X .     .             ",
"o + + # - = f B.b.n.OX@X@X&XqXrXrXtXtXDXPXPXFX9X;Xd.-.d.T } d , & # # @ : o X . .   . . .           ",
"o + # # & < q P.fX<X+X%X&X0XeXwXqXwXSXPXFX0X3X,XZ...Q Q d i 1 < - - # 5 l + o X . .         . .     ",
"+ + # & < 9 8 q  .hX3X3X7X3X&X%X&X0X9X<XN.j.C.B.H G s h 8 9 = & - * 5 l 4 + o X X . . . .   . . . . ",
"# - & = = = , , B W } } } u.p.s.j.g.p.=.Z.C.W d u i 2 9 f = & & & # # # + o o X X X X X . . . . . . ",
"# - & 2 i , 2 9 d Z J Y W { s.p.p.=.d.V...U y 8 d 7 = = 9 = & & & # # + + + o o o o X X X X X X X X ",
"+ # # < 2 ,  .X.h B Z Y p.f.n.l.&.C.-XH p y 1 i a 9 2 = , = = & & & # # + + + + o o o o X X X X X X ",
"+ + # - < , i f ( o.B J p.#XN.-.Z.Z.R p t t t g B z i 1 1 , = = < = & & # # + + + + + + o o o o X X ",
"+ # # & 3 w 9 1 j !.` V *.hXZ.Z.aX` S V N p p D F p t 6 6 1 1 , , , = = & & # # # # # + + + o o o o ",
"# # # & & 3 9 8 u ! !.' I ^.dXsX!.w.I L L S L _ ) C N y t 7 7 6 6 1 1 , = = & & & & # # + + + + o o ",
"# # & & = = , 8 j ~ J.~.~.T.}.bX/.9.8.w.8.) 8.R.T.I L V N p p a h u 7 7 1 , , , = = & & # # + + + + ",
"# & & = = , , 1 u ! J.~.vXmXlXxXMXcX).R.E.E.E.cXaXw.$.I P P L L ) ' ! j y 7 u v 8 1 , = & # # # + + ",
"& & = , , , 1 6 u F D ~ J.[.vXxXlXmXMXbXnXnXbXJXJXjX1XF.B.B.d.B.q.!.' ' D D ~ P.( A u 6 , = & & # + ",
"- 3 8 i h h A H ^ o.` ' J.[.|.|.{.}.}.cXcXjXHXIXLXVX5X4X<X4X2X4X4XhXdXaX^.q.V.!.w.) T E d 7 , < = & ",
"- 3 u h ' ^.Z.Z.V.B.-.-.0.w./.kXcXbXbXbXbXjXVXFXhX#X#X#X#X<X,Xh.C.C.C.O...T Q T T P E O.E s 7 1 = & ",
"& & = , q L.!./.^.Z.=X<X<X1XpXsXpXfXaXaXsXpX-XdXpXZ.^./.(.B.q.0.` ` R R R ^ ^ ^ H A d s 1 = & & & # ",
"& & & & = 8 i A H E } g.g.g.*X*X*XC.C.C.*X*X:XBXBX2X=XC.B.} E Q H ^ ^ ^ P P P Z y 6 , = & & & & & & ",
"& & & & = = = = < 2 7 i y s p p p B B B A T Q pX1Xd.Y Z N y t u 7 6 6 6 6 t t 6 , = = & & & & & & & "
};
