/* XPM */
static const char *butterfly_f2[] = {
/* columns rows colors chars-per-pixel */
"50 50 256 2 ",
"   c #0B0C0E",
".  c #060808",
"X  c #0B0C13",
"o  c #03031B",
"O  c #0A0C1A",
"+  c #070819",
"@  c #100F1E",
"#  c #0E1017",
"$  c #11121B",
"%  c #151217",
"&  c #050324",
"*  c #090526",
"=  c #0B0B22",
"-  c #05012B",
";  c #0A042C",
":  c #0C0A2B",
">  c #070826",
",  c #110D2A",
"<  c #151628",
"1  c #050133",
"2  c #0B0433",
"3  c #0D0933",
"4  c #04013A",
"5  c #0C043B",
"6  c #0C0C39",
"7  c #11053D",
"8  c #130C3C",
"9  c #140A36",
"0  c #13123B",
"q  c #191A36",
"w  c #0E122E",
"e  c #261636",
"r  c #260D2C",
"t  c #202237",
"y  c #040044",
"u  c #0D0543",
"i  c #0D0A42",
"p  c #07024B",
"a  c #0C054B",
"s  c #0E0A4C",
"d  c #110543",
"f  c #11054B",
"g  c #160947",
"h  c #0D144A",
"j  c #131344",
"k  c #0C0553",
"l  c #0D045B",
"z  c #090556",
"x  c #120453",
"c  c #14095D",
"v  c #150857",
"b  c #19175B",
"n  c #0E1353",
"m  c #26184B",
"M  c #290D54",
"N  c #28225B",
"B  c #392A54",
"V  c #0D0668",
"C  c #130563",
"Z  c #130B64",
"A  c #140C6D",
"S  c #1A0867",
"D  c #0F1665",
"F  c #171469",
"G  c #0A0573",
"H  c #120A73",
"J  c #170A78",
"K  c #171575",
"L  c #0F197B",
"P  c #280567",
"I  c #350A69",
"U  c #280876",
"Y  c #341470",
"T  c #172C75",
"R  c #302F74",
"E  c #182653",
"W  c #480E6A",
"Q  c #482D79",
"!  c #6D2E7D",
"~  c #164476",
"^  c #4F4778",
"/  c #0E0A8A",
"(  c #130B83",
")  c #120A8C",
"_  c #11058A",
"`  c #181686",
"'  c #140A97",
"]  c #1E149A",
"[  c #2B058A",
"{  c #251688",
"}  c #331598",
"|  c #2E1092",
" . c #1B2999",
".. c #19348A",
"X. c #272689",
"o. c #352A9B",
"O. c #302F8F",
"+. c #170DA6",
"@. c #150AB7",
"#. c #1915B6",
"$. c #150FAC",
"%. c #2615B7",
"&. c #340FAE",
"*. c #1B2AA8",
"=. c #273CA7",
"-. c #2924B1",
";. c #2F2EB6",
":. c #4F0D8F",
">. c #720F98",
",. c #453787",
"<. c #4F2686",
"1. c #4715A3",
"2. c #6B17B3",
"3. c #592BAE",
"4. c #6C33B1",
"5. c #2747B6",
"6. c #254294",
"7. c #4D4882",
"8. c #736688",
"9. c #5750B3",
"0. c #7143AF",
"q. c #5264B1",
"w. c #736CAE",
"e. c #7A5E9B",
"r. c #170CC7",
"t. c #1A16C9",
"y. c #1709D8",
"u. c #1C16D6",
"i. c #0801C1",
"p. c #2918C4",
"a. c #3A1CC6",
"s. c #261CDA",
"d. c #3215D3",
"f. c #1B24CD",
"g. c #282BC7",
"h. c #3528C9",
"j. c #2A26D9",
"k. c #3839D8",
"l. c #2D33D2",
"z. c #1B18E9",
"x. c #160BE5",
"c. c #231BEC",
"v. c #351CE7",
"b. c #1C23EC",
"n. c #1C35E8",
"m. c #1B39F3",
"M. c #1E27F2",
"N. c #2428E9",
"B. c #2937EA",
"V. c #2F32EE",
"C. c #4718D9",
"Z. c #4C31CB",
"A. c #722DD4",
"S. c #4317E7",
"D. c #4737E8",
"F. c #4B36F0",
"G. c #6B2FED",
"H. c #751BDD",
"J. c #2B49CF",
"K. c #376ACC",
"L. c #294BEB",
"P. c #3D4AE5",
"I. c #2751EB",
"U. c #2548F3",
"Y. c #2957F1",
"T. c #3258EA",
"R. c #3465E9",
"E. c #346FF0",
"W. c #1C41F1",
"Q. c #454CD9",
"!. c #5250CF",
"~. c #6848D8",
"^. c #6E55CE",
"/. c #4A70D7",
"(. c #6E77D2",
"). c #4757EA",
"_. c #4F4EED",
"`. c #7153EF",
"'. c #4665ED",
"]. c #4576ED",
"[. c #5765F2",
"{. c #4B70EF",
"}. c #7471ED",
"|. c #860798",
" X c #8A13B5",
".X c #9131B1",
"XX c #AF3FAF",
"oX c #9042BA",
"OX c #8370AE",
"+X c #A650A7",
"@X c #9331CD",
"#X c #8E35F1",
"$X c #9C24D7",
"%X c #8352D1",
"&X c #AA54D2",
"*X c #9073D2",
"=X c #954FE9",
"-X c #9475EA",
";X c #8E75ED",
":X c #AC6DF0",
">X c #A56BE3",
",X c #D176EE",
"<X c #CF60E0",
"1X c #3885EF",
"2X c #4D88D9",
"3X c #4488E6",
"4X c #4D94F2",
"5X c #6D8AEF",
"6X c #4AA7EC",
"7X c #55A4F1",
"8X c #53B0EF",
"9X c #77B5ED",
"0X c #67A8F4",
"qX c #7CA8F3",
"wX c #67AEEE",
"eX c #7990D6",
"rX c #4BC6EF",
"tX c #71CDF1",
"yX c #A392AB",
"uX c #E290BB",
"iX c #EEB6BB",
"pX c #BAB8D3",
"aX c #8A98EA",
"sX c #9290EF",
"dX c #AA88F2",
"fX c #BA84F1",
"gX c #A298F5",
"hX c #B097EF",
"jX c #8DAAEF",
"kX c #BBACF3",
"lX c #ACADF0",
"zX c #9C97CE",
"xX c #D89BD3",
"cX c #D9B0D0",
"vX c #E7ADD4",
"bX c #E5BBCF",
"nX c #C88AED",
"mX c #D291F1",
"MX c #C5A6E8",
"NX c #D9ABE6",
"BX c #C9B5E9",
"VX c #D7B6EB",
"CX c #CBB5F1",
"ZX c #E9B5EE",
"AX c #E49CDC",
"SX c #B9D8E9",
"DX c #AECDF0",
"FX c #8FDEEF",
"GX c #DDDFDE",
"HX c #EACED5",
"JX c #D8C8EC",
"KX c #D4D3EB",
"LX c #E2D7EC",
"PX c #E6C1F6",
"IX c #D4E7EB",
"UX c #EAEFEF",
/* pixels */
"      X                                                                                             ",
"    X                           X     X                                                             ",
"  . .   X         O X       X   X X X     %                                                         ",
". N ^ X           $ #   X + O - 5 : = = @ % # X                 X                                   ",
". < B e   X X X   $ X + = 5 k =.J.( a 3 O X X %                                                     ",
"%   X 9 , $ #   8 S : + s A K 6.Z v 9 X   X                                                         ",
"r e M P g - , # j R 8 u u l H 2 X X X                               X                               ",
"< 8 >.NXzX^ 5 - : 0 s s 5 V a O O X   X                           . .     . X                       ",
"@ d W XXHXcXyX^ k y A V l p > O O X   X X                 X X O < B t = q q X % X   , O             ",
"@ 7 W |.bXcXuXiXyXX.( g.k.o.1 = O X X X O O O X   X   X X + 6 l X.o.m 5 W oXM X @ O c O X   X O X X ",
"O 5 M :.*XUXGXcXvXnX9.!.kX^.4 : + > 3 s z * O X X X X X O = u =.H 2 * O O r ! e 2 = = : s D i 5 = O ",
"O ; f P [ pXGXVXmXZXmXsX*X=XU y K A G *.K.K 2 O + + O O + = * R 6 = = O @ + m Y S 5 ; 5 5 H =.6.2 = ",
"O : u x <.cXcXxXnXfXMXhXgXMX*X3.%Xd 2 5 X.F 2 = O O O O + O = * : = = = : 2 f ~.9.2 d d d y *.q.1 g ",
"O : 7 y e.iXxX:X:X:XfXBXkXCXUX,X X- * ; i 3 * = O O O O O O O = 3 = = * 5 5 o.-XQ U I M l K 4.U f g ",
"O > 5 y Y uXbXnX#XG.G.`.MX,X:X:X>.& = + O = = = = = = = = = = = O = ; 5 u J ~.&.2.&X:.:.3.@X X X>.M ",
"3 S S p N ,X<X=X=XA.C.d.a.1.a.Z.~.: & q 9 & ; * * * * * * = = * * 3 5 p ` G.H.A.@X.XoX0.*XMXJXPX.XP ",
"{ 3.S p yXHX=XS.d.p.%.%.a.;.G ' j.,.= 7.^ 0 ; ; ; ; * ; * : * ; ; 5 p ) _.dXCXJXBXKXIXIXIXIXBX.XI v ",
"S v y o.,X&X#XD.r.r.$.' ( &.%.) @.j.R 9 8 N - 2 ; ; ; ; ; & ; ; a C =.(.gXdXhXVXLXLXLXLXPX,X:.U v 7 ",
"2 k J *X#X;XS.F.j.r.@.+.) ) #.#.@.u.;.5 1 v u 2 5 5 5 ; 6 ^ m k -.Z.~.A.$X$X,X,XmXVXVXnX4.[ J C l a ",
"2 f [ &XfX_.V.V.D.^.Q.%.+.+.+.$.t.y.l...1 k x 5 u 5 5 g b Q ,.!.}.Z.&.1.2.H.G.`.sXhXZX*XG J A ` F p ",
"* 2 S @XUXkX}.5XM.v.V.l.@.r.Q.#.#.z.z./.b z Z a k a c p N 9.D.d.a.%.3.&.a.C.G.`.lXJXZXw._ A G ~.(.j ",
"* ; f U X.w.[.V.u.y.x.b.B.u.z.n.f.L.Y.].q.V ` V Z V V 8.;Xv.u.p.p.a.&.+.%.d.S.F.;X:X3.p k l S A p.X.",
"* 2 5 u y 1 w.`.n.u.N.m.U.E.I.U.E.R.4X6X9X{ ] ( _ X.zXsX_.V.j.p.+.) ) ' @.r.y.x.`.0.4 a u 5 5 k V C ",
"= Z A 5 s 4 R sXc.b.T.L.I.1XrX6X8XrX8XrXtX(.@.@.9.lX0X'.B.u.g.g.$.$.+.@.r.t.u.d.BX8.1 7 2 2 5 c f = ",
"O 6 i ; 5 a l { @.c.N.B./.eX2X3X].jXSXSXSXhX(.*XpXFX9XaX7XR.V.s.r.t.k.Q.s.y.r.t.F.X.- 2 ; * 5 5 > O ",
"* = * 2 5 y ' l.J.P.}.[.Q.Q.).}.}.dXVXZXNXvXvXvXKXSXFXtX8XE.Y.I.B.N.N.c.B.'.N.u.r.z ; 2 5 g : O O O ",
"= = * 2 5 F -.k.jX5Xk.].L.M.V.[.sXkXLXKXVXNXxXNXCXCXCXaX4X8X6XE.U.z.y.y.R.4XU.g.Z v Z S u : O O O + ",
"= O * ; a J H ] ^.M.L.T.B.b.'.{.E.7XwXwXlXAXMXDXJXVXVXnX`.I.[.).b.N.f.c.B.k.!.X.c o.o.y * O O O + + ",
"= = * d s a l G (.qX7Xm.m.U.U.W.].aXgX}.`.>XsX8XDXZXmX-X`._.l.u.u.z.M.$.l a u 5 5 2 2 : = O + + + + ",
"O = = u 5 u v C w.SX7X9X4X3XR.U.].dX-Xr.~.j.sXDX8XsXdX_.E.aX;X-.' ) H 5 2 2 2 ; ; * : O = O O + + O ",
"O O : ; 5 f I >.2.2.aXIXDX9X6X1XI._.h.%.h.i.;XdXL.m.U.B.sXP.F.zXV l u u 5 ; ; 2 * * O O O + O + O X ",
"O = > 2 d S :.<X<X@XLXLXIXFXFXjXM.h.Z.+.+.+.`.[.B.T.Y.L.z.).B.h.) H l 5 2 u u 2 = O O O O O O + O X ",
"+ O * 2 u v 4..X|.1.9.sXlXKXUXsX#.) ) ( _ ) k.U.m.R.7XtX0XDXaX$.] J Z 6 ; 8 3 = = O O O + O O X X X ",
"+ O ; M I P g y a Z G !.gX;X%X| J H H H V H r.I.wX0X6X7X/.(.R l k { %XR 2 O O O O + + + O O X X     ",
"+ O 2 I I 5 2 5 7 f c f.gXA.[ { H C l C A ( J.4XqX3XqXjXh.#.' f 5 5 M 9 2 = O + + + O O X X         ",
"O O & m m * = = 2 5 5 -.JX<.J K c a k C O.X.X.o.k.[.].P.p.l.] S 5 O + O O O + + + O O X X           ",
"X X X # @ O O : * 5 5 T zXU l Z F Z S 1.P d 5 1 J D.R.;.G a 2 7 I , O + + + O O X X X X             ",
"    X X X O O = : ; 5 5 } H z J X.K S M u 5 5 4 m gXJ.5 2 = = + e < + O O X X X X X X X             ",
"        X X O O 7 5 5 f [ { 0.} A H k 1 2 5 5 5 4 pXO.- = O O 6 = O O O X X X X X + o * = O O X X X ",
"            X X : b 2 5 x B +XP 1 2 2 5 l u 5 5 d 7.9 * O O + 0 O X X X X O + : s V L  .p * O X     ",
"          X X X + 3 c d u 7 P 5 * : * * : 2 ; ; W Q - = O O O         X O + h L ( _ J.3XZ * O X     ",
"          < X X X O 5 A ] P g - = O O + O = = = B , O O O X X   X     X + 5 k > + + h  .k O O X     ",
"    X $     X X X X O > U 2.8 > O O O O O O O O @ O O + X X     X   X + + 3 3 5 3 > 2 Z 5 O + O     ",
"                    X X o <.<.- o O O # X X X O + O O X X X X   X X O O O O = i 2 J J a ; : < + X X ",
"                      X   m @XOXR 1 o O O O O O O O O O O O O : : = = = * 3 8 5 a J K 1 K n = O     ",
"                        X X } Z.w.q...s ; & & - i i * * : 3 3 u v f 2 2 2 u n D k k x = q , + X     ",
"                        X   6 #.V b g.Y.J.=.R F $.@.V y 1 4 y c ( A D T T T D i b Y = X X X X       ",
"                          X . j ` 5 x  .5.;.3XtX8X7X3XK.5.!.^.j.f. ...T b i d 8 0 = X X X           ",
"                      X     X . O j 0 2 2 5 p K 6.tXFX6X2XOX,.V F K u ; 2 w = O     X               ",
"                              X     O w 0 0 h n D ~ E 5 * o o + ; ` i O O X     X   X   X           "
};
