/* XPM */
static const char *butterfly_f1[] = {
/* columns rows colors chars-per-pixel */
"50 50 256 2 ",
"   c #0B0C0E",
".  c #07090A",
"X  c #0B0C12",
"o  c #0A0C1B",
"O  c #040519",
"+  c #100C1B",
"@  c #0D111C",
"#  c #111115",
"$  c #12121B",
"%  c #050124",
"&  c #0A0524",
"*  c #0B0B22",
"=  c #05012B",
"-  c #0A042C",
";  c #0C092A",
":  c #040D2E",
">  c #130C2B",
",  c #0E1225",
"<  c #151425",
"1  c #030133",
"2  c #0B0434",
"3  c #0C0A33",
"4  c #040139",
"5  c #0C043B",
"6  c #0D093C",
"7  c #130D35",
"8  c #12053C",
"9  c #120B3B",
"0  c #19093A",
"q  c #15133A",
"w  c #0D1637",
"e  c #24162C",
"r  c #262637",
"t  c #050143",
"y  c #0C0443",
"u  c #04014A",
"i  c #0C044B",
"p  c #0D0A4C",
"a  c #0E0B44",
"s  c #130749",
"d  c #0F1548",
"f  c #151349",
"g  c #0C0354",
"h  c #0D045B",
"j  c #080456",
"k  c #130A53",
"l  c #140A5C",
"z  c #190658",
"x  c #1D1855",
"c  c #0D1159",
"v  c #260957",
"b  c #2D114F",
"n  c #14214E",
"m  c #2F2A57",
"M  c #0B0667",
"N  c #140C63",
"B  c #140A6B",
"V  c #170667",
"C  c #0F1864",
"Z  c #151469",
"A  c #0D0377",
"S  c #120A73",
"D  c #130A7D",
"F  c #180977",
"G  c #1A1778",
"H  c #260567",
"J  c #23186B",
"K  c #24057A",
"L  c #370774",
"P  c #251B76",
"I  c #361168",
"U  c #13236A",
"Y  c #14307D",
"T  c #28267A",
"R  c #363476",
"E  c #342E6F",
"W  c #480D72",
"Q  c #443668",
"!  c #512A71",
"~  c #532865",
"^  c #4F4B7E",
"/  c #0D0688",
"(  c #130C89",
")  c #1A1687",
"_  c #130999",
"`  c #1A1497",
"'  c #0D0B8E",
"]  c #250687",
"[  c #2B1B85",
"{  c #3D1785",
"}  c #2F1193",
"|  c #192A90",
" . c #273695",
".. c #352B91",
"X. c #150BA6",
"o. c #1717A6",
"O. c #150CB7",
"+. c #1814B9",
"@. c #0E04B5",
"#. c #2717A9",
"$. c #2417B9",
"%. c #3717B7",
"&. c #2F15AC",
"*. c #1B2AAD",
"=. c #2A26A8",
"-. c #3833B7",
";. c #2D30B2",
":. c #4C0A82",
">. c #4C1092",
",. c #6B0A89",
"<. c #4B2C8A",
"1. c #4A10AF",
"2. c #6F12A7",
"3. c #512AB0",
"4. c #7927A8",
"5. c #7130AE",
"6. c #69328F",
"7. c #2342A9",
"8. c #2E51AF",
"9. c #2B5099",
"0. c #464297",
"q. c #53528F",
"w. c #63419F",
"e. c #706295",
"r. c #4F4DAE",
"t. c #7B58BB",
"y. c #6B51B6",
"u. c #546BA8",
"i. c #180CC8",
"p. c #1C16C9",
"a. c #190CD7",
"s. c #1C18D5",
"d. c #281BD6",
"f. c #2D15C8",
"g. c #1D25D8",
"h. c #3526CA",
"j. c #2529D9",
"k. c #3428D9",
"l. c #2636DE",
"z. c #3330CA",
"x. c #1708E2",
"c. c #1B15E9",
"v. c #050EE5",
"b. c #2616EA",
"n. c #1C27EB",
"m. c #1C37ED",
"M. c #182BF1",
"N. c #1F3BF4",
"B. c #2728E7",
"V. c #283AE9",
"C. c #232AF2",
"Z. c #223CF2",
"A. c #3632EB",
"S. c #5B14C3",
"D. c #4E1AD6",
"F. c #4E2BD2",
"G. c #6C33D0",
"H. c #5518E8",
"J. c #5535EC",
"K. c #622AEA",
"L. c #7C11C1",
"P. c #2E4FCF",
"I. c #2548ED",
"U. c #2B54E7",
"Y. c #3458EE",
"T. c #374AF3",
"R. c #2856F1",
"E. c #324AF3",
"W. c #2D64EE",
"Q. c #2B68F2",
"!. c #3870EF",
"~. c #4749DB",
"^. c #5953D1",
"/. c #5A6FD8",
"(. c #6F68D9",
"). c #4747EC",
"_. c #5051ED",
"`. c #6851EA",
"'. c #576CEB",
"]. c #5479EE",
"[. c #5763F0",
"{. c #5677F7",
"}. c #486CED",
"|. c #6C6EED",
" X c #6D59D4",
".X c #8416BB",
"XX c #8715B3",
"oX c #8C2CB1",
"OX c #AD3DAB",
"+X c #9960BA",
"@X c #CE7BAF",
"#X c #AA2DD3",
"$X c #9336EC",
"%X c #C13ADF",
"&X c #E03DCE",
"*X c #B251D3",
"=X c #AC73CF",
"-X c #8A54EE",
";X c #AC57E9",
":X c #8060EB",
">X c #9074EF",
",X c #AC72EF",
"<X c #8F56D2",
"1X c #E37FDF",
"2X c #C577EC",
"3X c #3A8AF1",
"4X c #3B92EF",
"5X c #3FA7F0",
"6X c #5392CB",
"7X c #7D9FDC",
"8X c #4984EF",
"9X c #4998EF",
"0X c #5295EC",
"qX c #738BEF",
"wX c #57B7F3",
"eX c #4EADEA",
"rX c #6AA9EC",
"tX c #6CB1F2",
"yX c #5ABBDC",
"uX c #73CFF0",
"iX c #66CCEA",
"pX c #9284AF",
"aX c #E0A3B6",
"sX c #A289CF",
"dX c #9291F0",
"fX c #AD8EEE",
"gX c #8CB1F1",
"hX c #AFB1F0",
"jX c #9793C8",
"kX c #D58ED3",
"lX c #D3B0D5",
"zX c #E7AECE",
"xX c #D696E8",
"cX c #C38BF5",
"vX c #CE93EE",
"bX c #C7A5EB",
"nX c #D7A7ED",
"mX c #CBB8EC",
"MX c #DABAE8",
"NX c #CFA9F3",
"BX c #E5ABF0",
"VX c #E29CE1",
"CX c #85C8EC",
"ZX c #8DC5F1",
"AX c #95D0EE",
"SX c #B4CEEC",
"DX c #BFE0EF",
"FX c #D4C3CE",
"GX c #D8C6E9",
"HX c #D1D2EB",
"JX c #E7D5E3",
"KX c #EBD1F5",
"LX c #D0ECF1",
"PX c #E5E9EC",
"IX c #EDF7EF",
"UX c #E9D9DA",
/* pixels */
". q ^ < .       . X @     X o o = & o * o $ # X                               X                     ",
". < Q b X X   X   X $ X o & 5 N 7.` h 6 > X X # #                                                   ",
"# X . 0 > @ X   o z 8 o - N M  .7.B z ; X   X   X                                             X X   ",
"e e 7 s s - < # , [ x ; p p S c % o + X                           X       X X   X                   ",
"$ 7 W =XpXQ 4 = ; q f k 5 c B 3 @ X .                               . .                             ",
"+ 7 W OXJXFXpXE u t k B i j 5 o o X X                       X   X < r < o , O X # X   * X           ",
"X 3 I ,.kXzXaXaXpXT A o.+.=.p & o X X X X X X X         X X o 5 p 9.q.f 8 6.5.+ $   ; l       X X X ",
"o - v :.=XIXJXzXzXkXy.-.qXfXl - * o * ; 5 - o o X X X X X o & Z *.h 5 ; ; > ~ ! o ; * > ; d a = - o ",
"X ; y H ] sXPXGXxXBXNX>X<X>X} t y N h ( P. .5 * o o X o o o O n  .% , o o o O ! v g - ; 5 p (  .U - ",
"o ; 5 z V pXUXVXxXcXbXhXdXsX=X[ r.<.4 i T 7.i ; o o o o o o o ; 3 * o * * ; - J G.R 2 6 6 5 u ;.r.= ",
"o ; 5 t ! zXzXfX,X,X,XmXhXhXPXbX%XI % ; 4 p ; & o o o o o o o o ; 7 * o ; 5 4 -.fXI z v s i N r.P y ",
"o ; 2 y Z @XzXbX$X$X-X-XbXnXcXNX#Xv O * ; * o * * * * * * * * * o o ; - 2 t G  X>.4.4.W :.3.5.2.,.:.",
"* 2 i i u +X1X2X;X$XH.f.F.5.G.J.-Xv O * & % - & & & & * * * o * * ; 3 5 i ) F.S.S.#XoX2.4.<X2XcXxXXX",
"k 3.] i Q FX2XH.D.D.D.%.f.h.D _ f.3.O x e.x % - - - - - - - ; - - 3 8 u ( _.,XfXbX=XlXmXFXHXLXHX+X:.",
"N [ i j =XkX;XK.a.i.O._ ( %.%.( X.B.R m 7 R 3 - - - - - - = % - - y j  ./.dXfXmXHXPXPXPXPXKXxX4.L z ",
"2 u j r.$X;XK.J.k.i.@.X.' A $.$.X.i.l.x = a k - 2 2 2 2 = 7 m = g ` -.(.-X$X;X2XxXxXMXMXNX<X>.H N k ",
"2 y ] t.,X`.A.b.A.F.z.+.X._ _ O.p.a.j.;.2 y l 6 6 6 5 2 a E q.E ^.|.F.1.1..X$X;X,XfXbXBXt.A F S M M ",
"; 2 z L.KXhX[.qXV.J._.P.$.O.z.=.O.s.x.U.R t l g i i y l u x r.J.).F.#.%.1.D.H.J.|.dXGXKXy./ B A (.q.",
"; 2 y } t.jXqX}.n.x.x.b.j.i.d.l.p.g.Z.I./.l S B h h M j ^ (.B.i.i.f.F.3.$.f.D.K.:XfXcX<XZ M N K =._.",
"- - 2 y u u u.J.B.s.x.n.Z.W.m.M.I.U.!.3XrXr.A ) S / P pXfX).A.k.f.#._ / X.O.i.a.c.J.3.t t y i i j A ",
"& y B y s 4 x fXT.n.V.U.m.Q.eX3X4XeX4XeXiX7XX.X._ r.hXqXE.V.d.$.+._ _ X.@.+.i.a.J.lXQ 1 a 5 3 5 l g ",
"o a Z - y y u <.h.a.V.Z.E.8X0XeX9XiXuXAXuXSX^.z.^.SXuXqX|.Y.l.~.p.O.+.z.z.p.a.i.h.>XE 1 3 - & 5 s - ",
"& * & 2 2 6 M _ *.g.)._.~./././.'.|.bXGXGXlXlXlXFXDXCXCXuXeXR.M.g.j.B.T.A.B.B.s.s.a.p - - - 8 2 & o ",
"* * & - 5 y ) V.{.7X|.'.Y.C.C.T.dXfXGXJXMXnXzXkXmXHXSXAXwX9X9X3XQ.N.c.x.x.8X8XM.i.S 2 y k y 7 o o o ",
"* o & - 4 V =._ (.|.c.R.!.B.V.'.[.qXgXZXZXMXVXnXGXmXNXvX>X8X0X].I.n.s.s.C.Y._.T.| k ..[ k - o o o o ",
"* * & 2 p z h A r.).8XR.n.M.I.Y.Q.9XrXqX|.,XvXtXZXJXBXnX2X`.j.).B.c.C.C.p.` T J k k J k = * o o o o ",
"o * o 8 s 5 l h r.LXuX!.}.R.!.Z.W.dXvX:Xd.:X_.SXiXhXxX,XE.[.dX;.@.O.p.X.y 2 1 = - = % & * o o o o o ",
"o o * - 2 6 z L } t.qXZXSXrX0XQ.W.}.`.i.h.d.k.nXqXQ.'._.}.gX[.dX0.M i 2 5 5 2 - 2 - ; * o o o o o o ",
"o o ; - 5 z L XX*X.XsXPXHXCXuXiX}.n.`.$.-.@.h.fX_.m.I.M.B._.v.).r.M S k y 2 2 2 2 & * o o o o o o o ",
"o o * - 5 i >.*X&X.XjXmXhXDXLXLX).+.&.` ' / -._.m.I.!.9X!.}.dX~.O.` M 4 2 2 k 5 ; * * * o o o o o X ",
"o o ; 5 z H W W H K / r.dXfXmXsX#.D D A D S o.B.U.!.9XwXtXgXhX<.D F &.0.s = * o o o o o o o X o X X ",
"o o - v W z 4 4 y i V o.dX>XS.] D S B B M h ' I.rXCX8XtX].=.) j y y { w.p 2 o o o o o o o X X X     ",
"X o & b W 2 3 ; 3 y s / >X=XK [ B h g g Z  .;./.'.{.].7X/.k.k.} p ; O & o * o X o o o X X X X     X ",
"X X o , r * * * - 2 8 M hXe.B l J i l V { P k i F F.}.R.p.` ) i V 8 o o o o o o o o X X X X         ",
"    X X X o o o > - s 4 0.[ g h Z P N { I 5 5 y 1 3.{.;.C 5 = & 0 b o o o o X X X X X X X           ",
"      X X X o o > - 2 5 F } B ] =.) S y 2 2 2 5 1 e.hXM % ; o o o < o o o X X X X X o X X X X X X X ",
"  X   X X X X X ; f 2 5 K V +X4.V i g 5 y y 5 6 1 E pX= ; @ o ; d o X X X X X o X o & 4 t 3 o X X X ",
"            X X X f k 2 y y ! L 1 - - 2 y i 2 5 5 <.x % * o o o o X X X X X X 3 C ( _ P.8.u ; o X   ",
"          < $   o X s N N y z 6 - * * o o * - - s ! 9 & o o X X         X o 3 N c p h 7.P.y * o X   ",
"    X X   $ #   X X o 6 ] 1.v - * o o o o o o o < q O o o X     X       X o i 5 & o o a ( 5 o o X   ",
"      #         X X X X = >.<.% * o o @ X X X o o o o X o X         X X X o * ; y 2 y i j ; * o X X ",
"                      X X > oX<.= O o o o X X X o o o X X X X X o < o o o o @ q 8 5 #.F 5 y 9 < X X ",
"                      X X X ,.<XpXR 6 % o o o * * o o o o o * ; 6 2 3 - ; - 8 5 p h B l 2 T 6 o X X ",
"                        X   6 f...q.8.*.Z y 2 = t ( i = - 3 5 5 i B y 4 5 p C U c p N 3 o # X X X   ",
"                          X . C o.t N I.!.U.P.u.r.l.*.D i u h G ` ` | |  .Y U p 6 P f X X X X       ",
"                  X         X . d C 6 p G ) | 6XeXyXuXwX4X].fX^.p.*.Y U f 6 8 q 7 o X X             ",
"                              X . * w 9 3 3 5 t M 8.iX6X8.q.m y 2 N D 2 ; ; * X   X X               ",
"                                X   . X , , w d d n : O O O O o o 3 f o X X     X                   ",
"                                  X X   . . . . . .     X X X     . .   X                           ",
"                                        X X X   X X X X                                             "
};
