/* XPM */
static const char *carrot2[] = {
/* columns rows colors chars-per-pixel */
"50 50 223 2 ",
"   c #1A5D16",
".  c #1D5F19",
"X  c #2D590B",
"o  c #2B5308",
"O  c #3B580E",
"+  c #235914",
"@  c #2B5C10",
"#  c #225E1C",
"$  c #2C5E1C",
"%  c #3C5D13",
"&  c #345E1D",
"*  c #3D5E1D",
"=  c #375B16",
"-  c #1E631B",
";  c #1E691E",
":  c #1A6111",
">  c #2A6A0D",
",  c #236414",
"<  c #2A6413",
"1  c #246A16",
"2  c #22651E",
"3  c #2A651D",
"4  c #236A1D",
"5  c #2B6B1E",
"6  c #3C651B",
"7  c #346618",
"8  c #337416",
"9  c #39791C",
"0  c #347519",
"q  c #1D6621",
"w  c #1F6B21",
"e  c #246621",
"r  c #2B6623",
"t  c #266922",
"y  c #2A6C25",
"u  c #226628",
"i  c #2B662A",
"p  c #266B2A",
"a  c #2C6E29",
"s  c #386223",
"d  c #326B24",
"f  c #3B6925",
"g  c #316D2A",
"h  c #336423",
"j  c #257022",
"k  c #2C7125",
"l  c #267029",
"z  c #2E712A",
"x  c #347224",
"c  c #3D7627",
"v  c #31742D",
"b  c #38742C",
"n  c #2D7633",
"m  c #327332",
"M  c #387B34",
"N  c #415B06",
"B  c #445E14",
"V  c #475A19",
"C  c #5A5E1E",
"Z  c #5A5619",
"A  c #655D1E",
"S  c #755B1D",
"D  c #794C15",
"F  c #466116",
"G  c #466419",
"H  c #4A671B",
"J  c #52631C",
"K  c #4C721D",
"L  c #65631D",
"P  c #6C691A",
"I  c #716F1C",
"U  c #64701C",
"Y  c #4A5C20",
"T  c #5D5A23",
"R  c #6A5B22",
"E  c #795C24",
"W  c #4A6921",
"Q  c #586926",
"!  c #427C2F",
"~  c #5C7321",
"^  c #447B38",
"/  c #776226",
"(  c #796725",
")  c #757124",
"_  c #9A4C15",
"`  c #8E541E",
"'  c #81521C",
"]  c #9C5117",
"[  c #AE460F",
"{  c #A6450E",
"}  c #B4400F",
"|  c #A74A18",
" . c #B34714",
".. c #BA4B12",
"X. c #B64914",
"o. c #AB511A",
"O. c #BC5010",
"+. c #8F7715",
"@. c #846B1B",
"#. c #AA7F16",
"$. c #9B5921",
"%. c #8C5826",
"&. c #A75624",
"*. c #BD5A23",
"=. c #866628",
"-. c #946127",
";. c #9A6229",
":. c #857829",
">. c #987528",
",. c #8F6831",
"<. c #A7642C",
"1. c #A67B2B",
"2. c #AD7C2A",
"3. c #A9782B",
"4. c #B47B2C",
"5. c #BE7A2F",
"6. c #B66B31",
"7. c #C7490C",
"8. c #CD520E",
"9. c #C44B13",
"0. c #CC4E13",
"q. c #C04710",
"w. c #CA5412",
"e. c #CE5913",
"r. c #CC5219",
"t. c #CB5C1C",
"y. c #C45013",
"u. c #D25514",
"i. c #D35C13",
"p. c #D45C1D",
"a. c #D95E1A",
"s. c #D4561A",
"d. c #CA651C",
"f. c #D56315",
"g. c #D66916",
"h. c #D4631A",
"j. c #DA651A",
"k. c #D46B1A",
"l. c #DC6C1B",
"z. c #D86717",
"x. c #DC741D",
"c. c #D77A1E",
"v. c #DC7A1D",
"b. c #D77014",
"n. c #E16F1F",
"m. c #E2741B",
"M. c #E37A1D",
"N. c #E37719",
"B. c #DB5820",
"V. c #D56A26",
"C. c #D77122",
"Z. c #DD7522",
"A. c #D47D24",
"S. c #DB7B24",
"D. c #CC792B",
"F. c #E06C21",
"G. c #E27B22",
"H. c #E47721",
"J. c #3F8427",
"K. c #3F8336",
"L. c #47831E",
"P. c #588714",
"I. c #69800C",
"U. c #60921F",
"Y. c #76991B",
"T. c #498824",
"R. c #5A982F",
"E. c #468938",
"W. c #568F37",
"Q. c #4E943F",
"!. c #529736",
"~. c #5A9B3A",
"^. c #558D28",
"/. c #6D8A2D",
"(. c #659728",
"). c #739F2B",
"_. c #7B9623",
"`. c #659C36",
"'. c #6BA12D",
"]. c #6FA734",
"[. c #4D9043",
"{. c #599A40",
"}. c #4B8E47",
"|. c #669E49",
" X c #609545",
".X c #61A24B",
"XX c #69A840",
"oX c #95991E",
"OX c #8F9A20",
"+X c #9E9C23",
"@X c #948B3C",
"#X c #AF812C",
"$X c #B3822C",
"%X c #A29E3D",
"&X c #BA973E",
"*X c #B78E36",
"=X c #AEA838",
"-X c #D48026",
";X c #DC8324",
":X c #D5832C",
">X c #DC822C",
",X c #CF9829",
"<X c #DC902C",
"1X c #D19C2F",
"2X c #CB8A36",
"3X c #D98A37",
"4X c #CF9A3E",
"5X c #D99A38",
"6X c #E58223",
"7X c #EA872C",
"8X c #EC8D2C",
"9X c #E78228",
"0X c #EF952D",
"qX c #E3912C",
"wX c #EE9332",
"eX c #EB9A35",
"rX c #F19A34",
"tX c #F49737",
"yX c #DEA53E",
"uX c #F1A037",
"iX c #AD8140",
"pX c #FFA642",
"aX c #D1A84E",
/* pixels */
"z e e a a a a a e z a e e e 2 a z e - t p m a d r r g y a e p u z e e 2 2 2 2 z 2 z v a - 2 2 a y e ",
"a y y y e e e e y y e 2 a a a z y y 4 t u u y g g y a 2 e a m a a a 2 2 e e y e 2 e e z a a y a e e ",
"e e e e e a a e a e e 2 e e a z e m z ; - p z e 2 y a u e t a e e z e e e y z 2 v y 2 a z a e e v z ",
"a y 2 2 e a e 2 e e z e z e e 2 a y e z t ; 4 k 1 k u u e 4 a y y a a a 2 2 y 2 a a e e e a y y a a ",
"a e e e a a e e y y z 2 a a z 2 1 1 k y 4 y 1 1 0 E.a y k , 3 3 a e a a 2 2 e a e e e e y e a a e e ",
"- e e a a e e z y a v 2 2 2 z a 5 : 5 2 r b c < 9 .XK.k 5 , 3 5 z 2 e e e a y v a e 2 e y 2 e a e e ",
"e z z e a 2 2 e 2 e v z e e y e - k k . # ^  X7 7 .XE.4 : x E.! a e 2 2 2 e e a a 2 2 2 e e a z 2 2 ",
"a z y 2 e y e e z e 2 e y a z t q t e z e r |.W.> {.Q.1 1 Q.W.x x M a e 2 2 y e e e a 2 e e a e e a ",
"e e e a 2 2 z z e e a 2 2 2 2 z p u t a a 5 T.XXL.!.!.> J.~.> 0 [.}.v e y e a a e e a y y a e z a a ",
"a 2 2 a a e a a e 2 z a 2 2 e t p t a e 2 1 8 `.R.R.T.8 ~.8 9 .XE.. 2 e e z a z a e e 2 a a 2 2 a a ",
"z a e a a 2 2 2 e a a 2 e y e 2 r + r e - k 8 R.'.(.U.(.P.^.|.x a 2 y 2 2 a 2 . e e a e a a e e e e ",
"y a e 2 e a a 2 a - a y 2 e z # b r a e 2 x 7 (.).Y.P.).).`.c d y y 2 e a 2 - y - e a e 2 e 2 e e e ",
"a y - - e z z 2 2 2 a a z 2 2 a r v 4 t y @ o /._.Y.Y.).'.L.3 g y e y 2 e a y z a z a y a a a e e e ",
"a a 2 2 a y e 2 y e a a 2 2 v y d < X K ~ U ) %X=X+XoXOXI.N % s r y e z v 2 - a e a 2 2 e 2 2 2 2 e ",
"2 e 2 e a e e a a z 2 - a a v r 7 H :.&X4X5XyX1X1X1X,X,X#.+.I N + v a y a y e 2 e a e e e 2 y a e y ",
"e a 2 2 e e e 2 a 2 - a v e a d O @XaX5XwXtX0XrXeXrX0X8XqX5X*X@XQ o 3 y 2 a y t e a e y y 2 a a y y ",
"a e e a e y z 2 2 a a e 2 2 4 @ P &X2X<XeXuXpXtXrXtXwX8X7X>X:X2XiX/ X k y - m e - e a e 2 y 2 y r e ",
"a z e e a e y a a z a y e e e % @.2X:X;X<XqXwX7X9X9XG.G.x.l.h.d.<.=.% 5 v e i a q - y r g y 2 y e e ",
"e e 2 e a 2 e a e a e y a e t 6 >.3X:X;X;X;X6XG.G.x.x.l.g.i.8.O.$.( 6 1 z t r a p t r d v e 2 e t e ",
"z t y z e 2 y 2 2 e e y e e e % 1.3XS.G.6XM.G.m.m.x.l.g.f.u.7...-.L 6 1 2 y p p e t 2 3 a a a e t t ",
"z t e a e e a 2 y a a a e 2 e % 1.3XS.G.M.M.M.m.l.l.z.f.e.7.7. .,.V 7 y 2 r a t - e 2 2 e e a t e e ",
"e t 2 2 e y y y a v a a e e a G 1.>XS.M.M.N.x.x.l.j.f.i.8.7.q.o./ W d a r r t a e e 3 r a - e t y y ",
"z z e e y e e y e a a e e y z F 1.A.c.v.N.N.x.x.l.j.f.e.0...X.$.C f r r a r e a 2 2 3 y t e e a a t ",
"e 2 e z e 2 z a 2 y e e y a a % 1.-Xc.v.N.N.b.g.f.i.e.w.9. .] =.V 3 2 r y r y e 2 2 y 2 2 t e e e e ",
"e e a a 2 e a e e y y e e y e O 1.-X;X6XG.9XG.H.F.a.w.r.9.| -.Z & z e e 2 e t 4 t a y r e - t t z z ",
"z a y e e y a 2 2 2 e e e y e % 1.A.c.v.m.m.l.l.h.a.p.9.} | / V r t q a a y 2 e e a a y 2 e a e a a ",
"2 e v a a 2 2 2 e e e e e y a H #XS.c.M.m.m.l.j.a.a.s.9. .<.C 7 e p t t y z e - e e a e - t a 2 a a ",
"a a a 2 y 2 e y e e y a a a a F 2.S.v.M.m.m.l.j.a.u.0...&.,.V 3 a e e t e e - a a 2 a a e a a a a a ",
"a a a e a 2 e a a e 2 e e e e B 2.S.x.G.m.n.l.j.p.s.0.X.;.R & i a 2 e 2 t t e z y . y z e e a z e t ",
"2 2 a v a 2 e a z y 2 e y e a G 4.S.Z.G.m.l.l.h.p.p.r.o.( V h a g a e - k z a e y e a a e e e e a y ",
"z 2 - a y a y y e e y v v a e B 4.S.c.x.l.l.k.d.V.t...] L 6 i i g r e t z e e r a a a a y y y 4 2 2 ",
"v a e v y a e e e e e y y 2 e G $XS.c.Z.l.l.V.V.t...{ ` J d u p # r a e t - a y y t e t y 2 4 e a y ",
"a y e e 2 e z a y a e a e e e W $XS.Z.F.n.l.l.h.y.[ $.S * y - a 2 2 e e e e e 2 a z y - 2 e 4 2 t p ",
"e a e 2 a y 2 e e y 2 e 2 e 2 F $XS.Z.n.l.j.f.w.q.| %.T h t 4 a t a a a e y e 2 e e a z a e a v 2 e ",
"2 2 e 2 2 e y e e a e 2 e a e F 4.Z.Z.x.l.f.i.w.} | R * $ e y a a a a y y a y e a e a a e a a   e y ",
"a e a a 2 e a e v v a e e a a B 3.Z.C.k.l.f.i.9.[ ` Q r r r e 2 e a e e y e e a e - 2 e a a z v 2 e ",
"- y y e a a 2 e y e e - 2 e e % >.D.C.j.f.i.7.[ $.R f e e r y a e e 2 2 e e e a v z 2 2 a e 2 y z v ",
"2 2 e e y y y a a e a a z z z 6 :.5.V.j.i.w..._ E Y r q e y y v a a e e e e e 2 a a -   a z 2 2 2 e ",
"v a a a 2 e z a z e a e y 2 e $ L 3.V.B.r...| ' V $ e p a t t e a y e y a y e 2 e e e e z e 2 z e y ",
"2 e e 2 e e e z a 2 e e y e z d B :.6.*.o._ D Z & y # r t w v z a 2 e a a a y 2 a a e e e a e 2 e e ",
"e a e 2 e a a 2 z e e y e y e a < H ) S S A V s r z r r k e r r e e z 2 e m y 2 2 e e e z a 2 e a t ",
"z a e e 2 e e e a a z e - e z v 4 3 % B % * h z t a y r y e i i a e v e a e e a e e a a e e a a 2 e ",
"a e e a a e e y a e e 2 2 e e y y , $ f h r a p a a e 5 y e y r a 2 a 2 e - 2 a 2 2 e e 2 e a e e a ",
"y 2 2 2 2 2 2 a a 2 e y a z e 2 a r 2 a a u a u e y 4 4 a r g g a e e e y z a a e e e e e a a 2 e e ",
"a e a e 2 e 2 e e e a 2 2 z a e e e t e n u a y 2 y t t d d v a y e e e a v z e e a a e a a a a e 2 ",
"e e v z a z e e e e a e 2 e e e - y a u n l y 2 a z l p g r y 4 y 2 e 2 z e y 2 e a e 2 a y e a a e ",
"e 2 y 2 2 a y z a 2 e a a e 2 e r y y e e j 4 1 3 g a p i r j 4 k e a e a 2 a e a y e e e y y a y y ",
"v y a 2 2 e 2 a 2 - 2 e e a a y g r t a - z 4 1 3 g a i r r t 4 t a e 2 2 e a y 2 2 a a 2 2 e y 2 t ",
"a e e e 2 y a a y 2 e e e e a e e 2 e a a k v y 2 e e u r e e t e e y e e y z e y a e a a y e e a e ",
"z e y e - e a a a e e y e e e e a e a a e e a 2 e y e e e e e e e 2 e 2 e e a 2 e y e a a e e 2 y 2 "
};
