/* XPM */
static const char *enemy22[] = {
/* columns rows colors chars-per-pixel */
"50 50 237 2 ",
"   c #263C0E",
".  c #353912",
"X  c #5E2E13",
"o  c #5C3916",
"O  c #483613",
"+  c #63391C",
"@  c #5E3D24",
"#  c #673D23",
"$  c #1A5E18",
"%  c #235D1C",
"&  c #2C5C1C",
"*  c #285914",
"=  c #335C1E",
"-  c #3A5B1D",
";  c #365717",
":  c #31461A",
">  c #1D631C",
",  c #1C661A",
"<  c #23641D",
"1  c #2B631E",
"2  c #23691F",
"3  c #29691D",
"4  c #36621E",
"5  c #3C4923",
"6  c #245D23",
"7  c #2D5A24",
"8  c #365323",
"9  c #3B5D21",
"0  c #3C552A",
"q  c #325E2A",
"w  c #3C5E2B",
"e  c #385822",
"r  c #1D6521",
"t  c #1D6923",
"y  c #1F6C28",
"u  c #246622",
"i  c #2A6624",
"p  c #266A23",
"a  c #2A6B25",
"s  c #2C652A",
"d  c #246C29",
"f  c #2B6D29",
"g  c #256729",
"h  c #336424",
"j  c #396325",
"k  c #336A25",
"l  c #33632B",
"z  c #3B632B",
"x  c #326C2B",
"c  c #3A6B2C",
"v  c #3B6A26",
"b  c #267026",
"n  c #2A7126",
"m  c #25712A",
"M  c #2D722A",
"N  c #2C782E",
"B  c #32722B",
"V  c #37702B",
"C  c #356C32",
"Z  c #3B6C35",
"A  c #396936",
"S  c #387337",
"D  c #277732",
"F  c #524C1D",
"G  c #58451D",
"H  c #47571E",
"J  c #4E4A1B",
"K  c #68441D",
"L  c #464927",
"P  c #594926",
"I  c #4B5221",
"U  c #435B23",
"Y  c #4B5D24",
"T  c #475729",
"R  c #565826",
"E  c #595333",
"W  c #505332",
"Q  c #6B422A",
"!  c #644924",
"~  c #784827",
"^  c #675529",
"/  c #73552D",
"(  c #775429",
")  c #774A31",
"_  c #785935",
"`  c #436325",
"'  c #44642B",
"]  c #4B642B",
"[  c #476829",
"{  c #53672D",
"}  c #4B6B32",
"|  c #456837",
" . c #5C6D3B",
".. c #5A6831",
"X. c #457434",
"o. c #43743E",
"O. c #477838",
"+. c #5C733A",
"@. c #45722F",
"#. c #636B37",
"$. c #76673A",
"%. c #6C6C35",
"&. c #497544",
"*. c #517D4C",
"=. c #587943",
"-. c #786843",
";. c #67784C",
":. c #777547",
">. c #6B6E43",
",. c #824E2F",
"<. c #82522D",
"1. c #884A35",
"2. c #845234",
"3. c #8B5335",
"4. c #895A39",
"5. c #93583B",
"6. c #83623E",
"7. c #93653F",
"8. c #8A5D45",
"9. c #896A47",
"0. c #986948",
"q. c #88754D",
"w. c #95774B",
"e. c #987756",
"r. c #8F7751",
"t. c #A36A4C",
"y. c #A2724B",
"u. c #A9754D",
"i. c #A9784E",
"p. c #AC7352",
"a. c #A57B53",
"s. c #A77A5B",
"d. c #B27454",
"f. c #B47C59",
"g. c #907061",
"h. c #A37F67",
"j. c #57814D",
"k. c #51854C",
"l. c #78814B",
"z. c #718956",
"x. c #7B936A",
"c. c #778868",
"v. c #7CA36A",
"b. c #848955",
"n. c #8C885C",
"m. c #968358",
"M. c #849159",
"N. c #A6835B",
"B. c #B9855E",
"V. c #8D8C68",
"C. c #9A8A65",
"Z. c #8C9569",
"A. c #9A9469",
"S. c #9A9976",
"D. c #839376",
"F. c #A58967",
"G. c #A2936E",
"H. c #AA9668",
"J. c #B18971",
"K. c #A59272",
"L. c #A99A76",
"P. c #B29E7C",
"I. c #B89979",
"U. c #AE8A7A",
"Y. c #8BAC6E",
"T. c #92AB7D",
"R. c #A8A679",
"E. c #B3A37D",
"W. c #B1A978",
"Q. c #9A9589",
"!. c #988686",
"~. c #A69D87",
"^. c #A39D91",
"/. c #BD9983",
"(. c #9ABA95",
"). c #A8AB87",
"_. c #B5A482",
"`. c #B7AE89",
"'. c #BAAC8A",
"]. c #B7A984",
"[. c #BCB28E",
"{. c #B7B78A",
"}. c #A9A697",
"|. c #BCAD93",
" X c #B7A797",
".X c #BBB292",
"XX c #BBB897",
"oX c #A4B591",
"OX c #B9A8A4",
"+X c #BAB3AC",
"@X c #B8B9A7",
"#X c #B6B2AC",
"$X c #C2A788",
"%X c #C2B38C",
"&X c #C7B68C",
"*X c #C9AD96",
"=X c #D2AD97",
"-X c #C2B392",
";X c #CABA97",
":X c #DAB998",
">X c #D3B48B",
",X c #C4B5A2",
"<X c #DFBBA9",
"1X c #C6BCBD",
"2X c #E3BDA9",
"3X c #B5C995",
"4X c #A9CB8F",
"5X c #BCC5AC",
"6X c #CDC395",
"7X c #D3CA9C",
"8X c #E4C19B",
"9X c #DCCCA5",
"0X c #D9C8A5",
"qX c #C6D8A6",
"wX c #DBD3A9",
"eX c #C5C8B8",
"rX c #DDC4B5",
"tX c #C7CEA5",
"yX c #E8CDA6",
"uX c #ECD5AE",
"iX c #F6CFBA",
"pX c #EDDAB5",
"aX c #F8D6B7",
"sX c #F2CEAF",
"dX c #DDE8B6",
"fX c #CCE7B2",
"gX c #E8E4B7",
"hX c #F7E3BB",
"jX c #CCC9C7",
"kX c #D3CECB",
"lX c #D3D3CE",
"zX c #CFD9C1",
"xX c #F7D8C3",
"cX c #D5E3CC",
"vX c #F5F9CA",
"bX c #FDFFD4",
"nX c #F9ECC0",
/* pixels */
"a a f f d m f a N m u a p , 3 1 k & 1 u p n d m p f k i V u r > d p p < i u u < p 2 n N a < i s p d ",
"f u < u p p p u M a i = j 9 ` { ..Y ] - j j < i f a i < i u M f p p p u a i a a a > , p a f f i a n ",
"p 2 a f p 2 2 i i & ' ..:.q.9.0.0.6.9.6.^ I T j k a d d u u x p p p p a a i i f a p 2 2 2 f x a a a ",
"a < < a M a i & 7 ' :.9.9.8.1.1.1.3.1.3.2.+ P I w x f d p a B f p b p f a i u a a d n p 2 p f u a a ",
"a 3 a a > 2 i j ] #._ ) Q Q Q ) # X X + X + # O J U i d d d d p p p 2 a a a u a a p 3 2 2 p a u a a ",
"B a p p d d a & e I -.e.s.J./.U.J.I.I.e.9.8.# O . 8 i d m b 2 2 a p 2 u u i u a M p p p 2 p a p a p ",
"d p a f d r r u k z S.-X*X=X2X2XiX:X=X$X$X%XL.>.e l a d p d i i M a p 2 u u u i f a a a 2 p d p a p ",
"D y u a f d d m u X.T.-XpX2X<XxXiXiXiXsX0XK.S.;.l a d d > p k i f a a 2 a u i u a p a p 3 p d 2 a p ",
"y d a i a u f a i j.tX;XxXg.U.2XxX=Xh.=XxX*XV.' A s r m > a a 2 p p a p a a i x u i i a p p p M a a ",
"r a i i u a a u s w :.|.rX X XrXrX,Xg.<XxX|.qX=.7 f r > m d 2 p a p 2 p p u a i f i f u u f a p a p ",
"a i c 1 2 2 f a g s x.5X XOXOXOX X X,X,XXX).x.w c % f u p p p 2 a a u a 2 < f i u u f i u a p > 2 2 ",
"B < * 1 B 2 > u g s (.cX#X}.OX!.+X^.}.eX5Xz.8 l i u u a B a u a f u > p a M i % s C s f i u 2 p a a ",
"2 p < 2 n N a x 6 6 T.cX5X+X1X1X+X+X@XzXoX&.s f a a $ a a $ p > u a a p p a % x k.o.C x s a a a u p ",
"p t p 2 N 2 & & z | c.}.eXlXkXjXjXkXeX@XD.| q i i a M 2 a 2 u f a a a u a B < S k.Z &.C 6 f f u p a ",
"d > f f < i x.3XZ.). X~.#X+XlXlX1X+X}.Q.}.).Z.oX+.* i p > d i i u a a a p M u o.C S &.o.s s i u p p ",
"g f i x & T.dXnX`..X|.|.~.Q.}.}.Q.^.}.@XXX~._.nXdXY.1 a p d f i x p < f i x i c l j.z k.o.C i d f f ",
"y f i j 3XbXwX9XE.'..X.X|.L.V.S.S. X-X|.|.P.P.9XwXbX4X& f M f i f p < 1 h h 9 ' } =.=.j.*.S S 6 s i ",
"M % @.qXvXnXpX&XK.]..X.X-X_.C.A.L.'.-X-X-XP.G.;XpXgXvXqX' & 4 < 3 i k V X.X.X.O.' z | Z *.A &.A s i ",
"a l 3XgX9XhX9XE.n.].'.'.'.'.G.F._.-X`.{.`.L.V.R.9XhXpXuX7X#.- v O.O.O.X.V x k 1 i s 7 Z *.| &.A s u ",
"% v.gX9X&X%XV.I >.R..X-X.X.XK.K.P.[.`.{.[.S. .Y C.>X:X8X>XA.j.@.j j k i < 3 a 2 d u s s l *.| o.x u ",
"} fXvXgX6Xb.* &  .S.[.[.`.'.G.G.L.[.[.%X].G. .U ..7XaXaX>X6XY.1 c k i i < > d d d $ f 6 s Z Z &.x u ",
"Z.vXgX7X{.+.% k +.S.`.[.[.'.K.F._.%X].E.F.q. .} ] b.6X&XW.M.@.V x i i f a p b M t d d f C 6 Z S S a ",
"%XhXyX6XR.` i <  .n._.%X%X].F.F.h.F.F.F.F.:.} & h & ` ` = 1 1 k u u 2 a a p p a M a a a u u u S S f ",
":XuXyXyXb.- c & :.m.K.K.A.C.r.r.F.I.$XI.H.n.=.k i a k i p d B < p a p p a a p a p 2 u u u d u u < < ",
"$XuXsXyXn.U ` ] q.q.r.C.A.L.C.F._.E.P.L.m.Z.z.k i M i 1 a a u < < a a p 2 2 p p a p m d a a < u a a ",
";XhXaXaX{...` { 9.e.I.I.E.G.m.F.G.E.P.H.L.R.z.j f 2 u i u 2 a a i i a a a a p > 2 d d m a u a a a a ",
"XXgXyXyX{.{ ; +.m.0.s.s.F.r.q.r.e.e.F.F.N.q.:.{ 1 > u a u u a f a a a a a a p > p d p M a < a a u 2 ",
"U l.n.b.+.; [ R.N.y.t.0.6.9.:.$.$.6.0.t.0.e.N.$.& p u u a a u f a a u u u p p p f 2 p a a a 2 p f a ",
"u < 1 & * ; l.H.w.N.p.0./ R - - Y $.y.f.p.p.p.w.[ h i i f u > d f a p u u a a a f < 2 p a m p d f a ",
"m b N a 3 ` H.N.a.7.0.0.^ U c i j H / p.f.d.p.a.#.4 h i i a d d m a p p a f a a a f 2 a M p d a f a ",
"> > n a k +.H.y.y.f.0./ ] 1 < a a 4 ^ 7.y.u.d.a.$.H k a 2 B M a a a a a a a a p a M p a M u u a a a ",
"m p B k - b.N.B.f.y._ I = a f 3 , k H ^ a.i.y.a.w.R 4 a x f > a u u a a a d a d p d a 2 f f > a a a ",
"m m a * { m.a.p.d.4.R j k a a M d a j R 9.f.u.i.w.^ * p p u u u a 2 2 p p p p p p a M p p 2 p u a u ",
"d > d 4 #.m.a.p.t._ U i p a 3 a n f x U / y.u.u.u./ 4 n a i u a f a a a p p a p p p a a a p f M a u ",
"u > p 4 #.w.y.7.,.! = < p f a a p 2 a & H 9.s.d.t./ ` i i 3 2 i a a f a p a a p p 2 p p a p a M a a ",
"f a d 1 R $.6.~ ~ F e 2 u a a 2 B a n 4 H ^ 2.5.5.! ` 2 a a 3 a a p a p p a a p a p p p p p a a a a ",
"k < d k U ! ( <.K F j a p a a 3 < < 3 k Y ^ ~ 3.) P x , p n a a a u 2 p p a p u a a a p 2 p a p a a ",
"i < p f H F ( <.K F j d a d a a a a p h R / ,.,.K I f t t m i i f p p p a a p 2 2 a p u 2 a a p a a ",
"k x d p - R ( ~ ~ P j d a p u a f d d h R _ 5.~ F H 1 p 2 a a i f a a p p a p 2 p a a a p a a a a a ",
"& i p p h Y ( 3.~ G = p a p a f g r y l P 2.3.K H j & a i a i x a a a u 2 p p < u a p a u p 2 p p p ",
"x < d > i ] ^ 3.~ G j a f a f u d d r c P 2.2.o 9 x i i a a u a p M M u 2 M M u 2 p p u a a p p p p ",
"i a p p u ' ^ 2.~ ! = 2 u > B a u r d j P ) Q G e a f x u u u u a a f a p p p p a a p p a p p a p p ",
"i i d f u z ^ ) Q P 9 p a u f a i p p h G # # P | f s i p b b p M a a a p 2 p a a 2 2 p p u p a 2 2 ",
"< p a u s w E Q ! O ' f f d < a < a p c P @ @ P 0 q z k a p p p a a a p 2 p a a a 2 2 p 2 u a M a a ",
"a a u u l 0 E P O : j u a d 2 a 3 a , i T L P E L T L 8 c x p M p a p 2 u a M a f a a a p p f M a u ",
"a M u l w T W L . 8 l u p p a 2 a p a k w T 5 5 L 5     l f p d p u p p p a a p a a a a p p a f f a ",
"< p u k 0 W L 5 : l s a f p n > N a f s i s i i l q q s x a f f p p a a p p a p u u p p a p p a a a ",
"a p u 6 0 5 0 8 q i a i M p p M p a u i i u m y B i f a u u a u a a a p 2 p a a a p 2 a f 2 < a u u ",
"p a 2 u x c c x i u u a u p p p p 2 B B f f m a a a u a a u u a a a a u u u a f u a p u a f a a u d ",
"p p 2 2 a f d a p p u a u p p p n 2 M a p p f u a a a u a a p a a a u u u u p a u p p p a a p u p d "
};
