/* XPM */
static const char *mushroom2[] = {
/* columns rows colors chars-per-pixel */
"50 50 247 2 ",
"   c #040406",
".  c #03050B",
"X  c #09060C",
"o  c #03080E",
"O  c #0B090D",
"+  c #040710",
"@  c #0A0710",
"#  c #040B13",
"$  c #0B0A13",
"%  c #040E19",
"&  c #0C0C19",
"*  c #110C14",
"=  c #130C1B",
"-  c #180E1E",
";  c #051015",
":  c #03111D",
">  c #0A121D",
",  c #16151A",
"<  c #160E22",
"1  c #180E26",
"2  c #031422",
"3  c #0A1424",
"4  c #091725",
"5  c #031A2A",
"6  c #0C1C2D",
"7  c #141223",
"8  c #1A1224",
"9  c #181925",
"0  c #1C132B",
"q  c #121B2C",
"w  c #191934",
"e  c #20172C",
"r  c #221736",
"t  c #0B262C",
"y  c #1E2126",
"u  c #17252D",
"i  c #092639",
"p  c #172737",
"a  c #0E363B",
"s  c #14353B",
"d  c #21242A",
"f  c #252835",
"g  c #28333A",
"h  c #1D1E47",
"j  c #2A1A44",
"k  c #2A1E44",
"l  c #0F294C",
"z  c #182744",
"x  c #0B3549",
"c  c #153747",
"v  c #0D3852",
"b  c #113655",
"n  c #262848",
"m  c #362B48",
"M  c #26354C",
"N  c #2A2D56",
"B  c #372957",
"V  c #283758",
"C  c #38365B",
"Z  c #193D70",
"A  c #363267",
"S  c #383A65",
"D  c #42355C",
"F  c #48316C",
"G  c #463A68",
"H  c #463674",
"J  c #164245",
"K  c #0E465A",
"L  c #13435A",
"P  c #125058",
"I  c #264A53",
"U  c #0E4965",
"Y  c #134464",
"T  c #154A68",
"R  c #0D556A",
"E  c #175B67",
"W  c #12526C",
"Q  c #194876",
"!  c #0E5A74",
"~  c #155A76",
"^  c #165678",
"/  c #2B4667",
"(  c #284D6F",
")  c #3A456A",
"_  c #3C4977",
"`  c #285976",
"'  c #3A5879",
"]  c #14636B",
"[  c #126974",
"{  c #12677A",
"}  c #4C496F",
"|  c #474479",
" . c #544676",
".. c #46567B",
"X. c #614C7C",
"o. c #1A359A",
"O. c #503A88",
"+. c #1C4B8F",
"@. c #175A86",
"#. c #314E8D",
"$. c #136485",
"%. c #196789",
"&. c #127389",
"*. c #176D98",
"=. c #0E7191",
"-. c #187596",
";. c #137D9C",
":. c #2C6184",
">. c #256989",
",. c #366685",
"<. c #27728D",
"1. c #2F6F97",
"2. c #247897",
"3. c #1850AD",
"4. c #2247B8",
"5. c #1B6AAE",
"6. c #1A79A3",
"7. c #2875AE",
"8. c #3473A2",
"9. c #4A4785",
"0. c #475586",
"q. c #524B90",
"w. c #4D5D99",
"e. c #515A99",
"r. c #65578A",
"t. c #695B97",
"y. c #765C99",
"u. c #4F6698",
"i. c #584BA5",
"p. c #5153AD",
"a. c #6957AF",
"s. c #4A72AA",
"d. c #5579B7",
"f. c #7A67A4",
"g. c #6872A8",
"h. c #736DB5",
"j. c #6C78B8",
"k. c #207ECA",
"l. c #6B5FC4",
"z. c #4C71C6",
"x. c #6B6AC4",
"c. c #6C76CC",
"v. c #7476CA",
"b. c #787DD2",
"n. c #856AA4",
"m. c #8A75AE",
"M. c #866FB2",
"N. c #8979B6",
"B. c #927BB8",
"V. c #8D7CC3",
"C. c #158791",
"Z. c #15859A",
"A. c #34869C",
"S. c #1688A8",
"D. c #1795AC",
"F. c #1B8DB2",
"G. c #0F94B1",
"H. c #1E93B4",
"J. c #1B94BA",
"K. c #159AB9",
"L. c #2888A9",
"P. c #3884A6",
"I. c #288EB1",
"U. c #358AB8",
"Y. c #2B94BB",
"T. c #2699B9",
"R. c #3597B9",
"E. c #17A4BD",
"W. c #23A0BE",
"Q. c #38A4BC",
"!. c #4587BA",
"~. c #5386BC",
"^. c #4C94B2",
"/. c #7384BB",
"(. c #1A97C8",
"). c #2797C3",
"_. c #259DC2",
"`. c #3897C5",
"'. c #16A4C3",
"]. c #18A9C8",
"[. c #14B1CC",
"{. c #1CAFD0",
"}. c #18B8D4",
"|. c #28A7C8",
" X c #37A8C7",
".X c #29B4CC",
"XX c #36B2CC",
"oX c #39ADD3",
"OX c #24B5D3",
"+X c #37B7D5",
"@X c #449AC6",
"#X c #5494CC",
"$X c #7989C8",
"%X c #7691CB",
"&X c #7985D5",
"*X c #619BD3",
"=X c #47A6C9",
"-X c #47ACD2",
";X c #58A6DB",
":X c #46BCD7",
">X c #56B7DA",
",X c #6FA8C0",
"<X c #66A5DD",
"1X c #5BB1E4",
"2X c #6AB0E3",
"3X c #23C5DE",
"4X c #28C3DC",
"5X c #36C9DD",
"6X c #48C4DD",
"7X c #54C4DD",
"8X c #46C7E4",
"9X c #57CAE6",
"0X c #4BD3E8",
"qX c #5BD1E7",
"wX c #65CAE5",
"eX c #65D2EB",
"rX c #7BD1E9",
"tX c #78D4EB",
"yX c #7AD2EF",
"uX c #67D8F0",
"iX c #8B80BD",
"pX c #9484BB",
"aX c #8D8ACC",
"sX c #9386C7",
"dX c #9C92CD",
"fX c #868BDA",
"gX c #8B93DD",
"hX c #8998D9",
"jX c #939ADC",
"kX c #A29FDC",
"lX c #8DABDE",
"zX c #94A5DD",
"xX c #8C98E3",
"cX c #9098E2",
"vX c #8EA0E3",
"bX c #94A2E2",
"nX c #98A9E7",
"mX c #9EB4EA",
"MX c #A1AEEF",
"NX c #A2B6EC",
"BX c #A5BAF1",
"VX c #89D8F0",
"CX c #ABC5F3",
"ZX c #B4CAF3",
"AX c #B1CCF3",
"SX c #9CE3F4",
"DX c #C2D7F8",
/* pixels */
"              . . . . + + + . + # 3 q z M C ) ..............) V n q 3 % + . . + . . . . .           ",
"              . . + + + # 6 n ) 0.g./.$XaXhXhXzXzXnXzXzXzXhXhXhX$X/.g.u._ M q & + . . . . . .       ",
"            . + + # q V e.j.$XgXgXxXbXbXzXnXNXCXZXCXAXZXZXCXNXNXbXbXbXcXjXfX$Xu.S w # . . . . . .   ",
"          . . % z 0.j.&XbXgXgXcXnXmXNXNXBXCXZXDXZXAXAXCXCXCXBXBXBXnXmXbXgXxXnXbXgXv.0.n & + + . . . ",
"      . . # z e.v.fXgXcXbXgXxXcXnXNXMXnXBXCXBXCXnXbXbXhXjXzXjXjXbXvXfXb.c.c.b.fXgXfXfXb.e.n % + . . ",
".   . . 3 _ v.b.b.&XfXxXfXv.fXgXgXgXfXfXgXgXfXaXh.t. .S S S ) | | 9.9.| | 9.q.a.h.x.x.x.v.v.q.w . . ",
"  . . w e.x.v.c.x.v.&Xx.a.a.h.h.f.r. .H G G S C V V ' ^.^.^.^.P.1.:.:.` ` V N N B D H O.O.i.a.i.h + ",
"  . h p.l.a.i.i.q.O.H A B D C C V / ( ,.,.1.8.^.,XrXqXuXVXSXuX0XuXtX8XrXtX7X=XR.2.` Y M n n B A H w ",
"  q i.i.O.O.F k n V ' ,.,.<.P.R.XXwXVXyXyX9X8XyXSXyX8X8XtXSX9X5XeXwXwXtX9X6X6X6X+X+X.XT.L.A.:.V n k ",
"+ A H B k n V >.R.XX:X8X9XqXeXqX8X8X9X9X9X8X8X9XtXtXeXeXeX8X8X8XwX7X:X+X.XXXXXXX X X XR. X=X X8.A j ",
"= B n / :.P.R.|. X XXXXXXX+X:X6X7X7X6X+X8X9X6X+XwXeX9XwX9X+X+X>X>X X_.T.T.Y.Y.R.R.@XR.U.U.U.8.S n = ",
"& k ( ^.`.=XY.Y.`.`. X X|.|._.|.|.oX:X6X+X6X6X+X+X:X+X:XXX X X XY.Y.R.`.`.=X=X!.#X#X!.!.s.#.N 0 $ . ",
". 0 C u.!.@XU.U.@X@X@XU.`.`.`.Y.Y.Y.)._.|.|.|._.J.J.J.J.F.F.F.I.`.>X1X1X1X;X;Xd.d.w.0.| n 7 + . . . ",
"  . & r S 0.u.s.~.d.~.#X#X<X2X;X>X>X-X`.).)._._.H.F.F.F.J.`.#X;X<X<X#Xd.~.s.#.S N w 7 % + . . . . . ",
"        + & q p N C S _ u.d.d.#X*X*X*X*X<X#XoXXXI.6.6.F._.d.s.u.w.0.S n p q 3 % + + o o o . . . .   ",
"    . . . . . . + # % > 3 w p z N V S ) _ #.P.R.2.@.@.6.S.c 6 6 3 2 : % % # # # + + o o o . .   .   ",
"          . o o + + + # # # % % % : 2 2 2 2 ~ T.%.^ ^ *.-.5 : : : : : % % % # # + + o o . . . .     ",
"          . o o o + + # # % % % % : 2 2 2 2 ~ T.%.Q Q *.$.2 2 : : % % % % # # + + o o o . . .       ",
"          . o o o + + + # % % % : : : 2 2 2 W H.@.Y Q 5.^ 2 2 : : % % % # # # + + + o o . . .       ",
"      . . . o o o + + # # # # % % : : 2 2 2 W J.%.Q +.7.W : 2 : : % % % % # # + + o o o . . . .     ",
". . . . . o o o + + # # # % % % : : : 2 2 2 W _.%.Q #.7.W : : % % % # % % % # + + o o o o . .       ",
".   . . . . o o + + # % # % % % : : : : 2 2 W _.>.+.#.z.^ : : % % % % % % % # + + o o o o . .       ",
"    . . . . o o + + # % % % % % : : : 2 2 2 ~ ).#.#.#.z.>.2 : % % % % % % % % + + + o o o .         ",
"    . . . . o o + + % % % % % : : : 2 2 2 2 %.@Xs.#.p.z.:.2 : : : > % % % % % # + + + o o o .   .   ",
"  . . . . . o o + + # % > w n C C M p 6 5 5 2.;Xd.p.p.z.:.2 2 2 : : : > % % % % % + + o o o . .     ",
"  . . .   . o + + + > m X.n.m.N.B.N.h.t.0.V P.2X&Xa.p.z.1.5 2 2 2 : : > % % % % % # + + + o . . .   ",
"    . . . . . + + 7 G y.n.m.B.pXsXaXsXiXN.g.j.%X$Xx.x.c.U.i 2 2 2 2 2 : : > % % % % % + + + . . .   ",
"    . . . . . o $ D y.y.y.n.y.f.y.r. .} } } | ' 0.w.j.&X@X~ 5 2 2 2 3 3 3 : % % % $ % + + + . . . . ",
"      . . . . + m X. .G C C V V / :.^.R.Q. XXX|.F.L.$XjX;X2.t z ) ..r.r.r.X.} m 9 $ # + + o . . . . ",
"        . . o e B V ` <.L.Q.T.%.%.6.:X+X.X.X.XW.R.~.%XNX2X!.u.f.m.B.sXdXsXB.B.n.r.D 7 + + o . . . . ",
"            & M 2.T.|.|.|..XT.$.~ =.H.T.T.6.-. X#X#XhXmXlX$XiXN.pXdXjXkXdXdXB.n.n.y. .7 o . . . .   ",
"          . @ c %.-.-.2.2.2.-.~ W =.S.T x i v -X=X~././.g.t.t.f.m.iXiXsXsXV.N.M.f.y.y. .7 . . . .   ",
"            . . > 6 p p p q t U U -.J.x 2 5 L >X-X8.:.:.,.,.....' ' ) S C C D D D C D G D 0 O . .   ",
"            .   .   . . + + % L U =.'.v 2 5 ` wX+XF.S.H.XX+X:X:X:X:XR.%.W W A.A.A.A.<.>.( M 0 X     ",
"              . .   . . + + % b Y $.'.K 2 i ^.9X.XF.S.F.J.)._.|..X.XW.-.W W P.Q.T.T.I.I.T.-.z X     ",
"            . .     . . o + # v U @.'.R 2 ` 7X+X].S.S.F.].$.Y W $.S.T.=.U L %.<.>.>.^ ^ T z $       ",
"              .   . . . o + # v T { '.! 5 2.OX.X'.S.S.K.OX%.i ! R W H.$.L x u q q q > $ . .         ",
"              . . . . o + + # v W $.].R 5 S.].OX].;.S.'.{.E.R =.=.$.L.~ v i +   . . . . . .         ",
"                . $ . . o + # v ^ %.].! i H.].4XK.;.G.].'.{.$.x x %.;.T x i + . . . . . . .         ",
"              . r H G w + + # L ^ =.].S.Z 5.(.}.G.Z.K.[.'.(.5.Z Y 2.=.v x 6 o o . . . . .           ",
"          .   - m G 9.N # + 2 W $.-.'.F.Q Z +.F.G.S.'.}.6.+.#.+.o.*.~ x x i n k 1 o . . . .         ",
"              + $ z ^ 3 + # 6 ^ $.;.[.'.-.U S.K.K.'.[.}.K.6.Y ^ @.^ U x x z V S k < X X $ X .     . ",
"X X X $ & $ . . . & Q %.6 > K $.$.S.}.'.-.K G.E.[.[.}.}.'.D.U S.;.&.R v K L z N 7 = * = 8 - * $ $ = ",
"= - - 0 0 7 = = 7 0 w %.;.T $.$.;.OXOXZ.U R ].4X3X[.}.(.k.5.@.S.;.&.] R v b z h w 0 8 0 e 8 8 , = - ",
"r 0 8 0 0 8 8 0 0 r n N *.=.=.S..X4XS.{ K Z..X0X5X(.5.4.4.4.o.3.=.[ P K i v l 3 q w w 0 < - 8 8 8 e ",
"r 0 0 e 0 0 r r r n / ` ~ ! C.G.[.E.Z.[ [ Z.D.E.E.~ b l l l l l v P P a t i 5 3 w 0 0 - < 8 8 8 0 = ",
"r r r j j 0 r n m I I ] [ C.Z.H._.Z.&.[ &.S.T.D.Z.C.] P t > 2 > a J c s a a t t u u 0 8 < 8 8 8 < = ",
"= = 0 j r 1 8 f f g M I E E L b Y ^ <.<.T Y T W E P J t ; # > > t p u p s J c u 9 , 9 8 0 0 - = * = ",
"< = 8 < < 1 < * , e d f g g d d d u p p u 9 9 u M J p > O O $ , , y d y y y 9 , * * * * 7 = * = = $ ",
"0 0 1 $ X $ & X X O $ $ , , , , , 9 9 9 d d d d d u y , * * , , , , , , , * $ O X     $ 7 , 8 7 = = "
};
