/* XPM */
static const char *mushr1[] = {
/* columns rows colors chars-per-pixel */
"50 50 251 2 ",
"   c #030406",
".  c #04050B",
"X  c #09060C",
"o  c #04080E",
"O  c #0B090E",
"+  c #020611",
"@  c #040B14",
"#  c #0B0A13",
"$  c #040E1A",
"%  c #0B0D1B",
"&  c #0B0712",
"*  c #120C14",
"=  c #130C1B",
"-  c #190E1F",
";  c #03111C",
":  c #09121C",
">  c #09171C",
",  c #14131B",
"<  c #18161D",
"1  c #16151A",
"2  c #160E22",
"3  c #190E26",
"4  c #041422",
"5  c #0A1423",
"6  c #07192A",
"7  c #121425",
"8  c #1B1224",
"9  c #1C132B",
"0  c #171827",
"q  c #1A1A34",
"w  c #0C0E2A",
"e  c #22152C",
"r  c #211533",
"t  c #27183A",
"y  c #0C2429",
"u  c #192429",
"i  c #09283A",
"p  c #162538",
"a  c #163337",
"s  c #0D3539",
"d  c #222126",
"f  c #22252B",
"g  c #272937",
"h  c #2C333B",
"j  c #1A1C47",
"k  c #2B1B46",
"l  c #331D4B",
"z  c #341F51",
"x  c #082A45",
"c  c #182645",
"v  c #0D3549",
"b  c #163749",
"n  c #0E3C56",
"m  c #123B54",
"M  c #143A59",
"N  c #122652",
"B  c #282949",
"V  c #372649",
"C  c #253548",
"Z  c #372955",
"A  c #2B3759",
"S  c #373458",
"D  c #2C2A55",
"F  c #183C68",
"G  c #183575",
"H  c #383966",
"J  c #353273",
"K  c #422855",
"L  c #47365E",
"P  c #483866",
"I  c #4A3B76",
"U  c #4E326D",
"Y  c #174547",
"T  c #0D4658",
"R  c #164559",
"E  c #0F5057",
"W  c #2B4A56",
"Q  c #0B4864",
"!  c #124D6B",
"~  c #144764",
"^  c #0E5469",
"/  c #14566B",
"(  c #184675",
")  c #135473",
"_  c #175878",
"`  c #0F5A7D",
"'  c #374869",
"]  c #3C4877",
"[  c #265A79",
"{  c #385A77",
"}  c #284E6C",
"|  c #0D6278",
" . c #17677A",
".. c #136A72",
"X. c #30657F",
"o. c #465177",
"O. c #524874",
"+. c #2C3C8B",
"@. c #1C2EA1",
"#. c #4F3788",
"$. c #623C85",
"%. c #175C83",
"&. c #0E5281",
"*. c #235C86",
"=. c #314F8E",
"-. c #176789",
";. c #186C94",
":. c #0D7696",
">. c #167897",
",. c #116E88",
"<. c #296687",
"1. c #25789B",
"2. c #2C7094",
"3. c #1A52B5",
"4. c #1777A4",
"5. c #1B71B4",
"6. c #2A76AB",
"7. c #2040A3",
"8. c #444F85",
"9. c #485689",
"0. c #5A5885",
"q. c #515A96",
"w. c #4F4B93",
"e. c #664C88",
"r. c #6C5B91",
"t. c #516597",
"y. c #73669A",
"u. c #5351AA",
"i. c #6B55AE",
"p. c #4968A4",
"a. c #5866A9",
"s. c #557AB7",
"d. c #5374B7",
"f. c #7C64A5",
"g. c #7879B5",
"h. c #6870AE",
"j. c #2548C3",
"k. c #3378C8",
"l. c #5177CE",
"z. c #6966C6",
"x. c #7469CB",
"c. c #7575C6",
"v. c #787BD6",
"b. c #6779D3",
"n. c #6D66D3",
"m. c #8569A5",
"M. c #8871AA",
"N. c #8A78B3",
"B. c #957DBA",
"V. c #9374AD",
"C. c #8F7AC4",
"Z. c #148599",
"A. c #188D93",
"S. c #2F889B",
"D. c #1B8BAC",
"F. c #1686A7",
"G. c #1595AA",
"H. c #1A8CB5",
"J. c #1695B7",
"K. c #0E8CA8",
"L. c #2485A5",
"P. c #3688A7",
"I. c #288DB6",
"U. c #3589B8",
"Y. c #2698BA",
"T. c #3696BA",
"R. c #2F91A7",
"E. c #0FA3BA",
"W. c #25A2BC",
"Q. c #3CA1BC",
"!. c #4998BC",
"~. c #4F8CB4",
"^. c #53A0BC",
"/. c #1A9CC6",
"(. c #1A97D0",
"). c #239EC3",
"_. c #2A9AC2",
"`. c #3997C5",
"'. c #2481CF",
"]. c #18A9C6",
"[. c #18B3CA",
"{. c #18AED3",
"}. c #1AB6D7",
"|. c #0EB3CB",
" X c #27A6C7",
".X c #34A7C6",
"XX c #29B3CE",
"oX c #39B3CB",
"OX c #2AA7D1",
"+X c #2AB7D4",
"@X c #33B3D3",
"#X c #3AB8D8",
"$X c #33ACD1",
"%X c #5888C3",
"&X c #4A93C5",
"*X c #7989C6",
"=X c #7985D6",
"-X c #6390CE",
";X c #46A9CA",
":X c #56A3D5",
">X c #46B9D7",
",X c #50B1D6",
"<X c #69AAD9",
"1X c #5BADE4",
"2X c #56B1E5",
"3X c #6BB0E8",
"4X c #6A98E3",
"5X c #13C4DB",
"6X c #32C4DD",
"7X c #1DC4E2",
"8X c #24C5E1",
"9X c #39C7E3",
"0X c #3BD1E2",
"qX c #48C6DE",
"wX c #54C8DD",
"eX c #4CC9E4",
"rX c #57C9E5",
"tX c #56D6ED",
"yX c #5CD9F6",
"uX c #47D0F0",
"iX c #63D2E9",
"pX c #6FD2EC",
"aX c #6CE2F9",
"sX c #74E7F9",
"dX c #9585BF",
"fX c #8A8AC9",
"gX c #9687CA",
"hX c #8487DB",
"jX c #8894DA",
"kX c #9594D4",
"lX c #8BA1DD",
"zX c #8E99E3",
"xX c #8C95E4",
"cX c #939CE5",
"vX c #868DE3",
"bX c #9CACEB",
"nX c #97A6E7",
"mX c #9BB3E8",
"MX c #8CADED",
"NX c #A3B6EA",
"BX c #A5B7F2",
"VX c #A0A9EB",
"CX c #A49DD9",
"ZX c #86D8F2",
"AX c #AAC6F4",
"SX c #B4CAF4",
"DX c #B0CBF1",
"FX c #89E3FB",
"GX c #99E3F9",
"HX c #ADEBFB",
"JX c #C4DAF9",
/* pixels */
"      . . . . . . @ @ o     . @ 5 p C ' o.] o.o.o.o.' ' A B p 5 + .   . + @ @ . . .     . .         ",
"    . . . . @ @     . 5 C ] t.h.*X*XjXcXnXnXmXbXbXbXnXnXzXjXjX*Xh.9.' c 4 o   o @ . . .     . .     ",
". . . + @ @ . . 7 H a.*XzXbXnXVXnXcXNXmXAXSXSXDXAXSXDXNXnXlXnXcXcXzXcXjX*Xq.A 7 . o @ o o   . .     ",
"  . o @ . . c q.v.cXbXmXjXhXnXNXbXAXAXAXAXDXDXDXSXSXJXJXAXBXNXBXmXnXzXjXzXbXjXc.9.p .   @ o . .     ",
". +   . c a.vXvXjXjXvXv.b.=X=XxXbXbXnXnXbXnXzXbXnXbXSXBXAXAXnXBXBXbXxXzXjXnXcXjXxX=Xt.q . o @     . ",
"o   w q.v.v.x.z.c.c.i.w.#.I I O.I P H S D D D P r.c.kXjXzXnXxXhXcXxXxXhXc.jXcXhXhXv.v.=X] $ . @ .   ",
". j i.x.i.#.#.U Z z k B m } [ [ [ 2.P.^.^.!.~.{ c B D D Z L P U e.f.C.c.f.i.x.4Xv.z.b.x.v.a.w   .   ",
"q #.K t t t c m [ 1.T.;XiXFXFXuXsXaXuXsXHXFXaXyXZX<X~.2.<.<.{ ~ A B V Z K z z H I w.u.i.i.x.z.q   . ",
"l t b X.P.R.Y.+X6XqXeXeXqXrXpXpXrXiX8XeXGXZX9X9XFXGXFXuXyXFXFXGXpX@XQ.P.-.<.X.} b q t K #.#.i.i.w   ",
"k J 6.>X>X.X_..X.X.XoXoX@XXX@X>X,XiXqX9X9XiXiXyXpXpXwX6XwXeXeXrX9XuXaXaXaXyXtXeX#X.X2.C q t k #.J . ",
"# B J 6.T.U.I.T.;XU.T.Y.I.Y.Y.Y..X,X,X#X+XrXpXtXiXpX#XqXiXeX+XqXrXwXwX>X@X@XXXoX$X$X@X$XP.*.} q Z = ",
"  o 8 D 9.s.~.&X:X&XU.:X:X`.`.T.I.I.Q.;X.XoX>X#X>X#X@XqXqX#XwX>X$X X)./.)..X.X.X`.`.T.I.;X`.;X} k # ",
". . o   = g 8.w.q.s.%X1X2X2X3XiX1X`.H.D.F.H.H.J.H.H.). X).OX).H.H.I.I.I.`.U.U.;X`.&X!.T.&X~.p.H 8   ",
". o . @ o   o % q B H =.s.%Xl.-X3X3X1X:X`.J.J.H.D.Y.).J.J._.`.,X2X2X1X3X3X:X&X%Xs.%Xd.p.9.S r #     ",
". X . . . @ @ @ o o @ # 7 q B S 9.q.a.a.~. XH.4.1.I.@X#X1X3X4X<X<X<X-Xs.~.p.] H S B q 7 & .   . .   ",
". . . o o o o @ @ @ @ $ $ $ $ $ $ ; 4 5 p H.4.%.*.1..XP.8.] H A D B p q 7 % @ @ o .   . o o . .     ",
"  . . . o o o o @ @ @ @ $ ; ; ; : ; 4 ; 4 4.;._ _ -.).) + ; ; $ $ $ $ $ $ @ @ @ @ @ @ o . o . .     ",
"    . . . . o o o @ $ $ @ ; ; ; $ ; 4 4 $ -.4.( ! %.)._ $ 6 4 4 4 ; ; $ $ @ @ @ @ o . o . o .   .   ",
"    . . o . o o o @ @ $ $ $ $ $ $ ; ; 4 @ _ 5.( F %.).) $ 4 4 ; ; $ ; ; @ $ $ @ @ o o o o . . .     ",
"    . . . . o o o @ @ $ $ @ @ $ ; ; ; 4 @ ) k.+.F %. X^ $ 4 4 ; ; ; ; @ @ $ @ @ @ o o o o .   o . . ",
"    . . . . o o o @ @ $ $ @ $ ; ; ; ; 4 @ ! k.+.( -.OX/ $ 4 4 ; ; ; ; @ @ @ @ @ @ @ o o o . . .   . ",
"    . . + o o o o o @ $ @ @ $ $ $ $ ; : @ _ l.+.=.*.OX^ $ 4 4 4 ; ; ; $ @ @ @ $ @ @ o o o . . .     ",
"  . .   . . + @ o @ @ @ @ $ $ $ ; $ ; 4 $ ;.l.w.=.=.OX .$ 4 4 4 4 4 ; ; $ @ @ @ @ @ o o o . .   . . ",
". . . o o o o @ @ @ @ @ @ $ ; ; ; ; ; 4 $ <.l.w.=.p.;X-.$ 6 4 ; ; $ @ $ $ $ $ @ @ @ o o o . . o .   ",
"  . . . o o o @ @ @ @ @ $ $ ; ; ; ; ; 4 $ *.l.u.u.d.1X1.$ 4 4 p B S S B 7 @ o @ @ @ @ + o . . .     ",
".   . . @ @ @ @ # % $ $ $ ; ; ; 4 4 4 4 ; 1.l.u.a.=XpXP.b =.y.N.N.dXB.B.m.e.B @ @ @ @ o . . . .     ",
". . o @ o @ @ @ @ % : : : : 4 5 4 4 4 4 6 T.b.z.c.fXjXg.g.fXgXkXkXgXdXB.V.M.m.O.@ @ @ o . . . .     ",
". . o o @ @ @ # % @ @ @ @ $ ; ; ; ; 4 ; ) ,X=Xc.q.8.] H S L P O.e.r.f.f.M.m.f.m.P . @ o . . . .     ",
". . . o @ @ # # + 5 B P O.r.y.r.0.' c $ >.1XcX-XF.J.+X#X#X;XT.~.<.M M B V V L U e.S   . . . . .     ",
". . . o o # @ % L y.V.B.C.gXCXgXgXB.g.0.U.MXNX=X%XY.Y.XXXX+X9XrXL.-.;. X.XL.2.} B Z e . . . .       ",
". . o . @   % O.f.m.y.dXkXkXCXnXkXdXN.fXjXmXAXlX%X:XoX;.L._. XJ.,./ `  X+XXXXX$X X>.A #   .   .     ",
"  . . .   , 0.f.f.m.B.C.gXgXgXgXgXN.M.e.r.y.g.*X%X;XqXx 6 p R H.:.! ` 1.1.1.1.>.>.>.b X .           ",
". . . . e L P K V K V V S S S S ' ' { { { { [ [ 2.>XrXn 4 $ i ].:.Q ! 7 7 q p q 7 &     .           ",
". . X e B }  .>.S.S.R.P.! ) ,..XqXqXwXqX9X#XW.D.D.@XpX/ 4 4 v {.:.Q R $ @ o   .     .   .           ",
"  . X c D.OX).Y. XW.oXT.! ) ;.W.+X+XXXOX_.J.D.F.D.].tX!.6 4 T }.-.~ M @ @ @ o . o .                 ",
"  .   # p ~ ) _ -.-.1.-.m ~ -.Y.Z._ ~ M _ +XH.4.F.].+XyX[ + ^ {.) ~ n o @ o o .                     ",
"    .       # % 7 7 7 0 v m -.W.T Q | 4  .8XJ.F.F.].].+XL.+ | {.) ! n + $ @ o . o . .               ",
"        . . X .       . c v _ I.-.:.K.Q  X}.].G.>.[.+X].D.$ ^ }.` ) m o $ o o + o .   .             ",
"        . . . o o o @ o p v ~ D.-.x i  .7X/.[.J.>.J.8X[.W.: / }.-._ n o $ @     o   . .             ",
"        . . . . o . .   6 v m >.L.~ G 5./.].}.J.>.K.}.(.5.F D.}.-.%.~ o @ o q I $.t   .             ",
"        .   . . o 3 z A p v v ` 2.@.7.+.+.4.5X].K.G.H.*.G G H.].:.-.) $ $ @ S w.P V 2   .           ",
"        X O X X 8 k H A i v i ^ ( &._ R K.J.5X[.].J.E.G.T :.[.[.:.-.%.6 $ @   ` c . # . .           ",
"= # * * , 8 * * = , A q ~ ! v ^ >.F.J.T J.E.5X[.[.|.E.J.T >.].7XK.%.-.~ X : 1.*.  o o . # * #   # X ",
"- = < 0 8 r 9 8 q j j c M v | ..,.:.G.( 5.'.(.}.|.8X6X}.Q R Z.8X8X:.%.;.~ H.;.8 0 7 * , 8 9 9 , = * ",
"r 9 8 8 = 8 9 t q w % x n i T E ..:.3.@.j.j.3.3./.0XtXXXG.v  .F.9X+XK.,.:.4.k t t 9 9 0 8 9 9 8 9 r ",
"= 9 8 8 8 2 = 8 3 q , 6 i y s E ^ v N N c c N c ! [.G.K.Z.| / Z.].|.E.Z.^ ) [ ' B r 9 t 9 9 e 8 9 t ",
"= - e 8 8 8 9 9 u u y y v s a b Y s : : @ y E ..A.G.G. XD.,.....Z.OXY.G.A.....W W B B r 9 k k t r r ",
"= * * - r 9 8 0 1 y a Y Y a a u a y > > @ @ y Y E / ) ~ T ! 2.1._ F N m ..} W C C g g 8 3 t k r # = ",
"# = 2 * = 8 * * * * 1 < u d d f f < 1 O O O : a Y C u 1 1 0 g p f d d d h h g d d < O 8 9 = 3 8 = 2 ",
"* * 3 0 , 7 #     X O # * * < 1 < < 1 * * 1 < u u f f f f d 0 < 0 < < < 1 * O # O X . % # X # 3 r 9 "
};
