/* XPM */
static const char *n_butter1[] = {
/* columns rows colors chars-per-pixel */
"50 50 246 2 ",
"   c #010101",
".  c #0A0605",
"X  c #0A0906",
"o  c #03050B",
"O  c #04090D",
"+  c #0A0A0C",
"@  c #0B070B",
"#  c #120A05",
"$  c #120D0B",
"%  c #180C09",
"&  c #14100E",
"*  c #1A100B",
"=  c #030711",
"-  c #050A13",
";  c #0A0C13",
":  c #0A0E19",
">  c #060F18",
",  c #110E14",
"<  c #140C18",
"1  c #0E1215",
"2  c #05121C",
"3  c #0D131C",
"4  c #0B141A",
"5  c #131215",
"6  c #1C1413",
"7  c #13141A",
"8  c #1C1A1C",
"9  c #19161A",
"0  c #24150C",
"q  c #231614",
"w  c #261916",
"e  c #231B1C",
"r  c #2A1B19",
"t  c #2C211D",
"y  c #36231B",
"u  c #0C1422",
"i  c #0B1B2D",
"p  c #0C1825",
"a  c #131622",
"s  c #121B25",
"d  c #1C1C23",
"f  c #1C1E2A",
"g  c #131C2C",
"h  c #06162B",
"j  c #221D24",
"k  c #291E24",
"l  c #251E2B",
"z  c #1C212D",
"x  c #192227",
"c  c #0F2135",
"v  c #132332",
"b  c #1B2231",
"n  c #17283A",
"m  c #152F33",
"M  c #2B2324",
"N  c #24242B",
"B  c #2B252B",
"V  c #272829",
"C  c #362928",
"Z  c #39312E",
"A  c #232433",
"S  c #2B2632",
"D  c #232B35",
"F  c #2B2A34",
"G  c #2A2C3B",
"H  c #242B3B",
"J  c #342B35",
"K  c #2B3239",
"L  c #3B3231",
"P  c #37323B",
"I  c #463228",
"U  c #423333",
"Y  c #463738",
"T  c #583C35",
"R  c #543A29",
"E  c #6A3932",
"W  c #4E423C",
"Q  c #5F4139",
"!  c #6E4A3E",
"~  c #182945",
"^  c #18354A",
"/  c #133450",
"(  c #292F46",
")  c #312E43",
"_  c #2A3A47",
"`  c #383847",
"'  c #283A54",
"]  c #363A57",
"[  c #253862",
"{  c #443C47",
"}  c #4B3949",
"|  c #174056",
" . c #38414B",
".. c #274359",
"X. c #3D455B",
"o. c #2B484A",
"O. c #3D4962",
"+. c #32586E",
"@. c #356D7A",
"#. c #47434A",
"$. c #574749",
"%. c #4A4857",
"&. c #564A56",
"*. c #43505C",
"=. c #5A585D",
"-. c #5F504D",
";. c #6C4D46",
":. c #68554A",
">. c #6E4E4C",
",. c #786358",
"<. c #495B68",
"1. c #585467",
"2. c #4C5272",
"3. c #665A67",
"4. c #655D72",
"5. c #48627B",
"6. c #5A6078",
"7. c #546567",
"8. c #676469",
"9. c #786463",
"0. c #666478",
"q. c #7A7A77",
"w. c #7F796D",
"e. c #865245",
"r. c #8A6452",
"t. c #977B78",
"y. c #8C7070",
"u. c #6B8778",
"i. c #98847B",
"p. c #B79478",
"a. c #C09374",
"s. c #3B578B",
"d. c #337086",
"f. c #47598E",
"g. c #4C6788",
"h. c #536685",
"j. c #467486",
"k. c #5A7389",
"l. c #476693",
"z. c #566A97",
"x. c #547397",
"c. c #666C84",
"v. c #786F88",
"b. c #667696",
"n. c #767A9A",
"m. c #6F708F",
"M. c #5272A2",
"N. c #707BA4",
"B. c #867A93",
"V. c #917AA2",
"C. c #3686B6",
"Z. c #698998",
"A. c #788697",
"S. c #749292",
"D. c #698BA3",
"F. c #7989A6",
"G. c #7397AE",
"H. c #7BA9BD",
"J. c #6CB2BA",
"K. c #4E8FA5",
"L. c #779FC2",
"P. c #53B3D3",
"I. c #7CABCC",
"U. c #76B2CA",
"Y. c #67ADD1",
"T. c #4395CF",
"R. c #78CDCE",
"E. c #5CC4E1",
"W. c #6ACEE5",
"Q. c #73F4FA",
"!. c #8C8589",
"~. c #878596",
"^. c #979395",
"/. c #988B94",
"(. c #A29A98",
"). c #A89187",
"_. c #8589A7",
"`. c #998DAB",
"'. c #8C97A6",
"]. c #9598AC",
"[. c #8697B5",
"{. c #9A97B5",
"}. c #AA96A8",
"|. c #B29AA6",
" X c #AA95B1",
".X c #B29BB5",
"XX c #A38DA4",
"oX c #99A8B8",
"OX c #8AAAB5",
"+X c #A4A2A9",
"@X c #B9B4AA",
"#X c #A5A5B9",
"$X c #B6AEB7",
"%X c #D7AAAC",
"&X c #D5B7A6",
"*X c #CAB0B3",
"=X c #B3C9BC",
"-X c #9EC7B5",
";X c #C7C4BB",
":X c #8F9CC4",
">X c #B29CCB",
",X c #88A9C5",
"<X c #93ABC4",
"1X c #97B9C6",
"2X c #8EB7D1",
"3X c #A9A4C4",
"4X c #B4B9C7",
"5X c #B4B3CF",
"6X c #B7B3E8",
"7X c #C59DDC",
"8X c #C7B4DC",
"9X c #CDB4D2",
"0X c #D7BBF3",
"qX c #8DCED6",
"wX c #AFC5C7",
"eX c #A8CAD4",
"rX c #B8D6D8",
"tX c #B4CFD2",
"yX c #B0EBDC",
"uX c #B9D7E8",
"iX c #ACCEF1",
"pX c #8DF4F7",
"aX c #A6FBFC",
"sX c #B8ECEF",
"dX c #91D5E2",
"fX c #C7CBCC",
"gX c #D7C4CC",
"hX c #D5D3CA",
"jX c #D6C9D4",
"kX c #D6D8DA",
"lX c #CACACE",
"zX c #ECD7C7",
"xX c #E3D8DE",
"cX c #D7E5DD",
"vX c #D0E7D0",
"bX c #F2EBD5",
"nX c #CFE8E5",
"mX c #D9E4E5",
"MX c #DCFAFB",
"NX c #D1F2F6",
"BX c #E9EAE6",
"VX c #EBF3ED",
"CX c #FAF5E9",
"ZX c #FEFEFD",
"AX c #F7F7F5",
"SX c #E7CFF9",
/* pixels */
"            # E % 9 5                                                                               ",
"            . y q + +                                                                               ",
"        . X +   ; + X $ X o                                                         o o   O o       ",
"  X 5 $ $ + $ % * & & 5 ; + O O                                                   o o + V 5 X o     ",
"  M Y # 6 * 0 w 0 q 6 9 5 1 ; O O o                                         % X   O o , ` 5 X O o   ",
". * W Q w r I y :.Z M t 8 9 5 ; ; O O o                                     6 + O + + $ # + + X 9 7 ",
"X # % :.p.r.;.T ,.:.Z Z F D N 9 5 ; O o o                             * w o o O ; 5 9 q q * # & j 7 ",
"X % * 0 R r.a.&X).t.y.&.P K D K 7 7 ; - - o                           O + = ; 5 1 Z W t Z { U U e o ",
"X X * r y Y r.&XZXCXbX*XB.=._ _ D 3 7 : - o o                     O O o - > 4 4 n 7.=.w.*X/.L 6 # $ ",
"  6 w q I T T ! y.zXbX%X%X|.!._ 8.b 3 7 ; O o o o             o o O o s 2 2 v <.<X].*XCX).y 0 6 * $ ",
"6 C $ q y r y I R ;.%X*XV.m._.c.!.(._ 3 : ; O o O o o o o = = = > o m ^ N O.b.:XL.].*X$.r t w 6 & + ",
"6 X + 8 6 w C Y Y W y.>X.XV.z.f.c.^.oXo.i ; - O O O O O o > > ; = x S...~.F.M.z.n.{.=.e C r e x 1 + ",
"; O X 5 5 e r C L -.}..X X$X}.b.s.s.b.G.d.3 s 4 ; - - - - O 3 3 f A.oXb.M.l.n.{._.[.q.Z N 8 8 1 ; O ",
"O s g f S P M e M U i.VXkXgX}.XXm.g.5.h.G.+.v s 3 ; 3 ; 7 5 D  .n.F.b.x.z._.+XlXwXwX&.B B M j e , O ",
"  + b n F $.3.3.8.9.t.&XCXBXjX'./.~.5.5.h.Z._ z x d 8 d N B Z.'.b.g.g.n.|.$XcXAXZX@XY J B d d d O O ",
"    o o B ( N #.%.$.9.t.xXxXkX].~.~.~.c.6.A.A.O.C V V B C 4.#XA.k.b.n.|.+X4XCXAX@X9.{ F z ; j S 5 o ",
"o X + ; M ) f 3 ; F #. X8X>X3X[.N.b.~.n.h.k.1X~.U L L C u.lX_.k.k.`.F._._.#X9XgX8.{ $.N 3 H S k j o ",
"  O O = o o - a s } /.9X8X6X7X:XF.~.x.A.F.A.OX=X>.$.:.U ;XfXZ.D.D._.n.n._.3X<X5X+Xy.&.A U ` d 9 ; o ",
"    o ; ; 5 S ) d a 3.5XSXSX6X6X[.G.J.1X$XfXwXvX).>.:.w.BX;XfXrX].n.V.`.>X8XuXMXAX).$.-.} 8 5 5 ; o ",
"    9 M ; 9 } ) 3 d f ) 9XZXNXiX2XU.qXyXyXgXfXVXhXy.,.@XnXvXnX4X`.`.}.3X8XSXZXBX~.%.{ F f 7 - ; 5 o ",
"O O 8 7 ; a f z F } ) A %.~.'.F.$X*X*XjXsXsXuXuXBXBX+XfXkXhX;X%X%X$X,XI.iXjX^.%.) G G D G S 5 ; O O ",
"+ o O a d a f A G 2.' ` #.J %.'.1X2XI.<X4XmXVXmXuXAXjXzXbXCXzX%X.X#XoXc.*.` N N A d f J L >.e d B O ",
"o O O - 5 k l F { 3.v.A.^.i.kXMXpXW.E.Y.I.eXkXrXR.NX5X4XlXkX4XoXI.Y.E.W.D.X.` ..X.F ` 6.8.P ; 5 9 O ",
"o o - ; - 3 7 z P ` &.~.(.hXZXMXaXpXqXI.,X,X,XZ.@.oX_.S.<X[.,XL.I.W.Q.Q.aXtXZ.j.j.h.6.1.1.3 O O o o ",
"  O o o , 3 7 n n n ~ X.0.'.MXaXsXnXeX2X1X1XG.C.' v.0.d '.1XOX2X2XdXpXaXZXcXS.k.+...n p > ; = ; O O ",
"    6 ; 5 5 9 S P ( ^ 2.n.G.OXeXnXrXqXeXeXH.T.M.` G f + #.cX1XH.qXyXaXNXZX=XZ.+.| n v s 2 j e o o   ",
"    @ 6 8 , , 9 F { %.c.<.O.1.~.fXeXtX=Xh.C.P.@.` A a s u 8.=X1XdXpXR.oXkXoX@...^ n b d k e.C O $   ",
"      o , 5 5 5 7 7 s u n O.*.{ F ` K n ~ C.NXG.] F f n c - V  .<.K.j.` X.6.8.` G A B C C 6 o O O o ",
"        o o o = = ; 3 s A s 2 f p 2 u / d.f.2X5X1.` H c i / ;   , < _ +.H v b F S j 9 O o o - 5 6   ",
"          o O o ; ; : ; o 5 J = 4 p u _ ' [ s.N.B.=.G g : p > ; 5 5 ; z z a 3 > 3 a f : ; ; + X     ",
"            o O 5 5 - o - - O - : - 2 D : g ~ ' %.` s s N 3 ; ; 3 ; ; ; ; = - ; ; o o o O           ",
"              X + ; 7 O o o = - 3 - : u - : ; u p A H c i v g k 6 i 2 o , e o ; ; ; O o             ",
"              o o o ; 9 r + - = ; ; ; g = o o o = - a b ' n i p d U U B r e o o o O                 ",
"                  o     + + a ^ - O O s +.K , ; o 5 ; o d  .o = - e ;.T e O O                       ",
"                            o O o O O + 7.A.P d - O O O o x o.+ O = 3 #.{ d X                       ",
"                                      o   5 x S l ; o o O   x s O + ; 9 d b +                       ",
"                                                O + & ; o - O i 1 + ; e X ; b                       ",
"                                                    o + 5 + ; C 6 C T C 5 9 a o                     ",
"                                o C o                   + C 7.u.#.Q e.6 $ O O o                     ",
"                                  %       $ $ # #     + b k.-Xu.K M $       o                       ",
"                                  o ~     + r 6 & & 9 B ` K j 5 +                                   ",
"                                  O u         . X X + +     . o                                     ",
"                                o ,               X X     V w           @ ,                         ",
"                                O < o           X .     d 7.+   X                                   ",
"                                  o O O         X   O ; +     X o                                   ",
"                                      O @ 5 j k r ; X o + 5 X                                       ",
"                                            o .     o O + o                                         ",
"                                                5 d 5                                               ",
"                                                O l 3.#.o + o                                       ",
"                                                    + j O                                           "
};
