/* XPM */
static const char *n_butter2[] = {
/* columns rows colors chars-per-pixel */
"50 50 256 2 ",
"   c #000001",
".  c #01020C",
"X  c #0B0A0D",
"o  c #010413",
"O  c #040915",
"+  c #0A0B14",
"@  c #02051A",
"#  c #04091C",
"$  c #0A0C1C",
"%  c #0C0612",
"&  c #11101A",
"*  c #000522",
"=  c #030B23",
"-  c #0A0D23",
";  c #020C2B",
":  c #0A0E2B",
">  c #060625",
",  c #150E28",
"<  c #0D1125",
"1  c #06112D",
"2  c #0C122D",
"3  c #13142C",
"4  c #131A2D",
"5  c #161528",
"6  c #020D32",
"7  c #070E38",
"8  c #051335",
"9  c #0C1334",
"0  c #0E1934",
"q  c #06133B",
"w  c #0A143A",
"e  c #0B1A3D",
"r  c #131433",
"t  c #12153B",
"y  c #131B3C",
"u  c #1A1936",
"i  c #231A38",
"p  c #2A182C",
"a  c #192339",
"s  c #2E283D",
"d  c #0B1543",
"f  c #0D1A44",
"g  c #081749",
"h  c #131B42",
"j  c #1C1C45",
"k  c #131C4A",
"l  c #1A1D4C",
"z  c #131541",
"x  c #181E54",
"c  c #061751",
"v  c #241E44",
"b  c #291E50",
"n  c #0D204A",
"m  c #182447",
"M  c #0E2456",
"N  c #1C2353",
"B  c #162B54",
"V  c #182559",
"C  c #1A3358",
"Z  c #0D305C",
"A  c #282748",
"S  c #38294B",
"D  c #343147",
"F  c #222354",
"G  c #22245B",
"H  c #282A58",
"J  c #362B57",
"K  c #293559",
"L  c #383656",
"P  c #182965",
"I  c #163665",
"U  c #183675",
"Y  c #0D326B",
"T  c #282B67",
"R  c #382B66",
"E  c #2A3567",
"W  c #353667",
"Q  c #263578",
"!  c #363775",
"~  c #272D74",
"^  c #111E62",
"/  c #4B305B",
"(  c #442D64",
")  c #443A6C",
"_  c #493875",
"`  c #56366B",
"'  c #6A3871",
"]  c #1C4276",
"[  c #2A4A79",
"{  c #314971",
"}  c #42435F",
"|  c #474664",
" . c #494779",
".. c #564675",
"X. c #5B5477",
"o. c #524D6A",
"O. c #674877",
"+. c #6D5270",
"@. c #66657A",
"#. c #1A3D8D",
"$. c #333C83",
"%. c #4E3E80",
"&. c #613F8C",
"*. c #10468B",
"=. c #36478A",
"-. c #274399",
";. c #314E8D",
":. c #3657B7",
">. c #2D4CAE",
",. c #2C67B0",
"<. c #2D569E",
"1. c #474786",
"2. c #495387",
"3. c #565889",
"4. c #4A4C98",
"5. c #475699",
"6. c #55599A",
"7. c #594893",
"8. c #6F518E",
"9. c #546689",
"0. c #6A6788",
"q. c #77789A",
"w. c #6F6D95",
"e. c #4955A6",
"r. c #5957A7",
"t. c #485ABB",
"y. c #414EAA",
"u. c #645CA6",
"i. c #6E5EAA",
"p. c #5864A5",
"a. c #5965B4",
"s. c #4E69B3",
"d. c #7666AB",
"f. c #7577A6",
"g. c #6968BB",
"h. c #7878B8",
"j. c #6C70AC",
"k. c #2E58CA",
"l. c #3667D8",
"z. c #367AD9",
"x. c #3B70C0",
"c. c #3276EB",
"v. c #1861C8",
"b. c #4D5CC6",
"n. c #4965C5",
"m. c #5968C8",
"M. c #5879D5",
"N. c #496FD5",
"B. c #6667C4",
"V. c #7B7BC5",
"C. c #6779D7",
"Z. c #7378CF",
"A. c #4A74EB",
"S. c #8A599D",
"D. c #916996",
"F. c #866DB8",
"G. c #9A79BB",
"H. c #8C75AF",
"J. c #AC71AE",
"K. c #AA7191",
"L. c #C571BD",
"P. c #8974C7",
"I. c #5285B2",
"U. c #6F87AD",
"Y. c #358CF0",
"T. c #5F99DC",
"R. c #568DD4",
"E. c #7983C9",
"W. c #788BD9",
"Q. c #6D8FD2",
"!. c #77AED9",
"~. c #5A88E2",
"^. c #4897E9",
"/. c #488FEE",
"(. c #658BE6",
"). c #6B93E7",
"_. c #7797E5",
"`. c #7593E8",
"'. c #47A9F3",
"]. c #50B3F0",
"[. c #73A6EB",
"{. c #73B2F3",
"}. c #77C7F0",
"|. c #5CC3F0",
" X c #8E8EB3",
".X c #AB8FB5",
"XX c #B1AAB9",
"oX c #8F819A",
"OX c #CA93BD",
"+X c #D0ABB2",
"@X c #F3B3B6",
"#X c #FCC5BE",
"$X c #968ACA",
"%X c #8687D4",
"&X c #989ADB",
"*X c #8E8BD1",
"=X c #AB86C5",
"-X c #A699C7",
";X c #B899C7",
":X c #A59DD9",
">X c #B697D9",
",X c #B188D1",
"<X c #98A9D9",
"1X c #97ABD2",
"2X c #AAA7CB",
"3X c #A9A6DE",
"4X c #B8AAD6",
"5X c #B1B4D3",
"6X c #899AE6",
"7X c #9391E5",
"8X c #A499E3",
"9X c #88A7E7",
"0X c #98ABE6",
"qX c #9CB9ED",
"wX c #91B4EF",
"eX c #A5A6E6",
"rX c #B9B6E6",
"tX c #ACB2EB",
"yX c #CB96CF",
"uX c #CAA7DA",
"iX c #CFB1D0",
"pX c #E7B8D8",
"aX c #F0B6D0",
"sX c #C5B7E7",
"dX c #D7B8E8",
"fX c #CAB2ED",
"gX c #E5B1EB",
"hX c #E89DD9",
"jX c #96D9F3",
"kX c #8DD0EE",
"lX c #A6C4EB",
"zX c #B8C4E7",
"xX c #A7CCF2",
"cX c #B6D4F3",
"vX c #B3E9F8",
"bX c #B0E8F6",
"nX c #9EDCE9",
"mX c #D4C8D7",
"MX c #EACADA",
"NX c #F0C9CD",
"BX c #FDE1DE",
"VX c #C4D7EB",
"CX c #D5DBF2",
"ZX c #D3CDEA",
"AX c #E9C8E6",
"SX c #F4CAED",
"DX c #E8D4EA",
"FX c #E9C3F6",
"GX c #E9D8F3",
"HX c #F4D2F1",
"JX c #C3E5F3",
"KX c #D7ECF8",
"LX c #E7E8F5",
"PX c #F6E6F5",
"IX c #FCFAF8",
"UX c #EDECF3",
/* pixels */
". &             . +     . . . . . . . . & X                                                         ",
"a q.D   .         X . . o = 8 P B 0 2 < + X % .                                                     ",
". % s & % .     & < . # e M ;.Q.5.T r O .   . X                                                     ",
"5 $ , 5 < $ . + | A O 0 C C [ B , i O .                                                             ",
"p / +.O.i - $ + D s 4 y e ] e o % . .                                               .               ",
"5 / OXIX+XX.u : r y B e B M 1 o . . .               .       . .     . .     .       .               ",
"5 S ' +XNX@X+XX.F H =.#.U e # o . . . . . . .   . . . . . . @ < o.@.u 5 o.L . +   # m     . . . .   ",
"5 S ' yXIXNX@X#X.XX.p.<X:XK = # o . . @ @ . . . . . . . . # C { 2.J r 3 / D.s o + 5 u % - o o # . . ",
"5 v R O.mXIXBXaXaXiX X2XdX! 9 ; 0 f I ;.Y = o . . . . . o * E j.; - @ o o , +.r y O $ r C ] C n # % ",
"$ r H H oXBXNXpXpXFXdX5X;XG.G  . .V U I.R.c - @ o o o . o o 4 A @ # # # - = L ..J 2 3 r 9 I U.9.= $ ",
"$ r j ) +XNXiXiXuXdXFXfXZXPX.XyX` * ; d W 9 = # @ o o @ @ @ o - 3 @ O = 2 7 1.uX| u A v j M h.3.9 i ",
"- 2 z W @X@XiX=X,X>XuXDXFXGXPXL.S @ * 4 < @ # @ # @ @ @ @ @ @ # $ # = 1 9 H $XD...O./ ( ) 0.8.( J u ",
"* 9 j k K.aXpX;XG.F.g.$X;X,X:X,Xi @ @ o # # @ @ @ @ # @ # @ @ # @ = 9 w V j.w._ .XD.' 8.H..XJ.OX8.A ",
" ._ F N +XyXG.G.H.d.u.r.r.%.4.P.X.o 0 o.: = = = * * = * * * * * 1 t d ~ h.=X=X;X.X.XXX2XmXUXIXmXO.S ",
"i.E g D.#XyXP.u.r.e.4.=.d.1.Q <.W.D L | o.; ; ; ; ; = = = ; = ; w g Q E.rXdXGXPXUXIXIXIXIXPX.X' J v ",
"k g  .,XyXP.$XC.t.y.<.#.$.6.4.-.N.E.A * m a ; 6 6 ; 1 ; ; 8 ; q E 2.1XrX4XyXdXSXSXPXPXHXgXS.( J v r ",
"l T  X>X,X*XB.V.g.t.>.-.#.-.e.n.k.Q.2.6 d m q q q w 8 9 } @.h p.%XP.i.8.S.L.hXhXgXFXFX=X_ R W G P k ",
"8 R S.HXrX7X&X%X$X3XE.t.>.s.:.x.N.l.Q.K g N k f f d j m m 0. X8X$X7.7.8.d.h.P.8XrXAXPXH.~ W ~ U.{ d ",
"1 f 7.iXUXsXtX).A.A.(.M.k.M.Q.v.z./.). XM T G V M G N K f.%Xb.e.6.u.d.r.i.F.P.>XDXGXuX .T T ! $X$Xh ",
"= 6 l V E  X%XM.l.c.Y.^.^.c.Y.^.R.!.{.cX9.~ ! P E T 0.iX*XB.B.a.p.4.=.;.e.m.B.Z.7XF.F g l l F x 4.W ",
"q n d h q K sX6X~.~.^.Y.'.|.'.].}.wXkXvX5X=.2.=.2.XXZXeX%XC.n.:.-.#.-.>.:.k.b.V.iX| 6 k w 6 w F H r ",
"d { 1 y k d q.%XN._._._.{.}.jXkXnXvXJXvXCXf.p.f.mXJXlX3X).N.W.n.>.:.:.b.b.n.t.h.NXL 6 9 ; = 9 b 9 o ",
"# 2 ; 8 f P Q 5.m.Z.%X*X2X5X1X1XeXZXUXLXMXiXiXMXLXVXVXVXnX^./.z.l.C.6X%XC.N.n.B.B.l ; ; = 2 r : o o ",
"@ * ; 8 g Q Q.0X<X5XtX6XW._.0XrXsXAXDXAXpXNXaXDXUXKXKXbX}.].].'././.A.A.qXqXC.t.=.; 8 t r r # o @ o ",
"@ # ; 8 V 6.5.-XVXW.6XqX(.`.&X:XrXGXLXCXMXaXpXDXZXAXdXrXxXjX{.^./.c.l.~.tX0X6X2.m  .{ H 9 @ o @ o . ",
"@ * ; h T T ~ f.%X&X9X(.(._.0XwXxXxXxXzXiXaXVXKXPXSXAXyX$XW.eXW.M.(.C.B.p.w.3.H H 3.E ; # @ o o o . ",
"@ * r j t F G w.UXJX{.{.[.9X).[.rXdX4Xh.;X-XVXbXGXpXuX&X&X-Xa.t.t.B.a.V q 6 ; ; ; * = # @ @ o o o . ",
"@ @ : 9 t b R _ .XzXcXKXxXlX[.[.3X>Xa.j.h.V.AXzXqXrX:X<XzXrX4X5.~ V d q 8 1 : ; = = # @ @ o o o o . ",
"@ - - r A ( 8.J.8.-XUXUXCXbXjX0X`.$Xe.j.5.j.uX:XW.W.Q.W.eXm.0XU.^ P x h 8 ; 9 1 * @ @ @ @ o o . . . ",
"@ # : r v _ J.hXJ.5XPXGXUXUXUXeXa.u.4.=.=.j.3X_.T.!.wX[.9XrXE.e.=.P w : 1 V t # @ @ @ @ @ o o . . . ",
"@ $ 2 j H O.+.` _ 1. XsXdXPXZXj.! ! Q Q Q p._.T.'.kXcXcXKXLXf.1.! 1. .9 * = @ @ @ o @ o o o . . . . ",
"O - v ` J u 7 h N T 2.VX4XF._ ! ~ T T ~ P =.~.xXJXxXcX<Xj.3.x k j 8.H.A 2 @ @ o @ @ o o . . . . . . ",
"o # v ` u 2 3 r t l ! :X;X_  .W G N x E 1.p.<XzXzXqXCX2Xg.g.%.h = : , # - o o o o o . . . . . . .   ",
". O - s $ + - : : r V CX XT W W l N G  . .W H ! V.<X[.s.6.3.F J 2 o o o o o o o . . . . . . .       ",
". . . o + o O < - u 7 q.3.F N E W H ..` t t t w 7.tXI.] k : = u S @ o o o o . . . . . . . . .       ",
". . . . . . o 5 = 2 t R 1.V ! 6.=.U l t 9 9 r 6 q.LXE # - # o O 5 o o . . . . . . . . . . . .   . . ",
".     . . . . + u : w R R oXD.R M P q w w w y ; | XX; - # @ = m o o . . . . . . . O ; 8 = o . . . . ",
"          . . . s m ; h j +.` 8 : = : k M w 9 r ..D # # o o O $ . . . . . o = Z *.*.x.,.g = . .     ",
"        $ + . o @ j G N d A y ; = # # O # - - i O.i # @ . . .   . . . . o 2 C Z Z Y I.Q.d # o .     ",
"        & X   . o o h %.7.S ; = @ o o o o @ @ 5 i @ @ o . . . . . . . . o B e @ O o a [ 8 O o .     ",
"    X .     . . . . o ; 7...* = @ o + . . . o o o O . . . . . . . . . . o < 1 y 2 q n B = # o . .   ",
"                    . . 2 D...; @ o O . . . . o o o . . . . . . + o o o o O 4 4 f 5.Q w w 4 < . . . ",
"                      . % O..X.X| 8 @ o o O O O . o o o # # - 4 ; : - = ; r t n Z E F 6 { 2 O o .   ",
"                        . 3 u.3.U.U.<.B 8 ; > q U f = 1 2 9 d k H d 7 7 k C I B M H 2 # $ . . .     ",
"                        .   K =.7 K Q.{.T.I.I.s.z.,.Y g g M ~ =.-.*.;.;.[ I m 0 { A o o . . .       ",
"                          .   a K 0 m { =.5.!.nXnXvXjX{.0XuX*XN.,.[ ] B t 3 5 3 O . . .             ",
"                            .   + 4 4 < 2 9 f Z I.bX5XU.0.| f w I #.; - - + . . . . .               ",
"                                    . + < 4 a m m 1 @ . . . o o e B # . . . .                       ",
"                                                  . . . . . . .     .   .                           ",
"                                                    .                                               "
};
