/* XPM */
static const char *nrabbit1[] = {
/* columns rows colors chars-per-pixel */
"50 50 214 2 ",
"   c #1A4912",
".  c #1E5E1B",
"X  c #214E1C",
"o  c #23411F",
"O  c #22541D",
"+  c #28541E",
"@  c #235F1F",
"#  c #1D631B",
"$  c #1E6A1D",
"%  c #23651E",
"&  c #2B611D",
"*  c #236A1E",
"=  c #2B691D",
"-  c #236413",
";  c #346F1D",
":  c #1E4F20",
">  c #1E5823",
",  c #264C25",
"<  c #334D28",
"1  c #255523",
"2  c #2B5524",
"3  c #245C23",
"4  c #2C5B25",
"5  c #235529",
"6  c #2B5429",
"7  c #2B5B2A",
"8  c #225B28",
"9  c #32562D",
"0  c #335B2D",
"q  c #355827",
"w  c #355B32",
"e  c #3A5D32",
"r  c #3D5A39",
"t  c #3B5B3C",
"y  c #1F6A22",
"u  c #1F6526",
"i  c #246622",
"p  c #296524",
"a  c #266A23",
"s  c #296C25",
"d  c #266329",
"f  c #2B642B",
"g  c #256B29",
"h  c #2B6C2A",
"j  c #31652D",
"k  c #316D2B",
"l  c #326925",
"z  c #267022",
"x  c #2B7125",
"c  c #27702A",
"v  c #2D712A",
"b  c #317227",
"n  c #32722E",
"m  c #3A712E",
"M  c #2D6D32",
"N  c #2D6631",
"B  c #366333",
"V  c #336C31",
"C  c #3C6B36",
"Z  c #3E663A",
"A  c #3B6B3A",
"S  c #2F7130",
"D  c #327233",
"F  c #397036",
"G  c #465F3F",
"H  c #42653B",
"J  c #436C3D",
"K  c #476436",
"L  c #515D4F",
"P  c #446B41",
"I  c #4C6A42",
"U  c #4A6948",
"Y  c #536E4B",
"T  c #4A7243",
"R  c #4D744A",
"E  c #447542",
"W  c #57724F",
"Q  c #577E53",
"!  c #5B7955",
"~  c #647C59",
"^  c #6C7864",
"/  c #707E67",
"(  c #9B766E",
")  c #867970",
"_  c #A17C76",
"`  c #5B8454",
"'  c #5C8557",
"]  c #69865C",
"[  c #6A8B5D",
"{  c #63835B",
"}  c #6D8A67",
"|  c #72896D",
" . c #659261",
".. c #73966C",
"X. c #7F8E71",
"o. c #7A9875",
"O. c #7FA57E",
"+. c #98857E",
"@. c #829C7A",
"#. c #829973",
"$. c #A5867D",
"%. c #87A37D",
"&. c #948F88",
"*. c #9F9F93",
"=. c #8C9484",
"-. c #AF9984",
";. c #BB948D",
":. c #A09E91",
">. c #8AA383",
",. c #8BAA87",
"<. c #86A482",
"1. c #9AA98F",
"2. c #92A889",
"3. c #8EB58A",
"4. c #9FA494",
"5. c #95AA90",
"6. c #9DB394",
"7. c #97B997",
"8. c #A1AC8E",
"9. c #A4A495",
"0. c #ACAA9D",
"q. c #A9A895",
"w. c #B4A496",
"e. c #BDA89A",
"r. c #A6B09D",
"t. c #AFB39E",
"y. c #A5BD9C",
"u. c #B2ABA2",
"i. c #B9AEA8",
"p. c #ADB4A6",
"a. c #B2B2A6",
"s. c #BCB4AC",
"d. c #B3BCAA",
"f. c #B9B6AB",
"g. c #BDB9B0",
"h. c #CB9B96",
"j. c #CD9C98",
"k. c #C8A399",
"l. c #D2A39B",
"z. c #C7BAAE",
"x. c #C6B2A7",
"c. c #C3BBB0",
"v. c #D2BDB3",
"b. c #E6B5B0",
"n. c #F5BCB9",
"m. c #A8C29D",
"M. c #ACC9A5",
"N. c #A9C7A8",
"B. c #B8C8AC",
"V. c #B6D4AC",
"C. c #B7D8AD",
"Z. c #BACAB4",
"A. c #BFDAB6",
"S. c #BED6B9",
"D. c #B9D8B2",
"F. c #A9D2AA",
"G. c #CAC2BB",
"H. c #C7C6BC",
"J. c #D5C5B6",
"K. c #C5D4BB",
"L. c #C3DBBC",
"P. c #CCD7B9",
"I. c #D8D3BF",
"U. c #C1C8A7",
"Y. c #CECEC1",
"T. c #C8CAC0",
"R. c #D2CDC3",
"E. c #CFD6C6",
"W. c #CFDEC7",
"Q. c #D2D4C5",
"!. c #D1DAC2",
"~. c #D4D5CA",
"^. c #DCD4CA",
"/. c #D5DECB",
"(. c #DCDCCC",
"). c #DBD4C1",
"_. c #DDDCD3",
"`. c #DED6D3",
"'. c #FAD3CE",
"]. c #E3D8D6",
"[. c #CCE1C1",
"{. c #C6E9C8",
"}. c #D9E6CE",
"|. c #D4E9CC",
" X c #D4E9CA",
".X c #D9E9D2",
"XX c #DFF2D7",
"oX c #E3E3CB",
"OX c #E4EECC",
"+X c #ECECDF",
"@X c #E2E6D7",
"#X c #F0EADE",
"$X c #E1F3D9",
"%X c #E5FEDD",
"&X c #E6F6D9",
"*X c #FBF0DC",
"=X c #F3ECE4",
"-X c #F2E4E1",
";X c #EEF3E3",
":X c #EDFCE3",
">X c #EDFEEA",
",X c #E6FDE0",
"<X c #F2F3E5",
"1X c #FAF5E6",
"2X c #F2FEE6",
"3X c #FDFDE4",
"4X c #F5F5EB",
"5X c #FBF6EC",
"6X c #F5FDEB",
"7X c #FCFBEE",
"8X c #FEF6F1",
"9X c #F5FEF1",
"0X c #FDFCF2",
"qX c #FFFDFA",
/* pixels */
"s s s a i a s a s a a a a s s a v s s p q G / r 3 $ s v i g s % i p p s s s p p s s s s s h g a a s ",
"a a s s a s s s s a s a i a s a . n s 4 H  X6XL.C % v # h a % = s p s h s s s s s p i i i a h v s a ",
"a a s s a s s s s a s a % a s a i d 1 0 U XX9X6XM.7 M g h a k % % % % a a i * a s i i p s a s v x a ",
"s a s s a a a a s a a a a s s i g f 7.$Xd.r.:X:X2XW > g c v s s = * * a a i i a a a s h h s s s v s ",
"s s s s a a a i s a a s s s s a g A :XQ.Q.R.0.7X0X6.1 h a a s s * * * s s a a h a x a a s s h s h h ",
"s a a s a a s a a a s s a a s s . A }.u.x.e.x.z.0X$XZ f a * h i * * * a s a s s a z z * i s h s i s ",
"s a a s a a s s s a s s a a s s h 1 K.z.'.j.k.k.^.6X%.+ k s a h a a s s s s s s % a a a a a s a % i ",
"s a a a a a s s h a a a a a s s h O 2.).;.n.h.k.w.@X&XK 4 l h 3 d d d p p s s s s s s s a a a s a p ",
"v i a % a a s a s i % a a a a % s l e OXe.k.n.h.v.q.oXU.< 0 7 7 t w 1 f k s % * s i h p . s % s s i ",
"s a s a s a s s a % a h s i a v s h 1 ] 3X-.l.b.$.J.x.I.X.Y N.{.|.Z.| 0 4 m p s s s i h p h s p 3 h ",
"a s s a s a a s a % a v s % a h g h D O #.3Xw.$.h._ v.G.&.6X9X9X9X9X9XL.! 2 4 p i s h h j j 6 6 T B ",
"a s s a s a i s a a s s a s s i h h a h 1 { 2XJ.( ;.+.u.8X5X4X9X8X4X7X9X6XL.} ` 3 h % @ j 6 ~  XV.H ",
"a s a a s a i s a a a a a s s a a g h a h N P !.*Xe.) u.qX8X8X6X6X7XG.R.0X0XW.o.B f f f 0 %.:X6XL.R ",
"s s a s a s a h a a s s a % a s D # a # a h 8 w #.oX(.5X5X8XqX5X7X0Xg.^.8X=X7X:X! 6 6 Q V.6X6X6XM.0 ",
"a s s h i a s v a a s s a % a a # i % p s i h F 1 9 Z.0X4X<X8X8X4X0X0X5X0X5XY.Y.^ L Z.9X>X6X[...0 p ",
"i a s v % i s h a s s s s v h % i s p % = % a a i A .X7X7X8X8X8X8X5X5X7X7X0X+XR.&.4XqX6X:X<.e 4 f h ",
"s a a % = s a a s a i a % % s v D g k b - x x a h J XX7X7X5X0X0X7X7X7X4X6X8XqXH.T.0X7X$X{ X h v i i ",
"s % a s s a i v i a s i % s s i i h s % s = x v V 2 [.7X1X8X8X4X5X7X0X0X4X0X@X4.4X7X$XI 2 V h # a h ",
"h % a v h i i n s a i % % % s s h a # a * a a g N 7 5.6X7X5X0X8X7X7X5X<X0X0Xa.!.6X%X! 0 j k s a a a ",
"s a s h s a i h s % a s s s s s * $ * v h h 3 > 5 , r @X0X7X6X6X6X0X8X5X0XH.p.6X%XQ 7 f p i s % s s ",
"a a h h h h a s i s s s s h k s z * s s j 2 R 3.N.N.5.p.0X0X<X7XqX4X8X7X+Xt.:XA.T 8 V h a a % s s s ",
"h a a g s s s s s s a a i s s s * x s h 6 ,.6X>X9X9X9X0X5X0X5X7X8X5X9X0Xr.N.%., 7 V h # s s s % a a ",
"c a a a a s a s a % a v h a i = z % h 1 ..9X;X`.~._.<X7X5X5X0X5X7X0X6X2.r H O k h % % s a v % v s a ",
"a a h s s s % % a a a a a s s i s s d w S.9X8X].G.s.0.f.1X8X5X8X7X/.| o 0 8 h i . s s % i s i # s s ",
"h i i v s a a a a s a i a i h h p V f 6 |.7X8XqX0X8X9X(.a.8X4X8X7XZ.r Z f h i * s s p @ i h g i i a ",
"h a a s a % = a s i % h d h d f 7 X w } d.0X8X8X0X0X9X7X0._.8X9X:X] 6 j S g $ y a s s % g h g i a s ",
"s p s a % % a s s n p j j 1 7 0 ~ y.|.6Xd.*.~._.~.E.;X<X&.=X8X6Xm.2 4 d a a a a a s h s s f d g i a ",
"% i a % % a s s i h V 7 6 R 3. X2X6X7X<X0X(.g.a.d.d.9.0.c.7X0X:XT 3 h s # a a a * a s s h h p p s s ",
"s s s s s s v h p V 2 J M.:X6X6X7X5X5X7X0X5X0X7X9X0X0X#X5X1X7X5.O h i s i s i a a a s s h h p s a a ",
"p a i % i s p d V 2 ..:X6X6X<X8X8X8X7X7X5X5X5X7X9X4X7X7X1X7XL.w d v a s a v s h h s s i s s a s % i ",
"h h a a h h d h 1 ..6X2X6X5X8X8X8X4X0X5X5X7X5X7X6X8X7X5X7X XP 3 h x v a i v h h k s p i s s * a s v ",
"s a i a d 3 1 6 ' :X2X2X7X5X8X8X8X0X6X7X7X7X7X0X6X9X7X6XB.H f g a a a a s v i p h p i % a a * a a s ",
"s a * s 4 I 7.=.!.7X1X7X1X7X5X7X0X7X8X8X8X8X0X6X7X&XV.[ 2 f d g a a s a a s s i s a a v s a a a % s ",
"a # z s 2 A.>Xp.8X7X1X5X7X7X7X7X7X5X5X0X8X8X6X7Xm.H + l p i h a s a a a a a i % s a s s i % a v s s ",
"u a s p 0 %XZ.T.0X<X7X5X5X8X7X5X6X0X0X5X8X4X9XB.9 2 V s i a s i a a % a s a i s a % s s s a % a h s ",
"g S s & 4 [ 1.7X6X6X9X0X8X8X7X7X7X9X7X8X7X0XK.G B F s # a v # v a s i i s s a v s % a % a s % s a a ",
"d d s a g   8.1X4X0X9X4XqX`.=X0X0X<X4X8X0X;X^ w j S a $ $ v x s a h s i a a a h s i s % a s % s i s ",
"f g a # g C P.7X7X4X8X4XqXs.=X0X4X0X8X0X4X4.L.` f # a $ $ # a a i s s a a i a s s a s i s v % % a v ",
"h i v y i R :X1X0X5X8X8X-Xi.7X7X8X5X5X7Xq.K.2X' 3 s z $ x a s i i a a s a a a s v s % # a s a a i a ",
"i # c g 8 O.7X7X4X0X5X0Xs.s.0X4X8X8X1X9.B.6XC.j p a # s x s % s s a s v s % % a % s a % a a i a i % ",
"x a g f w |.6X7X5X5X0X(.t.}.&X7X5XR.:.!.6XA.J 4 l s a % s s s s a s % a a % a s h a a s h s s h s h ",
"- b d : >.9X;X9X6X7X}.~ @.>.>.1.q.u./.|.o.w 7 p p p s s v v h a s a # a s a s s a a a s s a a s s s ",
"; l f R ;X7X6X6X6X|.R 1 7 7 9 < K.7X@., 7 f h g i % i i a a g a a s % % s s a i a s s s s s s s a a ",
"= & 2 S.7X7X7X,Xy.e 1 V d h j 6 @.6XC.2 f f h g s s s a a g c c % v s % % s s % i a s s a a a s h s ",
"k   6.7X7X:X,.E 1 j k h i s p j A 3. .V h a a a a s s a a a g a % s h a a s s s a a a s s a s h h s ",
"3 ` :X7XK.W 7 i D p i i v a h a p 3 i . s a # * a a a i i a a a s a a s s s a s a a a s s s s n s i ",
"1 7.9X/.t 5 S v # s k s = x s # a h s s p = = s s s a a a s h v s a s a a a % s i a a a a a a s s s ",
"1 F.6X>.5 M g z i a % % = = a v s % s % s s s s = a a a s s s a # s v % % a a h a s s s a s a i s a ",
"f E  .C d g a a i s i % % a s a h s a a s s s s % a s s s s s i a v s s s a % h s a % a % a s s s s ",
"V 3 O p h h i a p s i * i a s a a a % a s s h s i a s s s s s i i s s a s s a v s s % a % a s s s s "
};
