/* XPM */
static const char *nrabbit2[] = {
/* columns rows colors chars-per-pixel */
"50 50 204 2 ",
"   c #1B551B",
".  c #1E5A1A",
"X  c #1D5F15",
"o  c #224C1C",
"O  c #21541B",
"+  c #29541D",
"@  c #255A1D",
"#  c #295A1F",
"$  c #1E641C",
"%  c #1F6A1D",
"&  c #1C6415",
"*  c #23651E",
"=  c #29641E",
"-  c #236A1E",
";  c #2A6A1F",
":  c #26711F",
">  c #294924",
",  c #344B2C",
"<  c #245423",
"1  c #2A5525",
"2  c #245C23",
"3  c #2A5C25",
"4  c #2D552A",
"5  c #2B5C2B",
"6  c #275928",
"7  c #32552C",
"8  c #325C2C",
"9  c #365229",
"0  c #2E5B30",
"q  c #3B5C33",
"w  c #395C35",
"e  c #1F6620",
"r  c #1E6B22",
"t  c #246622",
"y  c #296623",
"u  c #266A23",
"i  c #2A6C25",
"p  c #256629",
"a  c #2C652A",
"s  c #266B28",
"d  c #2C6C29",
"f  c #316B25",
"g  c #32652D",
"h  c #316C2B",
"j  c #37652A",
"k  c #277125",
"l  c #297125",
"z  c #257129",
"x  c #2C712A",
"c  c #33722D",
"v  c #2E6C31",
"b  c #2F6531",
"n  c #346433",
"m  c #3A6235",
"M  c #336C32",
"N  c #3B6833",
"B  c #3D613A",
"V  c #2E7030",
"C  c #337233",
"Z  c #3A7034",
"A  c #425934",
"S  c #45643D",
"D  c #436C3C",
"F  c #4A643F",
"G  c #46713C",
"H  c #495D42",
"J  c #4A6442",
"K  c #446A42",
"L  c #4E6A42",
"P  c #526E44",
"I  c #4E7046",
"U  c #4B7649",
"Y  c #547448",
"T  c #5C7C53",
"R  c #577655",
"E  c #667859",
"W  c #637B62",
"Q  c #777F6A",
"!  c #8D7972",
"~  c #5C8258",
"^  c #5A8755",
"/  c #65835D",
"(  c #678364",
")  c #688060",
"_  c #6C8B64",
"`  c #678C63",
"'  c #738C6C",
"]  c #6A9164",
"[  c #739A6E",
"{  c #79966A",
"}  c #7F8674",
"|  c #739272",
" . c #7B9575",
".. c #7D9479",
"X. c #759D7B",
"o. c #828F73",
"O. c #9C8D7A",
"+. c #839B7B",
"@. c #B88D7D",
"#. c #82B07F",
"$. c #8A9B84",
"%. c #989B88",
"&. c #BB8E84",
"*. c #AE9183",
"=. c #B69083",
"-. c #B69B8E",
";. c #B49687",
":. c #BF9990",
">. c #8BAA85",
",. c #94B48B",
"<. c #9BAC93",
"1. c #9CB493",
"2. c #9ABB94",
"3. c #A6A195",
"4. c #ADA59E",
"5. c #A6AB9A",
"6. c #ACAA9C",
"7. c #A8A593",
"8. c #B7A798",
"9. c #BAA59A",
"0. c #ABB49D",
"q. c #A0BF9F",
"w. c #A1B498",
"e. c #B5BA9D",
"r. c #B3ADA3",
"t. c #ADBCA5",
"y. c #AFB1A3",
"u. c #B4B3A4",
"i. c #B4BAA2",
"p. c #B4B5A9",
"a. c #B7BDAD",
"s. c #BBBBAB",
"d. c #BDB2AC",
"f. c #C49488",
"g. c #CCA69B",
"h. c #C1B19A",
"j. c #C5ADA1",
"k. c #D8A7A0",
"l. c #DBAAA3",
"z. c #C5B7A7",
"x. c #C6BBB3",
"c. c #E3AEA6",
"v. c #E5B3AC",
"b. c #E5BAB1",
"n. c #F1BAB5",
"m. c #98C190",
"M. c #A1C09E",
"N. c #ACCAAB",
"B. c #A9C6A4",
"V. c #B9C7AA",
"C. c #B6D7AD",
"Z. c #BACFB3",
"A. c #B9C7B7",
"S. c #B8D7B4",
"D. c #BBE7B6",
"F. c #C3CCB5",
"G. c #CCC6BD",
"H. c #CBC9B8",
"J. c #C2DBB6",
"K. c #C2DDBC",
"L. c #C7D1BD",
"P. c #CEC7B2",
"I. c #E8C6BC",
"U. c #C2E1BF",
"Y. c #CCD9C3",
"T. c #D3D3C3",
"R. c #DBDAC2",
"E. c #DAD2CA",
"W. c #D1DACA",
"Q. c #E5DED4",
"!. c #CEE3C5",
"~. c #D1E2CB",
"^. c #D4E7CB",
"/. c #D4EAD1",
"(. c #D9ECD1",
"). c #DAE4D7",
"_. c #DCF4D5",
"`. c #E5E7CF",
"'. c #E3E2D6",
"]. c #E4E6DA",
"[. c #EBEBDE",
"{. c #E9E9DC",
"}. c #E6F4D7",
"|. c #E0FFD6",
" X c #E3F2DA",
".X c #E4FCDC",
"XX c #EBFBDF",
"oX c #F3EFE3",
"OX c #F1E6E0",
"+X c #ECF4E3",
"@X c #EDFDE4",
"#X c #E3F4E1",
"$X c #F3F4E4",
"%X c #FBF4E7",
"&X c #F2FDE6",
"*X c #F5F5EB",
"=X c #FAF6EC",
"-X c #F5FDEB",
";X c #FBFBEE",
":X c #EFFFF1",
">X c #FEF6F2",
",X c #F6FFF2",
"<X c #FDFDF2",
"1X c #FEFEFB",
/* pixels */
"u i u u * * d y d t h y * i i u k k u y y = ; y o R S 8 ; - i t d y u i u u y 2 d d u u u s d d d y ",
"u i u u t u d y y y u d u u c - * i x u a y f N [ 1.t.L @ u i u y t d x u u d d d s u u u i d d i i ",
"i u i u u d d y y y u i * - i * y s s u d 3 m K. XF.i.<.B b c $ t * u z s u y y d t t u u u u d i i ",
"i u i u u i y y d u i u * i u u y d $ i p < |  X3.8.z.u...0 M d u * e i s u t y y t u i i i u i d i ",
"i u x i t y t t d u i u u i u u u t d u d 5 X.L.G.I.&.j.t.R 3 = u u u i i u u i y i i i i i i i d i ",
"i u d i u y y y * y t i i u i u $ l ; = c 2 K ~.9.b.v.f.s.<.j f d d y i i i u i i i i u u i d i u u ",
"d y u i u u d y * i t y i - u - : & f = * d   ,.z.g.n.k.9.e.{ + a s y t i d u i u u u u u u i i * * ",
"d d u i y u x u i y i u u u - l - - = = i * M 8 F.-.l.c.=.h.e.T + a d y y t u x - - u l d y u i u u ",
"x u u t i u i i i t * t u t t - u i t y y y d # P R.-.&.f.=.z.0.D g 3 3 a d * * u u l - * * t i u u ",
"d u u t i u i i * * u i i * * i d y t u u u i f < Y R.-.@.=.9.p._ 8 m 8 g a s y i u i u - u u u u u ",
"y u i u i u u y i u u d d u y x y s i r z i - i C 3 L V.;.*.! G.Y._.^.,.8 g g u u u u u u i t * i i ",
"u u i y u u u u u * * u u t y d a d x % z x - ; i s 5 q %.O.x.<X<X-X-X-X,.1 g a u u u u u y u * u u ",
"y u u y u u u i u u d d d y y y a d d u x x * u u t a 1 A `.;X;X*X-X$X-X-X/ < a s y u u d y i u i i ",
"i d u i u y u i u t * * y d d d M a 3 # 3 y a Z a a M n +.&X;X*X*X<X=X;X-XC.8 g d s y u u u i i * t ",
"u i i d u u u i * u d c d 2 . O 3 m S P P S A q 4 5 < > t.<X$X<X<X1X=X=X;X@X~ 6 d y * y u u l i u u ",
"t y i x - u u i i d d a 3 n ` 2.S._.XX@X}.}. X!.K.Z.B.>.).<X-X<X>X>X>X<X).&X2.1 n a 2 y d u x i i i ",
"d y y i % % u u i d a 4 | ~.,X,X,X@X-X<X-X;X<X-X,X,X,X<X;X<X<X=X>X>X>X<Xr.5.-X' 4 g a h d - l i y t ",
"a 2 d u l k - i d a 0 q.,X<X*X<X;X-X-X;X;X;X,X;X*X<X<X<X<X=X=X;X<X>X<X<X%X;X<XW.R 7 < 2 g a f y d C ",
"s s u x d * y M g 8 N.-X+X=X<X<X=X<X;X;X<X$X'.=X<X<X<X*X<X=X=X<X<X,X;X<X*X<X<X{.} $.w.) J q w 8 2 a ",
"x $ u d a a N m 7 M.-X@X;X<X=X;X=X<X;X=X<XQ.G.<X<X<X<X<X<X;X;X;X*X<X;X<X<X,X*X[.y.a.-X-X#X/./.U.#.g ",
"i u d d 8 7 , , 1.-X;X;X;X%X%X=X;X;X;X=X<XG.E.<X<X;X=X<X*X<X<X;X<X<X<X<X=X;X,X'.%.Y.,X,X,X,X-X-XC.g ",
"u * u a ] ^.0.$.<X-X=X<X=X;X$XH.<X*X<X=X<Xd.OX<X=X<X<X[.p.6.r.u.G.;X<X;X;X-X-XL.H W (  .N./._.@X^ O ",
"c u p < J.-X5.*X<X<X<X%X;X;X$Xs.<X-X<X=X<Xx.E.<X=X=X<X;X[.].'.E.s.3.oX;X;X&X' 4 w < < 6 < m I D n d ",
"y t d n .X0.T.<X*X,X>X<X<X<X].a.,X-X,X=X<XE.r.<X<X-X&X&X,X;X<X;X;XL.0.XXJ.I 1 a 2 s s s g g 3 3 a d ",
"x t p n 1.i.<X;X,X,X<X<X,X,XW.A.<X*X,X<X;X<Xu.u.&X;X-X&X.X(.(.&X-XV.F K g 2 C $ i l u X * i y * t u ",
"d t Z n J +X;X;X-X-X$X<X;X,Xp.].<X$X<X<X<X=Xu.Q E E _ ~ K B q ( 2.q 8 a M C $ % u - - - ; ; * * u u ",
"u a 5 4 ..;X*X;X;X<X<X;X;X].4.oX=X<X<X=XG.%.a.&XT o 1 5 5 n 5 5 5 3 g a t u u l - u x i i i * t t y ",
"y p g S.F.+X<X<X;X%X;X$X;Xu.H.%X<X%XE.4.4.'.-X&X[ < d d p p M v a M t t y x * - * i d t u i u t u d ",
"d 2 T &X+X+X=X<X<X%X$X;Xt.o.i.7.6.3.4.E.;X<X;X.XU y y e i u p y d * d d y y y d d d d u s x d d u u ",
"s 2 +.-X-X1X>X<X%X;X;XK.q 9 9 E T.{.=X<X;X+X&XB.3 d u l - x d u $ x u y * h c u d * * t u u t u u u ",
"V 2 1.,X+X).1X*X<X,XK.n a Z # Y &X;X<X<X,X,XZ.m g d - - & l d * y C u x s x $ x h y y a h d u i i d ",
"v 6 Z.-X$.W :X,X,XB.m a V $ d 3 B.,X5.t.t.' w 3 d i u - x u * d h t u i z s x e y y = = = u * u u y ",
"v 5 /.#Xn a ~ >.T 5 j d t u d 3 / -XZ.> 7 1 a a i u l x u u y y t i i u i i u u x u u d i u i u u i ",
"< U ,XA.2 x @ # n a i i u * h a 7 !.@X` n g d * * $ u i u u y t y y u u y u * * u u i d u * u i i i ",
"3 ` ,X<.  u c f a a d - u l y g 7 N..Xm.3 C y i i u u * * u s y y u * u i u u i i * y y u u * y i i ",
"o ,.-X+.2 l d @ d p - - % i @ a 8 [ D.^ y a y u l l l u u i d y i u u u i y y x i * u t u i * u u u ",
"8 C.;X..  l i d p s - k - u y y 3 n a @ a y d d u k i u u i d d u i i u u u u i u * y * u i * i u y ",
"G |.-X .  x c y s s u u % x c * t d h d s u y u i k u * * u u d * y i u u u u i i u u * u i * u u d ",
"D m. .K M u * d d e k & $ x u * y y t d s e d x u i i i d u * * t u u y y u u i i i t * y i t * t t ",
"a   4 8 y i d * * u u k x - i d i x d * t x d d u u t u d y t u y u u i i * * u * i u * u u u i t t ",
"s M n a t u u h y y u i i i i y u u u i i u y t s u t t i i i u u u * u u * y i d u t i i y y x i d ",
"s d a a d i u d y y u i i i y u u - u u u u t t t t y d x x d u i u $ u i u i u u u u y i u u u u u ",
"z s p t i i u i y y y u y y u u u - u - u u y t t t y y u y u i u u * u u u u u u i i i i i i u y y ",
"s r $ t u y y y y t * * u u u u u i i u u i d y d d d y u u i d * i i t * u i * u u y u u u i i d i ",
"u e - u u u t t d y y y y i i i t i i y u u y u u u i i i y i i y i i u y x i u u u u u u u i x i u ",
"y u u u * u i i i i y y i y u u t u i u t t u u u u u u u y i i i t u i y u * i i u y d i i i x i u ",
"d u u - * u x x u i u s u u u u y t u t u u u u x i u u i i x x * * i y * * * x u u u y u u u u i u ",
"y u i i u i x u - u u u u u s d d y y u y i i i - - - u l x i u t y x u * i u i u i i u u y u u i t ",
"d i u u u u i u u i u * t t u u i i u * t u i i t i i i i i i u u x d y i u u d i u u u * y y d i i ",
"i i u u y u i u y i u t u t u u * u u u y i d y t i i d i u i * * d i u i i u x d u u u * i i d i i "
};
