/* XPM */
static const char *rocket[] = {
/* columns rows colors chars-per-pixel */
"50 50 132 2 ",
"   c #281006",
".  c #2E1B0C",
"X  c #341E0C",
"o  c #341E11",
"O  c #3E230F",
"+  c #352213",
"@  c #3B2515",
"#  c #3E2916",
"$  c #3B2619",
"%  c #3D2A1A",
"&  c #3F2F20",
"*  c #422614",
"=  c #422A15",
"-  c #482E17",
";  c #41271B",
":  c #422D1C",
">  c #492E1B",
",  c #45311E",
"<  c #4B321D",
"1  c #432F21",
"2  c #482F20",
"3  c #463223",
"4  c #4A3425",
"5  c #473826",
"6  c #4D3826",
"7  c #4A3628",
"8  c #4D392A",
"9  c #513624",
"0  c #533A25",
"q  c #5A3F27",
"w  c #533D2D",
"e  c #593E2B",
"r  c #4F3F30",
"t  c #533E31",
"y  c #583F31",
"u  c #56412D",
"i  c #5D432C",
"p  c #564233",
"a  c #5A4434",
"s  c #5D4836",
"d  c #5C4639",
"f  c #5D4A3B",
"g  c #61452D",
"h  c #624334",
"j  c #654335",
"k  c #624634",
"l  c #624831",
"z  c #634932",
"x  c #664A31",
"c  c #644A33",
"v  c #674B32",
"b  c #614934",
"n  c #634934",
"m  c #624B35",
"M  c #614936",
"N  c #654B34",
"B  c #644A35",
"V  c #654B36",
"C  c #654D37",
"Z  c #664C37",
"A  c #674E36",
"S  c #634A35",
"D  c #694A37",
"F  c #684C35",
"G  c #694D36",
"H  c #624639",
"J  c #674739",
"K  c #66463A",
"L  c #604739",
"P  c #60493A",
"I  c #614A3B",
"U  c #674D38",
"Y  c #62493D",
"T  c #644A3E",
"R  c #614D3D",
"E  c #604C3E",
"W  c #614F3E",
"Q  c #664D3E",
"!  c #674E3E",
"~  c #634C3A",
"^  c #694C38",
"/  c #6B483D",
"(  c #684A3D",
")  c #6C4A3C",
"_  c #6A4D3C",
"`  c #6C4C3E",
"'  c #6A4E3C",
"]  c #66503D",
"[  c #6F533A",
"{  c #6B523D",
"}  c #72563E",
"|  c #70553E",
" . c #634F41",
".. c #694D40",
"X. c #6A4E41",
"o. c #6B4E41",
"O. c #6F4F43",
"+. c #6B4F40",
"@. c #704D40",
"#. c #615140",
"$. c #645141",
"%. c #695042",
"&. c #6C5143",
"*. c #6E5043",
"=. c #6E5345",
"-. c #685444",
";. c #695747",
":. c #6D5445",
">. c #6E5547",
",. c #6B5442",
"<. c #6E5844",
"1. c #6E5A4A",
"2. c #725243",
"3. c #725145",
"4. c #735145",
"5. c #715445",
"6. c #705447",
"7. c #715642",
"8. c #755846",
"9. c #725A46",
"0. c #75574A",
"q. c #705749",
"w. c #73584A",
"e. c #745C49",
"r. c #7A584A",
"t. c #795E4A",
"y. c #7D5F50",
"u. c #78604F",
"i. c #7A614E",
"p. c #7F6755",
"a. c #7F6852",
"s. c #836A55",
/* pixels */
"j r.@.) / 4.4.o.*.5.>.>.a H a 4 B c g i i i i g g g g g c g i g g g g i g g g g i g } G 0 > * g e e ",
"h 2.J ` J O.*./ o.=.>.>.Y T t > 4 0 k U U i i G g g g g G g g g i i g g i i g c { q 0 < q q 9 i D D ",
"y.5.9 4 o.0.w.o.H d a d %.>.! e 3 > 0 M M w w M C C C C C i i i q i i b b b c c 9 = - > 9 e i ' ' ' ",
"u.! > 4 w a a w 4 4 3 3 2 w p e w , , w w w w w s s s s M i i i 0 i k C M i e 0 = < i i 0 < > k 8.8.",
"d P w a a w 3 2 3 3 3 > > 7 4 > 4 3 % % 3 3 3 3 3 6 4 , w w 0 0 0 0 0 0 4 3 : = > < 4 : 4 > * 4 e e ",
"7 3 @ 3 : ; % % ; ; ; ; X @ $ o % : : % : : : : 3 3 , # : : ; = = = # # : : > , 3 3 w 3 4 > @ @ 4 4 ",
";.w @ % p p p w w w w w e a f p 3 1 1 3 3 3 3 3 8 7 3 @ : : : : : : : : 3 7 8 w W W ,.P e 8 @ @ P P ",
"f 8 % 8 W f a a p a a p w p a w a 3 % 8 p p p p p t 7 % w w w w a a a a a a a a w p a w f P w 8 e e ",
"#.5 , 8 p p p p p p u w w 8 8 7 8 p p 8 t d d w p 8 3 @ p a a p a a a a a a a a p a a p d W f a W W ",
"#.5 , 8 p p p p p p u u w w 8 8 7 8 8 8 t t w w p p w % p a a p a a a a a a a a a p p a f f d p W f ",
"#.7 , 8 d d a a p p p u p e w w w w a f f t t d p a d 3 p a a p a a a a a a a a a p p a f p p a f f ",
"#.7 , 8 3 3 3 3 p p p p p p p p 8 8 p f f 7 7 w 8 a d 3 p a a p a a a a a a a a p a a p t 8 p f f f ",
"p 3 4 7 4 8 p a a p p u e e e e 3 8 t w w 7 3 7 p t w 3 p f f p p p p p d d d d a a p p 7 8 a f f f ",
"1 $ % % : 2 > > > > > : : ; ; ; @ % : % % 1 : @ : % : + 3 7 7 3 3 3 3 3 3 3 3 3 3 3 & & 1 3 3 % 1 1 ",
"w t p 8 7 7 7 7 a a a p p p p p # : % @ X + @ + % % : + 3 1 1 1 : : : : % % % % $ @ + o + + @ $ 8 8 ",
"a d a p t a ! -.;.-.,.%.%.%.%.%.! $.R a 3 : 3 8 7 7 w 7 w 7 7 w 7 7 7 8 3 3 3 3 8 5 3 3 @ + 3 f p p ",
"w 8 w a w P a 3 P P P M M M ~ ~ R R R R 8 : : 8 3 3 4 4 4 4 4 4 3 3 3 3 7 7 7 7 & 5 8 7 3 @ 7 $.p p ",
"f a a f 8 a P p a a s s ~ B ~ ~ R R R R 7 3 3 3 7 3 4 7 7 8 8 8 8 8 8 8 3 3 3 3 1 7 8 3 : @ 3 $.W W ",
"a a w w p a P P p p a i B B B ~ m m R R , 6 7 3 3 3 4 4 4 4 7 7 4 4 4 3 3 3 3 3 3 8 7 1 % + : f f f ",
"W $.f P ! P a a e e u u B ~ ~ ~ B m m m : 0 w > 3 3 3 2 : % $ % $ $ $ $ 1 1 1 1 7 8 3 % % X : f f f ",
"e a p w w 4 < 4 ; ; : : 9 0 9 < < 4 4 4 = X X ; @ @ o o   o @ o + + + + + + + + % $ + . + + % 7 8 8 ",
"$ > > @ X @ > 4 4 4 9 9 w i w < > > > > : = = : 3 2 ; @ $ 4 8 2 % % % % $ $ $ $ % $ + o @ @ % 3 : : ",
"p a d e > a >.e.p.s.s.s.a.s.s.t.k k k k b C U M P y 4 : 7 y d t a a a a p p p p a a p p a p p f a a ",
"a W W p > P q.q.,.,.{ { { { { C G { { { M { ,.M 5.~ w : 8 a d y d d d d f f f f f f f f W f f W f f ",
"-.f a : @ a q.>.{ | 9.e.} } } } { C b i { { { { *.h 4 : d d d d d d f f f f f f a a a a #. . . .f f ",
"p e e 3 2 y d p u i i b c c c g i i g C { { { { ' a 9 > y y p p d d d d d d f f f d d d p p a d #.#.",
"4 4 4 8 3 4 4 3 9 0 0 i 0 0 0 0 0 e i k 0 0 0 0 9 4 = @ 4 4 4 7 8 8 8 8 8 8 8 8 8 8 8 8 : 3 4 7 w w ",
"> > 3 8 : ; : > # = - - - - - - : = * O = : = > < < : : > 2 2 2 % % % % + + @ @ @ @ @ @ o + % 1 3 3 ",
"8 8 8 8 2 : $ # @ = < < 9 9 0 i i i i i ' ` *.2.7.,.' ' ' ~ s p 8 % % 3 3 2 2 3 1 1 1 1 3 7 8 8 3 : ",
"a a a a e 8 > @ 0 i m { { { C B B B B ~ ' ' ' ' U M a a h ~ h a p 3 3 w t t t t p p p p p a a p W f ",
"W W W W a f e ; i s ] ,.{ U C B k k k k ~ ~ B ^ { ' ~ M ! *.>.q.f 3 3 p d d d d f f f f d d f f f f ",
"f f f f p  .Y 8 w u u s b M U ' ~ k k h h h k h k a i w w p a R W 3 3 w p p p p f f f f t a d f p p ",
"f f f a p e 4 > R M s a U ' ' ' ' ' { { O.O.*.%.>.{ s w p a a a -.3 % w p 7 7 p p p p p p a f Y 7 8 ",
"w w w 8 8 4 2 ; w 0 0 w w 0 0 0 0 i ~ %.~ ~ ~ ~ ,.P 0 : w w 3 3 3 3 , 7 8 7 7 8 4 4 4 4 w e e p 7 7 ",
": : % : : : ; @ + + + @ @ @ @ @ + @ > 3 > > > > 9 > @ X ; ; ; @ + @ @ + @ % % @ @ @ @ % > : ; @ + + ",
"8 8 8 7 4 8 8 4 : ; # ; > > > > e e u u p p p p # ; ; ; > 4 u P a 7 : : 3 w w 3 e e e e e w 4 > p p ",
"p w w a p p p e p u w w p t w w w w w w w w w 3 w : # 6 s P R P f w 8 8 p p P P H a a H f Y a 8 a a ",
"8 3 : 7 4 4 8 4 w e a a P a w 8 w w w w w w 8 % , + ; p P s a p 7 7 w f ! a d ! o.P p y p a w 2 e p ",
"8 : @ % 3 4 w w 8 w u p d a p w 8 w u u p p 3 $ % + : p p w w w : 7 p a %.P p p a a d p p a w 2 8 w ",
"w : @ % + % 3 7 4 3 , : 7 w p p w w u u p 5 % $ 7 $ $ 7 6 6 6 6 8 w 8 3 a f e 4 3 8 e p p a w 2 P P ",
"@ + X @ X + X + X # , 3 3 6 w 7 : 8 8 1 % $ + + . X % 7 @ : : + @ $ : : : : : : : : % @ 4 2 : % @ % ",
"w a a w 4 e w 6 s R %.! ] ,.>.$.! $.$.W f f p p w : . X X @ % + @ % , 3 8 8 8 w e p e w 8 7 3 > : : ",
"R ,.,.R P W a ! t.e.e.q.q.t.u.e.w.>.>.1.1.1.$.$.d p 7 : @ 7 8 7 7 8 w p $.$.$.-.;.;.;.$.$.$.W f W W ",
"f a a M %.p w >.q.<.{ { { ,.q.*.>.B B >.,.%.~ P P ;.;.w @ 7 w w p a f f a a a a p p w w f d p w a d ",
"%.R R %.U 4 @ w ,.,.,.{ e.9.{ { { 7.{ { ' U U %.{ 1.! w @ 1 t f f f f f f s s s s s s a a a p a d d ",
"a ! ! a p p < 9 7.*.{ { t.t.8.7.} { { G B { 5.q.>.! p e 3 8 d  .f f f f f f s s s a a a d d d d a a ",
"6 u u 6 4 w > < B U U { { { { { { G G G c 7.8.U w 3 3 7 3 7 8 t : : : : 8 8 8 8 8 8 8 8 a a a a a d ",
": # # : @ = X = @ = = > < 6 0 e M ' B B B 7.^ 4 4 w u 7 o o + $ % % % % # # % % : : : : 8 8 8 8 2 3 ",
"0 0 w w w w e e k e i = = = , X @ < < < < < < : > , 4 3 $ $ $ @ : 2 : @ , , , , w 0 6 4 a 4 + e a a ",
"{ { { { { *.,.,.e.5.5.e i w s 3 i m U { U { ! U ! ! %. .d d a a a d a e P P M M M s a p W e : a Y Y "
};
