/* XPM */
static char *_2c68c582e804485aafe39c879b6b9135zv26MIxjvk7UyVv[] = {
/* columns rows colors chars-per-pixel */
"50 50 234 2 ",
"   c #000103",
".  c #070905",
"X  c #090907",
"o  c #050608",
"O  c #0B0B0B",
"+  c #120E0D",
"@  c #1D0B0B",
"#  c #0C1206",
"$  c #0E120A",
"%  c #111807",
"&  c #13140D",
"*  c #1C120E",
"=  c #141A0D",
"-  c #0C0E10",
";  c #141313",
":  c #191514",
">  c #171A13",
",  c #191B12",
"<  c #1C1A1B",
"1  c #250A0A",
"2  c #2C0B0C",
"3  c #340C0C",
"4  c #390908",
"5  c #28160D",
"6  c #391A0D",
"7  c #230E10",
"8  c #2A1715",
"9  c #231B14",
"0  c #231C1B",
"q  c #3C1212",
"w  c #341B13",
"e  c #341718",
"r  c #1A230D",
"t  c #1E2A0E",
"y  c #1C2411",
"u  c #1C2514",
"i  c #202D0F",
"p  c #3D210E",
"a  c #222515",
"s  c #232C14",
"d  c #282817",
"f  c #25221B",
"g  c #2D2419",
"h  c #332315",
"j  c #372618",
"k  c #3B2B1D",
"l  c #283417",
"z  c #2B3B15",
"x  c #2C341C",
"c  c #353A1B",
"v  c #1B1E23",
"b  c #261E21",
"n  c #252322",
"m  c #282528",
"M  c #392925",
"N  c #2F3620",
"B  c #383B25",
"V  c #2E3338",
"C  c #39393B",
"Z  c #500E0C",
"A  c #431413",
"S  c #4A1A19",
"D  c #561717",
"F  c #6A0F0F",
"G  c #631D1C",
"H  c #6A1919",
"J  c #7B1B1A",
"K  c #46220E",
"L  c #472717",
"P  c #4C2B15",
"I  c #442B1B",
"U  c #572B1C",
"Y  c #49331C",
"T  c #5A3216",
"R  c #583419",
"E  c #6B3515",
"W  c #663719",
"Q  c #723416",
"!  c #781D21",
"~  c #452925",
"^  c #582826",
"/  c #463626",
"(  c #563827",
")  c #463B34",
"_  c #573C39",
"`  c #692421",
"'  c #722A2C",
"]  c #633A25",
"[  c #38471C",
"{  c #384D1A",
"}  c #3B4524",
"|  c #3F5222",
" . c #474B1D",
".. c #48571D",
"X. c #565B18",
"o. c #6E401D",
"O. c #7C491D",
"+. c #566A1D",
"@. c #454B24",
"#. c #544E2D",
"$. c #495926",
"%. c #555B27",
"&. c #474236",
"*. c #594834",
"=. c #525932",
"-. c #694428",
";. c #794925",
":. c #7A5129",
">. c #794B32",
",. c #675734",
"<. c #6A5439",
"1. c #79563A",
"2. c #556424",
"3. c #5D6B24",
"4. c #58682A",
"5. c #5D7426",
"6. c #546733",
"7. c #676B2C",
"8. c #667728",
"9. c #677837",
"0. c #727032",
"q. c #353C41",
"w. c #483F45",
"e. c #3F434A",
"r. c #464749",
"t. c #55504D",
"y. c #6E534A",
"u. c #78684F",
"i. c #535A61",
"p. c #59656D",
"a. c #6F7173",
"s. c #80100F",
"d. c #861819",
"f. c #991C1A",
"g. c #A91A19",
"h. c #B61D19",
"j. c #8C211E",
"k. c #BD261E",
"l. c #892525",
"z. c #962725",
"x. c #9A392F",
"c. c #9A3736",
"v. c #A92525",
"b. c #BB2E27",
"n. c #BA322D",
"m. c #A73836",
"M. c #B33231",
"N. c #CC221C",
"B. c #DC261B",
"V. c #C72C23",
"C. c #DD2C23",
"Z. c #C7322B",
"A. c #DB352A",
"S. c #C73B36",
"D. c #D83B31",
"F. c #E13428",
"G. c #E13429",
"H. c #874615",
"J. c #974A12",
"K. c #8A501F",
"L. c #98521B",
"P. c #A04E15",
"I. c #A75919",
"U. c #B45B18",
"Y. c #AC601C",
"T. c #B36117",
"R. c #B2641B",
"E. c #8B5929",
"W. c #8F5030",
"Q. c #AE473E",
"!. c #886439",
"~. c #917238",
"^. c #B36B28",
"/. c #BA7832",
"(. c #CC453C",
"). c #D44139",
"_. c #8E564C",
"`. c #B94946",
"'. c #AF504B",
"]. c #A65B59",
"[. c #896B48",
"{. c #956A4C",
"}. c #997448",
"|. c #967A57",
" X c #B1784D",
".X c #A26654",
"XX c #8A7064",
"oX c #CB504A",
"OX c #CA5B55",
"+X c #E2554B",
"@X c #D56259",
"#X c #CD6C67",
"$X c #C77661",
"%X c #D97668",
"&X c #DB7774",
"*X c #E3756C",
"=X c #6D8836",
"-X c #6B853A",
";X c #888438",
":X c #BC823F",
">X c #C0873E",
",X c #8E824B",
"<X c #B4884B",
"1X c #A68759",
"2X c #B6925E",
"3X c #998766",
"4X c #9C8C73",
"5X c #BD9366",
"6X c #AC9973",
"7X c #B5A876",
"8X c #D3816F",
"9X c #DE8876",
"0X c #D5A27B",
"qX c #757C85",
"wX c #78838B",
"eX c #AA9C86",
"rX c #B9A284",
"tX c #B3A38C",
"yX c #B3A590",
"uX c #DF9393",
"iX c #E78D84",
"pX c #E79C98",
"aX c #D4AF8D",
"sX c #CAB692",
"dX c #E1A188",
"fX c #E8A399",
"gX c #D4AFA3",
"hX c #E8A9A7",
"jX c #ECB5B0",
"kX c #D7CBB2",
"lX c #DCD6C7",
"zX c #E2DDCB",
"xX c #E5DED1",
"cX c #E7E0D3",
/* pixels */
"                                                                                                    ",
"                                                                                                    ",
"                                                                                                    ",
"                                        O < n m n n 0 ; X o                                         ",
"                                  O M _ XX.X].].].]._._.y.t.C <                                     ",
"                              ; ~ '.'.OXoXZ.`.'.m.z._.' y.XXqXa.r.m                                 ",
"                          X ( '.oXC.).V.S.n.M.v.c.d.d.! ' ' ) w.a.qXr.;                             ",
"                        0 c.D.F.B.B.S.N.Z.b.g.v.g.l.s.J ` ^ D S _ r.a.a.v                           ",
"                    O j '.C.A.C.C.B.S.N.V.k.h.h.v.f.f.s.d.H G S A M w.p.qXe.o                       ",
"                  o ^ (.A.F.D.F.D.D.D.D.Z.V.b.b.M.g.f.f.d.J H F D S e m i.wXq.                      ",
"                ; _.(.+X+X@X&X*X&X@X@X(.Z.S.M.M.v.v.f.z.j.J ` G D S q ~ m r.qXq.o                   ",
"                y.%X*XiXpXhXhXhXuX&X&XOXS.M.v.f.f.d.J H F H G D S A A q e m r.wXV                   ",
"              M OXpXfXjXhXhXpXiX&X#XoXM.g.z.z.J H D D Z Z S A q q 3 3 2 e 8 b r.p.v                 ",
"            o .XiXjXjXhXfX9X#XOX'.'.c.l.l.' ` D S A A q q q 4 3 2 1 1 1 1 1 7 0 i.p.-               ",
"            0 8XpXfXiX%X$XoX`.Q.x.z.j.J G D Z Z q 4 4 4 4 4 4 3 2 1 1 1 1 @ @ @ 9 i.m               ",
"            ) aXdX9X%X$X X.X{._.1.>.>.-.-.] ( I I I / ( ( _ ( ( ~ I e 2 1 1 1 @ @ b m               ",
"            ) aX0X8X1X[.!.1.:.;.O.O.H.J.P.L.:.] P L I R ;.>.1.y.u.u.y.t.) k w 1 1 * <               ",
"            f aX5X}.!.E.E.K.K.J.J.J.I.U.U.R.}.:.P p 6 K Q Q Q W W U ( *.*.&./ M w 7 +               ",
"              y.2X<X~.E.E.K.L.I.I.U.T.T.U.^.6X[.R K 6 K E E E W W T P L I ~ M k k w O               ",
"              o ) 1X2X X~.L.I.Y.R.R.R.Y.I. XgX|.R K 6 K E E E E W T T P L j h w k 9                 ",
"                  ; &.|.<X:X/.^.R.R.Y.I.I.5XkX|.R K p p W E E W W W R P I L I k 9 o                 ",
"                      o f *.[.<X<X>X/./.^.sXlX|.R P p p T o.o.W W W R U Y j 9 X                     ",
"                            o ; f / *.<.[.kXkX}.T Y K p P -.( ( I j 8 * X                           ",
"                                        t.kXkX!.R ( P p p * o                         o             ",
"                                    o f 4XsXsX:.R 1.-.p p 5 o                       y =             ",
"                            o &     < 1X<X7X5XO.] XXu.p p p *                   o z @.O             ",
"                          X %./     O 1.~.1X6X[.-.XX*.5 5 5 +                 O c $.y               ",
"                          #.,XO       X , &.kX4X*./ h 9 o o               o = } @.l o               ",
"                        > ,X0.X           C lXeX*.k g 9 o                 s x | c .                 ",
"                        c ;X~.c o         C lXeX*.k g 9 o             O , [ | [ $                   ",
"                        @.0.;X7.&         &.xXtX*.k j f o   o @ o   o s | } l O                     ",
"                        @.0.7.7.%.o   o   r.xXyX*.k j f o   * G X $ s d s s =                       ",
"                        c 8.7.3.4.x =     r.cXtX<./ j g X   o : o l | | [ ,                         ",
"                o o     y %.4.3...9.} =   r.cXyX<./ j g O   O : O u y y y $                         ",
"                $ =     y %.2... .2.7.x j t.cXtX<./ j g +   & x l t , o     * 2                     ",
"                  - o   o a 2.3.+. ...c 0.u.xXtX<.( k j ; o & x z z z & o : U Z                     ",
"                  o O   o s ....{ [ c X.8.a.zXrX1.( I h a r s ; o o o o ; 0 O                       ",
"                o , N c @.B 7.8.8.8.2.+.X.3XzXrX_.W.` h a a x , O o o + : X                         ",
"            o x 6.9.9.9.9.4.8.8.+...@.[ X.7XkX6X.Xm.Z 6 9 : g s d w + & O                           ",
"          $ } } x , ; a x %.8.8.8.5.3.3.8.6XsX3X[.>.P 6 S 8 w * g 6 * : O                           ",
"          & $         o ; $ { 8.5.2.3.X.,.|.4X}.~.u.Y w P w 5 7 , g h a r $                         ",
"                    o   - ; x $.8.%.#.@.=.B #.9.7.,.Y 5 p L w A = r = = O o                         ",
"                    o < m =.9.6.$.} 4.9.%.l [ 4.7.%.@.%. .Y d a $ # $ # O X X O                     ",
"                $ } 6.9.-X9.=.&.N 4.=X$.} $.2.$...[ z [ d s [ l y % $ $ $ # $ $ $ O o               ",
"            X y 6.=X-X=X5.} < y { +...c z z a ; = r i t r t i r % % # # # # # . # # #               ",
"              x 6.6.$.} N n ; , l d , O $ O O X X X . . . . . . .                 . .               ",
"              < m n < 0 f < ; ; ; ; O O O X X o o o                                                 ",
"              < n n < < : ; ; ; ; ; ; O X o o o                                                     ",
"              : < 0 < : : ; ; ; O ; O X X o o                                                       ",
"              ; < < : ; ; ; ; O O O X o o o o                                                       "
};
