/* XPM */
static char *_02514b6c1d04a49cec24a7a9bdb8d6aXalTSYNzaKgYtpWC[] = {
/* columns rows colors chars-per-pixel */
"50 50 245 2 ",
"   c #010102",
".  c #0B0102",
"X  c #040A02",
"o  c #0A0B03",
"O  c #02020A",
"+  c #0B030A",
"@  c #04090B",
"#  c #0B0B0B",
"$  c #130201",
"%  c #1C0101",
"&  c #120A02",
"*  c #120C0A",
"=  c #1C0B06",
"-  c #0D1302",
";  c #0C1308",
":  c #121305",
">  c #141C03",
",  c #11120D",
"<  c #1D130C",
"1  c #151A0D",
"2  c #1B1D0C",
"3  c #191103",
"4  c #020112",
"5  c #0B0B11",
"6  c #070518",
"7  c #141414",
"8  c #161A12",
"9  c #1C1B14",
"0  c #161619",
"q  c #1D1D1D",
"w  c #1B1414",
"e  c #100F15",
"r  c #220402",
"t  c #250A01",
"y  c #2B0C0A",
"u  c #280B09",
"i  c #350D05",
"p  c #291708",
"a  c #391806",
"s  c #271816",
"d  c #351816",
"f  c #1C2405",
"g  c #1B2318",
"h  c #27260C",
"j  c #37250D",
"k  c #333B0A",
"l  c #2A2216",
"z  c #232A13",
"x  c #292C1D",
"c  c #272819",
"v  c #3B241B",
"b  c #37291A",
"n  c #2B3318",
"m  c #34361A",
"M  c #2B3707",
"N  c #181A24",
"B  c #231E22",
"V  c #1F2025",
"C  c #272925",
"Z  c #362B22",
"A  c #392D26",
"S  c #2C3328",
"D  c #363728",
"F  c #3B3C33",
"G  c #343635",
"H  c #312B34",
"J  c #451907",
"K  c #59140B",
"L  c #471514",
"P  c #591717",
"I  c #530E0A",
"U  c #681C1C",
"Y  c #78161A",
"T  c #6C100B",
"R  c #44210B",
"E  c #4C2B1B",
"W  c #472817",
"Q  c #592B14",
"!  c #5B351B",
"~  c #583418",
"^  c #48341D",
"/  c #633619",
"(  c #6B2C1D",
")  c #581B23",
"_  c #781D24",
"`  c #641924",
"'  c #452C22",
"]  c #582B27",
"[  c #44342C",
"{  c #483729",
"}  c #573927",
"|  c #483A37",
" . c #5B3E30",
".. c #662226",
"X. c #772727",
"o. c #693D37",
"O. c #703A2C",
"+. c #384308",
"@. c #394416",
"#. c #3C5211",
"$. c #3B4423",
"%. c #3C402F",
"&. c #3C4236",
"*. c #465519",
"=. c #475116",
"-. c #4F601C",
";. c #464827",
":. c #5D4025",
">. c #4C5629",
",. c #545C25",
"<. c #454839",
"1. c #5A4737",
"2. c #585936",
"3. c #4A5434",
"4. c #674529",
"5. c #674937",
"6. c #625336",
"7. c #76543A",
"8. c #784B2A",
"9. c #536323",
"0. c #596829",
"q. c #5B6636",
"w. c #61712B",
"e. c #666D3B",
"r. c #687738",
"t. c #717B3D",
"y. c #71683D",
"u. c #4A3E42",
"i. c #3C4242",
"p. c #454845",
"a. c #4C5144",
"s. c #44544A",
"d. c #575744",
"f. c #5C575B",
"g. c #695444",
"h. c #7D5C44",
"j. c #6A5655",
"k. c #5D6445",
"l. c #656C46",
"z. c #7A6445",
"x. c #6B7547",
"c. c #76784B",
"v. c #707258",
"b. c #5D5C61",
"n. c #666465",
"m. c #716D74",
"M. c #757E6A",
"N. c #86181C",
"B. c #9D1A1E",
"V. c #AB1E1C",
"C. c #8D3B09",
"Z. c #90211F",
"A. c #AE201E",
"S. c #861B22",
"D. c #A71F21",
"F. c #892826",
"G. c #9C2325",
"H. c #972526",
"J. c #903534",
"K. c #A62928",
"L. c #B92C2B",
"P. c #B93635",
"I. c #AC3032",
"U. c #C9282D",
"Y. c #C5322F",
"T. c #C73838",
"R. c #D72D33",
"E. c #98470F",
"W. c #A85F1C",
"Q. c #AD5809",
"!. c #AB6517",
"~. c #87482B",
"^. c #865429",
"/. c #984932",
"(. c #93552D",
"). c #A25632",
"_. c #876535",
"`. c #9A6C30",
"'. c #A56629",
"]. c #A16B3A",
"[. c #B66523",
"{. c #B33B44",
"}. c #C53942",
"|. c #8E514F",
" X c #A74A45",
".X c #A65354",
"XX c #B0544F",
"oX c #8A664C",
"OX c #8D7352",
"+X c #957657",
"@X c #8E6D52",
"#X c #B76554",
"$X c #A87449",
"%X c #907664",
"&X c #A86868",
"*X c #AB7571",
"=X c #CE5456",
"-X c #E14745",
";X c #CF6358",
":X c #CF5C61",
">X c #CB6869",
",X c #CC7869",
"<X c #EA7B74",
"1X c #E46964",
"2X c #74844D",
"3X c #7B826D",
"4X c #868856",
"5X c #8F8957",
"6X c #B18A5B",
"7X c #908F6B",
"8X c #AE8D63",
"9X c #AA9478",
"0X c #B69A7A",
"qX c #B69468",
"wX c #AEA875",
"eX c #CF8C74",
"rX c #CF8E73",
"tX c #E18C79",
"yX c #C1A87F",
"uX c #989498",
"iX c #92968D",
"pX c #AA9B8E",
"aX c #ADA191",
"sX c #B7A893",
"dX c #B5AA89",
"fX c #BEB2A4",
"gX c #CC8E89",
"hX c #FF9D98",
"jX c #EB9C8B",
"kX c #C4A98A",
"lX c #D4AF92",
"zX c #E5A495",
"xX c #F8A999",
"cX c #E4A38D",
"vX c #FCB8A6",
"bX c #E9BBAC",
"nX c #DDC0A2",
"mX c #E8C8A9",
"MX c #F2D1B4",
"NX c #F3E0BF",
"BX c #F5DDC3",
"VX c #F6E5D2",
"CX c #FDF0DA",
"ZX c #FFE2C6",
"AX c #FDF8EB",
/* pixels */
"O O O                       O O O O O O O O O O + O O O O O O O + + + + + . O O O O       O         ",
"O O O O                     O O O O O O O   O O     .   @ O O @ O . . . . + + O O O                 ",
"O O O O                       O O . .   . . . . = .             X   O +   O O O O O O O O O . .     ",
"O O O                       O + + + . . . $ % y r d ' d y r $ .           X O O O O O O O           ",
"                      O O O O O     X S j.j.oX%X*X*X&X|.&X&XO.L t     X X     #   . . . O           ",
"                      O O O O @ g s.3XiX7Xg.o.|.X. XXX X X:X>X>X.XQ r $ & .     . . . .     X X     ",
"                    O   O O C i.iXM.<.Z ] ] U X.Y H.I.I.P.P.P.T.Y.:X=XU % . & .     . . .           ",
"                    O O O N b.uXF | v a ] X.Y Y G.B.D.D.L.Y.L.R.R.U.T.=X XL $ .                     ",
"        O       O @     p.uXf.u.d L L ..U _ N.G.B.K.V.A.V.Y.L.Y.R.U.R.T.=XXX..%     X     # . $     ",
"            O O     # G uXn.s d ) ) P _ Y S.N.G.D.L.T.Y.T.Y.P.T.T.-XT.T.}.{..XO.%     X     . .     ",
"  O O     O O O # @ C uXu.w u.u ) ` ` X._ S.S.H.G.K.P.L.T.P.=X;X;X,X<X1X=X:X:X.X|.y   X X   #       ",
"O   O O O O O O O H uX| B A . | L P ) ..X._ Y N.F.H.G.K.P.P.=X<XtXtXvXxXhXhX<X,XgXo.$       @ O     ",
"O + O O O O O O N m.f.s s s s y y y i L L I I K T T T H.H.K.I.XX;XeXeXjXxXxXvXcXzX*X] $ .     O O   ",
"O + O O O O O # m.f.* s $ u y u d y d i a i J J I K K X.X.F.F.J. XXX#X,XeXcXvXMXvXzX@Xr $ . O O O   ",
"O O O O @ O O N n.+ s < u r r u r % t r t r i i i i i J P Q U X.J.F. X X X,X,XtXxXzXgXi . . O O O   ",
"O + O O O O + H B w $ = r y t a W E  .} 5.}  .} W W ! Q O.O.~.~./.). X#X#X#XeXeXrXcXbX] . .         ",
"      .     + w < < u p v } g.h.oXoXoX7.h.7.} E R W O.~.(.W.E.E.C.C.~././.(.].$XqXkXmX{ &           ",
"            + < s s b { 1.5. .} Q Q Q Q / ! J a W W 7.$X'.W.Q.Q.Q.E.C.~.~.(._._._.wXsX3   o   X     ",
"              # s Z [ { ^ v W ~ ! / O.O.8.4.W R W W oXyX$X'.[.!.Q.!.'.(.^.^.^._.qX0Xv.. + O O       ",
"        .     . A C s s v ' ' W ! ! / / / ! J a R E +XmX$X(.W.W.!.'.'.^.8._.8XyX5X{ $ O 4 4 4 O O   ",
"        O         w A [ A A [  .} ! / / / ! J R W E +XNX8X^.`.].`.`.].6XyX0XOX6.t . . 4 4 4 6 4 O   ",
"                    # s Z [ [ ' } } 4.4.4./ J a W E +XZXlXOX+X6XqXqX8X@X:.p $ . . * O 4 6 4 4 4 O   ",
"                        . & s b W E } :.4.! J J ~ Q oXNXmXoX7.7.} a % $ . $ & . .   O O 5 O O @     ",
"                  .     . .   . . . . $ t a a Q 4.! z.MXmX4.= $ $ . . $ .       #   5 O     X       ",
"        X   , S           . #       . . p W a 5.7.! 4.nXlX9Xp . . e .   #     + O O O               ",
"O O         0 p.S X   X       7 O O O , A b j z.+X~ 7.0XkX9XsXs + O B         O O O O               ",
"O           X C n.&.o   X #     O O O 5 C < p 1.9X:.z.9X7X%Xv.. +   F v.  X , O 4 4 O O             ",
"O O     #       C a.p.8     . X O @ O O # . < j ^ } 0XBX^ 3   &     : 7X;.    O 4 4 O O O           ",
"+ O             X S &.F c X   .   . +     . l l j :.9XVXA . 9   .     e.7X-     4 4 4 O O   . O O   ",
". . .         o   8 &.a.&.8   . .   +   +   l b b 6.aXVXD   @   o   k c.7Xk   # 4 4 O O       O     ",
". . .           X   X c <.a.S . & . s .     s Z b 1.aXCXF e O e   p e.5Xt.=.o   O 4 O               ",
". .       o     X   X g g x x 9 & . | *   # C Z [ | aXAXD   N   . 2.e.,.4X@.X   O O O               ",
"                O       1 &.a.a.D   1 X   * l Z A d.pXAX<..   f k ,.q.e.e.m                         ",
"        O O O O     .   ; z z > 1   g ;   3 l Z [ 1.fXCXD   2 m x.9.e.q.v.>                         ",
"        O O O O     7 , .   X 2 S C F ,   = b v { g.sXVXg.h m c.,.=.*.2.<.8 O 6 H N 6 O O           ",
"          O O O # # q S c . : F F S D < . p v v ' g.pXCX%Xl.n >.*.9.q.q.n 1 O O 6 4 4 O O           ",
"        O O O O       8 9 o . o . . s s p d W E o.5.dXCXz.c.2.k =.+.9.=.f       #   O O       .     ",
"        O O O O O #     # 9 :     o s A d d L E oXh.kXNX4X>.e.0.r.r.r.0.@.@.$.$.-       . #         ",
"        O O O O   o .     # 1 : c x l b p p a R 7.@X0XmXdX+.+.*.=.w.0.t.9.4X2Xc.3Xk.S X       +     ",
"        O O O   O     . # ; ; : x c 3 p p j a R 4.OX5XkXwXr.r.0.w.w.r.t.0.k f > - D a.F 8   O O     ",
"              O O     . , 9 C S x o 2 p b W p ! OXz.OXwX4X-.9.0.-.2Xr.@.X - o       O 5 7     +     ",
"                      . o ; 8 2 g > z h h j p j 6.y.4X=.M 9.*.#.0.w.>.M - o X   O 5 5 O O O         ",
"                    o o o o # ; X - z m D ;.2.2.2.c.q.k M >.r.q.+.>.l.l.2.n 1 X         O O         ",
"                # # , , , , , , 1 z n D n n ;.n h >.2.l.q.@.q.2X>.@.$.3.v.M.v.d.%.2     #     O     ",
"            . o # # # # # , , , 1 2 2 x c g D z n - - - n $.n 3.v.$.> - $.l.7X4X7Xk.z X .     +     ",
"            . o         .   .   . .   o X   X     X - - - - o 1 x x z > f n $.$.l.d.m X       O     ",
"                                        X     X @ ;   # #   9 * X o o 1 g C g 8 9 C q       .       ",
"                    . .           .             X   O   O 7 e * 8 8 7 0 # 7 0 C C C 0 +             ",
"                                                        o   + # # , , 7 7 7 0 0 q q 0               ",
"                                                        #     # # # 7 7 7 7 7 7 q q 7               "
};
