/* XPM */
static const char *spider_red2[] = {
/* columns rows colors chars-per-pixel */
"50 50 229 2 ",
"   c #010000",
".  c #0B0105",
"X  c #070108",
"o  c #0D020A",
"O  c #0D0909",
"+  c #130105",
"@  c #1B0105",
"#  c #12020A",
"$  c #1B020B",
"%  c #130B0C",
"&  c #1B0B0E",
"*  c #070413",
"=  c #1D0111",
"-  c #130C12",
";  c #1D0D13",
":  c #140C1B",
">  c #181116",
",  c #1C1214",
"<  c #23010B",
"1  c #25070B",
"2  c #2C010D",
"3  c #30010D",
"4  c #250114",
"5  c #2C0113",
"6  c #250618",
"7  c #340214",
"8  c #3B0216",
"9  c #340119",
"0  c #3C011B",
"q  c #231215",
"w  c #24161A",
"e  c #2B131B",
"r  c #25181C",
"t  c #2A1B1D",
"y  c #331719",
"u  c #161228",
"i  c #280823",
"p  c #320123",
"a  c #3B0223",
"s  c #380727",
"d  c #2D1B24",
"f  c #331E22",
"g  c #3A1A23",
"h  c #391B28",
"j  c #2D1A30",
"k  c #381835",
"l  c #342224",
"z  c #3A2125",
"x  c #34232B",
"c  c #3C262B",
"v  c #382B2C",
"b  c #3A2337",
"n  c #44031E",
"m  c #410427",
"M  c #46012C",
"N  c #4B032B",
"B  c #500625",
"V  c #52022D",
"C  c #451722",
"Z  c #431A23",
"A  c #51182A",
"S  c #4A0132",
"D  c #530333",
"F  c #5E0234",
"G  c #580536",
"H  c #5C033A",
"J  c #63043B",
"K  c #6C023D",
"L  c #44242B",
"P  c #47272B",
"I  c #4B292B",
"U  c #522A2D",
"Y  c #422331",
"T  c #4B2432",
"R  c #432B35",
"E  c #492B39",
"W  c #532C34",
"Q  c #582A38",
"!  c #4B323B",
"~  c #533234",
"^  c #54383A",
"/  c #76282B",
"(  c #622B3A",
")  c #682F3F",
"_  c #722C38",
"`  c #66353B",
"'  c #66413F",
"]  c #6C0341",
"[  c #720743",
"{  c #7B1A49",
"}  c #4B2C45",
"|  c #512C4C",
" . c #4A3443",
".. c #5C3846",
"X. c #572954",
"o. c #5B3A58",
"O. c #6B2F44",
"+. c #762C44",
"@. c #683948",
"#. c #763849",
"$. c #6A3D59",
"%. c #763857",
"&. c #663A74",
"*. c #5E4859",
"=. c #754747",
"-. c #7D444B",
";. c #6C4654",
":. c #6B4A55",
">. c #794654",
",. c #7C4952",
"<. c #60426E",
"1. c #774A64",
"2. c #7B5A69",
"3. c #71477D",
"4. c #86343C",
"5. c #97384C",
"6. c #832C57",
"7. c #8A3750",
"8. c #9B395A",
"9. c #AD364E",
"0. c #942E64",
"q. c #8A3E65",
"w. c #A03968",
"e. c #E83A55",
"r. c #C43F6D",
"t. c #F03D74",
"y. c #874A4D",
"u. c #86465A",
"i. c #944C59",
"p. c #8C5359",
"a. c #9D5356",
"s. c #97575A",
"d. c #BA464C",
"f. c #A54153",
"g. c #B54957",
"h. c #A4575B",
"j. c #8C4562",
"k. c #994968",
"l. c #8B5769",
"z. c #9A5766",
"x. c #875873",
"c. c #99547C",
"v. c #A7416C",
"b. c #A25969",
"n. c #B65766",
"m. c #B35D6A",
"M. c #A44C79",
"N. c #B74672",
"B. c #A75C7B",
"V. c #AD5D7B",
"C. c #BA5D72",
"Z. c #B7597A",
"A. c #AE6160",
"S. c #BC656A",
"D. c #B76377",
"F. c #C74954",
"G. c #EC4053",
"H. c #EA4959",
"J. c #EA545D",
"K. c #DA4566",
"L. c #C55F64",
"P. c #CA4D77",
"I. c #D94675",
"U. c #D65774",
"Y. c #DC547C",
"T. c #E84567",
"R. c #E45669",
"E. c #F3536A",
"W. c #E44A76",
"Q. c #F24B72",
"!. c #E95577",
"~. c #C7636B",
"^. c #D46367",
"/. c #C36A72",
"(. c #C66778",
"). c #DA6776",
"_. c #EA627A",
"`. c #715C8A",
"'. c #DF3E88",
"]. c #83568C",
"[. c #9E5183",
"{. c #B74C86",
"}. c #B05A8A",
"|. c #9F6C8E",
" X c #B36B8B",
".X c #A26594",
"XX c #915FA3",
"oX c #AB70B2",
"OX c #C74C8D",
"+X c #D6438B",
"@X c #C75988",
"#X c #D85B89",
"$X c #D64190",
"%X c #C5579B",
"&X c #D65A97",
"*X c #ED4982",
"=X c #E65785",
"-X c #F6588B",
";X c #E75899",
":X c #F75491",
">X c #F55B91",
",X c #D76689",
"<X c #C6639C",
"1X c #D56595",
"2X c #CD7291",
"3X c #C97798",
"4X c #E9658C",
"5X c #EC6B93",
"6X c #ED669C",
"7X c #F76296",
"8X c #F76598",
"9X c #D552AB",
"0X c #DA54B5",
"qX c #E053A8",
"wX c #D869A6",
"eX c #C476A5",
"rX c #DA74A5",
"tX c #DA73B6",
"yX c #E163A4",
"uX c #EC6CAC",
"iX c #F36BA3",
"pX c #EE74A5",
"aX c #F479A8",
"sX c #EC76BA",
"dX c #F27DB8",
"fX c #D972C2",
"gX c #F387BA",
"hX c #D98AC4",
"jX c #F188C3",
/* pixels */
"                          %                                                                         ",
"                          v O                                                                       ",
"                          l t                                       O -                             ",
"                          , ^                                       l ,                             ",
"                            ..,                                   % I X                             ",
"                            c ^                                   z z                               ",
"                            % =.%                               O ^ %                               ",
"                              ' ~                               L ~                                 ",
"                              y s.%                           % ,.t                                 ",
"                              % h.U                           ~ ,.X                                 ",
"                                y.a.O                       q b.W                                   ",
"                                W /.I                       #.m.q                                   ",
"                                w (.[.-                   d  Xu.X                                   ",
"                                X k.tX|                 X l.,XY                                     ",
"                                  #.R.5.X               c ).d.&                                     ",
"                                  f ^.F.y               p.J./                                       ",
"                                  X a.R._             t /.F.1                       . # ; -         ",
"              & @ 1 $ O             ~ ^.g.%           >.^./               % R >.) C y 1 # O         ",
"                + A 9.g.` %         ; S.,XX.        , D.d.y           t ;.z.D.z.Q #                 ",
"                    U S.^.h.L X       ,.tXoX:     . x.rXj..     O f ,.C.C.i.I %                     ",
"                      q -.~.L.s.! X   R hXyXZ     q rXjXo.     .b.m.C.u.L %                         ",
"                          z s.2X3X1.% . #.T.9.;   +.t.9.#   ( wXtXz.f X                             ",
"                            O @.Z.#Xk., # N.;X%.} wX;XA % %.I.&X.Xr                                 ",
"                                c Z.=XZ.T c.fXfXtX0X<XY k.;X1X1.-                                   ",
"                  . & y X.$.#.#.x x V.P.Z.3X@X#X=X#X2XM.OX}.$.} 1.@.@.R %                           ",
"              Z 4.9.d.F.@X<X1X4X#X>.Y l.eX@Xr.I.W.K.).eX[.q.v.#X#X{.<XC.a.=.I q X                   ",
"          # O.n.g.f.7.( T E ..j.P.Y.v.[.eX%X%X$X+XW.!.,XM.OX&Xw.A e E O.i.n.S.A.-.g X               ",
"        & #.8.Q e % X           L k.@XtXsXuX;X$XyX:X>XiXrXM.$.T W c X   % e Q -.i.z.@.q             ",
"      ; +.+.q           % E Q T g >.pX:X:X-X-XuX6X-X7X:X8X1XP.Y.5X3X>.O         % z ( ` I %         ",
"    ; ( Z .           O u.,XW.T.K.5X8X7XiX8XiXiX*X-XaX>X>XpX@XZ.V. XD.,.-             & L W l O     ",
"  ; T q               @.(.(.q.7.8.rXaX6XiX6XgXdXdXpX4X4X!.=XQ % # ! b.D.l.>               O q f r   ",
"O e %               L ~.n...O X $ B.4Xe.Q.=X5XgXjX!.e.E.Q.U.g .     L h./.l.,                 . O   ",
". .               t m.L.` X     . ( 4Xe.e.Q.E._.!.e.G.E.T.n.; o       z a./.z.,                     ",
"    .           % s.~.y.%       . 6 k.=X'.yX!.H.H.G.H.H.K._ $ # o       y s.S.p.-                   ",
"              . ,.^.a.q     X . o $ s M.$X0XwXR.J.J.e.K.5.7 2 < + o .     w p.D.;.                  ",
"              t /.n.z       X o $ 4 6 m q.+X0XwX!.H.K.5.n 7 3 < @ + + .     w l..Xj                 ",
"            . x.eX@.    X . # = 4 6 p a M 6.&X0X=XW.8.B m 0 9 5 < @ + o .     k oX].-               ",
"            f  Xc.;   X . o $ 6 p p a M M D 6.9XqXN.G V V N m 9 < @ + + o     . | oXo.X             ",
"            ,.D.T X X . o # $ 6 p a M S S D F 0.{.{ F J H D M 9 < @ @ . . .     o $.|.d             ",
"          d D.u.- . X o o # $ 4 9 a N D G H J K [ K K ] J D 0 2 < @ + .           % :.2.-           ",
"        X >.V.h . X X X o # $ 4 9 a M D H H J ] [ ] ] J V 0 2 < $ + + .             % 2.*.X         ",
"  X X   e B.%.# + . . . . o # $ 4 9 0 N G H J J J J F N 8 2 2 < $ # + . .             r 2.x         ",
"  X X   | .Xd . o o . . o o + # $ < 2 9 m N N N V D N 0 3 < < $ # + . . .               f :.r       ",
"X o . O ].&.o . . . o o o o o + + @ < 2 5 9 9 0 a 0 9 5 < < @ + + . . . . . . .         . ! `.u     ",
". o . j XXk + + o . o o o o o + + @ @ < < < < 5 5 4 4 < $ @ + + o . . . . o o . . . . + + @ o.`.*   ",
"o # o <.&.$ @ + + o . o o o o o o o + @ @ @ @ = = = = $ # + + o o . . . . . . . . . + + + @ 1 } :   ",
"o o i 3.s < @ + + + o # # o o o o + + + o # # # $ $ # # + o . . o o o . X . . .   . . . + + . . X   ",
"o o b X.4 < @ + + . . o o o # # o # # # # # # # # o o o o o . . + . o o . . . . . . . . . .         ",
"o o q s 4 < @ + + + o o o o o o o o # # # # # # + o o o o o . . + o o o o . . . . . .               ",
". o + @ < $ @ + + . . o o o o o # # # # o o # + o o # o o o . o . o o o . . . . . . .               "
};
