/* XPM */
static const char *red_spider1[] = {
/* columns rows colors chars-per-pixel */
"50 50 240 2 ",
"   c #010001",
".  c #0B0204",
"X  c #0B0807",
"o  c #060409",
"O  c #0D020A",
"+  c #0D090A",
"@  c #040809",
"#  c #130205",
"$  c #1C0205",
"%  c #13020B",
"&  c #1C020C",
"*  c #130B0D",
"=  c #1C0C0E",
"-  c #0B0C12",
";  c #130411",
":  c #1D0111",
">  c #1B0D11",
",  c #160D17",
"<  c #1B1214",
"1  c #171418",
"2  c #210107",
"3  c #23020B",
"4  c #2C010C",
"5  c #28080A",
"6  c #240113",
"7  c #2C0213",
"8  c #27011A",
"9  c #25071A",
"0  c #350113",
"q  c #34021A",
"w  c #3B021C",
"e  c #3B0418",
"r  c #231416",
"t  c #24151C",
"y  c #2B1B1D",
"u  c #23181A",
"i  c #331B1E",
"p  c #38151E",
"a  c #31020C",
"s  c #3F211F",
"d  c #050221",
"f  c #2B0527",
"g  c #330225",
"h  c #3C0223",
"j  c #390528",
"k  c #271925",
"l  c #351E23",
"z  c #351926",
"x  c #351E30",
"c  c #2C2227",
"v  c #3B252B",
"b  c #3D2A2C",
"n  c #362126",
"m  c #352530",
"M  c #41011A",
"N  c #45022C",
"B  c #4B022C",
"V  c #450225",
"C  c #53022D",
"Z  c #491927",
"A  c #4D0333",
"S  c #560435",
"D  c #5C0335",
"F  c #5C043C",
"G  c #550437",
"H  c #591524",
"J  c #65033C",
"K  c #6D043D",
"L  c #64063B",
"P  c #43242B",
"I  c #452A2C",
"U  c #4E2A2E",
"Y  c #462727",
"T  c #502C2E",
"R  c #462A35",
"E  c #572A36",
"W  c #4B3337",
"Q  c #583439",
"!  c #68293D",
"~  c #61343A",
"^  c #73292C",
"/  c #6E0442",
"(  c #720345",
")  c #721541",
"_  c #472742",
"`  c #463542",
"'  c #5C3A4C",
"]  c #5B3A44",
"[  c #5A2B5B",
"{  c #593B5B",
"}  c #563656",
"|  c #492950",
" . c #693640",
".. c #6F384F",
"X. c #663C43",
"o. c #753847",
"O. c #673758",
"+. c #773957",
"@. c #663A70",
"#. c #66444A",
"$. c #7F444B",
"%. c #774845",
"&. c #7B4757",
"*. c #765359",
"=. c #6C4355",
"-. c #6C517E",
";. c #6D4E67",
":. c #852D4C",
">. c #983C47",
",. c #8B3958",
"<. c #983C57",
"1. c #B83A48",
"2. c #BF2A52",
"3. c #922E62",
"4. c #A33967",
"5. c #C1345F",
"6. c #D13C4F",
"7. c #E62A47",
"8. c #E93D52",
"9. c #E53649",
"0. c #F23B6E",
"q. c #93414F",
"w. c #884759",
"e. c #85565A",
"r. c #98585B",
"t. c #8A4E4E",
"y. c #B64756",
"u. c #A8575D",
"i. c #8C4966",
"p. c #9B4A6A",
"a. c #835363",
"s. c #865C67",
"d. c #975865",
"f. c #944C77",
"g. c #9B5778",
"h. c #87587A",
"j. c #A1406B",
"k. c #AC5C62",
"l. c #A35261",
"z. c #B05E6A",
"x. c #A95972",
"c. c #B14A76",
"v. c #84667A",
"b. c #976979",
"n. c #94707E",
"m. c #A46368",
"M. c #B7697C",
"N. c #AD637E",
"B. c #CF4953",
"V. c #E94852",
"C. c #F0485A",
"Z. c #EA5157",
"A. c #C5486E",
"S. c #DF496E",
"D. c #C35767",
"F. c #D75062",
"G. c #C85779",
"H. c #D94B77",
"J. c #F2476A",
"K. c #F4576B",
"L. c #E54A79",
"P. c #F94C74",
"I. c #E95576",
"U. c #F7527C",
"Y. c #EF4D6A",
"T. c #C56A6B",
"R. c #D5656A",
"E. c #C86778",
"W. c #D26B7C",
"Q. c #D86878",
"!. c #D5767A",
"~. c #E5686C",
"^. c #F86468",
"/. c #E56778",
"(. c #EB767C",
"). c #F76071",
"_. c #735091",
"`. c #DD3985",
"'. c #CA3988",
"]. c #815391",
"[. c #915E9B",
"{. c #984B83",
"}. c #A75C82",
"|. c #BB5A8E",
" X c #926880",
".X c #BA6889",
"XX c #B26A95",
"oX c #B7788B",
"OX c #B275B3",
"+X c #8B74AC",
"@X c #C2578B",
"#X c #C85896",
"$X c #D75798",
"%X c #DB4A8D",
"&X c #FB4D89",
"*X c #E05081",
"=X c #F65B8C",
"-X c #F65786",
";X c #F65894",
":X c #E74991",
">X c #C8688B",
",X c #D76884",
"<X c #D47289",
"1X c #D46A92",
"2X c #CC718D",
"3X c #EC678B",
"4X c #F3628C",
"5X c #E96795",
"6X c #F96699",
"7X c #F77499",
"8X c #D44DB2",
"9X c #F356AC",
"0X c #DD65A9",
"qX c #D87CAB",
"wX c #D96DB2",
"eX c #CA77B5",
"rX c #E869A5",
"tX c #F36BA8",
"yX c #EC7AA8",
"uX c #F675A8",
"iX c #FF64B0",
"pX c #EB7AB8",
"aX c #F37DB5",
"sX c #EC68B1",
"dX c #B175CD",
"fX c #E057C1",
"gX c #DA7CD0",
"hX c #E578C5",
"jX c #EA72CD",
"kX c #BE80A7",
"lX c #E58799",
"zX c #CB85A9",
"xX c #CE81B5",
"cX c #F886B6",
"vX c #E584A9",
"bX c #C688D0",
"nX c #F180C2",
"mX c #F898D8",
"MX c #F898C8",
"NX c #EE9FE1",
/* pixels */
"                                                                        *                           ",
"                                                                      X W                           ",
"                            < X                                       n b                           ",
"                            r b                                       #.,                           ",
"                              Q +                                   < #.                            ",
"                              P I                                   ] I                             ",
"                              + #.                                X e.+                             ",
"                                X.I                               Q %.                              ",
"                                t d.                            X m.i                               ",
"                                  r.Q                           T T.X                               ",
"                                  E M.*                         k.r.                                ",
"                                  > W.o.                      s (.U                                 ",
"                                    w.qX1                   o XX<X>                                 ",
"                                    x yXd.                  | jXp.                                  ",
"                                    O 6.(.c                 >.).o.                                  ",
"                                      ^ ^.s.              r Z.~.y                                   ",
"        1 t % X                       = B.!.1             ^ ^.u.                                    ",
"        X * 3 p Z o.a.b X               ^ ^.*.          X y.~.T               . 3 & >               ",
"                . E M.<Xz.=.u           r B.E.X         } 3XT.X         @ ~ D.B.H #                 ",
"                    X U l.,XE.w.y         i.hXv.      - dXhX&.        Y u.(.!.U                     ",
"                        X P w.,XG.x.`     { mXpX*     p tXNXI     ` r.R.(.$.*                       ",
"                              y g.nXpXE   . 2.0.o.  * 1.0...    s.yXlXm.l                           ",
"                                , OX;X0.w.  Z ;XpXx O.9XA.  - g.=XG.#.@   X                         ",
"                                    ;.rXiXp.t eXfXhXgXjXg.z 2X=X>Xc                                 ",
"                            R ....;.m { #X$Xc.>XH.L.*X>XzX|.H..X1 k &.o.@.[ p *                     ",
"                    * Y %.u.W.pX@XtX6X4.+.{.xX/.6.L.S.5.G.zXa.k &.5X6XyXwX$XF.B.1.>.i               ",
"                i t.T.Q.E.u. .R % e 4.sX#X4.1XI.L.`.%X#X|.eXf.4.&X*Xi.' R P ~ q.y.F.Q...            ",
"            = o.M.d.w.E r       v R z ' f.qXuX;X;XrX'.rXtXhXhX@Xp.n             @ r E y.<.X         ",
"        + T $. .l             &.vXuXU.A.1X6X;X6XU.rXpXU.=X&X&XcXX.r R E W @           & :.,.*       ",
"    X v ~ U *               e.E.oXN.@X,XuX=X=XcX-X0.tXtX6XuX4X6X7XJ.P.-X7Xd.              Z o.>     ",
"  c P t X               @ b.W.z.W   X W 4XI.3X3XpXpXaXcX5XuXrXaXvX<.:.,.E.,X#.              > Q <   ",
"  + .                 + b.W.k.v   .   z I.J.K.7.I.mXMX3X-XP.7.6X.X      ] D.W.v               O p X ",
"      X             * m.!.k.i       % ; D.J.K.C.9.I./.K.Y.8.7.7X!         X.R.E.<               . X ",
"                  X d.T.r.u       . % # ! Y.8.C.8.V.V.I.wX`.=Xx.& O       X t.R.m.X         . .     ",
"              X   =.2Xr.<       O % & 4 4 <.J.9.K.Z.F.wX8X:X}.7 & % O       * u./.e.                ",
"                k XXb.,   X . # $ 2 4 0 0 0 <.S.V.K.wX8X%Xi.g 8 6 % o         n T.Q.<               ",
"                [.bXz     . . # $ 3 7 q M V M j.I.:XfX0X+.h N q 8 8 : % .   o   ' eXh.              ",
"              { bX_   X X . . # $ 3 w V B C C V c.9X0X:.B A N j g g 8 & . . o   + }.2Xr             ",
"            t kXO.  X   . . . $ $ 3 q N S D J D ) #X3.C S A A A j g 8 & % O . .   P <Xe.            ",
"             X*.            . # # 2 4 w S J / / K K J J F G G N h q 6 : % O o   X X i.2Xu           ",
"          ;.b.X             . . % & 3 a e C J / ( ( / J F G G B h q 6 & % o o . .   z >X&.          ",
"        c n.<             . . # % & 3 4 4 e B D L K L L F S A w 7 6 6 % . . . . O #   +..X>         ",
"      , v.y               . . . . # & 3 4 a w B S C B B B h 0 4 3 & & # % O   . O %   9 OX'   O o   ",
"    d +X`           . . . . . . . # % & 3 4 7 q w h w 0 q 7 3 3 $ # # O O O o O . o O   _.[.  O o   ",
". o _.;.. $ # . . . . . % . . . . . % % & & 6 6 6 7 7 3 3 3 3 2 $ $ # O O O O O O O # # f OXk   O o ",
"  , { $ 2 $ # # .   . . . . . . . O % % $ % & : : : : & & & $ $ . O O O O O O o . # # & # @.-.  ; O ",
"      # # # . . .   . .   . . # . # . . # % % % & % % % % . # # # O O O O % % . # # # & 3 f ]., O O ",
"        . . . . . . . . O . . . . # . . . . O . . O O ; % % % % % O % % O O O . . # # & 7 & [ _   O ",
"        . .   . .   . . . . . . % # . . O O O . . # % % % % % # O O % O O O O # # # $ $ 3 6 j t . O ",
"            X . . . . . . . . . . . X . . . % % # . # % O O O % % % % O % O . . . # # $ 3 3 $ . O O "
};
