/* XPM */
static const char *shine_wall[] = {
/* columns rows colors chars-per-pixel */
"50 50 247 2 ",
"   c #020203",
".  c #0B0404",
"X  c #060804",
"o  c #02040C",
"O  c #0A050D",
"+  c #030B0C",
"@  c #0B0C0C",
"#  c #0A0C06",
"$  c #120C0C",
"%  c #16080A",
"&  c #0D100F",
"*  c #06110D",
"=  c #020414",
"-  c #0A0614",
";  c #020B14",
":  c #0B0C14",
">  c #01051B",
",  c #010B1C",
"<  c #0C0D1B",
"1  c #110E15",
"2  c #120E1C",
"3  c #120612",
"4  c #061214",
"5  c #0C1214",
"6  c #03121C",
"7  c #0C131B",
"8  c #071A18",
"9  c #121315",
"0  c #13131C",
"q  c #19171C",
"w  c #131A1D",
"e  c #191819",
"r  c #12130E",
"t  c #251618",
"y  c #0F241D",
"u  c #000624",
"i  c #010C23",
"p  c #0B0E22",
"a  c #000629",
"s  c #010D2A",
"d  c #100F23",
"f  c #021224",
"g  c #0C1324",
"h  c #021C25",
"j  c #0C1924",
"k  c #02142B",
"l  c #0C152B",
"z  c #031A2C",
"x  c #0B1B2C",
"c  c #131423",
"v  c #141A24",
"b  c #1B1C25",
"n  c #13152A",
"m  c #131C2C",
"M  c #1B1D2B",
"N  c #191528",
"B  c #000A36",
"V  c #011532",
"C  c #0A1432",
"Z  c #021B34",
"A  c #0B1B33",
"S  c #00163A",
"D  c #011C3B",
"F  c #0B1C3A",
"G  c #091638",
"H  c #131C32",
"J  c #1B1D32",
"K  c #121C3B",
"L  c #1A1C39",
"P  c #131534",
"I  c #221D2C",
"U  c #211923",
"Y  c #221E34",
"T  c #02222B",
"R  c #0B242B",
"E  c #1C2426",
"W  c #15222B",
"Q  c #1C222D",
"!  c #1A2528",
"~  c #032235",
"^  c #0C2234",
"/  c #0A2934",
"(  c #02233C",
")  c #0B233B",
"_  c #03293D",
"`  c #0D2A3D",
"'  c #062834",
"]  c #132334",
"[  c #1C2335",
"{  c #132836",
"}  c #1C2A33",
"|  c #13243B",
" . c #1C243A",
".. c #142A3D",
"X. c #1C2A3C",
"o. c #1B333C",
"O. c #1C3128",
"+. c #22232D",
"@. c #232A2D",
"#. c #292327",
"$. c #242433",
"%. c #2A2535",
"&. c #232B34",
"*. c #2A2B35",
"=. c #22253B",
"-. c #232C3C",
";. c #2C2B3B",
":. c #2D273C",
">. c #332C3E",
",. c #362936",
"<. c #24323E",
"1. c #2E333C",
"2. c #2B3335",
"3. c #34313E",
"4. c #31383D",
"5. c #030D42",
"6. c #001D41",
"7. c #011E4C",
"8. c #081942",
"9. c #022343",
"0. c #0C2642",
"q. c #032A42",
"w. c #0C2B44",
"e. c #00264B",
"r. c #04294A",
"t. c #0B2C4B",
"y. c #0C244C",
"u. c #122543",
"i. c #1C2541",
"p. c #132B43",
"a. c #1B2C43",
"s. c #142D4A",
"d. c #1B2B4B",
"f. c #14264D",
"g. c #0D324C",
"h. c #063147",
"j. c #143245",
"k. c #1C3244",
"l. c #15314D",
"z. c #1C324B",
"x. c #153A4D",
"c. c #1A3A4B",
"v. c #042D53",
"b. c #042551",
"n. c #142958",
"m. c #02335C",
"M. c #0B3858",
"N. c #133352",
"B. c #1B3452",
"V. c #133C55",
"C. c #1B3B53",
"Z. c #14375B",
"A. c #1D3558",
"S. c #143C5D",
"D. c #1C3B5A",
"F. c #242B43",
"G. c #2C2E42",
"H. c #232C4A",
"J. c #272543",
"K. c #233245",
"L. c #2B3344",
"P. c #23344B",
"I. c #263A4D",
"U. c #2B3A4B",
"Y. c #263949",
"T. c #343443",
"R. c #343A46",
"E. c #3A3B45",
"W. c #33354A",
"Q. c #363C4C",
"!. c #3B3C4B",
"~. c #383443",
"^. c #212E50",
"/. c #223554",
"(. c #223A53",
"). c #2C3D54",
"_. c #2C3E5A",
"`. c #273959",
"'. c #323C53",
"]. c #3A3F52",
"[. c #302E43",
"{. c #0B3A62",
"}. c #063865",
"|. c #143C64",
" X c #163A67",
".X c #2B3D64",
"XX c #253962",
"oX c #403A47",
"OX c #1D425A",
"+X c #19465E",
"@X c #2B414B",
"#X c #34414A",
"$X c #25445D",
"%X c #2B435B",
"&X c #294858",
"*X c #3B4254",
"=X c #33455B",
"-X c #3C4459",
";X c #36485B",
":X c #3F515F",
">X c #16426B",
",X c #1E4368",
"<X c #1D4C6B",
"1X c #194364",
"2X c #19536B",
"3X c #0F4474",
"4X c #1E5478",
"5X c #10486D",
"6X c #244463",
"7X c #2A4464",
"8X c #254B64",
"9X c #274A69",
"0X c #324662",
"qX c #324C6B",
"wX c #384A67",
"eX c #2A5D6F",
"rX c #34546B",
"tX c #39566B",
"yX c #224D70",
"uX c #285678",
"iX c #375776",
"pX c #394472",
"aX c #2B647B",
"sX c #37667D",
"dX c #404A5B",
"fX c #474859",
"gX c #514853",
"hX c #425466",
"jX c #485D78",
"kX c #535C6D",
"lX c #43617B",
"zX c #285980",
"xX c #315C82",
"cX c #335C86",
"vX c #356989",
"bX c #396C96",
"nX c #2A6082",
"mX c #436686",
"MX c #467589",
"NX c #547483",
"BX c #417D97",
"VX c #516F91",
"CX c #657A97",
"ZX c #4C79A0",
"AX c #4A84A7",
"SX c #5284A9",
"DX c #6389B6",
/* pixels */
", i > s.iXB.V i ; ; 7 R.#Xx , = 6 @ $ t % . g f s i = 2 I c i Z u.| 6 ; w E M m =.l f z ~ V. Xb.f + ",
"= i V (.`.V k A = o o v W f k f j 7 $ t e : g i l l - O 0 c l Z V ) .., w &.n H  . .^ ..~ ( |.N.i o ",
"l > > k 9.D Z k , , o , f z ) ` z x ; o - = p l , n c 1 0 c n A 0.6Xp.> k a. .m x ] z ..A i s.p., ; ",
"] k F l.0.9.0.k > = = , f f ~ ( F ` f , , = , n p M b : o o c  .7X6Xa a D u k z 6 f , C A k x f < : ",
"> i p.p.V ( l.) i , , x ^ k Z ( V ( k k V , = = < 0 b b : o o 6 0.yX Xb.7.S i = 6 ; k s P  .: o : < ",
"x f A k Z $XqX(.A z f ....Z ) w.D D S 9.r.Z g < b : c &.Q ;   o > ,XDXcX{. Xk , 6 6 ] i n $.  X : c ",
"f f ..^ k ) F k A z f z k i z Z 9.r.|.uX,Xw. .+.*.5 , x k 6 b &.z V iXmXyX6.i j.h f H , < 1   . 0 M ",
"m 6 ] x f A z A A ^ k f i , k f i t.xXZXyXk , ; o o x p.F k Q -.K.0.V D.t.V (.z.^ x , = :     . : c ",
"W W v 6 ; , x ......z.a.] ..] , > i D e.r.( x Q 7 x ..N.D.(.K.<.X.K.] z k i V 0Xz.H g 5         : < ",
"7 7 : ; ; ; g x | z z ^ ..a.-.] x a.B.N.g.B.K.} g x ( r.t.l.a.X.-.G.7 o j } F F d...W 7 @ & - o o o ",
": : 5 5 5 7 6 f f ) p.z.k...[ -.n [ a.0.s.(.(.k.^ ) ( 9.9.w.p...J %.0   7 &.X.K C f 6 4 * 5 j , ; ; ",
"; 7 w b b c 6 , k 0.0.D ) | m m c < , k V Z Z D u u V 9.N.l.p.] n I q @ : w H F.K f ; ; + + , > o o ",
"; 6 w v w j x z i ( 9.D Z k x L.L.$.M m A D D e.9.6.D D F ) | ..[ +.c - < v l f H f ; ; f { | f o   ",
", 6 6 4 7 j ] j.9.t.,XxXiXs.A K.L.W.T.$.X.(.,X>XcXyXt.k i f x A n [ [ g l =.] = , , , i ..wX&Xz ; + ",
"x j 6 6 6 j | s.,XM.>XvXZXmXB.k l J I c l p.|.3X3X>XB.a.[ n , = , ] a.K P X.[ 6 6 j ) u.s.x.` 6 + + ",
"] W j g g l V Z 9.v.{.v.9.C.=XI.H H M n i s 6.m.bXcXqX_.L.[ f > z k G K K H v 4 8 6 X._.u.i , R 5 5 ",
"; w v c J F.K a S D t.g.0.k.U.K...I.-XdXwXz.9.m.<X>X9X.XG s | Z w.w.D k , 7 w 9 9 w w 7 6 ; ; + + 5 ",
"+ 4 < < p n C B a V ( w.` X.<.X.p.(.P.H.'.'.j._ 8XuXZ.y.A.B.g.OXmXD.Z A Q 5 X # # @ & + o   o + b b ",
"w : ; c n P i.z.s.t.( k k k x | 6XXXd. .W.].[ , , z V S Z.xXbXSX1X9.F K.-.9 X r X @ 5 : + + 7 b +.b ",
"+.5 o < J  .a.P.z.$X$XOX(.) i i 8.f.d.F.=.M c x ..0.g.v.{.{.m.m.9.w.z.X.j o X # # 5 5 7 7 v +.*.E.R.",
"w - o = < g k k z w.x.OX$Xp.k s P P P P H H A k s.6XyXzXAXnXS D N.B..., o o & @ 5 5 7 7 v M +.$.$.$.",
": 0 w 7 7 g x x z k f k Z V Z u.J.J.J l H '.=X0.V v.vXAXBX4XV s Z k i = o - : : 9 5 7 7 c c c 7 < c ",
"c Q +.+.Q } o.Y.` T ~ w.w.9.t.d.N [.!.[ k P.wXqXS e.AXAX5XM.D.s.Z k f g 7 : O o 7 7 7 g g < < : - : ",
"+.b b Q } } o.c.o.' x.9X9X6X6X_.W.:.=.x , k A a a S uX5XS e.D.qXwXI.x ; 7 Q @.b 7 7 g g , , - < 2 < ",
"+.+.Q &.} W T / / / j.` 0.D.D.A.`.i.f , j W $.:. .d.N.V S v.7.y./.P.[ g b +.b w $.L.-. .[ = - < < : ",
"M Q M j 6 ; ; 6 h / ~ f Z s.s.B.s V ^ o.@X#X3.~.G.).D.9.e.v.7.f.d.'.U.} $.*.M ; , ] H l G.J n < - ; ",
"= = 6 f h 8 T R / { x f | z.Z k | k.k.<.<.&.$.%.[ | k s 6.6.8.F A F.F.v v Q Q m U.:X'.l  . .m M < < ",
"c g j R R h 6 ; z k.hX;X .f i z H X.-.} } } } -.P.V s jXCXB.s s s H  .-.Q , ; x K.;XjXP.f g g M 7 7 ",
"n m ] { o.&X@Xh , f dXkX-.6 , 6 v b 0 < c m X.%XlX7Xs u._.|  .[ l H  .[ M g m U.=X(.tXP.= i [ -.W.W.",
"= l ] / c.lXNX&XY.= = > o ; Q &.;.+.2 - o o , ^ x.rX) u k  .U.] X.K.[ , , m U.hXNX%XI.a.> ] Q.*X'.'.",
"m x { / ' j.c.z f g [ M 0 ; o v m J %.>.,.3   ; h ^ i f A k ~ j.I.'.F.i , l x { a.p.Z ) k  .L.L.'.'.",
"H = f k.~ , , i -.fXfX3.2.w   8 } -.!.gXgX#.0 @.W #XX.> i ) j.` P.-.l = = , g ] = | f f = , g X.d.d.",
"g = > z p.p.A i n E.,.e q w 8 O.! 1.fXoX+.+ + &.Q.#XdX-XX.A | ..;.%.%.o g R.dX<., , f f f ] x l 9.e.",
"-.[ k k l.rX%XA p $.%.U 9 * 8 y 2.fXE.w ; c c = v T.Q.*XdX ., n N b %.< M R.*X<.f = f x , x K.).iXxX",
"^ .._ q.2XBXsXh.~ z m v o ; W &.1.E.b b ;.;.$.= < N d N G.J d :.Y M $.< g [ X. .f ] P.).d.l i , k A ",
"^ ~ z z h.2XaXaXq.Z x n , = , , -.J = =.fXT.;.N N 2 Y >.I c I %.;.G.W.G.L.F.l f A hX%Xp._.d.i k ) ) ",
"n g f i i Z V.iX%XP.P P =.Y L J.i.a.> g -.-.L.M c c ;.~.I 2 U %.G.G.W.'.-X'.l s 0XCXwXu./.s.D N.>X{.",
"o 2 [ ..` ) 0.d.| C > i L  .P | | p.k V a.K.'.L.L.=.; = +.+.0 I G.G.F.W.-X'.A F d._.(.`.z.u.0XiXxXzX",
"9 0 M &.-.X.F.L.g l &.).&XC.g.( ( Z 9.8XiX%X(.;X:X@X7 6 4.1.:   c =.G.].-X'.f A H.a.u./.V a B.B.A.l.",
"#.9 0 M $.M =.Q.J n Y.;X$XeXBXvX( D M.iXMXrXj.k...R W W E ! E : o c n M m m = H i X.A | G i G i i i ",
"b 7 7 c J [ [ J p i f ' +XeX2X2X<X<XS.9X8Xw.j...x 6 6 6 Q 4.@.@.M M %.[ $.n > m F.F.=. . .l > = l g ",
"-.g f l i l A k | | ) _ q.9.e.M.Z.Z.Z.6XB.) p.| i , g M 1.!.*.Q $.0 c b ;.%.< p < c p p g g i g c v ",
"| %Xd.0.s.V u D p.s.B.A.f.B 5.n..X.X7XqX/.d./.F.l > > = < $.3.E.T.c < : < 0 < 0 2 < o o 2 M M Q b M ",
"D N.D N.VXmX( k t.w.N.7X`.B B 5.8.B F d.K K H.F.L l n n - - c M g o , M Q $.$.+.>.I - = N $.$.I M M ",
"+Xq.v.+X1X<X+X_ z z _ &XiX.XXXpX.Xd.^.H.G a i C P l l  . .l l m x ; , &.L.T.R.;.~.;.c : 0 M b b M m ",
"MXV.( ( Z w.` ; h h T / ..A F d.d.u.d.u.F k k u.p.) i V d.d.z.P.U.X.] X.[ c J Q M $.M : - : 0 b M J ",
"z ^ .. .J c - o + 5 5 4 4 6 j ..p.w.0.Z j.C.( _ w.$Xq.Z g.g.h._ ) k.k.Y.-., p c c +.M < + - : 0 M M ",
"6 = < < o 3 t % . $ # X + 4 ; ; k Z f , OXsXV.q.~ rXC.z _ g.V.V.V.$Xp.z.I.m n v M Q c - - - + + 0 0 ",
"5 o + + 1 q @ O $ q q E : 5 4 m z z A > q.uXyXS.g.) f f f ( >X4XuXyX6Xp.A m m Q Q Q v o + + 1 @ : - ",
"@   o o : 0 @ o O 0 b @.b b 7 j { { .., ( |.m.e.9.k , g k D {.3X}.e.D i > f , 7 w 7 7 o - : b q 0 - "
};
